<svg id="wave" style="transform:rotate(0deg); transition: 0.3s" viewBox="0 0 1440 120" version="1.1" xmlns="http://www.w3.org/2000/svg"><defs><linearGradient id="sw-gradient-0" x1="0" x2="0" y1="1" y2="0"><stop stop-color="rgba(0, 0, 0, 1)" offset="0%"></stop><stop stop-color="rgba(0, 0, 0, 1)" offset="100%"></stop></linearGradient></defs><path style="transform:translate(0, 0px); opacity:1" fill="url(#sw-gradient-0)" d="M0,36L60,46C120,56,240,76,360,76C480,76,600,56,720,40C840,24,960,12,1080,16C1200,20,1320,40,1440,48C1560,56,1680,52,1800,54C1920,56,2040,64,2160,66C2280,68,2400,64,2520,64C2640,64,2760,68,2880,60C3000,52,3120,32,3240,34C3360,36,3480,60,3600,68C3720,76,3840,68,3960,58C4080,48,4200,36,4320,44C4440,52,4560,80,4680,76C4800,72,4920,36,5040,30C5160,24,5280,48,5400,58C5520,68,5640,64,5760,64C5880,64,6000,68,6120,60C6240,52,6360,32,6480,34C6600,36,6720,60,6840,62C6960,64,7080,44,7200,30C7320,16,7440,8,7560,4C7680,0,7800,0,7920,16C8040,32,8160,64,8280,82C8400,100,8520,104,8580,106L8640,108L8640,120L8580,120C8520,120,8400,120,8280,120C8160,120,8040,120,7920,120C7800,120,7680,120,7560,120C7440,120,7320,120,7200,120C7080,120,6960,120,6840,120C6720,120,6600,120,6480,120C6360,120,6240,120,6120,120C6000,120,5880,120,5760,120C5640,120,5520,120,5400,120C5280,120,5160,120,5040,120C4920,120,4800,120,4680,120C4560,120,4440,120,4320,120C4200,120,4080,120,3960,120C3840,120,3720,120,3600,120C3480,120,3360,120,3240,120C3120,120,3000,120,2880,120C2760,120,2640,120,2520,120C2400,120,2280,120,2160,120C2040,120,1920,120,1800,120C1680,120,1560,120,1440,120C1320,120,1200,120,1080,120C960,120,840,120,720,120C600,120,480,120,360,120C240,120,120,120,60,120L0,120Z"></path></svg>