<svg id="wave" style="transform:rotate(180deg); transition: 0.3s" viewBox="0 0 1440 490" version="1.1" xmlns="http://www.w3.org/2000/svg"><defs><linearGradient id="sw-gradient-0" x1="0" x2="0" y1="1" y2="0"><stop stop-color="rgba(255, 255, 255, 1)" offset="0%"></stop><stop stop-color="rgba(255, 255, 255, 1)" offset="100%"></stop></linearGradient></defs><path style="transform:translate(0, 0px); opacity:1" fill="url(#sw-gradient-0)" d="M0,196L60,171.5C120,147,240,98,360,81.7C480,65,600,82,720,122.5C840,163,960,229,1080,261.3C1200,294,1320,294,1440,277.7C1560,261,1680,229,1800,236.8C1920,245,2040,294,2160,285.8C2280,278,2400,212,2520,187.8C2640,163,2760,180,2880,228.7C3000,278,3120,359,3240,334.8C3360,310,3480,180,3600,114.3C3720,49,3840,49,3960,49C4080,49,4200,49,4320,73.5C4440,98,4560,147,4680,155.2C4800,163,4920,131,5040,130.7C5160,131,5280,163,5400,196C5520,229,5640,261,5760,302.2C5880,343,6000,392,6120,400.2C6240,408,6360,376,6480,367.5C6600,359,6720,376,6840,392C6960,408,7080,425,7200,400.2C7320,376,7440,310,7560,253.2C7680,196,7800,147,7920,171.5C8040,196,8160,294,8280,294C8400,294,8520,196,8580,147L8640,98L8640,490L8580,490C8520,490,8400,490,8280,490C8160,490,8040,490,7920,490C7800,490,7680,490,7560,490C7440,490,7320,490,7200,490C7080,490,6960,490,6840,490C6720,490,6600,490,6480,490C6360,490,6240,490,6120,490C6000,490,5880,490,5760,490C5640,490,5520,490,5400,490C5280,490,5160,490,5040,490C4920,490,4800,490,4680,490C4560,490,4440,490,4320,490C4200,490,4080,490,3960,490C3840,490,3720,490,3600,490C3480,490,3360,490,3240,490C3120,490,3000,490,2880,490C2760,490,2640,490,2520,490C2400,490,2280,490,2160,490C2040,490,1920,490,1800,490C1680,490,1560,490,1440,490C1320,490,1200,490,1080,490C960,490,840,490,720,490C600,490,480,490,360,490C240,490,120,490,60,490L0,490Z"></path></svg>