<svg width="82" height="82" viewBox="0 0 82 82" fill="none" xmlns="http://www.w3.org/2000/svg">
<g clip-path="url(#clip0_1676_15488)">
<path d="M-0.121094 -0.123047H82.1249V82.123H-0.121094V-0.123047Z" fill="#19486A"/>
<path d="M5.70666 10.1283C5.23743 10.38 3.90607 10.7479 3.44141 10.9802V8.75366C4.06096 8.50196 5.7841 7.66943 6.36493 7.03052H8.70763V22.713H5.70666V10.1283Z" fill="white"/>
<path d="M12.9072 9.31502H8.65234V7.0304H15.8273V8.98588L12.5246 22.7129H9.61584L12.9072 9.31502ZM20.9216 7.01902H22.6835C23.7574 7.01902 24.2164 7.64085 24.2164 8.72166C24.2164 9.89813 23.5798 10.3503 22.6094 10.3503H22.0104V13.0153H20.9216V7.01902ZM22.4329 9.58038C23.0331 9.58038 23.188 9.3526 23.188 8.71368C23.188 8.07477 23.1071 7.7889 22.4329 7.7889H22.0115V9.58038H22.4329ZM25.2448 7.01902H26.419L27.6183 13.0153H26.6047L26.3678 11.6304H25.3234L25.0797 13.0153H24.0547L25.2448 7.01902ZM26.2448 10.9334L25.837 8.41643L25.4305 10.9334H26.2448ZM28.051 7.01902H29.494C30.6933 7.01902 31.3743 7.40396 31.3743 8.61346C31.3743 9.3321 31.1967 9.83549 30.634 10.0644L31.4711 13.0187H30.3755L29.6569 10.2717H29.1387V13.0187H28.051V7.01902ZM29.4872 9.58721C30.1158 9.58721 30.3459 9.31388 30.3459 8.66927C30.3459 8.06224 30.1751 7.76613 29.5487 7.76613H29.141V9.58835L29.4872 9.58721ZM31.9142 11.0974V8.95854C31.9142 7.72968 32.3071 6.95182 33.6225 6.95182C34.8513 6.95182 35.2443 7.63516 35.2443 8.67724V9.18063H34.1931V8.66243C34.1931 8.15904 34.1851 7.75132 33.6305 7.75132C33.0758 7.75132 33.0155 8.18068 33.0155 8.72849V11.3274C33.0155 11.9789 33.1487 12.2898 33.6305 12.2898C34.1703 12.2898 34.1931 11.8673 34.1931 11.3343V10.7944H35.2443V11.275C35.2443 12.3342 34.8878 13.0973 33.6225 13.0973C32.3071 13.0973 31.9142 12.267 31.9142 11.0974ZM35.8456 7.01902H38.3625V7.7889H36.9332V9.51318H38.0585V10.2762H36.9332V12.267H38.3773V13.0153H35.8456V7.01902ZM38.8511 7.01902H40.2941C41.4933 7.01902 42.1744 7.40396 42.1744 8.61346C42.1744 9.3321 41.9967 9.83549 41.4341 10.0644L42.2712 13.0187H41.1756L40.457 10.2717H39.9388V13.0187H38.8511V7.01902ZM40.2873 9.58721C40.9159 9.58721 41.146 9.31388 41.146 8.66927C41.146 8.06224 40.9752 7.76613 40.3488 7.76613H39.941V9.58835L40.2873 9.58721ZM42.8703 7.01902H43.9511V13.0153H42.8703V7.01902ZM45.6093 7.01902H46.7789L47.9782 13.0153H46.9646L46.7277 11.6304H45.6833L45.4385 13.0153H44.4135L45.6093 7.01902ZM46.6092 10.9334L46.2015 8.41643L45.7949 10.9334H46.6092ZM48.2378 11.2682L49.1774 11.0826C49.207 11.7932 49.3779 12.2522 49.8608 12.2522C50.2093 12.2522 50.3573 12.0153 50.3573 11.6896C50.3573 11.1714 50.0908 10.8833 49.6979 10.5427L48.9428 9.88332C48.5135 9.51318 48.247 9.09863 48.247 8.43238C48.247 7.48482 48.8392 6.95182 49.7947 6.95182C50.9199 6.95182 51.2377 7.7069 51.2969 8.58043L50.3573 8.74329C50.3345 8.18068 50.2537 7.75929 49.7719 7.75929C49.4462 7.75929 49.2685 8.00302 49.2685 8.3219C49.2685 8.72849 49.4394 8.95057 49.7571 9.22504L50.5054 9.88332C50.994 10.3058 51.4005 10.8309 51.4005 11.6235C51.4005 12.4891 50.7935 13.0961 49.8983 13.0961C48.8005 13.0973 48.2857 12.4595 48.2378 11.2682ZM53.5155 7.01902H56.0301V7.7889H54.6042V9.51318H55.7295V10.2762H54.6042V12.267H56.0472V13.0153H53.5155V7.01902ZM58.2464 7.01902H59.3785L60.2303 11.1714L61.1107 7.01902H62.2143L62.3282 13.0153H61.5139L61.425 8.84693L60.5743 13.0153H59.9149L59.0493 8.83213L58.9673 13.0153H58.1462L58.2464 7.01902ZM63.0502 7.01902H65.5672V7.7889H64.139V9.51318H65.2642V10.2762H64.139V12.267H65.582V13.0153H63.0502V7.01902ZM66.0854 7.01902H67.1662V13.0153H66.0854V7.01902ZM67.8324 11.135V8.88338C67.8324 7.66932 68.2766 6.94727 69.5647 6.94727C70.8528 6.94727 71.2912 7.67046 71.2912 8.88338V11.135C71.2912 12.341 70.8471 13.0961 69.5658 13.0961C68.2846 13.0961 67.8324 12.349 67.8324 11.135ZM70.1797 11.3889V8.63282C70.1797 8.12943 70.0977 7.75132 69.5647 7.75132C69.0317 7.75132 68.9428 8.12943 68.9428 8.63282V11.3889C68.9428 11.8855 69.0237 12.2852 69.5647 12.2852C70.1057 12.2852 70.1797 11.89 70.1797 11.3889ZM71.7855 11.2682L72.7251 11.0826C72.7547 11.7932 72.9255 12.2522 73.4084 12.2522C73.7569 12.2522 73.905 12.0153 73.905 11.6896C73.905 11.1714 73.6385 10.8833 73.2456 10.5427L72.4905 9.88332C72.0611 9.51318 71.7946 9.09863 71.7946 8.43238C71.7946 7.48482 72.3868 6.95182 73.3424 6.95182C74.4676 6.95182 74.7853 7.7069 74.8446 8.58043L73.905 8.74329C73.8822 8.18068 73.8013 7.75929 73.3196 7.75929C72.9939 7.75929 72.8162 8.00302 72.8162 8.3219C72.8162 8.72849 72.987 8.95057 73.3048 9.22504L74.053 9.88332C74.5416 10.3058 74.9482 10.8309 74.9482 11.6235C74.9482 12.4891 74.3412 13.0961 73.446 13.0961C72.3481 13.0973 71.8299 12.4595 71.7855 11.2682ZM20.9216 16.8135H22.3361C23.7939 16.8135 24.238 17.3977 24.238 18.679V20.8622C24.238 22.1799 23.7825 22.8097 22.3805 22.8097H20.9216V16.8135ZM22.3509 22.0524C23.098 22.0524 23.1276 21.6526 23.1276 20.9055V18.6049C23.1276 17.8863 23.0536 17.5902 22.3361 17.5902H22.0104V22.0467L22.3509 22.0524ZM24.8827 16.8135H27.3996V17.5834H25.9703V19.3076H27.0955V20.0707H25.9703V22.0615H27.4144V22.8097H24.8827V16.8135ZM29.5532 16.8135H30.6329V22.8097H29.5521L29.5532 16.8135ZM31.4848 16.8135H32.618L33.4699 20.9659L34.3502 16.8135H35.4538L35.5677 22.8097H34.7534L34.6646 18.6414L33.8127 22.8097H33.1544L32.2888 18.6266L32.2068 22.8097H31.3846L31.4848 16.8135ZM36.2898 16.8135H38.0516C39.1256 16.8135 39.5834 17.4353 39.5834 18.5218C39.5834 19.6983 38.9479 20.1504 37.9776 20.1504H37.3774V22.8154H36.2898V16.8135ZM37.7999 19.3748C38.399 19.3748 38.555 19.147 38.555 18.5081C38.555 17.8692 38.473 17.5834 37.7999 17.5834H37.3774V19.3748H37.7999ZM40.0276 16.8135H41.1164V22.0615H42.5742V22.8097H40.0276V16.8135ZM42.9819 16.8135H45.4988V17.5834H44.0718V19.3076H45.197V20.0707H44.0718V22.0615H45.5159V22.8097H42.9819V16.8135ZM46.0762 16.8135H47.2083L48.0579 20.9659L48.9383 16.8135H50.0418L50.1557 22.8097H49.3414L49.2526 18.6414L48.3996 22.8097H47.7402L46.8746 18.6266L46.7926 22.8097H45.9715L46.0762 16.8135ZM50.8801 16.8135H53.397V17.5834H51.9688V19.3076H53.0941V20.0707H51.9688V22.0615H53.4107V22.8097H50.8801V16.8135ZM53.8856 16.8135H54.6487L56.1064 20.2301V16.8135H57.0096V22.8097H56.2841L54.8183 19.2268V22.8097H53.8856V16.8135ZM58.3569 17.6198H57.4025V16.8135H60.3852V17.6198H59.4525V22.8097H58.3569V17.6198ZM61.5184 16.8135H62.6881L63.8885 22.8097H62.8737L62.6357 21.4248H61.5925L61.3476 22.8097H60.3226L61.5184 16.8135ZM62.5218 20.7278L62.1152 18.2109L61.7029 20.7278H62.5218ZM66.4703 18.9751V18.4569C66.4703 17.9535 66.4635 17.5458 65.9077 17.5458C65.3519 17.5458 65.2938 17.9751 65.2938 18.5229V21.1219C65.2938 21.7733 65.4271 22.0842 65.9077 22.0842C66.4487 22.0842 66.4703 21.6617 66.4703 21.1287V20.5889H67.5215V21.0695C67.5215 22.0842 67.1958 22.8314 66.0489 22.8917V23.2619C66.5967 23.2619 66.9669 23.5067 66.9669 23.9657C66.9669 24.4907 66.4999 24.7128 65.9601 24.7128C65.7795 24.711 65.6001 24.6838 65.4271 24.6319V24.165C65.5565 24.2053 65.6913 24.2253 65.8269 24.2242C66.0854 24.2242 66.2824 24.1502 66.2824 23.9509C66.2824 23.6844 65.9795 23.5876 65.631 23.5511V22.8769C64.5353 22.763 64.1948 21.9738 64.1948 20.893V18.753C64.1948 17.5241 64.5877 16.7463 65.9032 16.7463C67.132 16.7463 67.5238 17.4296 67.5238 18.4717V18.9751H66.4703ZM69.0135 16.8135H70.1865L71.3858 22.8097H70.3722L70.1353 21.4248H69.0909L68.8472 22.8097H67.8222L69.0135 16.8135ZM69.2412 15.6803C69.0488 15.6803 68.9816 15.7942 68.9816 15.9844H68.4634C68.4634 15.4514 68.6114 15.0516 69.0932 15.0516C69.4553 15.0516 69.7002 15.3933 70.018 15.3933C70.1888 15.3933 70.2549 15.2896 70.2549 15.0972H70.7434C70.7434 15.563 70.6626 16.0299 70.1808 16.0299C69.8016 16.0288 69.5499 15.6803 69.2469 15.6803H69.2412ZM70.0168 20.7278L69.6091 18.2109L69.2025 20.7278H70.0168ZM71.6671 20.9294V18.6778C71.6671 17.4638 72.1112 16.7417 73.3993 16.7417C74.6874 16.7417 75.1247 17.4604 75.1247 18.6778V20.9283C75.1247 22.1344 74.6806 22.8894 73.3993 22.8894C72.1181 22.8894 71.6671 22.1435 71.6671 20.9294ZM74.0143 21.1834V18.4273C74.0143 17.9239 73.9323 17.5458 73.3993 17.5458C72.8663 17.5458 72.7775 17.9239 72.7775 18.4273V21.1834C72.7775 21.6799 72.8595 22.0797 73.3993 22.0797C73.9392 22.0797 74.0143 21.6845 74.0143 21.1834ZM61.9956 49.798C61.9923 47.0137 60.9113 44.3389 58.9792 42.3342C57.0471 40.3294 54.414 39.1505 51.6317 39.0446C50.8904 36.9458 49.5164 35.1285 47.6991 33.8431C45.8819 32.5577 43.7107 31.8674 41.4848 31.8674C39.2589 31.8674 37.0877 32.5577 35.2705 33.8431C33.4532 35.1285 32.0792 36.9458 31.3379 39.0446C29.1315 39.1244 27.0031 39.8814 25.2419 41.2129C23.4807 42.5443 22.172 44.3855 21.4936 46.4865C20.8151 48.5875 20.7999 50.8465 21.4498 52.9565C22.0997 55.0665 23.3834 56.9253 25.1264 58.2804C24.5095 60.4094 24.5656 62.677 25.2869 64.773C26.0082 66.8689 27.3595 68.6908 29.1559 69.9893C30.9523 71.2878 33.1061 71.9995 35.3225 72.027C37.5389 72.0546 39.7096 71.3966 41.5378 70.1431C43.3671 71.3656 45.5275 71.9976 47.7273 71.9538C49.9271 71.9101 52.0606 71.1926 53.8399 69.8982C55.6192 68.6039 56.9586 66.7949 57.6775 64.7154C58.3965 62.6359 58.4603 60.3859 57.8603 58.269C59.1479 57.264 60.1896 55.9788 60.9061 54.511C61.6227 53.0432 61.9953 51.4314 61.9956 49.798ZM50.0783 42.623C50.075 44.6807 49.334 46.669 47.9897 48.2269C46.6453 49.7848 44.7869 50.809 42.7518 51.1134C42.5687 49.994 42.611 48.8492 42.8762 47.7464C43.1413 46.6435 43.6241 45.6047 44.2962 44.6909C44.9682 43.7771 45.8159 43.0068 46.7897 42.425C47.7634 41.8432 48.8435 41.4618 49.9667 41.303C50.0388 41.7394 50.0768 42.1807 50.0806 42.623M41.5264 67.3483C40.7067 66.5556 40.0535 65.6074 39.605 64.5591C39.1564 63.5109 38.9216 62.3836 38.9141 61.2435C38.9067 60.1033 39.1269 58.9731 39.5617 57.9191C39.9966 56.8651 40.6374 55.9084 41.4467 55.1052C42.2663 55.8978 42.9195 56.846 43.368 57.8943C43.8166 58.9426 44.0515 60.0698 44.0589 61.21C44.0663 62.3502 43.8461 63.4803 43.4113 64.5344C42.9764 65.5884 42.3356 66.545 41.5264 67.3483ZM33.0018 41.3064C34.1254 41.4643 35.2062 41.8452 36.1805 42.4268C37.1548 43.0084 38.003 43.7789 38.6752 44.693C39.3474 45.6071 39.83 46.6464 40.0947 47.7498C40.3595 48.8532 40.4009 49.9983 40.2167 51.1179C39.093 50.9601 38.0123 50.5792 37.038 49.9976C36.0637 49.416 35.2155 48.6455 34.5433 47.7314C33.8711 46.8172 33.3884 45.7779 33.1237 44.6746C32.859 43.5712 32.8175 42.426 33.0018 41.3064ZM39.4103 53.6417C38.9036 54.6609 38.1988 55.5689 37.3371 56.3125C36.4754 57.0561 35.4741 57.6204 34.3917 57.9725C33.3093 58.3246 32.1676 58.4573 31.0333 58.3629C29.8991 58.2685 28.795 57.9489 27.7857 57.4228C28.2924 56.4036 28.9972 55.4957 29.8589 54.7521C30.7206 54.0085 31.7219 53.4441 32.8043 53.0921C33.8867 52.74 35.0284 52.6073 36.1627 52.7017C37.2969 52.796 38.401 53.1156 39.4103 53.6417ZM43.5308 53.5836C44.5455 53.051 45.6568 52.7274 46.7989 52.6318C47.9409 52.5363 49.0905 52.6709 50.1796 53.0276C51.2687 53.3843 52.2752 53.9559 53.1395 54.7085C54.0037 55.4611 54.7082 56.3794 55.2113 57.4092C54.1966 57.9423 53.0853 58.2663 51.9432 58.3621C50.801 58.4578 49.6512 58.3233 48.562 57.9666C47.4728 57.6099 46.4662 57.0381 45.602 56.2852C44.7378 55.5324 44.0335 54.6137 43.5308 53.5836ZM41.4808 34.0335C43.1545 34.0352 44.7913 34.5251 46.1907 35.443C47.5901 36.361 48.6914 37.6673 49.3596 39.2017C47.6583 39.5057 46.0547 40.2136 44.6837 41.2659C43.3127 42.3183 42.2143 43.6843 41.4808 45.2492C40.7482 43.6841 39.6504 42.3178 38.2797 41.2654C36.909 40.213 35.3055 39.5052 33.6043 39.2017C34.2723 37.6676 35.3733 36.3616 36.7722 35.4437C38.1712 34.5257 39.8076 34.0356 41.4808 34.0335ZM23.1402 49.798C23.1434 47.6794 23.928 45.6365 25.3437 44.0604C26.7594 42.4844 28.7068 41.4859 30.8128 41.2563C30.7541 41.7122 30.724 42.1713 30.7229 42.6309C30.7223 44.128 31.0348 45.6087 31.6403 46.9779C32.2457 48.3471 33.1308 49.5746 34.2386 50.5815C32.515 50.7811 30.865 51.3935 29.4285 52.3667C27.9921 53.34 26.8116 54.6455 25.9874 56.1723C25.0922 55.3697 24.3761 54.3876 23.8856 53.29C23.395 52.1923 23.141 51.0037 23.1402 49.8014M26.8677 61.2723C26.8675 60.6736 26.9305 60.0765 27.0557 59.4911C28.6031 60.2397 30.3076 60.606 32.026 60.5592C33.7444 60.5125 35.4265 60.054 36.931 59.2223C36.611 60.9133 36.7035 62.6566 37.2005 64.3043C37.6975 65.952 38.5845 67.4556 39.7862 68.6876C38.4818 69.4527 36.9984 69.8595 35.4862 69.8666C33.9741 69.8737 32.4869 69.481 31.1754 68.7282C29.8639 67.9754 28.7748 66.8892 28.0183 65.5799C27.2618 64.2705 26.8649 62.7845 26.8677 61.2723ZM56.1019 61.2017C56.1024 62.7039 55.7086 64.18 54.9599 65.4823C54.2111 66.7847 53.1335 67.8676 51.8349 68.6229C50.5364 69.3782 49.0623 69.7794 47.5601 69.7864C46.0578 69.7933 44.5801 69.4058 43.2746 68.6625C45.1689 66.6684 46.2248 64.0228 46.2243 61.2723C46.2232 60.5811 46.1561 59.8916 46.0238 59.2132C47.5322 60.051 49.2202 60.513 50.945 60.56C52.6698 60.607 54.3805 60.2376 55.9322 59.4831C56.0481 60.0486 56.1065 60.6244 56.1064 61.2017M48.8005 50.5189C49.8887 49.5136 50.7569 48.2938 51.3506 46.9365C51.9443 45.5791 52.2506 44.1136 52.2502 42.6321C52.249 42.1724 52.2189 41.7133 52.1602 41.2574C53.8057 41.434 55.365 42.0826 56.6502 43.1252C57.9354 44.1678 58.8918 45.5597 59.4039 47.1334C59.9161 48.7071 59.9622 50.3953 59.5368 51.9946C59.1114 53.5939 58.2325 55.0361 57.0062 56.1473C56.191 54.6177 55.0192 53.3071 53.59 52.3265C52.1608 51.346 50.5164 50.7244 48.7959 50.5143" fill="white"/>
</g>
<defs>
<clipPath id="clip0_1676_15488">
<rect width="82" height="82" fill="white"/>
</clipPath>
</defs>
</svg>
