<svg width="82" height="82" viewBox="0 0 82 82" fill="none" xmlns="http://www.w3.org/2000/svg">
<g clip-path="url(#clip0_1676_15475)">
<path d="M-0.121094 -0.123047H82.1249V82.123H-0.121094V-0.123047Z" fill="#4C9F38"/>
<path d="M6.21875 18.2404V17.6983H9.20036V18.2222C9.22428 19.7506 9.49078 20.467 10.4771 20.467C11.4838 20.467 11.6968 19.6925 11.6968 18.2017C11.6968 16.6335 11.3289 15.7429 9.95431 15.7041C9.78084 15.684 9.60604 15.6775 9.43156 15.6848V13.497H9.89622C11.2902 13.497 11.6968 12.7806 11.6968 11.1736C11.6968 9.92086 11.4064 9.19881 10.419 9.19881C9.43156 9.19881 9.22428 10.0507 9.20036 11.275V11.972H6.21875V11.1156C6.21875 8.36628 7.76764 6.81739 10.4201 6.81739C13.0919 6.81739 14.6408 8.28883 14.6408 11.0188C14.6408 12.8581 13.7889 14.1359 12.666 14.4457C13.8049 14.8716 14.6408 15.9171 14.6408 18.1436C14.6408 20.9909 13.5019 22.9839 10.4395 22.9839C7.30297 22.9839 6.21875 21.0865 6.21875 18.2404ZM21.3717 11.2682L22.3124 11.0825C22.342 11.7932 22.5117 12.2522 22.9957 12.2522C23.3374 12.2522 23.4911 12.0153 23.4911 11.6896C23.4911 11.1714 23.2246 10.8832 22.8329 10.5427L22.0778 9.88328C21.6484 9.51314 21.3819 9.09858 21.3819 8.43233C21.3819 7.48478 21.9741 6.95178 22.9285 6.95178C24.0538 6.95178 24.3726 7.70686 24.4319 8.58039L23.4911 8.74325C23.4695 8.18064 23.3875 7.75925 22.9069 7.75925C22.5812 7.75925 22.4035 8.00297 22.4035 8.32186C22.4035 8.72844 22.5732 8.95053 22.8921 9.225L23.6392 9.88328C24.1278 10.3058 24.5355 10.8308 24.5355 11.6235C24.5355 12.4891 23.9285 13.0961 23.0322 13.0961C21.9343 13.0972 21.4161 12.4594 21.3717 11.2682ZM26.0058 7.01897H27.1754L28.3747 13.0152H27.3611L27.1242 11.6303H26.0798L25.8361 13.0152H24.8111L26.0058 7.01897ZM27.0058 10.9333L26.598 8.41639L26.1937 10.9333H27.0058ZM28.8633 11.0757V7.01897H29.9293V11.201C29.9293 11.7704 29.9965 12.2818 30.5511 12.2818C31.1058 12.2818 31.1809 11.7716 31.1809 11.201V7.01897H32.2389V11.0757C32.2389 12.3285 31.8916 13.0961 30.5511 13.0961C29.2106 13.0961 28.8633 12.3342 28.8633 11.0757ZM30.6992 5.125H31.7242L30.8404 6.60556H30.255L30.6992 5.125ZM33.0612 7.01897H34.4746C35.9335 7.01897 36.3777 7.60322 36.3777 8.88447V11.0677C36.3777 12.3854 35.9221 13.0152 34.519 13.0152H33.0612V7.01897ZM34.4894 12.2522C35.2376 12.2522 35.2673 11.8524 35.2673 11.1053V8.81044C35.2673 8.09181 35.1932 7.79569 34.47 7.79569H34.1443V12.2522H34.4894ZM37.1476 7.01897H39.6645V7.78886H38.2352V9.51314H39.3604V10.2762H38.2352V12.267H39.6793V13.0152H37.1476V7.01897ZM42.0402 7.01897H44.5572V7.78886H43.129V9.51314H44.2542V10.2762H43.129V12.267H44.572V13.0152H42.0402V7.01897ZM21.5243 16.8134H23.0048C24.056 16.8134 24.7599 17.1687 24.7599 18.3532C24.7599 19.0855 24.4558 19.4921 23.8932 19.5821C24.597 19.7153 24.9296 20.2187 24.9296 21.0626C24.9296 22.2095 24.3669 22.8097 23.2565 22.8097H21.5243V16.8134ZM22.99 19.2632C23.6415 19.2632 23.8123 18.975 23.8123 18.368C23.8123 17.7314 23.5014 17.5708 22.8351 17.5708H22.6131V19.2586L22.99 19.2632ZM23.0344 22.0398C23.7007 22.0398 23.8863 21.7289 23.8863 21.0546C23.8863 20.344 23.6494 20.0183 22.998 20.0183H22.6131V22.0398H23.0344ZM25.6061 16.8134H28.123V17.5833H26.6948V19.3076H27.8201V20.0706H26.6948V22.0614H28.1378V22.8097H25.6061V16.8134ZM28.8268 16.8134H29.9589L30.8108 20.9658L31.6911 16.8134H32.7993L32.9132 22.8097H32.0989L32.01 18.6413L31.1593 22.8097H30.4999L29.6343 18.6265L29.5523 22.8097H28.7312L28.8268 16.8134ZM33.7275 20.0444H35.511V20.7278H33.7275V20.0444ZM36.3481 16.8134H38.865V17.5833H37.4357V19.3076H38.5609V20.0706H37.4357V22.0614H38.8798V22.8097H36.3481V16.8134ZM39.3308 21.0626L40.2715 20.877C40.3011 21.5876 40.4708 22.0466 40.9549 22.0466C41.3022 22.0466 41.4503 21.8097 41.4503 21.484C41.4503 20.9658 41.1838 20.6777 40.792 20.3371L40.0369 19.6777C39.6076 19.3076 39.3411 18.893 39.3411 18.2268C39.3411 17.2792 39.9333 16.7462 40.8877 16.7462C42.0129 16.7462 42.3318 17.5013 42.391 18.3748L41.4503 18.5377C41.4286 17.9751 41.3466 17.5537 40.866 17.5537C40.5403 17.5537 40.3626 17.7974 40.3626 18.1163C40.3626 18.5229 40.5323 18.745 40.8512 19.0194L41.5983 19.6777C42.0869 20.1003 42.4946 20.6253 42.4946 21.4179C42.4946 22.2835 41.8876 22.8905 40.9913 22.8905C39.8934 22.8917 39.3752 22.2539 39.3308 21.0626ZM43.6985 17.6198H42.7441V16.8134H45.7268V17.6198H44.7941V22.8097H43.6985V17.6198ZM46.9853 16.8134H48.1549L49.3542 22.8097H48.3406L48.1037 21.4248H47.0593L46.8156 22.8097H45.7906L46.9853 16.8134ZM47.9852 20.7278L47.5775 18.2108L47.1709 20.7278H47.9852ZM49.9168 16.8134H51.3632C52.5624 16.8134 53.2435 17.1984 53.2435 18.4079C53.2435 19.1265 53.0658 19.6299 52.5032 19.8588L53.3391 22.8131H52.2435L51.526 20.0661H51.0078V22.8131H49.9168V16.8134ZM51.3529 19.3816C51.9827 19.3816 52.2116 19.1083 52.2116 18.4637C52.2116 17.8566 52.042 17.5605 51.4144 17.5605H51.0078V19.3828L51.3529 19.3816ZM68.7506 51.3252C68.7506 49.0007 67.2586 47.1113 64.9991 47.1113C63.8693 47.1113 62.5061 48.3481 61.7669 49.1089C61.0266 48.347 59.7534 47.109 58.6236 47.109C56.364 47.109 54.781 48.9939 54.781 51.3229C54.7768 52.4337 55.2072 53.5022 55.9802 54.2999L61.7715 60.1026L67.5548 54.3068C68.3274 53.5071 68.7565 52.437 68.7506 51.3252Z" fill="white"/>
<path d="M44.0913 69.5758H44.0332C43.8192 69.5625 43.616 69.4773 43.4564 69.3341C43.2968 69.1908 43.1903 68.9979 43.154 68.7866L40.2123 51.652L35.7603 59.9146C35.6652 60.0906 35.5171 60.232 35.337 60.3189C35.1569 60.4058 34.9539 60.4337 34.757 60.3986C34.5602 60.3636 34.3793 60.2673 34.2403 60.1236C34.1013 59.9799 34.0111 59.796 33.9825 59.598L32.0863 46.3755L28.6241 54.1496C28.5501 54.3185 28.4285 54.4623 28.2742 54.5634C28.1199 54.6646 27.9396 54.7186 27.7551 54.719H14.3025C14.1777 54.719 14.054 54.6944 13.9386 54.6466C13.8232 54.5988 13.7184 54.5288 13.6301 54.4405C13.5418 54.3522 13.4717 54.2473 13.424 54.132C13.3762 54.0166 13.3516 53.8929 13.3516 53.768C13.3516 53.6432 13.3762 53.5195 13.424 53.4041C13.4717 53.2887 13.5418 53.1839 13.6301 53.0956C13.7184 53.0073 13.8232 52.9373 13.9386 52.8895C14.054 52.8417 14.1777 52.8171 14.3025 52.8171H27.1378L31.6934 42.591C31.7774 42.4027 31.9204 42.2469 32.1008 42.1469C32.2811 42.047 32.4891 42.0084 32.6933 42.0369C32.8975 42.0654 33.0869 42.1596 33.233 42.3051C33.379 42.4506 33.4738 42.6397 33.5031 42.8438L35.454 56.4775L39.849 48.3298C39.9429 48.1556 40.0888 48.0151 40.2664 47.9277C40.4439 47.8404 40.6444 47.8106 40.8397 47.8426C41.035 47.8745 41.2154 47.9666 41.3559 48.106C41.4964 48.2455 41.5899 48.4252 41.6233 48.6203L44.3476 64.4884L54.2764 31.5062C54.3316 31.3226 54.4409 31.1599 54.5902 31.0396C54.7394 30.9192 54.9215 30.8468 55.1126 30.8318C55.3037 30.8168 55.4949 30.8598 55.6611 30.9554C55.8273 31.051 55.9608 31.1945 56.044 31.3672L61.2715 42.1924C61.3257 42.3049 61.3572 42.427 61.3642 42.5518C61.3712 42.6765 61.3536 42.8014 61.3124 42.9193C61.2711 43.0372 61.2071 43.1459 61.1238 43.239C61.0406 43.3322 60.9398 43.408 60.8273 43.4622C60.7147 43.5165 60.5926 43.548 60.4679 43.555C60.3432 43.562 60.2183 43.5444 60.1004 43.5032C59.9824 43.4619 59.8738 43.3978 59.7807 43.3146C59.6875 43.2314 59.6116 43.1306 59.5574 43.0181L55.3914 34.3944L45.0024 68.9027C44.9427 69.0977 44.8219 69.2683 44.6579 69.3895C44.4938 69.5107 44.2952 69.576 44.0913 69.5758Z" fill="white"/>
</g>
<defs>
<clipPath id="clip0_1676_15475">
<rect width="82" height="82" fill="white"/>
</clipPath>
</defs>
</svg>
