<svg width="83" height="81" viewBox="0 0 83 81" fill="none" xmlns="http://www.w3.org/2000/svg">
<g clip-path="url(#clip0_1676_15480)">
<path d="M0.378906 -0.121582H82.6249V81.1214H0.378906V-0.121582Z" fill="#26BDE2"/>
<path d="M7.01172 17.559V12.0465C7.01172 9.02925 7.86361 6.75 11.2324 6.75C14.1172 6.75 15.1821 8.14612 15.2015 10.6706V10.9384H12.3747C12.3747 9.63788 12.2392 9.00675 11.2518 9.00675C10.3031 9.00675 10.0514 9.75263 10.0514 12.1433V13.7115C10.3806 13.1569 11.1356 12.8317 12.065 12.8115C14.5626 12.7733 15.4532 14.7049 15.4532 17.2676C15.4532 20.4233 14.4464 22.6418 11.2518 22.6418C8.24627 22.6462 7.01172 20.4851 7.01172 17.559ZM12.4522 17.775C12.4522 16.2068 12.4135 15.075 11.2518 15.075C11.0072 15.0821 10.7686 15.1508 10.5585 15.2747C10.3484 15.3985 10.1738 15.5734 10.0514 15.7826V18.2475C10.0514 19.4141 10.3031 20.4469 11.2712 20.4469C12.2586 20.4469 12.4522 19.4715 12.4522 17.775ZM22.9186 6.93338H24.0882L25.2875 12.8565H24.2739L24.0358 11.4885H22.9926L22.7477 12.8565H21.7227L22.9186 6.93338ZM23.9174 10.8L23.5074 8.31488L23.1031 10.8H23.9174ZM23.6509 5.0625H24.6759L23.7921 6.525H23.2067L23.6509 5.0625ZM25.6941 10.9035V8.9145C25.6941 7.64212 26.087 6.867 27.4024 6.867C28.6313 6.867 29.0606 7.49587 29.0606 8.59275V8.89988H28.0163V8.56238C28.0163 7.992 27.957 7.65563 27.4172 7.65563C26.8398 7.65563 26.7954 8.11687 26.7954 8.658V11.1375C26.7954 11.7518 26.9093 12.1399 27.4468 12.1399C27.9844 12.1399 28.1051 11.7304 28.1051 11.0869V10.5311H27.4616V9.85613H29.0879V12.8621H28.3818L28.3078 12.2839C28.1449 12.6641 27.8523 12.942 27.2931 12.942C26.1086 12.9375 25.6941 12.15 25.6941 10.9035ZM29.8476 10.9406V6.93338H30.9102V11.0644C30.9102 11.6269 30.9762 12.132 31.532 12.132C32.0878 12.132 32.1607 11.628 32.1607 11.0644V6.93338H33.2198V10.9406C33.2198 12.1781 32.8713 12.9364 31.532 12.9364C30.1927 12.9364 29.8476 12.1838 29.8476 10.9406ZM34.9111 6.93338H36.0807L37.28 12.8565H36.2629L36.0261 11.4885H34.9828L34.738 12.8565H33.713L34.9111 6.93338ZM35.9099 10.8L35.5033 8.31375L35.0956 10.8H35.9099ZM39.6044 6.93338H41.3663C42.4391 6.93338 42.8981 7.54763 42.8981 8.61525C42.8981 9.77738 42.2615 10.224 41.2923 10.224H40.6921V12.8565H39.6044V6.93338ZM41.1146 9.4635C41.7137 9.4635 41.8697 9.2385 41.8697 8.60738C41.8697 7.97625 41.7877 7.69388 41.1146 7.69388H40.6921V9.4635H41.1146ZM43.3719 10.9991V8.775C43.3719 7.57575 43.8161 6.8625 45.1041 6.8625C46.3922 6.8625 46.8296 7.57238 46.8296 8.775V10.9991C46.8296 12.1905 46.3854 12.9364 45.1041 12.9364C43.8229 12.9364 43.3719 12.1984 43.3719 10.9991ZM45.7157 11.25V8.5275C45.7157 8.03025 45.6337 7.65675 45.1007 7.65675C44.5677 7.65675 44.4789 8.03025 44.4789 8.5275V11.25C44.4789 11.7405 44.5609 12.1354 45.1007 12.1354C45.6406 12.1354 45.7157 11.745 45.7157 11.25ZM48.1689 7.72988H47.2145V6.93338H50.1973V7.72988H49.2645V12.8565H48.1689V7.72988ZM51.4557 6.93338H52.6254L53.8246 12.8565H52.811L52.5741 11.4885H51.5298L51.286 12.8565H50.261L51.4557 6.93338ZM52.4557 10.8L52.048 8.31375L51.638 10.8H52.4557ZM52.1892 5.0625H53.2142L52.3327 6.525H51.7484L52.1892 5.0625ZM53.8838 6.93338H54.8462L55.6434 11.1229L56.3905 6.93338H57.3757L56.1684 12.8565H55.0945L53.8838 6.93338ZM57.9474 6.93338H60.4643V7.69388H59.0407V9.39713H60.166V10.1509H59.0407V12.1174H60.4848V12.8565H57.9474V6.93338ZM61.0793 6.93338H62.167V12.1174H63.6259V12.8565H61.0793V6.93338ZM22.0268 16.6084H24.5438V17.3689H23.1111V19.0721H24.2363V19.8259H23.1111V21.7924H24.554V22.5315H22.0268V16.6084ZM26.768 20.8058L27.7076 20.6224C27.7372 21.3244 27.9081 21.7778 28.3909 21.7778C28.7394 21.7778 28.8875 21.5438 28.8875 21.222C28.8875 20.7101 28.621 20.4255 28.2281 20.0891L27.473 19.4378C27.0436 19.0721 26.7771 18.6626 26.7771 18.0045C26.7771 17.0685 27.3694 16.542 28.3249 16.542C29.4501 16.542 29.7679 17.2879 29.8282 18.1508L28.8875 18.3116C28.8647 17.7559 28.7839 17.3396 28.3021 17.3396C27.9764 17.3396 27.7987 17.5804 27.7987 17.8954C27.7987 18.297 27.9696 18.5164 28.2873 18.7875L29.0356 19.4378C29.5241 19.8551 29.9319 20.3738 29.9319 21.1567C29.9319 22.0118 29.3237 22.6114 28.4285 22.6114C27.3306 22.6125 26.8102 21.9825 26.768 20.8058ZM31.4022 16.6084H32.5718L33.7711 22.5315H32.7563L32.5194 21.1635H31.4796L31.2348 22.5315H30.2098L31.4022 16.6084ZM32.401 20.475L31.9944 17.9887L31.5867 20.475H32.401ZM34.3337 16.6084H35.0956L36.5545 19.9834V16.6084H37.4576V22.5315H36.7322L35.2664 18.9923V22.5315H34.3337V16.6084ZM38.3312 16.6084H40.8481V17.3689H39.4188V19.0721H40.544V19.8259H39.4188V21.7924H40.8629V22.5315H38.3312V16.6084ZM42.3583 16.6084H43.5279L44.7272 22.5315H43.7124L43.4755 21.1635H42.4323L42.1852 22.5315H41.1602L42.3583 16.6084ZM43.3571 20.475L42.9505 17.9887L42.5428 20.475H43.3571ZM45.3741 16.6084H46.5129L47.3648 20.7101L48.2452 16.6084H49.3488L49.4627 22.5315H48.6427L48.5538 18.414L47.7031 22.5315H47.0437L46.1781 18.3994L46.0961 22.5315H45.275L45.3741 16.6084ZM50.3089 16.6084H52.8258V17.3689H51.3965V19.0721H52.5217V19.8259H51.3965V21.7924H52.8406V22.5315H50.3089V16.6084ZM53.4397 16.6084H54.2027L55.6605 19.9834V16.6084H56.5636V22.5315H55.8382L54.3713 18.9923V22.5315H53.4385L53.4397 16.6084ZM58.0374 17.4049H57.0818V16.6084H60.0657V17.4049H59.133V22.5315H58.0374V17.4049ZM60.4495 20.6741V18.45C60.4495 17.2508 60.8937 16.5375 62.1818 16.5375C63.4699 16.5375 63.9072 17.2474 63.9072 18.45V20.673C63.9072 21.8644 63.463 22.6103 62.1818 22.6103C60.9005 22.6103 60.4495 21.8734 60.4495 20.6741ZM62.7991 20.925V18.2025C62.7991 17.7053 62.7182 17.3317 62.1841 17.3317C61.6499 17.3317 61.5634 17.7053 61.5634 18.2025V20.925C61.5634 21.4155 61.6442 21.8104 62.1841 21.8104C62.7239 21.8104 62.7991 21.42 62.7991 20.925ZM56.7185 32.6936C56.684 32.657 56.6419 32.6281 56.5952 32.6087C56.5485 32.5893 56.4981 32.5799 56.4475 32.5811H26.4685C26.4181 32.5804 26.3681 32.59 26.3216 32.6094C26.2751 32.6288 26.2332 32.6574 26.1986 32.6936C26.1673 32.7328 26.1445 32.7778 26.1316 32.826C26.1187 32.8742 26.1159 32.9245 26.1234 32.9738L31.1596 63.0607C31.1732 63.141 31.2148 63.214 31.2772 63.267C31.3396 63.32 31.4189 63.3497 31.5013 63.351H37.682L38.1045 68.2515H35.5033L41.5554 74.2298L47.6222 68.2391H45.0221L45.4435 63.3465H51.7336C51.8172 63.3472 51.8981 63.3175 51.9611 63.2632C52.0241 63.2089 52.0647 63.1337 52.0753 63.0518L56.7869 32.9693C56.7953 32.9211 56.7936 32.8718 56.7818 32.8244C56.7701 32.777 56.7485 32.7324 56.7185 32.6936ZM45.1338 56.781C44.6529 57.2147 44.0879 57.5475 43.473 57.7592C42.8581 57.971 42.2061 58.0573 41.5565 58.0129C40.9065 58.0577 40.254 57.9716 39.6387 57.7599C39.0234 57.5481 38.4581 57.2151 37.977 56.781C35.7311 54.5648 36.5317 51.8074 37.3141 50.382C37.7959 49.4899 41.2467 44.3722 41.544 43.9369V43.902L41.5565 43.9189L41.569 43.902V43.9369C41.8583 44.3722 45.3137 49.4899 45.7966 50.382C46.579 51.8074 47.3774 54.5625 45.1338 56.781ZM54.6423 39.024C53.8303 38.6708 52.8008 38.799 51.8122 39.1939C48.0926 40.6834 45.5608 41.2189 41.6488 40.0084C39.1853 39.2468 36.8814 37.6515 34.156 38.6224C32.3486 39.2648 30.663 39.8779 28.6187 39.8599L27.4388 33.8805H55.492L54.6423 39.024Z" fill="white"/>
</g>
<defs>
<clipPath id="clip0_1676_15480">
<rect width="82" height="81" fill="white" transform="translate(0.5)"/>
</clipPath>
</defs>
</svg>
