<svg width="83" height="82" viewBox="0 0 83 82" fill="none" xmlns="http://www.w3.org/2000/svg">
<g clip-path="url(#clip0_1676_15497)">
<path d="M0.378906 -0.123047H82.6249V82.123H0.378906V-0.123047Z" fill="#FF3A21"/>
<path d="M6.83594 18.1629H9.7401C9.7401 19.886 9.95308 20.7823 11.0373 20.7379C12.1762 20.6992 12.2377 19.4214 12.2377 17.3691C12.2377 15.704 12.0634 14.5219 10.9018 14.5219C10.2048 14.5219 9.76288 15.0059 9.56585 15.9352H6.99197L7.20494 7.0291H14.4061V9.60527H9.6433L9.48841 13.0709C9.79819 12.6837 10.592 12.3739 11.4632 12.3158C13.8834 12.1029 15.0644 14.0242 15.0644 17.2336C15.0644 20.5637 14.4255 22.9644 10.863 22.9644C7.5523 22.9644 6.83594 21.0693 6.83594 18.1629ZM22.0504 7.01885H23.1312V13.0151H22.0504V7.01885ZM23.9238 11.038V9.02444C23.9238 7.73635 24.3156 6.95166 25.6322 6.95166C26.861 6.95166 27.2915 7.5883 27.2915 8.69872V9.00963H26.2472V8.66797C26.2472 8.09055 26.1879 7.75002 25.647 7.75002C25.0695 7.75002 25.0251 8.21697 25.0251 8.76477V11.2749C25.0251 11.8967 25.139 12.2896 25.6766 12.2896C26.2141 12.2896 26.336 11.8751 26.336 11.2236V10.661H25.6925V9.97769H27.3223V13.0208H26.6105L26.5364 12.4354C26.4624 12.6412 26.3235 12.8175 26.1408 12.9376C25.958 13.0577 25.7411 13.1153 25.5228 13.1017C24.3384 13.0971 23.9238 12.2999 23.9238 11.038ZM28.0762 11.0756V7.01885H29.1422V11.2009C29.1422 11.7703 29.2094 12.2817 29.764 12.2817C30.3187 12.2817 30.3939 11.7714 30.3939 11.2009V7.01885H31.4519V11.0756C31.4519 12.3284 31.1102 13.096 29.764 13.096C28.4179 13.096 28.0762 12.334 28.0762 11.0756ZM33.1397 7.01885H34.3093L35.5086 13.0151H34.495L34.2581 11.6302H33.2137L32.97 13.0151H31.945L33.1397 7.01885ZM34.1397 10.9332L33.7319 8.41627L33.3253 10.9332H34.1397ZM36.0712 7.01885H37.16V12.2669H38.6178V13.0151H36.0712V7.01885ZM39.1508 7.01885H40.5653C42.023 7.01885 42.4672 7.6031 42.4672 8.88435V11.0676C42.4672 12.3853 42.0117 13.0151 40.6097 13.0151H39.1508V7.01885ZM40.5801 12.252C41.3272 12.252 41.3568 11.8523 41.3568 11.1052V8.81033C41.3568 8.09169 41.2828 7.79558 40.5653 7.79558H40.2395V12.252H40.5801ZM44.089 7.01885H45.2586L46.4579 13.0151H45.4431L45.2062 11.6302H44.163L43.9182 13.0151H42.8932L44.089 7.01885ZM45.0878 10.9332L44.6812 8.41627L44.2735 10.9332H45.0878ZM47.0193 7.01885H48.4338C49.8928 7.01885 50.3369 7.6031 50.3369 8.88435V11.0676C50.3369 12.3853 49.8814 13.0151 48.4783 13.0151H47.0193V7.01885ZM48.4475 12.252C49.1958 12.252 49.2254 11.8523 49.2254 11.1052V8.81033C49.2254 8.09169 49.1513 7.79558 48.4282 7.79558H48.1058V12.252H48.4475ZM51.1057 7.01885H53.6238V7.78874H52.1945V9.51302H53.3197V10.2761H52.1945V12.2669H53.6386V13.0151H51.1057V7.01885ZM22.0253 16.8133H23.4398C24.8976 16.8133 25.3429 17.3975 25.3429 18.6788V20.862C25.3429 22.1797 24.8873 22.8095 23.4842 22.8095H22.0253V16.8133ZM23.4546 22.0522C24.2017 22.0522 24.2325 21.6524 24.2325 20.9053V18.6048C24.2325 17.8861 24.1573 17.59 23.4352 17.59H23.1095V22.0465L23.4546 22.0522ZM26.1071 16.8133H28.624V17.5832H27.1958V19.3075H28.3211V20.0705H27.1958V22.0613H28.6388V22.8095H26.1071V16.8133ZM30.9086 20.8324V18.8189C30.9086 17.5308 31.3015 16.7461 32.617 16.7461C33.8458 16.7461 34.2752 17.3827 34.2752 18.4932V18.8041H33.2308V18.4624C33.2308 17.885 33.1716 17.5445 32.6318 17.5445C32.0543 17.5445 32.0099 18.0114 32.0099 18.5592V21.0648C32.0099 21.6866 32.1238 22.0795 32.6614 22.0795C33.1989 22.0795 33.3197 21.665 33.3197 21.0135V20.4509H32.6739V19.7619H34.3025V22.805H33.5918L33.5178 22.2196C33.355 22.6045 33.0623 22.8859 32.5031 22.8859C31.3186 22.8915 30.9086 22.0943 30.9086 20.8324ZM35.102 16.8133H37.619V17.5832H36.1897V19.3075H37.3149V20.0705H36.1897V22.0613H37.6338V22.8095H35.102V16.8133ZM35.9197 14.9774H36.8308L37.5142 16.3441H36.7671L36.3821 15.4557L36.004 16.3441H35.2637L35.9197 14.9774ZM38.2328 16.8133H38.9947L40.4525 20.23V16.8133H41.3557V22.8095H40.6302L39.1656 19.2266V22.8095H38.2328V16.8133ZM42.2303 16.8133H44.7473V17.5832H43.3225V19.3075H44.4477V20.0705H43.3225V22.0613H44.7655V22.8095H42.2303V16.8133ZM45.3623 16.8133H46.8052C48.0045 16.8133 48.6855 17.1982 48.6855 18.4077C48.6855 19.1264 48.5079 19.6298 47.9453 19.8587L48.7823 22.813H47.6867L46.967 20.0625H46.4488V22.8095H45.3611L45.3623 16.8133ZM46.7984 19.3815C47.4271 19.3815 47.6571 19.1082 47.6571 18.4635C47.6571 17.8565 47.4863 17.5604 46.8599 17.5604H46.4522V19.3826L46.7984 19.3815ZM49.3518 20.9292V18.6777C49.3518 17.4636 49.796 16.7415 51.084 16.7415C52.3721 16.7415 52.8095 17.4602 52.8095 18.6777V20.9281C52.8095 22.1342 52.3653 22.8893 51.084 22.8893C49.8028 22.8893 49.3518 22.1433 49.3518 20.9292ZM51.699 21.1832V18.4271C51.699 17.9237 51.617 17.5456 51.084 17.5456C50.551 17.5456 50.4622 17.9237 50.4622 18.4271V21.1832C50.4622 21.6798 50.5442 22.0795 51.084 22.0795C51.6239 22.0795 51.699 21.6843 51.699 21.1832ZM60.3694 30.9515H50.1012C50.0666 30.9515 50.0335 30.9651 50.009 30.9894C49.9844 31.0137 49.9705 31.0468 49.9702 31.0813V34.498C49.9705 34.5326 49.9844 34.5657 50.0089 34.5902C50.0334 34.6147 50.0665 34.6286 50.1012 34.6289H54.1898L49.6502 39.1663C47.6668 37.6077 45.2849 36.6388 42.7767 36.3703C40.2686 36.1019 37.7355 36.5447 35.4672 37.6483C33.199 38.7518 31.2871 40.4715 29.9502 42.6106C28.6134 44.7496 27.9055 47.2218 27.9077 49.7443C27.9077 56.5776 33.0235 62.2231 39.6211 63.0784V67.0098H35.5712C35.554 67.0095 35.5369 67.0127 35.5209 67.0191C35.5048 67.0254 35.4903 67.035 35.478 67.047C35.4657 67.0591 35.4559 67.0735 35.4492 67.0895C35.4426 67.1054 35.4391 67.1224 35.4391 67.1397V70.7978C35.439 70.8151 35.4423 70.8322 35.4489 70.8482C35.4555 70.8642 35.4653 70.8786 35.4776 70.8907C35.4899 70.9029 35.5046 70.9124 35.5207 70.9187C35.5368 70.925 35.554 70.9281 35.5712 70.9276H39.6211V74.7998C39.621 74.8171 39.6243 74.8342 39.6308 74.8501C39.6373 74.8661 39.647 74.8806 39.6591 74.8928C39.6713 74.905 39.6858 74.9146 39.7018 74.9211C39.7178 74.9277 39.7349 74.931 39.7521 74.9308H43.4079C43.4252 74.931 43.4424 74.9277 43.4584 74.9212C43.4744 74.9146 43.489 74.905 43.5013 74.8928C43.5136 74.8807 43.5233 74.8662 43.53 74.8502C43.5366 74.8343 43.54 74.8171 43.54 74.7998V70.9276H47.5899C47.607 70.9278 47.624 70.9245 47.6398 70.918C47.6556 70.9116 47.67 70.902 47.6821 70.8899C47.6942 70.8778 47.7037 70.8635 47.7102 70.8476C47.7167 70.8318 47.7199 70.8149 47.7198 70.7978V67.1397C47.7198 67.1052 47.7061 67.0722 47.6817 67.0479C47.6574 67.0235 47.6244 67.0098 47.5899 67.0098H43.54V63.0146C45.7872 62.6464 47.9039 61.7132 49.6915 60.3027C51.4792 58.8921 52.879 57.0505 53.7598 54.9506C54.6406 52.8507 54.9733 50.5614 54.7268 48.2977C54.4803 46.034 53.6626 43.87 52.3505 42.0089L56.8263 37.532V41.3518C56.8265 41.369 56.83 41.386 56.8367 41.4018C56.8434 41.4177 56.8532 41.432 56.8655 41.4441C56.8777 41.4561 56.8923 41.4657 56.9082 41.4721C56.9242 41.4785 56.9412 41.4818 56.9584 41.4816H60.3694C60.4042 41.4819 60.4378 41.4685 60.4628 41.4441C60.4877 41.4198 60.502 41.3866 60.5026 41.3518V31.0813C60.502 31.0465 60.4877 31.0133 60.4628 30.9889C60.4378 30.9646 60.4042 30.9512 60.3694 30.9515ZM41.3579 59.6446C39.3998 59.6449 37.4855 59.0644 35.8573 57.9767C34.229 56.8889 32.9599 55.3428 32.2104 53.5338C31.4609 51.7247 31.2646 49.7341 31.6465 47.8135C32.0284 45.8929 32.9712 44.1288 34.3558 42.7441C35.7403 41.3594 37.5044 40.4163 39.4249 40.0342C41.3454 39.6521 43.3361 39.8481 45.1452 40.5974C46.9544 41.3467 48.5006 42.6157 49.5886 44.2438C50.6765 45.8719 51.2572 47.7861 51.2572 49.7443C51.255 52.3692 50.2114 54.886 48.3555 56.7421C46.4995 58.5983 43.9828 59.6422 41.3579 59.6446Z" fill="white"/>
<path d="M47.4039 45.6808H35.3966C35.3643 45.6792 35.3326 45.6902 35.3082 45.7114C35.2838 45.7326 35.2685 45.7625 35.2656 45.7947V48.7011C35.2662 48.7177 35.2701 48.7339 35.277 48.7489C35.2839 48.7639 35.2938 48.7773 35.306 48.7885C35.3182 48.7996 35.3325 48.8082 35.348 48.8137C35.3636 48.8193 35.3801 48.8217 35.3966 48.8207H47.4039C47.4206 48.822 47.4373 48.8198 47.4532 48.8144C47.469 48.809 47.4836 48.8005 47.496 48.7893C47.5084 48.7782 47.5185 48.7646 47.5256 48.7494C47.5326 48.7343 47.5366 48.7179 47.5372 48.7011V45.7981C47.5342 45.7655 47.5187 45.7353 47.4938 45.714C47.4689 45.6927 47.4366 45.682 47.4039 45.6842M47.4039 50.8719H35.3966C35.3633 50.8706 35.3308 50.8826 35.3062 50.9052C35.2817 50.9279 35.2671 50.9593 35.2656 50.9926V53.899C35.268 53.9315 35.2831 53.9617 35.3076 53.983C35.3321 54.0044 35.3641 54.0151 35.3966 54.0129H47.4039C47.4367 54.0154 47.4691 54.0049 47.4941 53.9835C47.519 53.9622 47.5345 53.9318 47.5372 53.899V50.9926C47.5364 50.9759 47.5324 50.9595 47.5253 50.9444C47.5182 50.9292 47.5081 50.9156 47.4957 50.9044C47.4833 50.8932 47.4688 50.8845 47.4531 50.8789C47.4373 50.8734 47.4206 50.871 47.4039 50.8719Z" fill="white"/>
</g>
<defs>
<clipPath id="clip0_1676_15497">
<rect width="82" height="82" fill="white" transform="translate(0.5)"/>
</clipPath>
</defs>
</svg>
