<svg width="82" height="82" viewBox="0 0 82 82" fill="none" xmlns="http://www.w3.org/2000/svg">
<g clip-path="url(#clip0_1676_15144)">
<path d="M-0.0117188 -0.123047H82.0133V82.123H-0.0117188V-0.123047Z" fill="#E5243B"/>
<path d="M5.80822 10.1282C5.34355 10.3799 4.00764 10.7477 3.54297 10.9801V8.75355C4.16252 8.50185 5.88566 7.66933 6.4665 7.03041H8.80577V22.7129H5.80822V10.1282ZM16.7176 7.01902H19.2357V7.78891H17.8064V9.51319H18.9316V10.2762H17.8064V12.267H19.2471V13.0153H16.7176V7.01902ZM19.738 7.01902H21.1832C22.3825 7.01902 23.0635 7.40396 23.0635 8.61346C23.0635 9.3321 22.8859 9.83549 22.3232 10.0644L23.1592 13.0187H22.0636L21.3461 10.2717H20.8279V13.0187H19.7391L19.738 7.01902ZM21.1741 9.58721C21.8039 9.58721 22.0328 9.31388 22.0328 8.66927C22.0328 8.06224 21.8631 7.76613 21.2356 7.76613H20.829V9.58835L21.1741 9.58721ZM23.7434 7.01902H25.1864C26.3857 7.01902 27.0679 7.40396 27.0679 8.61346C27.0679 9.3321 26.8891 9.83549 26.3264 10.0644L27.1635 13.0187H26.0679L25.3493 10.2717H24.8277V13.0187H23.74L23.7434 7.01902ZM25.1796 9.58721C25.8082 9.58721 26.0383 9.31388 26.0383 8.66927C26.0383 8.06224 25.8675 7.76613 25.2411 7.76613H24.8277V9.58835L25.1796 9.58721ZM28.6441 7.01902H29.8137L31.013 13.0153H29.9982L29.7613 11.6304H28.7181L28.4721 13.0153H27.4471L28.6441 7.01902ZM29.6429 10.9334L29.2363 8.41644L28.8286 10.9334H29.6429ZM31.464 7.01902H32.8785C34.3362 7.01902 34.7804 7.60327 34.7804 8.88452V11.0678C34.7804 12.3855 34.3249 13.0153 32.9229 13.0153H31.464V7.01902ZM32.8933 12.2522C33.6404 12.2522 33.67 11.8525 33.67 11.1054V8.81049C33.67 8.09185 33.596 7.79574 32.8785 7.79574H32.5527V12.2522H32.8933ZM35.4694 7.01902H36.5502V13.0153H35.4694V7.01902ZM37.2313 11.0974V8.95855C37.2313 7.72969 37.6231 6.95183 38.9396 6.95183C40.1685 6.95183 40.5614 7.63516 40.5614 8.67724V9.18063H39.5102V8.66244C39.5102 8.15905 39.5022 7.75133 38.9476 7.75133C38.393 7.75133 38.3326 8.18069 38.3326 8.72849V11.3274C38.3326 11.9789 38.4659 12.2898 38.9476 12.2898C39.4874 12.2898 39.5102 11.8673 39.5102 11.3343V10.7944H40.5614V11.275C40.5614 12.3342 40.2061 13.0973 38.9396 13.0973C37.6231 13.0973 37.2313 12.267 37.2313 11.0974ZM42.0727 7.01902H43.2424L44.4416 13.0153H43.4269L43.19 11.6304H42.1467L41.9019 13.0153H40.8769L42.0727 7.01902ZM43.0715 10.9334L42.6649 8.41644L42.2527 10.9334H43.0715ZM47.036 9.18063V8.66244C47.036 8.15905 47.0292 7.75133 46.4734 7.75133C45.9176 7.75133 45.8595 8.18069 45.8595 8.72849V11.3274C45.8595 11.9789 45.9928 12.2898 46.4734 12.2898C47.0144 12.2898 47.036 11.8673 47.036 11.3343V10.7944H48.0872V11.275C48.0872 12.2898 47.7615 13.0369 46.6146 13.0973V13.4674C47.1624 13.4674 47.5326 13.7123 47.5326 14.1712C47.5326 14.6963 47.0656 14.9184 46.5258 14.9184C46.3452 14.9166 46.1658 14.8894 45.9928 14.8375V14.3705C46.1222 14.4108 46.257 14.4308 46.3925 14.4298C46.651 14.4298 46.8481 14.3557 46.8481 14.1564C46.8481 13.8899 46.5451 13.7931 46.1966 13.7567V13.0825C45.101 12.9686 44.7605 12.1793 44.7605 11.0985V8.95855C44.7582 7.72969 45.1523 6.94727 46.4666 6.94727C47.6954 6.94727 48.0872 7.6306 48.0872 8.67269V9.17608L47.036 9.18063ZM49.6008 7.01902H50.7704L51.9697 13.0153H50.9561L50.7192 11.6304H49.6748L49.4277 13.0153H48.4027L49.6008 7.01902ZM49.8285 5.88013C49.6349 5.88013 49.5689 5.99402 49.5689 6.18421H49.0507C49.0507 5.65121 49.1987 5.25146 49.6805 5.25146C50.0427 5.25146 50.2875 5.59313 50.6053 5.59313C50.7761 5.59313 50.8422 5.48949 50.8422 5.29702H51.3307C51.3307 5.76283 51.2499 6.22977 50.7681 6.22977C50.3855 6.23433 50.1338 5.88583 49.8308 5.88583L49.8285 5.88013ZM50.6007 10.9334L50.193 8.41644L49.7864 10.9334H50.6007ZM52.2658 11.135V8.88338C52.2658 7.66933 52.7099 6.94727 53.998 6.94727C55.2861 6.94727 55.7234 7.66591 55.7234 8.88338V11.135C55.7234 12.341 55.2793 13.0961 53.998 13.0961C52.7168 13.0961 52.2658 12.349 52.2658 11.135ZM54.613 11.3889V8.63283C54.613 8.12944 54.531 7.75133 53.998 7.75133C53.465 7.75133 53.3762 8.12944 53.3762 8.63283V11.3889C53.3762 11.8855 53.4571 12.2852 53.998 12.2852C54.539 12.2852 54.613 11.89 54.613 11.3889ZM16.7176 16.8135H18.1321C19.5911 16.8135 20.0352 17.3977 20.0352 18.679V20.8622C20.0352 22.1799 19.5797 22.8097 18.1766 22.8097H16.7176V16.8135ZM18.1469 22.0524C18.8952 22.0524 18.9248 21.6526 18.9248 20.9055V18.6049C18.9248 17.8863 18.8508 17.5902 18.1276 17.5902H17.8019V22.0467L18.1469 22.0524ZM21.5442 16.8135H22.7139L23.9166 22.8097H22.9018L22.6638 21.4248H21.6194L21.3757 22.8097H20.3507L21.5442 16.8135ZM22.5499 20.7278L22.1433 18.2109L21.7299 20.7278H22.5499ZM26.0155 16.8135H27.7774C28.8514 16.8135 29.3103 17.4353 29.3103 18.5218C29.3103 19.6983 28.6737 20.1504 27.7034 20.1504H27.1054V22.8154H26.0167L26.0155 16.8135ZM27.5257 19.3748C28.1259 19.3748 28.2808 19.147 28.2808 18.5081C28.2808 17.8692 28.1999 17.5834 27.5257 17.5834H27.1054V19.3748H27.5257ZM29.6725 20.9294V18.6778C29.6725 17.4638 30.1167 16.7417 31.4047 16.7417C32.6928 16.7417 33.1302 17.4604 33.1302 18.6778V20.9283C33.1302 22.1344 32.686 22.8894 31.4047 22.8894C30.1235 22.8894 29.6725 22.1435 29.6725 20.9294ZM32.0197 21.1834V18.4273C32.0197 17.9239 31.9377 17.5458 31.4047 17.5458C30.8717 17.5458 30.7829 17.9239 30.7829 18.4273V21.1834C30.7829 21.6799 30.8649 22.0797 31.4047 22.0797C31.9446 22.0797 32.0197 21.6845 32.0197 21.1834ZM33.7884 16.8135H35.269C36.3202 16.8135 37.024 17.1688 37.024 18.3532C37.024 19.0855 36.7199 19.4921 36.1573 19.5821C36.8612 19.7154 37.1937 20.2187 37.1937 21.0627C37.1937 22.2095 36.6311 22.8097 35.5207 22.8097H33.7884V16.8135ZM35.2542 19.2632C35.9056 19.2632 36.0765 18.9751 36.0765 18.368C36.0765 17.7314 35.7656 17.5708 35.0993 17.5708H34.8772V19.2587L35.2542 19.2632ZM35.2986 22.0398C35.9649 22.0398 36.1505 21.7289 36.1505 21.0547C36.1505 20.344 35.9136 20.0183 35.2622 20.0183H34.8772V22.0398H35.2986ZM37.7643 16.8135H39.2073C40.4065 16.8135 41.0876 17.1984 41.0876 18.4079C41.0876 19.1265 40.9099 19.6299 40.3473 19.8589L41.1844 22.8131H40.0888L39.3701 20.0661H38.8519V22.8131H37.7643V16.8135ZM39.2004 19.3817C39.8291 19.3817 40.0592 19.1083 40.0592 18.4637C40.0592 17.8567 39.8883 17.5606 39.2619 17.5606H38.8542V19.3828L39.2004 19.3817ZM41.7686 16.8135H44.2856V17.5834H42.8574V19.3076H43.9826V20.0707H42.8574V22.0615H44.3027V22.8097H41.7686V16.8135ZM44.5885 22.1059L46.1955 17.5685H44.6705V16.8135H47.2991V17.3761L45.626 22.0615H47.3059V22.8097H44.5885V22.1059ZM48.6828 16.8135H49.8525L51.0517 22.8097H50.0381L49.8012 21.4248H48.7569L48.5166 22.8097H47.4916L48.6828 16.8135ZM49.6828 20.7278L49.275 18.2109L48.8673 20.7278H49.6828ZM63.3221 39.1072C63.3221 38.655 63.4562 38.213 63.7074 37.8369C63.9585 37.4609 64.3156 37.1678 64.7333 36.9946C65.1511 36.8215 65.6108 36.7761 66.0543 36.8641C66.4979 36.9522 66.9053 37.1697 67.2253 37.4893C67.5452 37.8089 67.7632 38.2162 67.8517 38.6597C67.9402 39.1031 67.8952 39.5629 67.7225 39.9808C67.5497 40.3987 67.257 40.756 66.8812 41.0076C66.5054 41.2591 66.0635 41.3937 65.6113 41.3941C65.3108 41.3943 65.0132 41.3352 64.7356 41.2204C64.4579 41.1055 64.2056 40.9371 63.9931 40.7248C63.7805 40.5124 63.6118 40.2603 63.4967 39.9827C63.3816 39.7052 63.3223 39.4077 63.3221 39.1072ZM68.2774 42.2767C69.0346 42.3464 69.7385 42.6966 70.2508 43.2585C70.763 43.8205 71.0467 44.5537 71.0461 45.3142V51.6555C71.0378 51.8851 70.9408 52.1026 70.7754 52.2622C70.6101 52.4217 70.3892 52.5109 70.1594 52.5109C69.9296 52.5109 69.7088 52.4217 69.5434 52.2622C69.3781 52.1026 69.281 51.8851 69.2728 51.6555V46.2093C69.2728 46.0055 69.2136 45.7287 68.84 45.7287C68.5826 45.7287 68.528 46.0021 68.5189 46.1763V62.4989C68.5089 62.8304 68.3703 63.1451 68.1322 63.3761C67.8942 63.6071 67.5756 63.7363 67.2439 63.7363C66.9122 63.7363 66.5935 63.6071 66.3555 63.3761C66.1175 63.1451 65.9788 62.8304 65.9689 62.4989V53.0928C65.9736 53.0436 65.9676 52.994 65.9513 52.9474C65.935 52.9008 65.9088 52.8583 65.8745 52.8228C65.8401 52.7873 65.7985 52.7597 65.7525 52.7418C65.7065 52.7239 65.6571 52.7162 65.6079 52.7192C65.5583 52.7167 65.5089 52.7247 65.4627 52.7426C65.4165 52.7606 65.3745 52.7881 65.3397 52.8234C65.3049 52.8586 65.2779 52.9009 65.2605 52.9473C65.2431 52.9937 65.2357 53.0433 65.2389 53.0928V62.4989C65.2389 62.8366 65.1047 63.1604 64.8659 63.3992C64.6271 63.638 64.3033 63.7721 63.9656 63.7721C63.6279 63.7721 63.304 63.638 63.0652 63.3992C62.8265 63.1604 62.6923 62.8366 62.6923 62.4989V46.1763C62.6843 46.0021 62.6285 45.7287 62.3723 45.7287C61.9964 45.7287 61.9395 46.0055 61.9395 46.2093V51.6555C61.9313 51.8851 61.8343 52.1026 61.6689 52.2622C61.5035 52.4217 61.2827 52.5109 61.0529 52.5109C60.8231 52.5109 60.6022 52.4217 60.4369 52.2622C60.2715 52.1026 60.1745 51.8851 60.1662 51.6555V45.3142C60.1659 44.5533 60.4502 43.8198 60.9631 43.2577C61.476 42.6957 62.1806 42.3458 62.9383 42.2767C62.9937 42.2684 63.0497 42.2638 63.1057 42.2631H68.1054C68.1634 42.2638 68.2212 42.2684 68.2785 42.2767M49.7169 40.3087C49.7169 39.8808 49.59 39.4624 49.3523 39.1066C49.1145 38.7507 48.7765 38.4734 48.3811 38.3096C47.9857 38.1458 47.5506 38.1029 47.1309 38.1864C46.7111 38.2699 46.3256 38.476 46.023 38.7786C45.7203 39.0813 45.5142 39.4668 45.4307 39.8866C45.3472 40.3063 45.3901 40.7414 45.5539 41.1368C45.7177 41.5322 45.995 41.8702 46.3509 42.108C46.7067 42.3457 47.1251 42.4726 47.553 42.4726C48.1269 42.4726 48.6773 42.2447 49.0832 41.8388C49.489 41.433 49.7169 40.8826 49.7169 40.3087ZM43.1877 45.2139L41.3871 51.0758C41.3871 51.0758 41.0671 52.1509 41.9782 52.4186C42.8893 52.6862 43.1638 51.6384 43.1638 51.6384L44.6159 46.7412C44.6159 46.7412 44.6944 46.3642 44.9769 46.4462C45.2593 46.5282 45.1545 46.9302 45.1545 46.9302L42.6274 56.0972H44.9769V62.664C44.9769 62.9633 45.0958 63.2504 45.3075 63.4621C45.5191 63.6737 45.8062 63.7926 46.1055 63.7926C46.4049 63.7926 46.6919 63.6737 46.9036 63.4621C47.1152 63.2504 47.2342 62.9633 47.2342 62.664V56.1029H47.8754V62.6697C47.8754 62.969 47.9943 63.2561 48.2059 63.4678C48.4176 63.6794 48.7047 63.7983 49.004 63.7983C49.3033 63.7983 49.5904 63.6794 49.8021 63.4678C50.0137 63.2561 50.1326 62.969 50.1326 62.6697V56.1029H52.4822L49.9572 46.9359C49.9572 46.9359 49.8502 46.5328 50.1326 46.4519C50.4151 46.3711 50.4948 46.7469 50.4948 46.7469L51.9469 51.6441C51.9469 51.6441 52.2225 52.693 53.1279 52.4242C54.0333 52.1555 53.719 51.0815 53.719 51.0815L51.915 45.2139C51.915 45.2139 51.2727 43.5193 49.8468 43.5193H45.2571C43.8323 43.5193 43.1877 45.2139 43.1877 45.2139ZM36.7439 40.3087C36.7439 39.8808 36.6169 39.4624 36.3792 39.1066C36.1414 38.7507 35.8034 38.4734 35.408 38.3096C35.0126 38.1458 34.5776 38.1029 34.1578 38.1864C33.7381 38.2699 33.3525 38.476 33.0499 38.7786C32.7472 39.0813 32.5412 39.4668 32.4577 39.8866C32.3742 40.3063 32.417 40.7414 32.5808 41.1368C32.7446 41.5322 33.0219 41.8702 33.3778 42.108C33.7336 42.3457 34.152 42.4726 34.58 42.4726C35.1539 42.4726 35.7043 42.2447 36.1101 41.8388C36.5159 41.433 36.7439 40.8826 36.7439 40.3087ZM30.2146 45.2139L28.4152 51.0747C28.4152 51.0747 28.0929 52.1498 29.0051 52.4174C29.9174 52.6851 30.1861 51.6373 30.1861 51.6373L31.6382 46.74C31.6382 46.74 31.7179 46.3631 32.0004 46.4451C32.2828 46.5271 32.1769 46.9291 32.1769 46.9291L29.6509 56.096H32.0027V62.6629C32.0027 62.9622 32.1216 63.2493 32.3332 63.4609C32.5449 63.6726 32.832 63.7915 33.1313 63.7915C33.4306 63.7915 33.7177 63.6726 33.9294 63.4609C34.141 63.2493 34.2599 62.9622 34.2599 62.6629V56.1029H34.9011V62.6697C34.9011 62.969 35.02 63.2561 35.2317 63.4678C35.4434 63.6794 35.7304 63.7983 36.0298 63.7983C36.3291 63.7983 36.6162 63.6794 36.8278 63.4678C37.0395 63.2561 37.1584 62.969 37.1584 62.6697V56.1029H39.5079L36.983 46.9359C36.983 46.9359 36.876 46.5328 37.1584 46.4519C37.4409 46.3711 37.5206 46.7469 37.5206 46.7469L38.9704 51.6441C38.9704 51.6441 39.2471 52.693 40.1537 52.4242C41.0602 52.1555 40.7436 51.0815 40.7436 51.0815L38.9408 45.2139C38.9408 45.2139 38.2996 43.5193 36.8737 43.5193H32.284C30.8638 43.5204 30.2146 45.2139 30.2146 45.2139ZM56.991 52.4311C57.3475 52.4311 57.6961 52.3254 57.9925 52.1273C58.289 51.9293 58.5201 51.6478 58.6565 51.3184C58.793 50.989 58.8288 50.6266 58.7593 50.2769C58.6899 49.9272 58.5183 49.606 58.2662 49.3538C58.0142 49.1016 57.6931 48.9298 57.3434 48.8601C56.9938 48.7904 56.6313 48.826 56.3019 48.9623C55.9724 49.0985 55.6908 49.3294 55.4925 49.6258C55.2943 49.9221 55.1884 50.2706 55.1882 50.6271C55.1877 50.864 55.234 51.0987 55.3245 51.3177C55.4149 51.5367 55.5476 51.7357 55.7151 51.9033C55.8826 52.0709 56.0815 52.2038 56.3005 52.2943C56.5194 52.3849 56.7541 52.4314 56.991 52.4311ZM52.6689 58.0321C52.5801 58.2428 52.5084 58.6904 52.9309 58.8852C53.4274 59.1129 53.7042 58.6335 53.7042 58.6335L54.6836 55.5072C54.6836 55.5072 54.8545 55.2988 54.8545 55.5152V62.8724C54.8545 63.1177 54.9519 63.3529 55.1253 63.5263C55.2988 63.6998 55.534 63.7972 55.7792 63.7972C56.0245 63.7972 56.2597 63.6998 56.4332 63.5263C56.6066 63.3529 56.704 63.1177 56.704 62.8724V59.9694C56.704 59.9694 56.6505 59.5583 56.9808 59.5583C57.3111 59.5583 57.2609 59.9694 57.2609 59.9694V62.8724C57.2609 63.1183 57.3586 63.3541 57.5325 63.5279C57.7063 63.7018 57.9421 63.7995 58.188 63.7995C58.4339 63.7995 58.6697 63.7018 58.8435 63.5279C59.0174 63.3541 59.1151 63.1183 59.1151 62.8724V55.5152C59.1151 55.2988 59.2289 55.4525 59.2289 55.4525L59.9965 57.5925C59.9965 57.5925 60.3302 58.5492 60.4327 58.5913C60.5157 58.6259 60.6046 58.6437 60.6944 58.6439C60.7842 58.644 60.8732 58.6265 60.9563 58.5922C61.0393 58.5579 61.1148 58.5076 61.1783 58.4442C61.2419 58.3807 61.2924 58.3053 61.3268 58.2223C61.3722 58.1156 61.3893 57.9989 61.3766 57.8836C61.3638 57.7683 61.3215 57.6583 61.2539 57.5641V57.5572C61.2322 57.4877 60.1059 54.7271 59.9738 54.3387C59.5672 53.152 58.8269 53.1622 58.1151 53.1429C57.4033 53.1235 56.9762 53.1429 56.9762 53.1429C56.9762 53.1429 56.5207 53.1247 55.5799 53.152C54.6392 53.1793 54.3442 53.6634 53.3022 56.3295C53.1541 56.7133 52.6541 57.9558 52.6473 58.031L52.6689 58.0321ZM17.3998 39.1072C17.3998 38.655 17.2658 38.213 17.0146 37.8369C16.7634 37.4609 16.4064 37.1678 15.9886 36.9946C15.5709 36.8215 15.1112 36.7761 14.6676 36.8641C14.2241 36.9522 13.8166 37.1697 13.4967 37.4893C13.1768 37.8089 12.9588 38.2162 12.8703 38.6597C12.7818 39.1031 12.8267 39.5629 12.9995 39.9808C13.1722 40.3987 13.465 40.756 13.8408 41.0076C14.2165 41.2591 14.6585 41.3937 15.1107 41.3941C15.4111 41.3943 15.7087 41.3352 15.9863 41.2204C16.264 41.1055 16.5163 40.9371 16.7289 40.7248C16.9414 40.5124 17.1101 40.2603 17.2252 39.9827C17.3404 39.7052 17.3997 39.4077 17.3998 39.1072ZM12.44 42.2767C11.6827 42.3466 10.9789 42.6968 10.4665 43.2587C9.9541 43.8206 9.6701 44.5537 9.67019 45.3142V51.6555C9.67019 51.8908 9.76366 52.1165 9.93004 52.2828C10.0964 52.4492 10.3221 52.5427 10.5574 52.5427C10.7927 52.5427 11.0183 52.4492 11.1847 52.2828C11.3511 52.1165 11.4446 51.8908 11.4446 51.6555V46.2093C11.4446 46.0055 11.5038 45.7287 11.8774 45.7287C12.1359 45.7287 12.1894 46.0021 12.1997 46.1763V62.4989C12.1997 62.8366 12.3338 63.1604 12.5726 63.3992C12.8114 63.638 13.1352 63.7721 13.4729 63.7721C13.8106 63.7721 14.1345 63.638 14.3733 63.3992C14.6121 63.1604 14.7462 62.8366 14.7462 62.4989V53.0928C14.7428 53.0436 14.7498 52.9943 14.7668 52.948C14.7838 52.9018 14.8103 52.8596 14.8447 52.8243C14.8792 52.7891 14.9206 52.7615 14.9665 52.7434C15.0123 52.7252 15.0614 52.717 15.1107 52.7192C15.1601 52.7165 15.2096 52.7243 15.2558 52.7423C15.302 52.7602 15.3438 52.7877 15.3785 52.823C15.4132 52.8584 15.44 52.9007 15.457 52.9473C15.4741 52.9938 15.481 53.0434 15.4774 53.0928V62.4989C15.4723 62.6693 15.5015 62.8391 15.5632 62.9981C15.6249 63.1571 15.7179 63.3021 15.8367 63.4245C15.9555 63.5469 16.0977 63.6442 16.2547 63.7107C16.4118 63.7771 16.5807 63.8114 16.7512 63.8114C16.9218 63.8114 17.0906 63.7771 17.2477 63.7107C17.4048 63.6442 17.547 63.5469 17.6657 63.4245C17.7845 63.3021 17.8776 63.1571 17.9393 62.9981C18.001 62.8391 18.0302 62.6693 18.0251 62.4989V46.1763C18.0319 46.0021 18.09 45.7287 18.3462 45.7287C18.7221 45.7287 18.7779 46.0055 18.7779 46.2093V51.6555C18.7861 51.8851 18.8831 52.1026 19.0485 52.2622C19.2139 52.4217 19.4347 52.5109 19.6645 52.5109C19.8943 52.5109 20.1151 52.4217 20.2805 52.2622C20.4459 52.1026 20.5429 51.8851 20.5511 51.6555V45.3142C20.5517 44.5534 20.2677 43.8199 19.755 43.2578C19.2423 42.6958 18.5379 42.3458 17.7802 42.2767C17.7248 42.2684 17.6689 42.2638 17.6128 42.2631H12.6131C12.5548 42.2637 12.4965 42.2683 12.4388 42.2767" fill="white"/>
<path d="M8.41373 63.8301C8.38314 63.8299 8.35264 63.8269 8.32262 63.821C8.19561 63.797 8.08335 63.7235 8.01052 63.6167C7.93769 63.5099 7.91026 63.3786 7.93426 63.2516L9.96603 52.4857C9.97648 52.4216 9.99963 52.3604 10.0341 52.3054C10.0686 52.2505 10.1137 52.203 10.1668 52.1658C10.2199 52.1286 10.28 52.1023 10.3434 52.0887C10.4068 52.075 10.4722 52.0741 10.536 52.0861C10.5997 52.0981 10.6604 52.1227 10.7145 52.1585C10.7686 52.1944 10.8149 52.2406 10.8509 52.2946C10.8868 52.3486 10.9116 52.4093 10.9237 52.473C10.9358 52.5367 10.9351 52.6022 10.9216 52.6656L8.89092 63.4361C8.8693 63.5468 8.80991 63.6467 8.72288 63.7185C8.63586 63.7904 8.52659 63.8298 8.41373 63.8301ZM21.6374 51.4868C21.562 51.3665 21.4496 51.2737 21.3171 51.2226C21.1846 51.1714 21.0391 51.1646 20.9024 51.203C20.7657 51.2415 20.6451 51.3233 20.5587 51.436C20.4724 51.5488 20.4248 51.6865 20.4233 51.8285C20.4329 51.9273 20.4547 52.0244 20.4882 52.1178L22.3105 55.4069C22.376 55.5428 22.4147 55.6902 22.4243 55.8408V62.9019C22.4243 63.1372 22.5178 63.3629 22.6842 63.5293C22.8506 63.6957 23.0762 63.7891 23.3115 63.7891C23.5468 63.7891 23.7725 63.6957 23.9389 63.5293C24.1053 63.3629 24.1987 63.1372 24.1987 62.9019V60.1208C24.1987 60.1208 24.1486 59.7267 24.4675 59.7267C24.7864 59.7267 24.7351 60.1208 24.7351 60.1208V62.9076C24.7351 63.1435 24.8289 63.3698 24.9957 63.5366C25.1625 63.7034 25.3887 63.7971 25.6246 63.7971C25.8605 63.7971 26.0868 63.7034 26.2536 63.5366C26.4204 63.3698 26.5141 63.1435 26.5141 62.9076V55.8465C26.5237 55.6959 26.5624 55.5485 26.628 55.4126L28.3078 52.3752C28.3078 52.3752 28.5128 51.939 28.5128 51.8342C28.5122 51.6603 28.4427 51.4938 28.3196 51.371C28.1964 51.2483 28.0296 51.1793 27.8557 51.1793C27.7444 51.1788 27.6348 51.2069 27.5374 51.261C27.4401 51.315 27.3583 51.3932 27.2999 51.488H27.292C27.2396 51.5335 26.3979 53.0323 26.1212 53.3102C25.8262 53.6052 25.5643 53.5733 25.5643 53.5733H23.373C23.373 53.5733 23.1077 53.6052 22.815 53.3102C22.5223 53.0152 21.6966 51.5335 21.6431 51.488L21.6374 51.4868Z" fill="white"/>
<path d="M24.4665 52.4312C24.823 52.4314 25.1717 52.3259 25.4683 52.128C25.7649 51.93 25.9961 51.6486 26.1328 51.3193C26.2695 50.9899 26.3054 50.6275 26.236 50.2777C26.1667 49.9279 25.9952 49.6066 25.7432 49.3543C25.4912 49.102 25.1701 48.9301 24.8204 48.8603C24.4708 48.7905 24.1082 48.826 23.7787 48.9622C23.4492 49.0985 23.1675 49.3294 22.9692 49.6257C22.7709 49.9221 22.665 50.2706 22.6647 50.6272C22.6644 50.8641 22.7109 51.0987 22.8013 51.3176C22.8918 51.5365 23.0246 51.7355 23.1921 51.9031C23.3595 52.0706 23.5584 52.2035 23.7772 52.2941C23.9961 52.3847 24.2307 52.4313 24.4676 52.4312M24.4687 54.9618L26.5074 56.448L27.4754 60.0139H21.4609L22.4313 56.448L24.4687 54.9618Z" fill="white"/>
</g>
<defs>
<clipPath id="clip0_1676_15144">
<rect width="82" height="82" fill="white"/>
</clipPath>
</defs>
</svg>
