<svg width="83" height="82" viewBox="0 0 83 82" fill="none" xmlns="http://www.w3.org/2000/svg">
<g clip-path="url(#clip0_1676_15493)">
<path d="M0.378906 -0.123047H82.6249V82.123H0.378906V-0.123047Z" fill="#FD6925"/>
<path d="M7.01065 18.9182V18.6904H9.83965C9.83965 20.007 9.99453 20.6459 10.9785 20.6459C11.9272 20.6459 12.1402 19.8908 12.1402 17.4707V15.8785C11.8111 16.44 11.0753 16.7691 10.1654 16.7896C7.62906 16.8283 6.75781 14.718 6.75781 12.1202C6.76465 8.94723 7.90353 6.83345 10.9785 6.83345C13.9601 6.83345 15.1993 8.86637 15.1993 11.8446V17.5561C15.1993 20.6151 14.328 22.9191 10.9592 22.9191C8.07551 22.926 7.01065 21.5126 7.01065 18.9182ZM12.1413 13.7875V11.2899C12.1413 10.1089 11.9477 9.0634 10.9797 9.0634C9.99226 9.0634 9.81801 10.0702 9.81801 11.774C9.81801 13.3809 9.83737 14.5073 10.999 14.5073C11.5992 14.5039 11.9477 14.1223 12.1413 13.7875ZM18.7458 6.9109H19.8266V12.9071H18.7458V6.9109ZM20.3675 6.9109H21.1295L22.5884 10.3276V6.9109H23.4915V12.9071H22.766L21.3003 9.3242V12.9071H20.3675V6.9109ZM24.0165 6.9109H25.431C26.8888 6.9109 27.333 7.49629 27.333 8.7764V10.9608C27.333 12.2785 26.8774 12.9071 25.4755 12.9071H24.0165V6.9109ZM25.4458 12.1498C26.193 12.1498 26.2226 11.75 26.2226 11.0018V8.70237C26.2226 7.98487 26.1485 7.68876 25.431 7.68876H25.1008V12.1452L25.4458 12.1498ZM27.7111 10.9676V6.9109H28.7771V11.094C28.7771 11.6635 28.8431 12.1748 29.3989 12.1748C29.9547 12.1748 30.0276 11.6635 30.0276 11.094V6.9109H31.0868V10.9676C31.0868 12.2204 30.7383 12.9891 29.3989 12.9891C28.0596 12.9891 27.7111 12.2261 27.7111 10.9676ZM29.5424 5.01123H30.5674L29.6859 6.49179H29.1017L29.5424 5.01123ZM31.4125 11.1612L32.3521 10.9767C32.3817 11.6874 32.5525 12.1464 33.0354 12.1464C33.3839 12.1464 33.532 11.9095 33.532 11.5838C33.532 11.0656 33.2654 10.7763 32.8725 10.4358L32.1174 9.77748C31.6881 9.40734 31.4216 8.99279 31.4216 8.32654C31.4216 7.37898 32.0138 6.84598 32.9693 6.84598C34.0946 6.84598 34.4123 7.60106 34.4715 8.47459L33.5285 8.63631C33.5058 8.0737 33.4249 7.65118 32.9431 7.65118C32.6174 7.65118 32.4398 7.89604 32.4398 8.21379C32.4398 8.62151 32.6106 8.84359 32.9283 9.11693L33.6766 9.77634C34.1652 10.1977 34.5718 10.7239 34.5718 11.5154C34.5718 12.3821 33.9647 12.9891 33.0696 12.9891C31.9751 12.9891 31.4569 12.3525 31.4125 11.1612ZM35.4316 7.71837H34.4761V6.9109H37.46V7.71837H36.5272V12.9071H35.4316V7.71837ZM37.6285 6.9109H39.0715C40.2708 6.9109 40.9518 7.29584 40.9518 8.50534C40.9518 9.22284 40.7741 9.72623 40.2115 9.95629L41.0452 12.9071H39.9496L39.231 10.1613H38.7105V12.9071H37.6285V6.9109ZM39.0647 9.48023C39.6933 9.48023 39.9234 9.20576 39.9234 8.56229C39.9234 7.95526 39.7526 7.65915 39.1262 7.65915H38.7105V9.48137L39.0647 9.48023ZM41.4199 6.9109H42.5007V12.9071H41.4199V6.9109ZM43.9368 6.9109H45.1065L46.3057 12.9071H45.2921L45.0552 11.5234H44.0063L43.7626 12.9071H42.7376L43.9368 6.9109ZM44.9368 10.8275L44.5291 8.31401L44.1202 10.8275H44.9368ZM46.4321 13.5438C46.575 13.5123 46.7018 13.4309 46.79 13.3142C46.8781 13.1975 46.9216 13.0531 46.9128 12.9071H46.3798V11.9083H47.3649V12.8195C47.3649 13.4561 47.0904 13.8046 46.5358 13.9082L46.4321 13.5438ZM49.1564 6.9109H50.2372V12.9071H49.1564V6.9109ZM50.777 6.9109H51.5401L52.9978 10.3276V6.9109H53.901V12.9071H53.1755L51.7098 9.3242V12.9071H50.777V6.9109ZM54.3303 11.0268V8.7764C54.3303 7.56234 54.7745 6.84029 56.0626 6.84029C57.3507 6.84029 57.7869 7.56234 57.7869 8.7764V11.0268C57.7869 12.2341 57.3427 12.9891 56.0615 12.9891C54.7802 12.9891 54.3303 12.2409 54.3303 11.0268ZM56.6776 11.2865V8.5247C56.6776 8.02131 56.5956 7.64434 56.0626 7.64434C55.5296 7.64434 55.4408 8.02131 55.4408 8.5247V11.2865C55.4408 11.7819 55.5228 12.1817 56.0626 12.1817C56.6024 12.1817 56.6776 11.7819 56.6776 11.2865ZM57.9008 6.9109H58.8631L59.6603 11.1533L60.4063 6.9109H61.3915L60.1785 12.9071H59.1057L57.9008 6.9109ZM62.2878 6.9109H63.4585L64.6578 12.9071H63.643L63.4062 11.5234H62.3618L62.1146 12.9071H61.0896L62.2878 6.9109ZM63.2877 10.8275L62.8811 8.31401L62.4734 10.831L63.2877 10.8275ZM67.0187 9.07251V8.55431C67.0187 8.05093 67.0119 7.6432 66.4561 7.6432C65.9003 7.6432 65.8422 8.07256 65.8422 8.62037V11.2193C65.8422 11.8708 65.9755 12.1817 66.4561 12.1817C66.9971 12.1817 67.0187 11.7603 67.0187 11.2273V10.6863H68.0699V11.1681C68.0699 12.1817 67.7442 12.9299 66.5973 12.9903V13.3604C67.1451 13.3604 67.5153 13.6041 67.5153 14.0631C67.5153 14.5893 67.0483 14.8114 66.5085 14.8114C66.3278 14.8098 66.1483 14.7822 65.9755 14.7294V14.2636C66.105 14.3033 66.2398 14.3233 66.3752 14.3228C66.6338 14.3228 66.8308 14.2488 66.8308 14.0483C66.8308 13.7818 66.5278 13.6861 66.1793 13.6486V12.9755C65.0758 12.8627 64.7341 12.0723 64.7341 10.9904V8.85042C64.7341 7.62156 65.1259 6.84484 66.4424 6.84484C67.6713 6.84484 68.0631 7.52817 68.0631 8.56912V9.07251H67.0187ZM69.3432 6.9109H70.5128L71.7121 12.9071H70.6985L70.4616 11.5234H69.4172L69.1758 12.9071H68.1508L69.3432 6.9109ZM69.5709 5.77884C69.3785 5.77884 69.3124 5.89273 69.3124 6.08179H68.7942C68.7942 5.54879 68.9423 5.14904 69.4229 5.14904C69.7862 5.14904 70.0299 5.4907 70.3488 5.4907C70.5196 5.4907 70.5857 5.38706 70.5857 5.19459H71.0743C71.0743 5.66154 70.9934 6.12734 70.5117 6.12734C70.1279 6.1262 69.8762 5.77884 69.5721 5.77884H69.5709ZM70.342 10.8275L69.9354 8.31401L69.5277 10.831L70.342 10.8275ZM71.7713 11.0268V8.7764C71.7713 7.56234 72.2155 6.84029 73.5035 6.84029C74.7916 6.84029 75.2278 7.55779 75.2278 8.7764V11.0268C75.2278 12.2341 74.7836 12.9891 73.5035 12.9891C72.2234 12.9891 71.7713 12.2409 71.7713 11.0268ZM74.1174 11.2865V8.5247C74.1174 8.02131 74.0365 7.64434 73.5035 7.64434C72.9705 7.64434 72.8817 8.02131 72.8817 8.5247V11.2865C72.8817 11.7819 72.9626 12.1817 73.5035 12.1817C74.0445 12.1817 74.1174 11.7819 74.1174 11.2865ZM18.7161 16.7053H21.2285V17.4752H19.8049V19.2006H20.9301V19.9626H19.8049V21.9545H21.2479V22.7016H18.7161V16.7053ZM22.9437 16.7053H24.0245V22.7016H22.9437V16.7053ZM24.5643 16.7053H25.3285L26.7863 20.122V16.7053H27.6895V22.7016H26.964L25.4982 19.1186V22.7016H24.5655L24.5643 16.7053ZM28.2145 16.7053H30.6813V17.4604H29.3021V19.2075H30.4273V19.9705H29.3021V22.7039H28.2145V16.7053ZM30.8863 16.7053H32.3304C33.5297 16.7053 34.2107 17.0903 34.2107 18.2998C34.2107 19.0173 34.0331 19.5207 33.4704 19.7507L34.3064 22.7039H33.2108L32.4933 19.958H31.9751V22.7039H30.8863V16.7053ZM32.3225 19.2747C32.9523 19.2747 33.1812 19.0002 33.1812 18.3567C33.1812 17.7497 33.0115 17.4536 32.384 17.4536H31.9774V19.2758L32.3225 19.2747ZM35.5501 16.7053H36.7174L37.9167 22.7016H36.9031L36.6662 21.3178H35.6241L35.3792 22.7016H34.3542L35.5501 16.7053ZM36.55 20.622L36.148 18.1085L35.7414 20.6254L36.55 20.622ZM38.1331 16.7053H40.65V17.4752H39.223V19.2006H40.3482V19.9626H39.223V21.9545H40.666V22.7016H38.1331V16.7053ZM40.7685 20.9557L41.7092 20.7712C41.7388 21.4818 41.9085 21.9408 42.3925 21.9408C42.7399 21.9408 42.8879 21.7039 42.8879 21.3782C42.8879 20.86 42.6214 20.5707 42.2296 20.2302L41.4746 19.5719C41.0452 19.2018 40.7787 18.7872 40.7787 18.121C40.7787 17.1734 41.3709 16.6404 42.3253 16.6404C43.4505 16.6404 43.7694 17.3955 43.8286 18.269L42.8879 18.4319C42.8663 17.8693 42.7843 17.4468 42.3037 17.4468C41.978 17.4468 41.8003 17.6916 41.8003 18.0094C41.8003 18.4171 41.97 18.6392 42.2889 18.9125L43.036 19.5719C43.5246 19.9933 43.9323 20.5195 43.9323 21.311C43.9323 22.1777 43.3253 22.7847 42.429 22.7847C41.3311 22.7836 40.8174 22.147 40.7685 20.9557ZM44.7887 17.5128H43.8332V16.7053H46.8171V17.5128H45.8843V22.7016H44.7887V17.5128ZM46.9799 16.7053H48.4229C49.6222 16.7053 50.3032 17.0903 50.3032 18.2998C50.3032 19.0173 50.1256 19.5207 49.563 19.7507L50.4 22.7039H49.3044L48.5858 19.958H48.0676V22.7039H46.9799V16.7053ZM48.4161 19.2747C49.0448 19.2747 49.2748 19.0002 49.2748 18.3567C49.2748 17.7497 49.104 17.4536 48.4776 17.4536H48.0699V19.2758L48.4161 19.2747ZM50.6813 20.7621V16.7053H51.7508V20.8885C51.7508 21.4579 51.8168 21.9693 52.3726 21.9693C52.9284 21.9693 53.0013 21.4579 53.0013 20.8885V16.7053H54.0604V20.7621C54.0604 22.0148 53.7119 22.7836 52.3726 22.7836C51.0333 22.7836 50.6813 22.0205 50.6813 20.7621ZM55.1298 17.5128H54.1755V16.7053H57.1582V17.5128H56.2255V22.7016H55.1298V17.5128ZM57.2766 20.7621V16.7053H58.3426V20.8885C58.3426 21.4579 58.4098 21.9693 58.9645 21.9693C59.5191 21.9693 59.5943 21.4579 59.5943 20.8885V16.7053H60.6523V20.7621C60.6523 22.0148 60.3106 22.7836 58.9645 22.7836C57.6183 22.7836 57.2766 22.0205 57.2766 20.7621ZM61.1261 16.7053H62.5702C63.7695 16.7053 64.4505 17.0903 64.4505 18.2998C64.4505 19.0173 64.2728 19.5207 63.7102 19.7507L64.5462 22.7039H63.4506L62.7331 19.958H62.2149V22.7039H61.1261V16.7053ZM62.5622 19.2747C63.192 19.2747 63.4209 19.0002 63.4209 18.3567C63.4209 17.7497 63.2513 17.4536 62.6237 17.4536H62.2171V19.2758L62.5622 19.2747ZM65.7898 16.7053H66.9595L68.1587 22.7016H67.1451L66.9082 21.3178H65.8639L65.619 22.7016H64.594L65.7898 16.7053ZM66.7841 20.622L66.3821 18.1085L65.9743 20.6254L66.7841 20.622ZM62.6066 53.9948L52.7849 48.3266V36.9867C52.785 36.869 52.7542 36.7533 52.6954 36.6513C52.6366 36.5494 52.552 36.4647 52.45 36.4058L42.298 30.5428C42.1962 30.4841 42.0807 30.4531 41.9631 30.4531C41.8456 30.4531 41.7301 30.4841 41.6283 30.5428L31.4728 36.4058C31.3708 36.4645 31.286 36.5492 31.2272 36.6512C31.1684 36.7532 31.1376 36.8689 31.138 36.9867V48.3266L21.3151 53.9948C21.2131 54.0533 21.1284 54.1378 21.0696 54.2396C21.0108 54.3414 20.98 54.457 20.9803 54.5745V66.3051C20.9799 66.4228 21.0106 66.5386 21.0694 66.6406C21.1283 66.7426 21.213 66.8273 21.3151 66.8859L31.4706 72.7478C31.5723 72.8067 31.6878 72.8377 31.8054 72.8377C31.923 72.8377 32.0385 72.8067 32.1402 72.7478L41.9563 67.0807L51.7758 72.7489C51.8777 72.8076 51.9931 72.8386 52.1106 72.8389C52.2283 72.8391 52.3438 72.8081 52.4455 72.7489L62.6021 66.8871C62.7042 66.8284 62.7889 66.7438 62.8477 66.6417C62.9065 66.5397 62.9373 66.424 62.9369 66.3062V54.5757C62.9379 54.4584 62.9079 54.3429 62.8499 54.2409C62.7919 54.1389 62.708 54.054 62.6066 53.9948ZM41.2912 65.1446L33.1447 60.4421L41.2912 55.7385V65.1446ZM50.7747 48.7161L42.6305 53.414V44.0102L50.7747 48.7161ZM41.2912 53.414L33.1459 48.7127L41.2912 44.0091V53.414ZM43.3013 54.5745L52.1152 49.486L60.9313 54.5734L52.1152 59.6642L43.3013 54.5745ZM51.4455 47.551L43.3013 42.8485L51.4455 38.1529V47.551ZM40.6204 42.8485L32.4751 47.5521V38.1529L40.6204 42.8485ZM31.1369 71.0053L22.3207 65.9167V55.7362L31.1369 60.8259V71.0053ZM32.4762 71.0053V61.6003L40.6215 66.3028L32.4762 71.0053ZM61.6021 65.9167L52.7849 71.0053V60.8259L61.6021 55.7362V65.9167Z" fill="white"/>
</g>
<defs>
<clipPath id="clip0_1676_15493">
<rect width="82" height="82" fill="white" transform="translate(0.5)"/>
</clipPath>
</defs>
</svg>
