<svg width="82" height="81" viewBox="0 0 82 81" fill="none" xmlns="http://www.w3.org/2000/svg">
<g clip-path="url(#clip0_1676_15173)">
<path d="M-0.121094 -0.121582H82.1249V81.1214H-0.121094V-0.121582Z" fill="#DDA83A"/>
<path d="M6.27734 20.3512L10.0915 14.5564C10.924 13.275 11.7565 12.204 11.7565 10.7696C11.7565 9.77513 11.3693 9.23962 10.6177 9.23962C9.47876 9.23962 9.20429 10.2724 9.20429 11.5346V12.2422H6.27734V11.475C6.27734 8.74013 7.47773 6.75 10.5561 6.75C13.3054 6.75 14.7188 8.26087 14.7188 10.8236C14.7188 12.717 13.7314 14.0366 12.6688 15.624L9.64618 20.1026H14.2928V22.4359H6.27734V20.3512ZM21.5248 6.93338H23.9905V7.67925H22.609V9.405H23.7342V10.1576H22.609V12.8576H21.5248V6.93338ZM24.4449 10.9991V8.775C24.4449 7.57575 24.8891 6.8625 26.1772 6.8625C27.4652 6.8625 27.9026 7.57688 27.9026 8.775V10.9991C27.9026 12.1905 27.4584 12.9364 26.1783 12.9364C24.8982 12.9364 24.4449 12.1984 24.4449 10.9991ZM26.791 11.2545V8.5275C26.791 8.03025 26.7102 7.65675 26.1772 7.65675C25.6442 7.65675 25.5553 8.03025 25.5553 8.5275V11.25C25.5553 11.7405 25.6362 12.1354 26.1772 12.1354C26.7181 12.1354 26.791 11.745 26.791 11.25V11.2545ZM28.7602 6.93338H29.899L30.7498 11.0351L31.6313 6.93338H32.7337L32.8476 12.8565H32.0253L31.9365 8.739L31.0846 12.8565H30.4263L29.5597 8.72438L29.4788 12.8565H28.6565L28.7602 6.93338ZM33.6904 6.93338H36.2073V7.69387H34.7792V9.39712H35.9044V10.1509H34.7792V12.1174H36.2222V12.8565H33.6904V6.93338ZM38.3803 12.1612L39.9873 7.67925H38.4658V6.93338H41.0932V7.48912L39.4202 12.1174H41.1012V12.8565H38.3803V12.1612ZM41.6934 6.93338H44.2103V7.69387H42.781V9.39712H43.9062V10.1509H42.781V12.1174H44.2251V12.8565H41.6934V6.93338ZM44.8242 6.93338H46.2683C47.4675 6.93338 48.1486 7.31362 48.1486 8.50837C48.1486 9.21825 47.9709 9.7155 47.4083 9.94163L48.2443 12.8599H47.1498L46.4323 10.1464H45.9141V12.8599H44.8253L44.8242 6.93338ZM46.2603 9.47025C46.8901 9.47025 47.119 9.20025 47.119 8.5635C47.119 7.96388 46.9493 7.67138 46.3218 7.67138H45.9152V9.47138L46.2603 9.47025ZM48.8148 10.9991V8.775C48.8148 7.57575 49.259 6.8625 50.5471 6.8625C51.8352 6.8625 52.2748 7.57688 52.2748 8.775V10.9991C52.2748 12.1905 51.8306 12.9364 50.5505 12.9364C49.2704 12.9364 48.8148 12.1984 48.8148 10.9991ZM51.161 11.2545V8.5275C51.161 8.03025 51.0801 7.65675 50.5471 7.65675C50.0141 7.65675 49.9253 8.03025 49.9253 8.5275V11.25C49.9253 11.7405 50.0061 12.1354 50.5471 12.1354C51.0881 12.1354 51.161 11.745 51.161 11.25V11.2545ZM21.5248 16.6084H24.0417V17.3689H22.609V19.0721H23.7342V19.8259H22.609V21.7924H24.052V22.5315H21.5248V16.6084ZM27.3092 16.6084H28.4788L29.6781 22.5315H28.6645L28.4276 21.1635H27.3832L27.1395 22.5315H26.1145L27.3092 16.6084ZM28.3092 20.475L27.9026 17.9899L27.4948 20.475H28.3092ZM30.0858 20.5785V18.5895C30.0858 17.3171 30.4776 16.542 31.7942 16.542C33.023 16.542 33.4524 17.1709 33.4524 18.2677V18.5749H32.4092V18.2374C32.4092 17.667 32.3499 17.3306 31.809 17.3306C31.2315 17.3306 31.1871 17.7919 31.1871 18.333V20.808C31.1871 21.4223 31.301 21.8104 31.8386 21.8104C32.3761 21.8104 32.498 21.4009 32.498 20.7574V20.2016H31.8545V19.521H33.4831V22.527H32.7725L32.6984 21.9488C32.6244 22.1521 32.4855 22.3261 32.3027 22.4448C32.12 22.5635 31.9031 22.6204 31.6848 22.6069C30.5004 22.6125 30.0858 21.825 30.0858 20.5785ZM34.2803 16.6084H35.7267C36.926 16.6084 37.607 16.9886 37.607 18.1834C37.607 18.8933 37.4294 19.3905 36.8668 19.6166L37.7027 22.5349H36.6071L35.8896 19.8214H35.3714V22.5349H34.2803V16.6084ZM35.7165 19.1452C36.3463 19.1452 36.5752 18.8752 36.5752 18.2385C36.5752 17.6389 36.4055 17.3464 35.778 17.3464H35.3714V19.1464L35.7165 19.1452ZM38.4282 16.6084H39.509V22.5315H38.4282V16.6084ZM40.3017 20.637V18.5243C40.3017 17.3104 40.6934 16.542 42.01 16.542C43.2388 16.542 43.6318 17.217 43.6318 18.2464V18.7436H42.5806V18.2317C42.5806 17.7345 42.5726 17.3317 42.018 17.3317C41.4633 17.3317 41.403 17.7559 41.403 18.297V20.8643C41.403 21.5078 41.5362 21.8149 42.018 21.8149C42.5578 21.8149 42.5806 21.3975 42.5806 20.871V20.3377H43.6318V20.8125C43.6318 21.8587 43.2764 22.6125 42.01 22.6125C40.6934 22.6125 40.3017 21.7924 40.3017 20.637ZM44.314 20.6156V16.6084H45.38V20.7394C45.38 21.3019 45.446 21.807 46.0018 21.807C46.5576 21.807 46.6305 21.303 46.6305 20.7394V16.6084H47.6896V20.6156C47.6896 21.8587 47.3411 22.6114 46.0018 22.6114C44.6625 22.6114 44.314 21.8587 44.314 20.6156ZM48.5165 16.6084H49.6052V21.7924H51.063V22.5315H48.5165V16.6084ZM51.8944 17.4049H50.9389V16.6084H53.9228V17.4049H52.99V22.5315H51.8944V17.4049ZM54.3886 20.6156V16.6084H55.4546V20.7394C55.4546 21.3019 55.5206 21.807 56.0764 21.807C56.6322 21.807 56.7062 21.303 56.7062 20.7394V16.6084H57.7642V20.6156C57.7642 21.8587 57.4169 22.6114 56.0764 22.6114C54.7359 22.6114 54.3886 21.8587 54.3886 20.6156ZM58.5854 16.6084H60.0295C61.2287 16.6084 61.9098 16.9886 61.9098 18.1834C61.9098 18.8933 61.7321 19.3905 61.1695 19.6166L62.0055 22.5349H60.9098L60.1923 19.8214H59.6776V22.5349H58.5888L58.5854 16.6084ZM60.0192 19.1452C60.649 19.1452 60.878 18.8752 60.878 18.2385C60.878 17.6389 60.7083 17.3464 60.0807 17.3464H59.6776V19.1464L60.0192 19.1452ZM63.5976 16.6084H64.7673L65.9665 22.5315H64.9518L64.7149 21.1635H63.6717L63.4268 22.5315H62.4018L63.5976 16.6084ZM64.5964 20.475L64.1898 17.9887L63.7776 20.475H64.5964ZM21.3722 30.4807L22.3129 30.2974C22.3425 30.9994 22.5122 31.4527 22.9962 31.4527C23.3379 31.4527 23.4917 31.2188 23.4917 30.897C23.4917 30.3851 23.2252 30.1005 22.8334 29.7641L22.0783 29.1127C21.6489 28.7471 21.3824 28.3376 21.3824 27.6795C21.3824 26.7435 21.9747 26.217 22.929 26.217C24.0543 26.217 24.3732 26.9629 24.4324 27.8257L23.4917 27.9866C23.47 27.4309 23.388 27.0146 22.9074 27.0146C22.5817 27.0146 22.404 27.2554 22.404 27.5704C22.404 27.972 22.5737 28.1914 22.8926 28.4625L23.6397 29.1127C24.1294 29.5301 24.536 30.0487 24.536 30.8317C24.536 31.6867 23.929 32.2864 23.0327 32.2864C21.9348 32.2875 21.4166 31.6575 21.3722 30.4807ZM25.0963 30.2906V26.2834H26.1623V30.4144C26.1623 30.9769 26.2284 31.482 26.7842 31.482C27.34 31.482 27.4128 30.978 27.4128 30.4144V26.2834H28.472V30.2906C28.472 31.5337 28.1235 32.2864 26.7842 32.2864C25.4448 32.2864 25.0963 31.5337 25.0963 30.2906ZM29.1451 30.4807L30.0858 30.2974C30.1154 30.9994 30.2851 31.4527 30.7692 31.4527C31.1165 31.4527 31.2646 31.2188 31.2646 30.897C31.2646 30.3851 30.9981 30.1005 30.6063 29.7641L29.8512 29.1127C29.4218 28.7471 29.1553 28.3376 29.1553 27.6795C29.1553 26.7435 29.7476 26.217 30.702 26.217C31.8272 26.217 32.1461 26.9629 32.2053 27.8257L31.2646 27.9866C31.2429 27.4309 31.1609 27.0146 30.6803 27.0146C30.3546 27.0146 30.1769 27.2554 30.1769 27.5704C30.1769 27.972 30.3466 28.1914 30.6655 28.4625L31.4126 29.1127C31.9012 29.5301 32.3089 30.0487 32.3089 30.8317C32.3089 31.6867 31.7019 32.2864 30.8056 32.2864C29.7077 32.2875 29.1895 31.6575 29.1451 30.4807ZM33.5127 27.0799H32.5583V26.2834H35.5411V27.0799H34.6083V32.2065H33.5127V27.0799ZM36.0525 26.2834H38.5694V27.0439H37.1401V28.7471H38.2665V29.5009H37.1412V31.4674H38.5853V32.2065H36.0525V26.2834ZM39.1833 26.2834H39.9463L41.4041 29.6584V26.2834H42.3072V32.2065H41.5818L40.116 28.6672V32.2065H39.1833V26.2834ZM43.781 27.0799H42.822V26.2834H45.8059V27.0799H44.872V32.2065H43.7764L43.781 27.0799ZM47.0678 26.2834H48.2374L49.4367 32.2065H48.4219L48.185 30.8385H47.1418L46.897 32.2065H45.872L47.0678 26.2834ZM48.0666 30.15L47.66 27.6637L47.2523 30.15H48.0666ZM47.8001 24.4125H48.8251L47.947 25.875H47.3616L47.8001 24.4125ZM49.4948 26.2834H50.4526L51.2498 30.4729L51.998 26.2834H52.982L51.776 32.2065H50.702L49.4948 26.2834ZM53.5595 26.2834H56.0764V27.0439H54.6471V28.7471H55.7723V29.5009H54.6471V31.4674H56.0912V32.2065H53.5595V26.2834ZM56.6903 26.2834H57.779V31.4674H59.2368V32.2065H56.6903V26.2834ZM32.6449 71.9685V73.116C32.6443 73.1246 32.6443 73.1333 32.6449 73.1419C32.6444 73.1509 32.6444 73.1599 32.6449 73.1689C32.651 73.3059 32.7097 73.4355 32.8092 73.5313C32.9086 73.627 33.0413 73.6817 33.1802 73.6841H46.8571C47.0002 73.6815 47.1366 73.6236 47.237 73.5229C47.3375 73.4222 47.3941 73.2866 47.3947 73.1452V71.8391C55.0673 69.354 60.8165 63.2115 62.0784 55.7257C62.0784 55.71 62.0784 55.6954 62.0863 55.6819C62.0911 55.657 62.0938 55.6318 62.0943 55.6065C62.0944 55.535 62.0803 55.4641 62.0526 55.3979C62.025 55.3318 61.9844 55.2717 61.9332 55.2211C61.882 55.1706 61.8211 55.1305 61.7542 55.1031C61.6872 55.0758 61.6155 55.0619 61.5431 55.062H18.1081C18.0356 55.0617 17.9637 55.0756 17.8967 55.1028C17.8296 55.1301 17.7686 55.1701 17.7173 55.2207C17.6659 55.2714 17.6252 55.3315 17.5975 55.3977C17.5698 55.4639 17.5556 55.5349 17.5558 55.6065L17.5842 55.8506C18.9053 63.4084 24.8139 69.5846 32.6449 71.9685ZM47.3776 36.7481C47.1988 37.0001 43.002 42.9683 47.471 47.7945C49.521 50.0096 49.3433 51.9637 48.7579 53.2834H51.6245C52.2053 51.3349 51.9662 48.8902 49.6383 46.3781C46.3457 42.822 49.6804 38.016 49.7305 37.9406C50.1234 37.3916 49.9127 36.6851 49.2658 36.3555C48.619 36.0259 47.7728 36.2025 47.3776 36.747M40.1217 53.2834H42.9894C43.5691 51.3349 43.3311 48.8959 41.0009 46.3781C37.7061 42.822 41.0397 38.0171 41.092 37.9406C41.4827 37.395 41.2765 36.6896 40.6262 36.3589C39.9759 36.0281 39.1332 36.2059 38.7402 36.7504C38.5603 37.0013 34.3601 42.9705 38.8336 47.7967C40.8836 50.0119 40.7048 51.9671 40.1217 53.2856M30.0972 36.7481C29.9161 37.0001 25.7193 42.9683 30.1895 47.7945C32.2395 50.0107 32.0629 51.9649 31.4787 53.2834H34.3464C34.9261 51.336 34.6881 48.8959 32.3568 46.3781C29.062 42.822 32.3978 38.016 32.4502 37.9406C32.8397 37.3939 32.6324 36.6874 31.9821 36.3577C31.3318 36.0281 30.4901 36.2036 30.0972 36.7493" fill="white"/>
</g>
<defs>
<clipPath id="clip0_1676_15173">
<rect width="82" height="81" fill="white"/>
</clipPath>
</defs>
</svg>
