<svg width="83" height="81" viewBox="0 0 83 81" fill="none" xmlns="http://www.w3.org/2000/svg">
<g clip-path="url(#clip0_1676_15461)">
<path d="M0.378906 -0.121582H82.6249V81.1214H0.378906V-0.121582Z" fill="#FD9D24"/>
<path d="M6.20666 10.0046C5.73743 10.2532 4.40607 10.6166 3.94141 10.8461V8.64671C4.56096 8.39808 6.2841 7.57571 6.86493 6.94458H9.20763V22.4358H6.20666V10.0046Z" fill="white"/>
<path d="M10.3317 10.0046C9.86699 10.2532 8.53107 10.6166 8.06641 10.8461V8.64669C8.68596 8.39807 10.408 7.57569 10.9899 6.94457H13.3326V22.4358H10.3317V10.0046ZM22.4631 10.9619V8.84919C22.4631 7.63532 22.856 6.86694 24.1714 6.86694C25.4003 6.86694 25.7932 7.54194 25.7932 8.57132V9.06857H24.742V8.55669C24.742 8.05944 24.734 7.65669 24.1794 7.65669C23.6248 7.65669 23.5644 8.08082 23.5644 8.62194V11.1892C23.5644 11.8327 23.6977 12.1398 24.1794 12.1398C24.7192 12.1398 24.742 11.7224 24.742 11.1959V10.6627H25.7932V11.1374C25.7932 12.1837 25.4379 12.9374 24.1714 12.9374C22.856 12.9374 22.4631 12.1173 22.4631 10.9619ZM26.2829 6.93332H27.3637V12.8564H26.2829V6.93332ZM27.9856 6.93332H29.4001C30.8579 6.93332 31.302 7.51044 31.302 8.77607V10.9327C31.302 12.2343 30.8465 12.8564 29.4445 12.8564H27.9856V6.93332ZM29.4149 12.1027C30.162 12.1027 30.1916 11.7078 30.1916 10.9698V8.70294C30.1916 7.99307 30.1176 7.70057 29.4001 7.70057H29.0744V12.1027H29.4149ZM32.6573 6.93332H33.8269L35.0262 12.8564H34.0126L33.7745 11.4884H32.7302L32.4853 12.8564H31.4603L32.6573 6.93332ZM33.6561 10.7999L33.2495 8.31369L32.8441 10.7999H33.6561ZM35.3223 6.93332H36.7357C38.1946 6.93332 38.6387 7.51044 38.6387 8.77607V10.9327C38.6387 12.2343 38.1832 12.8564 36.7801 12.8564H35.3223V6.93332ZM36.7505 12.1027C37.4987 12.1027 37.5283 11.7078 37.5283 10.9698V8.70294C37.5283 7.99307 37.4543 7.70057 36.7311 7.70057H36.4054V12.1027H36.7505ZM39.1421 6.93332H41.6591V7.69382H40.2298V9.39707H41.355V10.1508H40.2298V12.1173H41.6739V12.8564H39.1421V6.93332ZM41.8584 11.1307L42.7991 10.9473C42.8287 11.6493 42.9984 12.1027 43.4824 12.1027C43.8298 12.1027 43.9779 11.8687 43.9779 11.5469C43.9779 11.0351 43.7114 10.7504 43.3196 10.4141L42.5645 9.76269C42.1351 9.39707 41.8686 8.98757 41.8686 8.32944C41.8686 7.39344 42.4609 6.86694 43.4152 6.86694C44.5405 6.86694 44.8594 7.61282 44.9186 8.47569L43.9779 8.63657C43.9562 8.08082 43.8742 7.66457 43.3936 7.66457C43.0679 7.66457 42.8902 7.90532 42.8902 8.22032C42.8902 8.62194 43.0599 8.84132 43.3788 9.11244L44.1191 9.76269C44.6077 10.1801 45.0154 10.6987 45.0154 11.4817C45.0154 12.3367 44.4084 12.9363 43.5121 12.9363C42.421 12.9374 41.9028 12.3074 41.8584 11.1307ZM46.8524 6.93332H49.3694V7.69382H47.9435V9.39707H49.0687V10.1508H47.9435V12.1173H49.3876V12.8564H46.8524V6.93332ZM22.4631 20.6369V18.5242C22.4631 17.3103 22.856 16.5419 24.1714 16.5419C25.4003 16.5419 25.7932 17.2169 25.7932 18.2463V18.7436H24.742V18.2317C24.742 17.7344 24.734 17.3317 24.1794 17.3317C23.6248 17.3317 23.5644 17.7558 23.5644 18.2969V20.8642C23.5644 21.5077 23.6977 21.8148 24.1794 21.8148C24.7192 21.8148 24.742 21.3974 24.742 20.8709V20.3377H25.7932V20.8124C25.7932 21.8587 25.4379 22.6124 24.1714 22.6124C22.856 22.6124 22.4631 21.7923 22.4631 20.6369ZM26.1577 20.6741V18.4499C26.1577 17.2507 26.6018 16.5374 27.8899 16.5374C29.178 16.5374 29.6153 17.2473 29.6153 18.4499V20.6729C29.6153 21.8643 29.1712 22.6102 27.8899 22.6102C26.6087 22.6102 26.1577 21.8733 26.1577 20.6741ZM28.5049 20.9249V18.2024C28.5049 17.7052 28.4229 17.3317 27.8899 17.3317C27.3569 17.3317 27.2635 17.7052 27.2635 18.2024V20.9249C27.2635 21.4154 27.3455 21.8103 27.8854 21.8103C28.4252 21.8103 28.5049 21.4199 28.5049 20.9249ZM30.2064 16.6083H31.3453L32.196 20.7101L33.0719 16.6083H34.1743L34.2882 22.5314H33.4739L33.385 18.4139L32.5332 22.5314H31.8749L31.0082 18.3993L30.9273 22.5314H30.105L30.2064 16.6083ZM34.8257 20.6156V16.6083H35.8917V20.7393C35.8917 21.3018 35.9589 21.8069 36.5136 21.8069C37.0682 21.8069 37.1434 21.3029 37.1434 20.7393V16.6083H38.2025V20.6156C38.2025 21.8587 37.854 22.6113 36.5136 22.6113C35.1731 22.6113 34.8257 21.8587 34.8257 20.6156ZM38.7572 16.6083H39.5191L40.978 19.9833V16.6083H41.8812V22.5314H41.158L39.6922 18.9922V22.5314H38.7595L38.7572 16.6083ZM42.5178 16.6083H43.5986V22.5314H42.5178V16.6083ZM44.2204 16.6083H45.6338C47.0927 16.6083 47.5369 17.1854 47.5369 18.4511V20.6077C47.5369 21.9093 47.0813 22.5314 45.6782 22.5314H44.2204V16.6083ZM45.6486 21.7833C46.3969 21.7833 46.4265 21.3884 46.4265 20.6504V18.3779C46.4265 17.6681 46.3524 17.3756 45.6292 17.3756H45.3035V21.7777L45.6486 21.7833ZM48.891 16.6083H50.0607L51.2599 22.5314H50.2463L50.0094 21.1634H48.965L48.7213 22.5314H47.6963L48.891 16.6083ZM49.891 20.4749L49.4832 17.9887L49.0767 20.4749H49.891ZM51.556 16.6083H52.9705C54.4283 16.6083 54.8725 17.1854 54.8725 18.4511V20.6077C54.8725 21.9093 54.4169 22.5314 53.0149 22.5314H51.556V16.6083ZM52.9853 21.7833C53.7324 21.7833 53.7621 21.3884 53.7621 20.6504V18.3779C53.7621 17.6681 53.688 17.3756 52.9705 17.3756H52.6448V21.7777L52.9853 21.7833ZM55.3759 16.6083H57.8928V17.3688H56.4646V19.0721H57.5899V19.8258H56.4646V21.7923H57.9076V22.5314H55.3759V16.6083ZM58.0932 20.8057L59.0328 20.6223C59.0624 21.3243 59.2333 21.7777 59.7162 21.7777C60.0647 21.7777 60.2127 21.5437 60.2127 21.2219C60.2127 20.7101 59.9462 20.4254 59.5533 20.0891L58.7982 19.4377C58.3689 19.0721 58.1024 18.6626 58.1024 18.0044C58.1024 17.0684 58.6946 16.5419 59.6501 16.5419C60.7753 16.5419 61.0931 17.2878 61.1523 18.1507L60.2127 18.3116C60.1899 17.7558 60.1091 17.3396 59.6273 17.3396C59.3016 17.3396 59.1239 17.5803 59.1239 17.8953C59.1239 18.2969 59.2948 18.5163 59.6125 18.7874L60.3608 19.4377C60.8494 19.8551 61.2559 20.3737 61.2559 21.1567C61.2559 22.0117 60.6489 22.6113 59.7537 22.6113C58.6559 22.6124 58.1377 21.9824 58.0932 20.8057ZM22.4119 30.4807L23.3526 30.2973C23.3822 30.9993 23.5519 31.4527 24.0359 31.4527C24.3844 31.4527 24.5325 31.2187 24.5325 30.8969C24.5325 30.3851 24.266 30.1004 23.8742 29.7641L23.1191 29.1127C22.6886 28.7471 22.4221 28.3376 22.4221 27.6794C22.4221 26.7434 23.0155 26.2169 23.9699 26.2169C25.0951 26.2169 25.414 26.9628 25.4732 27.8257L24.5302 27.9866C24.5085 27.4308 24.4265 27.0146 23.9459 27.0146C23.6202 27.0146 23.4414 27.2553 23.4414 27.5703C23.4414 27.9719 23.6122 28.1913 23.9311 28.4624L24.6782 29.1127C25.1668 29.5301 25.5745 30.0487 25.5745 30.8317C25.5745 31.6867 24.9675 32.2863 24.0712 32.2863C22.9745 32.2874 22.4563 31.6574 22.4119 30.4807ZM25.8684 30.2906V26.2833H26.9344V30.4143C26.9344 30.9768 27.0016 31.4819 27.5562 31.4819C28.1109 31.4819 28.186 30.9779 28.186 30.4143V26.2833H29.2452V30.2906C29.2452 31.5337 28.8967 32.2863 27.5562 32.2863C26.2157 32.2863 25.8684 31.5337 25.8684 30.2906ZM29.6552 30.4807L30.5948 30.2973C30.6244 30.9993 30.7952 31.4527 31.2781 31.4527C31.6266 31.4527 31.7747 31.2187 31.7747 30.8969C31.7747 30.3851 31.5082 30.1004 31.1152 29.7641L30.3602 29.1127C29.9308 28.7471 29.6643 28.3376 29.6643 27.6794C29.6643 26.7434 30.2565 26.2169 31.212 26.2169C32.3373 26.2169 32.6562 26.9628 32.7142 27.8257L31.7747 27.9866C31.7519 27.4308 31.671 27.0146 31.1893 27.0146C30.8635 27.0146 30.6859 27.2553 30.6859 27.5703C30.6859 27.9719 30.8567 28.1913 31.1745 28.4624L31.9227 29.1127C32.4113 29.5301 32.8179 30.0487 32.8179 30.8317C32.8179 31.6867 32.2108 32.2863 31.3157 32.2863C30.2144 32.2874 29.6962 31.6574 29.6552 30.4807ZM33.7552 27.0798H32.7997V26.2833H35.7835V27.0798H34.8485V32.2064H33.7552V27.0798ZM36.025 26.2833H38.5385V27.0438H37.1138V28.7471H38.239V29.5008H37.1138V31.4673H38.5567V32.2064H36.025V26.2833ZM38.8904 26.2833H39.6524L41.1113 29.6583V26.2833H42.0144V32.2064H41.2889L39.8232 28.6672V32.2064H38.8904V26.2833ZM43.2205 27.0798H42.2661V26.2833H45.2489V27.0798H44.3161V32.2064H43.2205V27.0798ZM46.2408 26.2833H47.4105L48.6097 32.2064H47.5961L47.3592 30.8384H46.3149L46.0711 32.2064H45.0461L46.2408 26.2833ZM47.2408 30.1499L46.833 27.6637L46.4265 30.1499H47.2408ZM46.9743 24.4124H47.9993L47.1178 25.8749H46.5335L46.9743 24.4124ZM48.4024 26.2833H49.3648L50.162 30.4728L50.9091 26.2833H51.8943L50.687 32.2064H49.6142L48.4024 26.2833ZM52.2052 26.2833H54.7221V27.0438H53.2883V28.7471H54.4135V29.5008H53.2883V31.4673H54.7324V32.2064H52.2052V26.2833ZM55.0945 26.2833H56.1754V32.2064H55.0945V26.2833ZM56.6469 30.4807L57.5864 30.2973C57.616 30.9993 57.7869 31.4527 58.2698 31.4527C58.6183 31.4527 58.7663 31.2187 58.7663 30.8969C58.7663 30.3851 58.4998 30.1004 58.1069 29.7641L57.3518 29.1127C56.9225 28.7471 56.656 28.3376 56.656 27.6794C56.656 26.7434 57.2482 26.2169 58.2037 26.2169C59.3289 26.2169 59.6467 26.9628 59.707 27.8257L58.7663 27.9866C58.7435 27.4308 58.6627 27.0146 58.1809 27.0146C57.8552 27.0146 57.6775 27.2553 57.6775 27.5703C57.6775 27.9719 57.8484 28.1913 58.1661 28.4624L58.9144 29.1127C59.403 29.5301 59.8096 30.0487 59.8096 30.8317C59.8096 31.6867 59.2025 32.2863 58.3074 32.2863C57.2163 32.2874 56.6936 31.6574 56.6469 30.4807ZM19.4963 63.6749H30.2861C30.3372 63.6751 30.3873 63.6605 30.4301 63.633C30.473 63.6055 30.5068 63.5663 30.5275 63.5201C30.5481 63.4739 30.5547 63.4228 30.5465 63.373C30.5382 63.3232 30.5154 63.2768 30.4809 63.2396L30.4661 63.2238L25.0996 56.3624L25.0472 56.3062C25.0224 56.2792 24.9922 56.2577 24.9585 56.243C24.9247 56.2282 24.8882 56.2206 24.8514 56.2207C24.7874 56.2222 24.726 56.2461 24.6782 56.2882L24.6452 56.3253L24.5951 56.3804L19.3562 63.1698L19.2754 63.2666C19.2485 63.3061 19.233 63.352 19.2305 63.3996C19.2281 63.4471 19.2388 63.4944 19.2615 63.5364C19.2842 63.5783 19.3181 63.6134 19.3595 63.6378C19.4008 63.6622 19.4481 63.6751 19.4963 63.6749ZM30.2531 64.6436H19.4428C19.4079 64.6436 19.3734 64.6503 19.3412 64.6635C19.309 64.6767 19.2798 64.696 19.2551 64.7203C19.2305 64.7447 19.2109 64.7736 19.1976 64.8054C19.1843 64.8372 19.1774 64.8713 19.1774 64.9057V73.2622C19.1773 73.2967 19.184 73.3309 19.1973 73.3628C19.2105 73.3948 19.2301 73.4238 19.2547 73.4483C19.2794 73.4727 19.3087 73.4921 19.341 73.5054C19.3732 73.5186 19.4078 73.5254 19.4428 73.5254H22.9221V68.2672C22.9219 68.2328 22.9286 68.1988 22.9419 68.167C22.9551 68.1352 22.9745 68.1063 22.9991 68.0819C23.0236 68.0576 23.0528 68.0382 23.0849 68.025C23.1171 68.0119 23.1515 68.0051 23.1863 68.0051H26.4162C26.4866 68.0051 26.5541 68.0327 26.6038 68.0818C26.6536 68.131 26.6815 68.1977 26.6815 68.2672V73.5254H30.2531C30.3236 73.5251 30.3911 73.4973 30.4408 73.4479C30.4905 73.3986 30.5185 73.3318 30.5185 73.2622V64.9057C30.5185 64.8713 30.5116 64.8372 30.4983 64.8054C30.4849 64.7736 30.4654 64.7447 30.4407 64.7203C30.4161 64.696 30.3868 64.6767 30.3547 64.6635C30.3225 64.6503 30.288 64.6436 30.2531 64.6436ZM67.6178 62.4566H56.9122C56.8783 62.4558 56.8445 62.4617 56.8129 62.474C56.7813 62.4862 56.7525 62.5046 56.7281 62.5279C56.7038 62.5512 56.6843 62.5791 56.671 62.61C56.6576 62.6408 56.6506 62.6739 56.6503 62.7074V73.3803C56.6515 73.4479 56.6797 73.5122 56.7288 73.5592C56.7779 73.6062 56.8438 73.6321 56.9122 73.6312H67.6178C67.6517 73.6318 67.6854 73.6258 67.7169 73.6135C67.7484 73.6012 67.7772 73.5828 67.8015 73.5595C67.8259 73.5362 67.8453 73.5084 67.8587 73.4776C67.8721 73.4469 67.8793 73.4138 67.8797 73.3803V62.7074C67.8794 62.6739 67.8724 62.6408 67.859 62.61C67.8457 62.5791 67.8262 62.5512 67.8018 62.5279C67.7775 62.5046 67.7487 62.4862 67.7171 62.474C67.6855 62.4617 67.6517 62.4558 67.6178 62.4566ZM61.7627 69.4237C61.7626 69.4573 61.7557 69.4905 61.7425 69.5214C61.7293 69.5524 61.71 69.5804 61.6857 69.6039C61.6615 69.6275 61.6328 69.646 61.6012 69.6585C61.5697 69.6711 61.5359 69.6773 61.5019 69.6768H58.3051C58.271 69.6773 58.2371 69.6711 58.2054 69.6586C58.1738 69.6461 58.1449 69.6276 58.1205 69.6041C58.096 69.5806 58.0765 69.5525 58.0631 69.5216C58.0496 69.4906 58.0424 69.4574 58.042 69.4237V67.5056C58.0424 67.4719 58.0496 67.4387 58.0631 67.4078C58.0766 67.3769 58.0961 67.349 58.1205 67.3256C58.145 67.3022 58.1739 67.2837 58.2055 67.2714C58.2372 67.259 58.271 67.253 58.3051 67.2536H61.5019C61.5359 67.253 61.5696 67.259 61.6011 67.2714C61.6327 67.2838 61.6614 67.3023 61.6857 67.3257C61.7099 67.3491 61.7292 67.3771 61.7425 67.408C61.7557 67.4389 61.7626 67.472 61.7627 67.5056V69.4237ZM61.7627 65.8777C61.7618 65.9452 61.7339 66.0097 61.685 66.0569C61.6361 66.1041 61.5703 66.1303 61.5019 66.1297H58.3051C58.2364 66.1306 58.1702 66.1046 58.1209 66.0574C58.0715 66.0101 58.0432 65.9455 58.042 65.8777V63.9573C58.0432 63.8895 58.0715 63.8249 58.1209 63.7776C58.1702 63.7304 58.2364 63.7044 58.3051 63.7053H61.5019C61.5358 63.7049 61.5695 63.711 61.601 63.7235C61.6324 63.7359 61.6611 63.7544 61.6853 63.7778C61.7096 63.8012 61.7289 63.8291 61.7422 63.8599C61.7555 63.8907 61.7624 63.9238 61.7627 63.9573V65.8777ZM66.6486 69.4237C66.6484 69.4574 66.6415 69.4907 66.6282 69.5217C66.6149 69.5527 66.5956 69.5808 66.5712 69.6044C66.5468 69.6279 66.5179 69.6464 66.4863 69.6589C66.4546 69.6713 66.4207 69.6774 66.3866 69.6768H63.1909C63.1568 69.6774 63.123 69.6713 63.0913 69.6589C63.0596 69.6464 63.0307 69.6279 63.0064 69.6044C62.982 69.5808 62.9626 69.5527 62.9493 69.5217C62.936 69.4907 62.9291 69.4574 62.929 69.4237V67.5056C62.9293 67.472 62.9363 67.4388 62.9496 67.4079C62.963 67.377 62.9824 67.3491 63.0068 67.3256C63.0311 67.3022 63.0599 67.2838 63.0915 67.2714C63.1231 67.259 63.1569 67.253 63.1909 67.2536H66.3866C66.4206 67.253 66.4544 67.259 66.486 67.2714C66.5176 67.2838 66.5464 67.3022 66.5708 67.3256C66.5951 67.3491 66.6145 67.377 66.6279 67.4079C66.6413 67.4388 66.6483 67.472 66.6486 67.5056V69.4237ZM66.6486 65.8777C66.6481 65.9112 66.641 65.9443 66.6276 65.9752C66.6142 66.006 66.5948 66.0339 66.5704 66.0573C66.5461 66.0807 66.5174 66.0991 66.4858 66.1115C66.4543 66.124 66.4206 66.1301 66.3866 66.1297H63.1909C63.157 66.1301 63.1232 66.124 63.0917 66.1115C63.0602 66.0991 63.0314 66.0807 63.0071 66.0573C62.9828 66.0339 62.9634 66.006 62.9499 65.9752C62.9365 65.9443 62.9294 65.9112 62.929 65.8777V63.9573C62.9293 63.9237 62.9363 63.8905 62.9496 63.8597C62.963 63.8288 62.9824 63.8008 63.0068 63.7774C63.0311 63.7539 63.0599 63.7355 63.0915 63.7231C63.1231 63.7108 63.1569 63.7047 63.1909 63.7053H66.3866C66.4206 63.7047 66.4544 63.7108 66.486 63.7231C66.5176 63.7355 66.5464 63.7539 66.5708 63.7774C66.5951 63.8008 66.6145 63.8288 66.6279 63.8597C66.6413 63.8905 66.6483 63.9237 66.6486 63.9573V65.8777ZM42.7444 37.6874H32.2746C32.241 37.6874 32.2078 37.694 32.1767 37.7067C32.1457 37.7195 32.1175 37.7381 32.0938 37.7616C32.0701 37.7852 32.0514 37.8131 32.0386 37.8438C32.0259 37.8745 32.0194 37.9074 32.0195 37.9406V73.2858C32.0195 73.3528 32.0464 73.417 32.0942 73.4644C32.142 73.5118 32.2069 73.5386 32.2746 73.5389H42.7467C42.8147 73.5386 42.8798 73.5119 42.928 73.4645C42.9762 73.4172 43.0035 73.353 43.0041 73.2858V37.9349C43.0038 37.8677 42.9766 37.8033 42.9283 37.7559C42.8801 37.7084 42.8148 37.6818 42.7467 37.6818M36.517 69.5114C36.517 69.5473 36.5026 69.5818 36.477 69.6073C36.4514 69.6328 36.4167 69.6473 36.3803 69.6476H33.983C33.9466 69.6473 33.9119 69.6328 33.8863 69.6073C33.8607 69.5818 33.8463 69.5473 33.8463 69.5114V66.8722C33.8463 66.8364 33.8607 66.802 33.8863 66.7767C33.912 66.7514 33.9467 66.7372 33.983 66.7372H36.3746C36.4109 66.7372 36.4456 66.7514 36.4713 66.7767C36.4969 66.802 36.5113 66.8364 36.5113 66.8722L36.517 69.5114ZM36.517 63.4499C36.5171 63.4677 36.5137 63.4853 36.5069 63.5018C36.5001 63.5182 36.49 63.5332 36.4773 63.5457C36.4646 63.5583 36.4495 63.5682 36.4328 63.575C36.4162 63.5817 36.3983 63.5851 36.3803 63.5849H33.983C33.965 63.5851 33.9471 63.5817 33.9305 63.575C33.9138 63.5682 33.8987 63.5583 33.886 63.5457C33.8733 63.5332 33.8632 63.5182 33.8564 63.5018C33.8496 63.4853 33.8461 63.4677 33.8463 63.4499V60.8107C33.8461 60.7929 33.8496 60.7753 33.8564 60.7589C33.8632 60.7424 33.8733 60.7275 33.886 60.7149C33.8987 60.7023 33.9138 60.6924 33.9305 60.6857C33.9471 60.6789 33.965 60.6755 33.983 60.6757H36.3746C36.3926 60.6755 36.4105 60.6789 36.4271 60.6857C36.4438 60.6924 36.4589 60.7023 36.4716 60.7149C36.4843 60.7275 36.4944 60.7424 36.5012 60.7589C36.508 60.7753 36.5114 60.7929 36.5113 60.8107L36.517 63.4499ZM36.517 57.3896C36.517 57.4254 36.5026 57.4597 36.477 57.485C36.4513 57.5103 36.4166 57.5246 36.3803 57.5246H33.983C33.9467 57.5246 33.912 57.5103 33.8863 57.485C33.8607 57.4597 33.8463 57.4254 33.8463 57.3896V54.7492C33.8463 54.7133 33.8607 54.6788 33.8863 54.6533C33.9119 54.6278 33.9466 54.6134 33.983 54.6131H36.3746C36.411 54.6134 36.4457 54.6278 36.4713 54.6533C36.4969 54.6788 36.5113 54.7133 36.5113 54.7492L36.517 57.3896ZM36.517 51.3269C36.517 51.3628 36.5026 51.3973 36.477 51.4228C36.4514 51.4483 36.4167 51.4628 36.3803 51.4631H33.983C33.9466 51.4628 33.9119 51.4483 33.8863 51.4228C33.8607 51.3973 33.8463 51.3628 33.8463 51.3269V48.6866C33.8463 48.6689 33.8498 48.6514 33.8567 48.6351C33.8636 48.6188 33.8737 48.6039 33.8864 48.5915C33.8991 48.5791 33.9142 48.5692 33.9307 48.5626C33.9473 48.5559 33.9651 48.5525 33.983 48.5527H36.3746C36.3925 48.5525 36.4103 48.5559 36.4268 48.5626C36.4434 48.5692 36.4585 48.5791 36.4712 48.5915C36.4839 48.6039 36.494 48.6188 36.5009 48.6351C36.5078 48.6514 36.5113 48.6689 36.5113 48.6866L36.517 51.3269ZM36.517 45.2666C36.517 45.3024 36.5026 45.3367 36.477 45.362C36.4513 45.3873 36.4166 45.4016 36.3803 45.4016H33.983C33.9467 45.4016 33.912 45.3873 33.8863 45.362C33.8607 45.3367 33.8463 45.3024 33.8463 45.2666V42.6262C33.8463 42.5904 33.8607 42.556 33.8863 42.5307C33.912 42.5054 33.9467 42.4912 33.983 42.4912H36.3746C36.4109 42.4912 36.4456 42.5054 36.4713 42.5307C36.4969 42.556 36.5113 42.5904 36.5113 42.6262L36.517 45.2666ZM41.2195 69.5114C41.2195 69.5294 41.2159 69.5472 41.2089 69.5638C41.2019 69.5804 41.1916 69.5954 41.1787 69.6081C41.1658 69.6207 41.1505 69.6308 41.1336 69.6375C41.1168 69.6443 41.0987 69.6477 41.0805 69.6476H38.6889C38.6523 69.6476 38.6173 69.6332 38.5914 69.6077C38.5656 69.5822 38.551 69.5475 38.551 69.5114V66.8722C38.551 66.8544 38.5546 66.8367 38.5616 66.8203C38.5685 66.8038 38.5787 66.7889 38.5915 66.7763C38.6043 66.7638 38.6195 66.7539 38.6362 66.7471C38.6529 66.7404 38.6708 66.737 38.6889 66.7372H41.0805C41.0987 66.7369 41.1167 66.7402 41.1335 66.7468C41.1504 66.7535 41.1657 66.7634 41.1786 66.7759C41.1916 66.7885 41.2018 66.8035 41.2088 66.82C41.2159 66.8365 41.2195 66.8543 41.2195 66.8722V69.5114ZM41.2195 63.4499C41.2195 63.4679 41.2159 63.4856 41.2088 63.5021C41.2018 63.5187 41.1916 63.5336 41.1786 63.5462C41.1657 63.5588 41.1504 63.5687 41.1335 63.5753C41.1167 63.582 41.0987 63.5852 41.0805 63.5849H38.6889C38.6708 63.5852 38.6528 63.582 38.636 63.5753C38.6192 63.5686 38.604 63.5587 38.5911 63.5461C38.5783 63.5336 38.5681 63.5186 38.5612 63.502C38.5544 63.4855 38.5509 63.4678 38.551 63.4499V60.8107C38.5509 60.7928 38.5544 60.7751 38.5612 60.7586C38.5681 60.7421 38.5783 60.7271 38.5911 60.7145C38.604 60.7019 38.6192 60.692 38.636 60.6853C38.6528 60.6787 38.6708 60.6754 38.6889 60.6757H41.0805C41.0987 60.6754 41.1167 60.6787 41.1335 60.6853C41.1504 60.692 41.1657 60.7019 41.1786 60.7144C41.1916 60.727 41.2018 60.742 41.2088 60.7585C41.2159 60.775 41.2195 60.7928 41.2195 60.8107V63.4499ZM41.2195 57.3896C41.2193 57.4074 41.2156 57.4251 41.2085 57.4416C41.2015 57.458 41.1912 57.473 41.1783 57.4855C41.1654 57.498 41.1501 57.5079 41.1333 57.5146C41.1166 57.5213 41.0986 57.5247 41.0805 57.5246H38.6889C38.6525 57.5246 38.6176 57.5104 38.5918 57.4851C38.566 57.4598 38.5513 57.4255 38.551 57.3896V54.7492C38.551 54.7131 38.5656 54.6785 38.5914 54.6529C38.6173 54.6274 38.6523 54.6131 38.6889 54.6131H41.0805C41.0987 54.6129 41.1168 54.6163 41.1336 54.6231C41.1505 54.6299 41.1658 54.6399 41.1787 54.6525C41.1916 54.6652 41.2019 54.6802 41.2089 54.6968C41.2159 54.7134 41.2195 54.7312 41.2195 54.7492V57.3896ZM41.2195 51.3269C41.2195 51.3449 41.2159 51.3627 41.2089 51.3793C41.2019 51.3959 41.1916 51.4109 41.1787 51.4236C41.1658 51.4362 41.1505 51.4463 41.1336 51.453C41.1168 51.4598 41.0987 51.4632 41.0805 51.4631H38.6889C38.6523 51.4631 38.6173 51.4487 38.5914 51.4232C38.5656 51.3977 38.551 51.363 38.551 51.3269V48.6866C38.5512 48.6688 38.5549 48.6513 38.5619 48.635C38.5689 48.6187 38.5791 48.6039 38.5919 48.5914C38.6047 48.579 38.6198 48.5692 38.6365 48.5625C38.6531 48.5559 38.6709 48.5525 38.6889 48.5527H41.0805C41.0986 48.5524 41.1165 48.5556 41.1333 48.5622C41.15 48.5688 41.1653 48.5786 41.1782 48.591C41.1911 48.6035 41.2014 48.6183 41.2085 48.6347C41.2156 48.6511 41.2193 48.6687 41.2195 48.6866V51.3269ZM41.2195 45.2666C41.2193 45.2844 41.2156 45.3021 41.2085 45.3186C41.2015 45.335 41.1912 45.35 41.1783 45.3625C41.1654 45.375 41.1501 45.3849 41.1333 45.3916C41.1166 45.3983 41.0986 45.4017 41.0805 45.4016H38.6889C38.6525 45.4016 38.6176 45.3874 38.5918 45.3621C38.566 45.3368 38.5513 45.3025 38.551 45.2666V42.6262C38.551 42.6084 38.5546 42.5907 38.5616 42.5743C38.5685 42.5578 38.5787 42.5429 38.5915 42.5303C38.6043 42.5178 38.6195 42.5079 38.6362 42.5011C38.6529 42.4944 38.6708 42.491 38.6889 42.4912H41.0805C41.0987 42.4909 41.1167 42.4942 41.1335 42.5008C41.1504 42.5075 41.1657 42.5174 41.1786 42.5299C41.1916 42.5425 41.2018 42.5575 41.2088 42.574C41.2159 42.5905 41.2195 42.6083 41.2195 42.6262V45.2666ZM67.8683 61.3822C67.8685 61.4102 67.863 61.4379 67.8523 61.4637C67.8415 61.4896 67.8256 61.5131 67.8056 61.5329C67.7856 61.5526 67.7618 61.5683 67.7356 61.5789C67.7094 61.5896 67.6814 61.595 67.6531 61.5948H56.8826C56.8255 61.5948 56.7708 61.5724 56.7304 61.5325C56.69 61.4927 56.6674 61.4386 56.6674 61.3822V59.2548C56.6674 59.1984 56.69 59.1443 56.7304 59.1045C56.7708 59.0646 56.8255 59.0422 56.8826 59.0422H67.6531C67.7102 59.0422 67.7649 59.0646 67.8053 59.1045C67.8456 59.1443 67.8683 59.1984 67.8683 59.2548V61.3822ZM55.3941 44.3576C55.3832 44.3162 55.3623 44.278 55.3332 44.2463C55.3042 44.2146 55.2677 44.1904 55.2271 44.1757C55.1864 44.161 55.1428 44.1562 55.0998 44.1618C55.0569 44.1675 55.016 44.1833 54.9807 44.2079L54.9613 44.2214L54.8736 44.3339L44.5803 57.2276L44.5325 57.2906C44.4777 57.3439 44.4459 57.416 44.4437 57.4919V73.3387C44.4437 73.3719 44.4503 73.4047 44.4632 73.4354C44.4761 73.466 44.495 73.4939 44.5188 73.5173C44.5426 73.5407 44.5709 73.5592 44.6019 73.5718C44.633 73.5844 44.6663 73.5908 44.6999 73.5907H55.1663C55.1999 73.5908 55.2332 73.5844 55.2643 73.5718C55.2954 73.5592 55.3236 73.5407 55.3474 73.5173C55.3712 73.4939 55.3901 73.466 55.403 73.4354C55.4159 73.4047 55.4226 73.3719 55.4225 73.3387V44.4633C55.421 44.4264 55.4113 44.3903 55.3941 44.3576ZM51.0606 51.3607L51.1346 51.2696C51.8385 50.3763 53.0252 48.9341 53.6037 48.2321L53.68 48.1421C53.7155 48.0994 53.7624 48.0675 53.8155 48.0503C53.8686 48.033 53.9255 48.0311 53.9797 48.0447C54.0338 48.0582 54.0829 48.0868 54.1212 48.1269C54.1595 48.1671 54.1855 48.2172 54.196 48.2714V51.5339C54.1954 51.6093 54.1656 51.6816 54.1126 51.7359C54.0596 51.7901 53.9875 51.8221 53.9112 51.8253H51.2861C51.2323 51.8234 51.18 51.807 51.1349 51.7779C51.0898 51.7488 51.0536 51.7081 51.0301 51.6602C51.0067 51.6123 50.9969 51.559 51.0019 51.506C51.0069 51.453 51.0264 51.4024 51.0583 51.3596L51.0606 51.3607ZM49.432 69.4214C49.4321 69.4546 49.4257 69.4875 49.4129 69.5182C49.4001 69.5489 49.3814 69.5768 49.3577 69.6004C49.334 69.6239 49.3058 69.6425 49.2748 69.6553C49.2437 69.668 49.2105 69.6746 49.1769 69.6746H46.0552C45.9872 69.6746 45.922 69.6479 45.874 69.6004C45.8259 69.553 45.7989 69.4886 45.7989 69.4214V67.4921C45.7989 67.4589 45.8056 67.426 45.8185 67.3954C45.8314 67.3647 45.8502 67.3369 45.8741 67.3135C45.8979 67.2901 45.9261 67.2715 45.9572 67.2589C45.9883 67.2463 46.0216 67.2399 46.0552 67.2401H49.1757C49.2434 67.2401 49.3083 67.2666 49.3561 67.3139C49.404 67.3611 49.4309 67.4252 49.4309 67.4921L49.432 69.4214ZM49.432 65.8563C49.4321 65.8895 49.4257 65.9224 49.4129 65.9531C49.4001 65.9838 49.3814 66.0117 49.3577 66.0352C49.334 66.0588 49.3058 66.0774 49.2748 66.0902C49.2437 66.1029 49.2105 66.1094 49.1769 66.1094H46.0552C45.9872 66.1094 45.922 66.0828 45.874 66.0353C45.8259 65.9878 45.7989 65.9235 45.7989 65.8563V63.9269C45.7989 63.8937 45.8056 63.8609 45.8185 63.8302C45.8314 63.7996 45.8502 63.7718 45.8741 63.7483C45.8979 63.7249 45.9261 63.7064 45.9572 63.6938C45.9883 63.6812 46.0216 63.6748 46.0552 63.6749H49.1757C49.2094 63.6748 49.2427 63.6812 49.2738 63.6939C49.3049 63.7066 49.3331 63.7253 49.3569 63.7488C49.3806 63.7724 49.3994 63.8003 49.4121 63.8311C49.4248 63.8619 49.4312 63.8948 49.4309 63.9281L49.432 65.8563ZM49.432 62.2912C49.432 62.358 49.4051 62.4221 49.3573 62.4694C49.3094 62.5166 49.2445 62.5432 49.1769 62.5432H46.0552C45.9874 62.5432 45.9224 62.5167 45.8744 62.4694C45.8264 62.4222 45.7992 62.3581 45.7989 62.2912V60.3607C45.7989 60.2936 45.8259 60.2292 45.874 60.1817C45.922 60.1342 45.9872 60.1076 46.0552 60.1076H49.1757C49.2093 60.1076 49.2426 60.1141 49.2736 60.1269C49.3047 60.1396 49.3328 60.1582 49.3565 60.1818C49.3802 60.2053 49.399 60.2332 49.4118 60.2639C49.4245 60.2946 49.431 60.3275 49.4309 60.3607L49.432 62.2912ZM49.4411 54.4769V58.7249C49.4408 58.792 49.4137 58.8562 49.3657 58.9036C49.3177 58.951 49.2527 58.9778 49.1849 58.9781H46.0643C46.0305 58.9782 45.997 58.9718 45.9657 58.9591C45.9344 58.9465 45.906 58.9279 45.882 58.9044C45.858 58.8809 45.8389 58.8529 45.8258 58.8222C45.8127 58.7914 45.8059 58.7583 45.8058 58.7249V58.1894C45.8067 58.157 45.8137 58.125 45.8263 58.0949C45.8303 58.0848 45.8352 58.075 45.8411 58.0657C45.848 58.0544 45.8556 58.0435 45.8639 58.0331C45.8718 58.0207 45.8832 58.0049 45.8935 57.9914C46.2921 57.4289 48.0927 55.2363 48.8489 54.3206L48.924 54.2306C48.9513 54.1964 48.9859 54.1687 49.0252 54.1492C49.0646 54.1298 49.1078 54.1191 49.1518 54.1181C49.2199 54.1188 49.2857 54.1428 49.3378 54.1861C49.39 54.2294 49.4253 54.2893 49.4377 54.3554L49.4411 54.4769ZM54.2028 69.4214C54.2029 69.4546 54.1965 69.4875 54.1837 69.5182C54.171 69.5489 54.1522 69.5768 54.1285 69.6004C54.1048 69.6239 54.0766 69.6425 54.0456 69.6553C54.0145 69.668 53.9813 69.6746 53.9477 69.6746H50.8271C50.7934 69.6747 50.7599 69.6683 50.7287 69.6556C50.6975 69.643 50.6691 69.6243 50.6452 69.6008C50.6213 69.5773 50.6023 69.5494 50.5894 69.5186C50.5764 69.4878 50.5697 69.4548 50.5697 69.4214V67.4921C50.5699 67.4588 50.5767 67.4259 50.5897 67.3953C50.6027 67.3646 50.6217 67.3368 50.6456 67.3134C50.6695 67.29 50.6978 67.2715 50.729 67.2589C50.7601 67.2463 50.7935 67.2399 50.8271 67.2401H53.9477C54.0153 67.2401 54.0802 67.2666 54.1281 67.3139C54.1759 67.3611 54.2028 67.4252 54.2028 67.4921V69.4214ZM54.2028 65.8563C54.2029 65.8895 54.1965 65.9224 54.1837 65.9531C54.171 65.9838 54.1522 66.0117 54.1285 66.0352C54.1048 66.0588 54.0766 66.0774 54.0456 66.0902C54.0145 66.1029 53.9813 66.1094 53.9477 66.1094H50.8271C50.7934 66.1096 50.7599 66.1032 50.7287 66.0905C50.6975 66.0778 50.6691 66.0592 50.6452 66.0357C50.6213 66.0122 50.6023 65.9842 50.5894 65.9534C50.5764 65.9227 50.5697 65.8897 50.5697 65.8563V63.9269C50.5696 63.8936 50.5762 63.8605 50.589 63.8296C50.6019 63.7988 50.6209 63.7708 50.6449 63.7472C50.6688 63.7237 50.6973 63.7051 50.7285 63.6925C50.7598 63.6799 50.7933 63.6735 50.8271 63.6738H53.9477C53.9813 63.6738 54.0145 63.6804 54.0456 63.6931C54.0766 63.7058 54.1048 63.7245 54.1285 63.748C54.1522 63.7715 54.171 63.7994 54.1837 63.8302C54.1965 63.8609 54.2029 63.8937 54.2028 63.9269V65.8563ZM54.2028 62.2912C54.2025 62.3579 54.1755 62.4219 54.1277 62.4691C54.08 62.5162 54.0153 62.5429 53.9477 62.5432H50.8271C50.7935 62.5433 50.7601 62.5369 50.729 62.5244C50.6978 62.5118 50.6695 62.4932 50.6456 62.4698C50.6217 62.4464 50.6027 62.4186 50.5897 62.388C50.5767 62.3573 50.5699 62.3244 50.5697 62.2912V60.3607C50.5697 60.3274 50.5764 60.2943 50.5894 60.2636C50.6023 60.2328 50.6213 60.2048 50.6452 60.1813C50.6691 60.1578 50.6975 60.1392 50.7287 60.1265C50.7599 60.1138 50.7934 60.1074 50.8271 60.1076H53.9477C53.9813 60.1076 54.0145 60.1141 54.0456 60.1269C54.0766 60.1396 54.1048 60.1582 54.1285 60.1818C54.1522 60.2053 54.171 60.2332 54.1837 60.2639C54.1965 60.2946 54.2029 60.3275 54.2028 60.3607V62.2912ZM54.2028 58.7249C54.2028 58.7918 54.1759 58.8559 54.1281 58.9031C54.0802 58.9504 54.0153 58.9769 53.9477 58.9769H50.8271C50.7935 58.9771 50.7601 58.9707 50.729 58.9581C50.6978 58.9455 50.6695 58.927 50.6456 58.9036C50.6217 58.8802 50.6027 58.8524 50.5897 58.8217C50.5767 58.7911 50.5699 58.7582 50.5697 58.7249V56.7944C50.5699 56.7612 50.5767 56.7283 50.5897 56.6977C50.6027 56.667 50.6217 56.6392 50.6456 56.6158C50.6695 56.5924 50.6978 56.5739 50.729 56.5613C50.7601 56.5487 50.7935 56.5423 50.8271 56.5424H53.9477C54.0153 56.5424 54.0802 56.569 54.1281 56.6162C54.1759 56.6635 54.2028 56.7276 54.2028 56.7944V58.7249ZM54.2028 55.1587C54.2028 55.2255 54.1759 55.2896 54.1281 55.3369C54.0802 55.3841 54.0153 55.4107 53.9477 55.4107H50.8271C50.7935 55.4108 50.7601 55.4044 50.729 55.3918C50.6978 55.3793 50.6695 55.3607 50.6456 55.3373C50.6217 55.3139 50.6027 55.2861 50.5897 55.2555C50.5767 55.2248 50.5699 55.1919 50.5697 55.1587V53.2282C50.5697 53.1949 50.5764 53.1618 50.5894 53.1311C50.6023 53.1003 50.6213 53.0723 50.6452 53.0488C50.6691 53.0253 50.6975 53.0067 50.7287 52.994C50.7599 52.9813 50.7934 52.9749 50.8271 52.9751H53.9477C53.9813 52.9751 54.0145 52.9816 54.0456 52.9944C54.0766 53.0071 54.1048 53.0257 54.1285 53.0493C54.1522 53.0728 54.171 53.1007 54.1837 53.1314C54.1965 53.1621 54.2029 53.195 54.2028 53.2282V55.1587Z" fill="white"/>
</g>
<defs>
<clipPath id="clip0_1676_15461">
<rect width="82" height="81" fill="white" transform="translate(0.5)"/>
</clipPath>
</defs>
</svg>
