<svg width="83" height="81" viewBox="0 0 83 81" fill="none" xmlns="http://www.w3.org/2000/svg">
<g clip-path="url(#clip0_1676_15466)">
<path d="M0.378906 -0.121582H82.6249V81.1214H0.378906V-0.121582Z" fill="#BF8B2E"/>
<path d="M6.09337 10.0046C5.62415 10.2532 4.29279 10.6166 3.82812 10.8461V8.64675C4.44768 8.39812 6.17082 7.57575 6.75165 6.94462H9.09435V22.4359H6.09337V10.0046ZM9.42349 20.3512L13.2376 14.5564C14.0702 13.275 14.9027 12.204 14.9027 10.7696C14.9027 9.77512 14.5155 9.23962 13.7638 9.23962C12.6249 9.23962 12.3504 10.2724 12.3504 11.5346V12.2422H9.42349V11.475C9.42349 8.74012 10.6239 6.75 13.7023 6.75C16.4516 6.75 17.8649 8.26087 17.8649 10.8236C17.8649 12.717 16.8775 14.0366 15.8149 15.624L12.7946 20.0992H17.4413V22.4325H9.42349V20.3512ZM26.4533 10.962V8.84925C26.4533 7.63538 26.8451 6.867 28.1616 6.867C29.3905 6.867 29.7834 7.542 29.7834 8.57138V9.06862H28.7322V8.55675C28.7322 8.0595 28.7242 7.65675 28.1696 7.65675C27.615 7.65675 27.5546 8.08087 27.5546 8.622V11.1892C27.5546 11.8327 27.6878 12.1399 28.1696 12.1399C28.7094 12.1399 28.7322 11.7225 28.7322 11.196V10.6627H29.7834V11.1375C29.7834 12.1837 29.4281 12.9375 28.1616 12.9375C26.8451 12.9375 26.4533 12.1174 26.4533 10.962ZM30.2242 10.9991V8.775C30.2242 7.57575 30.6683 6.8625 31.9564 6.8625C33.2445 6.8625 33.6807 7.57237 33.6807 8.775V10.9991C33.6807 12.1905 33.2365 12.9364 31.9564 12.9364C30.6763 12.9364 30.2242 12.1984 30.2242 10.9991ZM32.5703 11.2545V8.5275C32.5703 8.03025 32.4894 7.65675 31.9564 7.65675C31.4234 7.65675 31.3346 8.03025 31.3346 8.5275V11.25C31.3346 11.7405 31.4154 12.1354 31.9564 12.1354C32.4974 12.1354 32.5748 11.745 32.5748 11.25L32.5703 11.2545ZM34.2695 6.93338H35.0325L36.4915 10.3084V6.93338H37.3992V12.8565H36.6737L35.2034 9.31725V12.8565H34.2695V6.93338ZM37.9344 11.1307L38.8797 10.9474C38.9105 11.6494 39.0802 12.1027 39.563 12.1027C39.9115 12.1027 40.0596 11.8687 40.0596 11.547C40.0596 11.0351 39.7931 10.7505 39.4013 10.4141L38.6451 9.76275C38.2157 9.39712 37.9492 8.98762 37.9492 8.3295C37.9492 7.3935 38.5415 6.867 39.497 6.867C40.6222 6.867 40.9411 7.61287 41.0003 8.47575L40.0596 8.63662C40.038 8.08087 39.956 7.66462 39.4742 7.66462C39.1496 7.66462 38.9708 7.90537 38.9708 8.22037C38.9708 8.622 39.1417 8.84137 39.4594 9.1125L40.2077 9.76275C40.6962 10.1801 41.104 10.6987 41.104 11.4817C41.104 12.3367 40.4969 12.9364 39.6006 12.9364C38.497 12.9375 37.9788 12.3075 37.9344 11.1307ZM41.473 10.9406V6.93338H42.539V11.0644C42.539 11.6269 42.605 12.132 43.1608 12.132C43.7166 12.132 43.7895 11.628 43.7895 11.0644V6.93338H44.8486V10.9406C44.8486 12.1781 44.5001 12.9364 43.1608 12.9364C41.8215 12.9364 41.473 12.1837 41.473 10.9406ZM45.5741 6.93338H46.7062L47.558 11.0351L48.4384 6.93338H49.542L49.6559 12.8565H48.8404L48.7516 8.739L47.9008 12.8565H47.2392L46.3736 8.72438L46.2916 12.8565H45.4705L45.5741 6.93338ZM50.223 10.9991V8.775C50.223 7.57575 50.6672 6.8625 51.9553 6.8625C53.2434 6.8625 53.6853 7.57687 53.6853 8.775V10.9991C53.6853 12.1905 53.2411 12.9364 51.961 12.9364C50.6809 12.9364 50.223 12.1984 50.223 10.9991ZM52.5692 11.25V8.5275C52.5692 8.03025 52.4883 7.65675 51.9553 7.65675C51.4223 7.65675 51.3335 8.03025 51.3335 8.5275V11.25C51.3335 11.7405 51.4143 12.1354 51.9553 12.1354C52.4963 12.1354 52.5692 11.745 52.5692 11.25ZM55.8412 6.93338H58.3547V7.69387H56.93V9.39712H58.0552V10.1509H56.93V12.1174H58.3729V12.8565H55.8412V6.93338ZM26.549 16.6084H28.3108C29.3848 16.6084 29.8438 17.2226 29.8438 18.2959C29.8438 19.458 29.2071 19.9046 28.2368 19.9046H27.6377V22.5371H26.549V16.6084ZM28.0603 19.1385C28.6605 19.1385 28.8153 18.9135 28.8153 18.2824C28.8153 17.6512 28.7345 17.3689 28.0603 17.3689H27.6389V19.1385H28.0603ZM30.2242 16.6084H31.6671C32.8664 16.6084 33.5474 16.9886 33.5474 18.1834C33.5474 18.8932 33.3698 19.3905 32.8072 19.6166L33.6442 22.5349H32.5486L31.83 19.8214H31.3118V22.5349H30.2242V16.6084ZM31.6603 19.1452C32.289 19.1452 32.519 18.8752 32.519 18.2385C32.519 17.6389 32.3482 17.3464 31.7218 17.3464H31.3141V19.1464L31.6603 19.1452ZM34.0326 20.6741V18.45C34.0326 17.2507 34.4779 16.5375 35.766 16.5375C37.0541 16.5375 37.4903 17.2474 37.4903 18.45V20.673C37.4903 21.8644 37.0461 22.6102 35.766 22.6102C34.4859 22.6102 34.0326 21.8734 34.0326 20.6741ZM36.3798 20.925V18.2025C36.3798 17.7052 36.299 17.3317 35.766 17.3317C35.233 17.3317 35.1442 17.7052 35.1442 18.2025V20.925C35.1442 21.4155 35.225 21.8104 35.766 21.8104C36.307 21.8104 36.3798 21.42 36.3798 20.925ZM38.0745 16.6084H39.489C40.9468 16.6084 41.3921 17.1855 41.3921 18.4511V20.6077C41.3921 21.9094 40.9365 22.5315 39.5334 22.5315H38.0745V16.6084ZM39.5038 21.7834C40.2509 21.7834 40.2817 21.3885 40.2817 20.6505V18.378C40.2817 17.6681 40.2065 17.3756 39.4845 17.3756H39.1587V21.7777L39.5038 21.7834ZM41.9319 20.6156V16.6084H42.9979V20.7394C42.9979 21.3019 43.064 21.807 43.6198 21.807C44.1755 21.807 44.2484 21.303 44.2484 20.7394V16.6084H45.3076V20.6156C45.3076 21.8587 44.9591 22.6114 43.6198 22.6114C42.2804 22.6114 41.9319 21.8587 41.9319 20.6156ZM48.1275 18.7436V18.2317C48.1275 17.7345 48.1207 17.3317 47.5649 17.3317C47.0091 17.3317 46.951 17.7559 46.951 18.297V20.8642C46.951 21.5077 47.0843 21.8149 47.5649 21.8149C48.1058 21.8149 48.1275 21.3975 48.1275 20.871V20.3377H49.1787V20.8125C49.1787 21.8149 48.853 22.5529 47.7061 22.6125V22.9781C48.2539 22.9781 48.624 23.22 48.624 23.6734C48.624 24.192 48.1571 24.4114 47.6173 24.4114C47.4367 24.4096 47.2572 24.3827 47.0843 24.3315V23.8702C47.2137 23.91 47.3485 23.9298 47.484 23.9287C47.7425 23.9287 47.9396 23.8556 47.9396 23.6587C47.9396 23.3955 47.6366 23.2999 47.2881 23.2639V22.5979C46.1925 22.4854 45.852 21.7057 45.852 20.6381V18.5242C45.852 17.3104 46.2449 16.542 47.5603 16.542C48.7892 16.542 49.181 17.217 49.181 18.2464V18.7436H48.1275ZM50.6103 16.6084H51.7799L52.9791 22.5315H51.9655L51.7287 21.1635H50.6843L50.4406 22.5315H49.4156L50.6103 16.6084ZM50.838 15.489C50.6456 15.489 50.5784 15.6015 50.5784 15.7894H50.0602C50.0602 15.2629 50.2082 14.868 50.69 14.868C51.0522 14.868 51.297 15.2055 51.6148 15.2055C51.7856 15.2055 51.8517 15.1031 51.8517 14.913H52.3402C52.3402 15.3731 52.2594 15.8344 51.7776 15.8344C51.3995 15.8332 51.1478 15.489 50.8449 15.489H50.838ZM51.6148 20.475L51.207 17.9887L50.8005 20.475H51.6148ZM53.2058 20.6741V18.45C53.2058 17.2507 53.65 16.5375 54.938 16.5375C56.2261 16.5375 56.6635 17.2474 56.6635 18.45V20.673C56.6635 21.8644 56.2193 22.6102 54.938 22.6102C53.6568 22.6102 53.2058 21.8734 53.2058 20.6741ZM55.553 20.925V18.2025C55.553 17.7052 55.471 17.3317 54.938 17.3317C54.405 17.3317 54.3162 17.7052 54.3162 18.2025V20.925C54.3162 21.4155 54.3982 21.8104 54.938 21.8104C55.4779 21.8104 55.553 21.42 55.553 20.925ZM26.549 26.2834H27.9931C29.1923 26.2834 29.8734 26.6636 29.8734 27.8584C29.8734 28.5682 29.6957 29.0655 29.1331 29.2916L29.969 32.2099H28.8734L28.1559 29.4964H27.6377V32.2099H26.549V26.2834ZM27.9851 28.8202C28.6149 28.8202 28.8438 28.5502 28.8438 27.9135C28.8438 27.3139 28.6741 27.0214 28.0466 27.0214H27.64V28.8214L27.9851 28.8202ZM30.4804 26.2834H32.9973V27.0439H31.568V28.7471H32.6933V29.5009H31.568V31.4674H33.0122V32.2065H30.4804V26.2834ZM33.2775 30.4807L34.2182 30.2974C34.2478 30.9994 34.4175 31.4527 34.9016 31.4527C35.2489 31.4527 35.3981 31.2187 35.3981 30.897C35.3981 30.3851 35.1305 30.1005 34.7387 29.7641L33.9825 29.1127C33.5531 28.7471 33.2866 28.3376 33.2866 27.6795C33.2866 26.7435 33.8788 26.217 34.8344 26.217C35.9596 26.217 36.2773 26.9629 36.3366 27.8257L35.397 27.9866C35.3742 27.4309 35.2933 27.0146 34.8116 27.0146C34.4859 27.0146 34.3082 27.2554 34.3082 27.5704C34.3082 27.972 34.479 28.1914 34.7968 28.4625L35.545 29.1127C36.0336 29.5301 36.4402 30.0487 36.4402 30.8317C36.4402 31.6867 35.8332 32.2864 34.938 32.2864C33.8413 32.2875 33.3219 31.6575 33.2775 30.4807ZM36.8605 26.2834H38.6223C39.6963 26.2834 40.1553 26.8976 40.1553 27.9709C40.1553 29.133 39.5186 29.5796 38.5483 29.5796H37.9492V32.2121H36.8605V26.2834ZM38.3706 28.8135C38.9708 28.8135 39.1257 28.5885 39.1257 27.9574C39.1257 27.3262 39.0448 27.0439 38.3706 27.0439H37.9492V28.8135H38.3706ZM40.4434 30.3491V28.125C40.4434 26.9257 40.8876 26.2125 42.1757 26.2125C43.4637 26.2125 43.9011 26.9224 43.9011 28.125V30.348C43.9011 31.5394 43.4569 32.2852 42.1757 32.2852C40.8944 32.2852 40.4434 31.5484 40.4434 30.3491ZM42.7907 30.6V27.8775C42.7907 27.3802 42.7087 27.0067 42.1757 27.0067C41.6427 27.0067 41.5538 27.3802 41.5538 27.8775V30.6C41.5538 31.0905 41.6358 31.4854 42.1757 31.4854C42.7155 31.4854 42.7907 31.095 42.7907 30.6ZM44.4853 26.2834H45.2484L46.7062 29.6584V26.2834H47.6093V32.2065H46.8838L45.4181 28.6672V32.2065H44.4853V26.2834ZM48.1503 30.4807L49.0898 30.2974C49.1195 30.9994 49.2903 31.4527 49.7732 31.4527C50.1217 31.4527 50.2697 31.2187 50.2697 30.897C50.2697 30.3851 50.0032 30.1005 49.6103 29.7641L48.8552 29.1127C48.4259 28.7471 48.1594 28.3376 48.1594 27.6795C48.1594 26.7435 48.7516 26.217 49.7071 26.217C50.8323 26.217 51.1501 26.9629 51.2093 27.8257L50.2686 27.9866C50.2458 27.4309 50.165 27.0146 49.6832 27.0146C49.3575 27.0146 49.1798 27.2554 49.1798 27.5704C49.1798 27.972 49.3507 28.1914 49.6684 28.4625L50.4166 29.1127C50.9052 29.5301 51.3118 30.0487 51.3118 30.8317C51.3118 31.6867 50.7048 32.2864 49.8096 32.2864C48.7129 32.2875 48.1947 31.6575 48.1503 30.4807ZM52.5988 26.2834H53.7684L54.9677 32.2065H53.954L53.7172 30.8385H52.6728L52.4325 32.2065H51.4075L52.5988 26.2834ZM53.5987 30.15L53.191 27.6637L52.7844 30.15H53.5987ZM53.3322 24.4125H54.3572L53.4757 25.875H52.888L53.3322 24.4125ZM54.8424 26.2834H55.8047L56.5963 30.4729L57.3445 26.2834H58.3285L57.1224 32.2065H56.0485L54.8424 26.2834ZM58.7214 26.2834H61.2384V27.0439H59.8091V28.7471H60.9343V29.5009H59.8091V31.4674H61.2532V32.2065H58.7214V26.2834ZM61.6973 26.2834H62.7782V32.2065H61.6973V26.2834ZM63.3328 30.4807L64.2735 30.2974C64.3031 30.9994 64.4728 31.4527 64.9568 31.4527C65.2985 31.4527 65.4523 31.2187 65.4523 30.897C65.4523 30.3851 65.1858 30.1005 64.794 29.7641L64.0389 29.1127C63.6084 28.7471 63.3419 28.3376 63.3419 27.6795C63.3419 26.7435 63.9353 26.217 64.8897 26.217C66.0149 26.217 66.3338 26.9629 66.393 27.8257L65.4523 27.9866C65.4306 27.4309 65.3486 27.0146 64.868 27.0146C64.5423 27.0146 64.3646 27.2554 64.3646 27.5704C64.3646 27.972 64.5343 28.1914 64.8532 28.4625L65.6003 29.1127C66.0889 29.5301 66.4966 30.0487 66.4966 30.8317C66.4966 31.6867 65.8896 32.2864 64.9933 32.2864C63.8954 32.2875 63.3772 31.6575 63.3328 30.4807ZM62.4672 42.0379C58.8228 39.1916 53.9837 39.1331 52.2172 39.5494L52.0122 39.5966C49.9679 40.0736 46.7198 40.8622 42.9182 45.5231C42.8966 45.549 42.8749 45.5749 42.8544 45.6019L42.8066 45.6592C42.7666 45.7115 42.7443 45.7749 42.7428 45.8404C42.7429 45.8951 42.757 45.9489 42.7838 45.9967L42.8727 46.1407C43.3498 46.9282 43.9512 47.9407 44.4603 48.879C44.4655 48.888 44.4701 48.8974 44.4739 48.9071C44.5013 48.96 44.5429 49.0045 44.5941 49.0356C44.6453 49.0668 44.7042 49.0834 44.7643 49.0837C44.8493 49.0847 44.9312 49.0523 44.9921 48.9937C45.016 48.9634 45.04 48.9307 45.0616 48.8981C48.4361 44.2856 51.0886 43.6522 52.8835 43.2349L53.0987 43.1854C54.0303 42.9604 57.5723 42.9772 60.1291 44.9719C62.1244 46.5277 63.138 49.0039 63.138 52.3305C63.138 57.9116 60.3899 60.093 58.0837 60.9435C54.5121 62.2631 51.0863 60.4935 51.0613 60.4856L50.9075 60.4125C48.9452 59.571 46.0171 57.825 43.2565 52.344C37.6861 41.3089 33.0338 40.275 29.9554 39.5809L29.7902 39.5449C28.3883 39.231 23.5195 39.0082 19.6928 42.0255C17.693 43.6005 15.3115 46.665 15.3115 52.3091C15.3115 55.7471 16.0268 58.0185 17.8649 60.4091C18.2681 60.9536 22.3875 66.1815 30.3517 64.6729C31.6261 64.4321 33.3538 63.8314 35.2489 62.4229L37.0017 63.9844C37.058 64.0336 37.1315 64.0592 37.2066 64.0556C37.2817 64.0521 37.3525 64.0196 37.4037 63.9652C37.4511 63.9141 37.4764 63.8467 37.4743 63.7774V63.7537L38.7385 56.07V55.9845C38.7381 55.9458 38.7295 55.9077 38.7135 55.8725C38.6974 55.8372 38.6741 55.8057 38.6451 55.7797C38.5946 55.7339 38.528 55.7093 38.4595 55.7111H38.4048L38.3228 55.7201L30.8722 57.78L30.7367 57.8025C30.6812 57.8132 30.631 57.8422 30.5943 57.8846C30.5688 57.9119 30.5491 57.944 30.5363 57.9789C30.5235 58.0138 30.5179 58.0509 30.5198 58.088C30.5217 58.1251 30.5311 58.1614 30.5474 58.1949C30.5637 58.2284 30.5866 58.2583 30.6148 58.2829L30.7025 58.3627L32.3721 59.8522C31.2936 60.5419 30.354 60.858 29.6388 60.9952C23.876 62.0809 21.031 58.3537 20.9228 58.2075L20.8853 58.1625C19.5459 56.4266 19.0938 54.9506 19.0938 52.3125C19.0938 48.9757 20.0892 46.4974 22.0549 44.9494C24.5468 42.9851 27.984 42.9739 28.9543 43.1921L29.1217 43.2292C31.6443 43.7917 35.102 44.5657 39.8626 54.0135C42.3362 58.9185 45.4329 62.1259 49.3313 63.8167C51.182 64.7018 53.2099 65.1661 55.266 65.1757C56.6768 65.1801 58.077 64.9347 59.4002 64.4512C61.6598 63.6187 66.9169 60.7725 66.9169 52.3339C66.9169 46.6942 64.499 43.6241 62.4752 42.0412" fill="white"/>
</g>
<defs>
<clipPath id="clip0_1676_15466">
<rect width="82" height="81" fill="white" transform="translate(0.5)"/>
</clipPath>
</defs>
</svg>
