<svg width="82" height="81" viewBox="0 0 82 81" fill="none" xmlns="http://www.w3.org/2000/svg">
<g clip-path="url(#clip0_1676_15470)">
<path d="M-0.121094 -0.121582H82.1249V81.1214H-0.121094V-0.121582Z" fill="#C5192D"/>
<path d="M10.7902 18.802H6.02734V16.507L10.1125 6.94451H13.5782V16.5644H15.1077V18.802H13.5782V22.4358H10.7902V18.802ZM10.7902 16.5644V9.98538L8.3894 16.5644H10.7902ZM21.5265 6.93326H24.0434V7.69376H22.6107V9.39701H23.7359V10.1508H22.6107V12.1173H24.0537V12.8564H21.5265V6.93326ZM24.6539 6.93326H26.0672C27.5261 6.93326 27.9703 7.51038 27.9703 8.77601V10.9326C27.9703 12.2343 27.5148 12.8564 26.1116 12.8564H24.6539V6.93326ZM26.082 12.1026C26.8303 12.1026 26.8599 11.7078 26.8599 10.9698V8.70288C26.8599 7.99301 26.7859 7.70051 26.0627 7.70051H25.7404V12.1026H26.082ZM28.7015 10.9405V6.93326H29.7675V11.0643C29.7675 11.6268 29.8335 12.1319 30.3893 12.1319C30.9451 12.1319 31.018 11.6279 31.018 11.0643V6.93326H32.0771V10.9405C32.0771 12.178 31.7286 12.9363 30.3893 12.9363C29.05 12.9363 28.7015 12.1836 28.7015 10.9405ZM32.8015 10.9619V8.84913C32.8015 7.63526 33.1887 6.86238 34.5098 6.86238C35.7387 6.86238 36.1316 7.53738 36.1316 8.56676V9.06401H35.0793V8.55663C35.0793 8.05938 35.0713 7.65663 34.5166 7.65663C33.962 7.65663 33.9016 8.08076 33.9016 8.62188V11.1891C33.9016 11.8326 34.0349 12.1398 34.5166 12.1398C35.0565 12.1398 35.0793 11.7224 35.0793 11.1959V10.6626H36.1305V11.1374C36.1305 12.1836 35.7751 12.9374 34.5087 12.9374C33.1887 12.9374 32.8015 12.1173 32.8015 10.9619ZM37.7488 6.93326H38.9185L40.1177 12.8564H39.1041L38.8672 11.4884H37.8228L37.5848 12.8564H36.5598L37.7488 6.93326ZM38.7488 10.7999L38.341 8.31363L37.9345 10.7999H38.7488ZM42.8237 9.06851V8.55663C42.8237 8.05938 42.8169 7.65663 42.2611 7.65663C41.7053 7.65663 41.6472 8.08076 41.6472 8.62188V11.1891C41.6472 11.8326 41.7805 12.1398 42.2611 12.1398C42.8021 12.1398 42.8237 11.7224 42.8237 11.1959V10.6626H43.8749V11.1374C43.8749 12.1398 43.5492 12.8778 42.4023 12.9374V13.303C42.9501 13.303 43.3203 13.5449 43.3203 13.9983C43.3203 14.5169 42.8533 14.7363 42.3135 14.7363C42.1329 14.7345 41.9535 14.7076 41.7805 14.6564V14.1951C41.9099 14.2349 42.0447 14.2547 42.1802 14.2536C42.4388 14.2536 42.6358 14.1805 42.6358 13.9836C42.6358 13.7204 42.3328 13.6248 41.9843 13.5888V12.9228C40.8887 12.8103 40.5482 12.0306 40.5482 10.963V8.84913C40.5459 7.63526 40.94 6.86238 42.2543 6.86238C43.4831 6.86238 43.8749 7.53738 43.8749 8.56676V9.06401L42.8237 9.06851ZM45.5001 6.93326H46.6697L47.869 12.8564H46.8542L46.6173 11.4884H45.5741L45.3293 12.8564H44.3043L45.5001 6.93326ZM45.7279 5.80826C45.5354 5.80826 45.4693 5.92076 45.4693 6.10863H44.9511C44.9511 5.58213 45.0992 5.18726 45.5798 5.18726C45.9431 5.18726 46.1868 5.52476 46.5057 5.52476C46.6754 5.52476 46.7426 5.42238 46.7426 5.23226H47.2312C47.2312 5.69238 47.1492 6.15363 46.6686 6.15363C46.2848 6.15813 46.0331 5.81388 45.729 5.81388L45.7279 5.80826ZM46.4989 10.7999L46.0923 8.31363L45.6846 10.7999H46.4989ZM48.2756 10.999V8.77488C48.2756 7.57563 48.7197 6.86238 50.0078 6.86238C51.2959 6.86238 51.7332 7.57226 51.7332 8.77488V10.999C51.7332 12.1904 51.2891 12.9363 50.0078 12.9363C48.7266 12.9363 48.2756 12.1983 48.2756 10.999ZM50.6228 11.2499V8.52738C50.6228 8.03013 50.5408 7.65663 50.0078 7.65663C49.4748 7.65663 49.386 8.03013 49.386 8.52738V11.2499C49.386 11.7404 49.468 12.1353 50.0078 12.1353C50.5476 12.1353 50.6228 11.7449 50.6228 11.2499ZM21.5265 16.6083H22.941C24.3988 16.6083 24.8429 17.1854 24.8429 18.451V20.6076C24.8429 21.9093 24.3874 22.5314 22.9854 22.5314H21.5265V16.6083ZM22.9558 21.7833C23.7029 21.7833 23.7325 21.3884 23.7325 20.6504V18.3779C23.7325 17.668 23.6585 17.3755 22.9353 17.3755H22.6096V21.7776L22.9558 21.7833ZM25.6083 16.6083H28.1252V17.3688H26.697V19.072H27.8223V19.8258H26.697V21.7923H28.14V22.5314H25.6083V16.6083ZM32.2639 22.6045C32.2221 22.6103 32.1798 22.6126 32.1375 22.6113C30.8426 22.6124 30.4098 21.8733 30.4098 20.674V18.4499C30.4098 17.2506 30.854 16.5374 32.1421 16.5374C33.4301 16.5374 33.8675 17.2473 33.8675 18.4499V20.6729C33.8675 21.5211 33.6397 22.15 33.0384 22.4279C33.2095 22.6453 33.4112 22.8373 33.6374 22.9983L33.4301 23.7149C33.0634 23.5473 32.56 23.0433 32.2639 22.6045ZM32.7593 20.9249V18.2024C32.7593 17.7051 32.6705 17.3316 32.1375 17.3316C31.6045 17.3316 31.5157 17.7051 31.5157 18.2024V20.9249C31.5157 21.4154 31.5977 21.8103 32.1375 21.8103C32.6773 21.8103 32.7593 21.4199 32.7593 20.9249ZM34.5952 20.6155V16.6083H35.6612V20.7393C35.6612 21.3018 35.7284 21.8069 36.2831 21.8069C36.8377 21.8069 36.9129 21.3029 36.9129 20.7393V16.6083H37.9709V20.6155C37.9709 21.8586 37.6235 22.6113 36.2831 22.6113C34.9426 22.6113 34.5952 21.8586 34.5952 20.6155ZM39.6587 16.6083H40.8284L42.0265 22.5314H41.0129L40.7737 21.1634H39.7293L39.4856 22.5314H38.4606L39.6587 16.6083ZM40.6598 20.4749L40.2521 17.9886L39.8444 20.4749H40.6598ZM42.5959 16.6083H43.6847V21.7923H45.1425V22.5314H42.5959V16.6083ZM45.6994 16.6083H46.7802V22.5314H45.6994V16.6083ZM47.6685 16.6083H49.0876C50.5454 16.6083 50.9895 17.1854 50.9895 18.451V20.6076C50.9895 21.9093 50.534 22.5314 49.132 22.5314H47.6685V16.6083ZM49.0978 21.7833C49.845 21.7833 49.8746 21.3884 49.8746 20.6504V18.3779C49.8746 17.668 49.8005 17.3755 49.0773 17.3755H48.7573V21.7776L49.0978 21.7833ZM52.6068 16.6083H53.7764L54.9756 22.5314H53.9609L53.724 21.1634H52.6796L52.4359 22.5314H51.4109L52.6068 16.6083ZM53.6056 20.4749L53.199 17.9886L52.7913 20.4749H53.6056ZM55.5371 16.6083H56.9516C58.4105 16.6083 58.8547 17.1854 58.8547 18.451V20.6076C58.8547 21.9093 58.3991 22.5314 56.996 22.5314H55.5371V16.6083ZM56.9664 21.7833C57.7135 21.7833 57.7431 21.3884 57.7431 20.6504V18.3779C57.7431 17.668 57.6703 17.3755 56.9516 17.3755H56.6259V21.7776L56.9664 21.7833ZM59.6235 16.6083H62.1404V17.3688H60.7122V19.072H61.8431V19.8258H60.7179V21.7923H62.1609V22.5314H59.6235V16.6083ZM36.3275 43.453L21.5083 35.0009V62.344L36.3275 66.7596V43.453ZM37.9572 43.5093V66.7698L52.8721 62.3406V35.002L37.9572 43.5093ZM60.9981 61.8591L62.752 67.9116L64.5036 61.8591V37.5321H60.9981V61.8591Z" fill="white"/>
<path d="M56.0524 36.1753L54.4648 34.9355V63.0853L37.9987 68.3402H36.3257L19.9336 63.8165V34.9355L18.3438 36.1753V64.9179L36.2505 69.815H38.0739L54.5934 64.6333L56.0524 64.2092V36.1753ZM64.5029 34.3123C64.5089 34.0811 64.4679 33.8511 64.3825 33.6359C64.2971 33.4206 64.1689 33.2244 64.0055 33.0588C63.8421 32.8932 63.6468 32.7616 63.4311 32.6718C63.2154 32.5819 62.9837 32.5356 62.7496 32.5356C62.5155 32.5356 62.2838 32.5819 62.0681 32.6718C61.8524 32.7616 61.6571 32.8932 61.4937 33.0588C61.3303 33.2244 61.2021 33.4206 61.1167 33.6359C61.0313 33.8511 60.9903 34.0811 60.9963 34.3123V36.1798H64.5029V34.3123Z" fill="white"/>
</g>
<defs>
<clipPath id="clip0_1676_15470">
<rect width="82" height="81" fill="white"/>
</clipPath>
</defs>
</svg>
