<svg width="83" height="79" viewBox="0 0 83 79" fill="none" xmlns="http://www.w3.org/2000/svg">
<g clip-path="url(#clip0_1676_15457)">
<path d="M0.378906 -0.118408H82.6249V79.1186H0.378906V-0.118408Z" fill="#DD1367"/>
<path d="M6.20666 9.75763C5.73743 10.0001 4.40607 10.3545 3.94141 10.5784V8.43328C4.56096 8.1908 6.2841 7.38873 6.86493 6.77319H9.20763V21.8819H6.20666V9.75763ZM9.80782 17.775V11.0074C9.80782 8.35867 11.105 6.56801 14.0092 6.56801C16.8746 6.56801 18.1912 8.35867 18.1912 11.0074V17.775C18.1912 20.3305 16.7585 22.1398 14.0092 22.1398C11.2041 22.1431 9.80782 20.3524 9.80782 17.775ZM15.1515 17.7191V11.0633C15.1515 10.2613 15.074 9.10478 14.0126 9.10478C12.909 9.10478 12.8509 10.2613 12.8509 11.0633V17.7224C12.8509 18.4685 12.9865 19.6063 14.0126 19.6063C15.016 19.6063 15.1515 18.4685 15.1515 17.7224V17.7191ZM26.6622 6.76222H28.1063C29.3056 6.76222 29.9867 7.13308 29.9867 8.29833C29.9867 8.99067 29.809 9.47565 29.2464 9.69619L30.0823 12.5424H28.9867L28.2692 9.89588H27.751V12.5424H26.6622V6.76222ZM28.0984 9.23645C28.7282 9.23645 28.9571 8.97312 28.9571 8.35209C28.9571 7.76727 28.7874 7.48199 28.1599 7.48199H27.7533V9.23755L28.0984 9.23645ZM30.6233 6.76222H33.1402V7.50394H31.7109V9.16513H32.8362V9.90027H31.7109V11.8182H33.155V12.5391H30.6233V6.76222ZM33.5981 6.76222H35.0126C36.4715 6.76222 36.9157 7.32509 36.9157 8.55947V10.6628C36.9157 11.9323 36.4601 12.5391 35.057 12.5391H33.5981V6.76222ZM35.0274 11.804C35.7745 11.804 35.8052 11.4188 35.8052 10.699V8.48815C35.8052 7.7958 35.7312 7.51052 35.008 7.51052H34.6823V11.804H35.0274ZM37.4851 10.6705V6.76222H38.5511V10.7912C38.5511 11.3398 38.6172 11.8325 39.1729 11.8325C39.7287 11.8325 39.8027 11.3409 39.8027 10.7912V6.76222H40.8608V10.6705C40.8608 11.8775 40.5191 12.617 39.1729 12.617C37.8268 12.617 37.4851 11.883 37.4851 10.6705ZM43.7103 8.84474V8.34551C43.7103 7.86053 43.7034 7.46773 43.1477 7.46773C42.5919 7.46773 42.5338 7.88138 42.5338 8.40915V10.913C42.5338 11.5406 42.667 11.8402 43.1477 11.8402C43.6886 11.8402 43.7103 11.4331 43.7103 10.9196V10.3995H44.7626V10.8625C44.7626 11.8402 44.4357 12.5599 43.2889 12.6181V12.9747C43.8367 12.9747 44.2068 13.2106 44.2068 13.6528C44.2068 14.1586 43.7399 14.3725 43.2 14.3725C43.0195 14.3708 42.84 14.3446 42.667 14.2946V13.8448C42.7964 13.8836 42.9313 13.9028 43.0668 13.9018C43.3253 13.9018 43.5223 13.8305 43.5223 13.6385C43.5223 13.3818 43.2194 13.2885 42.8709 13.2534V12.6038C41.7753 12.4941 41.4348 11.7337 41.4348 10.6925V8.63078C41.4348 7.44688 41.8277 6.69748 43.1431 6.69748C44.372 6.69748 44.7649 7.35581 44.7649 8.35977V8.84474H43.7103ZM46.2272 6.76222H47.3968L48.5972 12.5391H47.5825L47.3456 11.2049H46.3012L46.0541 12.5391H45.0291L46.2272 6.76222ZM46.455 5.66499C46.2625 5.66499 46.1953 5.77471 46.1953 5.95795H45.6771C45.6771 5.44445 45.8252 5.05933 46.3069 5.05933C46.6691 5.05933 46.914 5.38849 47.2317 5.38849C47.4025 5.38849 47.4686 5.28865 47.4686 5.10321H47.9572C47.9572 5.55198 47.8763 6.00184 47.3946 6.00184C47.0119 6.00623 46.7602 5.67048 46.4573 5.67048L46.455 5.66499ZM47.2271 10.5334L46.8194 8.10851L46.4128 10.5334H47.2271ZM48.8478 10.7276V8.55837C48.8478 7.38873 49.292 6.69309 50.58 6.69309C51.8681 6.69309 52.3055 7.38544 52.3055 8.55837V10.7276C52.3055 11.8895 51.8613 12.617 50.58 12.617C49.2988 12.617 48.8478 11.8972 48.8478 10.7276ZM51.195 10.9723V8.31698C51.195 7.83201 51.113 7.46773 50.58 7.46773C50.047 7.46773 49.9582 7.83201 49.9582 8.31698V10.9723C49.9582 11.4506 50.0402 11.8358 50.58 11.8358C51.1199 11.8358 51.195 11.455 51.195 10.9723ZM54.5263 6.76222H55.9397C57.3986 6.76222 57.8427 7.32509 57.8427 8.55947V10.6628C57.8427 11.9323 57.3872 12.5391 55.9841 12.5391H54.5263V6.76222ZM55.9545 11.804C56.7027 11.804 56.7323 11.4188 56.7323 10.699V8.48815C56.7323 7.7958 56.6583 7.51052 55.9351 7.51052H55.6094V11.804H55.9545ZM59.3085 6.76222H60.4781L61.6774 12.5391H60.6626L60.4257 11.2049H59.3791L59.1342 12.5391H58.1092L59.3085 6.76222ZM60.3073 10.5334L59.9007 8.10851L59.493 10.5334H60.3073ZM61.9063 10.856L62.847 10.6771C62.8766 11.3618 63.0463 11.804 63.5303 11.804C63.8777 11.804 64.0258 11.5757 64.0258 11.2619C64.0258 10.7627 63.7593 10.4851 63.3675 10.157L62.6124 9.52173C62.183 9.16513 61.9165 8.76574 61.9165 8.12387C61.9165 7.21098 62.5088 6.69748 63.4632 6.69748C64.5884 6.69748 64.9073 7.42494 64.9665 8.26651L64.0258 8.42341C64.0041 7.88138 63.9221 7.47541 63.4415 7.47541C63.1158 7.47541 62.9381 7.71021 62.9381 8.01744C62.9381 8.40915 63.1078 8.6231 63.4267 8.88753L64.1738 9.52173C64.6624 9.9288 65.0701 10.4346 65.0701 11.1983C65.0701 12.0322 64.4631 12.617 63.5668 12.617C62.4689 12.6181 61.9507 12.0036 61.9063 10.856ZM26.6622 16.1983H28.0767C29.5345 16.1983 29.9787 16.7612 29.9787 17.9956V20.099C29.9787 21.3684 29.5231 21.9752 28.1212 21.9752H26.6622V16.1983ZM28.0915 21.2455C28.8387 21.2455 28.8683 20.8604 28.8683 20.1406V17.9243C28.8683 17.2319 28.7942 16.9466 28.0767 16.9466H27.751V21.2401L28.0915 21.2455ZM30.5937 16.1983H33.1106V16.94H31.6813V18.6012H32.8065V19.3364H31.6813V21.2543H33.1254V21.9752H30.5937V16.1983ZM33.4215 20.2921L34.3611 20.1132C34.3907 20.7979 34.5604 21.2401 35.0445 21.2401C35.393 21.2401 35.541 21.0118 35.541 20.698C35.541 20.1988 35.2745 19.9212 34.8816 19.5931L34.1265 18.9578C33.6972 18.6012 33.4307 18.2019 33.4307 17.56C33.4307 16.6471 34.0229 16.1336 34.9784 16.1336C36.1036 16.1336 36.4214 16.861 36.4806 17.7026L35.541 17.8595C35.5182 17.3175 35.4374 16.9115 34.9556 16.9115C34.6299 16.9115 34.4522 17.1463 34.4522 17.4535C34.4522 17.8453 34.6231 18.0592 34.9408 18.3236L35.6891 18.9578C36.1777 19.3649 36.5842 19.8707 36.5842 20.6344C36.5842 21.4683 35.9772 22.0531 35.082 22.0531C33.9819 22.0542 33.4648 21.4398 33.4215 20.2921ZM37.0626 16.1983H38.1434V21.9752H37.0626V16.1983ZM38.78 20.0704V18.1305C38.78 16.8896 39.1729 16.1336 40.4883 16.1336C41.7172 16.1336 42.1466 16.7469 42.1466 17.8167V18.1163H41.1022V17.7871C41.1022 17.2308 41.043 16.9027 40.5032 16.9027C39.9257 16.9027 39.8813 17.3526 39.8813 17.8804V20.2943C39.8813 20.8933 39.9952 21.2719 40.5328 21.2719C41.0703 21.2719 41.1922 20.8725 41.1922 20.2449V19.7029H40.5476V19.039H42.1819V21.9708H41.4712L41.3972 21.4068C41.2343 21.7777 40.9416 22.0487 40.3824 22.0487C39.1946 22.0542 38.78 21.2861 38.78 20.0704ZM42.7775 20.1066V16.1983H43.8435V20.2273C43.8435 20.7759 43.9107 21.2686 44.4653 21.2686C45.02 21.2686 45.0951 20.777 45.0951 20.2273V16.1983H46.1532V20.1066C46.1532 21.3191 45.8058 22.0531 44.4653 22.0531C43.1249 22.0531 42.7775 21.3191 42.7775 20.1066ZM47.6861 16.1983H48.8558L50.055 21.9752H49.0403L48.8034 20.641H47.7624L47.5176 21.9752H46.4926L47.6861 16.1983ZM48.6849 19.9695L48.2783 17.5446L47.8763 19.9695H48.6849ZM50.4616 16.1983H51.5504V21.2543H53.0082V21.9752H50.4616V16.1983ZM53.3863 16.1983H54.7996C56.2585 16.1983 56.7027 16.7612 56.7027 17.9956V20.099C56.7027 21.3684 56.2472 21.9752 54.844 21.9752H53.3863V16.1983ZM54.8144 21.2455C55.5627 21.2455 55.5923 20.8604 55.5923 20.1406V17.9243C55.5923 17.2319 55.5183 16.9466 54.7951 16.9466H54.4693V21.2401L54.8144 21.2455ZM58.1685 16.1983H59.3381L60.5373 21.9752H59.5226L59.2857 20.641H58.2402L57.9953 21.9752H56.9703L58.1685 16.1983ZM59.1673 19.9695L58.7607 17.5446L58.3541 19.9695H59.1673ZM60.9439 16.1983H62.3584C63.8162 16.1983 64.2604 16.7612 64.2604 17.9956V20.099C64.2604 21.3684 63.8048 21.9752 62.4028 21.9752H60.9439V16.1983ZM62.3732 21.2455C63.1203 21.2455 63.15 20.8604 63.15 20.1406V17.9243C63.15 17.2319 63.0759 16.9466 62.3527 16.9466H62.0327V21.2401L62.3732 21.2455ZM64.8742 16.1983H67.3923V16.94H65.963V18.6012H67.0882V19.3364H65.963V21.2543H67.4071V21.9752H64.8742V16.1983ZM67.7021 20.2921L68.6428 20.1132C68.6724 20.7979 68.8421 21.2401 69.3262 21.2401C69.6678 21.2401 69.8216 21.0118 69.8216 20.698C69.8216 20.1988 69.5551 19.9212 69.1633 19.5931L68.4082 18.9578C67.9789 18.6012 67.7123 18.2019 67.7123 17.56C67.7123 16.6471 68.3046 16.1336 69.259 16.1336C70.3853 16.1336 70.7031 16.861 70.7623 17.7026L69.8216 17.8595C69.7999 17.3175 69.7179 16.9115 69.2373 16.9115C68.9116 16.9115 68.7339 17.1463 68.7339 17.4535C68.7339 17.8453 68.9036 18.0592 69.2225 18.3236L69.9696 18.9578C70.4594 19.3649 70.8659 19.8707 70.8659 20.6344C70.8659 21.4683 70.2589 22.0531 69.3626 22.0531C68.2624 22.0542 67.7465 21.4398 67.7021 20.2921ZM49.1291 51.8767H33.9819C33.9358 51.8792 33.8927 51.8993 33.862 51.9324C33.8313 51.9655 33.8154 52.009 33.8179 52.0534V56.4422C33.816 56.4862 33.8321 56.5292 33.8628 56.5618C33.8935 56.5944 33.9363 56.6141 33.9819 56.6167H49.1291C49.1522 56.6156 49.1749 56.6101 49.1958 56.6004C49.2168 56.5908 49.2355 56.5773 49.2509 56.5607C49.2664 56.5441 49.2783 56.5246 49.2859 56.5036C49.2935 56.4825 49.2968 56.4601 49.2954 56.4379V52.049C49.2963 52.0051 49.2795 51.9625 49.2485 51.9304C49.2174 51.8982 49.1746 51.879 49.1291 51.8767ZM49.1291 42.5448H33.9819C33.9358 42.5474 33.8927 42.5674 33.862 42.6005C33.8313 42.6336 33.8154 42.6771 33.8179 42.7215V47.1104C33.8162 47.1326 33.8191 47.1549 33.8264 47.1761C33.8338 47.1972 33.8454 47.2167 33.8607 47.2335C33.876 47.2502 33.8946 47.2639 33.9154 47.2736C33.9362 47.2834 33.9588 47.2891 33.9819 47.2903H49.1291C49.1522 47.2892 49.1749 47.2837 49.1958 47.274C49.2168 47.2644 49.2355 47.2509 49.2509 47.2343C49.2664 47.2177 49.2783 47.1982 49.2859 47.1772C49.2935 47.1561 49.2968 47.1338 49.2954 47.1115V42.7226C49.2975 42.6779 49.2813 42.6343 49.2501 42.6012C49.2189 42.5681 49.1754 42.5482 49.1291 42.5459M48.9173 35.9154L41.6466 28.9107C41.635 28.8995 41.6211 28.8905 41.6059 28.8844C41.5906 28.8783 41.5743 28.8752 41.5578 28.8752C41.5413 28.8752 41.5249 28.8783 41.5097 28.8844C41.4944 28.8905 41.4806 28.8995 41.4689 28.9107L34.1983 35.9154C34.1806 35.9323 34.1686 35.9538 34.1638 35.9773C34.1589 36.0008 34.1614 36.0251 34.1709 36.0472C34.1804 36.0694 34.1965 36.0882 34.2172 36.1015C34.2379 36.1148 34.2622 36.1218 34.2871 36.1217H48.8284C48.8533 36.1218 48.8776 36.1148 48.8983 36.1015C48.919 36.0882 48.9351 36.0694 48.9446 36.0472C48.9542 36.0251 48.9566 36.0008 48.9518 35.9773C48.9469 35.9538 48.9349 35.9323 48.9173 35.9154ZM55.7426 56.6716L63.0133 49.6669C63.025 49.6557 63.0343 49.6423 63.0406 49.6277C63.047 49.613 63.0502 49.5972 63.0502 49.5813C63.0502 49.5654 63.047 49.5497 63.0406 49.535C63.0343 49.5203 63.025 49.5069 63.0133 49.4957L55.7426 42.4911C55.725 42.4742 55.7025 42.4628 55.6782 42.4582C55.6538 42.4536 55.6285 42.456 55.6056 42.4651C55.5826 42.4743 55.5629 42.4897 55.549 42.5095C55.5351 42.5294 55.5276 42.5527 55.5274 42.5766V56.586C55.5276 56.6099 55.5351 56.6333 55.549 56.6531C55.5629 56.6729 55.5826 56.6884 55.6056 56.6975C55.6285 56.7066 55.6538 56.709 55.6782 56.7044C55.7025 56.6998 55.725 56.6884 55.7426 56.6716ZM34.1983 63.2472L41.4689 70.2508C41.4805 70.2622 41.4943 70.2713 41.5096 70.2775C41.5248 70.2837 41.5412 70.2868 41.5578 70.2868C41.5743 70.2868 41.5907 70.2837 41.606 70.2775C41.6212 70.2713 41.635 70.2622 41.6466 70.2508L48.9173 63.2472C48.9347 63.2302 48.9466 63.2086 48.9514 63.1851C48.9562 63.1616 48.9537 63.1373 48.9442 63.1152C48.9347 63.093 48.9187 63.0741 48.8981 63.0607C48.8775 63.0473 48.8533 63.04 48.8284 63.0398H34.2871C34.2623 63.04 34.238 63.0473 34.2174 63.0607C34.1969 63.0741 34.1808 63.093 34.1713 63.1152C34.1619 63.1373 34.1594 63.1616 34.1642 63.1851C34.1689 63.2086 34.1808 63.2302 34.1983 63.2472ZM27.3763 42.4911L20.1022 49.4957C20.0905 49.5069 20.0812 49.5203 20.0749 49.535C20.0686 49.5497 20.0653 49.5654 20.0653 49.5813C20.0653 49.5972 20.0686 49.613 20.0749 49.6277C20.0812 49.6423 20.0905 49.6557 20.1022 49.6669L27.3763 56.6716C27.3938 56.6885 27.4162 56.7001 27.4406 56.7048C27.4649 56.7095 27.4902 56.7071 27.5132 56.6979C27.5361 56.6888 27.5557 56.6732 27.5695 56.6533C27.5832 56.6334 27.5905 56.6099 27.5904 56.586V42.5723C27.5897 42.5487 27.5817 42.5259 27.5676 42.5066C27.5535 42.4873 27.5339 42.4724 27.5111 42.4638C27.4883 42.4552 27.4634 42.4531 27.4395 42.458C27.4155 42.4628 27.3936 42.4743 27.3763 42.4911Z" fill="white"/>
</g>
<defs>
<clipPath id="clip0_1676_15457">
<rect width="82" height="79" fill="white" transform="translate(0.5)"/>
</clipPath>
</defs>
</svg>
