<svg width="288" height="193" viewBox="0 0 288 193" fill="none" xmlns="http://www.w3.org/2000/svg">
<g clip-path="url(#clip0_1220_11)">
<path d="M284.281 127.471C284.281 127.471 281.952 126.092 279.475 131.632C276.997 137.172 276.108 140.341 276.108 140.341C276.108 140.341 275.437 141.506 274.624 140.805C273.812 140.103 272.645 138.059 271.346 138.502C270.047 138.946 269.625 140.518 269.995 142.748C270.365 144.978 271.005 149.913 271.061 150.356C271.117 150.8 270.896 151.453 270.256 151.066C269.617 150.679 265.929 146.941 264.268 148.804C262.607 150.667 264.67 156.727 264.871 157.392C265.072 158.057 264.968 158.352 264.654 158.537C264.34 158.723 263.218 157.348 262.124 156.328C261.03 155.308 259.578 154.312 258.71 155.473C257.841 156.634 257.773 161.255 262.518 168.524L264.931 171.75L268.953 171.323C277.504 169.891 280.846 166.702 281.104 165.275C281.361 163.847 279.652 163.452 278.164 163.339C276.675 163.226 274.902 163.339 274.825 162.972C274.749 162.606 274.886 162.331 275.517 162.037C276.149 161.743 281.984 159.146 282.222 156.658C282.459 154.171 277.214 153.977 276.502 153.78C275.791 153.582 276.124 152.973 276.502 152.711C276.881 152.449 280.927 149.578 282.801 148.336C284.675 147.095 285.576 145.764 284.997 144.458C284.418 143.151 282.149 143.732 281.083 143.607C280.018 143.482 280.42 142.2 280.42 142.2C280.42 142.2 282.141 139.397 284.522 133.813C286.903 128.229 284.241 127.443 284.241 127.443" fill="#EBEBEB"/>
<path d="M264.342 172.504C266.103 168.412 269.361 161.186 272.124 154.969C274.887 148.752 277.381 143.127 279.162 139.043L281.27 134.204C281.519 133.64 281.712 133.196 281.845 132.89L281.998 132.547L282.054 132.434L282.01 132.555C281.974 132.636 281.93 132.753 281.869 132.898C281.741 133.209 281.556 133.652 281.314 134.225C280.836 135.374 280.128 137.047 279.243 139.063C277.481 143.159 275 148.796 272.237 155.009C269.474 161.223 266.204 168.444 264.422 172.528" fill="#E0E0E0"/>
<path d="M272.863 141.43C272.911 141.516 272.95 141.606 272.98 141.7C273.044 141.873 273.137 142.131 273.241 142.446C273.455 143.083 273.728 143.966 274.014 144.95C274.299 145.933 274.54 146.796 274.729 147.466L274.955 148.228C274.989 148.319 275.012 148.413 275.023 148.51C274.975 148.426 274.936 148.336 274.906 148.244C274.842 148.066 274.75 147.812 274.645 147.494C274.44 146.853 274.178 145.966 273.893 144.986C273.607 144.006 273.354 143.143 273.157 142.474C273.068 142.172 272.992 141.918 272.932 141.716C272.898 141.624 272.875 141.527 272.863 141.43Z" fill="#E0E0E0"/>
<path d="M275.396 148.562C275.396 148.53 277.178 147.885 279.418 147.123C281.659 146.361 283.44 145.768 283.464 145.8C283.489 145.833 281.683 146.478 279.443 147.24C277.202 148.002 275.409 148.594 275.396 148.562Z" fill="#E0E0E0"/>
<path d="M270.723 157.916C270.82 157.895 270.92 157.886 271.02 157.888L271.825 157.852C272.508 157.82 273.433 157.771 274.483 157.679C275.533 157.586 276.454 157.473 277.13 157.384L277.934 157.283C278.032 157.264 278.132 157.256 278.232 157.259C278.138 157.293 278.041 157.317 277.942 157.332C277.757 157.368 277.483 157.421 277.138 157.473C276.466 157.586 275.529 157.711 274.491 157.804C273.454 157.896 272.508 157.929 271.825 157.941C271.483 157.941 271.205 157.941 271.02 157.941C270.92 157.943 270.821 157.935 270.723 157.916Z" fill="#E0E0E0"/>
<path d="M267.016 151.969C267.08 152.035 267.136 152.108 267.185 152.187L267.607 152.808C267.957 153.332 268.435 154.062 268.954 154.872C269.473 155.683 269.94 156.425 270.269 156.961C270.422 157.215 270.551 157.429 270.672 157.602C270.723 157.677 270.765 157.758 270.796 157.844C270.732 157.777 270.676 157.704 270.627 157.626L270.225 157.009C269.875 156.485 269.397 155.751 268.878 154.941C268.359 154.13 267.892 153.393 267.559 152.856C267.41 152.602 267.277 152.389 267.156 152.215C267.101 152.138 267.054 152.056 267.016 151.969Z" fill="#E0E0E0"/>
<path d="M261.838 159.703C261.916 159.791 261.988 159.885 262.051 159.985L262.59 160.791C263.044 161.461 263.664 162.404 264.339 163.424C265.015 164.444 265.622 165.4 266.057 166.081L266.568 166.888C266.634 166.984 266.691 167.087 266.737 167.194C266.66 167.105 266.59 167.011 266.527 166.912C266.383 166.706 266.202 166.44 265.984 166.105C265.53 165.436 264.911 164.493 264.235 163.472C263.559 162.452 262.952 161.497 262.518 160.815L262.011 160.009C261.943 159.913 261.885 159.811 261.838 159.703Z" fill="#E0E0E0"/>
<path d="M266.666 166.972C266.798 166.944 266.933 166.928 267.068 166.924L268.09 166.839C268.95 166.767 270.141 166.666 271.452 166.513C272.763 166.36 273.946 166.194 274.802 166.065L275.816 165.916C275.939 165.893 276.064 165.88 276.19 165.876C276.071 165.916 275.948 165.945 275.824 165.964C275.587 166.013 275.241 166.081 274.814 166.154C273.962 166.303 272.779 166.485 271.464 166.638C270.149 166.791 268.958 166.88 268.094 166.928C267.663 166.952 267.314 166.968 267.068 166.972C266.935 166.99 266.8 166.99 266.666 166.972Z" fill="#E0E0E0"/>
<path d="M49.9164 58.1975C49.9164 58.1975 47.3947 59.1813 50.2141 64.5559C53.0334 69.9306 54.9679 72.5755 54.9679 72.5755C54.9679 72.5755 55.4707 73.8255 54.421 74.0351C53.3712 74.2448 51.0426 73.898 50.5881 75.1963C50.1336 76.4946 51.0908 77.8171 53.1018 78.8977C55.1127 79.9783 59.3478 82.5265 59.7299 82.7523C60.1119 82.9781 60.49 83.5587 59.7942 83.8167C59.0984 84.0748 53.87 84.6715 54.3083 87.1471C54.7467 89.6228 60.7675 91.7275 61.419 91.9855C62.0706 92.2435 62.2234 92.5056 62.1832 92.8645C62.143 93.2233 60.3613 93.2677 58.8853 93.4975C57.4092 93.7273 55.7401 94.2595 56.1101 95.6627C56.4802 97.0658 60.0677 99.9688 68.7027 100.715L72.7246 100.795L74.8723 97.3642C79.0229 89.7357 78.5845 85.1311 77.6273 84.0586C76.6701 82.9861 75.3026 84.0788 74.2931 85.1836C73.2836 86.2883 72.2822 87.7479 71.9444 87.6027C71.6065 87.4576 71.4778 87.1592 71.6387 86.4778C71.7996 85.7964 73.3641 79.5952 71.5542 77.8695C69.7444 76.1439 66.362 80.1678 65.7627 80.6073C65.1634 81.0467 64.898 80.4057 64.9141 79.9621C64.9302 79.5186 65.1755 74.5512 65.3686 72.3014C65.5616 70.0515 65.0629 68.5274 63.6834 68.1767C62.3039 67.8259 61.3547 69.9709 60.5986 70.737C59.8425 71.503 59.0823 70.3902 59.0823 70.3902C59.0823 70.3902 57.9482 67.3017 55.0323 61.9795C52.1164 56.6573 49.8843 58.2217 49.8843 58.2217" fill="#EBEBEB"/>
<path d="M72.9473 101.727C70.8238 97.8077 67.1638 90.7799 63.9906 84.7642C60.8173 78.7485 57.9577 73.3053 55.8382 69.3782L53.3406 64.7293L52.6609 63.4632L52.4879 63.1326C52.4477 63.056 52.4316 63.0157 52.4316 63.0157L52.5 63.1246L52.685 63.4511L53.3808 64.7051C53.9881 65.7937 54.8528 67.3743 55.9146 69.3338C58.0382 73.2529 60.9299 78.692 64.0992 84.7037C67.2684 90.7154 70.9364 97.7552 73.0278 101.682" fill="#E0E0E0"/>
<path d="M53.8223 75.8212C53.9188 75.8332 54.0134 75.8576 54.1038 75.8937L54.8559 76.1478C55.4833 76.3735 56.348 76.7042 57.2932 77.0872L59.7063 78.071L60.4423 78.3653C60.5341 78.398 60.6229 78.4384 60.7078 78.4863C60.6117 78.4718 60.5174 78.4474 60.4262 78.4137C60.2452 78.3573 59.9878 78.2686 59.6741 78.1557C59.0467 77.9259 58.19 77.5831 57.261 77.2001L54.8479 76.2324L54.1118 75.9421C54.0113 75.9121 53.9143 75.8716 53.8223 75.8212Z" fill="#E0E0E0"/>
<path d="M60.9837 78.2203C60.9515 78.2203 61.5548 76.3978 62.331 74.1883C63.1072 71.9788 63.7588 70.1563 63.7909 70.1765C63.8231 70.1967 63.2238 72.003 62.4476 74.2085C61.6714 76.414 61.0158 78.2203 60.9837 78.2203Z" fill="#E0E0E0"/>
<path d="M65.4375 87.6834C65.4846 87.596 65.5384 87.5124 65.5984 87.4334L66.0689 86.7721C66.4711 86.2157 67.006 85.4456 67.5731 84.5707C68.1402 83.6957 68.6309 82.8893 68.9768 82.3047C69.1417 82.0265 69.2784 81.7926 69.379 81.6072C69.4256 81.5199 69.4808 81.4375 69.5439 81.3612C69.5138 81.4555 69.4734 81.5461 69.4232 81.6314C69.3347 81.8047 69.206 82.0346 69.021 82.349C68.6912 82.9458 68.2166 83.7643 67.6455 84.6392C67.0744 85.5141 66.5194 86.2802 66.1092 86.8245C65.9 87.0987 65.7271 87.3164 65.6064 87.4616C65.5588 87.5418 65.5022 87.6162 65.4375 87.6834Z" fill="#E0E0E0"/>
<path d="M58.4844 86.9374C58.5766 86.927 58.6697 86.927 58.7619 86.9374L59.5059 86.9898C60.1333 87.0382 61.0021 87.1107 61.9593 87.2035C62.9165 87.2962 63.7852 87.3809 64.4086 87.4535L65.1527 87.5422C65.2439 87.5489 65.3342 87.5652 65.4221 87.5906C65.3313 87.6009 65.2395 87.6009 65.1487 87.5906L64.4006 87.5381C63.7732 87.4938 62.9044 87.4172 61.9472 87.3285C60.99 87.2398 60.1253 87.147 59.4979 87.0785L58.7579 86.9858C58.665 86.9817 58.573 86.9655 58.4844 86.9374Z" fill="#E0E0E0"/>
<path d="M61.3594 95.7877C61.4772 95.778 61.5955 95.778 61.7133 95.7877L62.6665 95.8481C63.4709 95.9046 64.5849 95.9893 65.8156 96.0941C67.0463 96.1989 68.1564 96.2997 68.9608 96.3804L69.9099 96.4812C70.028 96.4874 70.1451 96.505 70.2598 96.5336C70.1421 96.545 70.0236 96.545 69.9059 96.5336L68.9527 96.4731C68.1483 96.4166 67.0343 96.3279 65.8036 96.2231C64.5729 96.1183 63.4628 96.0175 62.6625 95.9409L61.7093 95.8401C61.5913 95.8328 61.4743 95.8153 61.3594 95.7877Z" fill="#E0E0E0"/>
<path d="M70.0527 96.4651C70.1088 96.3519 70.1748 96.244 70.2498 96.1425L70.8129 95.2837C71.2875 94.5579 71.943 93.558 72.6308 92.429C73.3185 91.3001 73.9218 90.2639 74.3481 89.5099C74.5573 89.151 74.7262 88.8486 74.8589 88.6188C74.9152 88.5071 74.9812 88.4005 75.056 88.3003C75.0139 88.419 74.9614 88.5337 74.8991 88.643C74.7945 88.8607 74.6337 89.1712 74.4286 89.5542C74.0264 90.3203 73.4311 91.3646 72.7394 92.4935C72.0476 93.6225 71.38 94.6224 70.8853 95.3159C70.6359 95.6748 70.4348 95.957 70.29 96.1546C70.2207 96.2652 70.1413 96.3692 70.0527 96.4651Z" fill="#E0E0E0"/>
<path d="M25.9316 88.1067C26.9765 87.314 28.1221 86.6645 29.3382 86.1754L29.7042 82.5466L35.6646 81.8128L36.8712 85.236C38.1704 85.4157 39.4403 85.7668 40.6477 86.2802L43.4631 83.978L48.1968 87.6834L46.6685 90.9775C47.4593 92.0264 48.1071 93.1762 48.595 94.3966L52.2147 94.7595L52.9507 100.735L49.5361 101.969C49.3575 103.27 49.0072 104.542 48.4945 105.751L50.7869 108.573L47.0707 113.299L43.7848 111.746C42.7416 112.542 41.5957 113.193 40.3783 113.682L40.0163 117.31L34.0559 118.048L32.8252 114.621C31.5271 114.442 30.2585 114.091 29.0526 113.577L26.2373 115.879L21.4995 112.174L23.0479 108.884C22.2545 107.837 21.6052 106.688 21.1174 105.468L17.4977 105.102L16.7617 99.1261L20.1803 97.8964C20.3589 96.5937 20.7092 95.3206 21.222 94.1103L18.9255 91.288L22.6216 86.5423L25.9035 88.0906L25.9316 88.1067ZM29.9535 95.7473C29.1728 96.7539 28.7071 97.9699 28.6153 99.2417C28.5235 100.513 28.8097 101.784 29.4377 102.893C30.0658 104.002 31.0075 104.899 32.144 105.472C33.2804 106.044 34.5607 106.266 35.823 106.11C37.0853 105.953 38.273 105.425 39.2362 104.593C40.1994 103.76 40.8948 102.66 41.2346 101.431C41.5745 100.202 41.5434 98.9 41.1455 97.6889C40.7475 96.4778 40.0005 95.4122 38.9988 94.6264C38.3319 94.1034 37.5687 93.7174 36.7528 93.4907C35.9369 93.2639 35.0844 93.2008 34.2441 93.3049C33.4038 93.409 32.5923 93.6784 31.856 94.0975C31.1198 94.5166 30.4733 95.0773 29.9535 95.7473Z" fill="#EBEBEB"/>
<path d="M197.723 20.1799C198.53 19.6895 199.398 19.3085 200.305 19.047L200.844 16.4665L205.188 16.3939L205.831 18.9502C206.751 19.1783 207.637 19.5281 208.465 19.9904L210.665 18.547L213.79 21.575L212.431 23.8249C212.926 24.6385 213.312 25.5144 213.577 26.4295L216.147 26.9698L216.224 31.3243L213.674 31.9533C213.446 32.8759 213.097 33.764 212.636 34.5943L214.076 36.7998L211.039 39.9165L208.795 38.5537C207.982 39.0449 207.107 39.4246 206.193 39.6826L205.658 42.2631L201.31 42.3397L200.707 39.7955C199.785 39.5706 198.898 39.2221 198.069 38.7593L195.873 40.2028L192.744 37.1747L194.107 34.9209C193.615 34.1076 193.235 33.2315 192.977 32.3162L190.407 31.78L190.311 27.4174L192.86 26.7924C193.088 25.8686 193.437 24.9791 193.898 24.1474L192.458 21.946L195.479 18.8131L197.723 20.1799ZM200.04 25.986C199.4 26.6512 198.971 27.4916 198.808 28.401C198.645 29.3103 198.754 30.2478 199.122 31.0949C199.49 31.942 200.1 32.6607 200.876 33.1602C201.651 33.6598 202.557 33.9177 203.478 33.9013C204.4 33.885 205.296 33.5952 206.053 33.0685C206.81 32.5418 207.395 31.8019 207.733 30.9423C208.07 30.0826 208.147 29.1419 207.951 28.2389C207.756 27.3359 207.298 26.5112 206.635 25.8691C206.195 25.4422 205.675 25.1065 205.105 24.8813C204.535 24.6561 203.926 24.5458 203.313 24.5567C202.701 24.5675 202.096 24.6993 201.534 24.9446C200.973 25.1899 200.465 25.5437 200.04 25.986Z" fill="#F5F5F5"/>
<path d="M251.415 58.895C251.926 58.5849 252.477 58.3449 253.052 58.1813L253.39 56.5685L256.133 56.5201L256.535 58.1329C257.115 58.279 257.673 58.4999 258.196 58.7901L259.583 57.8789L261.554 59.7901L260.693 61.2093C261.003 61.722 261.242 62.2739 261.405 62.8504L263.014 63.189L263.062 65.9388L261.454 66.342C261.309 66.9235 261.088 67.4833 260.798 68.0073L261.707 69.3983L259.829 71.3659L258.413 70.5071C257.9 70.8139 257.35 71.0537 256.776 71.2207L256.438 72.8335L253.695 72.8819L253.293 71.2691C252.713 71.1256 252.154 70.9046 251.632 70.6119L250.245 71.5231L248.274 69.612L249.135 68.1927C248.824 67.6804 248.585 67.1284 248.423 66.5517L246.814 66.213L246.766 63.4672L248.374 63.0641C248.52 62.4829 248.74 61.9231 249.03 61.3988L248.121 60.0118L250.027 58.0321L251.443 58.895H251.415ZM252.875 62.556C252.472 62.9758 252.201 63.506 252.099 64.0797C251.996 64.6534 252.065 65.2447 252.298 65.7789C252.53 66.3132 252.915 66.7664 253.404 67.0812C253.894 67.396 254.465 67.5583 255.046 67.5476C255.628 67.5369 256.193 67.3536 256.67 67.021C257.148 66.6884 257.516 66.2214 257.729 65.6789C257.941 65.1365 257.989 64.543 257.865 63.9735C257.741 63.404 257.452 62.8841 257.034 62.4794C256.756 62.2106 256.427 61.9993 256.068 61.8576C255.708 61.716 255.325 61.6467 254.938 61.6538C254.552 61.6609 254.171 61.7443 253.817 61.8991C253.463 62.0539 253.143 62.2771 252.875 62.556Z" fill="#F5F5F5"/>
<path d="M21.8044 46.4765C22.7997 45.8728 23.871 45.4049 24.9898 45.0855L25.6454 41.9325L30.9824 41.8317L31.7506 44.9685C32.8749 45.2477 33.957 45.6762 34.9681 46.2427L37.6628 44.4726L41.4997 48.1861L39.8306 50.948C40.4345 51.9449 40.9012 53.0191 41.2181 54.1413L44.3713 54.7985L44.4638 60.1449L41.3348 60.911C41.0563 62.0381 40.6289 63.1229 40.0638 64.1366L41.8295 66.838L38.1253 70.6845L35.3743 69.0112C34.3771 69.6131 33.3046 70.0795 32.185 70.3982L31.5294 73.5593L26.2004 73.6521L25.4322 70.5152C24.3075 70.2371 23.2253 69.8085 22.2147 69.2411L19.52 71.0111L15.6751 67.3339L17.3442 64.5761C16.7409 63.5774 16.2743 62.502 15.9566 61.3787L12.8034 60.7215L12.7109 55.3791L15.84 54.609C16.1191 53.4821 16.5465 52.3974 17.1109 51.3834L15.3453 48.682L19.0494 44.8395L21.8044 46.5128V46.4765ZM24.6439 53.5929C23.8577 54.4085 23.3304 55.4394 23.1288 56.5554C22.9271 57.6714 23.0602 58.8223 23.5111 59.8625C23.9619 60.9026 24.7104 61.7854 25.6618 62.3991C26.6132 63.0127 27.7248 63.3297 28.8559 63.31C29.987 63.2902 31.0869 62.9346 32.0164 62.2881C32.9459 61.6416 33.6633 60.7333 34.0778 59.678C34.4923 58.6227 34.5853 57.4679 34.345 56.3596C34.1047 55.2514 33.5419 54.2394 32.7279 53.4518C31.6365 52.3973 30.1723 51.82 28.6568 51.8464C27.1412 51.8729 25.698 52.501 24.6439 53.5929Z" fill="#F5F5F5"/>
<path d="M253.391 83.3369C254.203 82.8461 255.077 82.4651 255.989 82.2039L256.524 79.6275L260.872 79.5508L261.499 82.1071C262.419 82.3352 263.305 82.6851 264.133 83.1474L266.329 81.7039L269.458 84.7319L268.095 86.9818C268.588 87.796 268.968 88.6736 269.225 89.5905L271.799 90.1267L271.876 94.4813L269.322 95.1103C269.097 96.035 268.748 96.9249 268.284 97.7552L269.724 99.9567L266.707 103.09L264.459 101.727C263.647 102.218 262.773 102.598 261.861 102.86L261.326 105.436L256.979 105.513L256.355 102.956C255.434 102.728 254.546 102.379 253.717 101.916L251.521 103.36L248.392 100.332L249.755 98.0818C249.264 97.2668 248.884 96.3894 248.625 95.4731L246.051 94.9369L245.975 90.5823L248.529 89.9534C248.757 89.0297 249.106 88.1404 249.566 87.3084L248.126 85.1069L251.147 81.9741L253.391 83.3369ZM255.708 89.1429C255.068 89.8082 254.639 90.6486 254.476 91.5579C254.313 92.4672 254.422 93.4047 254.79 94.2518C255.158 95.0989 255.768 95.8177 256.544 96.3172C257.319 96.8167 258.225 97.0746 259.146 97.0582C260.068 97.0419 260.964 96.7521 261.721 96.2254C262.478 95.6987 263.063 94.9588 263.401 94.0992C263.738 93.2396 263.815 92.2988 263.619 91.3958C263.424 90.4928 262.966 89.6682 262.303 89.026C261.863 88.5992 261.343 88.2636 260.774 88.0385C260.204 87.8134 259.596 87.7031 258.983 87.7139C258.371 87.7248 257.767 87.8566 257.206 88.1018C256.644 88.347 256.136 88.7008 255.712 89.1429H255.708Z" fill="#EBEBEB"/>
<path d="M158.843 31.8204C160.092 31.0613 161.438 30.474 162.844 30.0745L163.669 26.103L170.365 25.9861L171.331 29.9253C172.75 30.2799 174.116 30.8223 175.393 31.5381L178.775 29.3165L183.601 33.9775L181.502 37.445C182.261 38.7041 182.847 40.0604 183.243 41.477L187.205 42.2833L187.322 48.9966L183.392 49.9602C183.04 51.3836 182.499 52.7532 181.783 54.0325L184 57.4275L179.35 62.2658L175.887 60.1652C174.637 60.9228 173.291 61.5086 171.886 61.907L171.061 65.8825L164.365 65.9995L163.403 62.0562C161.984 61.7028 160.617 61.1604 159.341 60.4434L155.955 62.665L151.129 58.004L153.224 54.5365C152.468 53.2757 151.882 51.9199 151.482 50.5046L147.521 49.6982L147.404 42.9889L151.334 42.0213C151.686 40.598 152.227 39.2284 152.942 37.949L150.722 34.5581L155.376 29.7197L158.835 31.8244L158.843 31.8204ZM162.41 40.7593C161.423 41.7839 160.762 43.0787 160.509 44.4801C160.257 45.8816 160.424 47.3266 160.991 48.6325C161.558 49.9385 162.498 51.0467 163.692 51.817C164.887 52.5874 166.283 52.9854 167.703 52.9606C169.124 52.9358 170.505 52.4893 171.672 51.6777C172.839 50.8661 173.74 49.7257 174.261 48.4008C174.782 47.0759 174.899 45.6259 174.598 44.2341C174.297 42.8424 173.591 41.5714 172.569 40.5819C171.198 39.2554 169.358 38.5289 167.453 38.5622C165.548 38.5954 163.734 39.3857 162.41 40.7593Z" fill="#EBEBEB"/>
<path d="M285.379 172.569C285.379 172.625 221.511 172.674 142.746 172.674C63.9813 172.674 0.101562 172.625 0.101562 172.569C0.101562 172.512 63.9532 172.464 142.746 172.464C221.539 172.464 285.379 172.508 285.379 172.569Z" fill="#263238"/>
<path d="M219.787 48.4483H79.7605C78.6028 48.4472 77.492 48.907 76.6722 49.7265C75.8525 50.5461 75.3908 51.6584 75.3887 52.819V151.981C75.3881 152.557 75.5009 153.127 75.7204 153.659C75.9399 154.191 76.2619 154.675 76.668 155.082C77.074 155.489 77.5562 155.812 78.0868 156.032C78.6175 156.252 79.1862 156.365 79.7605 156.364H133.501C133.501 156.364 136.92 166.964 126.322 172.448H176.576C176.576 172.448 164.61 168.335 167.687 156.364H219.787C220.942 156.364 222.05 155.906 222.87 155.089C223.689 154.272 224.152 153.164 224.159 152.006V52.819C224.155 51.6587 223.693 50.547 222.874 49.7277C222.054 48.9084 220.944 48.4483 219.787 48.4483Z" fill="#455A64"/>
<path d="M151.64 145.958C153.542 148.687 150.562 151.675 147.839 149.768C147.747 149.703 147.668 149.623 147.606 149.53C145.707 146.804 148.683 143.817 151.406 145.724C151.497 145.788 151.575 145.867 151.64 145.958Z" fill="#263238"/>
<path d="M81.7001 50.2626H217.849C218.362 50.2626 218.869 50.3638 219.342 50.5603C219.815 50.7569 220.246 51.045 220.608 51.4081C220.97 51.7713 221.257 52.2025 221.453 52.677C221.65 53.1515 221.75 53.6601 221.75 54.1737V138.224H77.7988V54.1737C77.7988 53.6601 77.8997 53.1515 78.0958 52.677C78.2918 52.2025 78.5792 51.7713 78.9415 51.4081C79.3037 51.045 79.7338 50.7569 80.2071 50.5603C80.6804 50.3638 81.1878 50.2626 81.7001 50.2626Z" fill="white"/>
<path d="M81.4829 50.2626H218.726C219.528 50.2626 220.297 50.5821 220.865 51.1507C221.432 51.7193 221.75 52.4905 221.75 53.2947V57.5726H77.7988V53.9438C77.801 52.9661 78.1902 52.0292 78.881 51.3389C79.5717 50.6487 80.5076 50.2616 81.4829 50.2626Z" fill="#EBEBEB"/>
<path d="M82.3845 55.0848C82.942 55.0848 83.394 54.6317 83.394 54.0728C83.394 53.5139 82.942 53.0608 82.3845 53.0608C81.827 53.0608 81.375 53.5139 81.375 54.0728C81.375 54.6317 81.827 55.0848 82.3845 55.0848Z" fill="#E0E0E0"/>
<path d="M85.4001 55.085C85.9577 55.085 86.4096 54.6319 86.4096 54.073C86.4096 53.5141 85.9577 53.061 85.4001 53.061C84.8426 53.061 84.3906 53.5141 84.3906 54.073C84.3906 54.6319 84.8426 55.085 85.4001 55.085Z" fill="#E0E0E0"/>
<path d="M88.2634 55.0848C88.8209 55.0848 89.2729 54.6317 89.2729 54.0728C89.2729 53.5139 88.8209 53.0608 88.2634 53.0608C87.7059 53.0608 87.2539 53.5139 87.2539 54.0728C87.2539 54.6317 87.7059 55.0848 88.2634 55.0848Z" fill="#E0E0E0"/>
<path d="M194.755 156.38C194.755 156.425 174.826 156.465 150.252 156.465C125.679 156.465 105.746 156.425 105.746 156.38C105.746 156.336 125.671 156.296 150.252 156.296C174.834 156.296 194.755 156.332 194.755 156.38Z" fill="#263238"/>
<path d="M221.421 69.4026H77.8477V101.533H221.421V69.4026Z" fill="#F5F5F5"/>
<path d="M102.096 60.9394H81.375V66.3745H102.096V60.9394Z" fill="#F5F5F5"/>
<path d="M218.012 60.9395H206.666V66.3746H218.012V60.9395Z" fill="#F5F5F5"/>
<path d="M203.256 60.9394H184.691V66.3745H203.256V60.9394Z" fill="#F5F5F5"/>
<path d="M180.831 60.9395H162.266V66.3746H180.831V60.9395Z" fill="#F5F5F5"/>
<path d="M211.371 110.585H84.834V116.278H211.371V110.585Z" fill="#F5F5F5"/>
<path d="M211.371 121.181H84.834V126.874H211.371V121.181Z" fill="#F5F5F5"/>
<path d="M134.664 88.7238L138.151 85.2281L144.232 90.7842L154.955 80.051L158.192 83.5468L143.733 97.5297L134.664 88.7238Z" fill="#70BAE9"/>
<path d="M139.68 80.5227C138.799 79.7045 138.02 78.7825 137.359 77.7769C137.821 78.1634 138.236 78.6017 138.598 79.0833C139.01 79.5219 139.373 80.0046 139.68 80.5227Z" fill="#263238"/>
<path d="M144.356 80.0147C144.19 78.7185 144.095 77.4142 144.07 76.1077C143.978 74.8048 143.954 73.498 143.998 72.1926C144.161 73.489 144.255 74.7932 144.279 76.0996C144.374 77.4024 144.4 78.7092 144.356 80.0147Z" fill="#263238"/>
<path d="M151.583 77.6197C150.888 78.7234 150.08 79.7505 149.17 80.684C149.485 80.1067 149.863 79.5658 150.296 79.0712C150.674 78.5439 151.105 78.0574 151.583 77.6197Z" fill="#263238"/>
<path d="M247.83 78.3132H188.197C186.583 78.3132 185.273 79.6256 185.273 81.2445V169.585C185.273 171.204 186.583 172.516 188.197 172.516H247.83C249.445 172.516 250.754 171.204 250.754 169.585V81.2445C250.754 79.6256 249.445 78.3132 247.83 78.3132Z" fill="#E0E0E0"/>
<path d="M247.83 172.516H248.036C248.236 172.503 248.434 172.466 248.627 172.408C249.007 172.297 249.36 172.111 249.666 171.859C249.971 171.607 250.223 171.296 250.404 170.944C250.529 170.698 250.62 170.436 250.674 170.166C250.722 169.863 250.74 169.557 250.726 169.25C250.726 168.601 250.726 167.896 250.726 167.13C250.726 165.598 250.726 163.827 250.726 161.84C250.726 153.877 250.706 142.357 250.69 128.12C250.69 121.004 250.69 113.202 250.69 104.84C250.69 100.654 250.69 96.3308 250.69 91.8687C250.69 89.6377 250.69 87.3758 250.69 85.0829V81.6073C250.702 81.3216 250.687 81.0355 250.646 80.7526C250.599 80.4712 250.508 80.1991 250.376 79.9462C250.118 79.4344 249.711 79.0128 249.21 78.7366C248.957 78.6025 248.686 78.506 248.406 78.4503C248.12 78.4028 247.83 78.3839 247.541 78.3938H188.206C187.548 78.3973 186.91 78.6263 186.4 79.043C185.896 79.4653 185.554 80.0494 185.431 80.6961C185.381 81.0228 185.363 81.3537 185.378 81.6839V108.323C185.378 118.564 185.378 128.447 185.378 137.858C185.378 147.268 185.378 156.215 185.378 164.586C185.378 165.63 185.378 166.666 185.378 167.694V169.23C185.346 169.727 185.424 170.224 185.608 170.686C185.801 171.134 186.106 171.525 186.494 171.822C186.881 172.118 187.337 172.31 187.82 172.379C188.061 172.408 188.305 172.419 188.548 172.412H190.744H201.888L235.519 172.444L244.661 172.464L235.519 172.484L201.888 172.516H190.744H188.548C188.298 172.526 188.048 172.515 187.8 172.484C187.289 172.412 186.805 172.211 186.395 171.898C185.984 171.585 185.66 171.172 185.455 170.698C185.262 170.214 185.178 169.694 185.209 169.174V164.61C185.209 156.239 185.209 147.292 185.209 137.882C185.209 128.471 185.209 118.589 185.209 108.347C185.209 103.227 185.209 98.0188 185.209 92.7235V81.7081C185.193 81.3644 185.211 81.0198 185.266 80.68C185.396 79.9839 185.766 79.3556 186.31 78.9042C186.855 78.4527 187.54 78.2065 188.246 78.2084H247.517C247.818 78.1992 248.12 78.2181 248.418 78.2648C248.715 78.3288 249.001 78.4333 249.27 78.5753C249.804 78.8687 250.238 79.3152 250.517 79.8575C250.654 80.1261 250.749 80.4144 250.799 80.7122C250.842 81.0057 250.858 81.3027 250.847 81.5993V91.8445C250.847 96.3012 250.847 100.625 250.847 104.815C250.847 113.182 250.847 120.98 250.847 128.096C250.847 142.333 250.823 153.852 250.815 161.816C250.815 163.803 250.815 165.573 250.815 167.105C250.815 167.872 250.815 168.577 250.815 169.226C250.826 169.535 250.805 169.845 250.754 170.15C250.65 170.682 250.399 171.175 250.031 171.573C249.663 171.971 249.192 172.258 248.671 172.404C248.475 172.458 248.274 172.492 248.072 172.504L247.83 172.516Z" fill="#263238"/>
<path d="M247.828 172.516H248.033C248.101 172.516 248.182 172.516 248.282 172.484C248.398 172.467 248.512 172.442 248.624 172.408C249.005 172.299 249.36 172.113 249.667 171.861C249.973 171.61 250.225 171.297 250.406 170.944C250.533 170.699 250.625 170.437 250.679 170.166C250.727 169.862 250.746 169.554 250.736 169.247C250.736 168.601 250.736 167.892 250.736 167.126C250.736 165.594 250.736 163.83 250.736 161.836C250.736 153.873 250.736 142.353 250.736 128.116C250.736 121 250.736 113.198 250.736 104.836C250.736 100.65 250.736 96.3268 250.736 91.8648V81.6074C250.746 81.3203 250.73 81.0328 250.687 80.7486C250.641 80.4672 250.55 80.1951 250.418 79.9422C250.152 79.432 249.742 79.0114 249.239 78.7326C248.985 78.6004 248.715 78.5028 248.435 78.4423C248.148 78.3949 247.857 78.376 247.566 78.3859H188.203C187.536 78.3854 186.89 78.6183 186.376 79.0445C185.862 79.4707 185.512 80.0634 185.388 80.7204C185.34 81.05 185.322 81.3834 185.336 81.7163V108.356C185.336 118.597 185.336 128.479 185.336 137.89C185.336 147.3 185.336 156.247 185.336 164.618C185.336 165.663 185.336 166.7 185.336 167.726V169.263C185.329 169.515 185.341 169.767 185.372 170.017C185.407 170.262 185.473 170.502 185.569 170.73C185.764 171.183 186.073 171.578 186.464 171.878C186.856 172.177 187.317 172.371 187.805 172.44C188.048 172.469 188.293 172.48 188.537 172.472H201.878L235.509 172.496L201.878 172.521H188.525C188.276 172.528 188.028 172.517 187.781 172.488C187.275 172.416 186.797 172.216 186.391 171.906C185.984 171.596 185.664 171.187 185.46 170.718C185.36 170.481 185.291 170.232 185.255 169.976C185.221 169.721 185.209 169.463 185.219 169.206V164.61C185.219 156.239 185.219 147.296 185.219 137.882C185.219 128.467 185.219 118.589 185.219 108.348V81.7082C185.202 81.3673 185.22 81.0255 185.271 80.6881C185.401 80.001 185.766 79.3809 186.304 78.9354C186.841 78.4899 187.518 78.247 188.215 78.2488H247.514C247.813 78.2394 248.112 78.2583 248.407 78.3052C248.701 78.3685 248.985 78.4716 249.252 78.6117C249.778 78.9019 250.206 79.3426 250.482 79.8777C250.618 80.1428 250.713 80.4269 250.764 80.7204C250.808 81.0125 250.824 81.3082 250.812 81.6034C250.812 82.7646 250.812 83.9177 250.812 85.0628V91.8486C250.812 96.3053 250.812 100.629 250.812 104.82C250.812 113.186 250.812 120.984 250.812 128.1C250.812 142.337 250.812 153.856 250.812 161.82C250.812 163.811 250.812 165.575 250.812 167.11C250.812 167.876 250.812 168.585 250.812 169.23C250.823 169.539 250.803 169.849 250.752 170.154C250.604 170.889 250.183 171.541 249.573 171.976C249.299 172.169 248.995 172.314 248.672 172.404C248.559 172.438 248.444 172.464 248.326 172.48C248.244 172.495 248.161 172.503 248.077 172.504L247.828 172.516Z" fill="#263238"/>
<path d="M220.523 167.783C220.523 168.281 220.376 168.769 220.1 169.183C219.824 169.597 219.431 169.92 218.972 170.111C218.512 170.302 218.007 170.352 217.519 170.254C217.032 170.157 216.584 169.917 216.232 169.565C215.881 169.212 215.641 168.763 215.544 168.275C215.447 167.786 215.497 167.279 215.687 166.819C215.878 166.358 216.2 165.965 216.613 165.688C217.027 165.411 217.513 165.263 218.01 165.263C218.676 165.263 219.316 165.528 219.787 166.001C220.259 166.474 220.523 167.115 220.523 167.783Z" fill="white"/>
<path d="M226.192 82.8411H212.82C212.697 82.8411 212.576 82.8169 212.463 82.7698C212.35 82.7228 212.248 82.6538 212.161 82.5669C212.075 82.48 212.007 82.3768 211.96 82.2634C211.914 82.1499 211.89 82.0283 211.891 81.9057C211.89 81.783 211.914 81.6615 211.96 81.548C212.007 81.4346 212.075 81.3314 212.161 81.2445C212.248 81.1576 212.35 81.0886 212.463 81.0416C212.576 80.9945 212.697 80.9703 212.82 80.9703H226.192C226.315 80.9703 226.436 80.9945 226.55 81.0415C226.663 81.0885 226.766 81.1574 226.852 81.2443C226.939 81.3311 227.008 81.4342 227.055 81.5477C227.101 81.6612 227.126 81.7829 227.126 81.9057C227.126 82.0285 227.101 82.1502 227.055 82.2637C227.008 82.3772 226.939 82.4803 226.852 82.5671C226.766 82.654 226.663 82.7229 226.55 82.7699C226.436 82.8169 226.315 82.8411 226.192 82.8411Z" fill="#EBEBEB"/>
<path d="M247.652 85.0345H188.257C187.717 85.0345 187.279 85.4732 187.279 86.0143V162.727C187.279 163.268 187.717 163.707 188.257 163.707H247.652C248.192 163.707 248.629 163.268 248.629 162.727V86.0143C248.629 85.4732 248.192 85.0345 247.652 85.0345Z" fill="white"/>
<path d="M247.656 163.698C247.656 163.698 247.716 163.698 247.833 163.674C248.008 163.638 248.171 163.556 248.304 163.436C248.411 163.337 248.495 163.215 248.549 163.079C248.603 162.943 248.627 162.796 248.617 162.65C248.617 162.299 248.617 161.888 248.617 161.441C248.617 159.582 248.617 156.844 248.597 153.324C248.597 146.268 248.597 136.067 248.565 123.463C248.565 117.157 248.565 110.255 248.565 102.844C248.565 99.1343 248.565 95.3053 248.565 91.3567V86.1151C248.581 85.8811 248.509 85.6496 248.364 85.4659C248.216 85.2872 248.003 85.1742 247.773 85.1514C247.535 85.1514 247.27 85.1514 247.017 85.1514H242.363H188.269C188.135 85.1508 188.002 85.181 187.882 85.2397C187.761 85.2984 187.655 85.3841 187.573 85.4901C187.492 85.5972 187.435 85.7212 187.408 85.853C187.389 85.9946 187.382 86.1376 187.388 86.2804V112.565C187.388 121.637 187.388 130.386 187.388 138.72C187.388 147.054 187.388 154.977 187.388 162.392V162.739C187.389 162.897 187.432 163.052 187.512 163.189C187.592 163.325 187.706 163.438 187.842 163.517C188.035 163.615 188.251 163.654 188.466 163.63H206.967L236.753 163.662H244.849H246.956H247.672L246.96 163.698H244.853L236.757 163.719L206.971 163.751H197.101H188.45C188.206 163.773 187.96 163.725 187.742 163.614C187.522 163.49 187.353 163.291 187.267 163.053C187.223 162.936 187.199 162.812 187.199 162.686V162.34C187.199 154.925 187.199 147.018 187.199 138.668C187.199 130.318 187.199 121.584 187.199 112.512V98.715C187.199 96.3711 187.199 94.0124 187.199 91.6389V86.2844C187.193 86.1281 187.202 85.9716 187.223 85.8167C187.255 85.6535 187.326 85.5001 187.428 85.3692C187.53 85.237 187.66 85.1301 187.809 85.0567C187.958 84.9833 188.123 84.9453 188.289 84.9458H242.383H247.013C247.274 84.9458 247.515 84.9458 247.789 84.9458C247.929 84.9624 248.064 85.0066 248.187 85.0758C248.31 85.145 248.418 85.2378 248.505 85.349C248.678 85.5651 248.766 85.8381 248.75 86.1151V91.3567C248.75 95.3053 248.75 99.1343 248.75 102.844C248.75 110.255 248.75 117.157 248.75 123.463C248.75 136.067 248.722 146.268 248.714 153.324C248.714 156.844 248.714 159.582 248.714 161.441C248.714 161.904 248.714 162.315 248.714 162.65C248.722 162.801 248.697 162.952 248.639 163.092C248.581 163.231 248.493 163.356 248.38 163.457C248.246 163.578 248.08 163.66 247.901 163.69C247.821 163.708 247.738 163.711 247.656 163.698Z" fill="#263238"/>
<path d="M248.381 96.2394H187.65V118.528H248.381V96.2394Z" fill="#F5F5F5"/>
<path d="M203.378 88.6956H189.004V92.4655H203.378V88.6956Z" fill="#F5F5F5"/>
<path d="M247.179 88.6956H234.301V92.4655H247.179V88.6956Z" fill="#F5F5F5"/>
<path d="M231.853 88.6955H218.975V92.4654H231.853V88.6955Z" fill="#F5F5F5"/>
<path d="M243.272 130.007H191.422V133.959H243.272V130.007Z" fill="#F5F5F5"/>
<path d="M243.272 122.536H191.422V126.487H243.272V122.536Z" fill="#F5F5F5"/>
<path d="M243.272 145.309H191.422V149.26H243.272V145.309Z" fill="#F5F5F5"/>
<path d="M243.272 137.837H191.422V141.789H243.272V137.837Z" fill="#F5F5F5"/>
<path d="M206.248 115.859L209.739 112.363L215.82 117.919L226.538 107.186L229.776 110.682L215.321 124.665L206.248 115.859Z" fill="#70BAE9"/>
<path d="M267.58 172.629H242.21C240.747 172.63 239.343 172.049 238.308 171.013C237.273 169.977 236.69 168.572 236.688 167.105V103.533C236.685 102.803 236.826 102.079 237.104 101.404C237.382 100.729 237.79 100.115 238.305 99.5985C238.82 99.0821 239.432 98.6729 240.106 98.3947C240.779 98.1164 241.501 97.9745 242.23 97.9771H267.6C268.324 97.9761 269.042 98.1182 269.711 98.3952C270.381 98.6723 270.99 99.079 271.503 99.5919C272.015 100.105 272.422 100.714 272.7 101.385C272.978 102.056 273.121 102.775 273.122 103.501V167.073C273.125 167.804 272.983 168.527 272.705 169.203C272.428 169.878 272.02 170.491 271.505 171.008C270.989 171.524 270.377 171.933 269.704 172.212C269.03 172.49 268.308 172.632 267.58 172.629Z" fill="#263238"/>
<path d="M267.757 99.9045L262.822 99.8803C262.66 99.8802 262.499 99.9128 262.35 99.9761C262.201 100.039 262.067 100.132 261.954 100.249C261.841 100.365 261.753 100.503 261.695 100.655C261.637 100.806 261.61 100.968 261.615 101.13V102.029C261.618 102.191 261.589 102.351 261.529 102.502C261.47 102.652 261.382 102.789 261.27 102.905C261.158 103.021 261.024 103.114 260.876 103.178C260.729 103.242 260.57 103.277 260.409 103.279L250.788 103.219C250.626 103.216 250.466 103.181 250.317 103.116C250.169 103.051 250.034 102.957 249.922 102.84C249.81 102.723 249.722 102.584 249.664 102.433C249.605 102.281 249.577 102.119 249.582 101.957V101.058C249.585 100.895 249.557 100.734 249.498 100.582C249.44 100.431 249.352 100.293 249.24 100.175C249.128 100.058 248.993 99.9643 248.845 99.8991C248.697 99.8339 248.537 99.7988 248.375 99.7956H246.638L242.318 99.7755C241.288 99.7723 240.299 100.179 239.567 100.906C238.836 101.633 238.422 102.622 238.417 103.654L238.188 166.118C238.185 166.629 238.284 167.135 238.477 167.608C238.67 168.081 238.954 168.511 239.313 168.874C239.672 169.236 240.098 169.525 240.569 169.722C241.039 169.92 241.543 170.023 242.053 170.025L267.471 170.15C268.501 170.154 269.49 169.748 270.221 169.022C270.953 168.295 271.367 167.307 271.372 166.275L271.634 103.828C271.638 103.314 271.541 102.805 271.348 102.33C271.155 101.854 270.87 101.422 270.51 101.057C270.149 100.692 269.721 100.403 269.248 100.205C268.775 100.007 268.269 99.905 267.757 99.9045Z" fill="white"/>
<path d="M271.437 111.021H238.377V123.153H271.437V111.021Z" fill="#F5F5F5"/>
<path d="M246.936 106.912H239.113V108.964H246.936V106.912Z" fill="#F5F5F5"/>
<path d="M270.782 106.912H263.771V108.964H270.782V106.912Z" fill="#F5F5F5"/>
<path d="M262.44 106.912H255.43V108.964H262.44V106.912Z" fill="#F5F5F5"/>
<path d="M268.653 129.402H240.428V131.551H268.653V129.402Z" fill="#F5F5F5"/>
<path d="M268.653 125.334H240.428V127.483H268.653V125.334Z" fill="#F5F5F5"/>
<path d="M268.653 137.732H240.428V139.882H268.653V137.732Z" fill="#F5F5F5"/>
<path d="M268.653 141.535H240.428V143.684H268.653V141.535Z" fill="#F5F5F5"/>
<path d="M268.653 145.885H240.428V148.034H268.653V145.885Z" fill="#F5F5F5"/>
<path d="M268.653 150.232H240.428V152.381H268.653V150.232Z" fill="#F5F5F5"/>
<path d="M268.653 154.582H240.428V156.731H268.653V154.582Z" fill="#F5F5F5"/>
<path d="M268.653 133.664H240.428V135.813H268.653V133.664Z" fill="#F5F5F5"/>
<path d="M245.955 137.499L248.682 134.765L253.947 139.454L264.283 129.483L266.817 132.221L253.556 144.732L245.955 137.499Z" fill="#70BAE9"/>
<path d="M111.662 98.0659H13.5201C10.2837 98.0659 7.66016 100.696 7.66016 103.941V165.025C7.66016 168.269 10.2837 170.9 13.5201 170.9H111.662C114.899 170.9 117.522 168.269 117.522 165.025V103.941C117.522 100.696 114.899 98.0659 111.662 98.0659Z" fill="#263238"/>
<path d="M3.36914 166.194H122.393V166.477C122.393 168.091 121.753 169.64 120.614 170.782C119.475 171.923 117.931 172.565 116.32 172.565H9.4422C7.83152 172.565 6.28682 171.923 5.1479 170.782C4.00898 169.64 3.36914 168.091 3.36914 166.477V166.194Z" fill="#263238"/>
<path d="M114.27 100.961H10.6133V162.469H114.27V100.961Z" fill="#263238"/>
<path d="M51.7617 165.513L53.2418 167.868H74.0229L75.3944 165.513H51.7617Z" fill="#455A64"/>
<path d="M111.029 103.041H14.0613C13.3349 103.041 12.7461 103.632 12.7461 104.36V160.949C12.7461 161.677 13.3349 162.267 14.0613 162.267H111.029C111.755 162.267 112.344 161.677 112.344 160.949V104.36C112.344 103.632 111.755 103.041 111.029 103.041Z" fill="#EBEBEB"/>
<path d="M112.239 162.356H12.6406L12.7452 107.469H112.239V162.356Z" fill="white"/>
<path d="M20.9271 105.332C20.9271 105.491 20.8799 105.647 20.7916 105.78C20.7032 105.912 20.5775 106.016 20.4306 106.077C20.2836 106.138 20.1218 106.154 19.9658 106.123C19.8098 106.091 19.6665 106.015 19.554 105.902C19.4415 105.789 19.3649 105.645 19.3338 105.489C19.3028 105.333 19.3187 105.17 19.3796 105.023C19.4405 104.876 19.5436 104.75 19.6759 104.661C19.8081 104.573 19.9636 104.525 20.1227 104.525C20.3361 104.525 20.5407 104.61 20.6915 104.761C20.8424 104.913 20.9271 105.118 20.9271 105.332Z" fill="#263238"/>
<path d="M16.1029 105.332C16.1029 105.491 16.0557 105.647 15.9673 105.78C15.879 105.912 15.7533 106.016 15.6063 106.077C15.4594 106.138 15.2976 106.154 15.1416 106.123C14.9856 106.091 14.8422 106.015 14.7297 105.902C14.6172 105.789 14.5406 105.645 14.5096 105.489C14.4786 105.333 14.4945 105.17 14.5554 105.023C14.6163 104.876 14.7194 104.75 14.8516 104.661C14.9839 104.573 15.1394 104.525 15.2985 104.525C15.5119 104.525 15.7165 104.61 15.8673 104.761C16.0182 104.913 16.1029 105.118 16.1029 105.332Z" fill="#263238"/>
<path d="M18.4076 105.331C18.4076 105.491 18.3604 105.647 18.272 105.779C18.1836 105.912 18.058 106.015 17.911 106.077C17.764 106.138 17.6023 106.154 17.4463 106.122C17.2902 106.091 17.1469 106.014 17.0344 105.902C16.9219 105.789 16.8453 105.645 16.8143 105.489C16.7832 105.332 16.7992 105.17 16.8601 105.023C16.9209 104.876 17.024 104.75 17.1563 104.661C17.2886 104.572 17.4441 104.525 17.6032 104.525C17.8165 104.525 18.0211 104.61 18.172 104.761C18.3228 104.913 18.4076 105.118 18.4076 105.331Z" fill="#263238"/>
<path d="M116.575 165.513C116.575 165.553 92.1945 165.585 62.1228 165.585C32.0511 165.585 7.6543 165.553 7.6543 165.513C7.6543 165.472 32.035 165.44 62.1188 165.44C92.2026 165.44 116.575 165.472 116.575 165.513Z" fill="#455A64"/>
<path d="M112.344 116.319H12.7461V138.608H112.344V116.319Z" fill="#F5F5F5"/>
<path d="M29.5637 110.448H15.1895V114.218H29.5637V110.448Z" fill="#F5F5F5"/>
<path d="M109.982 110.448H102.111V114.218H109.982V110.448Z" fill="#F5F5F5"/>
<path d="M99.7473 110.448H86.8691V114.218H99.7473V110.448Z" fill="#F5F5F5"/>
<path d="M84.1886 110.448H71.3105V114.218H84.1886V110.448Z" fill="#F5F5F5"/>
<path d="M105.391 151.76H17.6094V155.711H105.391V151.76Z" fill="#F5F5F5"/>
<path d="M105.391 144.284H17.6094V148.236H105.391V144.284Z" fill="#F5F5F5"/>
<path d="M49.9199 131.148L53.4109 127.653L60.1355 133.644L73.3394 120.907L76.577 124.403L59.6368 140.39L49.9199 131.148Z" fill="#70BAE9"/>
<path d="M90.6987 84.0023C106.183 84.0023 118.735 71.4184 118.735 55.8953C118.735 40.3723 106.183 27.7884 90.6987 27.7884C75.2145 27.7884 62.6621 40.3723 62.6621 55.8953C62.6621 71.4184 75.2145 84.0023 90.6987 84.0023Z" fill="#70BAE9"/>
<path opacity="0.3" d="M90.6987 84.0023C106.183 84.0023 118.735 71.4184 118.735 55.8953C118.735 40.3723 106.183 27.7884 90.6987 27.7884C75.2145 27.7884 62.6621 40.3723 62.6621 55.8953C62.6621 71.4184 75.2145 84.0023 90.6987 84.0023Z" fill="black"/>
<path d="M89.9409 82.2041C105.425 82.2041 117.978 69.6201 117.978 54.0971C117.978 38.5741 105.425 25.9902 89.9409 25.9902C74.4567 25.9902 61.9043 38.5741 61.9043 54.0971C61.9043 69.6201 74.4567 82.2041 89.9409 82.2041Z" fill="#70BAE9"/>
<path d="M98.4363 74.2435C109.531 69.5406 114.722 56.7116 110.031 45.589C105.34 34.4665 92.5429 29.2623 81.4481 33.9653C70.3534 38.6682 65.1623 51.4973 69.8535 62.6198C74.5446 73.7423 87.3416 78.9465 98.4363 74.2435Z" fill="white"/>
<path d="M100.791 64.9771C106.785 58.9685 106.785 49.2266 100.791 43.218C94.7979 37.2093 85.0803 37.2093 79.0867 43.218C73.0931 49.2266 73.0931 58.9685 79.0867 64.9771C85.0803 70.9857 94.7979 70.9857 100.791 64.9771Z" fill="#70BAE9"/>
<path d="M93.162 61.5464C97.2643 59.7632 99.1481 54.9838 97.3694 50.8712C95.5908 46.7585 90.8233 44.8701 86.7209 46.6532C82.6186 48.4363 80.7348 53.2157 82.5135 57.3284C84.2921 61.441 89.0596 63.3295 93.162 61.5464Z" fill="white"/>
<path d="M111.637 31.3325L110.873 25.3369L116.962 18.8011L117.401 25.2764L111.637 31.3325Z" fill="#455A64"/>
<path d="M124.703 26.5627L118.526 26.0587L112.336 32.03L118.53 32.6913L124.703 26.5627Z" fill="#455A64"/>
<path opacity="0.3" d="M89.9434 54.5688L112.961 38.0377C112.079 36.7565 111.103 35.5435 110.041 34.4089L90.3335 53.5205L89.9434 54.5688Z" fill="black"/>
<path d="M118.312 24.0225L115.441 26.9578L108.487 34.0057L100.133 42.4729C97.7203 44.9324 95.3004 47.3905 92.8739 49.8474C91.6995 51.0569 90.4608 52.202 89.3386 53.4358L89.2864 53.4882C88.6067 54.1817 89.6885 55.2502 90.3562 54.5567L93.2439 51.6214L100.182 44.5776L108.535 36.1104C110.948 33.6509 113.368 31.1927 115.795 28.7359C116.969 27.5263 118.208 26.3812 119.33 25.1434L119.378 25.095C120.062 24.4015 118.976 23.329 118.312 24.0225Z" fill="#263238"/>
<path d="M168.077 97.2715C167.599 97.299 167.128 97.1486 166.754 96.8494C166.38 96.5501 166.13 96.1229 166.05 95.6497C165.971 95.1766 166.069 94.6908 166.325 94.2854C166.581 93.8801 166.977 93.5837 167.438 93.4532C167.15 93.1367 166.97 92.7363 166.924 92.3103C166.878 91.8843 166.969 91.4548 167.183 91.0841C167.398 90.7134 167.724 90.4207 168.116 90.2486C168.507 90.0765 168.943 90.0338 169.36 90.1269C169.397 89.7091 169.541 89.308 169.778 88.9629C170.016 88.6179 170.339 88.3407 170.716 88.1585C171.093 87.9764 171.51 87.8955 171.928 87.9239C172.345 87.9523 172.748 88.089 173.096 88.3205C173.583 87.9585 174.178 87.7709 174.784 87.7877C175.39 87.8045 175.972 88.0248 176.439 88.4133C176.849 88.3563 177.266 88.4331 177.63 88.6322C177.993 88.8313 178.283 89.1423 178.456 89.5192C178.63 89.896 178.678 90.3189 178.593 90.7252C178.509 91.1316 178.296 91.5 177.987 91.7759" fill="#263238"/>
<path d="M167.783 97.5336C168.042 95.4724 169.066 93.5847 170.652 92.247C172.237 90.9093 174.268 90.2199 176.338 90.3163L176.764 90.3365C181.345 90.8203 183.497 94.9894 182.885 99.5697L181.506 114.891L181.144 118.5L170.731 117.266L170.928 113.359C170.928 113.359 166.544 112.464 166.697 108.033C166.77 105.896 167.276 101.501 167.783 97.5336Z" fill="#99655C"/>
<path d="M170.892 113.351C172.942 113.448 174.978 112.953 176.755 111.924C176.755 111.924 175.247 115.044 170.859 114.44L170.892 113.351Z" fill="#744A45"/>
<path d="M168.757 101.606C168.748 101.77 168.803 101.931 168.91 102.055C169.017 102.179 169.169 102.257 169.332 102.271C169.412 102.281 169.493 102.275 169.571 102.253C169.649 102.232 169.722 102.195 169.785 102.144C169.848 102.094 169.901 102.031 169.94 101.96C169.979 101.89 170.003 101.811 170.012 101.731C170.021 101.566 169.965 101.405 169.857 101.28C169.749 101.156 169.596 101.079 169.432 101.066C169.352 101.055 169.271 101.061 169.193 101.082C169.116 101.104 169.043 101.141 168.98 101.192C168.917 101.242 168.864 101.305 168.826 101.376C168.788 101.447 168.764 101.525 168.757 101.606Z" fill="#263238"/>
<path d="M168.632 99.7432C168.708 99.8279 169.199 99.4973 169.878 99.5295C170.558 99.5618 171.041 99.9327 171.117 99.848C171.194 99.7634 171.081 99.6585 170.872 99.4932C170.588 99.2745 170.244 99.1492 169.886 99.1344C169.533 99.1165 169.184 99.2126 168.889 99.4086C168.672 99.5577 168.595 99.7029 168.632 99.7432Z" fill="#263238"/>
<path d="M174.934 101.924C174.926 102.089 174.982 102.25 175.09 102.374C175.198 102.498 175.35 102.575 175.513 102.59C175.594 102.6 175.675 102.594 175.753 102.572C175.831 102.55 175.903 102.513 175.967 102.463C176.03 102.412 176.082 102.35 176.121 102.279C176.16 102.208 176.185 102.13 176.193 102.049C176.201 101.885 176.145 101.724 176.037 101.6C175.929 101.476 175.778 101.398 175.614 101.384C175.534 101.374 175.453 101.38 175.375 101.402C175.297 101.424 175.224 101.461 175.161 101.511C175.098 101.561 175.045 101.624 175.006 101.695C174.967 101.766 174.943 101.844 174.934 101.924Z" fill="#263238"/>
<path d="M175.296 100.183C175.372 100.267 175.867 99.9367 176.543 99.9689C177.218 100.001 177.705 100.372 177.781 100.287C177.858 100.203 177.745 100.098 177.536 99.9286C177.251 99.7129 176.907 99.5892 176.551 99.5738C176.197 99.5559 175.848 99.652 175.553 99.8479C175.336 99.9931 175.26 100.142 175.296 100.183Z" fill="#263238"/>
<path d="M172.598 105.11C172.246 104.983 171.88 104.899 171.508 104.86C171.335 104.836 171.17 104.791 171.146 104.674C171.141 104.493 171.19 104.315 171.287 104.162C171.472 103.759 171.661 103.32 171.862 102.864C172.666 101.013 173.249 99.4891 173.173 99.4569C173.096 99.4246 172.368 100.9 171.592 102.751L171.037 104.057C170.92 104.262 170.877 104.502 170.917 104.735C170.938 104.797 170.975 104.854 171.022 104.9C171.069 104.946 171.127 104.981 171.19 105.001C171.285 105.033 171.384 105.052 171.484 105.057C171.851 105.123 172.226 105.141 172.598 105.11Z" fill="#263238"/>
<path d="M175.151 98.0295C175.232 98.207 175.823 98.0295 176.539 98.0578C177.255 98.086 177.854 98.215 177.93 98.0578C177.962 97.9731 177.842 97.8158 177.588 97.6546C177.264 97.4721 176.898 97.3776 176.527 97.3804C176.158 97.3737 175.794 97.4671 175.473 97.6505C175.228 97.7876 175.115 97.9449 175.151 98.0295Z" fill="#263238"/>
<path d="M168.73 96.9368C168.866 97.0981 169.433 96.961 170.109 96.9852C170.785 97.0094 171.348 97.1505 171.485 96.9852C171.549 96.9086 171.485 96.7513 171.223 96.582C170.889 96.3821 170.507 96.2763 170.117 96.2756C169.73 96.2611 169.345 96.3501 169.003 96.5336C168.758 96.703 168.673 96.8562 168.73 96.9368Z" fill="#263238"/>
<path d="M168.305 95.5217C168.305 95.5217 169.6 92.8041 170.963 92.2195C172.616 91.5139 173.228 93.3202 174.784 92.9613C176.341 92.6025 177.921 91.9251 179.437 93.1912C181.094 94.5741 180.242 95.4531 180.262 97.4207C180.322 105.404 181.666 107.726 182.273 103.993C182.337 103.59 183.479 103.311 183.737 101.574C184.063 99.3319 184.276 96.6022 183.849 94.9814C183.487 93.6145 182.767 92.6509 181.436 91.5582C179.345 89.8406 176.369 89.6632 174.334 89.7761C172.299 89.889 168.285 92.0421 168.305 95.5217Z" fill="#263238"/>
<path d="M181.977 103.86C181.991 103.698 182.037 103.541 182.113 103.397C182.189 103.254 182.293 103.127 182.419 103.025C182.544 102.922 182.689 102.847 182.845 102.802C183.001 102.757 183.164 102.743 183.324 102.763C184.129 102.88 185.038 103.392 184.905 105.093C184.668 108.117 181.688 107.255 181.688 107.166C181.688 107.077 181.864 105.122 181.977 103.86Z" fill="#99655C"/>
<path d="M182.44 106.081C182.44 106.081 182.488 106.122 182.573 106.17C182.633 106.204 182.7 106.225 182.77 106.231C182.839 106.238 182.908 106.231 182.975 106.21C183.179 106.102 183.35 105.941 183.472 105.744C183.594 105.547 183.661 105.321 183.667 105.09C183.694 104.831 183.664 104.569 183.578 104.323C183.557 104.227 183.514 104.137 183.451 104.061C183.388 103.985 183.307 103.926 183.216 103.888C183.157 103.867 183.092 103.868 183.033 103.89C182.975 103.912 182.926 103.954 182.894 104.009C182.846 104.09 182.862 104.15 182.846 104.154C182.83 104.158 182.786 104.098 182.818 103.977C182.841 103.903 182.887 103.839 182.951 103.795C183.039 103.74 183.146 103.721 183.248 103.743C183.37 103.778 183.48 103.843 183.569 103.933C183.659 104.023 183.724 104.133 183.759 104.255C183.866 104.526 183.906 104.82 183.876 105.11C183.807 105.719 183.453 106.263 183.007 106.356C182.924 106.373 182.839 106.371 182.756 106.351C182.674 106.331 182.598 106.292 182.532 106.239C182.436 106.154 182.428 106.085 182.44 106.081Z" fill="#744A45"/>
<path d="M182.206 97.9773C181.821 98.2615 181.372 98.4445 180.899 98.5095C180.662 98.5339 180.425 98.4719 180.231 98.3348C180.036 98.1978 179.898 97.9949 179.841 97.7636C179.813 97.5499 179.877 97.308 179.748 97.1386C179.62 96.9693 179.286 96.9854 179.028 97.0015C178.586 97.0149 178.152 96.8751 177.799 96.6057C177.447 96.3363 177.198 95.9535 177.094 95.5218C176.952 95.6663 176.761 95.7519 176.559 95.7616C176.357 95.7713 176.159 95.7044 176.004 95.5742C175.703 95.3052 175.44 94.9959 175.224 94.6549C175.114 94.4841 174.965 94.3429 174.788 94.2437C174.611 94.1446 174.413 94.0906 174.21 94.0864C173.994 94.1475 173.771 94.1853 173.547 94.1993C173.144 94.1469 172.979 93.6711 172.939 93.272C172.899 92.8728 172.875 92.4131 172.537 92.1833C172.199 91.9535 171.825 92.0664 171.455 92.1027C171.085 92.139 170.623 92.0301 170.546 91.6713C170.534 91.5743 170.543 91.476 170.57 91.3824C170.598 91.2887 170.645 91.2018 170.707 91.1269C170.97 90.7733 171.343 90.5186 171.768 90.4037C172.193 90.2889 172.643 90.3207 173.048 90.4939C173.22 89.9973 173.536 89.5631 173.955 89.2461C174.373 88.9292 174.876 88.7436 175.4 88.713C175.924 88.6824 176.445 88.808 176.897 89.074C177.35 89.34 177.713 89.7345 177.942 90.2076C178.277 89.9288 178.675 89.7356 179.101 89.6446C179.527 89.5537 179.968 89.5677 180.387 89.6854C180.807 89.8032 181.191 90.0212 181.508 90.3207C181.825 90.6203 182.064 90.9924 182.206 91.4051C182.578 91.3304 182.965 91.3662 183.317 91.5082C183.67 91.6501 183.974 91.8921 184.191 92.2044C184.409 92.5167 184.531 92.8858 184.543 93.2667C184.554 93.6475 184.455 94.0234 184.257 94.3485C184.531 94.5011 184.762 94.721 184.928 94.9876C185.094 95.2542 185.19 95.5587 185.206 95.8726C185.206 96.5016 184.55 97.0822 183.955 96.9048C184.064 97.157 184.072 97.441 183.98 97.6995C183.888 97.958 183.701 98.1718 183.457 98.2976C183.214 98.4235 182.932 98.4521 182.668 98.3777C182.405 98.3033 182.179 98.1313 182.037 97.8966" fill="#263238"/>
<path d="M172.779 91.389C172.776 91.4077 172.776 91.4267 172.779 91.4454C172.774 91.4991 172.774 91.5531 172.779 91.6067C172.808 91.8136 172.872 92.0141 172.968 92.1994C173.122 92.4948 173.34 92.7513 173.608 92.9494C173.956 93.2111 174.379 93.3525 174.814 93.3525L174.766 93.28C174.662 93.5512 174.669 93.8527 174.786 94.1186C174.908 94.3981 175.07 94.6577 175.269 94.8887C175.363 95.0202 175.471 95.1418 175.59 95.2516C175.807 95.4106 176.072 95.4873 176.34 95.4681C176.607 95.4489 176.859 95.335 177.05 95.1468L176.938 95.1105C176.965 95.4266 177.059 95.7334 177.212 96.0112C177.365 96.2889 177.574 96.5315 177.827 96.7233C178.102 96.9491 178.444 97.0792 178.8 97.0942C179.137 97.0944 179.471 97.0372 179.789 96.9249L179.709 96.8846C179.847 97.2592 180.078 97.5924 180.38 97.8522C180.518 97.9819 180.682 98.0795 180.861 98.1381C181.041 98.1966 181.231 98.2147 181.418 98.1909C181.739 98.137 182.037 97.9903 182.275 97.769C182.514 97.5477 182.683 97.2613 182.761 96.945L182.689 96.9733C182.999 97.1576 183.363 97.2288 183.719 97.1749C183.985 97.14 184.239 97.0404 184.459 96.8846C184.597 96.7903 184.717 96.6714 184.813 96.5338C184.845 96.4853 184.874 96.4341 184.897 96.3806C184.768 96.5597 184.61 96.7164 184.431 96.8442C184.213 96.9844 183.967 97.0727 183.711 97.1023C183.372 97.1451 183.03 97.0727 182.737 96.8967L182.685 96.8604V96.9249C182.607 97.219 182.446 97.4842 182.221 97.6888C181.996 97.8933 181.718 98.0285 181.418 98.078C181.247 98.0991 181.074 98.0814 180.911 98.0263C180.748 97.9711 180.6 97.88 180.477 97.7595C180.194 97.5118 179.977 97.1972 179.846 96.8442V96.7838L179.785 96.8039C179.483 96.9099 179.165 96.9644 178.844 96.9652C178.513 96.9508 178.195 96.8291 177.939 96.6185C177.702 96.4367 177.505 96.2073 177.361 95.9449C177.216 95.6824 177.129 95.3928 177.103 95.0944V94.9492L177.002 95.0581C176.889 95.1697 176.75 95.2521 176.598 95.2985C176.446 95.3448 176.285 95.3536 176.129 95.3242C175.983 95.3011 175.845 95.2415 175.727 95.1508C175.614 95.0486 175.512 94.9351 175.421 94.8121C175.23 94.5899 175.072 94.3415 174.951 94.0743C174.841 93.8358 174.829 93.5633 174.919 93.3163L174.947 93.2437H174.87C174.45 93.2469 174.039 93.114 173.7 92.8647C173.44 92.6795 173.224 92.4385 173.069 92.1591C172.93 91.9205 172.832 91.6602 172.779 91.389Z" fill="#455A64"/>
<path d="M171.826 107.339C171.826 107.368 171.983 107.472 172.289 107.541C172.692 107.618 173.107 107.597 173.501 107.48C173.894 107.363 174.253 107.153 174.549 106.868C174.77 106.646 174.851 106.464 174.827 106.464C174.802 106.464 174.288 107.009 173.427 107.271C172.566 107.533 171.846 107.251 171.826 107.339Z" fill="#263238"/>
<path d="M161.875 156.884L188.616 157.251C188.616 157.251 196.097 154.115 198.152 154.026C200.208 153.937 204.286 154.203 206.172 157.251C208.123 160.4 208.396 165.948 202.383 169.984C196.531 173.912 169.77 177.544 166.102 177.21L159.337 168.11C159.337 168.11 159.269 160.65 159.337 160.296C159.405 159.941 160.544 156.743 160.544 156.743L161.875 156.884Z" fill="#263238"/>
<path d="M176.719 168.94L192.69 174.887L185.422 194.841C183.564 194.035 183.512 182.306 183.512 182.306L173.123 178.919L176.719 168.94Z" fill="#70BAE9"/>
<g opacity="0.6">
<path d="M184.889 175.823C185.017 175.651 185.204 175.533 185.413 175.492C185.623 175.45 185.84 175.487 186.024 175.597C186.197 175.72 186.318 175.905 186.36 176.114C186.403 176.323 186.364 176.54 186.253 176.722C186.116 176.903 185.916 177.027 185.694 177.069C185.471 177.111 185.24 177.07 185.046 176.952C184.873 176.805 184.764 176.596 184.744 176.369C184.723 176.143 184.793 175.917 184.938 175.742" fill="white"/>
</g>
<path d="M192.691 174.891L191.082 174.29L184.691 193.684C184.691 193.684 184.756 194.716 185.415 194.841L192.691 174.891Z" fill="#263238"/>
<path d="M183.281 182.592C183.381 182.625 183.602 182.157 184.085 181.786C184.568 181.415 185.074 181.314 185.07 181.213C185.066 181.113 184.447 181.048 183.864 181.5C183.281 181.951 183.184 182.58 183.281 182.592Z" fill="#263238"/>
<path d="M183.38 185.003C183.468 185.06 183.782 184.697 184.317 184.52C184.852 184.342 185.318 184.403 185.351 184.302C185.383 184.201 184.856 183.939 184.196 184.177C183.537 184.415 183.287 184.967 183.38 185.003Z" fill="#263238"/>
<path d="M185.448 187.108C185.501 187.028 185.046 186.705 184.439 186.769C183.831 186.834 183.437 187.201 183.506 187.273C183.574 187.346 183.96 187.165 184.471 187.128C184.982 187.092 185.424 187.201 185.448 187.108Z" fill="#263238"/>
<path d="M180.998 181.556C181.103 181.556 181.131 181.052 181.369 180.516C181.606 179.98 181.936 179.613 181.871 179.532C181.807 179.451 181.312 179.738 181.039 180.375C180.765 181.012 180.906 181.576 180.998 181.556Z" fill="#263238"/>
<path d="M178.812 180.229C179.021 179.935 179.145 179.59 179.17 179.23C179.239 178.845 179.261 178.454 179.235 178.064C179.217 177.834 179.185 177.605 179.138 177.379C179.119 177.238 179.077 177.102 179.013 176.976C178.968 176.886 178.895 176.815 178.804 176.773C178.714 176.73 178.612 176.719 178.515 176.742C178.429 176.765 178.349 176.808 178.283 176.869C178.218 176.929 178.167 177.005 178.137 177.089C178.088 177.218 178.058 177.354 178.048 177.492C178.028 177.725 178.028 177.96 178.048 178.193C178.077 178.585 178.166 178.97 178.314 179.334C178.575 179.955 178.881 180.246 178.909 180.217C178.937 180.189 178.736 179.85 178.555 179.25C178.452 178.9 178.392 178.538 178.378 178.173C178.372 177.96 178.385 177.747 178.414 177.536C178.414 177.306 178.499 177.133 178.611 177.105C178.655 177.105 178.672 177.105 178.716 177.169C178.759 177.258 178.789 177.353 178.804 177.451C178.855 177.661 178.891 177.874 178.913 178.089C178.955 178.455 178.962 178.825 178.933 179.193C178.868 179.535 178.827 179.882 178.812 180.229Z" fill="#263238"/>
<path d="M178.99 180.141C179.018 180.113 178.741 179.79 178.125 179.524C177.543 179.281 176.907 179.201 176.283 179.294C176.132 179.299 175.985 179.344 175.856 179.423C175.727 179.502 175.621 179.613 175.547 179.746C175.517 179.836 175.513 179.932 175.536 180.024C175.559 180.117 175.607 180.2 175.676 180.266C175.773 180.36 175.883 180.44 176.002 180.504C176.212 180.619 176.438 180.702 176.673 180.75C177.067 180.831 177.474 180.815 177.86 180.701C178.519 180.5 178.781 180.137 178.753 180.117C178.441 180.245 178.123 180.356 177.799 180.451C177.45 180.52 177.091 180.51 176.746 180.423C176.547 180.374 176.356 180.297 176.179 180.193C175.978 180.088 175.837 179.943 175.885 179.875C175.939 179.805 176.008 179.749 176.087 179.709C176.165 179.669 176.252 179.647 176.34 179.645C176.548 179.608 176.759 179.591 176.971 179.592C177.333 179.6 177.691 179.658 178.037 179.766C178.64 179.951 178.966 180.189 178.99 180.141Z" fill="#263238"/>
<path d="M167.909 168.537L153.604 175.19L161.768 193.079C163.425 192.192 162.625 181.367 162.625 181.367L171.963 177.484L167.909 168.537Z" fill="#70BAE9"/>
<g opacity="0.6">
<path d="M160.889 175.472C160.757 175.325 160.576 175.231 160.381 175.209C160.185 175.187 159.988 175.237 159.827 175.351C159.674 175.476 159.576 175.655 159.551 175.85C159.526 176.046 159.578 176.244 159.694 176.403C159.834 176.559 160.026 176.659 160.233 176.682C160.441 176.705 160.65 176.65 160.82 176.528C160.963 176.378 161.042 176.179 161.042 175.972C161.042 175.765 160.963 175.565 160.82 175.415" fill="white"/>
</g>
<path d="M153.604 175.181L155.047 174.512L162.351 191.95C162.351 191.95 162.351 192.906 161.768 193.071L153.604 175.181Z" fill="#263238"/>
<path d="M162.845 181.608C162.757 181.645 162.52 181.225 162.041 180.927C161.562 180.629 161.096 180.564 161.092 180.467C161.088 180.371 161.655 180.27 162.222 180.645C162.789 181.02 162.934 181.588 162.845 181.608Z" fill="#263238"/>
<path d="M162.929 183.858C162.852 183.919 162.527 183.609 162.028 183.479C161.529 183.35 161.095 183.447 161.059 183.359C161.022 183.27 161.489 182.988 162.112 183.157C162.736 183.326 163.009 183.798 162.929 183.858Z" fill="#263238"/>
<path d="M161.175 185.935C161.119 185.862 161.497 185.532 162.076 185.532C162.656 185.532 163.034 185.858 162.977 185.935C162.921 186.011 162.551 185.874 162.096 185.874C161.642 185.874 161.224 186.015 161.175 185.935Z" fill="#263238"/>
<path d="M164.876 180.488C164.78 180.488 164.719 180.028 164.474 179.552C164.229 179.076 163.887 178.746 163.939 178.681C163.991 178.617 164.474 178.826 164.767 179.395C165.061 179.963 164.965 180.496 164.876 180.488Z" fill="#263238"/>
<path d="M166.797 179.089C166.585 178.831 166.446 178.52 166.395 178.189C166.303 177.841 166.256 177.482 166.255 177.121C166.251 176.907 166.263 176.692 166.291 176.48C166.302 176.354 166.33 176.231 166.375 176.113C166.409 176.026 166.472 175.953 166.554 175.908C166.635 175.862 166.73 175.846 166.822 175.863C166.903 175.878 166.979 175.912 167.044 175.962C167.109 176.013 167.161 176.078 167.196 176.153C167.249 176.267 167.286 176.388 167.304 176.512C167.343 176.724 167.364 176.938 167.369 177.153C167.37 177.518 167.315 177.882 167.204 178.23C167.011 178.818 166.749 179.113 166.717 179.089C166.685 179.064 166.85 178.738 166.974 178.169C167.045 177.838 167.073 177.499 167.059 177.161C167.05 176.965 167.025 176.769 166.982 176.577C166.946 176.363 166.874 176.202 166.769 176.194C166.729 176.194 166.713 176.194 166.677 176.258C166.643 176.345 166.622 176.436 166.612 176.528C166.584 176.734 166.568 176.931 166.56 177.125C166.55 177.465 166.572 177.805 166.625 178.141C166.705 178.452 166.763 178.769 166.797 179.089Z" fill="#263238"/>
<path d="M166.621 179.02C166.593 178.996 166.827 178.677 167.378 178.387C167.701 178.221 168.051 178.111 168.411 178.06C168.626 178.038 168.843 178.038 169.059 178.06C169.199 178.053 169.338 178.083 169.463 178.147C169.588 178.211 169.694 178.306 169.771 178.423C169.806 178.504 169.817 178.594 169.803 178.681C169.788 178.768 169.749 178.85 169.69 178.915C169.607 179.009 169.511 179.091 169.405 179.157C168.903 179.483 168.292 179.596 167.707 179.472C167.084 179.334 166.814 179.02 166.839 179C166.863 178.98 167.176 179.177 167.744 179.242C168.07 179.276 168.401 179.24 168.713 179.137C168.895 179.078 169.067 178.992 169.224 178.883C169.401 178.77 169.521 178.629 169.469 178.564C169.413 178.505 169.344 178.459 169.269 178.428C169.193 178.398 169.112 178.384 169.031 178.387C168.837 178.369 168.641 178.369 168.447 178.387C168.114 178.42 167.786 178.499 167.474 178.621C166.923 178.83 166.658 179.072 166.621 179.02Z" fill="#263238"/>
<path d="M160.544 156.743C160.544 156.743 148.993 152.421 144.742 152.981C142.365 153.292 138.649 155.11 138.368 158.167C138.086 161.223 138.826 165.303 142.936 167.295C147.047 169.287 163.448 176.661 167.345 177.798C171.243 178.935 180.959 181.596 180.959 181.596L184.648 171.049C184.648 171.049 164.51 164.061 163.448 163.295C162.386 162.529 159.692 161.449 159.692 161.449L160.544 156.743Z" fill="#263238"/>
<path d="M200.706 158.179L200.626 158.158L200.397 158.086C200.191 158.025 199.89 157.937 199.496 157.844C199.019 157.726 198.536 157.642 198.048 157.59C197.402 157.53 196.751 157.53 196.105 157.59C195.321 157.655 194.546 157.803 193.793 158.029C193.378 158.157 192.975 158.317 192.586 158.509L191.331 159.122C189.602 159.928 187.671 160.799 185.616 161.614C181.502 163.267 177.552 164.033 174.737 164.69C173.321 165.005 172.179 165.263 171.391 165.448L170.486 165.666L170.248 165.718H170.168L170.244 165.69L170.478 165.626C170.687 165.569 170.988 165.485 171.383 165.388C172.187 165.186 173.305 164.912 174.717 164.581C177.532 163.916 181.469 163.122 185.576 161.473C187.627 160.666 189.558 159.816 191.283 158.993L192.542 158.384C192.941 158.191 193.355 158.032 193.781 157.908C194.541 157.682 195.323 157.537 196.113 157.477C196.765 157.416 197.42 157.416 198.072 157.477C198.562 157.532 199.047 157.624 199.524 157.751C199.926 157.852 200.216 157.949 200.417 158.017L200.646 158.102L200.706 158.179Z" fill="#455A64"/>
<path d="M200.084 156.651C200.084 156.671 199.734 156.61 199.167 156.55C198.431 156.469 197.69 156.447 196.95 156.485C196.211 156.524 195.475 156.621 194.751 156.776C194.195 156.892 193.854 156.993 193.85 156.973C193.922 156.933 193.999 156.901 194.079 156.88C194.232 156.828 194.453 156.759 194.73 156.691C195.455 156.508 196.196 156.397 196.942 156.36C197.689 156.322 198.438 156.355 199.179 156.461C199.46 156.501 199.689 156.546 199.846 156.582C199.928 156.594 200.008 156.618 200.084 156.651Z" fill="#455A64"/>
<path d="M155.685 159.808C155.685 159.808 155.351 159.574 154.796 159.231C154.075 158.785 153.309 158.418 152.511 158.134C151.711 157.853 150.883 157.657 150.042 157.55C149.398 157.469 148.992 157.461 148.992 157.441C149.087 157.429 149.183 157.429 149.278 157.441C149.537 157.44 149.796 157.452 150.054 157.477C150.905 157.562 151.744 157.747 152.552 158.03C153.359 158.316 154.129 158.701 154.844 159.175C155.062 159.316 155.271 159.469 155.471 159.634C155.549 159.684 155.62 159.742 155.685 159.808Z" fill="#455A64"/>
<path d="M161.481 175.536L161.57 175.568L161.835 175.681C162.064 175.774 162.402 175.935 162.853 176.109C163.754 176.464 165.081 176.955 166.786 177.516C170.201 178.637 175.103 180.06 180.971 181.548L180.903 181.584L184.474 171.649L184.511 171.726L180.087 169.908L155.621 159.828C154.628 158.771 153.711 157.84 152.854 157.09C152.127 156.444 151.349 155.856 150.53 155.332C150.009 155.008 149.472 154.71 148.921 154.441L148.49 154.243L148.346 154.171C148.396 154.188 148.446 154.208 148.495 154.231L148.929 154.421C149.482 154.68 150.019 154.972 150.538 155.296C151.362 155.814 152.145 156.396 152.878 157.038C153.743 157.787 154.668 158.715 155.67 159.771L180.151 169.827L184.575 171.649L184.631 171.674L184.611 171.726C183.336 175.258 182.126 178.617 181.032 181.661V181.709H180.983C175.115 180.217 170.213 178.778 166.806 177.641C165.105 177.072 163.778 176.568 162.881 176.202C162.43 176.02 162.076 175.855 161.867 175.758L161.606 175.637L161.481 175.536Z" fill="#455A64"/>
<path d="M190.023 119.847C190.023 119.847 193.349 121.766 194.025 124.024C194.427 125.391 197.536 142.918 198.047 146.373C198.558 149.828 197.5 152.389 196.036 153.538C194.572 154.687 190.108 156.211 190.108 156.211L183.813 158.247L182.016 153.663L187.984 145.067L187.405 139.277L190.023 119.847Z" fill="#70BAE9"/>
<path d="M183.49 116.818L181 115.387C181 115.387 178.724 118.056 175.619 117.73C173.694 117.473 171.933 116.507 170.68 115.02L161.43 116.907C160.81 117.032 159.676 117.427 158.594 118.98C157.388 120.709 151.66 128.382 151.66 128.382H147.618C147.076 128.382 146.543 128.53 146.078 128.81C145.613 129.091 145.233 129.494 144.98 129.975C144.296 131.281 143.476 133.031 143.556 133.757C143.689 134.966 143.456 138.341 145.093 139.402C145.611 139.736 147.47 140.732 148.913 140.664C151.041 140.563 153.51 139.454 154.946 138.454C156.153 137.611 158.968 134.688 160.038 133.547V133.567L160.73 157.908L184.998 157.215L190.025 119.859C190.025 119.859 183.735 116.818 183.49 116.818Z" fill="#70BAE9"/>
<path d="M159.953 123.338C159.989 123.338 160.049 126.354 160.094 130.076C160.138 133.797 160.146 136.817 160.114 136.817C160.081 136.817 160.013 133.801 159.969 130.08C159.925 126.358 159.921 123.338 159.953 123.338Z" fill="#263238"/>
<path d="M192.964 143.014C192.964 143.014 192.759 143.047 192.393 143.119C191.875 143.223 191.371 143.384 190.888 143.599C190.172 143.919 189.496 144.325 188.878 144.809C188.122 145.401 187.417 146.055 186.77 146.764C186.074 147.514 185.439 148.26 184.844 148.917C184.322 149.508 183.77 150.072 183.191 150.607C182.8 150.967 182.385 151.3 181.948 151.603C181.799 151.711 181.67 151.784 181.586 151.84C181.544 151.869 181.5 151.893 181.453 151.913L181.574 151.816C181.65 151.756 181.775 151.679 181.92 151.562C182.341 151.246 182.744 150.905 183.126 150.542C183.617 150.086 184.168 149.506 184.755 148.841C185.342 148.175 185.962 147.433 186.674 146.679C187.324 145.965 188.036 145.31 188.801 144.72C189.426 144.232 190.11 143.826 190.836 143.51C191.326 143.297 191.841 143.147 192.369 143.063C192.511 143.039 192.655 143.023 192.799 143.014H192.964Z" fill="#263238"/>
<path d="M193.516 141.365C193.516 141.389 193.146 141.442 192.567 141.603C191.055 142.025 189.684 142.844 188.593 143.974C188.191 144.409 187.958 144.712 187.938 144.696C187.975 144.616 188.022 144.542 188.078 144.474C188.217 144.278 188.367 144.091 188.529 143.913C189.601 142.73 191.002 141.895 192.551 141.514C192.782 141.457 193.017 141.414 193.254 141.385C193.341 141.369 193.428 141.362 193.516 141.365Z" fill="#263238"/>
<g opacity="0.3">
<path d="M148.35 137.087C149.633 137.438 151.165 135.583 152.344 134.426C152.951 133.821 153.583 133.176 153.804 132.35C153.963 131.655 153.892 130.928 153.603 130.277C153.387 129.69 153.1 129.131 152.75 128.612C152.859 129.612 153.104 131.144 152.75 132.398C152.421 133.408 151.858 134.324 151.105 135.071C150.361 135.91 149.496 136.789 148.334 137.087" fill="black"/>
</g>
<path d="M153.839 136.035C153.815 136.035 153.964 135.612 154.085 134.91C154.155 134.502 154.195 134.09 154.205 133.676C154.224 132.661 154.065 131.649 153.735 130.689C153.602 130.296 153.44 129.915 153.248 129.548C152.918 128.923 152.649 128.572 152.669 128.556C152.745 128.627 152.812 128.707 152.87 128.794C152.944 128.889 153.012 128.989 153.075 129.092C153.152 129.213 153.244 129.346 153.329 129.495C153.531 129.861 153.705 130.243 153.847 130.636C154.027 131.12 154.161 131.62 154.25 132.128C154.324 132.638 154.355 133.153 154.342 133.668C154.327 134.087 154.278 134.503 154.197 134.914C154.168 135.073 154.131 135.231 154.085 135.386C154.056 135.503 154.021 135.619 153.98 135.733C153.944 135.838 153.897 135.94 153.839 136.035Z" fill="#263238"/>
<path d="M171.682 115.96C171.682 115.992 171.412 116.157 171.115 116.427C170.817 116.698 170.62 116.956 170.588 116.935C170.693 116.706 170.844 116.5 171.033 116.332C171.221 116.164 171.442 116.037 171.682 115.96Z" fill="#263238"/>
<path d="M174.208 117.431C174.232 117.456 173.991 117.722 173.806 118.109C173.621 118.496 173.532 118.847 173.496 118.838C173.501 118.564 173.568 118.294 173.694 118.05C173.82 117.806 174 117.594 174.22 117.431H174.208Z" fill="#263238"/>
<path d="M178.529 118.943C178.411 118.712 178.318 118.469 178.251 118.218C178.143 117.982 178.06 117.736 178.002 117.484C178.172 117.686 178.297 117.923 178.368 118.177C178.476 118.418 178.531 118.679 178.529 118.943Z" fill="#263238"/>
<path d="M181.315 117.637C181.275 117.637 181.182 117.234 180.913 116.774C180.643 116.315 180.309 116.04 180.338 116.012C180.628 116.172 180.864 116.415 181.017 116.71C181.204 116.983 181.308 117.306 181.315 117.637Z" fill="#263238"/>
<path d="M189.301 125.52C189.337 125.52 188.923 128.85 188.384 132.946C187.845 137.043 187.378 140.361 187.342 140.353C187.306 140.345 187.72 137.027 188.259 132.93C188.798 128.834 189.269 125.516 189.301 125.52Z" fill="#263238"/>
<path d="M152.936 130.902C152.949 131.018 152.949 131.134 152.936 131.249C152.927 131.385 152.91 131.519 152.883 131.652C152.883 131.729 152.855 131.814 152.843 131.902L152.775 132.176C152.654 132.625 152.494 133.062 152.296 133.483C152.044 133.993 151.745 134.479 151.403 134.934C151.054 135.38 150.656 135.786 150.217 136.144C149.85 136.439 149.444 136.682 149.01 136.866C148.922 136.902 148.833 136.942 148.749 136.97L148.507 137.039L148.294 137.099L148.113 137.124C148 137.142 147.886 137.152 147.771 137.152C148.185 137.069 148.589 136.946 148.978 136.785C149.391 136.592 149.778 136.347 150.128 136.055C150.556 135.694 150.944 135.289 151.287 134.846C151.625 134.398 151.923 133.92 152.175 133.418C152.378 133.008 152.543 132.58 152.67 132.14C152.782 131.733 152.871 131.32 152.936 130.902Z" fill="#263238"/>
<g opacity="0.3">
<path d="M188.519 158.727C189.549 158.227 189.782 156.892 189.887 155.751C190.195 152.405 190.504 149.061 190.812 145.72C190.957 144.147 191.025 142.353 189.919 141.228C188.91 140.204 187.305 140.14 185.865 140.144C176.985 140.172 169.146 140.43 160.266 140.454L160.716 156.038L188.519 158.727Z" fill="black"/>
</g>
<path d="M156.439 142.869L157.384 160.929C157.403 161.266 157.552 161.583 157.798 161.814C158.044 162.046 158.37 162.173 158.707 162.17L187.403 162.223C187.741 162.224 188.067 162.095 188.312 161.863C188.558 161.63 188.705 161.311 188.722 160.973L189.82 143.232C189.857 142.494 189.334 141.515 188.586 141.498H157.786C157.606 141.493 157.427 141.525 157.26 141.593C157.093 141.66 156.941 141.761 156.815 141.89C156.688 142.018 156.59 142.172 156.525 142.34C156.46 142.509 156.431 142.689 156.439 142.869Z" fill="#E0E0E0"/>
<path d="M156.439 142.869C156.439 142.869 156.439 142.845 156.439 142.801C156.439 142.756 156.439 142.688 156.439 142.599C156.477 142.335 156.597 142.09 156.781 141.897C156.914 141.752 157.077 141.639 157.26 141.567C157.481 141.488 157.717 141.455 157.951 141.47H159.697L170.817 141.45H187.307H188.478C188.687 141.44 188.894 141.493 189.073 141.603C189.246 141.715 189.395 141.86 189.511 142.031C189.743 142.375 189.868 142.78 189.869 143.196C189.845 143.599 189.825 144.002 189.801 144.405C189.702 146.018 189.6 147.675 189.495 149.377C189.286 152.756 189.069 156.255 188.848 159.84L188.807 160.509C188.8 160.736 188.781 160.962 188.751 161.186C188.706 161.416 188.602 161.631 188.451 161.809C188.3 161.988 188.105 162.124 187.886 162.207C187.671 162.281 187.442 162.312 187.215 162.295H185.24H180.088H170.347L161.535 162.271H159.005C158.84 162.271 158.675 162.271 158.506 162.271C158.175 162.224 157.871 162.057 157.654 161.802C157.436 161.546 157.319 161.22 157.324 160.884C157.308 160.57 157.292 160.259 157.276 159.953C157.244 159.336 157.215 158.743 157.183 158.146C156.946 153.449 156.753 149.647 156.62 147.014C156.556 145.704 156.507 144.684 156.475 143.99C156.475 143.643 156.447 143.381 156.439 143.184C156.431 142.986 156.439 142.918 156.439 142.918C156.439 142.918 156.439 143.006 156.459 143.184C156.479 143.361 156.487 143.627 156.507 143.97C156.548 144.667 156.604 145.684 156.676 146.998C156.821 149.627 157.026 153.449 157.28 158.126C157.312 158.715 157.344 159.316 157.376 159.933C157.392 160.239 157.408 160.549 157.424 160.864C157.421 161.174 157.528 161.476 157.726 161.715C157.93 161.957 158.217 162.115 158.531 162.158C158.693 162.166 158.855 162.166 159.017 162.158H161.547H170.359H180.1H185.252H187.227C187.433 162.175 187.641 162.151 187.838 162.086C188.04 162.013 188.22 161.89 188.361 161.728C188.502 161.565 188.599 161.369 188.642 161.158C188.679 160.953 188.679 160.719 188.695 160.501L188.739 159.828C188.96 156.247 189.173 152.748 189.382 149.369C189.487 147.678 189.59 146.02 189.692 144.393L189.765 143.184C189.763 142.793 189.646 142.411 189.427 142.087C189.332 141.923 189.195 141.787 189.03 141.693C188.865 141.6 188.679 141.552 188.49 141.555H187.315H170.825H159.705H157.959C157.729 141.535 157.497 141.565 157.28 141.643C157.1 141.711 156.938 141.819 156.805 141.958C156.623 142.147 156.502 142.388 156.459 142.647C156.435 142.776 156.467 142.869 156.439 142.869Z" fill="#263238"/>
<path d="M175.033 151.679C175.034 152.016 174.936 152.346 174.75 152.626C174.564 152.907 174.299 153.126 173.989 153.255C173.678 153.384 173.336 153.418 173.007 153.351C172.677 153.285 172.375 153.122 172.138 152.883C171.901 152.644 171.741 152.34 171.677 152.009C171.613 151.678 171.649 151.336 171.78 151.025C171.911 150.715 172.132 150.451 172.413 150.266C172.694 150.082 173.024 149.986 173.36 149.99C173.804 149.994 174.229 150.174 174.542 150.49C174.856 150.806 175.032 151.233 175.033 151.679Z" fill="white"/>
<path d="M175.03 151.679C175.03 151.679 175.03 151.526 174.954 151.276C174.894 151.053 174.789 150.845 174.645 150.665C174.5 150.486 174.32 150.338 174.116 150.232C173.912 150.125 173.687 150.063 173.458 150.048C173.228 150.034 172.998 150.067 172.782 150.147C172.48 150.258 172.218 150.458 172.03 150.72C171.822 150.998 171.709 151.337 171.709 151.685C171.709 152.033 171.822 152.372 172.03 152.651C172.218 152.913 172.48 153.112 172.782 153.223C172.998 153.302 173.228 153.334 173.457 153.319C173.686 153.304 173.91 153.241 174.114 153.135C174.318 153.029 174.498 152.882 174.643 152.703C174.787 152.524 174.893 152.317 174.954 152.094C175.022 151.836 175.018 151.691 175.03 151.691C175.036 151.727 175.036 151.764 175.03 151.8C175.028 151.905 175.016 152.009 174.994 152.111C174.907 152.492 174.691 152.831 174.383 153.07C174.171 153.239 173.921 153.354 173.655 153.405C173.348 153.464 173.032 153.44 172.738 153.336C172.415 153.218 172.135 153.006 171.933 152.727C171.711 152.427 171.592 152.063 171.592 151.689C171.592 151.315 171.711 150.952 171.933 150.651C172.135 150.372 172.415 150.16 172.738 150.042C173.032 149.938 173.348 149.915 173.655 149.974C173.979 150.037 174.278 150.194 174.516 150.424C174.753 150.655 174.919 150.949 174.994 151.272C175.017 151.374 175.029 151.478 175.03 151.582C175.035 151.614 175.035 151.647 175.03 151.679Z" fill="#263238"/>
<path d="M157.407 144.869C157.439 144.869 157.58 147.901 157.721 151.647C157.861 155.393 157.946 158.429 157.914 158.429C157.881 158.429 157.737 155.397 157.596 151.651C157.455 147.905 157.371 144.869 157.407 144.869Z" fill="#263238"/>
<path d="M148.781 121.302C148.612 121.161 149.348 118.322 149.348 118.322C149.348 118.322 147.402 115.137 147.338 114.113C147.273 113.089 148.106 110.98 148.106 110.98L153.692 109.541C153.692 109.541 155.486 112.879 155.844 114.061C156.202 115.242 155.261 119.25 155.261 119.25L154.316 121.302C154.316 121.302 151.44 123.564 148.781 121.302Z" fill="#99655C"/>
<path d="M147.359 114.726C147.138 114.324 146.941 113.909 146.768 113.484C146.418 112.642 145.984 111.819 146.768 111.347C146.892 111.267 147.031 111.213 147.176 111.19C147.322 111.167 147.47 111.176 147.613 111.214C147.613 111.214 147.492 110.509 147.91 110.243C148.033 110.165 148.172 110.118 148.316 110.106C148.46 110.093 148.605 110.115 148.739 110.17C148.739 110.17 148.606 109.17 149.213 108.747C149.442 108.597 149.708 108.514 149.981 108.506C150.255 108.498 150.525 108.566 150.762 108.702C150.762 108.702 150.279 104.336 150.239 104.102C150.086 103.255 150.4 102.489 151.24 102.711C151.55 102.787 151.723 103.114 152.085 104.537C152.447 105.961 153.03 108.388 153.03 108.388C153.03 108.388 154.011 110.097 154.474 111.025C154.937 111.952 155.854 114.061 155.93 114.621C156.127 116.065 155.282 117.98 155.282 117.98L149.346 118.323C149.346 118.323 147.584 115.141 147.359 114.726Z" fill="#99655C"/>
<path d="M147.731 111.404C147.899 111.606 148.052 111.82 148.19 112.045L148.66 112.762C148.757 112.904 148.842 113.054 148.914 113.21C148.997 113.387 149.022 113.586 148.986 113.778C148.967 113.879 148.923 113.972 148.856 114.049C148.79 114.127 148.704 114.185 148.608 114.218C148.429 114.264 148.24 114.241 148.077 114.153C147.936 114.084 147.801 114.002 147.675 113.907L147.353 113.666C147.16 113.516 147.011 113.387 146.911 113.295C146.81 113.202 146.758 113.145 146.762 113.137C146.766 113.129 147.011 113.315 147.405 113.597C147.631 113.766 147.869 113.917 148.117 114.049C148.255 114.119 148.413 114.138 148.564 114.101C148.639 114.074 148.706 114.028 148.757 113.966C148.808 113.904 148.841 113.829 148.853 113.75C148.885 113.584 148.864 113.412 148.793 113.258C148.726 113.107 148.647 112.961 148.556 112.823L148.117 112.089C147.97 111.872 147.841 111.642 147.731 111.404Z" fill="#744A45"/>
<path d="M152.598 111.924C152.546 111.611 152.568 111.291 152.662 110.988C152.716 110.675 152.843 110.38 153.032 110.125C153.064 110.125 152.9 110.529 152.783 111.016C152.666 111.504 152.634 111.924 152.598 111.924Z" fill="#744A45"/>
<path d="M154.95 113.198C154.403 112.667 153.714 112.307 152.967 112.162C152.221 112.017 151.458 111.987 150.703 112.073C150.1 112.129 149.412 112.283 149.134 112.827C149.02 113.122 149.018 113.449 149.127 113.746C149.237 114.043 149.451 114.29 149.73 114.44C150.292 114.72 150.927 114.817 151.547 114.718C152.164 114.616 152.791 114.59 153.414 114.641" fill="#99655C"/>
<path d="M153.414 114.625C153.414 114.625 153.245 114.625 152.947 114.625C152.52 114.642 152.095 114.683 151.672 114.746C151.377 114.781 151.08 114.794 150.783 114.782C150.435 114.77 150.094 114.683 149.782 114.528C149.433 114.347 149.167 114.038 149.038 113.666C148.971 113.466 148.957 113.252 148.998 113.045C149.045 112.832 149.159 112.64 149.323 112.496C149.652 112.238 150.049 112.083 150.466 112.049C150.84 112.007 151.215 111.984 151.592 111.98C152.234 111.97 152.873 112.068 153.482 112.27C153.891 112.407 154.273 112.613 154.612 112.879C154.704 112.953 154.791 113.033 154.874 113.117C154.902 113.146 154.927 113.177 154.95 113.21C154.95 113.21 154.829 113.097 154.584 112.92C154.24 112.671 153.858 112.479 153.454 112.351C152.852 112.168 152.225 112.082 151.596 112.097C151.223 112.102 150.851 112.126 150.482 112.17C150.092 112.197 149.719 112.337 149.408 112.573C149.263 112.7 149.161 112.869 149.118 113.057C149.082 113.241 149.094 113.431 149.154 113.609C149.269 113.955 149.513 114.244 149.834 114.415C150.13 114.566 150.455 114.651 150.787 114.665C151.08 114.684 151.373 114.677 151.664 114.645C152.09 114.59 152.518 114.562 152.947 114.561C153.063 114.567 153.178 114.579 153.293 114.597C153.334 114.6 153.375 114.609 153.414 114.625Z" fill="#744A45"/>
<path d="M147.775 111.472C148.399 112.424 148.95 113.468 149.477 114.476C149.602 114.784 149.807 115.053 150.072 115.254C150.297 115.391 150.856 115.141 151.106 115.053L149.392 111.142" fill="#99655C"/>
<path d="M149.392 111.142C149.452 111.233 149.503 111.331 149.545 111.432L149.923 112.238C150.241 112.936 150.675 113.908 151.162 115.012L151.19 115.073L151.126 115.097C150.941 115.161 150.723 115.246 150.526 115.303C150.441 115.325 150.353 115.337 150.265 115.339C150.218 115.345 150.171 115.345 150.124 115.339C150.078 115.324 150.035 115.302 149.995 115.274C149.858 115.173 149.741 115.048 149.65 114.903C149.473 114.625 149.348 114.347 149.211 114.097C148.942 113.577 148.692 113.109 148.479 112.722C148.266 112.335 148.077 112.025 147.96 111.811C147.89 111.704 147.829 111.592 147.775 111.476C147.859 111.574 147.934 111.677 148.001 111.787C148.141 111.992 148.334 112.295 148.556 112.678C148.777 113.061 149.038 113.525 149.312 114.045C149.453 114.299 149.585 114.585 149.75 114.851C149.834 114.982 149.941 115.096 150.068 115.186C150.172 115.274 150.341 115.242 150.498 115.206C150.697 115.15 150.893 115.084 151.085 115.008L151.049 115.093C150.567 113.984 150.144 113.004 149.843 112.299C149.702 111.96 149.589 111.678 149.497 111.464C149.452 111.36 149.417 111.252 149.392 111.142Z" fill="#744A45"/>
<path d="M148.93 109.98L150.583 114.137C150.683 114.439 150.834 114.721 151.029 114.972C151.127 115.097 151.254 115.195 151.4 115.258C151.545 115.322 151.704 115.348 151.862 115.335C152.073 115.279 152.259 115.155 152.392 114.981C152.524 114.807 152.595 114.594 152.594 114.375C152.582 113.937 152.476 113.507 152.284 113.113C151.783 111.849 151.38 110.548 151.077 109.222" fill="#99655C"/>
<path d="M151.097 109.222C151.117 109.263 151.132 109.307 151.142 109.351C151.166 109.448 151.198 109.569 151.238 109.718C151.323 110.037 151.447 110.496 151.64 111.061C151.833 111.625 152.043 112.291 152.324 113.016C152.5 113.393 152.617 113.794 152.67 114.206C152.689 114.432 152.646 114.659 152.545 114.863C152.445 115.084 152.265 115.259 152.043 115.355C151.93 115.396 151.81 115.413 151.691 115.403C151.571 115.393 151.455 115.357 151.351 115.298C151.15 115.189 150.981 115.029 150.86 114.835C150.664 114.473 150.497 114.095 150.361 113.706L149.605 111.774L149.095 110.476C149.042 110.331 149.002 110.214 148.966 110.121C148.949 110.08 148.936 110.037 148.93 109.992C148.955 110.029 148.975 110.068 148.99 110.109L149.143 110.46L149.678 111.75C149.899 112.303 150.164 112.96 150.458 113.674C150.592 114.056 150.757 114.427 150.953 114.782C151.062 114.953 151.215 115.092 151.395 115.186C151.484 115.236 151.583 115.267 151.685 115.276C151.787 115.285 151.89 115.272 151.986 115.238C152.178 115.154 152.331 115.002 152.417 114.811C152.506 114.624 152.546 114.417 152.533 114.21C152.481 113.811 152.368 113.422 152.199 113.057C151.922 112.327 151.705 111.654 151.54 111.085C151.375 110.516 151.262 110.053 151.19 109.73C151.158 109.569 151.13 109.44 151.118 109.355C151.106 109.312 151.099 109.267 151.097 109.222Z" fill="#744A45"/>
<path d="M149.061 119.75C149.061 119.75 145.272 130.938 145.123 131.487C144.975 132.035 145.871 136.035 147.516 136.982C149.161 137.93 152.343 133.987 152.745 132.547C153.147 131.108 152.745 128.652 152.745 128.652L155.299 119.012" fill="#99655C"/>
<path d="M152.75 117.988C152.629 118.004 152.506 117.989 152.392 117.943C152.113 117.855 151.856 117.706 151.64 117.508C151.424 117.309 151.254 117.066 151.141 116.794C151.087 116.684 151.061 116.562 151.065 116.44C151.205 116.812 151.431 117.146 151.724 117.415C152.016 117.684 152.368 117.88 152.75 117.988Z" fill="#744A45"/>
</g>
<defs>
<clipPath id="clip0_1220_11">
<rect width="288" height="193" fill="white"/>
</clipPath>
</defs>
</svg>
