<svg width="78" height="91" viewBox="0 0 78 91" fill="none" xmlns="http://www.w3.org/2000/svg">
<path d="M39 45.5C51.5734 45.5 61.75 35.4353 61.75 23C61.75 10.5647 51.5734 0.5 39 0.5C26.4266 0.5 16.25 10.5647 16.25 23C16.25 35.4353 26.4266 45.5 39 45.5ZM54.6 51.9286H52.9141C48.6891 53.9375 43.9969 55.1429 39 55.1429C34.0031 55.1429 29.3313 53.9375 25.0859 51.9286H23.4C10.4812 51.9286 0 62.2947 0 75.0714V80.8571C0 86.1808 4.36719 90.5 9.75 90.5H68.25C73.6328 90.5 78 86.1808 78 80.8571V75.0714C78 62.2947 67.5187 51.9286 54.6 51.9286Z" fill="#0165B7"/>
</svg>
