<svg width="338" height="482" viewBox="0 0 338 482" fill="none" xmlns="http://www.w3.org/2000/svg">
<g opacity="0.1">
<path d="M251.389 227.978C251.372 228.857 251.577 229.725 251.985 230.503C252.393 231.281 252.991 231.943 253.723 232.429C255.145 233.281 256.776 233.721 258.433 233.698C263.503 233.819 268.434 232.031 272.248 228.688C273.628 230.512 275.412 231.991 277.459 233.01C279.507 234.028 281.763 234.558 284.05 234.558C286.337 234.558 288.593 234.028 290.64 233.01C292.688 231.991 294.472 230.512 295.852 228.688C301.398 230.204 307.196 230.57 312.889 229.762C318.582 228.955 324.05 226.991 328.956 223.992L330.458 224.825C330.445 225.331 330.339 225.831 330.144 226.299C328.396 230.394 314.622 234.585 314.622 234.585C315.789 235.037 316.983 235.411 318.199 235.705C315.81 236.428 313.762 237.07 312.452 237.439C310.024 238.285 307.408 238.433 304.9 237.866C302.393 237.299 300.095 236.039 298.268 234.231C296.68 236.185 294.672 237.756 292.392 238.826C290.113 239.897 287.621 240.439 285.103 240.413C282.585 240.387 280.106 239.792 277.849 238.675C275.593 237.557 273.618 235.945 272.071 233.957C268.904 237.548 264.726 240.36 260.18 240.524C257.817 240.598 255.497 239.883 253.586 238.491C251.675 237.099 250.282 235.11 249.628 232.838C246.738 233.763 243.62 233.682 240.781 232.609C237.943 231.536 235.552 229.533 233.997 226.927C236.57 228.56 239.516 229.512 242.557 229.696C245.599 229.88 248.638 229.289 251.389 227.978Z" fill="black"/>
</g>
<g opacity="0.1">
<path d="M216.181 202.491C218.119 202.871 220.09 203.054 222.065 203.037C222.065 203.037 223.976 208.238 229.205 207.665C229.205 207.665 226.611 208.101 223.334 208.77C225.317 209.529 227.456 209.789 229.563 209.527C231.669 209.265 233.679 208.49 235.416 207.269C238.544 210.364 242.725 212.165 247.124 212.312C251.522 212.459 255.814 210.941 259.142 208.06C262.332 210.853 266.416 212.412 270.655 212.455C274.894 212.497 279.009 211.021 282.254 208.293C283.939 209.926 285.96 211.173 288.176 211.944C290.393 212.715 292.751 212.992 295.086 212.757C297.471 212.383 299.703 211.351 301.532 209.776C303.36 208.2 304.712 206.145 305.434 203.842C301.878 206.295 297.59 207.455 293.282 207.13C288.975 206.805 284.909 205.013 281.762 202.054C281.686 202.784 281.41 203.478 280.965 204.061C280.519 204.644 279.921 205.093 279.237 205.357C277.92 205.801 276.521 205.946 275.142 205.781C269.503 205.494 263.551 204.62 259.183 200.689C257.858 202.457 256.106 203.861 254.091 204.768C252.076 205.675 249.864 206.057 247.661 205.876C245.441 205.578 243.329 204.739 241.51 203.432C239.691 202.125 238.222 200.391 237.232 198.382C233.303 200.409 228.929 201.423 224.509 201.33C220.089 201.237 215.762 200.04 211.922 197.849L216.181 202.491Z" fill="black"/>
</g>
<g opacity="0.1">
<path d="M306.471 184.703C302.615 184.304 298.846 183.3 295.304 181.727C292.231 183.912 288.549 185.076 284.779 185.054C281.009 185.032 277.341 183.825 274.294 181.604C271.955 183.775 268.934 185.064 265.748 185.251C262.562 185.438 259.411 184.51 256.834 182.628C254.192 184.094 251.147 184.668 248.152 184.266C246.611 183.935 245.226 183.096 244.221 181.882C243.216 180.669 242.648 179.152 242.609 177.577C243.441 178.633 244.502 179.487 245.711 180.074C246.921 180.661 248.248 180.967 249.592 180.967C250.937 180.967 252.264 180.661 253.473 180.074C254.683 179.487 255.743 178.633 256.575 177.577C257.542 178.884 258.817 179.933 260.286 180.631C261.755 181.329 263.373 181.653 264.998 181.577C266.632 181.422 268.204 180.877 269.585 179.989C270.965 179.1 272.111 177.894 272.929 176.471C274.871 178.11 277.137 179.322 279.578 180.028C282.02 180.733 284.582 180.917 287.099 180.567C288.562 180.446 289.949 179.863 291.058 178.901C291.629 178.371 292.031 177.684 292.213 176.926C292.395 176.168 292.349 175.374 292.082 174.642C295.292 177.08 299.207 178.409 303.237 178.428C307.268 178.448 311.196 177.158 314.429 174.751V174.874C314.194 175.342 313.853 175.749 313.433 176.062C311.167 177.986 302.976 178.792 302.976 178.792C302.976 178.792 306.239 181.522 310.238 184.525C308.992 184.716 307.729 184.776 306.471 184.703Z" fill="black"/>
</g>
<g opacity="0.1">
<path d="M238.897 158.261C241 157.928 243.01 157.156 244.794 155.994C245.09 156.736 245.639 157.349 246.344 157.724C247.049 158.099 247.864 158.212 248.644 158.042C250.178 157.622 251.585 156.829 252.739 155.735C253.263 156.521 253.959 157.176 254.776 157.649C255.593 158.122 256.507 158.402 257.449 158.465C258.387 158.489 259.317 158.296 260.167 157.901C261.017 157.505 261.764 156.918 262.35 156.186C267.442 159.94 273.476 162.697 279.551 161.892C280.129 161.867 280.697 161.725 281.22 161.477C281.742 161.228 282.21 160.877 282.595 160.445C283.318 159.489 283.209 157.715 282.158 157.264C285.871 158.069 289.721 158.861 293.393 157.837C295.327 157.427 297.021 156.271 298.11 154.621C299.198 152.97 299.593 150.958 299.209 149.019C299.025 149.949 298.703 150.846 298.253 151.681C297.744 152.366 297.009 152.85 296.178 153.046C293.128 154.058 289.904 154.442 286.702 154.175C283.499 153.907 280.384 152.994 277.544 151.49C278.759 152.855 277.926 155.353 276.384 156.227C274.782 156.918 272.986 157.015 271.319 156.5C269.435 156.203 267.598 155.657 265.858 154.875C264.043 154.021 262.571 152.578 261.681 150.78C261.071 152.053 260.223 153.197 259.183 154.151C258.689 154.61 258.065 154.903 257.398 154.991C256.73 155.079 256.052 154.957 255.456 154.643C255.168 154.442 254.925 154.184 254.742 153.885C254.559 153.585 254.44 153.251 254.393 152.904C254.345 152.556 254.37 152.203 254.467 151.865C254.563 151.528 254.727 151.214 254.951 150.943C252.517 152.46 249.838 153.541 247.033 154.138C246.697 154.259 246.334 154.29 245.982 154.228C245.63 154.165 245.301 154.012 245.026 153.783C244.815 153.457 244.713 153.072 244.735 152.684C244.757 152.297 244.902 151.926 245.149 151.626C245.324 151.409 245.531 151.22 245.764 151.066C241.893 152.951 237.556 153.663 233.286 153.114V153.878C235.537 155.105 237.943 156.024 240.439 156.609C240.439 156.609 239.866 157.264 238.897 158.261Z" fill="black"/>
</g>
<g opacity="0.1">
<path d="M46.2893 163.216C48.8665 163.714 51.4867 163.957 54.1116 163.939C54.1116 163.939 56.6644 170.861 63.6675 170.096C63.6675 170.096 60.2001 170.697 55.8589 171.584C58.4968 172.595 61.3432 172.939 64.1459 172.587C66.9486 172.234 69.6211 171.196 71.9266 169.564C76.0836 173.699 81.6518 176.107 87.512 176.305C93.3722 176.503 99.09 174.474 103.516 170.628C107.753 174.365 113.193 176.453 118.843 176.511C124.492 176.569 129.974 174.592 134.286 170.942C139.037 175.243 145.207 177.768 151.364 176.881C154.539 176.389 157.513 175.016 159.948 172.919C162.383 170.822 164.181 168.085 165.138 165.018C160.399 168.299 154.678 169.853 148.93 169.42C143.182 168.988 137.757 166.595 133.563 162.642C133.456 163.611 133.087 164.533 132.496 165.308C131.904 166.083 131.112 166.681 130.204 167.038C128.449 167.629 126.583 167.82 124.744 167.598C117.249 167.216 109.318 166.042 103.516 160.772C101.753 163.129 99.4196 164.999 96.7357 166.207C94.0518 167.415 91.1051 167.922 88.1718 167.68C85.2169 167.282 82.405 166.164 79.984 164.424C77.563 162.684 75.607 160.375 74.2883 157.701C69.0595 160.404 63.2371 161.755 57.3522 161.631C51.4673 161.507 45.707 159.912 40.5967 156.991L46.2893 163.216Z" fill="black"/>
</g>
<g opacity="0.1">
<path d="M101.851 38.3468L107.312 36.1762C107.312 36.1762 110.356 40.7084 116.144 37.7188C119.852 35.6309 122.916 32.5666 125.004 28.859C125.004 28.859 133.195 34.224 133.96 30.8248C134.181 29.8581 134.045 28.8437 133.575 27.97C133.106 27.0963 132.335 26.4226 131.407 26.0741C131.586 26.3524 131.7 26.6684 131.737 26.9974C131.775 27.3265 131.737 27.6599 131.625 27.9717C131.27 28.586 130.465 28.5587 129.823 28.4086C127.66 27.8312 125.744 26.5663 124.363 24.8046C122.738 28.6679 119.421 31.3163 116.022 33.2957C115.339 33.8054 114.559 34.1681 113.729 34.3608C112.9 34.5534 112.04 34.572 111.203 34.4152C109.578 33.8964 108.472 31.3982 109.715 30.1013C108.5 31.7303 106.958 33.0869 105.188 34.0838C103.417 35.0807 101.458 35.6958 99.4351 35.8895C98.5887 35.9577 97.4966 35.7394 97.3328 34.8111C97.3025 34.2684 97.4835 33.7351 97.8379 33.3231C99.011 31.5996 100.475 30.0936 102.165 28.8727C98.4916 31.5855 94.1415 33.2339 89.5925 33.637L85.6609 34.1558C85.538 34.6336 85.579 35.0158 85.9202 35.2479C87.7768 36.5311 92.1862 35.2479 92.1862 35.2479C92.1862 35.2479 83.3674 40.3808 87.5448 41.6504C91.7221 42.92 100.077 38.5788 100.077 38.5788L99.0392 39.5617L101.851 38.3468Z" fill="black"/>
</g>
<path d="M292.148 244.547C292.148 244.547 291.124 243.864 293.376 240.902C295.629 237.939 292.148 236.342 292.148 236.342C282.278 242.048 268.49 236.342 268.49 236.342C268.49 236.342 284.749 231.332 286.796 226.54C288.339 222.964 285.622 222.568 284.161 222.609C285.813 222.431 289.404 221.844 290.496 219.879C291.943 217.367 286.291 214.418 286.291 214.418C286.582 213.816 286.734 213.155 286.734 212.486C286.734 211.817 286.582 211.157 286.291 210.555C285.363 208.043 264.176 204.398 264.176 204.398C270.346 205.08 272.612 198.937 272.612 198.937C272.612 198.937 283.097 199.169 285.568 195.06C288.038 190.951 283.916 189.818 276.926 186.405C269.937 182.992 254.511 170.215 254.511 170.215C254.511 170.215 264.176 169.314 266.797 167.034C269.418 164.754 267.002 164.304 267.002 164.304C278.523 165.45 274.606 159.294 274.606 159.294C265.46 156.493 257.274 151.204 250.961 144.018C250.961 144.018 258.156 142.421 261.882 139.008C265.609 135.595 258.797 134.68 258.797 134.68C258.797 134.68 272.38 132.851 264.558 127.854C258.62 124.046 249.118 118.913 246.17 117.37C249.405 118.558 256.749 117.138 256.749 117.138C265.391 113.261 256.749 107.582 256.749 107.582C246.675 101.89 231.863 87.5282 231.863 87.5282C231.863 87.5282 239.262 91.3916 242.975 90.2585C246.688 89.1255 238.88 84.5659 238.88 84.5659C238.88 84.5659 242.784 85.699 244.436 84.5659C246.088 83.4328 240.122 78.177 240.122 78.177C231.249 72.4161 220.328 57.3041 215.754 50.806C211.181 57.3041 200.246 72.4161 191.387 78.177C191.387 78.177 185.421 83.4192 187.073 84.5659C188.725 85.7126 192.615 84.5659 192.615 84.5659C192.615 84.5659 184.807 89.1118 188.52 90.2585C192.233 91.4052 199.632 87.5282 199.632 87.5282C199.632 87.5282 184.82 101.89 174.746 107.582C174.746 107.582 166.104 113.275 174.746 117.138C174.746 117.138 182.09 118.503 185.325 117.37C182.377 118.913 172.875 124.046 166.937 127.854C159.115 132.865 172.684 134.68 172.684 134.68C172.684 134.68 165.858 135.595 169.599 139.008C173.339 142.421 180.52 144.018 180.52 144.018C174.204 151.206 166.013 156.495 156.862 159.294C156.862 159.294 152.958 165.45 164.48 164.304C164.48 164.304 162.009 164.768 164.684 167.034C167.36 169.3 176.971 170.215 176.971 170.215C176.971 170.215 161.545 182.979 154.555 186.405C147.566 189.832 143.443 190.965 145.914 195.06C148.385 199.156 158.869 198.937 158.869 198.937C158.869 198.937 161.135 205.094 167.306 204.398C167.306 204.398 146.119 208.043 145.19 210.555C144.894 211.155 144.74 211.816 144.74 212.486C144.74 213.156 144.894 213.817 145.19 214.418C145.19 214.418 139.539 217.38 140.972 219.879C142.078 221.79 145.668 222.377 147.32 222.609C145.846 222.609 143.143 222.964 144.685 226.54C146.733 231.332 162.978 236.342 162.978 236.342C162.978 236.342 149.204 242.048 139.334 236.342C139.334 236.342 135.839 237.939 138.105 240.902C140.371 243.864 139.334 244.547 139.334 244.547C139.334 244.547 134.187 240.683 136.453 246.608C138.72 252.533 150.637 256.164 150.637 256.164C150.637 256.164 143.811 257.297 145.914 260.956C148.016 264.614 156.603 268.928 166.063 269.843C175.524 270.757 188.274 267.331 188.274 267.331C188.274 267.331 179.633 271.89 185.544 274.402C191.455 276.914 198.294 271.208 198.294 271.208C198.294 271.208 197.066 277.037 201.994 275.03C205.306 273.572 208.362 271.59 211.045 269.16C211.045 269.16 212.587 277.747 215.672 275.699C218.758 277.747 220.3 269.16 220.3 269.16C222.979 271.588 226.03 273.57 229.337 275.03C234.279 277.037 233.037 271.208 233.037 271.208C233.037 271.208 239.863 276.9 245.787 274.402C251.712 271.904 243.057 267.331 243.057 267.331C243.057 267.331 255.808 270.744 265.268 269.843C274.728 268.942 283.356 264.601 285.417 260.956C287.479 257.311 280.68 256.164 280.68 256.164C280.68 256.164 292.612 252.519 294.878 246.608C297.144 240.697 292.148 244.547 292.148 244.547Z" fill="#F5F5F5"/>
<path d="M244.781 128.432L245.054 128.309C244.958 128.339 244.867 128.38 244.781 128.432Z" fill="black"/>
<path d="M226.129 237.352H201.979V322.032H226.129V237.352Z" fill="#F5F5F5"/>
<path d="M205.507 243.596C205.507 243.596 206.367 243.022 204.455 240.511C202.544 237.999 205.507 236.661 205.507 236.661C213.875 241.48 225.547 236.661 225.547 236.661C225.547 236.661 211.773 232.429 210.039 228.375C208.674 225.358 211.022 225.03 212.278 225.044C210.913 224.907 207.827 224.402 206.899 222.791C205.67 220.675 210.462 218.177 210.462 218.177C210.214 217.666 210.086 217.106 210.086 216.539C210.086 215.971 210.214 215.411 210.462 214.901C211.254 212.785 229.205 209.699 229.205 209.699C223.977 210.273 222.066 205.085 222.066 205.085C222.066 205.085 213.165 205.276 211.076 201.809C208.988 198.341 212.442 197.372 218.407 194.492C224.373 191.611 237.396 180.84 237.396 180.84C237.396 180.84 229.205 180.076 226.939 178.11C224.673 176.144 226.762 175.789 226.762 175.789C217.001 176.759 220.318 171.557 220.318 171.557C228.07 169.2 235.013 164.734 240.372 158.657C240.372 158.657 234.27 157.292 231.13 154.411C227.991 151.531 233.738 150.753 233.738 150.753C233.738 150.753 222.23 149.21 228.864 144.978C233.902 141.756 241.956 137.429 244.454 136.132C241.724 137.129 235.485 135.927 235.485 135.927C228.168 132.651 235.485 127.846 235.485 127.846C244.031 123.027 256.577 110.891 256.577 110.891C256.577 110.891 250.297 114.167 247.171 113.198C244.045 112.228 250.652 108.392 250.652 108.392C250.652 108.392 247.335 109.348 245.942 108.392C244.55 107.437 249.601 103 249.601 103C257.123 98.1266 266.378 85.3625 270.255 79.8746C274.132 85.3352 283.402 98.1266 290.91 103C290.91 103 295.974 107.423 294.568 108.392C293.162 109.362 289.872 108.392 289.872 108.392C289.872 108.392 296.493 112.242 293.353 113.198C290.214 114.153 283.934 110.891 283.934 110.891C283.934 110.891 296.493 123.027 305.039 127.846C305.039 127.846 312.356 132.651 305.039 135.927C305.039 135.927 298.814 137.129 296.07 136.132C298.568 137.497 306.623 141.756 311.66 144.978C318.281 149.21 306.773 150.753 306.773 150.753C306.773 150.753 312.534 151.531 309.394 154.411C306.254 157.292 300.152 158.657 300.152 158.657C305.511 164.734 312.454 169.2 320.206 171.557C320.206 171.557 323.509 176.759 313.749 175.789C313.749 175.789 315.837 176.172 313.571 178.11C311.305 180.049 303.114 180.84 303.114 180.84C303.114 180.84 316.192 191.625 322.117 194.492C328.042 197.359 331.536 198.341 329.434 201.809C327.332 205.276 318.513 205.085 318.513 205.085C318.513 205.085 316.588 210.273 311.36 209.699C311.36 209.699 329.325 212.785 330.103 214.901C330.355 215.41 330.485 215.971 330.485 216.539C330.485 217.107 330.355 217.667 330.103 218.177C330.103 218.177 334.895 220.675 333.68 222.791C332.751 224.402 329.707 224.907 328.301 225.044C329.543 225.044 331.837 225.358 330.54 228.375C328.792 232.47 315.032 236.661 315.032 236.661C315.032 236.661 326.704 241.48 335.072 236.661C335.072 236.661 338.034 238.026 336.123 240.511C334.212 242.995 335.072 243.596 335.072 243.596C335.072 243.596 339.427 240.32 337.516 245.33C335.604 250.34 325.489 253.411 325.489 253.411C325.489 253.411 331.236 254.38 329.489 257.507C327.741 260.633 320.424 264.237 312.411 265.015C304.397 265.793 293.585 262.899 293.585 262.899C293.585 262.899 300.903 266.749 295.852 268.865C290.801 270.981 285.04 266.134 285.04 266.134C285.04 266.134 286.091 271.062 281.9 269.37C279.073 268.135 276.464 266.453 274.173 264.387C274.173 264.387 272.876 271.663 270.255 269.916C267.648 271.663 266.337 264.387 266.337 264.387C264.065 266.447 261.474 268.125 258.665 269.356C254.488 271.049 255.539 266.121 255.539 266.121C255.539 266.121 249.778 270.94 244.727 268.851C239.676 266.762 246.993 262.885 246.993 262.885C246.993 262.885 236.181 265.766 228.168 265.001C220.155 264.237 212.824 260.565 211.076 257.493C209.329 254.421 215.09 253.398 215.09 253.398C215.09 253.398 204.974 250.326 203.063 245.316C201.152 240.306 205.507 243.596 205.507 243.596Z" fill="#455A64"/>
<path d="M281.49 243.8H263.784V314.651H281.49V243.8Z" fill="#6F4439"/>
<g opacity="0.1">
<path d="M76.5276 104.324C79.3266 103.888 82.0016 102.864 84.3772 101.321C84.7653 102.311 85.4942 103.131 86.4328 103.631C87.3714 104.132 88.4578 104.281 89.4965 104.051C91.542 103.493 93.4179 102.438 94.957 100.98C95.6561 102.024 96.5861 102.894 97.675 103.521C98.7639 104.148 99.9826 104.517 101.237 104.597C102.484 104.629 103.721 104.37 104.851 103.842C105.981 103.314 106.973 102.53 107.748 101.553C114.574 106.549 122.574 110.235 130.655 109.143C131.431 109.116 132.194 108.932 132.897 108.604C133.601 108.276 134.231 107.809 134.751 107.232C135.706 105.949 135.57 103.614 134.164 103C139.106 104.065 144.239 105.116 149.18 103.765C154.122 102.413 157.999 98.3041 156.934 92.0108C156.693 93.2513 156.265 94.4481 155.665 95.5601C154.992 96.4625 154.027 97.1041 152.935 97.3758C148.845 98.739 144.519 99.2533 140.224 98.8871C135.928 98.5209 131.753 97.282 127.952 95.2461C129.577 97.0345 128.458 100.393 126.423 101.553C124.389 102.713 121.932 102.345 119.598 101.908C117.092 101.522 114.649 100.801 112.335 99.7648C109.927 98.6464 107.969 96.7458 106.779 94.3724C105.963 96.0708 104.833 97.5993 103.448 98.8774C102.789 99.4866 101.956 99.8756 101.066 99.9905C100.176 100.105 99.2716 99.9407 98.4791 99.519C98.0981 99.2498 97.7767 98.9049 97.5347 98.5061C97.2928 98.1072 97.1355 97.6627 97.0728 97.2005C97.01 96.7382 97.0431 96.2679 97.17 95.8189C97.2968 95.37 97.5148 94.952 97.8102 94.5909C94.5707 96.6108 91.0046 98.0521 87.2713 98.8501C86.815 99.0214 86.3211 99.0675 85.841 98.9834C85.3609 98.8994 84.912 98.6884 84.541 98.3723C84.2602 97.9391 84.1247 97.4276 84.1542 96.9121C84.1836 96.3967 84.3765 95.904 84.7048 95.5055C84.9401 95.217 85.216 94.9641 85.5239 94.7547C80.3717 97.2685 74.5959 98.2177 68.9102 97.485V98.5089C71.9171 100.145 75.1316 101.366 78.4661 102.14C78.4661 102.14 77.8109 103 76.5276 104.324Z" fill="black"/>
</g>
<g opacity="0.1">
<path d="M151.202 72.8031L140.472 68.9398C140.472 68.9398 139.271 75.4651 132.704 75.1102C132.704 75.1102 127.025 75.588 126.588 68.9398C126.588 68.9398 121.128 74.2638 110.07 72.6939C110.07 72.6939 108.2 72.4482 108.637 69.4312C108.637 69.4312 105.688 73.1717 100.651 70.5097C95.6135 67.8477 99.9956 63.3837 99.9956 63.3837L100.664 63.0287C100.375 63.4456 100.18 63.9199 100.09 64.4193C100 64.9187 100.02 65.4314 100.146 65.9228C100.705 67.2879 102.426 67.1514 103.695 66.7419C107.277 65.6027 110.589 63.7446 113.429 61.2813C112.589 62.1778 111.91 63.2122 111.422 64.3392C111.176 64.9194 111.075 65.5505 111.128 66.1783C111.18 66.806 111.384 67.4117 111.722 67.9432C112.122 68.3521 112.603 68.6727 113.135 68.8843C113.666 69.0959 114.236 69.1938 114.807 69.1718C117.654 69.2712 120.484 68.7062 123.074 67.5214C125.664 66.3366 127.942 64.5646 129.728 62.3461C129.728 64.0662 129.373 65.759 129.428 67.4791C129.483 69.1991 130.233 71.0967 131.708 71.5745C133.482 72.1888 135.271 70.5233 136.049 68.6804C136.827 66.8375 137.005 64.7078 137.837 62.8922C140.41 65.4531 143.547 67.3748 146.997 68.5029C147.932 68.8609 148.939 68.9873 149.932 68.8715C150.446 68.7948 150.929 68.5822 151.332 68.2558C151.735 67.9293 152.044 67.5009 152.226 67.0149C152.374 66.5741 152.382 66.098 152.247 65.6527C152.113 65.2075 151.843 64.8152 151.475 64.5304C155.775 66.4825 165.727 69.9909 167.679 65.1037C168.73 67.2061 168.498 69.7315 163.857 71.8065C163.857 71.8065 155.57 73.4174 151.925 72.0796L154.519 73.4447L151.202 72.8031Z" fill="black"/>
</g>
<g opacity="0.1">
<path d="M166.49 139.531C161.349 139.009 156.326 137.668 151.61 135.558C147.525 138.475 142.625 140.03 137.606 140.003C132.587 139.976 127.705 138.368 123.652 135.408C120.542 138.292 116.527 140.006 112.293 140.255C108.059 140.504 103.87 139.273 100.444 136.773C96.7857 138.466 92.7858 139.79 88.8952 138.944C86.842 138.508 84.9959 137.392 83.6556 135.777C82.3154 134.161 81.5593 132.141 81.5098 130.043C82.6146 131.451 84.0249 132.589 85.6343 133.372C87.2437 134.155 89.0099 134.562 90.7995 134.562C92.5892 134.562 94.3554 134.155 95.9648 133.372C97.5741 132.589 98.9845 131.451 100.089 130.043C101.382 131.783 103.083 133.179 105.042 134.107C107.002 135.035 109.159 135.468 111.324 135.367C113.499 135.156 115.591 134.425 117.425 133.238C119.259 132.05 120.781 130.439 121.863 128.541C124.453 130.721 127.472 132.333 130.724 133.274C133.976 134.215 137.389 134.463 140.743 134.002C142.69 133.834 144.535 133.055 146.013 131.777C146.768 131.068 147.299 130.154 147.542 129.148C147.784 128.141 147.727 127.086 147.378 126.111C151.652 129.353 156.864 131.119 162.228 131.144C167.593 131.168 172.82 129.45 177.124 126.248L177.206 126.412C176.88 127.038 176.413 127.58 175.841 127.995C172.824 130.562 161.916 131.585 161.916 131.585C161.916 131.585 166.258 135.162 171.595 139.23C169.909 139.514 168.197 139.615 166.49 139.531Z" fill="black"/>
</g>
<path d="M32.065 217.931C32.065 217.931 33.2254 217.166 30.6999 213.835C28.1744 210.505 32.065 208.703 32.065 208.703C43.2046 215.105 58.7535 208.703 58.7535 208.703C58.7535 208.703 40.4197 203.092 38.0989 197.631C36.3652 193.618 39.4641 193.167 41.075 193.208C39.2047 193.003 35.1502 192.348 33.9216 190.205C32.2971 187.379 38.6723 184.048 38.6723 184.048C38.3417 183.37 38.1699 182.625 38.1699 181.871C38.1699 181.116 38.3417 180.372 38.6723 179.693C39.7235 176.867 63.6271 172.772 63.6271 172.772C56.6649 173.537 54.0711 166.615 54.0711 166.615C54.0711 166.615 42.2353 166.875 39.4504 162.261C36.6656 157.646 41.307 156.363 49.1975 152.513C57.088 148.664 74.4936 134.316 74.4936 134.316C74.4936 134.316 63.5725 133.292 60.5691 130.726C57.5658 128.159 60.3371 127.654 60.3371 127.654C47.3409 128.937 51.7503 122.003 51.7503 122.003C62.0685 118.867 71.3098 112.921 78.4388 104.829C78.4388 104.829 70.3162 103.041 66.1526 99.1911C61.9889 95.3414 69.6337 94.3175 69.6337 94.3175C69.6337 94.3175 54.3168 92.2698 63.1356 86.6318C69.8384 82.3452 80.5548 76.5707 83.8994 74.837C80.2408 76.2021 71.9544 74.5776 71.9544 74.5776C62.2073 70.2228 71.9544 63.8066 71.9544 63.8066C83.326 57.4041 100.035 41.2545 100.035 41.2545C100.035 41.2545 91.6807 45.6093 87.5034 44.3261C83.326 43.0429 92.1448 37.9236 92.1448 37.9236C92.1448 37.9236 87.7354 39.2068 85.8788 37.9236C84.0222 36.6404 90.7524 30.743 90.7524 30.743C100.8 24.2585 113.086 7.3035 118.274 0C123.434 7.3035 135.761 24.2995 145.768 30.7839C145.768 30.7839 152.498 36.6813 150.641 37.9646C148.784 39.2478 144.375 37.9646 144.375 37.9646C144.375 37.9646 153.194 43.0838 149.017 44.3671C144.839 45.6503 136.485 41.2955 136.485 41.2955C136.485 41.2955 153.194 57.4451 164.565 63.8476C164.565 63.8476 174.313 70.2638 164.565 74.6186C164.565 74.6186 156.279 76.2157 152.621 74.8779C155.965 76.6116 166.681 82.3862 173.384 86.6727C182.203 92.3108 166.886 94.3585 166.886 94.3585C166.886 94.3585 174.545 95.3823 170.367 99.232C166.19 103.082 158.081 104.87 158.081 104.87C165.21 112.961 174.451 118.908 184.77 122.044C184.77 122.044 189.179 128.978 176.183 127.695C176.183 127.695 178.913 128.2 175.951 130.767C172.988 133.333 162.026 134.357 162.026 134.357C162.026 134.357 179.432 148.718 187.322 152.554C195.213 156.39 199.854 157.687 197.069 162.301C194.285 166.916 182.449 166.656 182.449 166.656C182.449 166.656 179.896 173.578 172.893 172.813C172.893 172.813 196.796 176.908 197.848 179.734C198.178 180.413 198.35 181.157 198.35 181.912C198.35 182.666 198.178 183.411 197.848 184.089C197.848 184.089 204.223 187.42 202.598 190.246C201.37 192.389 197.315 193.044 195.445 193.249C197.097 193.249 200.155 193.659 198.421 197.672C196.1 203.133 177.766 208.703 177.766 208.703C177.766 208.703 193.315 215.105 204.455 208.703C204.455 208.703 208.4 210.491 205.82 213.835C203.24 217.18 204.455 217.931 204.455 217.931C204.455 217.931 210.257 213.576 207.704 220.238C205.151 226.9 191.691 231.009 191.691 231.009C191.691 231.009 199.349 232.292 197.029 236.388C194.708 240.483 184.961 245.37 174.285 246.394C163.61 247.418 149.221 243.568 149.221 243.568C149.221 243.568 158.968 248.701 152.238 251.513C145.508 254.326 137.85 247.923 137.85 247.923C137.85 247.923 139.215 254.489 133.672 252.237C129.934 250.595 126.486 248.359 123.461 245.616C123.461 245.616 121.727 255.295 118.246 252.974C114.765 255.295 113.031 245.616 113.031 245.616C110.015 248.357 106.576 250.592 102.848 252.237C97.2777 254.489 98.6702 247.923 98.6702 247.923C98.6702 247.923 91.0118 254.339 84.2816 251.513C77.5515 248.688 87.2986 243.568 87.2986 243.568C87.2986 243.568 72.91 247.418 62.2346 246.394C51.5592 245.37 41.7575 240.497 39.4914 236.388C37.2253 232.279 44.8291 231.009 44.8291 231.009C44.8291 231.009 31.3688 226.914 28.816 220.238C26.2632 213.562 32.065 217.931 32.065 217.931Z" fill="#455A64"/>
<g opacity="0.1">
<path d="M93.1545 197.139C93.1241 198.314 93.394 199.478 93.9386 200.519C94.4833 201.561 95.2847 202.446 96.267 203.091C98.1512 204.231 100.318 204.817 102.519 204.784C109.27 204.94 115.835 202.563 120.921 198.122C122.762 200.541 125.136 202.502 127.86 203.852C130.583 205.202 133.581 205.904 136.621 205.904C139.66 205.904 142.658 205.202 145.382 203.852C148.105 202.502 150.479 200.541 152.32 198.122C159.707 200.117 167.423 200.582 174.996 199.488C182.569 198.394 189.839 195.764 196.359 191.761L198.352 192.866C198.321 193.593 198.15 194.307 197.847 194.969C195.526 200.347 177.193 205.985 177.193 205.985C178.743 206.587 180.329 207.088 181.943 207.487C178.776 208.443 176.032 209.234 174.298 209.794C167.828 211.855 160.265 210.668 155.405 205.508C153.299 208.116 150.629 210.214 147.597 211.645C144.565 213.075 141.249 213.801 137.896 213.769C134.544 213.736 131.242 212.945 128.239 211.455C125.235 209.965 122.608 207.815 120.553 205.166C116.321 209.944 110.751 213.671 104.717 213.89C101.57 213.998 98.4777 213.05 95.9319 211.197C93.3861 209.344 91.5338 206.693 90.67 203.665C83.189 206.395 74.2883 203.009 69.8652 195.801C73.312 197.989 77.2604 199.26 81.3362 199.494C85.4119 199.728 89.4799 198.918 93.1545 197.139Z" fill="black"/>
</g>
<g opacity="0.1">
<path d="M257.915 108.693L262.01 107.068C262.762 108.068 263.866 108.743 265.098 108.959C266.33 109.174 267.598 108.913 268.645 108.229C271.426 106.655 273.725 104.352 275.293 101.567C275.293 101.567 281.395 105.594 282.023 103.041C282.181 102.317 282.075 101.56 281.725 100.907C281.374 100.254 280.803 99.7472 280.112 99.4782C280.236 99.6806 280.314 99.9079 280.34 100.144C280.366 100.38 280.339 100.619 280.262 100.843C280.003 101.307 279.402 101.294 278.897 101.171C277.274 100.723 275.839 99.7663 274.801 98.4406C273.464 101.192 271.263 103.431 268.535 104.816C268.024 105.201 267.439 105.475 266.816 105.62C266.193 105.766 265.547 105.78 264.918 105.662C264.608 105.55 264.328 105.369 264.097 105.134C263.866 104.899 263.691 104.616 263.584 104.305C263.476 103.993 263.44 103.662 263.477 103.335C263.514 103.007 263.624 102.693 263.798 102.413C262.885 103.641 261.724 104.663 260.391 105.413C259.058 106.163 257.581 106.625 256.058 106.768C255.43 106.768 254.611 106.645 254.488 105.963C254.458 105.555 254.591 105.153 254.857 104.843C255.744 103.549 256.848 102.418 258.119 101.499C255.356 103.531 252.089 104.768 248.673 105.075L245.724 105.471C245.628 105.826 245.724 106.113 245.915 106.277C247.28 107.246 250.625 106.277 250.625 106.277C250.625 106.277 244.004 110.14 247.144 111.095C250.284 112.051 256.55 108.788 256.55 108.788L255.785 109.526L257.915 108.693Z" fill="black"/>
</g>
<path d="M133.235 218.204H109.659V312.522H133.235V218.204Z" fill="#6F4439"/>
<g opacity="0.1">
<path d="M294.991 134.576L286.937 131.682C286.693 133.03 285.967 134.242 284.894 135.094C283.822 135.946 282.476 136.378 281.108 136.309C281.108 136.309 276.835 136.664 276.493 131.682C276.493 131.682 272.398 135.668 264.084 134.494C264.084 134.494 262.719 134.303 263.019 132.037C262.283 132.867 261.274 133.406 260.175 133.556C259.075 133.707 257.958 133.458 257.026 132.856C253.245 130.863 256.521 127.504 256.521 127.504L257.04 127.231C256.82 127.543 256.671 127.898 256.603 128.273C256.534 128.648 256.548 129.033 256.644 129.402C257.054 130.398 258.351 130.33 259.375 130.03C262.064 129.17 264.553 127.777 266.692 125.934C266.059 126.607 265.547 127.382 265.176 128.228C264.994 128.67 264.922 129.149 264.968 129.625C265.013 130.101 265.173 130.559 265.436 130.958C265.733 131.27 266.094 131.515 266.495 131.675C266.895 131.835 267.326 131.907 267.756 131.886C269.893 131.965 272.018 131.544 273.963 130.658C275.909 129.771 277.621 128.444 278.964 126.781C278.964 128.078 278.691 129.361 278.732 130.644C278.693 131.271 278.834 131.896 279.139 132.445C279.444 132.994 279.9 133.445 280.452 133.743C281.817 134.207 283.183 132.965 283.715 131.572C284.247 130.18 284.425 128.596 285.08 127.231C286.996 129.146 289.334 130.586 291.906 131.436C292.61 131.706 293.368 131.804 294.117 131.723C294.499 131.666 294.858 131.51 295.16 131.27C295.462 131.031 295.696 130.716 295.837 130.358C295.945 130.026 295.949 129.669 295.849 129.335C295.749 129.001 295.55 128.706 295.278 128.487C298.499 129.962 305.98 132.583 307.441 128.924C308.233 130.494 308.055 132.405 304.574 133.961C304.574 133.961 298.349 135.163 295.605 134.153L297.557 135.19L294.991 134.576Z" fill="black"/>
</g>
<path d="M84.4189 64.6258L84.7875 64.462C84.6579 64.4999 84.534 64.555 84.4189 64.6258Z" fill="black"/>
<path d="M270.851 450.279C275.603 450.317 280.22 448.693 283.904 445.687C287.588 442.681 290.108 438.481 291.029 433.812C294.381 416.776 298.693 392.941 298.83 366.173C298.914 349.759 295.246 328.975 290.175 313.395C282.795 290.596 266.919 270.508 243.894 263.932C213.986 255.382 203.159 258.655 181.948 269.801C158.882 281.908 152.641 304.634 128.626 314.746C105.317 324.552 77.2005 321.206 55.9474 334.929C37.256 347.004 28.137 370.194 27.399 392.456C26.8454 404.286 27.9921 416.134 30.8042 427.637C33.7033 439.787 44.6567 450.205 57.1598 450.311L270.851 450.279Z" fill="#0165B7"/>
<g opacity="0.4">
<path d="M270.851 450.279C275.603 450.317 280.22 448.693 283.904 445.687C287.588 442.681 290.108 438.481 291.029 433.812C294.381 416.776 298.693 392.941 298.83 366.173C298.914 349.759 295.246 328.975 290.175 313.395C282.795 290.596 266.919 270.508 243.894 263.932C213.986 255.382 203.159 258.655 181.948 269.801C158.882 281.908 152.641 304.634 128.626 314.746C105.317 324.552 77.2005 321.206 55.9474 334.929C37.256 347.004 28.137 370.194 27.399 392.456C26.8454 404.286 27.9921 416.134 30.8042 427.637C33.7033 439.787 44.6567 450.205 57.1598 450.311L270.851 450.279Z" fill="black"/>
</g>
<path d="M255.48 267.964C255.566 268.098 255.64 268.24 255.702 268.386C255.849 268.703 256.05 269.125 256.313 269.664C256.851 270.825 257.61 272.482 258.59 274.593L260.224 278.161C260.815 279.48 261.279 280.947 261.943 282.51C262.607 284.072 263.187 285.75 263.872 287.513C264.557 289.276 265.19 291.197 265.833 293.202C266.476 295.208 267.14 297.329 267.836 299.536C268.215 300.591 268.5 301.773 268.795 302.934C269.09 304.096 269.396 305.267 269.702 306.471L270.64 310.144C270.798 310.756 270.967 311.389 271.125 312.012C271.283 312.635 271.389 313.3 271.515 313.944C272.042 316.54 272.569 319.222 273.118 321.945C275.205 333.882 276.441 345.953 276.818 358.066C277.061 370.17 276.582 382.277 275.384 394.324C274.72 399.865 274.182 405.143 273.276 410.03C272.886 412.479 272.559 414.854 272.148 417.113C271.737 419.372 271.294 421.546 270.893 423.615C270.145 427.774 269.228 431.479 268.49 434.741C268.11 436.377 267.762 437.907 267.435 439.29L266.381 443.09C265.77 445.338 265.327 447.101 264.968 448.368L264.578 449.729C264.547 449.886 264.498 450.038 264.431 450.183C264.449 450.023 264.481 449.864 264.526 449.708C264.599 449.371 264.715 448.917 264.853 448.336C265.158 447.101 265.59 445.328 266.149 443.058C266.434 441.918 266.761 440.641 267.109 439.258C267.456 437.876 267.752 436.335 268.163 434.698C268.869 431.426 269.755 427.721 270.472 423.562C270.865 421.494 271.273 419.33 271.694 417.071C272.084 414.801 272.401 412.426 272.749 409.988C273.571 405.101 274.087 399.823 274.741 394.303C275.906 382.275 276.363 370.189 276.112 358.108C275.742 346.036 274.527 334.005 272.475 322.103C271.947 319.366 271.424 316.706 270.904 314.123L270.524 312.202L270.05 310.323C269.734 309.088 269.428 307.864 269.122 306.66C268.816 305.457 268.521 304.286 268.237 303.124C267.952 301.963 267.667 300.823 267.298 299.736L265.327 293.403C264.715 291.397 264.136 289.476 263.419 287.713C262.702 285.951 262.122 284.262 261.542 282.7C260.962 281.137 260.435 279.66 259.877 278.34L258.348 274.677C257.42 272.566 256.693 270.877 256.176 269.706L255.628 268.407C255.562 268.266 255.513 268.117 255.48 267.964Z" fill="#263238"/>
<path d="M58.9522 450.11L39.0063 481.386L0 456.728C2.58285 453.15 27.4731 458.417 27.4731 458.417L39.4385 437.855L58.9522 450.11Z" fill="#455A64"/>
<g opacity="0.6">
<path d="M40.6196 464.349C40.9199 464.702 41.0805 465.152 41.0708 465.615C41.061 466.079 40.8817 466.522 40.5669 466.861C40.2316 467.182 39.7861 467.36 39.3229 467.36C38.8596 467.36 38.4142 467.182 38.0789 466.861C37.7578 466.487 37.5865 466.007 37.5982 465.514C37.6099 465.021 37.8037 464.549 38.1421 464.191C38.53 463.899 39.0157 463.769 39.4973 463.828C39.9788 463.887 40.4189 464.131 40.725 464.508" fill="white"/>
</g>
<g opacity="0.6">
<path d="M39.0057 481.386L40.8927 478.156L2.81419 455.725C2.81419 455.725 0.600331 455.388 0.0205078 456.781L39.0057 481.386Z" fill="white"/>
</g>
<path d="M26.9878 457.815C26.8718 458.016 27.7679 458.702 28.3161 459.926C28.8643 461.151 28.8643 462.249 29.0857 462.28C29.3071 462.312 29.7182 461.035 29.033 459.589C28.3477 458.142 27.051 457.615 26.9878 457.815Z" fill="#263238"/>
<path d="M21.8326 456.929C21.6744 457.087 22.2859 457.932 22.4229 459.145C22.56 460.359 22.2121 461.33 22.4229 461.436C22.6338 461.542 23.4139 460.549 23.2136 459.04C23.0133 457.53 21.9485 456.749 21.8326 456.929Z" fill="#263238"/>
<path d="M16.4144 460.359C16.562 460.507 17.4686 459.726 17.5951 458.364C17.7216 457.003 17.1418 456.031 16.9626 456.148C16.7834 456.264 16.9626 457.203 16.8255 458.259C16.6885 459.314 16.2352 460.222 16.4144 460.359Z" fill="#263238"/>
<path d="M30.2344 453.435C30.2344 453.656 31.2359 453.952 32.269 454.701C33.3022 455.451 33.9242 456.327 34.1245 456.221C34.3248 456.116 33.9558 454.934 32.7223 454.11C31.4889 453.287 30.2344 453.224 30.2344 453.435Z" fill="#263238"/>
<path d="M34.0829 449.392C34.0302 449.466 34.7049 450.057 36.0438 450.616C36.8251 450.938 37.643 451.161 38.4791 451.281C38.9752 451.349 39.4753 451.385 39.976 451.387C40.2704 451.408 40.5661 451.379 40.8511 451.302C41.0617 451.246 41.2476 451.121 41.3794 450.947C41.5111 450.773 41.5812 450.56 41.5785 450.342C41.5676 450.149 41.5113 449.961 41.4142 449.794C41.3171 449.628 41.1819 449.486 41.0197 449.381C40.7747 449.224 40.5084 449.104 40.2291 449.022C38.933 448.587 37.5488 448.482 36.2019 448.716C35.4297 448.785 34.6955 449.082 34.0935 449.571C34.0935 449.698 34.9579 449.371 36.3179 449.265C37.1068 449.203 37.9004 449.242 38.6794 449.381C39.135 449.468 39.5827 449.591 40.0182 449.751C40.5032 449.899 40.851 450.12 40.8405 450.374C40.83 450.627 40.8405 450.5 40.6613 450.564C40.4501 450.61 40.2343 450.631 40.0182 450.627C39.5333 450.627 39.0589 450.627 38.6161 450.564C37.8192 450.48 37.032 450.321 36.2652 450.089C35.5557 449.803 34.8264 449.57 34.0829 449.392Z" fill="#263238"/>
<path d="M34.1567 449.825C34.1567 449.888 35.0106 449.445 35.8645 448.263C36.343 447.557 36.6994 446.775 36.9188 445.951C37.0492 445.46 37.1338 444.958 37.1718 444.452C37.2272 444.127 37.1982 443.793 37.0874 443.483C36.9766 443.172 36.7878 442.895 36.5392 442.679C36.3671 442.565 36.1655 442.505 35.9594 442.505C35.7533 442.505 35.5517 442.565 35.3796 442.679C35.1396 442.846 34.9232 443.045 34.7365 443.27C33.8189 444.339 33.3603 445.727 33.4609 447.133C33.5874 448.632 34.2305 449.36 34.2937 449.308C34.1619 448.585 34.0669 447.855 34.0091 447.123C34.0265 446.349 34.2137 445.589 34.5573 444.895C34.7543 444.509 35.0064 444.153 35.3058 443.84C35.6221 443.46 35.991 443.228 36.1175 443.365C36.2441 443.502 36.4444 444.009 36.4022 444.42C36.3833 444.879 36.3198 445.335 36.2124 445.782C36.0357 446.548 35.748 447.284 35.3585 447.967C34.726 449.139 34.0724 449.73 34.1567 449.825Z" fill="#263238"/>
<path d="M86.8573 352.788L74.913 387.885L31.1943 373.224C32.8495 369.128 58.2773 368.315 58.2773 368.315L65.0033 345.494L86.8573 352.788Z" fill="#455A64"/>
<g opacity="0.6">
<path d="M72.4253 370.954C72.802 371.223 73.067 371.621 73.17 372.072C73.273 372.524 73.2068 372.997 72.9841 373.403C72.7308 373.792 72.3374 374.069 71.8858 374.175C71.4342 374.281 70.9591 374.209 70.5594 373.973C70.1587 373.689 69.8775 373.266 69.7704 372.786C69.6633 372.307 69.7378 371.804 69.9795 371.376C70.286 370.997 70.7281 370.751 71.2121 370.692C71.6962 370.633 72.1843 370.765 72.5729 371.06" fill="white"/>
</g>
<g opacity="0.6">
<path d="M74.913 387.885L75.9672 384.296L33.6612 371.577C33.6612 371.577 31.4263 371.767 31.1943 373.224L74.913 387.885Z" fill="white"/>
</g>
<path d="M57.6346 367.851C57.5713 368.073 58.615 368.527 59.4268 369.561C60.2385 370.596 60.481 371.672 60.734 371.672C60.987 371.672 61.0503 370.311 60.0382 369.065C59.0262 367.82 57.6557 367.64 57.6346 367.851Z" fill="#263238"/>
<path d="M52.4156 368.21C52.2997 368.4 53.1009 369.075 53.5226 370.226C53.9443 371.376 53.8388 372.4 54.0497 372.463C54.2605 372.527 54.8087 371.355 54.2605 369.941C53.7123 368.526 52.4894 368.009 52.4156 368.21Z" fill="#263238"/>
<path d="M47.9775 372.844C48.1567 372.96 48.8104 371.989 48.6522 370.637C48.4941 369.286 47.598 368.526 47.5031 368.621C47.4082 368.716 47.7667 369.603 47.8721 370.732C47.9775 371.862 47.7667 372.749 47.9775 372.844Z" fill="#263238"/>
<path d="M59.7526 362.826C59.7526 363.048 60.8068 363.08 62.0297 363.565C63.2526 364.051 64.0222 364.748 64.1909 364.621C64.3596 364.494 63.7165 363.407 62.3249 362.848C60.9333 362.288 59.6999 362.615 59.7526 362.826Z" fill="#263238"/>
<path d="M62.5254 357.982C63.1799 358.411 63.9367 358.659 64.7182 358.7C65.5553 358.829 66.4057 358.851 67.2483 358.763C67.7452 358.716 68.2383 358.634 68.7242 358.52C69.019 358.466 69.3035 358.366 69.5676 358.225C69.7482 358.122 69.8914 357.964 69.9767 357.774C70.062 357.585 70.0848 357.373 70.042 357.169C69.9811 356.987 69.8805 356.82 69.7474 356.681C69.6143 356.542 69.452 356.435 69.2724 356.367C68.993 356.274 68.7021 356.221 68.408 356.208C67.9028 356.166 67.395 356.166 66.8899 356.208C66.0422 356.298 65.2135 356.519 64.4335 356.863C63.1052 357.465 62.4832 358.14 62.5465 358.214C62.6097 358.288 63.3371 357.813 64.6549 357.38C65.4067 357.135 66.1856 356.983 66.9742 356.926C67.4338 356.89 67.8956 356.89 68.3552 356.926C68.8613 356.926 69.2619 357.085 69.304 357.327C69.3462 357.57 69.304 357.454 69.1775 357.56C68.9847 357.659 68.7789 357.73 68.5661 357.771C68.1116 357.89 67.6504 357.981 67.1851 358.045C66.3959 358.155 65.5982 358.19 64.8025 358.151C64.0488 358.037 63.2876 357.981 62.5254 357.982Z" fill="#263238"/>
<path d="M62.705 358.383C62.7682 358.436 63.4535 357.813 63.9911 356.451C64.2994 355.652 64.4705 354.806 64.4971 353.949C64.5094 353.444 64.4705 352.938 64.3812 352.44C64.3569 352.107 64.247 351.787 64.0623 351.509C63.8775 351.232 63.6242 351.007 63.3269 350.857C63.1312 350.793 62.921 350.788 62.7225 350.842C62.5239 350.897 62.3455 351.008 62.2095 351.163C62.0137 351.383 61.8472 351.628 61.714 351.891C61.474 352.355 61.3069 352.854 61.2185 353.369C61.0617 354.229 61.1233 355.115 61.3977 355.944C61.8721 357.369 62.6733 357.918 62.7155 357.855C62.4132 357.188 62.1493 356.504 61.9248 355.807C61.7608 355.049 61.7608 354.264 61.9248 353.506C62.0214 353.072 62.1775 352.652 62.3887 352.261C62.6101 351.817 62.9158 351.501 63.0739 351.606C63.2321 351.712 63.5378 352.144 63.601 352.577C63.6874 353.03 63.7332 353.489 63.7381 353.949C63.7454 354.738 63.6425 355.523 63.4324 356.282C63.095 357.581 62.5995 358.309 62.705 358.383Z" fill="#263238"/>
<path d="M159.251 342.74C159.251 342.74 126.349 289.867 117.325 275.185C106.867 258.222 85.4239 260.407 80.2792 275.691C81.4284 272.25 76.2732 287.408 58.9102 344.017L88.1649 352.398L106.983 336.396L114.447 357.771L159.251 342.74Z" fill="#263238"/>
<path d="M154.929 283.829L142.953 324.848L98.6436 329.608V337.483L163.752 338.38L172.618 284.969L154.929 283.829Z" fill="#FFBE9D"/>
<path d="M165.482 339.974H105.001C100.292 339.973 95.6367 340.973 91.3424 342.907C87.0482 344.841 83.2127 347.666 80.0894 351.194C77.9951 353.605 76.4421 356.438 75.5352 359.501L31.2578 442.214L59.5426 457.857L112.422 382.344L141.941 382.702L207.745 341.568L165.482 339.974Z" fill="#263238"/>
<path d="M105.422 366.173C106.035 366.783 106.56 367.476 106.982 368.231C108.096 369.994 109.046 371.856 109.818 373.794C110.586 375.728 111.178 377.728 111.589 379.768C111.799 380.606 111.899 381.469 111.884 382.333C111.705 382.333 111.115 378.47 109.302 373.994C107.488 369.519 105.274 366.268 105.422 366.173Z" fill="#455A64"/>
<path d="M42.9386 291.503L67.5337 339.974H145.188L142.025 333.641L119.528 332.965L101.269 292.116C100.713 290.861 99.8053 289.794 98.6566 289.045C97.5079 288.296 96.1669 287.896 94.7959 287.893H45.142C44.7168 287.891 44.2983 287.998 43.9269 288.205C43.5554 288.413 43.2438 288.712 43.0221 289.075C42.8004 289.439 42.6762 289.853 42.6616 290.278C42.647 290.704 42.7424 291.126 42.9386 291.503Z" fill="#E0E0E0"/>
<path d="M82.672 312.952C82.672 313.578 82.4865 314.19 82.139 314.711C81.7915 315.232 81.2976 315.638 80.7197 315.878C80.1418 316.117 79.5058 316.18 78.8923 316.058C78.2788 315.936 77.7153 315.634 77.273 315.191C76.8307 314.748 76.5295 314.184 76.4075 313.57C76.2854 312.955 76.348 312.319 76.5874 311.74C76.8268 311.161 77.2322 310.667 77.7523 310.319C78.2724 309.971 78.8838 309.785 79.5093 309.785C80.3481 309.785 81.1526 310.119 81.7457 310.713C82.3388 311.307 82.672 312.112 82.672 312.952Z" fill="#263238"/>
<path d="M240.079 256.934C237.496 245.228 220.048 240.784 212.184 240.763C201.209 240.763 202.2 240.067 191.416 242.009H189.992C157.206 240.679 153.432 285.772 153.432 285.772L168.381 286.986L164.428 318.05L152.989 340.037L215.958 339.942L219.479 288.611L245.835 287.915C245.835 287.915 242.693 268.767 240.079 256.934Z" fill="#0165B7"/>
<path d="M170.194 266.677C170.363 266.677 169.256 277.644 167.716 291.134C166.177 304.624 164.807 315.528 164.638 315.517C164.469 315.507 165.576 304.55 167.116 291.06C168.655 277.57 170.025 266.656 170.194 266.677Z" fill="#263238"/>
<g opacity="0.2">
<path d="M218.287 266.677C215.599 279.533 212.099 292.738 209.421 305.595C208.841 308.328 208.23 311.157 206.564 313.385C205.465 314.741 204.176 315.932 202.737 316.921C197.466 320.889 191.868 324.616 185.648 326.885C194.633 326.125 203.533 324.574 212.246 322.251C213.769 321.991 215.169 321.252 216.242 320.14C216.986 319.001 217.402 317.679 217.444 316.319C219.373 299.842 218.814 283.228 218.287 266.634" fill="black"/>
</g>
<path d="M131.313 323.866L150.817 321.523L164.574 330.548L217.233 317.955L218.772 288.569L242.386 287.978L241.828 322.473C241.767 325.111 241.188 327.71 240.123 330.124C239.058 332.537 237.527 334.715 235.62 336.535C233.712 338.355 231.464 339.78 229.006 340.729C226.547 341.678 223.925 342.131 221.291 342.064L144.249 339.953L140.97 333.388L124.461 332.839L131.313 323.866Z" fill="#FFBE9D"/>
<path d="M217.233 317.955C216.911 318.083 216.58 318.186 216.242 318.261L213.385 319L202.843 321.639L167.969 330.083L164.722 330.854H164.596L164.48 330.78L150.775 321.734H150.954L131.43 323.993L131.556 323.919L126.401 330.474L125.01 332.205C124.859 332.414 124.686 332.605 124.493 332.775C124.62 332.552 124.764 332.341 124.925 332.142L126.233 330.347L131.251 323.687L131.303 323.624H131.377L150.817 321.238H150.923H151.007L164.775 330.252H164.533L167.78 329.471L202.706 321.185L213.301 318.736L216.19 318.103C216.533 318.025 216.882 317.976 217.233 317.955Z" fill="#EB996E"/>
<path d="M142.647 329.471C140.132 329.776 137.598 329.879 135.067 329.777H133.675L133.876 329.703C132.346 331.102 130.703 332.369 128.963 333.493C130.343 331.955 131.857 330.542 133.486 329.271L133.57 329.197H135.067C137.597 329.085 140.132 329.177 142.647 329.471Z" fill="#EB996E"/>
<path d="M226.394 322.842C225.392 321.264 224.088 319.901 222.556 318.831C219.942 317.142 217.285 317.301 217.285 317.111C217.828 316.91 218.415 316.863 218.982 316.973C220.366 317.115 221.699 317.575 222.876 318.316C224.054 319.058 225.045 320.061 225.772 321.248C226.117 321.714 226.332 322.265 226.394 322.842Z" fill="#EB996E"/>
<path d="M245.845 288.115L240.099 288.326C235.25 288.474 228.503 288.643 221.123 288.79L218.751 288.843H218.445V288.548C218.182 281.665 218.298 275.533 218.445 271.131C218.508 268.925 218.593 267.162 218.667 265.938C218.672 265.304 218.732 264.672 218.846 264.048C218.913 264.679 218.931 265.315 218.899 265.948C218.899 267.268 218.899 269.009 218.899 271.142C218.899 275.543 218.825 281.697 219.109 288.516L218.793 288.231H221.176C228.555 288.083 235.302 287.988 240.152 287.946H245.908C247.204 287.883 243.736 288.03 245.845 288.115Z" fill="#263238"/>
<path d="M205.279 288.294C205.067 288.821 204.813 289.329 204.52 289.814C204.267 290.3 203.95 290.87 203.529 291.535C203.107 292.2 202.675 292.96 202.105 293.752C200.812 295.638 199.404 297.443 197.888 299.156C196.018 301.244 194.006 303.201 191.869 305.014C189.707 306.798 187.429 308.434 185.048 309.912C183.095 311.093 181.071 312.151 178.986 313.079C178.101 313.501 177.268 313.807 176.551 314.134C175.834 314.461 175.202 314.651 174.685 314.81C174.161 315.023 173.617 315.182 173.062 315.285C173.559 315.018 174.077 314.792 174.611 314.609C175.117 314.419 175.739 314.176 176.435 313.86C177.131 313.543 177.953 313.216 178.818 312.804C180.862 311.825 182.85 310.732 184.774 309.532C189.497 306.593 193.784 303.004 197.509 298.871C199.03 297.19 200.459 295.429 201.789 293.593C202.369 292.812 202.843 292.073 203.276 291.429C203.708 290.785 204.056 290.237 204.33 289.772C204.604 289.254 204.921 288.759 205.279 288.294Z" fill="#263238"/>
<path d="M238.929 254.759C238.673 254.784 238.416 254.784 238.16 254.759L235.956 254.686L227.87 254.369C221.039 254.137 211.604 253.957 201.188 254.094C190.772 254.232 181.337 254.696 174.516 255.15L166.441 255.678L164.248 255.815C163.992 255.838 163.735 255.838 163.479 255.815C163.726 255.746 163.981 255.707 164.238 255.699L166.42 255.456C168.328 255.256 171.079 255.013 174.485 254.749C181.305 254.221 190.741 253.693 201.178 253.567C211.614 253.44 221.06 253.672 227.892 254.01C231.297 254.168 234.059 254.337 235.967 254.485L238.16 254.664C238.419 254.672 238.676 254.704 238.929 254.759Z" fill="#FAFAFA"/>
<path d="M168.866 276.229C164.262 276.595 159.637 276.595 155.034 276.229C159.637 275.864 164.262 275.864 168.866 276.229Z" fill="#FAFAFA"/>
<path d="M218.182 278.615C218.027 278.675 217.863 278.71 217.697 278.72L216.274 278.931C215.04 279.1 213.259 279.311 211.003 279.544C206.575 279.998 200.46 280.494 193.65 280.758C186.84 281.021 180.715 281.011 176.266 280.895C174.042 280.842 172.239 280.768 170.995 280.694L169.572 280.599C169.404 280.599 169.237 280.574 169.076 280.525C169.24 280.5 169.407 280.5 169.572 280.525H171.005H176.277C180.725 280.525 186.871 280.525 193.64 280.23C200.408 279.934 206.543 279.533 210.971 279.174L216.242 278.741L217.676 278.636C217.842 278.6 218.013 278.593 218.182 278.615Z" fill="#FAFAFA"/>
<path d="M243.588 274.298C243.588 274.445 237.979 275.079 231.032 275.701C224.085 276.324 218.445 276.694 218.381 276.546C218.318 276.398 223.99 275.765 230.937 275.153C237.885 274.54 243.525 274.15 243.588 274.298Z" fill="#FAFAFA"/>
<path d="M188.865 306.429C187.772 306.62 186.664 306.708 185.555 306.693C183.499 306.777 180.663 306.819 177.522 306.745C174.38 306.671 171.555 306.492 169.51 306.313C168.399 306.271 167.295 306.129 166.21 305.89C167.315 305.802 168.426 305.802 169.531 305.89C171.586 305.975 174.412 306.08 177.543 306.154C180.674 306.228 183.499 306.26 185.544 306.281C186.653 306.244 187.764 306.293 188.865 306.429Z" fill="#FAFAFA"/>
<path d="M217.824 307.336C217.438 307.467 217.038 307.552 216.632 307.59C215.863 307.727 214.745 307.885 213.354 308.065C210.581 308.402 206.723 308.761 202.453 308.93C198.184 309.099 194.315 309.036 191.521 308.93C190.119 308.867 188.991 308.793 188.211 308.719C187.804 308.714 187.401 308.657 187.009 308.55C187.412 308.505 187.818 308.505 188.221 308.55H191.531C194.325 308.55 198.184 308.55 202.432 308.413C206.681 308.276 210.529 307.949 213.312 307.706L216.611 307.41C217.011 307.335 217.418 307.31 217.824 307.336Z" fill="#FAFAFA"/>
<path d="M172.132 327.54C170.268 327.43 168.441 326.972 166.745 326.189C164.978 325.565 163.341 324.621 161.917 323.402C162.012 323.265 164.131 324.552 166.946 325.682C169.76 326.811 172.164 327.381 172.132 327.54Z" fill="#FAFAFA"/>
<path d="M198.425 183.668H197.371C192.588 183.645 187.97 185.416 184.427 188.631C180.883 191.847 178.671 196.275 178.226 201.043C177.488 210.152 176.803 220.222 176.877 225.109C177.024 235.232 187.419 236.784 187.419 236.784L187.029 245.766C186.921 248.989 188.072 252.126 190.237 254.513C192.402 256.9 195.411 258.348 198.625 258.549C200.257 258.644 201.891 258.415 203.433 257.873C204.976 257.332 206.395 256.489 207.61 255.395C208.825 254.3 209.811 252.975 210.511 251.496C211.21 250.017 211.61 248.414 211.687 246.78L213.795 204.04C214.734 193.527 209.22 184.26 198.425 183.668Z" fill="#FFBE9D"/>
<path d="M187.283 236.762C192.089 236.76 196.797 235.407 200.872 232.857C200.872 232.857 197.709 240.151 187.325 239.253L187.283 236.762Z" fill="#EB996E"/>
<path d="M181.864 207.323C181.867 207.705 182.018 208.071 182.286 208.343C182.554 208.615 182.917 208.772 183.298 208.78C183.484 208.796 183.672 208.774 183.85 208.717C184.028 208.66 184.193 208.567 184.336 208.446C184.478 208.324 184.595 208.175 184.679 208.008C184.763 207.84 184.813 207.658 184.827 207.471C184.808 207.099 184.65 206.748 184.384 206.488C184.119 206.228 183.765 206.077 183.393 206.067C183.025 206.035 182.658 206.148 182.372 206.383C182.087 206.618 181.904 206.955 181.864 207.323Z" fill="#263238"/>
<path d="M180.431 205.983C180.61 206.173 181.727 205.36 183.33 205.36C184.932 205.36 186.092 206.141 186.26 205.951C186.429 205.761 186.166 205.529 185.649 205.159C184.958 204.701 184.148 204.456 183.319 204.456C182.49 204.456 181.68 204.701 180.989 205.159C180.504 205.56 180.336 205.898 180.431 205.983Z" fill="#263238"/>
<path d="M196.75 207.798C196.755 208.179 196.907 208.544 197.175 208.815C197.442 209.086 197.803 209.244 198.184 209.255C198.37 209.271 198.558 209.249 198.736 209.192C198.914 209.134 199.079 209.042 199.221 208.92C199.364 208.799 199.48 208.65 199.565 208.483C199.649 208.315 199.699 208.133 199.712 207.946C199.707 207.561 199.552 207.194 199.28 206.922C199.009 206.65 198.642 206.495 198.258 206.489C197.884 206.463 197.516 206.586 197.233 206.832C196.951 207.077 196.777 207.425 196.75 207.798Z" fill="#263238"/>
<path d="M195.315 206.247C195.495 206.437 196.623 205.624 198.214 205.624C199.806 205.624 200.977 206.394 201.156 206.204C201.335 206.014 201.05 205.782 200.534 205.423C199.84 204.955 199.019 204.711 198.183 204.727C197.356 204.719 196.548 204.974 195.874 205.455C195.389 205.824 195.22 206.162 195.315 206.247Z" fill="#263238"/>
<path d="M190.338 217.784C189.495 217.53 188.624 217.382 187.745 217.34C187.344 217.34 186.954 217.224 186.88 216.95C186.846 216.537 186.942 216.123 187.155 215.768L188.356 212.749C190.011 208.442 191.213 204.896 191.045 204.832C190.876 204.769 189.368 208.21 187.703 212.517C187.302 213.572 186.923 214.628 186.554 215.557C186.304 216.037 186.233 216.591 186.353 217.119C186.416 217.258 186.507 217.382 186.622 217.482C186.737 217.582 186.871 217.656 187.017 217.699C187.245 217.758 187.478 217.79 187.713 217.794C188.585 217.902 189.467 217.898 190.338 217.784Z" fill="#263238"/>
<path d="M195.031 218.85C194.778 218.85 194.778 220.528 193.292 221.732C191.805 222.935 189.971 222.787 189.96 222.988C189.95 223.188 190.371 223.315 191.151 223.325C192.162 223.344 193.146 223.008 193.935 222.375C194.681 221.781 195.166 220.917 195.284 219.969C195.347 219.262 195.157 218.839 195.031 218.85Z" fill="#263238"/>
<path d="M195.674 200.156C195.832 200.578 197.424 200.378 199.301 200.589C201.177 200.8 202.685 201.296 202.927 200.916C203.043 200.737 202.78 200.346 202.168 199.934C201.349 199.43 200.428 199.117 199.472 199.016C198.516 198.916 197.55 199.031 196.644 199.354C195.959 199.618 195.611 199.955 195.674 200.156Z" fill="#263238"/>
<path d="M180.999 201.486C181.283 201.834 182.38 201.486 183.697 201.486C185.015 201.486 186.143 201.718 186.396 201.349C186.512 201.169 186.333 200.81 185.848 200.483C185.187 200.08 184.424 199.879 183.651 199.903C182.878 199.928 182.128 200.177 181.494 200.62C181.03 200.948 180.883 201.317 180.999 201.486Z" fill="#263238"/>
<path d="M212.279 211.535C212.458 211.461 219.405 209.424 219.195 216.38C218.984 223.336 211.899 221.658 211.899 221.468C211.899 221.278 212.279 211.535 212.279 211.535Z" fill="#FFBE9D"/>
<path d="M213.522 218.902C213.522 218.902 213.638 218.997 213.849 219.092C214.144 219.208 214.471 219.208 214.766 219.092C215.229 218.83 215.613 218.447 215.876 217.985C216.14 217.522 216.273 216.997 216.263 216.464C216.305 215.868 216.204 215.271 215.968 214.722C215.908 214.503 215.794 214.301 215.638 214.136C215.482 213.97 215.287 213.845 215.072 213.772C214.932 213.733 214.784 213.741 214.65 213.797C214.516 213.852 214.404 213.952 214.334 214.078C214.229 214.268 214.271 214.416 214.229 214.427C214.186 214.437 214.081 214.3 214.155 214.015C214.197 213.845 214.298 213.695 214.439 213.593C214.646 213.471 214.887 213.422 215.125 213.456C215.405 213.514 215.666 213.641 215.885 213.825C216.104 214.009 216.274 214.245 216.379 214.511C216.662 215.118 216.788 215.785 216.748 216.453C216.754 217.075 216.578 217.685 216.24 218.207C215.903 218.728 215.42 219.139 214.851 219.388C214.66 219.438 214.461 219.445 214.268 219.408C214.075 219.372 213.892 219.293 213.733 219.177C213.522 219.071 213.491 218.913 213.522 218.902Z" fill="#EB996E"/>
<path d="M207.629 190.973L178.037 191.606C179.06 189.634 180.556 187.948 182.391 186.698C186.269 183.79 190.948 182.149 195.79 182.001C200.608 181.916 210.433 187.648 213.923 190.889C216.727 193.485 216.706 195.734 216.706 195.734C217.149 199.481 215.009 203.724 214.155 207.345C213.712 209.245 212.858 214.966 212.858 214.966C211.224 214.966 210.623 213.699 210.876 212.126L211.171 205.962C209.552 204.728 208.387 202.992 207.861 201.024C207.334 199.056 207.475 196.969 208.262 195.09C208.683 194.583 209.579 192.018 207.629 190.973Z" fill="#263238"/>
<path d="M201.419 212.844C201.442 212.848 201.466 212.848 201.489 212.843C201.511 212.838 201.533 212.828 201.552 212.814C201.571 212.8 201.586 212.782 201.598 212.762C201.61 212.742 201.617 212.719 201.62 212.696C201.626 212.673 201.628 212.649 201.625 212.625C201.622 212.602 201.614 212.579 201.603 212.559C201.591 212.538 201.575 212.52 201.556 212.505C201.537 212.491 201.516 212.48 201.493 212.474C201.444 212.468 201.395 212.481 201.355 212.511C201.316 212.54 201.29 212.584 201.282 212.633C201.273 212.679 201.282 212.727 201.307 212.766C201.333 212.806 201.373 212.833 201.419 212.844Z" fill="#EB996E"/>
<path d="M198.361 212.179C198.388 212.181 198.414 212.179 198.44 212.172C198.465 212.164 198.489 212.152 198.51 212.135C198.53 212.118 198.547 212.098 198.56 212.074C198.573 212.051 198.58 212.026 198.583 211.999C198.597 211.95 198.591 211.898 198.568 211.853C198.544 211.808 198.504 211.773 198.456 211.756C198.43 211.753 198.403 211.756 198.378 211.763C198.352 211.771 198.329 211.783 198.308 211.8C198.288 211.816 198.27 211.837 198.258 211.86C198.245 211.884 198.237 211.909 198.235 211.936C198.221 211.985 198.227 212.037 198.25 212.082C198.274 212.127 198.314 212.162 198.361 212.179Z" fill="#EB996E"/>
<path d="M196.317 212.137C196.412 212.137 196.507 212.031 196.528 211.873C196.549 211.714 196.528 211.588 196.381 211.577C196.233 211.567 196.191 211.683 196.18 211.83C196.169 211.978 196.222 212.126 196.317 212.137Z" fill="#EB996E"/>
<path d="M199.922 214.712C200.016 214.712 200.101 214.659 200.09 214.607C200.08 214.554 200.016 214.49 199.922 214.49C199.827 214.49 199.742 214.543 199.742 214.607C199.742 214.67 199.827 214.712 199.922 214.712Z" fill="#EB996E"/>
<path d="M197.13 214.089C197.179 214.09 197.225 214.071 197.261 214.038C197.296 214.004 197.317 213.959 197.32 213.91C197.326 213.861 197.313 213.812 197.283 213.772C197.254 213.733 197.21 213.707 197.162 213.699C197.113 213.699 197.066 213.717 197.031 213.751C196.996 213.784 196.974 213.83 196.972 213.878C196.967 213.903 196.968 213.928 196.973 213.952C196.979 213.976 196.99 213.999 197.005 214.019C197.02 214.038 197.038 214.055 197.06 214.067C197.081 214.079 197.105 214.087 197.13 214.089Z" fill="#EB996E"/>
<path d="M182.582 212.401C182.619 212.41 182.658 212.409 182.694 212.396C182.73 212.384 182.761 212.361 182.784 212.33C182.806 212.3 182.819 212.263 182.821 212.225C182.823 212.187 182.813 212.149 182.793 212.117C182.773 212.085 182.743 212.059 182.709 212.044C182.674 212.028 182.635 212.023 182.598 212.03C182.561 212.037 182.526 212.054 182.499 212.081C182.472 212.108 182.453 212.142 182.445 212.179C182.436 212.226 182.444 212.276 182.47 212.317C182.495 212.358 182.536 212.388 182.582 212.401Z" fill="#EB996E"/>
<path d="M180.504 212.242C180.598 212.242 180.683 212.157 180.704 212.041C180.7 212.008 180.686 211.977 180.665 211.951C180.644 211.925 180.616 211.905 180.584 211.894C180.552 211.883 180.518 211.881 180.486 211.889C180.453 211.897 180.423 211.913 180.399 211.937C180.375 211.961 180.359 211.991 180.351 212.023C180.344 212.056 180.345 212.09 180.356 212.122C180.367 212.154 180.387 212.182 180.413 212.203C180.439 212.224 180.47 212.238 180.504 212.242Z" fill="#EB996E"/>
<path d="M184.416 212.474C184.458 212.482 184.501 212.474 184.537 212.453C184.574 212.432 184.602 212.398 184.616 212.358C184.621 212.337 184.621 212.315 184.616 212.294C184.612 212.273 184.602 212.254 184.589 212.236C184.576 212.219 184.56 212.205 184.541 212.195C184.522 212.185 184.501 212.18 184.479 212.179C184.437 212.168 184.393 212.172 184.354 212.192C184.315 212.211 184.285 212.244 184.268 212.284C184.265 212.328 184.278 212.372 184.305 212.408C184.333 212.443 184.372 212.466 184.416 212.474Z" fill="#EB996E"/>
<path d="M182.877 214.512C182.925 214.526 182.976 214.522 183.021 214.5C183.065 214.479 183.101 214.441 183.12 214.395C183.132 214.374 183.141 214.351 183.144 214.326C183.147 214.301 183.145 214.276 183.138 214.253C183.131 214.229 183.119 214.207 183.103 214.188C183.088 214.169 183.068 214.153 183.046 214.142C183.022 214.134 182.997 214.13 182.972 214.131C182.947 214.133 182.923 214.139 182.9 214.15C182.878 214.161 182.858 214.176 182.841 214.194C182.824 214.213 182.811 214.235 182.803 214.258C182.78 214.302 182.775 214.353 182.789 214.4C182.803 214.447 182.834 214.487 182.877 214.512Z" fill="#EB996E"/>
<path d="M181.105 214.153C181.126 214.15 181.146 214.144 181.164 214.133C181.181 214.123 181.197 214.108 181.209 214.091C181.221 214.074 181.229 214.055 181.233 214.035C181.237 214.015 181.237 213.994 181.232 213.973C181.216 213.934 181.185 213.902 181.145 213.884C181.106 213.866 181.062 213.864 181.021 213.878C180.981 213.886 180.945 213.909 180.922 213.943C180.898 213.976 180.888 214.017 180.894 214.058C180.901 214.078 180.913 214.097 180.927 214.113C180.942 214.129 180.959 214.142 180.979 214.151C180.999 214.16 181.02 214.165 181.042 214.165C181.064 214.166 181.085 214.161 181.105 214.153Z" fill="#EB996E"/>
<path d="M214.123 191.289C214.454 190.014 214.476 188.678 214.186 187.392C213.897 186.107 213.304 184.91 212.457 183.901C211.6 182.865 210.516 182.041 209.289 181.492C208.062 180.943 206.726 180.683 205.383 180.734C204.015 180.937 202.634 181.036 201.251 181.029C198.689 180.755 196.718 178.76 194.346 177.789C192.478 177.069 190.426 176.982 188.504 177.543C186.582 178.104 184.898 179.28 183.709 180.892C182.802 182.201 182.212 183.827 180.841 184.65C179.65 185.368 178.142 185.304 176.803 185.706C175.48 186.139 174.333 186.991 173.535 188.133C172.736 189.275 172.329 190.646 172.376 192.039C172.508 193.428 173.02 194.754 173.855 195.871C174.689 196.988 175.815 197.853 177.109 198.372C178.429 198.883 179.845 199.098 181.256 199.001C182.668 198.905 184.041 198.499 185.279 197.813C187.514 196.599 189.496 194.54 192.068 194.646C194.641 194.752 197.023 197.158 199.617 196.652C200.938 196.243 202.118 195.471 203.022 194.424C203.929 193.374 205.175 192.676 206.543 192.451C207.935 192.366 208.651 194.224 208.156 195.49L214.123 191.353" fill="#263238"/>
<path d="M178.617 187.943V188.049C178.617 188.112 178.712 188.207 178.796 188.323C179.031 188.675 179.315 188.992 179.64 189.263C180.673 190.143 182.006 190.591 183.361 190.513C184.716 190.434 185.989 189.835 186.914 188.84C187.648 187.863 188.33 186.848 188.959 185.8C189.334 185.274 189.824 184.84 190.393 184.534C191.005 184.243 191.676 184.098 192.354 184.112C193.057 184.133 193.747 184.317 194.367 184.65C194.997 184.99 195.514 185.508 195.854 186.138C196.172 186.803 196.524 187.451 196.908 188.08C197.113 188.402 197.391 188.67 197.719 188.865C198.046 189.059 198.415 189.174 198.795 189.199C199.54 189.222 200.275 189.019 200.903 188.619C201.484 188.272 202.013 187.846 202.474 187.352C203.247 186.418 204.261 185.713 205.405 185.315C205.921 185.218 206.451 185.229 206.963 185.348C207.474 185.466 207.956 185.688 208.378 186.001C209.085 186.501 209.648 187.178 210.012 187.964C210.29 188.556 210.496 189.18 210.623 189.822C210.729 190.35 210.782 190.772 210.824 191.046C210.825 191.193 210.846 191.339 210.887 191.479V191.363C210.887 191.3 210.887 191.184 210.887 191.046C210.86 190.629 210.811 190.213 210.739 189.801C210.631 189.146 210.44 188.507 210.17 187.901C209.802 187.085 209.232 186.377 208.515 185.843C208.069 185.503 207.558 185.261 207.013 185.132C206.468 185.003 205.903 184.99 205.352 185.093C204.155 185.494 203.094 186.226 202.295 187.204C201.841 187.678 201.327 188.089 200.766 188.429C200.194 188.785 199.532 188.971 198.858 188.967C198.515 188.937 198.184 188.825 197.893 188.642C197.602 188.458 197.358 188.208 197.182 187.912C196.781 187.342 196.518 186.645 196.128 185.99C195.761 185.317 195.209 184.764 194.536 184.397C193.887 184.047 193.164 183.856 192.428 183.837C191.699 183.817 190.975 183.972 190.319 184.291C189.714 184.616 189.194 185.079 188.801 185.642C188.021 186.698 187.557 187.848 186.798 188.671C186.073 189.445 185.133 189.982 184.099 190.213C183.239 190.401 182.345 190.361 181.506 190.096C180.874 189.897 180.284 189.582 179.766 189.168C179.333 188.81 178.946 188.399 178.617 187.943Z" fill="#455A64"/>
<path d="M173.252 188.049C173.178 188.223 173.138 188.409 173.136 188.598C173.091 189.12 173.141 189.645 173.283 190.149C173.502 190.9 173.879 191.595 174.39 192.187C175.039 192.905 175.838 193.471 176.731 193.844C178.372 194.487 180.155 194.684 181.896 194.414C182.418 194.342 182.936 194.239 183.446 194.108C183.638 194.08 183.823 194.019 183.994 193.928C183.994 193.928 183.183 194.076 181.886 194.213C180.184 194.427 178.456 194.213 176.857 193.591C176.002 193.234 175.233 192.697 174.601 192.018C174.104 191.461 173.727 190.807 173.494 190.097C173.297 189.433 173.215 188.74 173.252 188.049Z" fill="#455A64"/>
<path d="M250.431 290.511C250.251 304.085 241.997 316.594 231.202 324.837C220.406 333.081 207.334 337.652 194.304 341.409C181.274 345.167 167.948 348.281 155.677 354.076C138.704 362.119 122.996 373.15 113.382 389.321C103.767 405.492 100.373 426.74 101.448 445.508L245.697 431.089L253.593 349.02L250.431 290.511Z" fill="#0165B7"/>
<path d="M121.204 377.815C121.1 378.023 120.976 378.221 120.835 378.406L119.686 380.032C119.18 380.728 118.547 381.573 117.904 382.607C117.261 383.642 116.439 384.771 115.701 386.133C114.963 387.494 114.056 388.898 113.266 390.534C112.475 392.17 111.621 393.891 110.799 395.749C109.084 399.818 107.675 404.01 106.582 408.289C105.576 412.581 104.857 416.936 104.431 421.325C104.242 423.351 104.073 425.283 104.02 427.088C103.967 428.893 103.915 430.582 103.894 432.123C103.873 433.664 103.894 435.057 103.957 436.282C104.02 437.506 104.031 438.562 104.083 439.448C104.136 440.335 104.147 440.926 104.168 441.433C104.196 441.664 104.196 441.898 104.168 442.13C104.107 441.906 104.071 441.675 104.062 441.443C104.01 440.937 103.946 440.282 103.873 439.47C103.799 438.657 103.693 437.559 103.651 436.303C103.609 435.047 103.493 433.685 103.504 432.134C103.514 430.582 103.504 428.904 103.556 427.077C103.609 425.251 103.757 423.33 103.925 421.282C104.349 416.863 105.082 412.479 106.118 408.162C107.2 403.859 108.609 399.646 110.335 395.559C111.178 393.701 111.98 391.928 112.865 390.334C113.751 388.74 114.573 387.262 115.364 385.932C116.154 384.602 116.977 383.473 117.651 382.449C118.326 381.425 118.98 380.591 119.517 379.905L120.74 378.353C120.875 378.158 121.031 377.977 121.204 377.815Z" fill="#263238"/>
<g opacity="0.4">
<path d="M250.431 290.511C250.251 304.086 241.997 316.594 231.202 324.838C220.406 333.081 207.334 337.652 194.304 341.41C181.274 345.168 167.948 348.281 155.677 354.076C138.704 362.12 122.996 373.15 113.382 389.321C103.767 405.492 100.373 426.74 101.448 445.508L245.697 431.089L253.593 349.02L250.431 290.511Z" fill="black"/>
</g>
</svg>
