<svg width="212" height="214" viewBox="0 0 212 214" fill="none" xmlns="http://www.w3.org/2000/svg">
<g clip-path="url(#clip0_1173_4698)">
<path d="M242.318 203.561C242.318 203.621 183.013 203.672 109.869 203.672C36.7245 203.672 -22.5889 203.621 -22.5889 203.561C-22.5889 203.502 36.7033 203.451 109.869 203.451C183.034 203.451 242.318 203.502 242.318 203.561Z" fill="#263238"/>
<path d="M31.4242 100.648L13.6162 93.7131C22.3715 71.0432 38.788 52.1921 59.9891 40.4631C62.6179 39.0104 65.3527 37.6558 68.1172 36.4289C70.0082 35.5769 71.9332 34.8058 73.8708 34.0859L80.5149 52.0546C78.9419 52.6424 77.3561 53.29 75.8128 53.9716C73.5529 54.9727 71.3184 56.1016 69.1687 57.2645C51.9085 66.8258 38.5468 82.1838 31.4242 100.648Z" fill="#0165B7"/>
<path d="M79.8323 61.0645L67.9814 25.0504L99.1073 35.7899L79.8323 61.0645Z" fill="#0165B7"/>
<path d="M37.0682 76.5751L35.0626 75.2119L36.0294 77.3079L35.7029 77.785L33.4684 77.6742L35.4188 79.0076L34.7446 80.0002L30.9668 77.4101L31.5689 76.5283L34.6514 76.6902L33.3582 73.8956L33.956 73.0095L37.7381 75.5911L37.0682 76.5751Z" fill="white"/>
<path d="M39.4799 71.9573L38.2757 73.4781L38.7463 74.3301L37.9238 75.3696L35.6045 70.9221L36.3974 69.921L41.2352 71.199L40.3872 72.2555L39.4799 71.9573ZM38.4962 71.6591L36.9783 71.2161L37.7542 72.5963L38.4962 71.6591Z" fill="white"/>
<path d="M41.8713 68.66L41.4007 69.1883L42.2996 70.0062L41.4516 70.969L38.0596 67.889L39.463 66.3298C40.311 65.4011 41.3032 65.252 42.0791 65.9592C42.3106 66.1539 42.479 66.4136 42.5628 66.705C42.6466 66.9964 42.6421 67.3063 42.5497 67.595L44.2754 67.8293L43.3469 68.8603L41.8713 68.66ZM40.1499 67.0753L39.6665 67.6121L40.6587 68.5152L41.1421 67.9784C41.4982 67.578 41.494 67.2116 41.1845 66.9305C40.8749 66.6493 40.5061 66.6664 40.1499 67.0668V67.0753Z" fill="white"/>
<path d="M44.746 64.9964V65.7036L45.5474 66.5258L44.6315 67.4246L41.4346 64.1402L42.3504 63.2413L43.6775 64.6088L43.6139 62.0016L44.6315 61.0005L44.7121 63.7653L47.8963 64.2126L46.8406 65.252L44.746 64.9964Z" fill="white"/>
<path d="M50.2371 60.8728L50.8943 61.631L48.1298 64.0507L45.1279 60.5873L47.833 58.2273L48.486 58.9813L46.7476 60.5021L47.2564 61.0858L48.787 59.7481L49.4188 60.4766L47.8882 61.8185L48.4394 62.449L50.2371 60.8728Z" fill="white"/>
<path d="M50.004 57.8013L48.8974 58.6533L48.2656 57.8396L51.4965 55.3092L52.124 56.1229L51.0216 56.9749L53.201 59.7822L52.1834 60.5831L50.004 57.8013Z" fill="white"/>
<path d="M52.0137 54.9769L53.0652 54.2229L55.7237 57.9547L54.6722 58.7129L52.0137 54.9769Z" fill="white"/>
<path d="M57.5979 51.194L60.074 55.0536L59.1794 55.633L56.1648 54.6745L57.4876 56.732L56.4404 57.4349L53.96 53.5754L54.8546 52.996L57.8692 53.9545L56.5506 51.8969L57.5979 51.194Z" fill="white"/>
<path d="M62.3166 51.0449L63.313 50.4869L64.233 52.1483C63.9256 52.7625 63.4389 53.2677 62.8381 53.5967C61.5661 54.3081 60.1584 53.963 59.4842 52.7447C58.8101 51.5263 59.2595 50.1376 60.5527 49.4134C60.871 49.2139 61.2298 49.0889 61.6026 49.0476C61.9755 49.0063 62.3528 49.0498 62.7066 49.1748L62.3462 50.227C62.1487 50.1523 61.9373 50.1224 61.7269 50.1393C61.5165 50.1563 61.3125 50.2197 61.1294 50.325C60.8263 50.4945 60.6027 50.778 60.5076 51.1131C60.4126 51.4483 60.454 51.8076 60.6227 52.1121C60.7914 52.4166 61.0735 52.6413 61.4071 52.7367C61.7406 52.8322 62.0983 52.7906 62.4014 52.6211C62.6127 52.5044 62.7964 52.3431 62.9398 52.1483L62.3166 51.0449Z" fill="white"/>
<path d="M31.3776 200.358C18.7347 186.534 10.0855 169.506 6.36165 151.108C5.76381 148.152 5.28893 145.144 4.94549 142.115C4.35248 136.884 4.15264 131.615 4.34765 126.353L23.4276 127.077C23.2684 131.369 23.4314 135.667 23.9152 139.934C24.1951 142.396 24.5852 144.871 25.0728 147.287C28.1036 162.263 35.1398 176.126 45.4248 187.386L31.3776 200.358Z" fill="#0165B7"/>
<path d="M26.2046 173.614L25.1616 173.69C25.2032 173.154 25.0945 172.617 24.8478 172.14C24.5977 171.667 24.3645 171.552 24.1694 171.658C23.5292 171.999 25.2252 174.052 23.7454 174.858C23.0289 175.245 22.1258 174.968 21.4855 173.767C21.2086 173.259 21.0629 172.689 21.0615 172.11L22.0961 172.008C22.087 172.451 22.186 172.89 22.3844 173.286C22.6388 173.767 22.8932 173.856 23.0967 173.746C23.7115 173.413 22.0282 171.364 23.5207 170.568C24.2246 170.189 25.1362 170.457 25.7764 171.663C26.1008 172.259 26.2494 172.936 26.2046 173.614Z" fill="white"/>
<path d="M22.6391 170.346L20.3368 171.411L19.7983 170.231L22.0625 169.183C22.7748 168.855 22.9105 168.425 22.6943 167.931C22.478 167.437 22.0498 167.275 21.3375 167.607L19.0733 168.655L18.5391 167.492L20.8414 166.427C22.0795 165.852 23.1055 166.261 23.6737 167.492C24.2419 168.723 23.8772 169.771 22.6391 170.346Z" fill="white"/>
<path d="M18.2083 161.997C19.1792 161.622 20.0611 162.12 20.5106 163.275L20.7989 164.02L21.914 163.594L22.3762 164.804L18.1362 166.457L17.3645 164.51C16.9151 163.343 17.2373 162.38 18.2083 161.997ZM18.6789 163.219C18.2846 163.373 18.1489 163.713 18.3439 164.216L18.6026 164.885L19.8491 164.404L19.5905 163.73C19.3955 163.232 19.069 163.066 18.6789 163.232V163.219Z" fill="white"/>
<path d="M16.7199 157.353C17.7079 157.034 18.5601 157.588 18.9417 158.78L19.1834 159.543L20.3197 159.177L20.7098 160.416L16.3595 161.809L15.7362 159.824C15.3462 158.618 15.7363 157.694 16.7199 157.353ZM17.1142 158.601C16.7114 158.729 16.5546 159.062 16.7199 159.577L16.9362 160.263L18.2082 159.837L17.9877 159.151C17.8308 158.653 17.5128 158.474 17.1142 158.601Z" fill="white"/>
<path d="M17.1273 156.663C15.8002 156.995 14.5621 156.186 14.2102 154.763C13.8582 153.34 14.5748 152.041 15.9062 151.713C17.2375 151.385 18.4502 152.186 18.8233 153.613C19.1964 155.04 18.4586 156.331 17.1273 156.663ZM16.2199 152.982C15.9886 153.054 15.783 153.192 15.6288 153.379C15.4745 153.566 15.3783 153.795 15.352 154.037C15.3256 154.278 15.3704 154.522 15.4807 154.739C15.591 154.955 15.762 155.134 15.9725 155.254C16.1831 155.374 16.424 155.429 16.6654 155.413C16.9069 155.397 17.1383 155.31 17.3311 155.163C17.5239 155.016 17.6695 154.815 17.7501 154.586C17.8307 154.357 17.8427 154.109 17.7845 153.873C17.7457 153.708 17.6734 153.552 17.5721 153.417C17.4708 153.281 17.3427 153.168 17.1958 153.084C17.0489 153.001 16.8864 152.948 16.7184 152.931C16.5505 152.913 16.3808 152.931 16.2199 152.982Z" fill="white"/>
<path d="M16.4617 148.791L16.5889 149.485L17.7846 149.272L18.0093 150.55L13.5149 151.359L13.146 149.293C12.9255 148.062 13.4259 147.163 14.4519 146.989C14.747 146.923 15.0548 146.948 15.3358 147.06C15.6167 147.171 15.8582 147.365 16.0292 147.615L17.2673 146.388L17.5132 147.755L16.4617 148.791ZM14.1636 149.191L14.2908 149.903L15.6052 149.664L15.478 148.953C15.3847 148.424 15.0922 148.203 14.6809 148.279C14.2696 148.356 14.0661 148.663 14.1636 149.174V149.191Z" fill="white"/>
<path d="M13.5742 145.34L13.7438 146.737L12.7262 146.865L12.2344 142.784L13.252 142.66L13.4173 144.053L16.9365 143.627L17.0934 144.905L13.5742 145.34Z" fill="white"/>
<path d="M173.346 165.745L206.681 183.548L176.797 197.397L173.346 165.745Z" fill="#0165B7"/>
<path d="M193.21 188.298L177.191 177.891C179.006 175.066 180.654 172.138 182.127 169.119C183.216 166.896 184.213 164.604 185.095 162.303C192.178 143.823 192.564 123.428 186.184 104.691L204.251 98.48C212.073 121.482 211.593 146.515 202.894 169.196C201.809 172.008 200.588 174.815 199.256 177.537C197.454 181.241 195.435 184.834 193.21 188.298Z" fill="#0165B7"/>
<path d="M198.875 126.596C200.245 126.524 201.3 127.555 201.372 129.024C201.445 130.494 200.499 131.623 199.129 131.691C198.804 131.706 198.479 131.654 198.174 131.539C197.87 131.423 197.592 131.246 197.358 131.019C197.123 130.792 196.938 130.518 196.812 130.217C196.687 129.915 196.624 129.59 196.628 129.263C196.556 127.802 197.506 126.673 198.875 126.596ZM199.062 130.379C199.301 130.353 199.528 130.257 199.714 130.103C199.9 129.949 200.037 129.743 200.108 129.512C200.179 129.281 200.181 129.034 200.114 128.801C200.047 128.569 199.913 128.361 199.73 128.204C199.547 128.047 199.322 127.947 199.083 127.917C198.844 127.886 198.601 127.927 198.385 128.034C198.168 128.141 197.988 128.309 197.866 128.517C197.743 128.726 197.685 128.966 197.696 129.207C197.702 129.377 197.743 129.544 197.816 129.697C197.89 129.851 197.994 129.987 198.122 130.098C198.25 130.209 198.4 130.292 198.562 130.341C198.723 130.391 198.894 130.407 199.062 130.387V130.379Z" fill="white"/>
<path d="M198.022 134.447V133.736H196.805V132.436L201.376 132.509L201.342 134.605C201.342 135.857 200.664 136.637 199.621 136.62C199.318 136.627 199.021 136.544 198.766 136.38C198.511 136.216 198.311 135.979 198.192 135.7L196.784 136.65V135.261L198.022 134.447ZM200.358 134.494V133.774L199.019 133.753V134.473C199.019 135.014 199.252 135.286 199.672 135.291C200.091 135.295 200.35 135.031 200.358 134.494Z" fill="white"/>
<path d="M201.3 137.574L201.126 139.738C201.007 141.255 200.045 142.222 198.646 142.111C197.246 142 196.454 140.888 196.572 139.372L196.746 137.208L201.3 137.574ZM197.607 139.402C197.56 139.582 197.553 139.771 197.587 139.954C197.621 140.138 197.694 140.312 197.801 140.464C197.909 140.616 198.049 140.743 198.21 140.835C198.372 140.927 198.552 140.982 198.737 140.997C198.922 141.012 199.108 140.986 199.282 140.921C199.456 140.855 199.614 140.753 199.744 140.62C199.875 140.487 199.974 140.327 200.037 140.151C200.099 139.975 200.122 139.788 200.104 139.602L200.168 138.784L197.67 138.584L197.607 139.402Z" fill="white"/>
<path d="M196.751 146.324L195.763 146.184L196.28 142.533L200.804 143.18L200.299 146.746L199.329 146.618L199.651 144.326L198.888 144.215L198.603 146.235L197.645 146.098L197.934 144.079L197.107 143.96L196.751 146.324Z" fill="white"/>
<path d="M196.445 149.042L196.585 148.348L195.394 148.105L195.652 146.827L200.13 147.734L199.706 149.792C199.46 151.019 198.671 151.662 197.645 151.453C197.347 151.404 197.07 151.267 196.85 151.059C196.631 150.851 196.478 150.582 196.411 150.286L194.809 150.972L195.088 149.6L196.445 149.042ZM198.731 149.519L198.875 148.812L197.565 148.548L197.42 149.255C197.314 149.783 197.505 150.107 197.912 150.179C198.319 150.252 198.629 150.047 198.731 149.519Z" fill="white"/>
<path d="M195.152 151.304L195.966 151.964C195.572 152.327 195.288 152.794 195.143 153.31C195.008 153.83 195.101 154.073 195.317 154.133C196.017 154.316 196.165 151.658 197.81 152.092C198.599 152.301 199.082 153.119 198.726 154.439C198.587 155.003 198.308 155.521 197.916 155.947L197.09 155.313C197.401 154.994 197.63 154.604 197.755 154.175C197.895 153.647 197.755 153.408 197.548 153.353C196.869 153.174 196.7 155.824 195.084 155.394C194.317 155.189 193.812 154.367 194.172 153.051C194.332 152.388 194.671 151.784 195.152 151.304Z" fill="white"/>
<path d="M179.655 87.9664C170.184 72.7502 156.091 60.9999 139.46 54.4529C137.179 53.5498 134.821 52.7489 132.455 52.029C127.248 50.4772 121.903 49.433 116.496 48.9107L118.311 29.8259C124.941 30.4713 131.493 31.7552 137.878 33.6599C140.77 34.5119 143.653 35.5172 146.447 36.6419C166.87 44.6761 184.176 59.1019 195.805 77.785L179.655 87.9664Z" fill="#0165B7"/>
<path d="M166.146 82.8416L197.73 62.0613L195.419 95.0465L166.146 82.8416Z" fill="#0165B7"/>
<path d="M144.001 49.2642L144.777 48.5656C145.074 49.0128 145.488 49.3694 145.973 49.5965C146.46 49.818 146.715 49.7626 146.821 49.5582C147.117 48.8936 144.527 48.3142 145.218 46.7593C145.553 46.0096 146.43 45.6688 147.673 46.2268C148.204 46.4553 148.669 46.8142 149.025 47.2705L148.271 47.9905C148.009 47.6262 147.66 47.3333 147.257 47.1385C146.761 46.917 146.507 47.0022 146.409 47.2152C146.125 47.8542 148.707 48.4378 148.02 49.9842C147.694 50.7126 146.808 51.0662 145.57 50.5081C144.94 50.2518 144.396 49.8203 144.001 49.2642Z" fill="white"/>
<path d="M151.048 52.1185L149.352 51.2239L148.622 51.8458L147.452 51.2367L151.349 48.097L152.481 48.6892L152.167 53.6989L150.976 53.077L151.048 52.1185ZM151.154 51.0918L151.306 49.5156L150.111 50.5465L151.154 51.0918Z" fill="white"/>
<path d="M154.737 49.916L155.848 50.5806L154.037 53.6435L155.911 54.7639L155.39 55.65L152.4 53.865L154.737 49.916Z" fill="white"/>
<path d="M159.366 57.1154L158.811 57.9674L155.758 55.9184L158.302 52.0844L161.27 54.0866L160.714 54.9386L158.798 53.6606L158.374 54.3038L160.07 55.437L159.536 56.2464L157.84 55.1132L157.377 55.8119L159.366 57.1154Z" fill="white"/>
<path d="M159.337 57.8183L160.249 57.3071C160.437 57.812 160.762 58.2545 161.186 58.5851C161.61 58.9089 161.868 58.9131 162.004 58.7342C162.428 58.1506 160.045 57.0089 161.063 55.6457C161.554 54.9897 162.487 54.8576 163.573 55.6755C164.04 56.0166 164.413 56.4709 164.658 56.9961L163.763 57.5286C163.587 57.1182 163.311 56.7582 162.962 56.4807C162.538 56.1527 162.263 56.1825 162.114 56.3657C161.69 56.928 164.081 58.0697 163.068 59.4243C162.589 60.0633 161.648 60.2082 160.562 59.386C160.016 58.9889 159.591 58.4458 159.337 57.8183Z" fill="white"/>
<path d="M73.914 68.1786L74.6263 68.2085C78.0802 68.3434 81.3569 69.7796 83.8049 72.2312C86.2528 74.6828 87.6927 77.9704 87.8382 81.44C88.1138 88.1325 88.3343 95.5279 88.1519 99.1063C87.7746 106.514 80.3546 107.379 80.3546 107.379L80.3249 110.404C80.2825 115.396 79.5193 120.883 74.55 120.811L71.2301 119.354C68.868 119.324 66.6131 118.358 64.9555 116.667C63.2978 114.976 62.3712 112.696 62.377 110.323L62.4024 82.701C62.0505 74.9776 66.2227 68.332 73.914 68.1786Z" fill="#FFBF9D"/>
<path d="M80.4144 107.379C76.9873 107.248 73.6699 106.13 70.8574 104.159C70.8574 104.159 72.9265 109.582 80.3126 109.202L80.4144 107.379Z" fill="#FF9A6C"/>
<path d="M85.1245 88.0984C85.1168 88.3741 85.002 88.6359 84.8047 88.8277C84.6074 89.0196 84.3433 89.1263 84.0688 89.125C83.9343 89.1308 83.8001 89.1093 83.6741 89.0619C83.5481 89.0146 83.4329 88.9422 83.3352 88.8493C83.2375 88.7563 83.1594 88.6446 83.1055 88.5207C83.0517 88.3969 83.0231 88.2634 83.0215 88.1282C83.0292 87.8525 83.144 87.5907 83.3413 87.3989C83.5386 87.207 83.8027 87.1003 84.0772 87.1015C84.2117 87.0958 84.3459 87.1173 84.4719 87.1647C84.5979 87.2121 84.7131 87.2844 84.8108 87.3773C84.9085 87.4703 84.9866 87.582 85.0405 87.7059C85.0944 87.8298 85.1229 87.9632 85.1245 88.0984Z" fill="#263238"/>
<path d="M86.1206 85.0099C85.9849 85.142 85.209 84.5158 84.0769 84.4774C82.9448 84.4391 82.0883 84.9716 81.9569 84.8267C81.9018 84.7628 82.0417 84.52 82.4148 84.2687C82.92 83.9453 83.5126 83.7875 84.1108 83.8171C84.7002 83.8373 85.2677 84.0462 85.7305 84.4135C86.0697 84.6947 86.1799 84.9503 86.1206 85.0099Z" fill="#263238"/>
<path d="M75.3094 87.83C75.3017 88.1057 75.1869 88.3675 74.9896 88.5593C74.7924 88.7512 74.5282 88.8579 74.2537 88.8567C74.119 88.8624 73.9846 88.8409 73.8584 88.7936C73.7322 88.7463 73.6166 88.674 73.5186 88.5811C73.4206 88.4882 73.3421 88.3765 73.2878 88.2526C73.2334 88.1287 73.2043 87.9952 73.2021 87.8598C73.2152 87.5889 73.3309 87.3333 73.5257 87.1455C73.7205 86.9577 73.9795 86.8521 74.2494 86.8502C74.3834 86.8433 74.5173 86.8634 74.6434 86.9091C74.7696 86.9548 74.8854 87.0254 74.9841 87.1166C75.0828 87.2078 75.1624 87.3179 75.2182 87.4404C75.2741 87.5629 75.3051 87.6953 75.3094 87.83Z" fill="#263238"/>
<path d="M74.9611 84.7841C74.8254 84.9204 74.0495 84.2942 72.9132 84.2516C71.7769 84.209 70.9289 84.75 70.7932 84.6052C70.7338 84.5413 70.878 84.2942 71.2511 84.0471C71.7554 83.7215 72.3483 83.5621 72.9471 83.5913C73.5366 83.6147 74.1035 83.825 74.5668 84.1919C74.9187 84.4731 75.0247 84.7244 74.9611 84.7841Z" fill="#263238"/>
<path d="M78.7472 93.3936C78.7472 93.3297 79.4553 93.2359 80.6001 93.1337C80.8926 93.1337 81.1682 93.0655 81.2233 92.8696C81.2572 92.5762 81.2025 92.2794 81.0664 92.0176C80.8205 91.3019 80.5633 90.5521 80.2948 89.7683C79.2263 86.569 78.4673 83.9406 78.5988 83.9023C78.7302 83.8639 79.6969 86.4157 80.7654 89.6192C81.0198 90.4073 81.2657 91.1571 81.4989 91.877C81.6679 92.2344 81.7055 92.6404 81.6049 93.0229C81.5618 93.1277 81.4949 93.2208 81.4095 93.2947C81.324 93.3687 81.2225 93.4215 81.1131 93.4489C80.9505 93.4868 80.7839 93.504 80.617 93.5001C79.4637 93.483 78.7472 93.4575 78.7472 93.3936Z" fill="#263238"/>
<path d="M75.4239 80.3324C75.3009 80.6392 74.1773 80.4475 72.8417 80.5582C71.5061 80.669 70.4122 80.9842 70.2468 80.7031C70.1748 80.5667 70.374 80.2771 70.8192 80.0002C71.4124 79.6562 72.0755 79.4522 72.7586 79.4035C73.4417 79.3548 74.1269 79.4627 74.7624 79.719C75.2416 79.9363 75.479 80.1876 75.4239 80.3324Z" fill="#263238"/>
<path d="M85.8242 81.6956C85.6122 81.947 84.8447 81.6488 83.9034 81.5977C82.9622 81.5465 82.1651 81.7042 81.9912 81.4273C81.9149 81.2909 82.0506 81.0396 82.4152 80.8053C82.8941 80.5305 83.4433 80.4045 83.9935 80.4432C84.5436 80.4818 85.07 80.6835 85.5062 81.0226C85.8157 81.3037 85.9174 81.5721 85.8242 81.6956Z" fill="#263238"/>
<path d="M87.2617 78.032C87.2617 78.032 85.4936 73.3119 83.31 72.1404C80.6643 70.7261 79.388 73.6527 76.844 72.8305C74.3 72.0084 71.7772 70.6494 69.0721 72.5451C66.1041 74.6155 67.4016 76.2002 67.0963 79.4847C65.8582 92.7886 63.2803 96.465 62.8563 90.1602C62.8054 89.4658 60.9271 88.8439 60.7363 85.9258C60.5158 82.1429 60.5497 77.5591 61.491 74.9179C62.2839 72.69 63.611 71.1819 65.9854 69.5546C69.7124 66.9986 74.6901 67.1221 78.0567 67.595C81.4232 68.0679 87.7917 72.2171 87.2617 78.032Z" fill="#263238"/>
<path d="M63.3222 89.96C63.3236 89.6875 63.2699 89.4176 63.1643 89.1667C63.0587 88.9157 62.9035 88.6889 62.708 88.5001C62.5125 88.3112 62.2808 88.1643 62.0271 88.0681C61.7734 87.972 61.5028 87.9286 61.2319 87.9408C59.8539 88.0175 58.2893 88.7417 58.2639 91.6001C58.2257 96.6738 63.3052 95.6642 63.3137 95.5193C63.3222 95.3745 63.3264 92.09 63.3222 89.96Z" fill="#FFBF9D"/>
<path d="M62.2368 93.6023C62.2156 93.6023 62.1477 93.6619 61.9993 93.7301C61.8953 93.774 61.7836 93.7967 61.6708 93.7967C61.5579 93.7967 61.4462 93.774 61.3422 93.7301C60.8122 93.5299 60.367 92.6779 60.35 91.762C60.3371 91.3221 60.4241 90.885 60.6044 90.484C60.6536 90.3264 60.7397 90.183 60.8556 90.0659C60.9714 89.9488 61.1136 89.8613 61.2701 89.8109C61.3715 89.7843 61.4789 89.7946 61.5735 89.8398C61.6681 89.8849 61.7438 89.9622 61.7873 90.058C61.8552 90.1985 61.8213 90.3008 61.8467 90.3093C61.8722 90.3178 61.957 90.2241 61.9188 90.0154C61.8906 89.8891 61.8203 89.7764 61.7195 89.6959C61.5813 89.5911 61.4082 89.5438 61.2362 89.5638C61.0288 89.6041 60.8352 89.6968 60.6734 89.8333C60.5117 89.9697 60.3873 90.1452 60.3118 90.3434C60.0931 90.7817 59.9853 91.2675 59.9981 91.7577C60.0235 92.7801 60.5366 93.7386 61.2701 93.9559C61.4053 93.9969 61.5479 94.0068 61.6874 93.9846C61.8269 93.9625 61.9597 93.909 62.0757 93.8281C62.2283 93.7258 62.2538 93.6108 62.2368 93.6023Z" fill="#FF9A6C"/>
<path d="M88.8469 72.6644C88.1345 72.0084 87.083 71.8124 86.3707 71.1606C85.0987 69.9508 85.2598 67.5056 83.6825 66.7089C82.7497 66.2361 81.6134 66.5982 80.5873 66.3894C78.9337 66.0529 78.408 64.7195 75.864 64.4639C72.5653 64.1359 71.2636 66.5045 71.2636 66.5045C70.6835 66.168 70.0254 65.9908 69.3556 65.9908C68.6857 65.9908 68.0277 66.168 67.4476 66.5045C65.8533 67.3565 65.5608 69.4013 65.5608 69.4013C65.5608 69.4013 65.0647 69.086 63.356 70.1894C62.2705 70.8923 61.2826 72.5409 60.812 73.7422C60.0912 75.5314 60.7017 77.5762 61.3123 79.391C61.6473 80.3793 62.067 81.4784 63.0083 81.9044C64.1658 82.4283 65.5735 81.6147 66.1544 80.4815C66.7353 79.3484 67.5917 78.2322 68.2744 77.1502C69.4531 75.2801 70.6403 73.542 69.9322 72.2001C71.1126 71.9302 72.3477 72.0436 73.4599 72.5238C74.575 73.018 75.5078 73.853 76.6102 74.3727C77.7126 74.8924 79.1542 75.0032 80.0277 74.1469C80.1589 74.4967 80.3671 74.8122 80.6367 75.0697C80.9064 75.3273 81.2306 75.5202 81.5849 75.6341C81.9393 75.748 82.3147 75.7799 82.6831 75.7275C83.0515 75.675 83.4033 75.5395 83.7122 75.3312C84.4669 76.9031 86.5191 77.7935 88.0837 77.0352C89.6482 76.2769 90.1273 73.8444 88.8469 72.6644Z" fill="#263238"/>
<path d="M60.8887 78.147C61.0858 78.5333 61.2435 78.9387 61.3593 79.3569C61.4961 79.7831 61.7469 80.1634 62.0844 80.456C62.5392 80.7532 63.0872 80.8715 63.6235 80.7882C64.1749 80.7413 64.7091 80.5726 65.188 80.2941C65.5749 80.0513 65.9334 79.7655 66.2565 79.4421C66.5412 79.1162 66.8533 78.8154 67.1893 78.5432C66.9822 78.9293 66.7193 79.2825 66.4092 79.5912C66.0925 79.9524 65.7288 80.269 65.328 80.5326C64.8141 80.8492 64.2329 81.039 63.632 81.0864C63.0208 81.1747 62.3994 81.022 61.8978 80.6604C61.5299 80.3287 61.2662 79.8964 61.1388 79.4165C61.0025 79.0056 60.9185 78.5791 60.8887 78.147Z" fill="#455A64"/>
<path d="M60.7018 82.0534C60.9833 82.3131 61.3003 82.5312 61.6431 82.701C62.0185 82.859 62.4233 82.9346 62.8303 82.9225C63.3276 82.8959 63.8134 82.7622 64.2549 82.5306C65.0621 82.0708 65.7699 81.4538 66.3367 80.7158C66.5616 80.3935 66.8203 80.0964 67.1084 79.8297C66.9583 80.1977 66.7539 80.5409 66.5021 80.8479C65.9585 81.6571 65.232 82.3257 64.3821 82.7989C63.8997 83.0516 63.3657 83.1887 62.8218 83.1994C62.3803 83.1982 61.945 83.0947 61.5498 82.8969C60.8671 82.5348 60.6806 82.0577 60.7018 82.0534Z" fill="#455A64"/>
<path d="M60.6089 84.9631C60.9017 85.1688 61.2176 85.3389 61.5502 85.47C61.9579 85.591 62.3862 85.6259 62.808 85.5723C63.2298 85.5188 63.636 85.3781 64.0009 85.159C64.7425 84.704 65.3961 84.1181 65.9301 83.4295C66.1409 83.1256 66.3872 82.8481 66.6636 82.603C66.5257 82.9484 66.3355 83.2703 66.0997 83.5573C65.5938 84.3171 64.9262 84.9544 64.1451 85.4232C63.6995 85.6685 63.2062 85.8138 62.6993 85.8492C62.2827 85.8775 61.8652 85.8105 61.4781 85.6532C60.8125 85.3891 60.5792 84.9716 60.6089 84.9631Z" fill="#455A64"/>
<path d="M75.3687 94.9357C75.1454 95.4694 74.9956 96.0312 74.9235 96.6056C74.8801 96.8775 74.8955 97.1556 74.9687 97.421C75.0418 97.6863 75.171 97.9328 75.3475 98.1435C75.5239 98.4004 75.7543 98.6152 76.0225 98.7727C76.2906 98.9302 76.59 99.0266 76.8993 99.0551C77.4594 99.1089 78.0201 98.9592 78.4798 98.6333C78.9396 98.3074 79.2678 97.8268 79.4052 97.2787L79.7232 96.0475C78.5699 95.613 75.4493 95.0251 75.3687 94.9357Z" fill="#FF9A6C"/>
<path d="M78.1075 98.808C78.1075 98.7825 77.9591 98.808 77.6835 98.808C77.3275 98.8316 76.97 98.8 76.6235 98.7143C76.1225 98.5833 75.6885 98.2688 75.4066 97.8325C75.1569 97.4046 75.0278 96.9165 75.033 96.4204C75.0382 95.9244 75.1776 95.4392 75.4363 95.0166L75.2752 95.0805C76.3861 95.3574 77.357 95.5917 78.0524 95.7451C78.4198 95.8523 78.7982 95.9166 79.1802 95.9368C78.839 95.7634 78.477 95.6345 78.1033 95.5534C77.4206 95.3489 76.4539 95.0805 75.3473 94.7866L75.2455 94.7568L75.1861 94.8505C74.8898 95.3199 74.7324 95.8644 74.7324 96.4203C74.7324 96.9762 74.8898 97.5207 75.1861 97.9901C75.5168 98.472 76.0193 98.8076 76.5896 98.9273C76.9607 98.9992 77.3421 98.9992 77.7132 98.9273C77.9761 98.906 78.1117 98.8251 78.1075 98.808Z" fill="#263238"/>
<path d="M154.47 83.7532C156.166 82.718 156.59 80.2642 155.708 78.4963C154.826 76.7284 152.94 75.6294 151.002 75.2886C149.594 75.051 148.15 75.1519 146.788 75.5828C145.426 76.0137 144.185 76.7625 143.166 77.7679C142.077 78.8627 141.191 80.2941 139.728 80.784C138.456 81.21 137.04 80.784 135.696 80.9416C133.894 81.1503 132.333 82.4113 131.388 83.9662C130.442 85.5211 130.035 87.3444 129.798 89.1506C129.577 90.8077 129.42 92.6268 128.259 93.8366C127.097 95.0464 125.354 95.2296 123.951 96.0475C121.313 97.5726 120.406 101.462 122.098 104.018C122.636 104.832 123.416 105.581 123.463 106.574C123.51 107.464 122.925 108.248 122.645 109.096C121.92 111.277 123.667 113.905 125.952 114.072C127.101 114.157 128.343 113.722 129.369 114.255C130.396 114.787 130.756 116.035 131.396 116.99C132.056 117.914 133.013 118.583 134.105 118.883C135.197 119.183 136.359 119.097 137.396 118.638C138.244 118.234 139.062 117.556 140.003 117.633C140.945 117.71 141.67 118.528 142.594 118.724C143.802 118.975 144.964 118.097 145.702 117.1C146.44 116.104 146.974 114.924 147.89 114.118C149.111 113.058 150.811 112.815 152.346 112.312C154.047 111.751 155.608 110.829 156.924 109.61C158.24 108.39 159.28 106.901 159.974 105.243C160.668 103.584 160.999 101.796 160.946 99.9978C160.892 98.1999 160.455 96.4344 159.664 94.8207" fill="#263238"/>
<path d="M136.577 105.296C136.212 104.891 135.756 104.579 135.246 104.389H135.348C135.253 104.365 135.156 104.348 135.059 104.338C134.885 104.283 134.701 104.266 134.519 104.285C134.338 104.305 134.162 104.362 134.003 104.453C133.415 104.656 132.923 105.074 132.625 105.624C132.392 106.113 132.296 106.656 132.349 107.196C132.402 107.735 132.602 108.25 132.926 108.683C133.16 109.077 133.506 109.39 133.92 109.582C134.335 109.774 134.797 109.835 135.247 109.758C135.696 109.68 136.112 109.468 136.439 109.148C136.766 108.828 136.988 108.417 137.077 107.967C137.226 107.516 137.257 107.034 137.17 106.567C137.082 106.1 136.878 105.662 136.577 105.296Z" fill="#455A64"/>
<path d="M158.201 123.908L160.439 91.3871C160.482 90.6964 160.265 90.0148 159.832 89.4769C159.398 88.939 158.78 88.5839 158.099 88.4818L143.683 84.1451C139.019 83.4508 135.682 89.091 135.203 93.7855C134.647 99.004 134.181 105.394 134.63 109.326C135.504 117.224 141.919 118.502 141.919 118.502C141.919 118.502 141.847 126.536 141.758 129.391L139.846 138.213L158.201 123.908Z" fill="#AE7461"/>
<path d="M136.705 99.6217C136.69 99.8836 136.779 100.141 136.951 100.338C137.123 100.535 137.364 100.657 137.625 100.678C137.751 100.694 137.879 100.684 138.001 100.649C138.124 100.615 138.238 100.556 138.338 100.477C138.438 100.398 138.521 100.299 138.582 100.188C138.644 100.076 138.683 99.9532 138.697 99.8262C138.71 99.5646 138.622 99.3081 138.45 99.111C138.278 98.9139 138.037 98.7915 137.777 98.7697C137.651 98.7537 137.523 98.7631 137.4 98.7975C137.278 98.8318 137.163 98.8903 137.063 98.9696C136.963 99.049 136.88 99.1475 136.819 99.2594C136.757 99.3714 136.718 99.4946 136.705 99.6217Z" fill="#263238"/>
<path d="M136.454 96.644C136.573 96.7803 137.357 96.2521 138.434 96.2989C139.511 96.3458 140.279 96.9251 140.402 96.7973C140.465 96.742 140.347 96.4991 140.012 96.2308C139.56 95.8869 139.013 95.6919 138.447 95.6727C137.887 95.6407 137.331 95.79 136.861 96.0987C136.518 96.35 136.399 96.5843 136.454 96.644Z" fill="#263238"/>
<path d="M146.431 100.38C146.418 100.642 146.507 100.899 146.68 101.097C146.852 101.294 147.095 101.416 147.355 101.436C147.481 101.452 147.609 101.442 147.731 101.407C147.853 101.373 147.967 101.314 148.067 101.235C148.166 101.156 148.249 101.057 148.31 100.946C148.371 100.834 148.41 100.711 148.424 100.584C148.438 100.323 148.349 100.066 148.178 99.8681C148.006 99.6708 147.764 99.5487 147.504 99.528C147.377 99.5119 147.249 99.5214 147.126 99.5557C147.004 99.59 146.889 99.6486 146.789 99.7279C146.69 99.8072 146.606 99.9057 146.545 100.018C146.483 100.13 146.445 100.253 146.431 100.38Z" fill="#263238"/>
<path d="M147.046 97.3043C147.164 97.4448 147.949 96.9123 149.026 96.9592C150.103 97.0061 150.87 97.5854 150.993 97.4576C151.052 97.4022 150.938 97.1594 150.603 96.891C150.149 96.548 149.602 96.3532 149.034 96.333C148.475 96.301 147.921 96.4503 147.453 96.759C147.109 97.0103 146.986 97.2446 147.046 97.3043Z" fill="#263238"/>
<path d="M142.788 105.168C142.788 105.109 142.131 104.964 141.05 104.776C140.774 104.738 140.516 104.67 140.477 104.478C140.467 104.192 140.544 103.91 140.698 103.669L141.601 101.598C142.873 98.6462 143.785 96.218 143.666 96.1668C143.547 96.1157 142.432 98.4672 141.173 101.415C140.867 102.142 140.585 102.838 140.325 103.503C140.136 103.828 140.068 104.21 140.134 104.58C140.168 104.679 140.224 104.768 140.297 104.842C140.371 104.916 140.46 104.972 140.558 105.006C140.708 105.052 140.863 105.08 141.02 105.092C142.089 105.198 142.78 105.232 142.788 105.168Z" fill="#263238"/>
<path d="M141.873 118.502C141.873 118.502 146.643 119.039 151.985 116.121C151.985 116.121 149.64 121.927 141.852 120.854L141.873 118.502Z" fill="#6F4439"/>
<path d="M142.835 107.754C143.093 107.407 143.431 107.128 143.82 106.941C144.21 106.755 144.638 106.667 145.069 106.685C145.353 106.699 145.628 106.784 145.871 106.933C146.113 107.082 146.314 107.289 146.456 107.537C146.619 107.817 146.692 108.14 146.667 108.463C146.641 108.786 146.518 109.094 146.314 109.345C146.109 109.596 145.833 109.778 145.523 109.867C145.213 109.955 144.883 109.947 144.577 109.841C143.987 109.62 143.457 109.259 143.034 108.789C142.896 108.672 142.785 108.527 142.708 108.363C142.67 108.274 142.656 108.176 142.668 108.079C142.68 107.983 142.717 107.891 142.775 107.814" fill="#6F4439"/>
<path d="M145.926 106.054C145.752 106.054 145.701 107.213 144.654 108.005C143.607 108.798 142.377 108.615 142.36 108.776C142.36 108.849 142.627 109.019 143.153 109.053C143.838 109.094 144.516 108.891 145.065 108.478C145.594 108.081 145.948 107.493 146.053 106.838C146.125 106.348 146.007 106.054 145.926 106.054Z" fill="#263238"/>
<path d="M146.753 92.827C146.846 93.1252 147.932 93.0315 149.187 93.253C150.442 93.4745 151.455 93.8536 151.633 93.5938C151.714 93.4702 151.549 93.1678 151.15 92.8824C150.613 92.511 150 92.2664 149.356 92.1668C148.712 92.0672 148.054 92.1152 147.432 92.3073C146.961 92.4649 146.719 92.6864 146.753 92.827Z" fill="#263238"/>
<path d="M137.001 92.942C137.179 93.1976 137.933 92.9761 138.824 93.0017C139.714 93.0272 140.469 93.236 140.651 93.0017C140.736 92.8781 140.626 92.6268 140.303 92.3797C139.874 92.0751 139.362 91.9114 138.836 91.9111C138.313 91.8971 137.797 92.0459 137.361 92.3371C137.03 92.5629 136.916 92.81 137.001 92.942Z" fill="#263238"/>
<path d="M129.971 91.5277C130.319 90.3314 131.068 89.2928 132.091 88.5883C132.691 88.2878 133.276 87.9565 133.842 87.5957C134.987 86.6969 135.271 85.1079 135.987 83.8384C136.458 83.022 137.115 82.3302 137.905 81.8205C138.694 81.3107 139.594 80.9977 140.528 80.9075C142.08 80.7712 143.666 81.2611 145.192 80.9075C146.312 80.6392 147.312 79.9277 148.432 79.7275C150.637 79.3399 152.672 80.9544 154.232 82.5604C154.232 84.1451 152.96 85.1846 151.722 86.1814C151.105 86.6774 150.388 87.0332 149.621 87.2244C148.854 87.4156 148.055 87.4376 147.279 87.289C146.083 87.0505 144.773 86.437 143.721 87.0505C142.67 87.6639 142.547 89.3679 141.563 90.2029C140.16 91.3914 137.967 90.2242 136.199 90.7226C134.834 91.106 133.965 92.401 133.045 93.4873C132.125 94.5736 130.755 95.6173 129.398 95.1913C129.449 93.9521 129.641 92.7228 129.971 91.5277Z" fill="#263238"/>
<path d="M146.6 85.0823C147.592 84.8097 149.619 84.2005 150.162 83.3485C151.336 81.4954 153.384 80.2515 155.453 80.392C156.528 80.49 157.543 80.9358 158.344 81.6625C159.145 82.3892 159.69 83.3575 159.897 84.422C161.349 84.5107 162.741 85.0341 163.894 85.9247C165.047 86.8152 165.908 88.0322 166.367 89.419C166.747 90.118 166.97 90.8918 167.021 91.6865C167.072 92.4811 166.951 93.2774 166.664 94.0198C166.312 94.9101 165.714 95.8984 166.159 96.7462C166.605 97.5939 167.792 97.6536 168.703 97.9858C169.492 98.298 170.146 98.8786 170.551 99.6262C170.956 100.374 171.087 101.241 170.921 102.075C170.785 102.672 170.497 103.264 170.607 103.86C170.717 104.457 171.252 104.93 171.65 105.42C172.149 106.033 172.478 106.768 172.606 107.55C172.733 108.332 172.653 109.134 172.375 109.876C172.097 110.617 171.63 111.272 171.02 111.776C170.411 112.279 169.681 112.612 168.903 112.742C168.199 112.862 167.44 112.819 166.825 113.168C166.121 113.594 165.807 114.446 165.303 115.077C164.811 115.7 164.141 116.156 163.383 116.385C162.625 116.613 161.815 116.603 161.063 116.355C160.762 116.253 160.477 116.11 160.215 115.929C159.732 116.576 158.99 117.011 157.726 116.994L158.256 100.44C158.163 100.641 158.023 100.817 157.847 100.951C157.671 101.086 157.465 101.175 157.247 101.211C154.593 101.773 154.279 96.2946 154.898 94.8207C153.912 93.9876 153.034 93.0329 152.286 91.9792C151.574 90.8844 150.972 87.9195 151.146 86.5903C150.204 86.6074 146.164 85.1973 146.6 85.0823Z" fill="#263238"/>
<path d="M157.522 101.756C157.632 100.073 159.685 99.7452 161.126 100.61C161.915 101.083 162.513 102.024 162.398 103.809C162.135 108.568 157.433 107.319 157.429 107.183C157.425 107.047 157.395 103.724 157.522 101.756Z" fill="#AE7461"/>
<path d="M158.994 105.462C159.015 105.462 159.07 105.522 159.206 105.594C159.398 105.689 159.619 105.708 159.825 105.645C160.334 105.488 160.8 104.712 160.872 103.856C160.905 103.448 160.848 103.038 160.707 102.655C160.671 102.503 160.598 102.363 160.497 102.246C160.395 102.129 160.266 102.038 160.122 101.982C160.028 101.952 159.927 101.955 159.836 101.992C159.744 102.028 159.669 102.096 159.621 102.182C159.549 102.314 159.575 102.408 159.549 102.416C159.524 102.425 159.452 102.331 159.502 102.135C159.533 102.019 159.604 101.918 159.702 101.85C159.769 101.803 159.845 101.77 159.925 101.753C160.005 101.737 160.088 101.736 160.168 101.752C160.36 101.802 160.537 101.9 160.68 102.038C160.823 102.176 160.929 102.349 160.986 102.54C161.167 102.962 161.24 103.424 161.198 103.882C161.118 104.84 160.579 105.709 159.884 105.871C159.754 105.902 159.619 105.902 159.489 105.873C159.359 105.843 159.238 105.785 159.134 105.701C158.994 105.577 158.977 105.471 158.994 105.462Z" fill="#6F4439"/>
<path d="M153.146 83.8895C153.512 84.0877 153.831 84.364 154.079 84.6989C154.541 85.355 154.698 86.6031 154.38 88.0004L154.355 88.1197L154.469 88.1495C155.149 88.3438 155.776 88.6932 156.299 89.1705C156.823 89.6478 157.23 90.2402 157.488 90.9015C157.626 91.2742 157.704 91.6669 157.717 92.0645C157.699 92.4877 157.642 92.9083 157.548 93.3212C157.449 93.7674 157.383 94.2201 157.348 94.6758C157.307 95.1726 157.433 95.6689 157.704 96.0859C158.281 96.9975 159.222 97.4534 160.032 97.8964C160.835 98.2659 161.572 98.7669 162.212 99.3789C163.262 100.455 163.868 101.89 163.908 103.396C163.927 104.415 163.697 105.423 163.238 106.331C162.915 106.979 162.644 107.285 162.674 107.302C162.703 107.32 162.75 107.239 162.877 107.094C163.055 106.875 163.214 106.641 163.352 106.395C163.873 105.481 164.146 104.445 164.145 103.392C164.139 101.814 163.529 100.299 162.441 99.1616C161.783 98.5211 161.023 97.9955 160.193 97.6067C159.384 97.1807 158.497 96.7121 157.997 95.9027C157.48 95.1743 157.73 94.2328 157.878 93.3808C157.976 92.947 158.031 92.5047 158.044 92.0602C158.032 91.6224 157.944 91.19 157.785 90.7822C157.507 90.0801 157.069 89.4536 156.505 88.9533C155.942 88.453 155.269 88.093 154.541 87.9024L154.63 88.0515C154.932 86.5861 154.728 85.2953 154.206 84.6137C154.016 84.3496 153.764 84.1361 153.473 83.9918C153.37 83.9404 153.26 83.9059 153.146 83.8895Z" fill="#455A64"/>
<path d="M160.745 107.268C160.379 106.862 159.921 106.551 159.409 106.361H159.515C159.421 106.335 159.325 106.316 159.227 106.306C159.053 106.251 158.869 106.233 158.687 106.253C158.506 106.273 158.33 106.33 158.171 106.421C157.582 106.623 157.09 107.041 156.793 107.592C156.56 108.081 156.464 108.624 156.517 109.164C156.57 109.703 156.77 110.218 157.094 110.651C157.328 111.045 157.674 111.358 158.088 111.55C158.503 111.742 158.965 111.804 159.415 111.726C159.864 111.649 160.28 111.436 160.607 111.116C160.934 110.796 161.156 110.385 161.245 109.935C161.392 109.484 161.422 109.004 161.335 108.537C161.247 108.071 161.045 107.635 160.745 107.268Z" fill="#455A64"/>
<path d="M104.501 150.175C104.501 150.175 105.773 149.506 106.935 149.749C108.096 149.992 112.23 152.731 112.23 152.731L118.001 154.657L115.483 165.494L111.429 163.658L104.501 167.019V150.175Z" fill="#AE7461"/>
<path d="M93.9525 152.731C93.9525 152.731 97.1071 152.331 98.2519 151.756C99.3967 151.18 102.119 148.752 102.687 148.799C103.255 148.846 106.592 149.698 106.592 149.698L104.472 151.756C104.472 151.756 108.602 154.273 109.836 155.198C111.069 156.122 114.924 160.276 115.106 161.294C115.288 162.312 114.974 163.5 114.491 163.897C114.008 164.293 112.252 163.5 112.252 163.5C112.321 163.813 112.32 164.137 112.252 164.45C112.183 164.762 112.047 165.056 111.854 165.311C111.197 166.193 109.657 165.886 109.657 165.886C109.657 165.886 109.526 167.343 108.809 167.59C108.093 167.837 106.524 167.057 106.524 167.057C106.524 167.057 106.049 168.297 105.473 168.429C104.896 168.561 103.272 167.577 103.272 167.577C103.272 167.577 96.2421 162.499 94.6606 161.75C93.0791 161 92.5957 160.953 92.5957 160.953L93.9525 152.731Z" fill="#FFBF9D"/>
<path d="M106.553 167.066C106.523 167.066 106.502 166.942 106.43 166.759C106.328 166.516 106.209 166.279 106.074 166.052C105.85 165.742 105.667 165.404 105.531 165.047C105.841 165.284 106.09 165.592 106.256 165.946C106.403 166.184 106.511 166.444 106.574 166.717C106.617 166.938 106.583 167.066 106.553 167.066Z" fill="#FF9A6C"/>
<path d="M109.475 166.214C109.151 165.79 108.855 165.345 108.589 164.881C108.11 164.144 107.593 163.654 107.631 163.603C108.103 163.881 108.493 164.279 108.763 164.757C109.091 165.192 109.333 165.687 109.475 166.214Z" fill="#FF9A6C"/>
<path d="M112.299 163.658C112.235 163.658 112.04 162.908 111.553 162.086C111.065 161.264 110.51 160.71 110.552 160.663C111.055 160.988 111.463 161.441 111.735 161.975C112.066 162.477 112.26 163.057 112.299 163.658Z" fill="#FF9A6C"/>
<path d="M110.238 158.158C110.409 158.529 110.489 158.935 110.471 159.343C110.525 159.748 110.481 160.159 110.344 160.544C110.274 160.15 110.247 159.75 110.263 159.351C110.21 158.956 110.202 158.556 110.238 158.158Z" fill="#FF9A6C"/>
<path d="M100.007 154.184C100.007 154.184 101.105 150.652 101.499 150.209C101.894 149.766 106.587 149.698 106.587 149.698L106.706 151.756L105.892 152.608L104.132 152.493C104.132 152.493 103.038 155.419 100.007 154.184Z" fill="#AE7461"/>
<path d="M94.7964 161.745C94.7964 161.745 94.3427 162.099 94.7964 162.938C95.25 163.777 96.4924 163.177 96.8824 162.938C96.8824 162.938 96.2846 164.335 97.0436 164.774C97.557 165.044 98.1378 165.156 98.7141 165.098C98.7141 165.098 98.6717 165.95 99.7487 166.495C100.826 167.04 101.101 166.495 101.101 166.495C101.101 166.495 101.22 167.875 102.454 168.012C102.898 168.106 103.36 168.06 103.777 167.88L103.302 167.607C103.302 167.607 104.281 165.417 103.726 164.774C103.534 164.581 103.304 164.432 103.05 164.335C102.796 164.239 102.525 164.198 102.255 164.216C102.255 164.216 102.496 162.917 101.788 162.555C101.629 162.456 101.451 162.393 101.266 162.37C101.081 162.346 100.893 162.363 100.715 162.418C100.537 162.473 100.373 162.566 100.233 162.69C100.093 162.814 99.9817 162.967 99.9056 163.138C99.9056 163.138 99.825 161.715 98.7904 161.745C98.1936 161.754 97.6236 161.995 97.2004 162.418L94.7964 161.745Z" fill="#AE7461"/>
<path d="M99.9056 163.138C99.8166 163.521 99.6554 163.882 99.4307 164.203C99.2623 164.557 99.026 164.874 98.7354 165.136C98.8652 164.77 99.0434 164.424 99.2654 164.105C99.4341 163.755 99.6495 163.43 99.9056 163.138Z" fill="#6F4439"/>
<path d="M102.284 164.254C102.097 165.067 101.679 165.807 101.08 166.384C101.244 166.011 101.441 165.653 101.669 165.315C101.841 164.943 102.047 164.588 102.284 164.254Z" fill="#6F4439"/>
<path d="M88.4569 180.383H81.7916L80.1592 203.728L86.9644 203.596C88.1049 199.889 89.7967 181.154 89.7967 181.154L88.4569 180.383Z" fill="#263238"/>
<path d="M50.709 180.383C50.709 180.383 46.4435 190.432 46.8675 194.5C47.2915 198.569 49.3182 203.728 49.3182 203.728L82.9669 203.676C83.5675 201.252 84.0248 198.794 84.3364 196.315C85.0487 191.288 86.9652 180.383 86.9652 180.383H50.709Z" fill="#263238"/>
<path d="M81.5544 118.076C81.5544 118.076 85.646 134.826 86.2184 138.724C87.2826 145.873 91.3064 175.978 90.7425 178.628C90.1785 181.277 89.8351 184.042 89.8351 184.042C89.8351 184.042 56.2882 181.912 52.6842 182.24C49.0802 182.568 47.5496 182.453 46.6761 178.312C45.8027 174.172 46.7016 152.671 45.9341 147.474C45.1667 142.277 45.1625 139.755 44.8699 132.032C44.6113 125.339 46.1419 119.967 49.2965 116.095C52.451 112.223 59.4725 108.299 59.4725 108.299L61.9571 104.653L79.9856 113.705L80.2909 110.915L81.0371 115.196L81.5544 118.076Z" fill="#455A64"/>
<g opacity="0.3">
<path d="M89.7246 164.459C89.4278 163.709 88.478 163.522 87.6809 163.432C80.2228 162.58 72.4551 160.727 67.0067 155.543C64.8867 153.515 63.1907 151.061 61.5752 148.599C58.0348 143.223 54.7064 137.706 51.378 132.189L48.8086 133.173C50.3901 140.961 51.9504 146.597 54.5326 152.978C57.1148 159.36 59.116 165.554 65.6583 167.645C69.8984 168.996 77.9162 167.961 82.3428 167.611C84.1938 167.525 86.0304 167.239 87.8208 166.759C88.3673 166.625 88.8753 166.366 89.3048 166.001C89.5146 165.811 89.6657 165.565 89.7401 165.292C89.8145 165.018 89.8092 164.729 89.7246 164.459Z" fill="black"/>
</g>
<path d="M52.8028 114.442C46.9855 115.337 42.7752 123.712 43.4112 128.756C43.4621 129.148 40.6425 164.233 46.8371 167.032C51.7428 169.247 69.6441 167.573 77.9502 167.096C80.2432 166.964 82.4931 166.414 84.5901 165.473L89.7968 163.138C89.7968 163.168 94.2022 162.171 94.2022 162.171C94.2022 162.171 95.6946 158.627 93.8884 152.148L85.4084 152.51H64.2805C64.0089 152.074 63.603 151.739 63.1245 151.557C62.646 151.375 62.1213 151.355 61.6305 151.5L63.8904 128.07" fill="#455A64"/>
<path d="M63.8991 128.057C63.8991 128.057 63.8991 128.198 63.8737 128.483C63.8483 128.769 63.8144 129.156 63.7677 129.68C63.6702 130.741 63.526 132.3 63.3437 134.311C62.9621 138.345 62.4109 144.203 61.7198 151.504L61.6307 151.423C62.1223 151.307 62.6356 151.323 63.119 151.47C63.6331 151.652 64.0709 152.003 64.3613 152.467L64.2935 152.429H78.0056C80.486 152.429 83.0597 152.429 85.7097 152.429L93.8887 152.079H93.9692L93.9947 152.16C94.4476 153.765 94.7318 155.412 94.8427 157.076C94.9988 158.821 94.8145 160.579 94.3 162.252V162.303H94.2406L91.9044 162.806L90.7299 163.066L90.1363 163.194L89.831 163.253C89.8084 163.255 89.7858 163.25 89.7662 163.238C89.7466 163.227 89.7308 163.21 89.7207 163.189C89.7126 163.174 89.7083 163.156 89.7083 163.138C89.7083 163.12 89.7126 163.103 89.7207 163.087H89.6868L89.6147 163.121L89.4748 163.181C88.7113 163.511 87.9667 163.883 87.2446 164.297C86.9184 164.509 86.5769 164.695 86.2227 164.855L85.1204 165.353C83.6026 166.077 81.9978 166.6 80.3461 166.908C79.5057 167.064 78.6558 167.162 77.8021 167.202L75.2581 167.364C69.3221 167.765 63.543 168.178 57.9377 168.242C55.1842 168.313 52.4293 168.18 49.6951 167.846C49.0259 167.751 48.3642 167.608 47.7151 167.42C47.3899 167.326 47.0724 167.208 46.7653 167.066C46.4589 166.91 46.1832 166.699 45.9512 166.444C45.5172 165.934 45.1652 165.359 44.9082 164.74C44.6527 164.138 44.4387 163.519 44.2679 162.887C43.6562 160.437 43.2659 157.936 43.1019 155.415C42.9027 152.97 42.8179 150.588 42.7797 148.288C42.7119 143.691 42.8348 139.406 43.0087 135.508C43.0935 133.553 43.1995 131.695 43.3097 129.936C43.3309 129.51 43.3818 129.054 43.3691 128.658C43.3237 128.233 43.3082 127.806 43.3224 127.38C43.3516 126.572 43.4596 125.768 43.6447 124.981C44.2571 122.377 45.4698 119.953 47.1851 117.906C48.2472 116.592 49.6084 115.555 51.1537 114.881C51.5571 114.716 51.9743 114.588 52.4003 114.498L52.8243 114.425L52.4003 114.519C51.9789 114.621 51.5663 114.756 51.1664 114.924C49.6374 115.608 48.2929 116.65 47.2444 117.961C45.5348 120.007 44.3279 122.428 43.721 125.028C43.539 125.807 43.4339 126.602 43.4072 127.401C43.3947 127.818 43.4117 128.235 43.4581 128.649C43.4581 129.101 43.4199 129.501 43.403 129.961C43.2984 131.719 43.2023 133.575 43.1147 135.529C42.9536 139.436 42.8391 143.717 42.9154 148.309C42.9578 150.605 43.0468 152.995 43.2461 155.419C43.4163 157.927 43.8079 160.415 44.4163 162.853C44.7725 164.075 45.205 165.349 46.0572 166.32C46.2717 166.558 46.5274 166.754 46.8119 166.9C47.1074 167.037 47.4138 167.15 47.7278 167.236C48.3672 167.424 49.0189 167.566 49.6782 167.662C52.4028 167.992 55.1477 168.122 57.8911 168.05C63.4879 167.982 69.2712 167.569 75.1987 167.168C76.8947 167.032 78.6162 167.032 80.2613 166.717C81.9011 166.41 83.4944 165.892 85.0016 165.175L86.1634 164.659C86.5625 164.484 86.9717 164.333 87.3887 164.208C88.1495 163.958 88.8944 163.662 89.619 163.321L89.7589 163.262L89.8267 163.232H89.8607C89.8225 163.206 89.9455 163.287 89.7801 163.172C89.8013 163.172 89.8564 163.206 89.8734 163.13C89.8684 163.109 89.8563 163.091 89.8392 163.078C89.8221 163.066 89.8012 163.06 89.7801 163.062L90.0727 163.002L90.662 162.878L91.8365 162.619L94.16 162.099L94.0837 162.163C94.5841 160.52 94.764 158.796 94.6137 157.085C94.5021 155.435 94.2179 153.801 93.7657 152.211L93.8675 152.284L85.697 152.582C83.047 152.603 80.4733 152.582 77.9929 152.582H64.2765H64.2341L64.2129 152.544C63.9423 152.11 63.5347 151.78 63.0554 151.606C62.5964 151.469 62.1098 151.455 61.6435 151.564L61.5417 151.585V151.483C62.2583 144.181 62.8349 138.328 63.2377 134.294C63.4412 132.283 63.5981 130.728 63.7041 129.667L63.8313 128.47C63.8822 128.193 63.8991 128.057 63.8991 128.057Z" fill="#263238"/>
<path d="M80.0025 115.094C79.8638 115.033 79.7292 114.964 79.5997 114.885L78.4888 114.242L78.5694 114.208C78.3489 115.324 78.1454 116.964 77.7638 118.932L77.7384 119.06L77.6281 118.992C75.9915 117.957 74.0283 116.772 71.938 115.503C70.3777 114.562 68.9192 113.616 67.5751 112.798C66.231 111.98 64.9929 111.281 63.9541 110.698L61.4907 109.322L60.8207 108.943C60.7401 108.902 60.6634 108.853 60.5918 108.798C60.6783 108.825 60.7621 108.861 60.842 108.904L61.5288 109.245C62.1224 109.552 62.9789 109.999 64.0262 110.566C65.0735 111.132 66.3158 111.844 67.6768 112.627L72.0483 115.32C74.1386 116.598 76.0975 117.782 77.7256 118.834L77.5857 118.894C77.9758 116.943 78.2132 115.298 78.4676 114.187V114.114L78.527 114.153L79.6124 114.83C79.7499 114.906 79.8804 114.995 80.0025 115.094Z" fill="#263238"/>
<g opacity="0.3">
<path d="M63.0684 110.114L72.2564 116.994C74.2789 118.506 76.348 120.048 78.7479 120.828C78.7055 118.689 78.6617 116.551 78.6164 114.412L77.6752 118.928L63.0684 110.114Z" fill="black"/>
</g>
<path d="M89.3989 163.424C89.365 163.284 89.3508 163.141 89.3565 162.998C89.3565 162.67 89.331 162.278 89.3141 161.818C89.2801 160.825 89.242 159.449 89.1148 157.941C88.9876 156.433 88.7968 155.074 88.6187 154.107C88.4406 153.14 88.2922 152.535 88.3262 152.527C88.3952 152.653 88.4452 152.79 88.4745 152.931C88.5593 153.2 88.6569 153.592 88.7713 154.077C89.0467 155.349 89.2351 156.639 89.3353 157.937C89.4625 159.453 89.4794 160.834 89.4709 161.83C89.4709 162.329 89.4709 162.729 89.4413 163.01C89.4458 163.15 89.4315 163.289 89.3989 163.424Z" fill="#263238"/>
<path d="M59.9979 123.767C59.9597 123.767 59.7986 123.239 59.434 122.417C58.4797 120.261 56.9762 118.396 55.0752 117.011C54.3502 116.483 53.8584 116.21 53.8796 116.159C54.0065 116.194 54.1279 116.247 54.24 116.317C54.5613 116.485 54.8715 116.674 55.1685 116.883C57.153 118.222 58.6909 120.129 59.5824 122.357C59.7174 122.69 59.8307 123.032 59.9216 123.38C59.963 123.505 59.9886 123.635 59.9979 123.767Z" fill="#263238"/>
<path d="M118.197 153.656C116.45 153.272 139.558 159.394 139.753 159.428L150.726 155.892L141.301 175.488L115.174 166.747L118.197 153.656Z" fill="#0165B7"/>
<g opacity="0.3">
<path d="M128.581 156.476L126.605 155.947L124.341 169.801L128.263 171.113L128.581 156.476Z" fill="black"/>
</g>
<path d="M140.334 132.965L141.046 123.955L158.935 117.109L159.571 120.47L147.385 126.157L140.334 132.965Z" fill="#E0E0E0"/>
<path d="M160.49 122.051C160.49 122.051 165.057 129.241 166.46 134.647C167.97 140.471 166.664 150.759 166.664 150.759L161.512 173.997C162.198 174.899 162.652 175.957 162.835 177.077C163.039 178.755 161.207 180.626 161.207 180.626C161.207 180.626 160.405 180.144 163.463 185.652C166.52 191.161 166.681 203.728 166.681 203.728H121.224C123.386 193.078 127.813 176.144 127.813 175.863C127.813 175.582 127.834 164.122 127.834 164.122C127.834 164.122 127.635 153.017 128.652 148.999C129.67 144.982 139.176 130.255 143.751 126.524C148.61 122.553 159.57 118.485 159.57 118.485L160.49 122.051Z" fill="#0165B7"/>
<path d="M130.311 186.999C130.171 186.513 133.703 180.775 133.703 180.775L153.902 183.889L155.31 189.094L130.311 186.999Z" fill="#0165B7"/>
<path d="M130.311 186.999C130.353 186.995 130.395 186.995 130.438 186.999L130.815 187.024L132.244 187.131L137.527 187.557L155.31 189.014L155.212 189.116C154.869 187.838 154.512 186.534 154.148 185.184C154.029 184.758 153.915 184.332 153.804 183.906L153.881 183.974L133.681 180.834L133.749 180.805C132.579 182.705 131.676 184.238 131.091 185.307C130.794 185.84 130.582 186.257 130.45 186.547C130.4 186.654 130.359 186.765 130.328 186.879C130.321 186.919 130.321 186.959 130.328 186.999C130.328 186.999 130.306 186.824 130.438 186.534C130.569 186.245 130.76 185.819 131.044 185.278C131.616 184.2 132.498 182.658 133.656 180.749L133.677 180.715H133.72L153.927 183.799H153.987V183.855C154.097 184.281 154.211 184.707 154.33 185.133C154.695 186.479 155.051 187.804 155.39 189.065L155.42 189.18H155.293L137.463 187.65L132.202 187.182L130.79 187.05L130.429 187.016L130.311 186.999Z" fill="#263238"/>
<path d="M160.49 122.051L160.367 122.089L159.994 122.178C159.672 122.255 159.189 122.37 158.574 122.532C157.344 122.851 155.563 123.333 153.443 124.108C152.913 124.304 152.362 124.534 151.802 124.768C151.518 124.888 151.234 125.016 150.954 125.16C150.815 125.229 150.666 125.297 150.53 125.373C150.395 125.45 150.251 125.531 150.106 125.625C149.014 126.448 148.002 127.374 147.083 128.389C145.108 130.485 143.089 132.914 141.02 135.491C138.951 138.068 137.047 140.573 135.339 142.861C134.491 144.007 133.681 145.101 132.939 146.132C132.234 147.066 131.594 148.046 131.022 149.068C130.233 150.547 129.561 152.087 129.012 153.673C128.817 154.231 128.678 154.665 128.588 154.951C128.546 155.091 128.512 155.202 128.482 155.287C128.472 155.326 128.46 155.365 128.444 155.402C128.447 155.362 128.454 155.322 128.466 155.283C128.487 155.198 128.516 155.083 128.555 154.942C128.635 154.64 128.767 154.201 128.953 153.639C129.473 152.039 130.129 150.487 130.912 148.999C131.479 147.97 132.115 146.981 132.816 146.039C133.554 145.008 134.351 143.909 135.203 142.758C136.899 140.467 138.811 137.962 140.876 135.376C142.941 132.79 144.972 130.37 146.96 128.27C147.891 127.249 148.918 126.32 150.026 125.497C150.157 125.399 150.31 125.322 150.45 125.237C150.59 125.152 150.742 125.097 150.874 125.024C151.162 124.884 151.451 124.756 151.722 124.636C152.29 124.389 152.841 124.176 153.376 123.985C155.068 123.382 156.792 122.872 158.54 122.455C159.155 122.302 159.642 122.2 159.969 122.132L160.346 122.059L160.49 122.051Z" fill="#263238"/>
<path d="M157.654 178.636C157.462 178.554 157.277 178.457 157.099 178.346C156.743 178.155 156.251 177.852 155.636 177.465C154.072 176.454 152.594 175.314 151.218 174.057C149.863 172.821 148.615 171.471 147.487 170.022C147.063 169.473 146.732 169.013 146.52 168.689C146.399 168.529 146.292 168.358 146.202 168.178C146.338 168.329 146.464 168.488 146.58 168.655C146.813 168.966 147.156 169.413 147.597 169.954C148.748 171.373 150.003 172.705 151.35 173.937C152.722 175.175 154.18 176.314 155.712 177.345C156.306 177.746 156.794 178.061 157.137 178.27C157.318 178.379 157.491 178.502 157.654 178.636Z" fill="#263238"/>
<g opacity="0.3">
<path d="M130.959 187.054L131.57 189.094L154.444 189.022L130.959 187.054Z" fill="black"/>
</g>
<path d="M141.589 138.95L142.013 172.178L136.403 203.702H151.146C151.146 203.702 157.654 179.953 159.202 174.789C160.699 169.771 162.937 144.543 163.137 143.287C163.217 142.801 164.794 134.085 160.169 129.97" fill="#0165B7"/>
<path d="M160.155 130.004L160.431 130.277C160.524 130.366 160.639 130.481 160.77 130.617C160.838 130.686 160.914 130.754 160.986 130.839L161.198 131.124C162.097 132.298 162.722 133.659 163.026 135.108C163.537 137.388 163.655 139.739 163.374 142.06C163.31 142.741 163.174 143.436 163.111 144.156C163.047 144.876 162.966 145.625 162.89 146.397L162.407 151.266C162.063 154.674 161.678 158.422 161.211 162.435C160.978 164.442 160.724 166.516 160.422 168.651C160.278 169.72 160.109 170.802 159.926 171.893C159.833 172.442 159.723 172.992 159.617 173.541C159.511 174.091 159.362 174.649 159.193 175.194C156.755 183.961 154.071 193.614 151.251 203.766L151.226 203.847H136.284L136.31 203.719C138.383 192.094 140.299 181.363 141.936 172.195C141.817 162.129 141.724 153.822 141.656 148.024C141.631 145.131 141.605 142.869 141.593 141.319C141.593 140.552 141.593 139.964 141.593 139.559C141.593 139.155 141.593 138.959 141.593 138.959C141.593 138.959 141.593 139.163 141.614 139.559C141.635 139.955 141.635 140.552 141.652 141.319C141.677 142.869 141.716 145.131 141.762 148.024C141.851 153.822 141.97 162.129 142.123 172.195C140.494 181.38 138.595 192.111 136.53 203.74L136.424 203.613H151.167L151.061 203.694C153.893 193.542 156.573 183.889 159.023 175.126C159.176 174.576 159.307 174.035 159.447 173.49C159.587 172.945 159.664 172.395 159.757 171.85C159.939 170.755 160.109 169.677 160.257 168.612C160.562 166.482 160.817 164.408 161.058 162.401C161.529 158.388 161.928 154.648 162.28 151.236L162.776 146.367C162.856 145.6 162.933 144.854 163.009 144.13C163.085 143.406 163.212 142.707 163.28 142.034C163.566 139.726 163.461 137.385 162.971 135.112C162.675 133.672 162.067 132.315 161.19 131.137L160.982 130.852C160.914 130.767 160.838 130.694 160.774 130.626L160.444 130.277C160.24 130.098 160.155 130.004 160.155 130.004Z" fill="#263238"/>
<path d="M156.212 129.033C156.212 129.075 155.509 128.905 154.372 128.896C152.89 128.882 151.423 129.204 150.082 129.838C148.741 130.473 147.559 131.403 146.626 132.56C145.909 133.446 145.595 134.094 145.562 134.072C145.608 133.91 145.676 133.755 145.765 133.612C145.98 133.21 146.227 132.825 146.503 132.462C147.422 131.25 148.618 130.278 149.99 129.628C151.362 128.977 152.869 128.668 154.385 128.726C154.841 128.744 155.294 128.797 155.742 128.884C155.904 128.914 156.062 128.964 156.212 129.033Z" fill="#263238"/>
</g>
<defs>
<clipPath id="clip0_1173_4698">
<rect width="212" height="213" fill="white" transform="translate(0 0.5)"/>
</clipPath>
</defs>
</svg>
