<svg width="132" height="49" viewBox="0 0 132 49" fill="none" xmlns="http://www.w3.org/2000/svg">
<g id="AMAZON HACKING LOGO">
<g id="Vector 1">
<path d="M3.12565 21.336H0L9.64874 0L19.0257 21.336H16.3077L9.64874 6.79489L3.12565 21.336Z" fill="white"/>
<path d="M7.74617 21.336H4.75642L9.51284 11.1436L14.2693 21.336H11.2795L9.51284 17.3949L7.74617 21.336Z" fill="white"/>
<path d="M23.918 21.6077H21.0641L26.636 0L33.159 15.2206L39.5462 0.271796L45.2539 21.6077H42.2642L39.1385 8.42566L33.159 22.4231L27.3154 8.42566L23.918 21.6077Z" fill="white"/>
</g>
<path id="Vector 4" d="M69.0379 0.951416V4.07706H78.2789L68.3584 21.6079H82.7636V18.8899H72.9789L74.0661 16.9874H82.7636V14.5412H75.2892L82.7636 0.951416H69.0379Z" fill="white"/>
<path id="Vector 2 (Stroke)" fill-rule="evenodd" clip-rule="evenodd" d="M47.019 21.4715H66.1806L56.5319 0.271484L47.019 21.4715ZM51.2177 18.7536H61.9574L56.5494 6.87135L51.2177 18.7536Z" fill="white"/>
<path id="Vector 3" d="M56.5143 11.0076L53.6807 17.2589H59.3884L56.5143 11.0076Z" fill="white"/>
<path id="Vector 3 (Stroke)" fill-rule="evenodd" clip-rule="evenodd" d="M53.6807 17.2589H59.3884L56.5143 11.0076L53.6807 17.2589Z" fill="white"/>
<path id="Ellipse 6 (Stroke)" fill-rule="evenodd" clip-rule="evenodd" d="M97.1635 19.4336C101.92 19.4336 105.589 15.7423 105.589 11.4157C105.589 7.08903 101.92 3.39771 97.1635 3.39771C92.4067 3.39771 88.7378 7.08903 88.7378 11.4157C88.7378 15.7423 92.4067 19.4336 97.1635 19.4336ZM97.1635 22.4234C103.468 22.4234 108.579 17.4951 108.579 11.4157C108.579 5.33628 103.468 0.407959 97.1635 0.407959C90.8589 0.407959 85.748 5.33628 85.748 11.4157C85.748 17.4951 90.8589 22.4234 97.1635 22.4234Z" fill="white"/>
<g id="Group 130">
<path id="Ellipse 7 (Stroke)" fill-rule="evenodd" clip-rule="evenodd" d="M121.713 27.9326C119.591 27.4793 117.371 27.7676 115.454 28.7409C113.539 29.7136 112.059 31.302 111.266 33.2097C110.473 35.1158 110.411 37.2274 111.09 39.172C111.77 41.1179 113.152 42.7823 115.005 43.8564C116.86 44.9312 119.058 45.3401 121.205 45.0028C123.352 44.6655 125.292 43.607 126.685 42.031C128.05 40.4867 128.833 38.2374 128.833 36.1488H131.823C131.823 38.8968 130.817 41.87 128.925 44.011C127.06 46.1204 124.487 47.5136 121.669 47.9563C118.852 48.3989 115.959 47.8651 113.506 46.4431C111.051 45.0205 109.189 42.7967 108.268 40.1576C107.346 37.5172 107.43 34.6459 108.506 32.0614C109.58 29.4784 111.568 27.3611 114.101 26.0752C116.632 24.7897 119.55 24.4135 122.338 25.0087C125.126 25.604 127.615 27.1356 129.355 29.345L127.005 31.1942C125.709 29.5471 123.836 28.3857 121.713 27.9326Z" fill="#0165B7"/>
<path id="Vector 14 (Stroke)" fill-rule="evenodd" clip-rule="evenodd" d="M118.639 36.1489H130.462V38.8669H121.357V45.7977H118.639V36.1489Z" fill="#0165B7"/>
</g>
<path id="Rectangle 5" d="M92.0015 9.92041H102.33V12.9102H92.0015V9.92041Z" fill="white"/>
<g id="Group 128">
<path id="Vector 5 (Stroke)" fill-rule="evenodd" clip-rule="evenodd" d="M126.714 18.6183L115.919 7.68921V18.6183H126.714ZM112.929 21.608V0.407959L128.401 16.0717H131.139V21.608H112.929Z" fill="white"/>
<path id="Rectangle 6" d="M127.88 0.951416H131.142V16.172H127.88V0.951416Z" fill="white"/>
</g>
<g id="Group 129">
<path id="Vector 5 (Stroke)_2" fill-rule="evenodd" clip-rule="evenodd" d="M99.5374 43.8949L88.7422 32.9658V43.8949H99.5374ZM85.7524 46.8846V25.6846L101.224 41.3483H103.963V46.8846H85.7524Z" fill="#0165B7"/>
<path id="Rectangle 6_2" d="M100.699 26.228H103.961V41.4486H100.699V26.228Z" fill="#0165B7"/>
</g>
<path id="Vector 6 (Stroke)" fill-rule="evenodd" clip-rule="evenodd" d="M37.6422 46.885L28.2653 25.1414L18.3447 46.885H37.6422ZM22.995 43.8953H33.097L28.1883 32.5128L22.995 43.8953Z" fill="#0165B7"/>
<path id="Vector 7 (Stroke)" fill-rule="evenodd" clip-rule="evenodd" d="M0 25.9565H2.98975V30.9848H13.0462V25.9565H16.0359V33.9745H0V25.9565Z" fill="#0165B7"/>
<path id="Vector 8 (Stroke)" fill-rule="evenodd" clip-rule="evenodd" d="M0 46.8845H2.98975V39.4101H13.0462V46.8845H16.0359V36.4204H0V46.8845Z" fill="#0165B7"/>
<g id="Group 127">
<path id="Vector 9 (Stroke)" fill-rule="evenodd" clip-rule="evenodd" d="M43.3062 44.1485C40.544 41.8506 39.4127 38.9505 39.4131 36.0769L42.4028 36.0773C42.4026 38.1019 43.1686 40.145 45.2183 41.8501C47.071 43.3914 49.7181 43.759 52.6546 43.759H56.5362V46.7488H52.6546C49.6368 46.7488 46.0309 46.4152 43.3062 44.1485Z" fill="#0165B7"/>
<path id="Vector 10 (Stroke)" fill-rule="evenodd" clip-rule="evenodd" d="M43.3062 28.1491C40.544 30.447 39.4127 33.3471 39.4131 36.2207L42.4028 36.2204C42.4026 34.1957 43.1686 32.1526 45.2183 30.4475C47.071 28.9062 49.7181 28.5386 52.6546 28.5386H56.5362V25.5488H52.6546C49.6368 25.5488 46.0309 25.8825 43.3062 28.1491Z" fill="#0165B7"/>
<path id="Vector 11 (Stroke)" fill-rule="evenodd" clip-rule="evenodd" d="M46.478 44.8464V27.1797H49.4678V44.8464H46.478Z" fill="#0165B7"/>
</g>
<path id="Vector 12 (Stroke)" fill-rule="evenodd" clip-rule="evenodd" d="M65.703 35.5525L75.832 25.6848L71.4833 25.8207L63.012 33.9746H62.6499V25.9566H59.6602V46.8849H62.6499V36.9643H62.9426L72.0269 46.8849H75.832L65.703 35.5525Z" fill="#0165B7"/>
<path id="Vector 13" d="M81.4027 46.7489H78.5488V25.9565H81.4027V46.7489Z" fill="#0165B7"/>
</g>
</svg>
