<svg width="4111" height="1743" viewBox="0 0 4111 1743" fill="none" xmlns="http://www.w3.org/2000/svg">
<path d="M549.334 8.61924C567.795 5.91708 586.256 2.76455 589.859 1.86383C593.461 0.963113 638.939 0.963113 691.17 1.86383C756.01 2.76455 795.634 5.46672 817.247 10.4207C834.357 14.4739 868.128 23.9315 891.542 31.5876C914.956 39.2437 952.779 54.1056 974.843 64.9143C996.906 75.7229 1031.58 95.0884 1087.41 131.117L1062.65 151.834C1049.14 163.093 1023.02 186.962 1005.01 205.427C987.45 223.441 961.785 253.165 948.277 270.729C935.219 288.743 914.506 320.719 902.349 341.886C890.191 363.053 873.081 397.731 864.526 419.798C855.971 441.415 847.866 458.98 846.515 459.43C845.164 459.43 834.808 431.958 801.487 337.382L624.08 339.634L564.193 510.771C531.323 604.896 495.751 708.029 484.495 740.455C473.688 772.881 450.274 839.984 400.744 981.397H549.334L594.361 837.282L830.305 839.534L853.269 909.34C874.882 975.543 877.133 979.146 888.39 980.046C898.296 981.398 905.501 988.603 924.862 1018.33C938.371 1039.04 962.685 1071.47 978.895 1090.38C995.105 1109.75 1026.17 1140.37 1085.61 1190.82L1073 1201.17C1066.25 1206.58 1047.34 1219.19 1031.13 1228.65C1014.92 1238.1 989.702 1252.06 974.843 1259.72C959.984 1266.93 929.365 1279.54 907.302 1287.19C885.238 1295.3 854.62 1304.31 839.761 1307.91C824.902 1311.06 788.429 1317.37 758.711 1320.97C728.993 1325.02 691.621 1328.17 675.411 1328.17C659.201 1328.17 624.079 1325.47 596.613 1321.87C569.146 1318.27 537.177 1312.86 524.569 1310.16C512.412 1307.46 482.694 1298.9 459.279 1291.25C435.865 1284.04 395.34 1266.93 369.225 1253.87C343.109 1241.26 306.636 1220.09 288.175 1207.48C269.714 1194.87 239.095 1171 220.634 1153.89C202.173 1137.22 175.157 1110.2 160.748 1093.99C146.339 1077.77 124.726 1050.3 113.019 1033.19C100.861 1016.08 83.3007 986.351 73.8449 967.887C63.9389 949.422 52.2318 925.102 47.729 913.843C42.776 902.584 33.3203 875.112 26.1159 853.045C18.9115 830.977 9.90602 793.147 6.75411 769.728C3.15192 746.309 0 697.67 0 661.642C0 625.613 3.15192 576.974 6.75411 553.555C10.3563 530.136 19.3618 490.505 27.4667 465.735C35.1214 440.965 50.4307 402.685 61.2372 380.167C72.0438 357.648 92.7564 322.07 106.715 300.453C121.124 278.835 144.988 247.31 159.847 230.647C174.706 213.533 201.723 186.061 220.634 169.398C239.095 152.735 271.065 127.514 291.777 114.004C312.04 100.943 347.611 80.2265 370.125 68.5172C393.089 57.2581 435.415 40.1445 463.782 31.1373C492.149 21.6797 530.873 11.7718 549.334 8.61924Z" fill="#DF4041"/>
<path d="M3212.7 33.8396C3232.52 27.0842 3272.14 16.7259 3300.51 10.8713C3342.83 2.31441 3366.25 0.062612 3428.84 0.062612C3493.67 -0.387748 3513.94 1.41369 3561.67 11.3216C3592.73 17.6267 3634.16 27.9849 3653.97 34.7403C3673.78 41.0454 3714.31 58.6094 3744.03 73.4713C3773.74 88.7836 3815.17 113.103 3836.33 127.965C3857.05 142.827 3894.42 175.253 3919.63 200.023C3944.4 225.243 3976.37 261.722 3990.33 281.087C4004.29 300.903 4026.8 338.283 4040.31 364.404C4053.36 390.525 4070.93 431.057 4078.58 454.476C4086.69 477.895 4097.04 517.977 4101.99 543.197C4108.75 577.875 4111 608.049 4111 661.642C4111 715.235 4108.75 745.409 4101.99 779.636C4097.04 805.307 4088.04 842.236 4081.73 862.052C4074.98 881.868 4060.12 918.347 4047.96 943.117C4036.25 967.887 4017.79 1001.21 4007.44 1017.43C3996.63 1033.64 3974.57 1062.91 3958.36 1082.73C3941.7 1102.54 3915.13 1130.47 3898.92 1144.88C3883.16 1159.29 3852.09 1183.61 3829.58 1199.82C3807.07 1215.58 3768.79 1238.55 3744.03 1250.71C3719.26 1263.32 3680.99 1279.54 3658.47 1287.64C3635.96 1295.3 3597.69 1306.11 3572.92 1311.51C3534.65 1319.62 3513.49 1320.97 3431.09 1320.97C3348.24 1320.97 3327.97 1319.62 3291.5 1311.51C3268.09 1306.11 3232.52 1296.65 3212.7 1289.89C3192.89 1283.59 3154.17 1267.38 3127.15 1253.87C3100.14 1240.81 3061.41 1219.19 3041.6 1206.13C3019.99 1192.17 2982.61 1159.74 2949.29 1125.96C2915.97 1092.64 2881.75 1053.46 2866.89 1030.94C2852.93 1009.77 2841.23 990.855 2841.23 988.153C2841.23 985.451 2864.64 982.298 2896.16 980.497C2930.83 978.695 2961.9 974.192 2978.56 968.788C2993.42 964.284 3017.74 954.376 3032.59 946.72C3047.45 939.064 3072.67 921.049 3088.43 906.638C3104.19 891.776 3124.9 867.907 3151.47 826.023L3156.42 839.534C3159.12 847.19 3164.97 860.251 3169.03 868.808C3173.08 877.364 3190.64 898.982 3207.75 916.546C3229.36 938.163 3249.18 953.025 3268.99 962.482C3285.2 970.139 3312.21 979.596 3329.77 984.1C3350.04 989.054 3379.31 991.306 3413.08 991.306C3450.9 991.306 3474.31 988.603 3500.88 981.398C3520.69 976.444 3549.06 965.635 3563.47 957.529C3578.33 949.422 3599.94 934.11 3611.2 922.851C3622.9 911.592 3638.66 892.677 3646.77 880.067C3654.42 867.907 3665.23 844.488 3670.18 828.275C3678.29 800.803 3678.74 785.941 3678.74 337.382H3543.65V549.952C3543.65 726.494 3542.75 767.026 3536.9 786.392C3532.4 802.154 3523.84 817.466 3510.78 830.977C3500.43 842.236 3483.77 855.297 3473.86 860.251C3463.96 864.754 3442.79 870.159 3426.58 871.51C3405.87 873.761 3390.11 872.41 3372.55 867.456C3359.04 863.854 3338.78 853.946 3327.52 845.389C3314.02 835.481 3302.76 821.52 3280.24 776.484L3277.99 337.382H3142.91V400.433C3142.91 437.813 3141.11 464.384 3138.41 465.735C3136.16 467.086 3127.15 458.529 3118.6 446.37C3110.49 434.66 3094.73 417.997 3083.93 408.99C3073.12 399.983 3051.06 385.121 3034.85 376.564C3018.64 367.557 2990.27 356.298 2971.81 350.893C2953.35 345.939 2916.42 340.085 2889.41 338.283C2848.88 335.581 2841.68 334.23 2843.93 328.375C2845.28 324.772 2857.89 305.407 2871.85 285.591C2885.8 265.775 2920.93 226.143 2949.29 197.32C2983.51 163.093 3016.38 135.171 3046.1 115.355C3070.87 99.1419 3110.49 76.6239 3133.91 65.8152C3157.32 54.5562 3192.89 40.1447 3212.7 33.8396Z" fill="#369448"/>
<path fill-rule="evenodd" clip-rule="evenodd" d="M625.881 337.382L799.236 336.932L822.2 401.334C835.258 436.912 878.934 561.662 919.009 678.305C959.533 795.399 994.205 891.326 996.006 891.326C998.257 891.326 999.608 766.576 999.608 337.382L1158.55 338.734C1306.69 340.085 1318.85 340.985 1346.32 349.993C1362.53 354.947 1387.74 367.106 1402.6 377.014C1417.46 386.472 1435.92 402.234 1444.03 412.142C1451.68 421.6 1463.39 440.965 1469.69 454.476C1476 467.987 1483.65 494.558 1486.35 513.023C1490.86 539.594 1490.86 554.456 1486.35 582.829C1483.65 602.645 1476 629.666 1470.14 642.727C1463.84 655.337 1449.88 675.603 1439.08 687.763C1428.27 699.472 1410.26 713.884 1398.55 720.189C1387.29 726.494 1377.84 732.799 1377.84 735.051C1377.84 736.852 1401.7 781.888 1430.97 835.031C1459.79 888.173 1484.55 931.858 1485.9 931.858C1487.25 931.858 1513.82 858.449 1545.34 768.828C1576.86 678.756 1616.93 563.914 1634.49 513.023C1652.05 462.132 1673.22 401.784 1695.28 337.382L1870.89 336.932L1962.74 601.744C2013.62 747.661 2058.2 875.563 2061.8 886.372C2065.86 897.18 2071.71 907.088 2074.86 907.989C2078.91 908.89 2080.27 849.892 2080.27 337.382H2199.59L2339.17 540.045C2415.72 651.284 2480.11 741.356 2482.36 740.455C2484.16 739.104 2485.51 648.131 2485.51 337.382H2620.59V981.398L2501.27 980.947L2473.8 941.766C2458.95 920.149 2395.91 830.077 2334.22 741.806C2272.53 653.085 2220.75 581.928 2218.95 582.829C2216.7 584.18 2215.35 674.252 2215.35 981.398L1947.43 980.947L1901.96 839.534L1666.01 837.282L1618.73 981.398L1358.93 979.146L1240.05 758.469L1139.19 756.218V981.398L1020.77 982.298C955.481 983.199 896.495 982.749 889.291 981.398C877.133 979.146 875.332 975.543 830.305 839.534L594.361 837.282L549.334 981.398H400.744L413.802 944.018C421.006 923.752 445.321 854.396 467.384 789.995C489.898 725.593 532.224 603.095 561.942 517.527C591.66 431.958 618.226 356.748 620.928 349.542L625.881 337.382ZM2639.51 336.932L2789 338.734C2926.78 340.535 2940.74 341.436 2971.81 350.893C2990.72 356.298 3019.09 368.007 3034.85 376.564C3051.06 385.571 3073.12 399.983 3083.93 408.99C3094.73 417.997 3110.49 435.111 3118.6 446.82C3127.15 458.529 3136.16 467.086 3138.41 465.735C3141.11 464.834 3142.91 438.263 3142.91 337.382H3279.34L3280.24 776.484L3293.75 803.505C3302.76 821.97 3314.02 835.481 3327.52 845.839C3338.78 853.946 3359.04 863.854 3372.55 867.907C3390.11 872.41 3406.32 873.762 3426.58 871.96C3442.79 870.159 3463.96 865.205 3473.86 860.251C3483.77 855.747 3500.43 842.236 3511.24 830.977C3523.84 817.467 3532.4 802.605 3536.9 786.842C3542.75 767.026 3543.66 726.944 3543.66 337.382H3678.74L3679.19 568.417C3679.19 785.941 3678.74 800.803 3670.18 828.726C3665.23 844.488 3654.87 867.907 3646.77 880.517C3638.66 892.677 3622.9 912.042 3611.65 923.301C3599.94 934.11 3578.33 949.872 3563.92 957.979C3549.06 965.635 3520.69 976.444 3500.88 981.848C3474.76 988.603 3451.35 991.306 3413.08 991.756C3379.76 991.756 3350.49 989.054 3329.78 984.1C3312.66 980.047 3285.2 970.139 3268.99 962.483C3249.18 953.025 3229.81 938.613 3208.2 916.546C3190.64 898.982 3173.08 877.815 3169.03 868.808C3164.97 860.251 3159.57 847.19 3151.92 826.023L3134.36 853.045C3124.9 868.357 3104.19 892.226 3088.43 906.638C3072.67 921.5 3047.45 939.514 3032.59 946.72C3017.74 954.376 2993.42 964.734 2978.56 969.688C2954.25 977.795 2938.04 978.696 2638.6 981.398L2639.51 336.932ZM917.658 1491.21C965.387 1491.21 1007.26 1492.11 1010.86 1493.01C1014.92 1494.36 1017.62 1499.31 1017.62 1504.27C1017.62 1512.82 1014.92 1513.27 927.564 1513.27V1742.96H905.05V1513.27H862.274C823.551 1513.27 819.498 1512.82 818.598 1504.72C818.148 1500.21 820.849 1495.26 824.451 1493.91C828.054 1492.56 869.929 1491.66 917.658 1491.21ZM1136.04 1490.76C1175.21 1490.76 1209.89 1492.11 1213.49 1493.01C1217.54 1494.36 1220.24 1499.31 1220.24 1504.27C1220.24 1512.82 1217.54 1513.27 1076.15 1513.27V1603.35H1134.69C1167.11 1603.35 1196.38 1604.7 1199.98 1605.6C1204.03 1606.95 1206.73 1611.9 1206.73 1616.86C1206.73 1625.41 1204.03 1625.86 1076.15 1625.86V1720.44H1229.25V1742.96L1055.89 1740.71L1054.09 1619.56C1052.74 1517.78 1053.19 1497.51 1058.59 1494.81C1062.2 1492.56 1096.87 1491.21 1136.04 1490.76V1490.76ZM1392.7 1491.21C1408.01 1491.21 1428.27 1494.36 1442.23 1499.76C1455.29 1504.72 1468.79 1512.37 1472.85 1516.88C1476.9 1521.83 1479.15 1529.04 1478.7 1533.09C1477.8 1537.14 1474.65 1540.29 1471.49 1540.29C1468.34 1540.29 1462.94 1537.14 1458.89 1533.54C1455.29 1529.94 1444.03 1524.08 1434.12 1520.48C1424.22 1516.88 1407.11 1513.72 1395.85 1513.72C1385.04 1513.27 1366.58 1516.43 1355.32 1520.03C1342.72 1524.08 1328.31 1533.99 1316.15 1547.05C1305.79 1558.31 1294.99 1574.97 1292.74 1584.43C1290.03 1593.44 1288.23 1608.3 1288.23 1616.86C1288.23 1625.86 1290.48 1640.73 1293.19 1650.63C1295.89 1661.89 1305.79 1676.75 1318.85 1689.81C1331.91 1702.42 1346.77 1712.33 1357.58 1715.48C1367.48 1718.19 1385.49 1720.44 1397.2 1720.44C1408.91 1720.44 1426.02 1717.29 1435.47 1713.68C1444.93 1709.63 1455.74 1703.33 1460.24 1698.82C1467.89 1691.62 1468.79 1691.62 1476 1698.82C1483.2 1706.03 1483.2 1707.38 1476.9 1714.13C1473.3 1718.64 1459.79 1726.74 1446.73 1732.6C1430.52 1739.8 1414.76 1742.96 1395.85 1742.96C1379.19 1742.96 1359.38 1739.35 1343.17 1733.05C1328.76 1727.64 1312.1 1719.09 1305.79 1713.68C1299.94 1708.28 1288.68 1694.32 1281.48 1681.71C1270.67 1663.69 1267.97 1653.79 1266.62 1623.61C1264.82 1590.74 1265.72 1585.78 1278.78 1560.56C1287.33 1543.9 1299.49 1528.59 1311.65 1519.13C1322 1511.47 1338.66 1502.01 1348.57 1498.41C1358.48 1494.36 1378.29 1491.21 1392.7 1491.21V1491.21ZM1736.26 1494.36C1741.21 1496.16 1742.56 1521.83 1742.56 1742.96H1720.05V1625.86H1562.45V1677.65C1562.45 1706.48 1561.55 1732.6 1560.2 1736.2C1559.3 1740.25 1553.89 1742.96 1548.94 1742.96C1543.99 1742.96 1539.04 1740.25 1537.69 1736.2C1536.78 1732.6 1535.43 1679.91 1535.43 1619.11C1535.43 1558.76 1536.78 1506.07 1537.69 1502.01C1539.04 1498.41 1543.99 1495.26 1548.94 1495.26C1553.89 1495.26 1559.3 1498.41 1560.2 1502.01C1561.55 1506.07 1562.45 1530.39 1562.45 1603.35H1720.05L1719.15 1549.75C1718.7 1508.32 1719.6 1495.71 1724.55 1494.36C1727.7 1493.01 1733.1 1493.01 1736.26 1494.36ZM1839.82 1494.81C1842.52 1496.61 1869.09 1528.14 1898.35 1565.06C1927.62 1602.44 1963.64 1647.48 2003.72 1697.92V1596.59C2003.72 1519.58 2005.07 1494.81 2009.57 1493.91C2012.72 1493.01 2017.68 1493.01 2020.83 1493.91C2025.33 1495.26 2026.23 1524.08 2026.23 1619.11C2026.23 1740.25 2026.23 1742.96 2017.23 1742.96C2011.37 1742.96 1993.36 1724.04 1960.04 1681.26C1933.48 1647.03 1909.61 1616.86 1907.36 1614.15C1904.66 1611.45 1890.25 1592.99 1848.37 1538.04L1846.12 1639.37C1843.87 1740.71 1843.87 1740.71 1823.61 1742.96L1822.71 1619.56C1822.26 1518.23 1823.16 1495.71 1828.11 1494.36C1831.71 1493.01 1836.67 1493.46 1839.82 1494.81V1494.81ZM2212.2 1491.21C2226.6 1491.21 2247.77 1494.36 2259.47 1498.86C2271.18 1503.37 2289.64 1513.72 2300.45 1522.73C2312.61 1532.19 2324.31 1547.5 2331.52 1562.81C2340.07 1581.28 2342.77 1595.24 2342.77 1616.86C2343.22 1638.92 2340.07 1652.43 2331.52 1670.9C2325.21 1684.86 2314.41 1701.07 2307.2 1707.83C2300 1714.58 2282.89 1725.39 2268.48 1731.7C2250.02 1739.8 2234.71 1742.96 2215.35 1742.96C2198.69 1742.96 2178.88 1739.35 2162.67 1733.05C2146.91 1727.19 2129.8 1716.39 2118.54 1705.13C2108.63 1694.77 2097.38 1676.3 2092.87 1664.14C2088.37 1651.98 2084.77 1630.82 2085.22 1616.86C2085.22 1603.35 2088.82 1582.63 2092.87 1570.92C2097.38 1558.31 2109.08 1540.75 2120.79 1529.04C2132.5 1516.88 2150.96 1504.72 2163.57 1499.76C2176.17 1495.26 2197.79 1491.21 2212.2 1491.21ZM2141.05 1540.29C2133.85 1547.5 2123.04 1561.91 2117.64 1572.72C2110.88 1585.78 2107.73 1600.19 2107.73 1616.86C2107.73 1631.72 2110.88 1648.83 2116.29 1659.64C2120.79 1669.55 2129.8 1683.51 2136.1 1690.26C2142.85 1697.02 2154.56 1706.03 2162.67 1710.08C2170.77 1714.13 2189.23 1718.64 2204.09 1719.54C2224.35 1721.34 2236.96 1719.99 2253.62 1713.68C2266.23 1708.73 2282.44 1698.82 2289.64 1691.62C2296.85 1683.96 2306.3 1669.55 2310.81 1659.64C2315.31 1649.28 2318.91 1631.27 2318.91 1616.86C2318.91 1602.44 2315.31 1584.88 2310.36 1574.07C2305.85 1564.16 2295.5 1549.75 2286.94 1541.65C2278.84 1533.99 2262.63 1524.08 2251.37 1520.48C2240.56 1516.43 2222.1 1513.27 2210.84 1513.72C2200.04 1513.72 2182.48 1516.88 2172.57 1520.48C2162.67 1524.08 2148.71 1533.09 2141.05 1540.29V1540.29ZM2416.17 1494.36C2421.12 1495.71 2422.47 1520.03 2422.47 1720.44H2492.27C2544.5 1720.44 2562.51 1722.24 2563.86 1726.29C2564.76 1729.45 2564.76 1734.4 2563.86 1737.55C2562.51 1741.61 2542.25 1742.96 2399.96 1742.96L2399.06 1619.56C2398.61 1519.58 2399.51 1495.71 2404.46 1494.36C2407.61 1493.01 2413.02 1493.01 2416.17 1494.36ZM2705.25 1491.21C2718.75 1490.76 2739.92 1495.26 2754.78 1500.66C2769.18 1506.07 2787.65 1516.88 2795.75 1524.53C2804.31 1532.19 2816.01 1548.4 2822.32 1560.56C2828.62 1573.17 2834.47 1594.34 2835.82 1607.85C2838.08 1627.21 2835.82 1638.92 2827.72 1661.89C2819.16 1683.96 2811.51 1695.22 2793.95 1710.08C2781.79 1721.34 2762.43 1733.05 2751.17 1736.65C2740.37 1740.25 2719.65 1743.41 2705.25 1742.96C2690.84 1742.96 2668.77 1739.35 2655.72 1734.4C2639.96 1728.55 2625.1 1718.19 2611.59 1703.78C2599.88 1692.07 2588.17 1674.05 2584.57 1664.14C2580.97 1654.24 2578.27 1632.17 2578.27 1614.6C2578.27 1591.64 2580.97 1577.67 2588.17 1562.81C2593.58 1552 2604.38 1536.24 2612.94 1528.14C2621.04 1520.03 2639.51 1508.32 2654.36 1502.46C2671.47 1495.26 2690.39 1491.21 2705.25 1491.21V1491.21ZM2639.96 1534.89C2631.85 1540.29 2619.69 1554.71 2612.94 1566.42C2602.58 1583.98 2600.78 1592.99 2600.78 1616.86C2600.78 1638.02 2603.48 1651.53 2610.24 1664.14C2615.64 1674.05 2625.55 1687.56 2632.75 1694.32C2639.96 1701.07 2654.81 1709.63 2665.62 1713.68C2676.88 1717.74 2695.34 1720.89 2706.15 1720.44C2717.4 1720.44 2734.51 1717.74 2743.97 1715.03C2753.42 1711.88 2768.73 1703.33 2777.29 1695.67C2786.29 1688.46 2797.1 1674.05 2801.6 1664.14C2806.56 1652.88 2809.71 1635.32 2809.71 1616.86C2809.71 1598.84 2806.56 1580.83 2801.6 1569.57C2797.1 1559.66 2785.84 1545.7 2775.94 1538.04C2766.48 1530.84 2751.17 1522.28 2742.62 1519.13C2733.61 1516.43 2717.4 1513.72 2706.15 1513.72C2695.34 1513.72 2679.13 1516.43 2670.12 1519.58C2661.57 1522.28 2648.06 1529.49 2639.96 1534.89V1534.89ZM3000.17 1491.21C3015.03 1490.76 3036.2 1494.81 3049.7 1499.76C3062.76 1504.72 3076.27 1512.37 3080.32 1516.88C3084.38 1521.83 3086.63 1529.04 3086.18 1533.09C3085.28 1537.14 3082.57 1540.29 3079.87 1540.29C3077.62 1540.29 3068.17 1535.34 3058.71 1529.04C3049.25 1522.73 3032.59 1516.43 3021.34 1515.07C3010.53 1513.72 2992.07 1513.72 2980.81 1515.07C2970.01 1516.88 2951.54 1523.63 2940.74 1530.39C2929.03 1537.59 2915.07 1552 2906.97 1565.06C2895.26 1583.98 2893.46 1591.19 2893.46 1616.86C2893.91 1637.12 2896.61 1651.98 2902.92 1664.14C2907.87 1674.05 2919.13 1688.46 2928.13 1695.67C2936.69 1703.33 2952 1711.88 2961.45 1715.03C2970.91 1717.74 2989.82 1720.44 3003.33 1720.44C3018.64 1720.44 3035.75 1716.84 3066.36 1702.42V1659.64C3066.36 1617.31 3066.82 1616.86 3088.88 1616.86V1715.94L3060.96 1729.45C3038.45 1740.25 3026.74 1742.96 3002.43 1742.96C2983.06 1742.96 2963.25 1739.8 2948.39 1734.4C2933.08 1728.55 2918.22 1718.64 2905.62 1705.13C2895.26 1693.87 2883.1 1676.75 2879.05 1667.75C2874.1 1657.39 2871.4 1638.92 2871.4 1619.11C2871.4 1601.99 2873.65 1580.83 2876.35 1571.82C2879.5 1563.26 2890.31 1546.6 2901.11 1534.44C2914.62 1519.58 2928.13 1509.67 2947.04 1502.01C2964.6 1494.81 2983.51 1491.21 3000.17 1491.21V1491.21ZM3139.31 1490.76C3141.11 1490.76 3146.51 1495.26 3150.12 1501.11C3154.17 1506.52 3170.38 1532.64 3186.59 1558.31C3202.8 1584.43 3219.46 1611.45 3223.51 1618.21C3227.56 1624.96 3232.07 1630.37 3232.97 1630.37C3234.32 1630.37 3245.57 1613.7 3257.73 1593.44C3270.34 1572.72 3288.8 1542.55 3299.61 1525.88C3309.96 1509.22 3320.77 1494.36 3323.02 1493.01C3325.72 1492.11 3329.77 1493.91 3332.48 1497.51C3335.18 1501.11 3336.08 1506.52 3334.28 1509.67C3332.48 1513.27 3314.92 1542.1 3295.1 1574.07C3275.29 1606.5 3255.48 1638.47 3250.53 1645.23C3243.77 1655.14 3241.97 1665.95 3241.97 1700.17C3241.97 1740.25 3241.52 1742.96 3232.97 1742.96C3228.01 1742.96 3223.06 1740.25 3221.71 1736.2C3220.81 1732.6 3219.46 1712.78 3219.91 1655.14L3172.63 1578.58C3137.51 1521.83 3126.7 1500.66 3130.3 1496.61C3133.01 1493.46 3137.06 1490.76 3139.31 1490.76V1490.76Z" fill="white"/>
<path d="M1301.29 24.3821C1322.45 18.077 1356.68 9.97054 1377.84 6.36766C1405.3 1.86406 1443.13 0.512976 1510.67 1.86406C1575.96 2.76478 1615.13 5.9173 1636.75 10.8713C1654.31 14.4741 1681.32 22.1303 1697.53 27.0842C1713.74 32.0382 1742.11 42.3965 1760.57 50.0526C1779.03 57.7087 1805.6 69.8685 1819.11 77.5246C1832.61 84.7303 1860.08 101.844 1879.89 114.904C1899.71 127.965 1930.77 151.834 1948.33 167.146C1966.35 182.909 1984.36 200.473 1988.41 206.778C1995.61 217.587 1995.16 218.487 1986.16 229.296C1980.75 235.601 1964.99 255.867 1950.59 274.782C1936.63 293.698 1916.82 323.421 1906.91 340.985C1897 358.549 1888 373.411 1886.65 373.411C1885.3 373.411 1881.69 365.305 1873.14 337.382H1695.28L1680.87 378.816C1673.22 401.784 1652.05 462.132 1634.49 513.023C1616.93 563.914 1576.86 678.756 1545.34 768.828C1513.82 858.449 1487.25 931.858 1485.9 931.858C1484.55 931.858 1459.79 888.173 1430.97 835.031C1401.7 781.888 1377.84 736.852 1377.84 735.051C1377.84 732.799 1387.29 726.494 1398.55 720.189C1410.26 713.884 1428.27 699.472 1439.08 687.312C1449.88 675.603 1463.84 655.337 1470.14 642.727C1476 629.666 1483.65 602.645 1486.35 582.829C1490.86 554.456 1490.86 539.594 1486.35 513.023C1483.65 494.558 1476 467.987 1469.69 454.476C1463.39 440.965 1451.68 421.6 1444.03 412.142C1435.92 402.234 1417.46 386.472 1402.6 377.014C1387.74 367.106 1362.53 354.947 1346.32 349.993C1318.85 340.985 1306.69 340.085 999.608 337.382V614.354C999.608 766.576 998.257 891.326 996.006 891.326C994.205 891.326 959.534 795.399 845.614 465.735L863.175 422.951C872.631 399.532 890.191 363.053 902.349 341.886C914.506 320.719 932.517 292.346 942.423 278.836C952.329 265.325 972.141 241.005 985.649 225.243C999.608 209.48 1030.23 180.207 1053.64 159.941C1077.05 139.674 1105.42 116.706 1116.68 109.5C1127.94 101.844 1150 88.3332 1166.21 79.7764C1182.42 70.7692 1210.79 57.7087 1229.25 49.6022C1247.71 41.9461 1280.13 30.6871 1301.29 24.3821Z" fill="#FACF32"/>
<path d="M1139.19 981.398V868.808L1139.64 755.767L1240.05 758.469L1358.93 979.146L1618.73 981.398L1666.01 837.282H1846.12L1855.58 867.457C1860.98 884.57 1873.14 915.195 1883.05 936.362C1892.5 957.529 1909.61 988.603 1919.97 1006.17C1930.77 1023.28 1951.94 1053 1967.25 1071.47C1982.56 1089.93 1994.71 1107.05 1994.71 1109.75C1994.71 1112 1980.75 1126.86 1964.09 1142.63C1947.43 1158.39 1915.46 1184.06 1893.4 1199.82C1871.34 1215.59 1830.81 1239.9 1803.35 1253.42C1775.88 1266.93 1738.51 1283.14 1720.05 1289.44C1701.58 1295.3 1674.12 1303.86 1659.26 1307.46C1644.4 1311.06 1608.83 1317.37 1580.46 1320.97C1552.09 1325.02 1513.37 1328.18 1494.91 1328.18C1476.45 1328.18 1439.08 1325.02 1411.61 1321.42C1384.14 1317.82 1352.17 1312.41 1339.56 1309.71C1327.41 1307.01 1300.84 1299.8 1281.03 1293.5C1261.22 1287.19 1228.8 1274.58 1208.99 1265.12C1189.17 1256.12 1156.75 1238.55 1136.94 1226.84C1117.13 1214.68 1079.76 1186.31 1054.09 1164.24C1027.98 1141.73 993.754 1107.95 977.995 1089.48C962.235 1071.02 939.271 1040.85 927.114 1022.83C914.956 1005.27 905.05 988.153 905.05 985.901C905.05 983.199 946.926 981.398 1139.19 981.398Z" fill="#FACF32"/>
<path d="M2325.66 18.9777C2340.52 14.9245 2367.99 9.52017 2386.45 6.36765C2404.91 3.21512 2453.54 0.512962 2494.52 0.0626022C2540.9 -0.387758 2584.12 2.3144 2609.34 6.36765C2631.85 9.97053 2667.87 18.077 2690.39 24.8324C2712.9 31.1375 2743.07 41.4957 2757.93 47.8008C2772.79 53.6555 2798.9 66.2656 2816.46 74.8224C2834.02 83.8296 2865.09 102.745 2886.26 117.156C2907.42 131.568 2933.53 151.384 2965.05 178.856L2935.33 209.93C2919.12 226.594 2893.01 257.669 2877.25 278.836C2861.94 300.003 2846.63 321.62 2843.93 327.474C2838.98 337.833 2838.53 337.833 2638.6 337.382V981.398H2739.92C2817.81 981.398 2841.23 982.749 2841.23 986.802C2841.23 989.954 2852.93 1009.77 2866.89 1030.94C2881.3 1051.65 2909.22 1085.88 2965.05 1144.88L2942.54 1164.69C2930.38 1175.5 2902.92 1196.22 2881.75 1210.18C2860.59 1224.59 2826.37 1244.41 2805.21 1254.77C2784.04 1265.12 2746.67 1280.44 2721.91 1288.99C2697.14 1297.55 2664.72 1307.01 2649.86 1310.16C2635 1313.31 2603.48 1318.27 2580.07 1321.42C2556.65 1324.57 2513.88 1326.82 2485.51 1325.92C2457.14 1325.02 2418.87 1322.32 2401.31 1319.62C2383.3 1316.92 2358.98 1312.41 2347.28 1310.16C2335.12 1307.46 2306.3 1298.9 2282.89 1291.25C2259.47 1283.59 2219.85 1267.83 2195.08 1255.67C2170.32 1243.96 2134.3 1223.24 2115.39 1210.18C2096.47 1197.12 2063.15 1171 2041.54 1152.53C2020.38 1134.07 1998.32 1112.9 1993.36 1105.25C1987.96 1097.59 1975.35 1081.38 1964.99 1069.22C1954.64 1056.61 1936.63 1031.39 1924.47 1012.92C1912.76 994.458 1894.75 962.032 1885.3 940.865C1875.39 919.698 1862.33 888.173 1856.48 871.059C1850.63 853.946 1846.12 839.084 1846.12 838.183C1846.12 837.733 1858.73 837.733 1901.96 839.534L1947.43 980.947L2215.35 981.398V783.239C2215.35 674.252 2216.7 584.18 2218.95 582.829C2220.75 581.928 2272.53 653.085 2334.22 741.806C2395.91 830.077 2458.95 920.149 2501.27 980.947L2620.59 981.398V337.382H2485.51V537.793C2485.51 648.131 2484.16 739.104 2482.36 740.455C2480.11 741.356 2415.72 651.284 2199.59 337.382H2080.26V623.361C2080.26 849.892 2078.91 908.89 2074.41 907.989C2071.71 907.088 2064.96 894.478 2059.55 879.616C2054.6 865.205 2013.17 745.859 1885.75 375.663L1907.36 339.634C1919.07 319.818 1936.63 292.346 1946.53 278.836C1956.44 265.325 1970.85 246.86 1978.5 238.303C1986.16 229.296 1996.51 216.686 2001.47 209.48C2006.42 202.725 2027.58 182.458 2048.75 164.444C2069.91 146.88 2099.18 123.912 2114.04 114.004C2128.89 103.645 2156.36 87.4325 2174.82 77.5246C2193.28 67.1663 2228.86 51.854 2253.62 42.3965C2278.39 33.3893 2310.81 22.5806 2325.66 18.9777Z" fill="#346BC8"/>
<path d="M667.756 614.354C688.469 552.655 706.48 498.161 708.281 494.108C709.631 489.604 712.333 486.001 714.134 486.001C715.935 486.001 734.396 540.045 755.109 606.698C775.822 672.901 791.581 727.394 789.33 728.295C787.529 728.746 751.057 728.746 630.833 726.944L667.756 614.354Z" fill="#DF4041"/>
<path d="M2773.69 661.642C2773.69 524.732 2775.04 476.093 2779.09 466.636L2784.94 453.575L2850.23 455.827C2905.17 457.178 2920.03 459.43 2942.54 468.437C2957.4 473.842 2977.66 485.101 2987.57 492.757C2999.27 501.764 3011.43 517.977 3022.69 540.045C3036.65 567.967 3040.7 581.478 3044.75 618.858C3048.35 651.284 3048.35 674.702 3044.75 702.174C3042.05 723.341 3035.75 752.615 3030.34 767.477C3022.69 787.743 3013.68 801.254 2993.87 820.619C2971.81 841.786 2961.9 848.091 2936.69 855.747C2915.52 862.052 2888.06 865.655 2784.94 869.708L2779.09 857.098C2775.04 847.19 2773.69 798.551 2773.69 661.642Z" fill="#369448"/>
<path d="M1139.19 643.627V546.8V449.973H1198.63C1235.1 449.973 1266.62 452.224 1278.78 455.827C1290.03 458.98 1305.79 466.636 1314.35 472.491C1322.9 478.796 1333.71 491.856 1338.21 501.764C1343.17 512.573 1346.32 530.587 1346.32 548.151C1346.32 563.463 1343.62 582.829 1340.01 590.485C1336.86 598.591 1328.31 610.751 1321.1 617.507C1313.9 624.262 1299.04 632.819 1287.78 636.872C1272.92 641.826 1250.41 643.627 1139.19 643.627Z" fill="#FACF32"/>
<path d="M1703.84 723.341C1704.74 720.639 1722.3 665.695 1742.56 602.194C1763.27 538.243 1782.18 486.001 1784.44 486.001C1786.69 486.001 1796.59 511.672 1806.05 543.197C1822.71 598.591 1823.61 603.545 1823.61 729.196H1762.82C1716.44 729.196 1702.49 727.845 1703.84 723.341Z" fill="#FACF32"/>
<path d="M1823.61 729.196V669.748V669.298C1823.61 636.872 1824.51 610.751 1825.41 612.102C1826.76 613.453 1835.77 638.673 1846.12 668.397C1856.03 698.121 1864.13 723.792 1864.13 725.593C1864.13 727.845 1855.13 729.196 1823.61 729.196Z" fill="#346BC8"/>
</svg>
