<svg width="372" height="663" viewBox="0 0 372 663" fill="none" xmlns="http://www.w3.org/2000/svg" xmlns:xlink="http://www.w3.org/1999/xlink">
<mask id="mask0_941_15829" style="mask-type:alpha" maskUnits="userSpaceOnUse" x="21" y="19" width="329" height="625">
<path d="M31.8857 96.2518C41.6417 -16.2941 336.023 3.25585 343.913 96.2512C351.803 189.247 355.387 490.355 333.215 592.181C311.042 694.007 73.3495 618.977 41.4206 592.181C9.49184 565.385 22.1297 208.798 31.8857 96.2518Z" fill="#1B70BE"/>
</mask>
<g mask="url(#mask0_941_15829)">
<rect y="-7" width="372" height="657" fill="#0165B7"/>
<path d="M189.057 733.27C185.683 718.055 183.182 702.565 183.581 687.017C183.98 671.469 187.397 655.798 195.257 642.165C196.941 649.171 200.419 662.32 196.081 675.241C188.921 696.546 185.019 701.654 190.796 731.116" fill="#455A64"/>
<path d="M108.613 649.183C111.741 647.939 115.281 649.492 118.132 651.232C120.984 652.972 123.995 655.021 127.351 654.811C129.968 654.642 132.267 653.135 134.725 652.324C137.214 651.512 139.898 651.407 142.45 652.02C144.011 652.394 145.522 653.036 147.071 653.369C148.62 653.702 153.923 652.143 153.923 652.143L152.915 648.885L155.791 651.448C157.177 651.463 158.561 651.342 159.921 651.086C163.742 650.001 167.272 648.146 170.27 645.647C173.268 643.148 175.664 640.065 177.294 636.606" fill="#263238"/>
<path d="M-1.7168 586.057C-1.41567 586.64 11.6617 601.237 17.8194 602.282C23.9771 603.327 26.4229 603.082 29.5817 605.785C32.7404 608.488 38.388 615.086 44.558 616.773C50.7279 618.461 53.7208 618.309 53.7208 618.309L56.6705 616.236L55.5029 618.893C55.5029 618.893 64.0266 621.701 67.9412 621.713C71.8558 621.725 71.1368 619.039 74.572 620.901C78.0073 622.764 80.3118 626.349 83.4276 626.997C86.5433 627.645 87.2807 626.617 87.2807 626.617C87.2807 626.617 77.3006 614.175 77.2391 613.772C77.1777 613.37 67.2283 609.534 66.0976 609.102C64.9668 608.669 41.8233 603.888 38.7567 602.224C35.6902 600.56 17.0266 593.466 17.0266 593.466L6.19847 589.992L-1.7168 586.057Z" fill="#263238"/>
<path d="M103.593 644.466C106.43 640.749 110.268 637.825 114.703 636C126.705 630.897 153.26 630.886 161.507 628.69C169.754 626.495 188.147 623.436 188.147 623.436C188.147 623.436 191.023 632.088 180.299 639.357C169.576 646.626 169.809 645.126 169.809 645.126L163.406 641.296L167.615 646.41C167.615 646.41 161.193 648.553 156.627 648.687C152.061 648.822 152.811 650.439 148.448 651.023C144.085 651.607 141.35 650.054 137.435 649.598C133.521 649.143 133.103 651.046 128.248 650.953C123.393 650.859 119.644 648.722 114.556 648.547C111.317 648.498 108.11 649.16 105.184 650.48L97.8098 670.214L94.8047 658.14L103.593 644.466Z" fill="#455A64"/>
<path d="M87.2695 773.557C87.2695 771.893 89.5986 744.364 88.8488 737.941C88.2964 733.614 87.4611 729.325 86.3477 725.096L90.8522 730.807L88.5969 695.366V684.915L90.8522 691.577V661.368L89.8505 649.388L90.8522 637.588L87.5522 630.447H95.3568L96.8624 636.397L103.973 627.131L108.459 628.41C108.459 628.41 99.4435 639.503 99.6524 645.435C99.8614 651.367 102.866 707.989 102.866 707.989L105.122 705.847C105.122 705.847 104.624 711.796 104.372 715.363C104.12 718.931 104.372 742.875 104.372 742.875L108.459 773.557H87.2695Z" fill="#455A64"/>
<path d="M94.8151 634.411C94.8151 634.411 87.0842 617.252 75.5923 608.313C64.1004 599.374 33.3489 585.081 24.0264 581.689C14.7038 578.297 -11.494 565.394 -11.494 565.394C-11.494 565.394 -16.9265 571.127 -7.70841 581.993C-7.2475 582.541 -6.74973 583.096 -6.21508 583.668C-5.99384 583.902 -2.74293 578.326 -2.47868 578.513C-1.75967 579.015 -5.33014 584.743 -4.07648 585.683C7.4707 594.33 26.2387 597.99 33.7422 601.943C42.2229 606.41 35.721 606.847 44.4414 608.307C53.1617 609.767 54.0835 616.919 64.5306 617.748C74.9778 618.577 76.1024 614.192 80.8343 619.868C85.5663 625.543 91.5703 646.287 91.5703 646.287L94.8151 634.411Z" fill="#455A64"/>
<path d="M96.4884 630.039C96.2917 629.215 99.7761 620.3 106.702 601.961C113.628 583.622 141.731 550.196 146.032 544.328C150.334 538.461 164.088 525.178 164.088 525.178C166.146 527.033 167.79 529.263 168.922 531.734C170.054 534.206 170.65 536.869 170.675 539.564C170.731 548.701 166.288 560.793 166.288 560.793L158.231 561.651L166.282 563.245L163.823 567.192L154.255 566.363L163.362 571.682C163.362 571.682 157.217 579.389 151.742 585.152C146.266 590.914 143.796 589.787 142.161 594.558C140.526 599.328 128.113 606.492 128.113 606.492L121.764 603.928L125.15 607.689C125.15 607.689 112.62 613.603 108.65 613.48C104.68 613.358 104.606 616.476 104.606 616.476L100.446 640.174L96.4884 630.039Z" fill="#455A64"/>
<path d="M126.226 596.659C126.226 596.747 123.092 596.209 119.263 595.491C115.434 594.773 112.337 594.084 112.356 594.002C112.374 593.921 115.49 594.452 119.324 595.17C123.159 595.888 126.244 596.577 126.226 596.659Z" fill="#263238"/>
<path d="M121.955 593.039C120.482 593.142 119.003 593.142 117.53 593.039C116.052 593.046 114.575 592.951 113.111 592.753C114.584 592.653 116.063 592.653 117.536 592.753C119.014 592.748 120.491 592.844 121.955 593.039Z" fill="#263238"/>
<path d="M135.498 590.669C135.294 590.597 135.1 590.501 134.921 590.383L133.396 589.519C132.106 588.789 130.324 587.796 128.314 586.769C126.305 585.741 124.449 584.865 123.103 584.246L121.505 583.505C121.303 583.426 121.112 583.326 120.934 583.207C121.148 583.241 121.355 583.306 121.548 583.4C121.941 583.54 122.507 583.762 123.189 584.048C124.566 584.632 126.44 585.467 128.462 586.5C130.484 587.533 132.247 588.555 133.507 589.338C134.122 589.723 134.638 590.05 134.982 590.283C135.17 590.392 135.343 590.521 135.498 590.669Z" fill="#263238"/>
<path d="M136.85 584.737C136.82 584.813 133.778 583.855 130.011 582.588C126.244 581.321 123.251 580.253 123.281 580.16C123.312 580.066 126.354 581.041 130.115 582.302C133.876 583.563 136.875 584.661 136.85 584.737Z" fill="#263238"/>
<path d="M138.89 580.423C138.265 580.341 137.649 580.212 137.046 580.037C135.934 579.769 134.391 579.395 132.683 579.016C130.974 578.636 129.42 578.309 128.295 578.076C127.682 577.982 127.077 577.842 126.488 577.655C127.108 577.671 127.726 577.741 128.332 577.865C129.469 578.046 131.036 578.333 132.75 578.718C134.465 579.103 136.001 579.506 137.101 579.827C137.715 579.976 138.313 580.175 138.89 580.423Z" fill="#263238"/>
<path d="M146.702 569.72C146.474 569.754 146.243 569.766 146.013 569.755H144.17C140.056 569.826 135.964 570.325 131.965 571.244L130.121 571.676C129.902 571.746 129.675 571.789 129.445 571.805C129.64 571.703 129.846 571.62 130.06 571.56C130.484 571.419 131.092 571.238 131.86 571.04C133.852 570.513 135.881 570.123 137.932 569.872C139.984 569.622 142.052 569.507 144.121 569.528C144.913 569.528 145.552 569.569 145.964 569.604C146.214 569.61 146.463 569.649 146.702 569.72Z" fill="#263238"/>
<path d="M150.684 564.897C150.506 564.971 150.317 565.02 150.125 565.043C149.768 565.113 149.246 565.207 148.594 565.306C147.298 565.505 145.522 565.732 143.5 565.89C141.478 566.048 139.684 566.106 138.368 566.106C137.711 566.106 137.182 566.106 136.814 566.106C136.621 566.115 136.428 566.095 136.242 566.048C136.945 565.962 137.653 565.917 138.362 565.913C139.671 565.855 141.478 565.767 143.475 565.61C145.473 565.452 147.261 565.265 148.564 565.119C149.265 565.005 149.973 564.931 150.684 564.897Z" fill="#263238"/>
<path d="M144.785 563.356C143.612 563.667 142.414 563.88 141.202 563.993C140.005 564.211 138.789 564.325 137.57 564.331C138.743 564.021 139.942 563.808 141.153 563.695C142.35 563.477 143.566 563.363 144.785 563.356Z" fill="#263238"/>
<path d="M58.6621 611.022C59.1136 609.718 59.6662 608.448 60.3152 607.221C60.866 605.953 61.5151 604.726 62.2572 603.549C61.8056 604.853 61.2531 606.123 60.6041 607.35C60.0549 608.619 59.4057 609.846 58.6621 611.022Z" fill="#263238"/>
<path d="M61.0098 611.052C61.0318 610.632 61.1145 610.218 61.2556 609.82C61.5206 608.845 61.8385 607.885 62.2081 606.941C62.5674 605.994 62.9777 605.064 63.4372 604.156C63.6036 603.769 63.8226 603.404 64.0886 603.07C64.1746 603.111 63.345 604.822 62.4969 607.046C61.6489 609.271 61.1019 611.075 61.0098 611.052Z" fill="#263238"/>
<path d="M56.832 604.18C57.1682 603.602 57.5569 603.053 57.9935 602.539C58.3492 601.967 58.7607 601.427 59.2226 600.928C59.0396 601.58 58.7152 602.188 58.27 602.714C57.9079 603.296 57.4173 603.796 56.832 604.18Z" fill="#263238"/>
<path d="M43.3854 601.534C43.3178 601.47 44.5776 600.244 46.0034 598.615C47.4291 596.986 48.5107 595.631 48.5844 595.696C47.9505 596.83 47.1657 597.881 46.2492 598.825C45.4163 599.837 44.4543 600.747 43.3854 601.534Z" fill="#263238"/>
<path d="M41.9785 598.575C42.5742 597.922 43.2104 597.304 43.8836 596.724C44.4795 596.07 45.1156 595.45 45.7887 594.867C45.3607 595.644 44.7929 596.343 44.111 596.934C43.5074 597.596 42.7855 598.151 41.9785 598.575Z" fill="#263238"/>
<path d="M37.5664 598.721C37.8457 598.353 38.1719 598.02 38.5374 597.728C39.1519 597.144 40.0737 596.368 41.0939 595.539C42.114 594.71 43.0727 593.992 43.7733 593.489C44.1381 593.196 44.5358 592.941 44.9593 592.73C44.6484 593.076 44.298 593.387 43.9146 593.659L41.3028 595.755L38.7217 597.886C38.3678 598.201 37.9807 598.481 37.5664 598.721Z" fill="#263238"/>
<path d="M20.248 593.419C21.2719 592.033 22.3821 590.708 23.5727 589.448C24.6825 588.123 25.8748 586.861 27.1432 585.671C26.1199 587.057 25.0097 588.382 23.8185 589.641C22.7068 590.965 21.5146 592.227 20.248 593.419Z" fill="#263238"/>
<path d="M16.1602 591.948C16.539 591.575 16.9501 591.233 17.3892 590.926C18.1758 590.342 19.2636 589.484 20.4619 588.527C21.6603 587.569 22.6681 586.676 23.4179 586.028C23.7925 585.651 24.2041 585.309 24.6469 585.006C24.3264 585.43 23.9598 585.822 23.5531 586.174C22.8463 586.868 21.8323 587.791 20.6524 588.754C19.4725 589.718 18.3664 590.506 17.5429 591.09C17.1156 591.422 16.652 591.71 16.1602 591.948Z" fill="#263238"/>
<path d="M10.6728 591.988C10.6175 591.924 13.0756 590.015 16.1606 587.726C19.2456 585.437 21.7898 583.639 21.8451 583.709C21.9004 583.779 19.4423 585.682 16.3573 587.965C13.2723 590.248 10.7281 592.052 10.6728 591.988Z" fill="#263238"/>
<path d="M185.836 608.874C185.498 609.289 172.316 619.162 167.104 619.039C161.893 618.916 159.939 618.338 156.903 620.055C153.867 621.771 148.115 626.25 142.799 626.647C137.484 627.044 135.062 626.466 135.062 626.466L133.022 624.317L133.514 626.652C133.514 626.652 126.078 627.61 122.888 627.009C119.699 626.407 120.75 624.329 117.628 625.304C114.506 626.279 112.005 628.848 109.35 628.889C106.695 628.93 106.277 627.978 106.277 627.978C106.277 627.978 116.565 619.401 116.688 619.086C116.811 618.77 125.58 617.2 126.582 617.013C127.583 616.826 147.267 616.563 150.057 615.682C152.847 614.8 169.28 611.939 169.28 611.939L178.713 610.801L185.836 608.874Z" fill="#263238"/>
<path d="M98.7793 633.168C98.7793 633.168 108.059 620.399 118.985 614.911C129.912 609.423 157.443 602.592 165.629 601.29C173.814 599.988 197.388 593.554 197.388 593.554C197.388 593.554 200.823 599.071 191.427 606.486C190.96 606.86 190.456 607.234 189.915 607.613C189.7 607.771 188.016 602.72 187.765 602.831C187.095 603.129 188.994 608.355 187.826 608.921C176.912 614.176 160.983 614.211 154.186 616.254C146.498 618.59 151.728 619.944 144.354 619.757C136.979 619.57 135 625.281 126.348 624.323C117.695 623.365 117.535 619.611 112.699 623.494C107.862 627.377 99.3754 643.345 99.3754 643.345L98.7793 633.168Z" fill="#455A64"/>
<path d="M128.824 618.893C128.316 618.039 127.904 617.137 127.595 616.201C127.194 615.302 126.889 614.367 126.686 613.41C127.197 614.262 127.609 615.165 127.915 616.102C128.316 617.001 128.621 617.936 128.824 618.893Z" fill="#263238"/>
<path d="M133.083 619.436C132.246 618.4 131.523 617.285 130.926 616.108C130.233 614.981 129.669 613.787 129.242 612.546C129.322 612.511 130.146 614.07 131.209 615.968C131.898 617.091 132.524 618.249 133.083 619.436Z" fill="#263238"/>
<path d="M132.832 615.535C131.837 614.762 131.134 613.702 130.828 612.517C131.216 612.985 131.555 613.487 131.842 614.017C132.22 614.494 132.551 615.002 132.832 615.535Z" fill="#263238"/>
<path d="M147.181 616.989C145.818 615.749 144.528 614.439 143.315 613.065C142.024 611.757 140.813 610.379 139.689 608.938C141.054 610.176 142.345 611.486 143.555 612.861C144.846 614.169 146.057 615.548 147.181 616.989Z" fill="#263238"/>
<path d="M145.209 611.203C143.868 610.676 142.688 609.839 141.773 608.769C142.957 609.53 144.103 610.343 145.209 611.203Z" fill="#263238"/>
<path d="M156.594 609.183C155.776 608.702 155.035 608.113 154.394 607.431C153.681 606.825 153.061 606.127 152.551 605.358C153.299 605.918 153.994 606.54 154.628 607.215C155.336 607.822 155.993 608.48 156.594 609.183Z" fill="#263238"/>
<path d="M159.981 609.539C158.967 608.923 158.029 608.2 157.185 607.385C156.268 606.646 155.443 605.809 154.727 604.892C155.666 605.595 156.559 606.354 157.4 607.163C158.313 607.901 159.175 608.695 159.981 609.539Z" fill="#263238"/>
<path d="M161.666 606.9C160.996 606.751 160.374 606.451 159.853 606.024C159.268 605.68 158.782 605.202 158.439 604.635C159.003 604.987 159.539 605.377 160.043 605.802C160.61 606.133 161.152 606.5 161.666 606.9Z" fill="#263238"/>
<path d="M177.023 607.321C176.617 607.175 176.233 606.978 175.88 606.737C175.192 606.334 174.27 605.738 173.281 605.044C172.292 604.349 171.437 603.683 170.823 603.175C170.472 602.926 170.158 602.633 169.889 602.305C169.95 602.241 171.505 603.415 173.471 604.798C175.438 606.182 177.073 607.245 177.023 607.321Z" fill="#263238"/>
<path d="M178.222 605.394C176.258 604.439 174.554 603.064 173.244 601.377C173.318 601.313 174.32 602.323 175.702 603.426C177.085 604.53 178.283 605.318 178.222 605.394Z" fill="#263238"/>
<path d="M181.491 603.8C180.735 603.69 180.013 603.43 179.371 603.035C178.678 602.728 178.064 602.282 177.57 601.728C178.247 602.035 178.902 602.384 179.531 602.773C180.209 603.071 180.864 603.414 181.491 603.8Z" fill="#263238"/>
<path d="M136.174 647.297C135.958 647.234 135.751 647.143 135.559 647.029C135.178 646.836 134.637 646.538 133.986 646.159C132.289 645.146 130.665 644.027 129.125 642.807C127.597 641.588 126.16 640.269 124.823 638.861C124.307 638.318 123.901 637.868 123.637 637.547C123.484 637.391 123.354 637.216 123.25 637.027C123.287 636.998 123.92 637.67 124.983 638.715C126.046 639.76 127.57 641.155 129.359 642.58C130.889 643.788 132.483 644.922 134.133 645.978C135.393 646.789 136.198 647.256 136.174 647.297Z" fill="#263238"/>
<path d="M127.386 644.886C126.973 644.663 126.594 644.386 126.262 644.063C125.414 643.337 124.631 642.547 123.92 641.699C123.207 640.85 122.568 639.948 122.009 639.001C121.744 638.622 121.537 638.21 121.395 637.775C121.487 637.734 122.495 639.527 124.154 641.506C125.813 643.485 127.448 644.799 127.386 644.886Z" fill="#263238"/>
<path d="M131.719 640.712C129.689 639.74 127.995 638.234 126.84 636.374C126.92 636.321 127.823 637.466 129.175 638.657C130.527 639.848 131.775 640.613 131.719 640.712Z" fill="#263238"/>
<path d="M154.684 643.917C154.123 643.652 153.594 643.331 153.105 642.959C151.885 642.112 150.736 641.175 149.67 640.157C148.603 639.141 147.621 638.047 146.732 636.887C146.341 636.421 146.005 635.916 145.73 635.381C146.152 635.818 146.546 636.278 146.91 636.759C147.848 637.869 148.845 638.933 149.897 639.947C150.957 640.951 152.073 641.9 153.24 642.79C153.746 643.136 154.228 643.513 154.684 643.917Z" fill="#263238"/>
<path d="M153.351 638.008C152.32 637.422 151.41 636.662 150.665 635.766C149.842 634.936 149.18 633.973 148.711 632.923C148.797 632.876 149.62 634.173 150.905 635.568C152.189 636.963 153.412 637.938 153.351 638.008Z" fill="#263238"/>
<path d="M156.269 636.881C155.28 636.532 154.376 635.998 153.608 635.311C152.769 634.703 152.065 633.943 151.537 633.075C151.617 633.016 152.508 634.032 153.811 635.077C155.114 636.122 156.312 636.806 156.269 636.881Z" fill="#263238"/>
<path d="M88.5968 646.924C88.0314 646.743 79.9256 644.004 78.0451 642.743C76.1647 641.482 73.3316 644.798 69.755 644.798C66.1784 644.798 55.8111 643.584 51.0976 641.056C46.3841 638.528 44.5036 639.783 41.4924 638.172C38.4811 636.56 40.927 637.459 38.475 636.56C36.023 635.661 28.4887 633.121 26.43 632.602C24.3713 632.082 19.836 633.851 17.212 630.628C14.5879 627.405 12.1297 627.411 8.92183 625.8C5.71393 624.188 -19.0827 622.028 -18.3268 608.769C-18.3268 608.769 24.5311 613.801 25.0965 613.801C25.6619 613.801 59.7688 627.131 59.7688 627.131L81.6218 637.792L89.4264 644.401L88.5968 646.924Z" fill="#263238"/>
<path d="M-18.3262 608.769C-17.5703 608.769 12.9539 611.454 25.0111 613.439C37.0684 615.425 59.4929 623.464 67.783 628.655C76.0731 633.845 88.8863 640.11 92.4629 647.986L90.8651 662.291C90.8651 662.291 88.0443 648.862 84.9286 646.375C84.9286 646.375 81.9113 647.274 80.2151 646.2C78.519 645.125 80.0308 645.301 77.2039 644.588C74.377 643.876 67.9858 644.985 64.9561 642.994C61.129 640.303 56.9629 638.077 52.5547 636.368C46.5261 634.032 37.0684 635.276 37.0684 635.276C37.0684 635.276 32.6744 632.228 28.1514 630.979C23.6284 629.729 21.8094 631.341 20.6786 629.91C19.5479 628.48 13.3041 615.407 13.3041 615.407L14.6254 624.001L4.633 621.853L4.07377 613.796L2.58658 620.043C2.58658 620.043 -7.98349 618.793 -9.66118 617.538C-11.3389 616.283 -18.3262 608.769 -18.3262 608.769Z" fill="#455A64"/>
<path d="M39.0271 631.895C38.6956 631.376 38.4158 630.828 38.1913 630.26C37.7181 629.227 37.1159 627.779 36.5321 626.173C35.9483 624.567 35.5058 623.049 35.217 621.958C35.0321 621.374 34.9045 620.776 34.8359 620.171C35.0868 620.739 35.2923 621.325 35.4505 621.922C35.7885 622.997 36.274 624.48 36.8516 626.097C37.4293 627.714 37.9947 629.168 38.4126 630.219C38.659 630.763 38.8643 631.323 39.0271 631.895Z" fill="#263238"/>
<path d="M39.0094 625.116C38.3593 624.348 37.8673 623.471 37.5591 622.53C37.1507 621.632 36.9195 620.67 36.877 619.692C36.9691 619.692 37.2641 620.948 37.8479 622.448C38.4317 623.949 39.0893 625.07 39.0094 625.116Z" fill="#263238"/>
<path d="M64.2171 639.655C64.0404 639.062 63.9029 638.459 63.8054 637.851C63.1824 634.947 62.2454 632.111 61.0092 629.39C60.7267 628.836 60.4785 628.267 60.2656 627.686C60.6439 628.19 60.9633 628.733 61.2182 629.303C61.8989 630.647 62.476 632.036 62.945 633.46C63.414 634.884 63.7754 636.337 64.0266 637.81C64.1559 638.417 64.2198 639.035 64.2171 639.655Z" fill="#263238"/>
<path d="M65.4777 637.547C65.3855 637.547 65.1335 635.795 64.5681 633.652C64.0028 631.51 63.3391 629.84 63.4497 629.805C63.6783 630.133 63.8563 630.491 63.9782 630.867C64.3374 631.751 64.6371 632.656 64.8754 633.576C65.1189 634.495 65.3016 635.427 65.4224 636.367C65.5008 636.756 65.5194 637.153 65.4777 637.547Z" fill="#263238"/>
<path d="M69.0909 635.731C68.5843 634.741 68.2779 633.67 68.1875 632.572C68.4869 633.047 68.695 633.569 68.802 634.114C69.0004 634.632 69.0983 635.18 69.0909 635.731Z" fill="#263238"/>
<path d="M55.0378 509.343C55.0378 509.343 42.5073 525.108 47.989 547.399L56.9613 552.018L48.6957 550.634C48.6957 550.634 51.5595 562.311 52.9053 565.662L66.4252 566.888L54.0853 567.548C54.0853 567.548 63.4754 586.646 69.9711 598.09C76.4668 609.533 91.8855 620.364 91.8855 620.364L91.1542 638.756L99.4444 641.179L96.1627 618.828C96.1627 618.828 100.034 613.457 101.423 603.514C102.812 593.571 101.073 593.495 101.073 593.495C101.073 593.495 101.534 582.775 94.4973 567.688L86.791 573.871L92.4263 562.358L80.4367 539.774L76.2086 546.126L78.7774 537.001L71.2309 525.779L67.095 532.785L69.6208 523.864C69.6208 523.864 60.6239 506.354 55.0378 509.343Z" fill="#455A64"/>
<path d="M96.4875 620.889C96.4875 620.889 90.2745 599.187 81.3575 579.786C76.8284 569.93 65.4594 547.802 61.428 535.471C58.3553 526.036 56.5117 511.41 56.5117 511.41C56.5117 511.41 58.4168 530.094 60.2911 537.135C62.3744 545 81.1424 585.712 84.2582 593.553C87.4292 601.482 91.0181 611.863 91.8723 621.631" fill="#455A64"/>
<path d="M91.8359 621.631C91.8359 621.631 91.8052 621.426 91.7561 621.047C91.7069 620.667 91.6577 620.066 91.5348 619.295C91.3382 617.766 90.9572 615.518 90.3057 612.651C88.3399 604.584 85.6253 596.698 82.1938 589.086C77.9474 579.4 72.7422 567.933 67.1991 555.1C65.8164 551.889 64.4152 548.59 63.0325 545.174C62.3565 543.475 61.6559 541.765 61.0291 540.007C60.6911 539.137 60.4146 538.256 60.138 537.339C59.8615 536.422 59.6833 535.506 59.4928 534.577C58.7492 530.864 58.2022 527.052 57.686 523.186C57.1698 519.321 56.7089 515.386 56.291 511.398L56.6106 511.363V511.556C57.1514 515.534 57.7925 519.442 58.5341 523.28C59.2961 527.116 60.1257 530.87 61.2442 534.502C62.3627 538.133 63.7761 541.59 65.1957 544.964C66.6153 548.339 68.0963 551.609 69.5651 554.785C75.4155 567.519 81.3212 578.723 85.2358 588.567C89.1504 598.411 91.9588 606.48 93.7779 612.096C94.6813 614.905 95.3511 617.1 95.7936 618.589C96.0087 619.33 96.1684 619.897 96.2852 620.282C96.402 620.667 96.4327 620.866 96.4327 620.866L96.2483 620.282C96.1316 619.897 95.9595 619.33 95.7321 618.595C95.2712 617.112 94.5768 614.922 93.655 612.12C91.8114 606.515 89.0398 598.422 85.0514 588.637C81.0631 578.851 75.1881 567.618 69.3192 554.89C67.8505 551.743 66.3756 548.462 64.9437 545.093C63.5118 541.724 62.1107 538.244 60.9738 534.583C59.8698 530.886 58.9612 527.139 58.2514 523.356C57.5221 519.514 56.881 515.602 56.3279 511.62C56.3279 511.55 56.3279 511.486 56.2972 511.428L56.6167 511.392C57.0264 515.374 57.4894 519.3 58.0056 523.169C58.5279 527.034 59.0687 530.841 59.8062 534.542C59.9905 535.471 60.1995 536.387 60.4207 537.287C60.642 538.186 60.9677 539.038 61.3057 539.937C61.9202 541.689 62.6269 543.4 63.3029 545.093C64.6795 548.479 66.0745 551.778 67.451 554.983C72.9819 567.828 78.1625 579.301 82.3843 588.999C85.7956 596.627 88.4696 604.534 90.3733 612.622C90.9879 615.494 91.3689 617.748 91.5471 619.284C91.7253 620.819 91.8359 621.631 91.8359 621.631Z" fill="#263238"/>
<path d="M93.0586 575.436C93.1323 575.483 91.3194 578.174 89.0149 581.444C86.7104 584.714 84.7869 587.324 84.7131 587.283C84.6394 587.242 86.4461 584.55 88.7506 581.281C91.0552 578.011 92.9848 575.389 93.0586 575.436Z" fill="#263238"/>
<path d="M93.9313 579.144C93.5565 579.643 93.1458 580.117 92.7023 580.562C91.9156 581.415 90.8586 582.594 89.6296 583.92C88.4005 585.245 87.4049 586.453 86.6429 587.329C86.2564 587.822 85.8334 588.289 85.377 588.725C85.687 588.183 86.0513 587.67 86.4647 587.195C87.1776 586.284 88.2038 585.046 89.3837 583.692C90.5637 582.337 91.6883 581.205 92.5179 580.387C92.9498 579.934 93.4228 579.518 93.9313 579.144Z" fill="#263238"/>
<path d="M85.26 559.637C85.3399 559.672 83.8035 562.784 81.8247 566.579C79.8459 570.374 78.1805 573.428 78.1006 573.387C78.0207 573.346 79.5632 570.246 81.542 566.445C83.5209 562.644 85.1801 559.602 85.26 559.637Z" fill="#263238"/>
<path d="M83.3064 558.843C83.0338 559.433 82.7155 560.003 82.3539 560.548C81.7393 561.587 80.9343 563.023 80.0862 564.635C79.2382 566.246 78.5191 567.735 78.0091 568.815C77.7636 569.417 77.4741 570.003 77.1426 570.567C77.2995 569.943 77.5197 569.334 77.8001 568.751C78.261 567.647 78.9493 566.141 79.8035 564.518C80.6577 562.895 81.5058 561.464 82.1572 560.431C82.4877 559.869 82.8724 559.337 83.3064 558.843Z" fill="#263238"/>
<path d="M80.1035 553.407C79.8717 553.958 79.5964 554.49 79.28 555.001C78.7023 556.052 77.9833 557.337 77.1905 558.779C76.3978 560.221 75.7218 561.529 75.1564 562.591C74.9063 563.133 74.6103 563.654 74.2715 564.15C74.4517 563.572 74.6883 563.011 74.9782 562.475C75.4452 561.476 76.1274 560.104 76.9324 558.621C77.7375 557.138 78.5179 555.813 79.1079 554.873C79.3948 554.358 79.7279 553.868 80.1035 553.407Z" fill="#263238"/>
<path d="M75.3715 537.082C75.4575 537.082 74.339 541.42 72.8703 546.716C71.4015 552.011 70.1356 556.297 70.0495 556.273C69.9635 556.25 71.0881 551.941 72.5569 546.64C74.0256 541.338 75.2854 537.065 75.3715 537.082Z" fill="#263238"/>
<path d="M71.9683 536.394C71.9504 536.633 71.9029 536.871 71.8269 537.1C71.6979 537.608 71.5442 538.268 71.3537 538.998C70.9666 540.597 70.4872 542.822 70.1247 545.303C69.7621 547.785 69.547 550.05 69.4425 551.691C69.3995 552.467 69.3626 553.115 69.3319 553.641C69.3376 553.88 69.3128 554.119 69.2582 554.353C69.2175 554.116 69.201 553.875 69.209 553.635C69.209 553.174 69.209 552.508 69.209 551.685C69.2829 549.534 69.4881 547.39 69.8235 545.262C70.1444 543.134 70.5916 541.025 71.1632 538.945C71.3906 538.145 71.5873 537.509 71.7348 537.071C71.7897 536.839 71.8679 536.612 71.9683 536.394Z" fill="#263238"/>
<path d="M65.6749 522.492C65.7179 522.492 65.3737 523.245 64.8698 524.46C64.214 526.033 63.6478 527.639 63.1737 529.271C62.7111 530.905 62.3398 532.562 62.0614 534.234C61.9796 534.934 61.8606 535.629 61.7049 536.318C61.6817 536.124 61.6817 535.928 61.7049 535.734C61.7049 535.372 61.7664 534.841 61.8463 534.193C62.0552 532.505 62.3961 530.834 62.8664 529.195C63.3389 527.549 63.9387 525.939 64.6609 524.378C64.9374 523.794 65.1832 523.304 65.3614 522.983C65.4416 522.806 65.5471 522.641 65.6749 522.492Z" fill="#263238"/>
<path d="M56.5784 557.769C56.6153 557.693 59.8478 558.937 63.8054 560.589C67.7631 562.241 70.9341 563.613 70.8972 563.689C70.8603 563.765 67.6279 562.522 63.6764 560.869C59.7249 559.217 56.5416 557.845 56.5784 557.769Z" fill="#263238"/>
<path d="M60.3652 556.496C62.0469 557.089 63.6888 557.779 65.2815 558.563C66.9208 559.25 68.5153 560.03 70.0565 560.898C68.3761 560.303 66.7345 559.612 65.1402 558.832C63.5023 558.141 61.908 557.362 60.3652 556.496Z" fill="#263238"/>
<path d="M80.5103 585.601C79.974 585.55 79.4435 585.454 78.9248 585.315C77.9539 585.116 76.6142 584.848 75.127 584.591C73.6398 584.334 72.2817 584.136 71.2984 584.007C70.7624 583.963 70.2317 583.874 69.7129 583.739C70.252 583.699 70.7941 583.716 71.3291 583.791C72.3185 583.873 73.689 584.036 75.1823 584.293C76.6756 584.55 78.0215 584.877 78.9801 585.116C79.5086 585.22 80.0222 585.383 80.5103 585.601Z" fill="#263238"/>
<path d="M65.9142 580.037C65.9142 579.955 69.0238 580.539 72.8216 581.351C76.6195 582.162 79.686 582.88 79.6676 582.962C79.6492 583.044 76.5519 582.454 72.754 581.648C68.9562 580.843 65.8896 580.119 65.9142 580.037Z" fill="#263238"/>
<path d="M70.4004 578.157C71.7213 578.3 73.0282 578.542 74.3089 578.881C75.6137 579.124 76.896 579.466 78.1436 579.903C76.8228 579.759 75.5159 579.517 74.2351 579.179C72.9305 578.935 71.6483 578.593 70.4004 578.157Z" fill="#263238"/>
<path d="M88.0246 604.08C87.8281 604.055 87.6359 604.006 87.4531 603.934C87.0905 603.829 86.5743 603.654 85.9413 603.432C84.6692 602.988 82.9362 602.322 81.025 601.54C79.1138 600.758 77.4422 600.01 76.2254 599.456C75.5526 599.184 74.9015 598.866 74.2773 598.504C74.9765 598.708 75.6584 598.962 76.3176 599.263L81.154 601.26C83.0407 602.048 84.7552 602.737 85.9966 603.233C86.6925 603.47 87.3701 603.753 88.0246 604.08Z" fill="#263238"/>
<path d="M91.8791 585.104C91.1316 586.364 90.2917 587.571 89.3656 588.719C88.5277 589.927 87.5994 591.076 86.5879 592.157C87.3416 590.901 88.1834 589.693 89.1075 588.543C89.9423 587.335 90.8686 586.185 91.8791 585.104Z" fill="#263238"/>
<g opacity="0.3">
<path d="M63.3027 545.373C63.3027 545.373 67.4017 557.383 71.9985 568.546C76.5952 579.71 80.5283 588.398 80.5283 588.398L72.8219 587.487L82.04 591.866L89.2609 608.074C87.604 602.108 85.522 596.255 83.0294 590.558C81.3272 586.675 79.4835 582.816 78.7277 580.708C75.9561 573.533 63.3027 545.373 63.3027 545.373Z" fill="black"/>
</g>
<g opacity="0.3">
<path d="M67.8555 551.381L75.3713 565.977L77.6021 561.306L76.2378 567.238C76.2378 567.238 80.177 574.829 81.7686 580.761L67.8555 551.381Z" fill="black"/>
</g>
<path d="M92.5788 643.631C92.5026 643.429 92.4511 643.219 92.4252 643.006C92.3453 642.603 92.247 642.013 92.1425 641.284C91.9274 639.824 91.7 637.78 91.5648 635.556C91.4296 633.331 91.4112 631.27 91.4604 629.799C91.4604 629.063 91.5095 628.468 91.5464 628.048C91.5467 627.833 91.5735 627.62 91.6263 627.411C91.6703 627.621 91.6848 627.835 91.6693 628.048C91.6693 628.526 91.6693 629.104 91.6693 629.799C91.6693 631.27 91.7369 633.302 91.8721 635.538C92.0073 637.775 92.1978 639.795 92.3515 641.26C92.4252 641.938 92.4867 642.516 92.5358 643.012C92.5791 643.215 92.5935 643.424 92.5788 643.631Z" fill="#263238"/>
<g opacity="0.3">
<path d="M91.6258 628.199C90.9169 630.108 90.6547 632.14 90.8576 634.155C91.0858 636.098 91.4679 638.022 92.0006 639.911L92.1051 639.946C91.7662 637.177 91.5877 634.391 91.5705 631.603C91.5336 630.505 91.5704 629.279 91.6258 628.199Z" fill="black"/>
</g>
<path d="M97.1023 627.808C97.0101 627.808 96.9671 626.161 96.7704 624.147C96.5738 622.133 96.3034 620.504 96.3955 620.486C97.084 622.868 97.3232 625.347 97.1023 627.808Z" fill="#263238"/>
<path d="M93.334 649.557C93.3466 649.254 93.3877 648.954 93.4569 648.658C93.5491 648.074 93.7211 647.251 93.9731 646.229C94.6473 643.577 95.5645 640.987 96.7139 638.487C97.8751 635.993 99.2459 633.591 100.813 631.306C101.427 630.43 101.925 629.735 102.294 629.268C102.476 629.014 102.682 628.775 102.909 628.556C102.767 628.827 102.603 629.087 102.417 629.332C102.079 629.823 101.6 630.529 101.022 631.417C99.521 633.726 98.1865 636.129 97.0274 638.61C95.8867 641.096 94.9458 643.66 94.2128 646.282C93.9362 647.292 93.7273 648.109 93.5982 648.681C93.5333 648.979 93.445 649.272 93.334 649.557Z" fill="#263238"/>
<path d="M207.283 598.057C207.584 598.64 220.662 613.237 226.819 614.282C232.977 615.327 235.423 615.082 238.582 617.785C241.74 620.488 247.388 627.086 253.558 628.773C259.728 630.461 262.721 630.309 262.721 630.309L265.671 628.236L264.503 630.893C264.503 630.893 273.027 633.701 276.941 633.713C280.856 633.725 280.137 631.039 283.572 632.901C287.007 634.764 289.312 638.349 292.428 638.997C295.543 639.645 296.281 638.617 296.281 638.617C296.281 638.617 286.301 626.175 286.239 625.772C286.178 625.37 276.228 621.534 275.098 621.102C273.967 620.669 250.823 615.888 247.757 614.224C244.69 612.56 226.027 605.466 226.027 605.466L215.198 601.992L207.283 598.057Z" fill="#263238"/>
<path d="M312.593 656.466C315.43 652.749 319.268 649.825 323.703 648C335.705 642.897 362.26 642.886 370.507 640.69C378.754 638.495 397.147 635.436 397.147 635.436C397.147 635.436 400.023 644.088 389.299 651.357C378.576 658.626 378.809 657.126 378.809 657.126L372.406 653.296L376.615 658.41C376.615 658.41 370.193 660.553 365.627 660.687C361.061 660.822 361.811 662.439 357.448 663.023C353.085 663.607 350.35 662.054 346.435 661.598C342.521 661.143 342.103 663.046 337.248 662.953C332.393 662.859 328.644 660.722 323.556 660.547C320.317 660.498 317.11 661.16 314.184 662.48L306.81 682.214L303.805 670.14L312.593 656.466Z" fill="#455A64"/>
<path d="M296.269 785.557C296.269 783.893 298.599 756.364 297.849 749.941C297.296 745.614 296.461 741.325 295.348 737.096L299.852 742.807L297.597 707.366V696.915L299.852 703.577V673.368L298.851 661.388L299.852 649.588L296.552 642.447H304.357L305.862 648.397L312.973 639.131L317.459 640.41C317.459 640.41 308.443 651.503 308.652 657.435C308.861 663.367 311.866 719.989 311.866 719.989L314.122 717.847C314.122 717.847 313.624 723.796 313.372 727.363C313.12 730.931 313.372 754.875 313.372 754.875L317.459 785.557H296.269Z" fill="#455A64"/>
<path d="M303.815 646.411C303.815 646.411 296.084 629.252 284.592 620.313C273.1 611.374 242.349 597.081 233.026 593.689C223.704 590.297 197.506 577.394 197.506 577.394C197.506 577.394 192.074 583.127 201.292 593.993C201.752 594.541 202.25 595.096 202.785 595.668C203.006 595.902 206.257 590.326 206.521 590.513C207.24 591.015 203.67 596.743 204.924 597.683C216.471 606.33 235.239 609.99 242.742 613.943C251.223 618.41 244.721 618.847 253.441 620.307C262.162 621.767 263.083 628.919 273.531 629.748C283.978 630.577 285.102 626.192 289.834 631.868C294.566 637.543 300.57 658.287 300.57 658.287L303.815 646.411Z" fill="#455A64"/>
<path d="M305.488 642.039C305.292 641.215 308.776 632.3 315.702 613.961C322.628 595.622 350.731 562.196 355.032 556.328C359.334 550.461 373.088 537.178 373.088 537.178C375.146 539.033 376.79 541.263 377.922 543.734C379.054 546.206 379.65 548.869 379.675 551.564C379.731 560.701 375.288 572.793 375.288 572.793L367.231 573.651L375.282 575.245L372.823 579.192L363.255 578.363L372.362 583.682C372.362 583.682 366.217 591.389 360.742 597.152C355.266 602.914 352.796 601.787 351.161 606.558C349.526 611.328 337.113 618.492 337.113 618.492L330.764 615.928L334.15 619.689C334.15 619.689 321.62 625.603 317.65 625.48C313.68 625.358 313.606 628.476 313.606 628.476L309.446 652.174L305.488 642.039Z" fill="#455A64"/>
<path d="M335.226 608.659C335.226 608.747 332.092 608.209 328.263 607.491C324.434 606.773 321.337 606.084 321.356 606.002C321.374 605.921 324.49 606.452 328.324 607.17C332.159 607.888 335.244 608.577 335.226 608.659Z" fill="#263238"/>
<path d="M330.955 605.039C329.482 605.142 328.003 605.142 326.53 605.039C325.052 605.046 323.575 604.951 322.111 604.753C323.584 604.653 325.063 604.653 326.536 604.753C328.014 604.748 329.491 604.844 330.955 605.039Z" fill="#263238"/>
<path d="M344.498 602.669C344.294 602.597 344.1 602.501 343.921 602.383L342.396 601.519C341.106 600.789 339.324 599.796 337.314 598.769C335.305 597.741 333.449 596.865 332.103 596.246L330.505 595.505C330.303 595.426 330.112 595.326 329.934 595.207C330.148 595.241 330.355 595.306 330.548 595.4C330.941 595.54 331.507 595.762 332.189 596.048C333.566 596.632 335.44 597.467 337.462 598.5C339.484 599.533 341.247 600.555 342.507 601.338C343.122 601.723 343.638 602.05 343.982 602.283C344.17 602.392 344.343 602.521 344.498 602.669Z" fill="#263238"/>
<path d="M345.85 596.737C345.82 596.813 342.778 595.855 339.011 594.588C335.244 593.321 332.251 592.253 332.281 592.16C332.312 592.066 335.354 593.041 339.115 594.302C342.876 595.563 345.875 596.661 345.85 596.737Z" fill="#263238"/>
<path d="M347.89 592.423C347.265 592.341 346.649 592.212 346.046 592.037C344.934 591.769 343.391 591.395 341.683 591.016C339.974 590.636 338.42 590.309 337.295 590.076C336.682 589.982 336.077 589.842 335.488 589.655C336.108 589.671 336.726 589.741 337.332 589.865C338.469 590.046 340.036 590.333 341.75 590.718C343.465 591.103 345.001 591.506 346.101 591.827C346.715 591.976 347.313 592.175 347.89 592.423Z" fill="#263238"/>
<path d="M355.702 581.72C355.474 581.754 355.243 581.766 355.013 581.755H353.17C349.056 581.826 344.964 582.325 340.965 583.244L339.121 583.676C338.902 583.746 338.675 583.789 338.445 583.805C338.64 583.703 338.846 583.62 339.06 583.56C339.484 583.419 340.092 583.238 340.86 583.04C342.852 582.513 344.881 582.123 346.932 581.872C348.984 581.622 351.052 581.507 353.121 581.528C353.913 581.528 354.552 581.569 354.964 581.604C355.214 581.61 355.463 581.649 355.702 581.72Z" fill="#263238"/>
<path d="M359.684 576.897C359.506 576.971 359.317 577.02 359.125 577.043C358.768 577.113 358.246 577.207 357.594 577.306C356.298 577.505 354.522 577.732 352.5 577.89C350.478 578.048 348.684 578.106 347.368 578.106C346.711 578.106 346.182 578.106 345.814 578.106C345.621 578.115 345.428 578.095 345.242 578.048C345.945 577.962 346.653 577.917 347.362 577.913C348.671 577.855 350.478 577.767 352.475 577.61C354.473 577.452 356.261 577.265 357.564 577.119C358.265 577.005 358.973 576.931 359.684 576.897Z" fill="#263238"/>
<path d="M353.785 575.356C352.612 575.667 351.414 575.88 350.202 575.993C349.005 576.211 347.789 576.325 346.57 576.331C347.743 576.021 348.942 575.808 350.153 575.695C351.35 575.477 352.566 575.363 353.785 575.356Z" fill="#263238"/>
<path d="M267.662 623.022C268.114 621.718 268.666 620.448 269.315 619.221C269.866 617.953 270.515 616.726 271.257 615.549C270.806 616.853 270.253 618.123 269.604 619.35C269.055 620.619 268.406 621.846 267.662 623.022Z" fill="#263238"/>
<path d="M270.01 623.052C270.032 622.632 270.115 622.218 270.256 621.82C270.521 620.845 270.839 619.885 271.208 618.941C271.567 617.994 271.978 617.064 272.437 616.156C272.604 615.769 272.823 615.404 273.089 615.07C273.175 615.111 272.345 616.822 271.497 619.046C270.649 621.271 270.102 623.075 270.01 623.052Z" fill="#263238"/>
<path d="M265.832 616.18C266.168 615.602 266.557 615.053 266.994 614.539C267.349 613.967 267.761 613.427 268.223 612.928C268.04 613.58 267.715 614.188 267.27 614.714C266.908 615.296 266.417 615.796 265.832 616.18Z" fill="#263238"/>
<path d="M252.385 613.534C252.318 613.47 253.578 612.244 255.003 610.615C256.429 608.986 257.511 607.631 257.584 607.696C256.951 608.83 256.166 609.881 255.249 610.825C254.416 611.837 253.454 612.747 252.385 613.534Z" fill="#263238"/>
<path d="M250.979 610.575C251.574 609.922 252.21 609.304 252.884 608.724C253.479 608.07 254.116 607.45 254.789 606.867C254.361 607.644 253.793 608.343 253.111 608.934C252.507 609.596 251.786 610.151 250.979 610.575Z" fill="#263238"/>
<path d="M246.566 610.721C246.846 610.353 247.172 610.02 247.537 609.728C248.152 609.144 249.074 608.368 250.094 607.539C251.114 606.71 252.073 605.992 252.773 605.489C253.138 605.196 253.536 604.941 253.959 604.73C253.648 605.076 253.298 605.387 252.915 605.659L250.303 607.755L247.722 609.886C247.368 610.201 246.981 610.481 246.566 610.721Z" fill="#263238"/>
<path d="M229.248 605.419C230.272 604.033 231.382 602.708 232.573 601.448C233.683 600.123 234.875 598.861 236.143 597.671C235.12 599.057 234.01 600.382 232.819 601.641C231.707 602.965 230.515 604.227 229.248 605.419Z" fill="#263238"/>
<path d="M225.16 603.948C225.539 603.575 225.95 603.233 226.389 602.926C227.176 602.342 228.264 601.484 229.462 600.527C230.66 599.569 231.668 598.676 232.418 598.028C232.793 597.651 233.204 597.309 233.647 597.006C233.326 597.43 232.96 597.822 232.553 598.174C231.846 598.868 230.832 599.791 229.652 600.754C228.473 601.718 227.366 602.506 226.543 603.09C226.116 603.422 225.652 603.71 225.16 603.948Z" fill="#263238"/>
<path d="M219.673 603.988C219.617 603.924 222.076 602.015 225.161 599.726C228.246 597.437 230.79 595.639 230.845 595.709C230.9 595.779 228.442 597.682 225.357 599.965C222.272 602.248 219.728 604.052 219.673 603.988Z" fill="#263238"/>
<path d="M394.836 620.874C394.498 621.289 381.316 631.162 376.104 631.039C370.893 630.916 368.939 630.338 365.903 632.055C362.867 633.771 357.115 638.25 351.799 638.647C346.484 639.044 344.062 638.466 344.062 638.466L342.022 636.317L342.514 638.652C342.514 638.652 335.078 639.61 331.888 639.009C328.699 638.407 329.75 636.329 326.628 637.304C323.506 638.279 321.005 640.848 318.35 640.889C315.695 640.93 315.277 639.978 315.277 639.978C315.277 639.978 325.565 631.401 325.688 631.086C325.811 630.77 334.58 629.2 335.582 629.013C336.583 628.826 356.267 628.563 359.057 627.682C361.847 626.8 378.28 623.939 378.28 623.939L387.713 622.801L394.836 620.874Z" fill="#263238"/>
<path d="M307.779 645.168C307.779 645.168 317.059 632.399 327.985 626.911C338.912 621.423 366.443 614.592 374.629 613.29C382.814 611.988 406.388 605.554 406.388 605.554C406.388 605.554 409.823 611.071 400.427 618.486C399.96 618.86 399.456 619.234 398.915 619.613C398.7 619.771 397.016 614.72 396.765 614.831C396.095 615.129 397.994 620.355 396.826 620.921C385.912 626.176 369.983 626.211 363.186 628.254C355.498 630.59 360.728 631.944 353.354 631.757C345.979 631.57 344 637.281 335.348 636.323C326.695 635.365 326.535 631.611 321.699 635.494C316.862 639.377 308.375 655.345 308.375 655.345L307.779 645.168Z" fill="#455A64"/>
<path d="M337.824 630.893C337.316 630.039 336.904 629.137 336.595 628.201C336.194 627.302 335.889 626.367 335.686 625.41C336.197 626.262 336.609 627.165 336.915 628.102C337.316 629.001 337.621 629.936 337.824 630.893Z" fill="#263238"/>
<path d="M342.083 631.436C341.246 630.4 340.523 629.285 339.926 628.108C339.233 626.981 338.669 625.787 338.242 624.546C338.322 624.511 339.146 626.07 340.209 627.968C340.898 629.091 341.524 630.249 342.083 631.436Z" fill="#263238"/>
<path d="M341.832 627.535C340.837 626.762 340.134 625.702 339.828 624.517C340.216 624.985 340.555 625.487 340.842 626.017C341.22 626.494 341.551 627.002 341.832 627.535Z" fill="#263238"/>
<path d="M356.181 628.989C354.818 627.749 353.528 626.439 352.315 625.065C351.024 623.757 349.813 622.379 348.689 620.938C350.054 622.176 351.345 623.486 352.555 624.861C353.846 626.169 355.057 627.548 356.181 628.989Z" fill="#263238"/>
<path d="M297.597 658.924C297.031 658.743 288.926 656.004 287.045 654.743C285.165 653.482 282.332 656.798 278.755 656.798C275.178 656.798 264.811 655.584 260.098 653.056C255.384 650.528 253.504 651.783 250.492 650.172C247.481 648.56 249.927 649.459 247.475 648.56C245.023 647.661 237.489 645.121 235.43 644.602C233.371 644.082 228.836 645.851 226.212 642.628C223.588 639.405 221.13 639.411 217.922 637.8C214.714 636.188 189.917 634.028 190.673 620.769C190.673 620.769 233.531 625.801 234.096 625.801C234.662 625.801 268.769 639.131 268.769 639.131L290.622 649.792L298.426 656.401L297.597 658.924Z" fill="#263238"/>
<path d="M190.674 620.769C191.43 620.769 221.954 623.454 234.011 625.439C246.068 627.425 268.493 635.464 276.783 640.655C285.073 645.845 297.886 652.11 301.463 659.986L299.865 674.291C299.865 674.291 297.044 660.862 293.929 658.375C293.929 658.375 290.911 659.274 289.215 658.2C287.519 657.125 289.031 657.301 286.204 656.588C283.377 655.876 276.986 656.985 273.956 654.994C270.129 652.303 265.963 650.077 261.555 648.368C255.526 646.032 246.068 647.276 246.068 647.276C246.068 647.276 241.674 644.228 237.151 642.979C232.628 641.729 230.809 643.341 229.679 641.91C228.548 640.48 222.304 627.407 222.304 627.407L223.625 636.001L213.633 633.853L213.074 625.796L211.587 632.043C211.587 632.043 201.017 630.793 199.339 629.538C197.661 628.283 190.674 620.769 190.674 620.769Z" fill="#455A64"/>
<path d="M248.027 643.895C247.696 643.376 247.416 642.828 247.191 642.26C246.718 641.227 246.116 639.779 245.532 638.173C244.948 636.567 244.506 635.049 244.217 633.958C244.032 633.374 243.905 632.776 243.836 632.171C244.087 632.739 244.292 633.325 244.45 633.922C244.788 634.997 245.274 636.48 245.852 638.097C246.429 639.714 246.995 641.168 247.413 642.219C247.659 642.763 247.864 643.323 248.027 643.895Z" fill="#263238"/>
<path d="M248.009 637.116C247.359 636.348 246.867 635.471 246.559 634.53C246.151 633.632 245.919 632.67 245.877 631.692C245.969 631.692 246.264 632.948 246.848 634.448C247.432 635.949 248.089 637.07 248.009 637.116Z" fill="#263238"/>
<path d="M273.217 651.655C273.04 651.062 272.903 650.459 272.805 649.851C272.182 646.947 271.245 644.111 270.009 641.39C269.727 640.836 269.478 640.267 269.266 639.686C269.644 640.19 269.963 640.733 270.218 641.303C270.899 642.647 271.476 644.036 271.945 645.46C272.414 646.884 272.775 648.337 273.027 649.81C273.156 650.417 273.22 651.035 273.217 651.655Z" fill="#263238"/>
<path d="M274.478 649.547C274.385 649.547 274.134 647.795 273.568 645.652C273.003 643.51 272.339 641.84 272.45 641.805C272.678 642.133 272.856 642.491 272.978 642.867C273.337 643.751 273.637 644.656 273.875 645.576C274.119 646.495 274.302 647.427 274.422 648.367C274.501 648.756 274.519 649.153 274.478 649.547Z" fill="#263238"/>
<path d="M264.038 521.343C264.038 521.343 251.507 537.108 256.989 559.399L265.961 564.018L257.696 562.634C257.696 562.634 260.559 574.311 261.905 577.662L275.425 578.888L263.085 579.548C263.085 579.548 272.475 598.646 278.971 610.09C285.467 621.533 300.886 632.364 300.886 632.364L300.154 650.756L308.444 653.179L305.163 630.828C305.163 630.828 309.034 625.457 310.423 615.514C311.812 605.571 310.073 605.495 310.073 605.495C310.073 605.495 310.534 594.775 303.497 579.688L295.791 585.871L301.426 574.358L289.437 551.774L285.209 558.126L287.777 549.001L280.231 537.779L276.095 544.785L278.621 535.864C278.621 535.864 269.624 518.354 264.038 521.343Z" fill="#455A64"/>
<path d="M305.487 632.889C305.487 632.889 299.274 611.187 290.358 591.786C285.828 581.93 274.459 559.802 270.428 547.471C267.355 538.036 265.512 523.41 265.512 523.41C265.512 523.41 267.417 542.094 269.291 549.135C271.374 557 290.142 597.712 293.258 605.553C296.429 613.482 300.018 623.863 300.872 633.631" fill="#455A64"/>
<path d="M300.836 633.631C300.836 633.631 300.805 633.426 300.756 633.047C300.707 632.667 300.658 632.066 300.535 631.295C300.338 629.766 299.957 627.518 299.306 624.651C297.34 616.584 294.625 608.698 291.194 601.086C286.947 591.4 281.742 579.933 276.199 567.1C274.816 563.889 273.415 560.59 272.033 557.174C271.357 555.475 270.656 553.765 270.029 552.007C269.691 551.137 269.415 550.256 269.138 549.339C268.861 548.422 268.683 547.506 268.493 546.577C267.749 542.864 267.202 539.052 266.686 535.186C266.17 531.321 265.709 527.386 265.291 523.398L265.611 523.363V523.556C266.151 527.534 266.793 531.442 267.534 535.28C268.296 539.116 269.126 542.87 270.244 546.502C271.363 550.133 272.776 553.59 274.196 556.964C275.615 560.339 277.096 563.609 278.565 566.785C284.415 579.519 290.321 590.723 294.236 600.567C298.15 610.411 300.959 618.48 302.778 624.096C303.681 626.905 304.351 629.1 304.794 630.589C305.009 631.33 305.168 631.897 305.285 632.282C305.402 632.667 305.433 632.866 305.433 632.866L305.248 632.282C305.132 631.897 304.959 631.33 304.732 630.595C304.271 629.112 303.577 626.922 302.655 624.12C300.811 618.515 298.04 610.422 294.051 600.637C290.063 590.851 284.188 579.618 278.319 566.89C276.85 563.743 275.376 560.462 273.944 557.093C272.512 553.724 271.111 550.244 269.974 546.583C268.87 542.886 267.961 539.139 267.251 535.356C266.522 531.514 265.881 527.602 265.328 523.62C265.328 523.55 265.328 523.486 265.297 523.428L265.617 523.392C266.026 527.374 266.489 531.3 267.006 535.169C267.528 539.034 268.069 542.841 268.806 546.542C268.991 547.471 269.199 548.387 269.421 549.287C269.642 550.186 269.968 551.038 270.306 551.937C270.92 553.689 271.627 555.4 272.303 557.093C273.679 560.479 275.074 563.778 276.451 566.983C281.982 579.828 287.162 591.301 291.384 600.999C294.796 608.627 297.47 616.534 299.373 624.622C299.988 627.494 300.369 629.748 300.547 631.284C300.725 632.819 300.836 633.631 300.836 633.631Z" fill="#263238"/>
<path d="M302.059 587.436C302.132 587.483 300.319 590.174 298.015 593.444C295.71 596.714 293.787 599.324 293.713 599.283C293.639 599.242 295.446 596.55 297.751 593.281C300.055 590.011 301.985 587.389 302.059 587.436Z" fill="#263238"/>
<path d="M302.931 591.144C302.556 591.643 302.146 592.117 301.702 592.562C300.916 593.415 299.859 594.594 298.63 595.92C297.4 597.245 296.405 598.453 295.643 599.329C295.256 599.822 294.833 600.289 294.377 600.725C294.687 600.183 295.051 599.67 295.465 599.195C296.178 598.284 297.204 597.046 298.384 595.692C299.564 594.337 300.688 593.205 301.518 592.387C301.95 591.934 302.423 591.518 302.931 591.144Z" fill="#263238"/>
<path d="M294.26 571.637C294.34 571.672 292.804 574.784 290.825 578.579C288.846 582.374 287.181 585.428 287.101 585.387C287.021 585.346 288.563 582.246 290.542 578.445C292.521 574.644 294.18 571.602 294.26 571.637Z" fill="#263238"/>
<path d="M292.306 570.843C292.034 571.433 291.715 572.003 291.354 572.548C290.739 573.587 289.934 575.023 289.086 576.635C288.238 578.246 287.519 579.735 287.009 580.815C286.764 581.417 286.474 582.003 286.143 582.567C286.299 581.943 286.52 581.334 286.8 580.751C287.261 579.647 287.949 578.141 288.804 576.518C289.658 574.895 290.506 573.464 291.157 572.431C291.488 571.869 291.872 571.337 292.306 570.843Z" fill="#263238"/>
<path d="M289.103 565.407C288.872 565.958 288.596 566.49 288.28 567.001C287.702 568.052 286.983 569.337 286.191 570.779C285.398 572.221 284.722 573.529 284.156 574.591C283.906 575.133 283.61 575.654 283.271 576.15C283.452 575.572 283.688 575.011 283.978 574.475C284.445 573.476 285.127 572.104 285.932 570.621C286.737 569.138 287.518 567.813 288.108 566.873C288.395 566.358 288.728 565.868 289.103 565.407Z" fill="#263238"/>
<path d="M284.371 549.082C284.457 549.082 283.339 553.42 281.87 558.716C280.402 564.011 279.136 568.297 279.05 568.273C278.964 568.25 280.088 563.941 281.557 558.64C283.026 553.338 284.285 549.065 284.371 549.082Z" fill="#263238"/>
<path d="M280.968 548.394C280.95 548.633 280.903 548.871 280.827 549.1C280.698 549.608 280.544 550.268 280.354 550.998C279.967 552.597 279.487 554.822 279.125 557.303C278.762 559.785 278.547 562.05 278.443 563.691C278.4 564.467 278.363 565.115 278.332 565.641C278.338 565.88 278.313 566.119 278.258 566.353C278.217 566.116 278.201 565.875 278.209 565.635C278.209 565.174 278.209 564.508 278.209 563.685C278.283 561.534 278.488 559.39 278.824 557.262C279.144 555.134 279.592 553.025 280.163 550.945C280.391 550.145 280.587 549.509 280.735 549.071C280.79 548.839 280.868 548.612 280.968 548.394Z" fill="#263238"/>
<path d="M274.675 534.492C274.718 534.492 274.374 535.245 273.87 536.46C273.214 538.033 272.648 539.639 272.174 541.271C271.711 542.905 271.34 544.562 271.061 546.234C270.98 546.934 270.861 547.629 270.705 548.318C270.682 548.124 270.682 547.928 270.705 547.734C270.705 547.372 270.766 546.841 270.846 546.193C271.055 544.505 271.396 542.834 271.866 541.195C272.339 539.549 272.939 537.939 273.661 536.378C273.937 535.794 274.183 535.304 274.361 534.983C274.442 534.806 274.547 534.641 274.675 534.492Z" fill="#263238"/>
<path d="M265.578 569.769C265.615 569.693 268.848 570.937 272.805 572.589C276.763 574.241 279.934 575.613 279.897 575.689C279.86 575.765 276.628 574.522 272.676 572.869C268.725 571.217 265.542 569.845 265.578 569.769Z" fill="#263238"/>
<path d="M269.365 568.496C271.047 569.089 272.689 569.779 274.282 570.563C275.921 571.25 277.515 572.03 279.057 572.898C277.376 572.303 275.734 571.612 274.14 570.832C272.502 570.141 270.908 569.362 269.365 568.496Z" fill="#263238"/>
<path d="M289.51 597.601C288.974 597.55 288.443 597.454 287.925 597.315C286.954 597.116 285.614 596.848 284.127 596.591C282.64 596.334 281.282 596.136 280.298 596.007C279.762 595.963 279.232 595.874 278.713 595.739C279.252 595.699 279.794 595.716 280.329 595.791C281.319 595.873 282.689 596.036 284.182 596.293C285.676 596.55 287.021 596.877 287.98 597.116C288.509 597.22 289.022 597.383 289.51 597.601Z" fill="#263238"/>
<path d="M274.914 592.037C274.914 591.955 278.024 592.539 281.822 593.351C285.619 594.162 288.686 594.88 288.668 594.962C288.649 595.044 285.552 594.454 281.754 593.648C277.956 592.843 274.89 592.119 274.914 592.037Z" fill="#263238"/>
<path d="M279.4 590.157C280.721 590.3 282.028 590.542 283.309 590.881C284.614 591.124 285.896 591.466 287.144 591.903C285.823 591.759 284.516 591.517 283.235 591.179C281.931 590.935 280.648 590.593 279.4 590.157Z" fill="#263238"/>
<path d="M297.025 616.08C296.828 616.055 296.636 616.006 296.453 615.934C296.09 615.829 295.574 615.654 294.941 615.432C293.669 614.988 291.936 614.322 290.025 613.54C288.114 612.758 286.442 612.01 285.225 611.456C284.553 611.184 283.901 610.866 283.277 610.504C283.976 610.708 284.658 610.962 285.318 611.263L290.154 613.26C292.041 614.048 293.755 614.737 294.997 615.233C295.692 615.47 296.37 615.753 297.025 616.08Z" fill="#263238"/>
<path d="M300.879 597.104C300.132 598.364 299.292 599.571 298.366 600.719C297.528 601.927 296.599 603.076 295.588 604.157C296.342 602.901 297.183 601.693 298.108 600.543C298.942 599.335 299.869 598.185 300.879 597.104Z" fill="#263238"/>
<g opacity="0.3">
<path d="M272.303 557.373C272.303 557.373 276.402 569.383 280.998 580.546C285.595 591.71 289.528 600.398 289.528 600.398L281.822 599.487L291.04 603.866L298.261 620.074C296.604 614.108 294.522 608.255 292.029 602.558C290.327 598.675 288.484 594.816 287.728 592.708C284.956 585.533 272.303 557.373 272.303 557.373Z" fill="black"/>
</g>
<g opacity="0.3">
<path d="M276.855 563.381L284.371 577.977L286.602 573.306L285.238 579.238C285.238 579.238 289.177 586.829 290.769 592.761L276.855 563.381Z" fill="black"/>
</g>
<path d="M301.579 655.631C301.503 655.429 301.451 655.219 301.425 655.006C301.345 654.603 301.247 654.013 301.143 653.284C300.927 651.824 300.7 649.78 300.565 647.556C300.43 645.331 300.411 643.27 300.46 641.799C300.46 641.063 300.51 640.468 300.546 640.048C300.547 639.833 300.574 639.62 300.626 639.411C300.67 639.621 300.685 639.835 300.669 640.048C300.669 640.526 300.669 641.104 300.669 641.799C300.669 643.27 300.737 645.302 300.872 647.538C301.007 649.775 301.198 651.795 301.351 653.26C301.425 653.938 301.487 654.516 301.536 655.012C301.579 655.215 301.594 655.424 301.579 655.631Z" fill="#263238"/>
<g opacity="0.3">
<path d="M300.626 640.199C299.917 642.108 299.655 644.14 299.858 646.155C300.086 648.098 300.468 650.022 301.001 651.911L301.105 651.946C300.766 649.177 300.588 646.391 300.57 643.603C300.534 642.505 300.57 641.279 300.626 640.199Z" fill="black"/>
</g>
<path d="M306.102 639.808C306.01 639.808 305.967 638.161 305.77 636.147C305.574 634.133 305.303 632.504 305.396 632.486C306.084 634.868 306.323 637.347 306.102 639.808Z" fill="#263238"/>
<path d="M302.334 661.557C302.347 661.254 302.388 660.954 302.457 660.658C302.549 660.074 302.721 659.251 302.973 658.229C303.647 655.577 304.564 652.987 305.714 650.487C306.875 647.993 308.246 645.591 309.813 643.306C310.427 642.43 310.925 641.735 311.294 641.268C311.476 641.014 311.682 640.775 311.909 640.556C311.767 640.827 311.603 641.087 311.417 641.332C311.079 641.823 310.6 642.529 310.022 643.417C308.521 645.726 307.186 648.129 306.027 650.61C304.887 653.096 303.946 655.66 303.213 658.282C302.936 659.292 302.727 660.109 302.598 660.681C302.533 660.979 302.445 661.272 302.334 661.557Z" fill="#263238"/>
</g>
</svg>
