<svg width="216" height="81" viewBox="0 0 216 81" fill="none" xmlns="http://www.w3.org/2000/svg">
<path d="M5.12156 35.5774H0L15.81 0.0966797L31.1747 35.5774H26.7212L15.81 11.3963L5.12156 35.5774Z" fill="white"/>
<path d="M12.6926 35.5774H7.79368L15.5874 18.628L23.381 35.5774H18.4822L15.5874 29.0236L12.6926 35.5774Z" fill="white"/>
<path d="M39.1911 36.0294H34.5149L43.6446 0.0966797L54.3331 25.4077L64.7989 0.548663L74.1513 36.0294H69.2524L64.1309 14.1082L54.3331 37.3853L44.758 14.1082L39.1911 36.0294Z" fill="white"/>
<path d="M113.121 1.67871V6.87652H128.263L112.008 36.0294H135.612V31.5096H119.579L121.36 28.3457H135.612V24.2779H123.364L135.612 1.67871H113.121Z" fill="white"/>
<path fill-rule="evenodd" clip-rule="evenodd" d="M77.043 35.8025H108.44L92.6303 0.547852L77.043 35.8025ZM83.9227 31.2827H101.52L92.6591 11.5231L83.9227 31.2827Z" fill="white"/>
<path d="M92.602 18.4004L87.959 28.796H97.3114L92.602 18.4004Z" fill="white"/>
<path fill-rule="evenodd" clip-rule="evenodd" d="M87.959 28.796H97.3114L92.602 18.4004L87.959 28.796Z" fill="white"/>
<path fill-rule="evenodd" clip-rule="evenodd" d="M159.209 32.4132C167.003 32.4132 173.015 26.2747 173.015 19.0797C173.015 11.8847 167.003 5.74623 159.209 5.74623C151.414 5.74623 145.403 11.8847 145.403 19.0797C145.403 26.2747 151.414 32.4132 159.209 32.4132ZM159.209 37.3851C169.539 37.3851 177.914 29.1895 177.914 19.0797C177.914 8.96998 169.539 0.774414 159.209 0.774414C148.878 0.774414 140.504 8.96998 140.504 19.0797C140.504 29.1895 148.878 37.3851 159.209 37.3851Z" fill="white"/>
<path fill-rule="evenodd" clip-rule="evenodd" d="M199.435 46.5466C195.957 45.7929 192.32 46.2723 189.179 47.8908C186.041 49.5084 183.617 52.1499 182.316 55.3222C181.017 58.4921 180.916 62.0036 182.029 65.2373C183.142 68.4732 185.407 71.241 188.443 73.0273C191.482 74.8147 195.084 75.4945 198.602 74.9336C202.119 74.3727 205.299 72.6125 207.581 69.9917C209.818 67.4236 211.101 63.683 211.101 60.2099H216C216 64.7796 214.352 69.7239 211.252 73.2843C208.197 76.7922 203.979 79.109 199.363 79.8451C194.746 80.5812 190.007 79.6935 185.987 77.3289C181.965 74.9631 178.914 71.265 177.404 66.8763C175.893 62.4855 176.032 57.7105 177.793 53.4127C179.554 49.1173 182.812 45.5963 186.961 43.4578C191.109 41.3202 195.891 40.6947 200.458 41.6844C205.026 42.6743 209.106 45.2214 211.956 48.8955L208.106 51.9706C205.982 49.2316 202.913 47.3002 199.435 46.5466Z" fill="#06E2FF"/>
<path fill-rule="evenodd" clip-rule="evenodd" d="M194.398 60.21H213.771V64.7298H198.852V76.2554H194.398V60.21Z" fill="#06E2FF"/>
<path d="M150.75 16.5947H167.673V21.5665H150.75V16.5947Z" fill="white"/>
<path fill-rule="evenodd" clip-rule="evenodd" d="M207.628 31.0573L189.94 12.8828V31.0573H207.628ZM185.041 36.0291V0.774414L210.393 26.8225H214.88V36.0291H185.041Z" fill="white"/>
<path d="M209.541 1.67871H214.885V26.9898H209.541V1.67871Z" fill="white"/>
<path fill-rule="evenodd" clip-rule="evenodd" d="M163.097 73.0915L145.409 54.917V73.0915H163.097ZM140.51 78.0633V42.8086L165.861 68.8566H170.348V78.0633H140.51Z" fill="#06E2FF"/>
<path d="M165.002 43.7129H170.346V69.024H165.002V43.7129Z" fill="#06E2FF"/>
<path fill-rule="evenodd" clip-rule="evenodd" d="M61.6787 78.0659L46.314 41.9072L30.0586 78.0659H61.6787ZM37.6784 73.0941H54.231L46.1878 54.1656L37.6784 73.0941Z" fill="#06E2FF"/>
<path fill-rule="evenodd" clip-rule="evenodd" d="M0 43.2588H4.89889V51.6205H21.377V43.2588H26.2758V56.5923H0V43.2588Z" fill="#06E2FF"/>
<path fill-rule="evenodd" clip-rule="evenodd" d="M0 78.0635H4.89889V65.6339H21.377V78.0635H26.2758V60.6621H0V78.0635Z" fill="#06E2FF"/>
<path fill-rule="evenodd" clip-rule="evenodd" d="M70.9612 73.5135C66.435 69.6922 64.5815 64.8695 64.582 60.0908L69.4809 60.0914C69.4805 63.4583 70.7357 66.8558 74.0942 69.6913C77.13 72.2544 81.4675 72.8659 86.2791 72.8659H92.6393V77.8377H86.2791C81.3342 77.8377 75.4257 77.2828 70.9612 73.5135Z" fill="#06E2FF"/>
<path fill-rule="evenodd" clip-rule="evenodd" d="M70.9612 46.9074C66.435 50.7287 64.5815 55.5514 64.582 60.3301L69.4809 60.3295C69.4805 56.9626 70.7357 53.5651 74.0942 50.7296C77.13 48.1665 81.4675 47.555 86.2791 47.555H92.6393V42.5832H86.2791C81.3342 42.5832 75.4257 43.1381 70.9612 46.9074Z" fill="#06E2FF"/>
<path fill-rule="evenodd" clip-rule="evenodd" d="M76.1582 74.6738V45.2949H81.0571V74.6738H76.1582Z" fill="#06E2FF"/>
<path fill-rule="evenodd" clip-rule="evenodd" d="M107.657 59.2162L124.254 42.8066L117.129 43.0326L103.248 56.5921H102.655V43.2586H97.7559V78.0613H102.655V61.5639H103.134L118.019 78.0613H124.254L107.657 59.2162Z" fill="#06E2FF"/>
<path d="M133.383 77.8365H128.707V43.2598H133.383V77.8365Z" fill="#06E2FF"/>
</svg>
