<svg width="235" height="58" viewBox="0 0 235 58" fill="none" xmlns="http://www.w3.org/2000/svg">
<path fill-rule="evenodd" clip-rule="evenodd" d="M58.6598 2.7335V4.83905H69.6302H80.6003L80.6 6.03222V7.22539L75.6193 9.15858C72.8801 10.2218 70.4871 11.1805 70.3013 11.2891C70.0932 11.411 70.9548 11.9447 72.5508 12.6819L75.1379 13.8773L77.9322 12.8267C83.8648 10.5965 84.5094 9.93761 84.5094 6.10239C84.5094 3.52463 84.0416 2.3194 82.63 1.26044C82.0827 0.849874 81.4169 0.62793 80.7327 0.62793H70.2233H58.6598V2.7335ZM93.2098 13.4017V21.8623C93.2098 24.2444 94.9427 26.1755 97.0805 26.1755H106.198H119.185V24.0699V21.9643H108.215H97.2448V18.7392V15.514L106.891 15.4405L116.537 15.3669L116.611 13.3315L116.686 11.2961H106.965H97.2448V8.0676V4.83905H108.215H119.185V2.7335V0.62793H106.198H97.0805C94.9427 0.62793 93.2098 2.55903 93.2098 4.94114V13.4017ZM128.012 13.4017V26.1755H130.03H132.047V16.9048V7.63415L135.999 11.1631L139.951 14.6917L141.295 13.2142C142.034 12.4014 142.639 11.6555 142.639 11.5564C142.639 11.4573 139.98 8.95785 136.73 6.00219L131.89 1.59974C131.199 0.97122 130.335 0.62793 129.443 0.62793H129.417C128.641 0.62793 128.012 1.32886 128.012 2.19351V13.4017ZM151.718 10.0328C151.718 15.2055 151.661 19.4377 151.591 19.4377C151.521 19.4377 150.085 18.1788 148.4 16.6404L145.337 13.8428L144.429 14.6471C143.93 15.0895 143.263 15.7608 142.946 16.1387L142.37 16.8259L147.588 21.5006L151.743 25.2236C152.431 25.8397 153.287 26.1755 154.169 26.1755H154.279C155.093 26.1755 155.753 25.4403 155.753 24.5335V13.4017V0.62793H153.735H151.718V10.0328ZM165.336 13.4017V26.1755H167.353H169.371V13.4017V0.62793H167.353H165.336V13.4017ZM175.98 2.66331L176.054 4.69871L181.287 4.77449L186.52 4.85056V15.5129V26.1755H188.537H190.555V15.5073V4.83905H195.725H200.895V2.7335V0.62793H188.4H175.906L175.98 2.66331ZM207.704 13.4017V26.1755H209.658H211.613L211.625 13.4017L211.637 0.62793H209.67H207.704V13.4017ZM230.653 5.96205V11.2961H222.709H214.765V13.4017V15.5073H222.709H230.653V20.8414V26.1755H232.671H234.688V13.4017V0.62793H232.671H230.653V5.96205ZM61.9382 14.4944C57.2994 16.3871 57.0543 16.6844 56.9459 20.5607C56.8614 23.587 57.2145 24.5935 58.7208 25.6154C59.5089 26.1508 60.0121 26.1735 71.0802 26.1744L82.6178 26.1755V24.0699V21.9643H71.7736H60.9295V20.7294V19.4947L62.7579 18.76C63.7637 18.356 65.9849 17.4803 67.6942 16.8139L70.8027 15.6022L68.257 14.4318C66.857 13.788 65.515 13.2726 65.2751 13.2863C65.0351 13.2998 63.5335 13.8436 61.9382 14.4944Z" fill="white"/>
<path fill-rule="evenodd" clip-rule="evenodd" d="M56.9343 48.5741V56.7029H58.2941H59.6542V48.5741V40.4453H58.2941H56.9343V48.5741ZM65.6984 48.5741V56.7029H67.0582H68.4183V50.8919V45.081L75.0276 50.8919C80.8587 56.0187 81.7662 56.7029 82.7339 56.7029H83.8308V48.5741V40.4453H82.3269H80.8227L80.7402 46.2954L80.6577 52.1458L74.1603 46.3023C68.7294 41.4184 67.5012 40.4579 66.6804 40.4523L65.6984 40.4453V48.5741ZM91.9803 40.7174C91.0261 41.1819 90.2403 41.9732 89.6151 43.0996C89.0458 44.1255 88.9704 44.7579 88.9696 48.529C88.9684 52.2347 89.0505 52.956 89.5933 54.0034C90.851 56.4314 91.1401 56.525 97.7381 56.6385C103.476 56.7374 103.665 56.7191 104.661 55.9749C106.792 54.383 106.95 53.8734 106.95 48.5741C106.95 43.2854 106.79 42.7635 104.686 41.1918C103.736 40.4811 103.416 40.4463 98.0657 40.4685C94.9736 40.4815 92.2352 40.5933 91.9803 40.7174ZM111.227 41.4055C111.534 41.9337 113.757 45.5853 116.167 49.52C120.241 56.17 120.613 56.6743 121.456 56.678C122.302 56.6816 122.683 56.1617 127.198 48.8379C129.857 44.5236 132.079 40.8703 132.134 40.7197C132.19 40.5687 131.51 40.4513 130.623 40.4589L129.011 40.4725L125.256 46.597C123.19 49.9653 121.479 52.7214 121.454 52.7214C121.429 52.7214 119.726 49.9593 117.67 46.5834L113.932 40.4453H112.3H110.668L111.227 41.4055ZM139.669 48.5575L134.652 56.7029H136.286H137.92L139.024 54.878L140.128 53.0532H145.521H150.915L152.019 54.878L153.122 56.7029H154.752H156.381L151.419 48.657C146.999 41.4904 146.36 40.6003 145.571 40.5117C144.727 40.4171 144.454 40.789 139.669 48.5575ZM92.4302 43.9141C91.7279 44.6849 91.6883 44.9334 91.6883 48.5741C91.6883 52.2148 91.7279 52.4633 92.4302 53.234C93.1544 54.0293 93.2836 54.0486 97.8897 54.0486C100.485 54.0486 102.856 53.9022 103.16 53.7237C103.993 53.2347 104.381 51.5963 104.381 48.5741C104.381 45.5518 103.993 43.9135 103.16 43.4244C102.856 43.2459 100.485 43.0996 97.8897 43.0996C93.2836 43.0996 93.1544 43.1188 92.4302 43.9141ZM144.191 46.4822C143.452 47.6328 142.608 48.9848 142.316 49.4865L141.786 50.3989H145.447C147.46 50.3989 149.108 50.3398 149.108 50.2679C149.108 50.1959 148.304 48.8438 147.322 47.2635L145.536 44.3899L144.191 46.4822Z" fill="white"/>
<path fill-rule="evenodd" clip-rule="evenodd" d="M0.31192 7.9757C0.31192 3.8788 3.29235 0.557617 6.9689 0.557617H43.9738C47.6504 0.557617 50.6308 3.8788 50.6308 7.9757V49.6478C50.6308 53.7446 47.6504 57.0658 43.9738 57.0658H6.9689C3.29235 57.0658 0.31192 53.7446 0.31192 49.6478V7.9757ZM31.1214 13.212L43.2277 22.8487C45.7386 24.8473 44.4678 29.2533 41.3805 29.2533H28.6416C33.1443 26.9284 30.4687 22.3563 28.6416 22.3563H17.8733L6.29892 13.212H31.1214ZM7.34534 34.8514L19.2752 44.4115H44.8709L34.0905 35.7704H22.3837C20.5318 35.7704 17.8201 31.4501 22.3837 29.2533H8.96889C6.27209 29.2533 5.15709 33.0979 7.34534 34.8514Z" fill="white"/>
</svg>
