<svg width="163" height="59" viewBox="0 0 163 59" fill="none" xmlns="http://www.w3.org/2000/svg">
<path fill-rule="evenodd" clip-rule="evenodd" d="M103.738 0.614956C103.663 0.803322 103.634 7.064 103.674 14.5274L103.747 28.0973L108.573 28.1709L113.399 28.2445L113.313 27.0961L113.227 25.9476L109.672 25.8724L106.117 25.7971V20.5653V15.3335H108.626H111.136V14.2587V13.1839H108.626H106.117V7.95235V2.72084L109.532 2.64533L112.948 2.56982V1.49498V0.420141L108.411 0.346246C104.934 0.289817 103.842 0.352426 103.738 0.614956ZM45.8589 4.38711C43.2838 6.03994 43.554 9.54043 46.3435 10.6636C47.5478 11.1487 48.2402 11.1312 49.4333 10.5854C50.6764 10.0169 51.4622 8.78616 51.4622 7.4066C51.4622 4.53732 48.289 2.82725 45.8589 4.38711ZM118.525 8.17592C118.065 8.38202 117.312 8.93583 116.852 9.40661C116.08 10.1974 116.008 10.4398 115.915 12.5685L115.816 14.8741L116.473 14.7045C116.835 14.611 117.351 14.5331 117.619 14.5312C118.029 14.528 118.107 14.27 118.107 12.9152C118.107 10.9767 118.684 10.2281 120.178 10.2281C121.515 10.2281 122.289 11.2199 122.289 12.934C122.289 15.3147 121.764 15.9838 118.464 17.8033C115.726 19.3129 115.318 19.9755 115.318 22.9165C115.318 25.4886 115.79 26.4923 117.527 27.6206C118.713 28.3904 120.932 28.452 122.134 27.7482C122.919 27.289 122.997 27.2887 123.918 27.741C124.448 28.0013 124.988 28.1505 125.119 28.0728C125.517 27.8355 125.384 26.1695 124.938 25.8132C124.586 25.5314 124.52 24.3625 124.52 18.3821C124.52 10.4919 124.431 9.99831 122.782 8.78643C121.605 7.92172 119.703 7.64898 118.525 8.17592ZM130.173 8.35703C128.685 9.08631 127.871 10.3468 127.668 12.2364C127.403 14.7174 128.006 15.7632 131.257 18.4608C132.787 19.7299 134.167 21.0874 134.323 21.4771C134.774 22.6019 134.457 24.6564 133.713 25.419C132.842 26.3125 131.428 26.3141 130.503 25.4223C129.94 24.8808 129.818 24.4966 129.818 23.2726V21.7826H128.703H127.587V23.4255C127.587 26.3316 129.05 27.9901 131.782 28.1806C133.675 28.3125 134.747 27.8557 135.868 26.4391C136.536 25.5961 136.664 25.1527 136.746 23.4021C136.884 20.489 136.552 19.9056 133.131 17.0482L130.236 14.6306L130.152 12.9358C130.049 10.8515 130.493 10.2281 132.081 10.2281C133.621 10.2281 134.279 11.0073 134.279 12.8316C134.279 14.162 134.325 14.2587 134.954 14.2587C136.306 14.2587 136.51 14.0239 136.51 12.4699C136.51 10.7389 136.014 9.69977 134.742 8.76466C133.409 7.78468 131.661 7.62882 130.173 8.35703ZM138.462 8.39169C138.462 8.56394 139.279 13.1016 140.278 18.4753C142.076 28.1456 142.091 28.2625 141.696 29.9111C141.269 31.6907 140.546 32.531 139.442 32.531C139.095 32.531 138.419 32.6065 137.939 32.6989L137.068 32.8669V34.7143V36.5616H135.813H134.558V37.7708V38.98H135.813H137.068V46.6649C137.068 55.2813 137.16 55.7755 138.905 56.5738C139.432 56.8146 139.987 56.9376 140.138 56.8474C140.634 56.5521 140.446 54.9798 139.856 54.4932C139.323 54.0533 139.299 53.7005 139.299 46.5066V38.98H140.693H142.087V37.7708V36.5616H140.675C139.263 36.5616 139.263 36.5616 139.351 35.7286C139.424 35.0329 139.613 34.8379 140.502 34.545C143.234 33.6448 143.464 33.0225 145.879 20.0526C147.008 13.9841 147.935 8.80712 147.937 8.54862C147.942 8.18049 147.707 8.07838 146.858 8.07838C145.853 8.07838 145.762 8.14206 145.617 8.95168C145.53 9.43214 144.989 12.7574 144.415 16.3412C143.841 19.9253 143.301 22.8574 143.217 22.8574C143.132 22.8572 142.58 19.8041 141.99 16.0725C140.594 7.25129 140.847 8.07838 139.547 8.07838C138.907 8.07838 138.462 8.20682 138.462 8.39169ZM37.5037 9.77877C31.7794 12.1875 27.0553 16.367 24.3751 21.394C23.5977 22.8521 23.347 23.12 22.883 22.9888C22.5763 22.9023 21.0706 22.7647 19.537 22.6836C13.9766 22.3885 9.46974 24.0406 5.57044 27.8025C3.04443 30.2394 1.65525 32.4192 0.67318 35.4868C-0.271808 38.4391 -0.216319 42.8296 0.804513 45.8378C2.90975 52.0428 8.51555 56.885 14.9562 58.0622C15.8557 58.2267 28.3324 58.3271 47.8186 58.3271C75.1256 58.3271 79.4451 58.2734 80.87 57.9158C85.9602 56.638 90.1738 52.6326 91.7252 47.597C92.4059 45.3871 92.3172 41.4385 91.537 39.2332C90.1509 35.3156 87.365 32.2139 83.7303 30.542C81.1446 29.3527 78.8191 28.9268 75.8776 29.1036L73.546 29.2439L73.3622 28.0634C72.6724 23.6302 69.239 17.7791 65.3244 14.3651C62.7501 12.12 57.4516 9.18681 55.9233 9.16047C55.6771 9.15617 55.3232 9.63475 55.0692 10.3157L54.6354 11.4781L56.3262 12.0623C58.2725 12.7351 61.5974 14.7351 63.5301 16.3958C67.472 19.7831 70.2749 25.0676 70.9723 30.4259C71.129 31.6305 71.2949 32.6524 71.3412 32.697C71.3872 32.7417 72.2151 32.5409 73.1807 32.2515C79.1685 30.4555 85.6518 33.1676 88.3022 38.577C91.2358 44.5646 88.5024 51.7722 82.2087 54.6456L80.324 55.5057L48.3969 55.5777C26.0236 55.628 16.028 55.5613 14.9936 55.3547C12.2961 54.8157 9.36099 53.1655 7.20026 50.9736C1.0867 44.7713 1.16923 35.8673 7.39628 29.8162C10.6169 26.6865 14.1152 25.2758 18.6556 25.2758C19.7659 25.2758 21.4225 25.4717 22.3365 25.7111C25.3516 26.5011 25.0898 26.5683 25.7768 24.8281C28.0603 19.0463 34.0428 13.4534 39.6831 11.828C40.3351 11.6401 40.8682 11.4668 40.8682 11.4426C40.8682 11.1202 39.9307 8.88531 39.7963 8.88773C39.6957 8.88961 38.664 9.29053 37.5037 9.77877ZM40.1711 12.6881C39.1687 13.2164 38.9163 13.7879 38.9163 15.5316C38.9163 17.0052 39.0142 17.333 39.6302 17.9269C40.1661 18.4433 40.5305 18.5774 41.0941 18.4656C44.1711 17.8546 47.6752 17.677 50.5367 17.9871C52.1969 18.1671 53.8931 18.3818 54.3055 18.4646C54.8699 18.5774 55.2326 18.4441 55.7694 17.9269C56.3798 17.3387 56.4832 17.0006 56.4832 15.5939C56.4832 14.1338 56.3915 13.8602 55.6682 13.1632C55.2198 12.7311 54.6563 12.3777 54.4159 12.3777C54.1753 12.3777 53.4182 12.7899 52.7337 13.2935C51.127 14.4753 49.7743 14.9082 47.6998 14.905C45.8045 14.902 43.5509 14.0854 42.52 13.0277C41.8397 12.3296 41.0637 12.2176 40.1711 12.6881ZM119.919 19.5692L117.689 20.8453V22.9504C117.689 24.8384 117.756 25.1081 118.347 25.5687C119.655 26.5887 121.758 25.9411 122.158 24.395C122.243 24.0666 122.276 22.5592 122.231 21.0455L122.15 18.2929L119.919 19.5692ZM101.344 28.8712C99.7572 29.4177 98.6842 30.2889 98.0543 31.5429C97.4964 32.6535 97.4727 33.1111 97.4727 42.8094C97.4727 49.2835 97.5792 53.1899 97.7685 53.6744C98.138 54.6189 99.5773 56.0896 100.673 56.6418C101.877 57.2491 104.167 57.1771 105.537 56.4889C106.402 56.0544 106.674 56.006 106.674 56.2874C106.674 56.6945 107.263 56.9836 108.091 56.9836C108.605 56.9836 108.626 56.7015 108.626 49.7284V42.4733H105.838H103.049V43.5347V44.5961L104.653 44.6767L106.256 44.7573L106.341 47.7131C106.461 51.8434 106.264 52.8643 105.144 53.9445C104.087 54.9626 102.769 55.1249 101.341 54.4131C99.7759 53.6333 99.7034 53.1163 99.7034 42.7371C99.7034 32.6205 99.7455 32.2916 101.158 31.3382C101.934 30.8145 103.668 30.7965 104.682 31.3016C105.748 31.8329 106.172 32.8577 106.331 35.2853L106.467 37.3678H107.547H108.626L108.625 35.4196C108.623 32.725 108.214 31.5255 106.851 30.2115C105.209 28.6301 103.355 28.1787 101.344 28.8712ZM113.924 37.1447C113.387 37.4916 112.666 38.3136 112.321 38.972C111.723 40.1124 111.693 40.4665 111.695 46.4937C111.696 49.9724 111.824 53.2601 111.979 53.7999C112.386 55.2104 114.117 56.6292 115.712 56.8597C116.744 57.0089 117.236 56.9237 118.312 56.4091C120.314 55.4522 120.895 54.4166 120.895 51.8096C120.895 49.9697 120.834 49.6938 120.454 49.834C120.211 49.9238 119.71 49.9971 119.339 49.9971C118.702 49.9971 118.664 50.0855 118.664 51.5731C118.664 53.665 117.987 54.5652 116.413 54.5652C114.393 54.5652 113.801 53.259 113.977 49.191L114.064 47.1757L117.479 47.1002L120.895 47.0247V43.3788C120.895 40.5716 120.791 39.5215 120.443 38.8137C119.754 37.4145 118.555 36.7312 116.585 36.6146C115.175 36.5307 114.741 36.6173 113.924 37.1447ZM126.333 36.8048C125.539 37.1439 124.328 38.4453 123.98 39.3334C123.548 40.4364 123.618 42.5719 124.126 43.7961C124.45 44.5767 125.3 45.4433 127.309 47.0416C128.816 48.2409 130.123 49.4062 130.213 49.6314C130.302 49.8569 130.376 50.796 130.376 51.7188C130.376 53.7384 129.716 54.5652 128.106 54.5652C126.602 54.5652 125.914 53.6951 125.914 51.7937C125.914 50.2847 125.904 50.2659 125.101 50.2659C123.72 50.2659 123.405 50.5088 123.406 51.571C123.41 54.1119 124.784 56.0982 126.974 56.7305C129.187 57.3697 131.597 56.1253 132.485 53.8851C133.072 52.4029 132.915 49.643 132.174 48.4343C131.898 47.984 130.444 46.6361 128.944 45.4387C126.702 43.6505 126.183 43.0953 126.034 42.33C125.625 40.2303 126.524 38.7113 128.176 38.7113C129.485 38.7113 130.167 39.511 130.314 41.2195L130.445 42.742H131.526H132.606V41.2334C132.606 39.5392 131.93 38.1105 130.718 37.2466C129.906 36.6678 127.274 36.4026 126.333 36.8048ZM146.267 37.1662C144.175 38.5383 144.188 38.4837 144.096 46.3749C144.018 53.0384 144.047 53.5266 144.575 54.5244C145.25 55.7997 146.73 56.7423 148.314 56.9059C149.895 57.069 151.767 56.0998 152.616 54.6794C153.232 53.6473 153.244 53.4716 153.173 46.4558C153.105 39.6609 153.071 39.2474 152.518 38.5289C151.492 37.1953 150.243 36.5616 148.64 36.5616C147.594 36.5616 146.931 36.7304 146.267 37.1662ZM156.587 46.6383V56.7149H157.691H158.795L158.876 48.3612L158.957 40.0078L159.739 39.3594C160.312 38.8846 160.853 38.7113 161.761 38.7113H163V37.6024V36.4934L161.641 36.6191C160.867 36.6909 159.912 36.9996 159.419 37.3374L158.556 37.9302L158.377 37.2458C158.238 36.71 158.024 36.5616 157.393 36.5616H156.587V46.6383ZM114.864 39.3449C114.156 39.9315 114.091 40.1599 113.978 42.4351L113.856 44.8917H116.26H118.664V42.4612C118.664 40.2387 118.606 39.974 117.98 39.371C117.1 38.5227 115.868 38.5125 114.864 39.3449ZM147.449 38.8911C146.437 39.2834 146.27 40.4211 146.27 46.9059V53.2461L146.954 53.9055C147.797 54.7176 149.273 54.7839 150.212 54.052C150.865 53.5428 150.871 53.4882 150.955 47.2756C151.002 43.831 150.967 40.7336 150.878 40.3926C150.528 39.0453 148.895 38.3306 147.449 38.8911Z" fill="white"/>
</svg>
