<svg width="211" height="62" viewBox="0 0 211 62" fill="none" xmlns="http://www.w3.org/2000/svg">
<path fill-rule="evenodd" clip-rule="evenodd" d="M35.6072 0.129489C33.8594 0.367858 33.4632 1.33772 33.3385 5.68142L33.2216 9.76336L29.3242 10.0072C21.4638 10.4987 17.4909 12.5598 15.9587 16.9413C15.3817 18.592 15.3377 31.8338 15.9033 33.7817C16.4644 35.7156 18.8854 38.2904 21.1981 39.4121C24.0506 40.7958 29.2105 41.3163 34.7889 40.7822C40.9007 40.1974 43.1705 39.6773 44.2908 38.6049L45.2431 37.6931V19.7725C45.2431 -1.5664 45.7024 0.208684 40.1492 0.088914C38.1321 0.0456096 36.088 0.0639472 35.6072 0.129489ZM0.519027 0.831718C0.195465 0.970604 0.00964106 1.88351 0.00964106 3.33324C0.00964106 7.79125 1.20242 8.89921 6.05055 8.94564C7.77105 8.96203 9.70672 8.8364 10.3526 8.66631L11.5262 8.35733L11.3209 5.6073C11.1493 3.3106 10.9398 2.68913 10.0503 1.83787C9.06693 0.896093 8.68224 0.810652 5.00692 0.715851C2.8186 0.659282 0.799393 0.711558 0.519027 0.831718ZM116.801 6.48666L115.712 7.30671L115.829 20.8532L115.946 34.4001L117.07 36.0253C119.488 39.5225 123.324 40.8462 131.227 40.9113C136.348 40.9531 141.311 40.3519 143.744 39.3949C145.914 38.5409 146.088 35.5759 144.044 34.2928C143.088 33.6931 142.789 33.6963 139.677 34.34C134.778 35.3535 130.784 35.3379 129.326 34.2998L128.171 33.4778L128.061 25.4243L127.951 17.3709H132.677C137.357 17.3709 137.414 17.36 138.594 16.2305C139.98 14.9041 140.093 13.9202 139.008 12.6351C138.281 11.7753 137.882 11.7011 132.997 11.5189L127.764 11.3239L127.895 10.2459C128.1 8.57424 127.249 6.61462 126.103 6.11447C125.538 5.8683 123.46 5.66699 121.483 5.66699C118.449 5.66699 117.72 5.79457 116.801 6.48666ZM55.2018 10.5066C51.3125 11.2135 50.6454 11.444 49.7118 12.4034C48.9604 13.1754 48.9107 13.8207 48.9107 22.7637C48.9107 33.3479 49.0981 34.4746 51.2632 36.8961C54.313 40.307 60.1518 41.6323 68.3949 40.7845C74.4684 40.1599 76.6046 39.6598 77.7065 38.6049C78.6535 37.6982 78.6588 37.6389 78.6564 28.0195C78.6552 22.404 78.473 17.7208 78.222 16.8555C77.6221 14.7871 75.3466 12.5192 72.6118 11.2646C70.4667 10.2803 69.8758 10.198 64.1923 10.0946C60.2997 10.024 57.0344 10.1734 55.2018 10.5066ZM90.8841 10.1843C84.7837 11.1741 83.3985 11.6438 82.7869 12.9293C82.1275 14.3138 82.141 50.1055 82.8011 51.4924C83.4426 52.8407 85.5563 53.3888 89.3971 53.2031C94.0932 52.9761 94.3129 52.6687 94.4803 46.0895L94.6128 40.8864L98.9629 40.673C105.704 40.3417 109.186 38.7629 111.042 35.1963C112.043 33.2741 112.075 32.9737 112.075 25.4747C112.075 16.907 111.856 15.8911 109.507 13.5184C108.79 12.7939 107.195 11.7573 105.962 11.2142C103.94 10.3236 103.141 10.2167 97.8117 10.1227C94.5618 10.0657 91.4444 10.0934 90.8841 10.1843ZM156.085 10.187C150.073 11.1468 148.599 11.6457 147.988 12.9293C147.258 14.4629 147.37 31.5478 148.127 33.985C148.842 36.2922 150.975 38.4383 153.695 39.5872C157.521 41.2035 165.211 41.4415 172.343 40.1642C176.905 39.3469 178.307 38.0899 177.286 35.7304C176.484 33.8769 175.404 33.5964 171.73 34.2873C166.051 35.3547 164.181 35.446 162.349 34.7442C160.57 34.0622 159.753 32.9039 159.753 31.0605V29.9619L163.56 29.6943C169.729 29.2609 172.301 28.4318 174.925 26.031C178.695 22.5807 178.378 15.8943 174.303 12.9187C171.183 10.6408 169.387 10.1933 163.013 10.1055C159.763 10.0606 156.646 10.0973 156.085 10.187ZM190.864 10.3645C186.312 11.2267 182.653 13.8753 181.759 16.9554C181.537 17.7204 181.355 22.6993 181.353 28.0195L181.351 37.6931L182.351 38.6505C183.274 39.5346 183.653 39.6083 187.268 39.6083C189.422 39.6083 191.52 39.4362 191.93 39.2263C193.322 38.5132 193.576 36.6644 193.576 27.2353C193.576 22.0224 193.747 17.7934 193.975 17.3861C194.896 15.7386 198.401 15.4241 204.403 16.4502C208.842 17.2094 209.998 17.0221 210.686 15.4327C211.365 13.8644 210.923 12.4338 209.55 11.7542C206.45 10.2194 195.808 9.42823 190.864 10.3645ZM1.08343 11.9375L0.00964106 12.7459V25.5699C0.00964106 40.8345 -0.493636 39.6083 5.77222 39.6083C7.94505 39.6083 10.0201 39.4991 10.3828 39.366C12.0625 38.7488 12.2349 37.4489 12.2349 25.4064C12.2349 17.802 12.0813 13.5738 11.7826 12.9456C11.113 11.5396 9.74992 11.1288 5.75063 11.1288C2.73221 11.1288 1.98525 11.2583 1.08343 11.9375ZM28.3547 16.6776C27.4607 17.8995 27.4122 33.2043 28.2989 34.3645C29.0035 35.2868 32.4583 35.384 33.0627 34.4984C33.5672 33.7583 33.4294 16.9226 32.9135 16.298C32.6918 16.03 31.7183 15.8104 30.7496 15.8104C29.3922 15.8104 28.8437 16.0089 28.3547 16.6776ZM61.6453 16.0686C61.259 16.218 61.1376 18.3556 61.1421 24.9133C61.1457 29.6697 61.2831 33.7544 61.4477 33.9904C62.3703 35.3134 65.7192 35.5767 66.5293 34.3899C66.9421 33.7852 66.8855 20.3031 66.4613 18.2011C66.2722 17.2632 65.8675 16.3441 65.5623 16.1591C64.9698 15.7994 62.4901 15.7425 61.6453 16.0686ZM95.0533 16.1365C94.6544 16.3788 94.5614 18.5335 94.6458 25.5632L94.7554 34.6759L95.9779 34.9958C97.3997 35.3676 99.2347 34.7847 99.6842 33.818C100.108 32.9062 100.401 21.6611 100.068 19.1042C99.9153 17.9362 99.5155 16.717 99.1797 16.3952C98.5306 15.7741 95.9193 15.6102 95.0533 16.1365ZM160.262 16.0686C159.906 16.2063 159.753 17.3584 159.753 19.9048V23.5443L161.366 23.8053C163.534 24.156 164.459 23.8112 165.057 22.4278C165.776 20.7662 165.386 17.01 164.425 16.337C163.694 15.8256 161.293 15.6707 160.262 16.0686ZM153.339 45.7528C152.409 46.5471 147.528 57.5808 147.528 58.8893C147.528 59.3758 147.863 60.0647 148.273 60.4198C148.948 61.005 151.223 61.0654 172.511 61.0654H196.003L196.585 60.1876C196.905 59.7047 198.216 56.7323 199.498 53.5816C202.03 47.3582 202.145 46.132 200.262 45.4466C199.644 45.2211 190.176 45.0701 176.683 45.0701C155.788 45.0701 154.08 45.12 153.339 45.7528ZM159.024 52.7752L159.142 56.1888L161.485 56.3058C163.615 56.4123 163.828 56.3503 163.828 55.6231C163.828 54.9501 163.57 54.8234 162.198 54.8234H160.568V52.0924C160.568 49.6042 160.494 49.3615 159.737 49.3615C158.955 49.3615 158.913 49.5632 159.024 52.7752ZM168.4 50.4137C166.387 55.4706 166.252 56.0105 166.944 56.2649C167.34 56.4104 167.816 56.2458 168.109 55.8619C168.736 55.0406 171.101 54.9954 171.423 55.7987C171.756 56.6277 173.204 56.5473 173.185 55.7011C173.176 55.3258 172.668 53.7895 172.056 52.2875C171.114 49.976 170.781 49.5387 169.889 49.4384C169.055 49.3451 168.744 49.5484 168.4 50.4137ZM176.325 49.6217C175.985 49.9467 175.966 54.931 176.301 55.7667C176.598 56.5075 179.553 56.6179 181.093 55.9461C182.204 55.462 182.663 54.4153 182.123 53.5987C181.93 53.3065 181.876 52.5243 182.003 51.8599C182.34 50.0911 181.388 49.3615 178.741 49.3615C177.562 49.3615 176.474 49.4786 176.325 49.6217ZM186.172 49.8492C184.592 51.0684 185.28 52.9987 187.46 53.4571C188.709 53.7197 189.372 54.2967 188.92 54.7289C188.78 54.8631 188.01 54.7461 187.209 54.4687C186.108 54.0876 185.638 54.0747 185.284 54.4149C184.93 54.7551 185.065 55.0524 185.834 55.6266C187.315 56.7334 189.786 56.5048 190.826 55.1647C191.887 53.7989 191.26 52.614 189.288 52.2602C187.887 52.0086 187.157 51.4757 187.614 51.0387C187.741 50.9166 188.411 51.0414 189.103 51.3161C190.795 51.9867 191.623 51.3094 190.529 50.1511C189.672 49.2453 187.179 49.0724 186.172 49.8492ZM178.191 51.4097C178.449 52.1599 180.128 52.268 180.128 51.5346C180.128 51.1362 179.76 50.9221 179.076 50.9221C178.416 50.9221 178.086 51.1039 178.191 51.4097ZM169.372 52.3218C168.982 53.2956 169.08 53.653 169.737 53.653C170.073 53.653 170.348 53.3124 170.348 52.8957C170.348 51.9145 169.691 51.5275 169.372 52.3218ZM178.377 53.5094C177.736 54.1223 178.143 54.8234 179.139 54.8234C179.916 54.8234 180.153 54.6474 180.052 54.1449C179.909 53.4349 178.867 53.0397 178.377 53.5094Z" fill="white"/>
</svg>
