<svg width="143" height="67" viewBox="0 0 143 67" fill="none" xmlns="http://www.w3.org/2000/svg">
<path fill-rule="evenodd" clip-rule="evenodd" d="M141.288 0.985363C128.497 7.18807 114.815 15.019 107.634 20.2473C101.791 24.5014 98.891 27.4949 96.6707 31.5639C94.3945 35.7354 94.1681 39.1726 96.0095 41.6045C96.4375 42.1699 97.1293 42.6983 99.0028 43.8907C100.343 44.7436 103.314 46.6381 105.606 48.1007C107.898 49.5633 112.091 52.2351 114.924 54.038C117.758 55.8409 121.61 58.2982 123.485 59.4986C125.36 60.699 127.951 62.3486 129.243 63.164C130.534 63.9796 132.269 65.0812 133.098 65.6122C133.927 66.1431 134.506 66.4452 134.386 66.2836C134.265 66.1218 133.038 64.6107 131.658 62.9254C125.914 55.9107 121.95 50.5756 120.485 47.8889C119.616 46.2946 118.769 43.8614 118.397 41.8898C117.769 38.5605 119.115 35.4475 121.794 34.0339C122.207 33.816 123.798 33.2155 125.33 32.6992C128.221 31.7252 133.018 30.0038 134.134 29.5401C135.608 28.9275 136.351 27.9204 136.745 26.0008C137.142 24.0663 138.582 18.2474 141.759 5.73684C142.466 2.95382 143.024 0.564495 142.999 0.426997C142.962 0.217517 142.685 0.30786 141.288 0.985363ZM76.0607 11.3195C74.1001 11.506 71.5087 12.0074 70.2273 12.4478C67.3387 13.4409 64.7645 15.1879 62.9196 17.4078C62.0008 18.5132 60.6529 20.636 60.4858 21.2407C60.4585 21.3395 61.0741 21.5007 62.0767 21.6576C63.7184 21.9142 70.1054 23.0095 70.6923 23.1349C70.9581 23.1918 71.1172 22.9888 71.7364 21.8031C72.1383 21.0338 72.7675 20.0803 73.1348 19.6843C75.2211 17.4343 79.5652 17.4033 80.6904 19.6304C81.1611 20.5623 81.0783 21.9302 80.4796 23.1094C79.3598 25.3148 76.7978 26.647 73.8792 26.5417L73.1369 26.515L72.1828 30.0406C71.1446 33.8763 71.0923 34.1563 71.4389 34.0274C71.5634 33.981 72.2623 33.8344 72.9919 33.7016C78.061 32.7788 80.6182 35.2417 79.3973 39.8704C78.811 42.0931 77.6672 43.4998 75.6666 44.4584C74.6319 44.9541 74.3617 45.0186 73.0893 45.0725C71.7875 45.1278 71.5981 45.0997 70.8404 44.7403C69.4099 44.0617 68.5875 42.7302 68.2893 40.6099C68.1478 39.6042 68.0657 39.3687 67.8563 39.3687C67.7142 39.3687 65.1105 39.6662 62.0705 40.0298C59.0304 40.3933 56.4622 40.6908 56.3634 40.6908C56.1194 40.6908 56.2916 41.8712 56.7702 43.4819C57.6699 46.5098 59.4802 48.7112 62.1213 49.989C64.5817 51.1795 67.5716 51.7083 71.8419 51.7083C78.3923 51.7083 83.2217 50.1562 86.6458 46.9501C89.8436 43.9561 91.6739 40.2097 91.6631 36.6806C91.6525 33.24 90.0352 31.1275 86.466 29.8919L85.0904 29.4158L85.7649 29.0828C86.136 28.8996 86.9508 28.4164 87.5758 28.0091C90.856 25.8711 92.5187 23.2576 92.6915 19.9684C92.8145 17.6243 92.158 16.0085 90.3954 14.3168C88.7367 12.725 87.0673 12.0612 83.393 11.5322C81.3673 11.2406 77.936 11.1411 76.0607 11.3195ZM0.290303 11.9598C0.255455 11.9935 0.308182 13.5305 0.407273 15.3752C1.46606 35.0669 2.27273 50.3532 2.27273 50.7263C2.27273 50.9544 2.76682 50.9737 8.59849 50.9716C12.0777 50.9703 15.0061 50.9189 15.1059 50.8573C15.2059 50.7958 15.8132 49.6564 16.4555 48.3255C19.3417 42.3456 25.8191 29.0555 26.3297 28.0661C26.64 27.4648 26.9696 26.9501 27.0618 26.9223C27.1671 26.8906 27.2671 27.2436 27.3302 27.8685C27.3853 28.4167 27.6002 30.3197 27.8078 32.0972C28.4178 37.3208 29.2267 44.3771 29.5508 47.3013C29.7165 48.796 29.8884 50.2337 29.9329 50.4964L30.0138 50.9738H36.4128H42.8117L44.0802 47.9991C46.5781 42.1414 46.8597 41.4785 47.4969 39.9563C47.852 39.108 48.807 36.8604 49.619 34.9617C52.0317 29.3206 54.3294 23.92 55.6819 20.7124C56.3802 19.0561 57.4922 16.445 58.1529 14.9099C58.8137 13.3748 59.3252 12.0691 59.2894 12.0086C59.2538 11.9481 56.5037 11.8984 53.1782 11.8984C47.4005 11.8984 47.125 11.9108 46.9784 12.1765C46.894 12.3296 46.5549 13.1723 46.225 14.0495C45.895 14.9268 45.241 16.6029 44.7716 17.7744C44.302 18.9459 43.5891 20.7638 43.1873 21.8142C42.0808 24.7063 40.3705 29.0842 39.5346 31.1638C39.124 32.1854 38.7879 33.0943 38.7879 33.1836C38.7879 33.2728 38.7273 33.3458 38.6532 33.3458C38.4588 33.3458 38.4126 33.0185 37.6578 26.2946C36.5934 16.8141 36.1937 13.3499 36.0814 12.6329L35.9779 11.9719L29.8306 11.9335L23.6834 11.8952L21.5132 16.3405C20.3196 18.7855 18.9593 21.5791 18.4905 22.5487C14.6118 30.5694 13.2447 33.341 13.1661 33.3432C13.0302 33.3471 12.895 29.007 12.7821 21.0062C12.7268 17.0877 12.6665 13.7494 12.648 13.5878C12.6296 13.4262 12.6058 12.98 12.5952 12.5962L12.5758 11.8984H6.4647C3.10349 11.8984 0.325 11.926 0.290303 11.9598ZM46.5152 52.5898C46.3902 52.6681 45.9644 52.6918 45.5693 52.6421C44.7637 52.5412 44.394 52.7268 44.394 53.232C44.3941 53.5221 44.4717 53.5441 45.4712 53.5387C46.6058 53.5325 46.9697 53.331 46.9697 52.7085C46.9697 52.4111 46.8502 52.3798 46.5152 52.5898ZM19.4249 54.3625C18.1687 54.9824 17.3759 56.4505 17.3677 58.1719C17.362 59.41 17.5837 59.9616 18.3324 60.5724C19.6541 61.6506 21.6664 60.9482 22.5974 59.0834C23.0564 58.1643 23.1587 56.4834 22.8096 55.5972C22.2885 54.2744 20.7444 53.7111 19.4249 54.3625ZM38.5509 54.2663C37.4134 54.7465 36.5152 56.3819 36.5152 57.9727C36.5152 58.8071 36.987 60.2314 37.364 60.5348C37.5044 60.6478 37.5622 60.8487 37.5109 61.0466C37.4443 61.3044 37.5055 61.3917 37.8043 61.4644C38.4728 61.627 38.1891 62.1382 37.4305 62.1382C37.2808 62.1382 37.0741 62.2366 36.9712 62.3568C36.5269 62.8759 38.1047 62.8006 38.6449 62.2769C38.8069 62.1198 38.9397 61.8096 38.94 61.5873C38.9405 61.2468 39.0479 61.1406 39.6238 60.9109C40.3531 60.6201 41.1287 59.8363 41.2852 59.2321C41.3952 58.807 41.2953 58.6868 40.7238 58.5563C40.3567 58.4725 40.277 58.527 40.0022 59.0492C39.8076 59.4189 39.5538 59.6701 39.3164 59.7279C37.8569 60.0831 37.2899 58.4287 38.1852 56.4275C38.7537 55.1568 39.8347 54.9095 40.4441 55.9107C40.7732 56.4514 40.8497 56.4796 41.4209 56.269C41.7634 56.1428 41.7875 56.0827 41.6634 55.6634C41.2603 54.3008 39.9075 53.6935 38.5509 54.2663ZM50.1479 54.3892C47.9287 55.4778 47.2603 59.4054 49.0803 60.6619C51.3678 62.241 54.3167 59.3664 53.642 56.2151C53.2523 54.395 51.7435 53.6065 50.1479 54.3892ZM66.0714 54.3161C65.3284 54.6833 64.9564 55.2439 64.939 56.0226C64.9204 56.8589 65.2841 57.3553 66.376 57.9826C67.5011 58.6291 67.6001 58.73 67.5466 59.1761C67.5155 59.4367 67.3541 59.6328 67.0581 59.7697C66.4382 60.0566 65.8984 59.8414 65.5608 59.1732C65.3045 58.6652 65.2554 58.6383 64.7275 58.7172C64.4192 58.7633 64.1505 58.813 64.1305 58.8277C64.1107 58.8422 64.2129 59.2068 64.3578 59.6378C64.7208 60.7174 65.1863 61.0303 66.4352 61.0338C67.1834 61.0359 67.4976 60.9668 67.8293 60.7272C68.434 60.2908 68.8054 59.608 68.8152 58.9146C68.826 58.1587 68.4867 57.6601 67.6264 57.1673C66.4032 56.4665 66.1544 56.2117 66.2673 55.7755C66.4555 55.0487 67.4701 55.0657 67.9195 55.8033C68.1463 56.1755 68.2361 56.2142 68.6719 56.1265C69.0872 56.0429 69.1592 55.969 69.1198 55.6671C69.0135 54.8533 67.989 54.0591 67.0455 54.0591C66.7955 54.0591 66.3572 54.1748 66.0714 54.3161ZM74.0216 54.1658C73.1199 54.3879 72.5758 55.139 72.5758 56.1616C72.5758 56.9982 72.934 57.439 74.1063 58.0447C75.1904 58.605 75.4232 58.927 75.0952 59.4123C74.6143 60.1241 73.4437 59.9917 73.1567 59.1932C73.0114 58.7893 72.9393 58.7483 72.4446 58.7884C71.9148 58.8313 71.8958 58.8523 71.9407 59.3471C72.1189 61.3085 75.2552 61.7532 76.2032 59.9516C76.8528 58.7172 76.518 57.8468 75.0861 57.0484C73.9146 56.395 73.5923 55.8897 74.0955 55.4947C74.6086 55.0919 75.0843 55.1681 75.5208 55.7229C75.844 56.1337 75.981 56.2011 76.3769 56.1447C76.8131 56.0827 76.8414 56.0439 76.7552 55.6261C76.531 54.5389 75.261 53.8605 74.0216 54.1658ZM102.119 54.3283C101.18 54.8076 100.791 56.0658 101.293 57.0052C101.426 57.255 101.877 57.6329 102.354 57.8937C103.435 58.4854 103.843 58.9702 103.592 59.3644C103.167 60.0322 102.158 59.9199 101.743 59.1585C101.483 58.6816 101.375 58.6086 100.985 58.6443C100.593 58.6803 100.524 58.7522 100.483 59.1673C100.42 59.7974 100.916 60.569 101.578 60.874C103.161 61.6022 104.999 60.5831 105.053 58.9471C105.082 58.0482 104.764 57.6272 103.534 56.9381C102.447 56.3293 102.209 55.9055 102.725 55.5001C103.226 55.1065 103.562 55.1725 104.064 55.763C104.464 56.233 104.568 56.2807 104.997 56.1894C105.428 56.0975 105.469 56.0448 105.381 55.6969C105.032 54.3177 103.444 53.6516 102.119 54.3283ZM2.61682 55.491C2.27061 56.198 1.54015 57.6829 0.993637 58.7908C0.447121 59.8987 0 60.8406 0 60.8841C0 60.9275 0.271364 60.963 0.603031 60.963C1.14909 60.963 1.23379 60.9101 1.50106 60.4023C1.93955 59.5688 2.12409 59.4737 3.20652 59.5234L4.16667 59.5675L4.33016 60.2285C4.48364 60.8496 4.52713 60.8923 5.04985 60.9351C5.35576 60.9602 5.60607 60.9267 5.60607 60.8606C5.60607 60.7945 5.43667 59.5511 5.22985 58.0974C5.02288 56.6437 4.8141 55.1732 4.76591 54.8299L4.67834 54.2056H3.96243H3.24637L2.61682 55.491ZM7.52107 54.3195C7.36879 54.5585 6.6491 58.425 6.63243 59.0947C6.62001 59.5854 6.70576 59.9177 6.91667 60.1965C7.86925 61.4563 10.1229 61.3784 11.0077 60.0549C11.3205 59.5871 11.7294 58.0202 12.1506 55.6746C12.2594 55.0686 12.3485 54.5122 12.3485 54.438C12.3485 54.364 12.0761 54.2979 11.743 54.2911L11.1374 54.2791L10.6717 56.556C10.4155 57.8083 10.1547 58.9823 10.0923 59.1651C9.93486 59.6247 9.18198 59.9775 8.61561 59.8568C7.83455 59.6906 7.80122 59.3599 8.30395 56.7626C8.55258 55.4775 8.72516 54.3764 8.68728 54.3158C8.59637 54.1702 7.61425 54.1734 7.52107 54.3195ZM13.9932 54.3114C13.1853 54.3585 13.0503 54.4086 12.9726 54.6896C12.797 55.3241 12.8508 55.3808 13.6274 55.3808C14.0393 55.3808 14.4058 55.4303 14.442 55.491C14.4783 55.5517 14.349 56.4275 14.1546 57.4374C13.96 58.4473 13.7546 59.6582 13.6979 60.1285L13.5949 60.9831L14.1838 60.9364L14.7727 60.8896L15.3326 58.1719C15.6405 56.6772 15.8961 55.4412 15.9008 55.4252C15.9053 55.4093 16.2671 55.3763 16.7046 55.3517L17.5 55.3074V54.7932V54.2791L16.2121 54.268C15.5038 54.262 14.5053 54.2815 13.9932 54.3114ZM24.4703 54.3892C24.4087 54.5617 23.3334 60.7002 23.3334 60.8799C23.3334 61.0049 24.3655 60.9799 24.445 60.8528C24.4831 60.7922 24.6696 59.8338 24.8597 58.7228C25.0499 57.6119 25.2596 56.7029 25.3258 56.7029C25.392 56.7029 25.4652 57.645 25.4884 58.7962L25.5303 60.8896L26.0928 60.9348C26.7323 60.9862 26.6762 61.0742 27.6649 58.4711C27.9574 57.7007 28.2355 56.971 28.2828 56.8498C28.5108 56.2647 28.4455 57.1101 28.1267 58.8679C27.9328 59.9375 27.8091 60.8464 27.8517 60.8878C28.0053 61.0366 28.754 60.959 28.8981 60.7794C28.9791 60.6785 29.2308 59.3728 29.4573 57.8781C29.684 56.3834 29.9062 54.9457 29.9515 54.683L30.0338 54.2056H29.1185H28.2032L27.435 56.1171C27.0124 57.1683 26.6667 58.0938 26.6667 58.1737C26.6667 58.2534 26.5985 58.3188 26.5152 58.3188C26.4258 58.3188 26.3631 57.7916 26.3623 57.0334C26.3617 56.3265 26.3181 55.4011 26.2655 54.9768L26.1699 54.2056H25.3529C24.8353 54.2056 24.5118 54.2729 24.4703 54.3892ZM32.6743 54.6752C32.5558 54.9422 31.8375 56.3959 31.0779 57.906C30.3184 59.416 29.697 60.7215 29.697 60.8073C29.697 60.8929 29.9684 60.963 30.3002 60.963C30.8703 60.963 30.922 60.925 31.2471 60.2652L31.5909 59.5675H32.7247H33.8585L33.9522 60.1258C34.0037 60.4328 34.1158 60.7521 34.2014 60.8351C34.352 60.9811 35.2387 60.9646 35.2162 60.8161C35.2102 60.7757 35.0829 59.8502 34.9334 58.7595C34.784 57.6688 34.5834 56.2145 34.4876 55.5277L34.3134 54.2791L33.6015 54.2346C32.9237 54.1921 32.8793 54.2131 32.6743 54.6752ZM44.4787 54.6748C44.3631 54.9419 43.6491 56.4088 42.8919 57.9347C42.1347 59.4607 41.5152 60.7662 41.5152 60.8359C41.5152 60.9059 41.7806 60.963 42.1052 60.963C42.6579 60.963 42.7178 60.9189 43.0522 60.2652L43.4091 59.5675L44.5169 59.542C45.7053 59.5146 45.6706 59.4915 45.8284 60.4121C45.9152 60.9185 45.9632 60.963 46.4211 60.963C46.695 60.963 46.955 60.9283 46.9988 60.8857C47.0426 60.8433 47.0149 60.4694 46.9372 60.055C46.8594 59.6405 46.6475 58.1713 46.4661 56.7902L46.1364 54.2791L45.4125 54.2341C44.72 54.1911 44.6796 54.2102 44.4787 54.6748ZM57.5778 54.5361C57.4597 54.8089 57.1341 56.5025 56.4338 60.4856L56.3499 60.963H58.6296C60.6988 60.963 60.9093 60.9394 60.9113 60.7059C60.9123 60.5646 60.9544 60.3 61.0046 60.1183C61.0952 59.7906 61.0822 59.7878 59.4741 59.7878H57.8522L57.9523 59.1635C58.1455 57.9589 58.0479 58.025 59.6363 58.025C60.6513 58.025 61.0872 57.9714 61.1285 57.8414C61.1607 57.7405 61.2279 57.476 61.2782 57.2538L61.3694 56.8498H59.8352C58.5676 56.8498 58.3154 56.8134 58.384 56.6399C58.4298 56.5244 58.5128 56.1939 58.5687 55.9054L58.6702 55.3808H60.1508C61.5581 55.3808 61.636 55.3645 61.7228 55.0503C61.9604 54.1908 61.9946 54.2056 59.7696 54.2056C57.7884 54.2056 57.7161 54.2165 57.5778 54.5361ZM77.9554 54.3525C77.9301 54.3929 77.8854 54.6243 77.8563 54.8667C77.8037 55.3022 77.8122 55.3078 78.5986 55.3517C79.0361 55.3763 79.394 55.4547 79.394 55.5264C79.394 55.633 79.0634 57.5869 78.5549 60.4856C78.4722 60.9576 78.4781 60.963 79.0716 60.963C79.668 60.963 79.6729 60.9583 79.8317 60.2408C79.9196 59.8436 80.1302 58.7363 80.2998 57.7803C80.7693 55.1337 80.6361 55.3808 81.5939 55.3808C82.4155 55.3808 82.4243 55.3761 82.4243 54.9401C82.4243 54.6977 82.4073 54.4627 82.3864 54.4177C82.339 54.3155 78.0184 54.252 77.9554 54.3525ZM83.1951 54.9768C82.8879 56.4591 82.1227 60.5974 82.122 60.7794C82.1214 60.9179 82.6595 60.963 84.3093 60.963C85.5128 60.963 86.5275 60.9135 86.5642 60.8528C86.601 60.7922 86.6786 60.5279 86.7367 60.2652L86.8423 59.7878H85.2199H83.5974L83.7017 59.025C83.7592 58.6056 83.8402 58.2089 83.8817 58.1436C83.9233 58.0783 84.5931 58.025 85.3701 58.025C86.7072 58.025 86.7878 58.0072 86.8743 57.6945C87.1039 56.8638 87.082 56.8498 85.5507 56.8498H84.1317L84.2563 56.2255C84.3248 55.8822 84.3837 55.5517 84.3873 55.491C84.391 55.4303 85.068 55.3808 85.8914 55.3808C87.3163 55.3808 87.3934 55.3648 87.4804 55.0503C87.7184 54.1887 87.7586 54.2056 85.4654 54.2056H83.3549L83.1951 54.9768ZM88.6992 54.3726C88.6351 54.4734 87.5758 60.5366 87.5758 60.8027C87.5758 60.988 88.5802 61.0231 88.6958 60.8418C88.7383 60.7753 88.8843 59.9324 89.0202 58.9688C89.1563 58.0053 89.3089 57.1179 89.3595 56.9967C89.4101 56.8755 89.5239 57.7018 89.6122 58.833L89.7728 60.8896L90.3214 60.9341L90.8699 60.9784L91.5667 59.2447C91.9501 58.291 92.3358 57.3199 92.424 57.0865C92.741 56.2475 92.7148 56.8304 92.3455 58.8347C92.1389 59.9566 91.9698 60.8943 91.9698 60.9186C91.9698 61.0196 93.182 60.9539 93.1843 60.8528C93.1855 60.7922 93.4186 59.3214 93.7019 57.5843C93.9852 55.8472 94.1643 54.3726 94.0999 54.3074C94.0355 54.2422 93.6222 54.2091 93.1816 54.234L92.3804 54.2791L91.5871 56.2563C91.1507 57.344 90.7345 58.253 90.662 58.2765C90.5896 58.3001 90.5511 57.4268 90.5764 56.336C90.6018 55.2451 90.5677 54.3485 90.5007 54.3437C89.6719 54.2836 88.7463 54.2984 88.6992 54.3726ZM95.4548 57.5302C94.5381 59.3589 93.788 60.8829 93.788 60.9173C93.788 60.9517 94.0775 60.9596 94.4314 60.9347C94.9955 60.8951 95.1046 60.828 95.3172 60.3899C95.6721 59.6587 95.9937 59.494 97.0677 59.494H98.0166L98.1112 60.0449C98.2615 60.922 98.2948 60.963 98.859 60.963C99.5274 60.963 99.5239 61.1206 98.9399 57.2718C98.6901 55.6258 98.4855 54.2626 98.4854 54.2423C98.4851 54.2221 98.1783 54.2056 97.8033 54.2056H97.1217L95.4548 57.5302ZM70.3789 54.9768C70.1563 56.3355 69.529 59.7449 69.4073 60.2582C69.3364 60.5573 69.3158 60.8381 69.3614 60.8825C69.5257 61.0417 70.4657 60.959 70.5335 60.7794C70.5717 60.6785 70.8433 59.3398 71.1367 57.8047C71.4304 56.2696 71.7051 54.8647 71.7472 54.683C71.8179 54.3788 71.7707 54.3525 71.1526 54.3525H70.4813L70.3789 54.9768ZM20.1946 55.3508C19.6965 55.4237 19.1605 56.1316 18.7932 57.2016C18.5224 57.9905 18.4944 58.2482 18.627 58.7257C18.8356 59.4771 19.2721 59.8466 19.9509 59.8466C20.9279 59.8466 21.5546 58.86 21.7609 56.9967C21.8362 56.3177 21.8 56.1271 21.5347 55.8026C21.2112 55.4068 20.7877 55.2642 20.1946 55.3508ZM50.6478 55.4224C49.7813 55.8983 49.1079 57.5471 49.324 58.6642C49.5117 59.6342 50.4305 60.0859 51.2993 59.635C52.3035 59.1138 52.8203 56.5614 52.0834 55.7617C51.6667 55.3097 51.0981 55.1752 50.6478 55.4224ZM3.14288 57.0487C2.83091 57.6832 2.57576 58.2286 2.57576 58.2606C2.57576 58.369 3.92106 58.3195 3.98894 58.2086C4.02606 58.148 3.97849 57.6027 3.88334 56.9967L3.71015 55.895L3.14288 57.0487ZM32.7646 57.0336C32.4934 57.6193 32.2719 58.148 32.2722 58.2086C32.2725 58.2693 32.5891 58.3188 32.9756 58.3188H33.6787L33.5831 57.5476C33.5305 57.1233 33.4868 56.5946 33.4862 56.3724C33.4841 55.721 33.29 55.8988 32.7646 57.0336ZM44.5828 57.0336C44.3116 57.6193 44.09 58.148 44.0903 58.2086C44.091 58.3238 45.3552 58.3663 45.4699 58.2549C45.5613 58.1665 45.2628 55.9684 45.1594 55.9686C45.1134 55.9687 44.854 56.4479 44.5828 57.0336ZM97.0528 56.8021C96.8363 57.2607 96.6183 57.7936 96.5684 57.9867C96.4818 58.321 96.5086 58.3353 97.1404 58.2915C97.7918 58.2461 97.8028 58.2365 97.7848 57.7312C97.744 56.5857 97.6648 55.9684 97.5586 55.9684C97.4971 55.9684 97.2693 56.3436 97.0528 56.8021Z" fill="white"/>
</svg>
