<svg width="137" height="33" viewBox="0 0 137 33" fill="none" xmlns="http://www.w3.org/2000/svg">
<path fill-rule="evenodd" clip-rule="evenodd" d="M79.7148 2.42854L79.7508 4.26724L81.7145 4.94944C82.7945 5.32458 84.2672 5.83334 84.9872 6.08001C85.7072 6.32668 86.5296 6.61668 86.8148 6.72448L87.3334 6.92047L86.9094 7.07954C86.6761 7.16702 84.9553 7.74632 83.0854 8.36685L79.6854 9.49497V11.363V13.2309L79.9799 13.1705C80.3322 13.0983 80.3335 13.098 86.2963 10.9327C88.8883 9.99147 91.4959 9.05302 92.0909 8.84746L93.1727 8.47348L93.1381 6.90435L93.1036 5.33521L91.5327 4.76607C90.6687 4.45306 89.7556 4.12849 89.5036 4.04486C88.6715 3.76841 82.3922 1.50984 81.1648 1.04546C80.5025 0.794935 79.8972 0.589844 79.8197 0.589844C79.7235 0.589844 79.6902 1.1737 79.7148 2.42854ZM87.2127 14.525C86.4927 14.7972 85.5355 15.149 85.0854 15.3069L84.2672 15.5939V16.9048V18.2156L83.3414 18.2499L82.4156 18.2842V19.7442V21.2041L83.3354 21.2383L84.255 21.2725L84.2939 25.5013C84.3317 29.6307 84.3397 29.7439 84.6339 30.3141C85.4568 31.9093 87.146 32.5828 89.9667 32.4403C91.9414 32.3405 91.8599 32.42 91.8599 30.5926V29.0692L91.4345 29.1661C91.2004 29.2194 90.6716 29.2629 90.2592 29.2629C89.6143 29.2629 89.4585 29.2176 89.1465 28.9393L88.7836 28.6155L88.7456 24.9391L88.7075 21.2625H90.2184H91.729V19.7442V18.2258H90.2236H88.7181V16.1235C88.7181 14.9673 88.674 14.0232 88.6199 14.0257C88.5659 14.0281 87.9327 14.2528 87.2127 14.525ZM6.76896 17.9545C4.97432 18.1568 3.433 18.7434 2.49373 19.5812C1.82622 20.1768 1.19916 21.2887 1.06799 22.1093L0.979237 22.664H3.09277C4.99239 22.664 5.21323 22.6434 5.2745 22.4596C5.50123 21.7803 5.90378 21.2773 6.37165 21.0892C7.10094 20.7958 8.10384 20.7772 8.69922 21.0461C9.48179 21.3994 9.70656 21.7703 9.75984 22.7965L9.80618 23.6882L7.53491 23.7454C5.73137 23.7909 5.06544 23.8545 4.30211 24.0544C3.28324 24.3211 2.2213 24.8667 1.63823 25.4228C1.02126 26.0111 0.576037 27.0534 0.510582 28.0625C0.326262 30.9043 2.56507 32.7319 6.03155 32.5696C6.98457 32.525 7.2867 32.4552 8.12256 32.0866C8.65994 31.8497 9.27927 31.4732 9.49894 31.25L9.89847 30.8441L9.93736 31.5718L9.97623 32.2996H12.1362H14.2962L14.3322 27.511C14.3524 24.8432 14.3125 22.398 14.2423 21.9898C13.8134 19.496 11.8397 18.134 8.40532 17.9619C7.75732 17.9294 7.02096 17.9261 6.76896 17.9545ZM23.4599 17.9448C19.9929 18.3544 17.8966 19.978 16.9606 22.9783C16.5743 24.2162 16.5737 26.4037 16.9591 27.703C17.7001 30.2014 19.3936 31.7587 22.0213 32.3583C23.9676 32.8024 26.4179 32.5727 28.0363 31.7942C28.9206 31.369 29.9212 30.4506 30.4159 29.6101C30.8477 28.8765 31.3139 27.4216 31.2011 27.1595C31.1499 27.0401 30.6985 27.0096 29.2067 27.0246L27.2786 27.0438L26.9401 27.7613C26.5051 28.6835 26.1745 29.0338 25.4699 29.319C23.9871 29.9193 22.343 29.3596 21.7054 28.0373C21.1414 26.8675 21.0508 24.5154 21.5135 23.0541C21.7604 22.2743 22.5539 21.462 23.3253 21.1992C24.0483 20.9528 25.0473 21.0275 25.6776 21.3751C26.1278 21.6233 26.7981 22.6177 26.7981 23.0373C26.7981 23.2319 26.9637 23.248 28.9581 23.248C31.4186 23.248 31.265 23.333 30.9228 22.161C30.3341 20.1444 28.7063 18.6906 26.4708 18.1845C25.6207 17.9921 24.0906 17.8703 23.4599 17.9448ZM39.4308 17.9862C36.1506 18.4576 34.1268 20.1268 33.1927 23.1312C32.9287 23.9804 32.9766 26.8855 33.2698 27.803C34.2455 30.8574 36.8834 32.596 40.5318 32.5896C43.3361 32.5846 45.6875 31.4388 46.738 29.5654C47.1899 28.7594 47.5681 27.4717 47.4404 27.1744C47.3786 27.031 47.0351 27.0049 45.4333 27.0226L43.5008 27.0438L43.3458 27.5208C43.1365 28.1658 42.8555 28.6276 42.4851 28.9361C41.7293 29.5658 40.4008 29.7306 39.3877 29.3204C38.0877 28.794 37.5326 27.588 37.5326 25.2899C37.5326 22.4824 38.5753 21.0927 40.6847 21.0888C41.4281 21.0875 41.6115 21.1322 42.0277 21.4153C42.512 21.7449 42.9194 22.3299 43.0802 22.9268L43.1667 23.248H45.3044H47.4421L47.3324 22.6239C46.8488 19.8721 44.5596 18.1502 41.1212 17.9518C40.5515 17.919 39.7908 17.9344 39.4308 17.9862ZM55.9908 17.9447C52.4758 18.4636 50.3888 20.1005 49.5768 22.9755C49.2201 24.2389 49.2155 26.4861 49.5674 27.7135C50.5124 31.0102 53.3232 32.7426 57.4308 32.5603C59.7528 32.4573 61.553 31.7301 62.7477 30.4127C63.26 29.8476 63.7709 28.8655 63.9364 28.1272L64.009 27.803H61.9697H59.9304L59.678 28.312C59.1063 29.465 57.4281 29.975 55.8174 29.4854C54.7689 29.1667 54.0784 28.1971 53.8498 26.7227L53.7819 26.2847H58.8791H63.9763V24.9491C63.9763 23.312 63.7244 22.1657 63.1239 21.0704C62.3463 19.6519 60.7125 18.5243 58.8708 18.1352C58.1791 17.9891 56.4601 17.8753 55.9908 17.9447ZM74.723 18.0076C73.5405 18.1827 72.5573 18.651 71.7612 19.4181L71.0454 20.1079V19.1669V18.2258H68.8189H66.5924L66.6262 25.2627L66.6599 32.2996L68.8472 32.3316L71.0344 32.3636L71.0726 27.6014L71.1108 22.8392L71.4655 22.301C71.8757 21.6784 72.1802 21.4788 73.0411 21.2679C74.0923 21.0103 75.2213 21.2901 75.706 21.9281C75.9379 22.2333 75.9589 22.5926 76.0199 27.2774L76.0854 32.2996H78.3108H80.5363L80.5749 27.5694C80.6152 22.6169 80.5362 21.5057 80.0632 20.3777C79.5406 19.1316 78.2526 18.2289 76.6705 17.9998C75.7203 17.8623 75.7038 17.8624 74.723 18.0076ZM128.02 18.0039C125.806 18.3019 123.959 19.4114 122.888 21.0873C121.359 23.4786 121.379 27.3476 122.931 29.7111C124.101 31.4921 126.55 32.5857 129.377 32.5898C132.871 32.595 135.561 31.0011 136.309 28.4816C136.399 28.1804 136.439 27.9044 136.399 27.8684C136.358 27.8324 135.455 27.803 134.392 27.803H132.458L132.09 28.4116C131.797 28.8967 131.579 29.0863 131.02 29.346C129.582 30.0129 127.713 29.6444 126.996 28.5525C126.65 28.0254 126.293 27.0127 126.291 26.5475L126.289 26.2847H131.395H136.5L136.499 25.0875C136.496 21.7574 135.41 19.8202 132.891 18.6513C131.619 18.0613 129.594 17.7922 128.02 18.0039ZM119.155 18.1552C117.762 18.4108 116.937 18.9402 116.124 20.1011L115.751 20.6333V19.4587V18.2842H113.525H111.3L111.264 25.0583C111.244 28.7841 111.26 31.9519 111.3 32.098C111.372 32.3628 111.379 32.3635 113.561 32.3316L115.751 32.2996L115.816 28.095C115.878 24.126 115.897 23.8676 116.15 23.4834C116.741 22.5857 117.75 22.1645 119.706 21.9991L120.519 21.9303L120.492 19.9905C120.46 17.767 120.555 17.8981 119.155 18.1552ZM94.3472 23.5861C94.3472 28.6567 94.3618 28.9881 94.6151 29.7201C94.9902 30.8038 95.7459 31.6011 96.8934 32.1244C97.76 32.5195 97.8383 32.5331 99.2431 32.5312C100.555 32.5294 100.773 32.4976 101.482 32.2042C102.301 31.8652 103.103 31.2628 103.531 30.6645L103.782 30.3141L103.757 31.3068L103.732 32.2996H105.945H108.158L108.192 25.2627L108.226 18.2258H106.007H103.789L103.748 22.9852C103.701 28.4367 103.72 28.3435 102.538 29.0585C101.998 29.385 101.798 29.4381 101.105 29.4381C100.133 29.4381 99.4992 29.1721 99.1254 28.6074C98.8763 28.2311 98.8618 27.9689 98.8256 23.2188L98.7875 18.2258H96.5675H94.3472V23.5861ZM55.4897 21.0457C54.8617 21.323 54.348 21.947 54.0701 22.7702C53.771 23.6561 53.5826 23.5984 56.7763 23.5984C58.3603 23.5984 59.6563 23.553 59.6563 23.4975C59.6563 23.045 59.3293 22.0621 59.0563 21.6941C58.4099 20.8225 56.6993 20.5115 55.4897 21.0457ZM127.826 21.1396C127.17 21.5107 126.76 22.0898 126.477 23.0436L126.313 23.5984H129.227H132.14L132.025 22.9432C131.889 22.1672 131.681 21.7805 131.177 21.3643C130.599 20.8871 130.302 20.7953 129.334 20.7953C128.563 20.7953 128.348 20.8445 127.826 21.1396ZM6.88717 26.403C5.60334 26.5968 5.04973 27.051 4.9632 27.9815C4.91241 28.5276 4.95364 28.6909 5.23915 29.0758C5.5138 29.4462 5.69446 29.5538 6.23524 29.6695C7.44707 29.9289 8.81795 29.5643 9.44029 28.817C9.65786 28.5557 9.7279 28.2607 9.77987 27.386L9.84533 26.2843L8.66714 26.2982C8.01914 26.3059 7.21811 26.353 6.88717 26.403Z" fill="white"/>
</svg>
