<svg width="97" height="98" viewBox="0 0 97 98" fill="none" xmlns="http://www.w3.org/2000/svg">
<path fill-rule="evenodd" clip-rule="evenodd" d="M49.9483 0.507614C49.6445 0.635292 47.9486 1.54309 46.1798 2.52493C34.0133 9.27898 29.9042 11.5146 29.6559 11.5146C29.5158 11.5146 29.4206 10.6122 29.4206 9.28155C29.4206 6.6535 29.0777 5.63722 27.9626 4.96112C27.2273 4.51506 26.7892 4.48812 20.2347 4.48812C10.3393 4.48812 10.9434 3.86402 11.077 13.9527L11.1665 20.7248L7.10466 23.5693C2.34634 26.9016 1.58885 27.585 0.733854 29.3165L0.0962555 30.6078L0.0175862 39.5101C-0.0257526 44.4064 0.0138179 59.4183 0.105442 72.8697L0.271966 97.3271L28.6841 97.1751C44.3108 97.0915 65.7081 96.9549 76.2336 96.8719L95.3709 96.7208V95.1152V93.5097H92.923C90.908 93.5097 90.4499 93.4441 90.3321 93.1391C90.0692 92.458 90.1771 89.1642 90.4718 88.8711C90.6468 88.6971 91.5206 88.5886 92.7682 88.5865C93.8757 88.5844 94.9206 88.4953 95.0902 88.3885C95.2979 88.2573 95.3745 87.7824 95.3257 86.9278L95.2532 85.6616H89.0114H82.7697L82.6972 86.9278C82.6484 87.7824 82.725 88.2573 82.9327 88.3885C83.1023 88.4953 84.1646 88.5844 85.2935 88.5865C87.0796 88.5895 87.3778 88.6488 87.59 89.0431C87.8936 89.6074 87.9051 92.8005 87.605 93.2724C87.3811 93.6247 75.7385 93.7508 17.7302 94.0277L3.56666 94.0954L3.42392 92.2212C3.34525 91.1904 3.26776 77.1095 3.25151 60.9305C3.2223 31.5605 3.22301 31.5123 3.71269 30.5579C4.31802 29.3774 4.67509 29.0981 12.1675 23.9453L14.3462 22.4467V15.1065V7.76628H20.1984H26.0508L26.2046 10.6143C26.2894 12.1807 26.3586 14.2476 26.3586 15.2077C26.3586 16.7724 26.4013 16.9371 26.7708 16.7991C27.1385 16.6618 45.2207 6.75001 49.2853 4.45767C50.1712 3.9582 50.9393 3.5494 50.9925 3.5494C51.1025 3.5494 66.5862 12.8685 71.2284 15.7285C72.0057 16.2076 74.1255 17.4928 75.9391 18.5849C77.7528 19.6771 80.7735 21.5009 82.6519 22.6378C84.5303 23.7748 86.7818 25.1371 87.655 25.6651C88.5284 26.1931 89.2439 26.7043 89.2449 26.8009C89.246 26.8974 77.8632 26.9766 63.9496 26.9766H38.6525L36.6714 24.8451L34.6903 22.714L30.8432 22.4905C27.0087 22.2679 26.9941 22.2649 26.3473 21.5764C25.4502 20.621 24.2355 20.6187 23.2785 21.5703C22.3528 22.491 22.3528 23.4969 23.2785 24.4176C24.1985 25.3327 25.1447 25.3254 26.21 24.3951L27.0198 23.6879L30.399 23.8375L33.778 23.9873L35.1324 25.2987C35.8774 26.0203 36.4867 26.6929 36.4867 26.7936C36.4867 26.8941 33.0351 26.9766 28.8164 26.9766H21.1464L20.5446 26.2653C18.327 23.644 14.3479 25.0033 14.3479 28.3822C14.3479 29.8269 15.0361 30.8746 16.3704 31.4617C17.7801 32.0818 18.9418 31.8883 20.1906 30.8252L21.1339 30.0221H34.4632C41.7943 30.0221 47.7925 30.1013 47.7922 30.1978C47.7922 30.2943 46.8119 30.7699 45.6135 31.2541L43.435 32.1348L38.0672 32.1326C32.9621 32.1305 32.6658 32.1062 32.0209 31.6318C30.7794 30.7188 29.3721 31.6756 29.7506 33.1754C29.9814 34.0902 30.9118 34.4273 31.8506 33.9368C32.4812 33.6074 33.5187 33.535 38.371 33.4813L44.1417 33.4179L47.9102 31.7787L51.6788 30.1392L73.9371 30.0814L96.1953 30.0237L96.6075 29.5285C97.1836 28.8362 97.121 27.983 96.4495 27.3753C96.136 27.0916 94.6257 26.1086 93.0931 25.1907C88.8605 22.6556 67.2895 9.63343 64.6334 8.00946C63.7265 7.45517 62.5076 6.71534 61.9247 6.36534C61.3417 6.01534 58.9042 4.5399 56.508 3.08648C52.0887 0.40594 51.1081 0.0203289 49.9483 0.507614ZM82.6519 39.9786V44.5469H89.0114H95.3709V39.9786V35.4103H94.1932H93.0156V38.4559V41.5014H91.6023H90.1891V38.8073V36.1131H89.0114H87.8337V38.8073V41.5014H86.4205H85.0073V38.4559V35.4103H83.8296H82.6519V39.9786ZM45.9082 39.6272C45.9082 41.8177 45.8288 43.6087 45.7315 43.6073C45.6343 43.6059 45.0346 43.4477 44.3986 43.2559C43.7627 43.064 42.3624 42.907 41.2867 42.907C37.6288 42.907 35.3246 44.3169 33.7267 47.5325C32.8952 49.2059 32.8349 49.4739 32.7525 51.8759C32.6484 54.9013 32.993 56.7982 33.9076 58.2324C35.2871 60.3961 38.0954 61.5494 41.5434 61.3686C43.3003 61.2765 44.2236 60.9853 46.42 59.8308C46.5072 59.7851 46.6131 59.9908 46.6555 60.2881C46.7309 60.818 46.7954 60.8302 49.8534 60.8942L52.9743 60.9595V48.3021V35.6446H49.4412H45.9082V39.6272ZM11.5198 48.881V60.9459H20.7057H29.8917V58.2518V55.5577H24.2388H18.5859V53.5664V51.5751H23.5322H28.4785V48.881V46.1868H23.5322H18.5859V44.1955V42.2042H24.2388H29.8917V39.5101V36.816H20.7057H11.5198V48.881ZM57.4954 50.1109L57.5673 57.0805L58.2529 58.3113C59.4532 60.4661 61.2953 61.4171 64.2586 61.4117C65.9639 61.4086 67.8112 60.9933 69.2341 60.2933C70.2208 59.8076 70.404 59.8425 70.404 60.5165C70.404 60.9124 70.661 60.9459 73.7015 60.9459H76.9991V52.0436V43.1413H73.47H69.941L69.8781 49.1738L69.8152 55.2063L68.7642 55.7334C67.2631 56.4863 66.0664 56.4334 65.2041 55.5757L64.5156 54.891V49.0161V43.1413H60.9696H57.4236L57.4954 50.1109ZM89.919 46.8932C88.9834 47.3849 88.3319 48.4869 87.6964 50.6523C87.012 52.9845 86.1471 53.6217 85.3361 52.3906C85.0245 51.9178 84.9741 51.4406 85.0817 49.9893C85.1557 48.9932 85.2487 47.9673 85.2883 47.7096C85.3517 47.2999 85.2092 47.2324 84.1544 47.1712C82.7341 47.0892 82.7245 47.1061 82.4979 50.0605C82.2181 53.7084 83.3675 55.7742 85.7879 55.9738C88.0354 56.1591 89.0503 55.2529 89.9576 52.2498C90.7196 49.7285 91.7034 48.8814 92.655 49.9272C93.0139 50.3217 93.0549 50.6823 92.9409 52.4456C92.8677 53.5774 92.735 54.7994 92.6462 55.1611L92.4844 55.8184L93.7511 55.7467L95.0176 55.6748L95.3194 54.2692C95.7584 52.2249 95.5514 49.4957 94.8626 48.2463C93.9071 46.5129 91.7606 45.9254 89.919 46.8932ZM45.2263 48.4251L45.9082 48.7758V52.0228V55.2695L45.2605 55.6978C44.8483 55.9702 44.0375 56.16 43.0309 56.2193C41.5442 56.3069 41.4082 56.272 40.7721 55.6392C39.6252 54.4985 39.5762 51.2665 40.6769 49.3687C41.5288 47.9001 43.4362 47.5044 45.2263 48.4251ZM82.809 57.8224C82.7226 57.9081 82.6519 58.5934 82.6519 59.3452V60.7117L86.4794 60.7131C92.141 60.7149 92.8978 61.0514 92.8978 63.5667C92.8978 64.8522 92.8347 65.023 92.1285 65.6506L91.3593 66.3342H87.0056H82.6519V67.8569V69.3797L86.9505 69.3783C89.3596 69.3776 91.6608 69.2633 92.1858 69.1185C94.3979 68.5075 95.8067 65.8673 95.5245 62.8613C95.2722 60.1745 94.059 58.4962 91.9557 57.9248C90.9454 57.6502 83.0707 57.5621 82.809 57.8224ZM60.0404 75.8222V86.7158H62.9799H65.9196L65.983 81.6204L66.0466 76.525L67.1065 75.9843C68.3631 75.3433 69.5973 75.4256 70.2274 76.1923C70.5913 76.6353 70.6396 77.2798 70.6396 81.705V86.7158H73.7194H76.7993L76.7225 80.7932C76.6472 74.9713 76.6356 74.8509 76.0432 73.7072C75.5489 72.7525 75.1965 72.4194 74.081 71.852C72.8922 71.2473 72.4786 71.1618 70.7969 71.1733C69.5815 71.1815 68.4827 71.334 67.8131 71.587C65.7298 72.3746 65.9288 72.6914 65.9288 68.5872V64.9286H62.9846H60.0404V75.8222ZM16.4072 67.5908L13.4041 68.2882V69.8881V71.4882H12.4619H11.5198V73.7137V75.9393H12.4372H13.3546L13.4406 79.6291C13.52 83.0401 13.5708 83.3978 14.1131 84.3628C14.4355 84.9368 15.1482 85.7199 15.6968 86.103C16.5624 86.7074 16.9527 86.8128 18.6507 86.9016C19.7266 86.9578 21.2121 86.8786 21.9517 86.7261L23.2966 86.4483V84.3426C23.2966 83.0026 23.2111 82.2895 23.0618 82.3813C22.9325 82.4607 22.2897 82.5298 21.6333 82.535C19.6821 82.55 19.528 82.2789 19.528 78.8314V75.9393H21.1768H22.8256V74.8008C22.8256 74.1743 22.8929 73.1728 22.9754 72.5752L23.1252 71.4882H21.3349H19.5445L19.4774 69.1907L19.4103 66.8934L16.4072 67.5908ZM30.424 71.2668C27.8234 71.7236 25.9203 73.1527 24.8634 75.4422C24.1394 77.0104 24.1415 80.9633 24.867 82.5355C25.8247 84.6104 27.9784 86.1789 30.6534 86.7495C32.3144 87.1038 36.9915 86.8718 38.4299 86.3639L39.5487 85.969V84.2086C39.5487 82.5001 39.5331 82.4521 39.0187 82.58C37.3912 82.9848 34.842 83.2275 33.6871 83.0876C31.5713 82.8316 29.8917 81.9039 29.8917 80.9916C29.8917 80.9188 32.2904 80.859 35.2221 80.859H40.5525L40.4418 78.4577C40.3128 75.6568 39.7011 74.1422 38.2024 72.9128C36.4537 71.4781 33.1732 70.7839 30.424 71.2668ZM49.0648 71.2408C46.7392 71.6041 45.4854 72.1612 44.062 73.4631C41.2422 76.0429 41.2194 81.8404 44.0182 84.6242C45.7678 86.3642 47.2197 86.8161 51.09 86.8254C53.5789 86.8313 54.5385 86.7397 55.5063 86.4042L56.7429 85.9753V83.805V81.6345L55.4076 82.0829C54.5936 82.3563 53.4079 82.5338 52.3706 82.538C49.3508 82.5498 48.1886 81.5443 48.1863 78.9174C48.1849 77.3963 48.663 76.5184 49.7927 75.9681C50.8594 75.4483 53.1528 75.3691 54.8223 75.7945C55.6403 76.003 56.4115 76.1736 56.5356 76.1736C56.6673 76.1736 56.733 75.3248 56.6932 74.1326L56.6251 72.0919L55.3014 71.6917C53.6873 71.2035 50.6893 70.9868 49.0648 71.2408ZM86.8289 71.2595C83.6228 72.0649 82.1411 74.4353 82.4941 78.1944C82.8375 81.8535 84.4967 83.399 88.3135 83.6155C92.9145 83.8764 95.1538 82.189 95.5304 78.1768C95.9419 73.7957 93.8508 71.3282 89.5541 71.1241C88.5432 71.0761 87.317 71.137 86.8289 71.2595ZM91.4898 74.6689C93.4471 75.5928 93.5071 79.0593 91.5828 80.0491C89.8007 80.9656 86.5543 80.6201 85.6517 79.4178C84.5513 77.9517 85.0097 75.2836 86.4707 74.6525C87.5377 74.1912 90.4981 74.201 91.4898 74.6689ZM34.2263 75.2688C34.7692 75.5148 35.309 76.5088 35.309 77.2627C35.309 77.5101 34.7181 77.5792 32.6003 77.5792H29.8917V76.9755C29.8917 76.6206 30.1755 76.0895 30.5801 75.687C31.1586 75.1116 31.458 75.0022 32.4534 75.0022C33.1049 75.0022 33.9029 75.1222 34.2263 75.2688Z" fill="white"/>
</svg>
