<svg width="127" height="31" viewBox="0 0 127 31" fill="none" xmlns="http://www.w3.org/2000/svg">
<g id="Logo SVG Colorida Letra Preta Zenith 5">
<path id="Vector" fill-rule="evenodd" clip-rule="evenodd" d="M32.5895 3.35262V4.35172H38.4235H44.2574L44.2572 4.91789V5.48406L41.6085 6.40137C40.1518 6.90586 38.8792 7.36078 38.7804 7.41233C38.6697 7.47015 39.128 7.72339 39.9767 8.07321L41.3525 8.64043L42.8385 8.14195C45.9934 7.0837 46.3363 6.77103 46.3363 4.95119C46.3363 3.72802 46.0875 3.15613 45.3368 2.65365C45.0445 2.45797 44.7006 2.35352 44.3488 2.35352H38.7389H32.5895V3.35262ZM50.9631 8.41477V12.4294C50.9631 13.5597 51.8846 14.476 53.0215 14.476H57.8701H64.7768V13.4769V12.4778H58.9428H53.1089V10.9474V9.41708L58.2388 9.38217L63.3686 9.34727L63.408 8.38147L63.4474 7.41567H58.2782H53.1089V5.8837V4.35172H58.9428H64.7768V3.35262V2.35352H57.8701H53.0215C51.8846 2.35352 50.9631 3.26984 50.9631 4.40017V8.41477ZM69.4708 8.41477V14.476H70.5437H71.6167V10.077V5.67802L73.7181 7.35252L75.8199 9.02689L76.5345 8.32578C76.9279 7.94013 77.2494 7.58618 77.2494 7.53916C77.2494 7.49213 75.8355 6.30613 74.1072 4.90365L71.5332 2.81465C71.1659 2.51641 70.706 2.35352 70.2317 2.35352H70.2179C69.8052 2.35352 69.4708 2.68611 69.4708 3.09639V8.41477ZM82.0775 6.8162C82.0775 9.27068 82.0471 11.2789 82.0101 11.2789C81.9729 11.2789 81.2094 10.6815 80.3133 9.95154L78.6842 8.62406L78.2015 9.00571C77.936 9.21565 77.581 9.53418 77.4127 9.71348L77.1066 10.0396L79.8815 12.2577L82.0912 14.0244C82.4569 14.3167 82.912 14.476 83.3812 14.476H83.4397C83.8725 14.476 84.2234 14.1272 84.2234 13.6969V8.41477V2.35352H83.1505H82.0775V6.8162ZM89.3195 8.41477V14.476H90.3925H91.4654V8.41477V2.35352H90.3925H89.3195V8.41477ZM94.98 3.31932L95.0195 4.28513L97.8023 4.32109L100.585 4.35719V9.41654V14.476H101.658H102.731V9.41388V4.35172H105.48H108.23V3.35262V2.35352H101.585H94.9406L94.98 3.31932ZM111.851 8.41477V14.476H112.89H113.93L113.936 8.41477L113.942 2.35352H112.897H111.851V8.41477ZM124.055 4.8846V7.41567H119.831H115.606V8.41477V9.41388H119.831H124.055V11.945V14.476H125.128H126.201V8.41477V2.35352H125.128H124.055V4.8846ZM34.333 8.93325C31.866 9.83137 31.7357 9.97245 31.6781 11.8117C31.6331 13.2478 31.8209 13.7254 32.6219 14.2103C33.0411 14.4643 33.3087 14.4751 39.1946 14.4755L45.3303 14.476V13.4769V12.4778H39.5634H33.7965V11.8918V11.3059L34.7689 10.9573C35.3038 10.7656 36.485 10.3501 37.394 10.0339L39.0471 9.45891L37.6933 8.90354C36.9487 8.59808 36.2351 8.35349 36.1075 8.36003C35.9799 8.36642 35.1814 8.62445 34.333 8.93325Z" fill="black"/>
<path id="Vector_2" fill-rule="evenodd" clip-rule="evenodd" d="M31.6719 25.1042V28.9614H32.395H33.1183V25.1042V21.2471H32.395H31.6719V25.1042ZM36.3326 25.1042V28.9614H37.0558H37.7791V26.2041V23.4468L41.2939 26.2041C44.3948 28.6368 44.8774 28.9614 45.392 28.9614H45.9754V25.1042V21.2471H45.1756H44.3757L44.3318 24.023L44.2879 26.799L40.8326 24.0263C37.9445 21.7088 37.2914 21.2531 36.8548 21.2504L36.3326 21.2471V25.1042ZM50.3093 21.3762C49.8018 21.5966 49.3839 21.9721 49.0514 22.5066C48.7487 22.9933 48.7086 23.2934 48.7082 25.0828C48.7075 26.8412 48.7512 27.1835 49.0399 27.6805C49.7087 28.8326 49.8624 28.877 53.3713 28.9309C56.4228 28.9778 56.523 28.9691 57.053 28.616C58.1862 27.8606 58.27 27.6188 58.27 25.1042C58.27 22.5947 58.1848 22.3471 57.0663 21.6013C56.5607 21.2641 56.3908 21.2475 53.5454 21.2581C51.9011 21.2642 50.4448 21.3173 50.3093 21.3762ZM60.5445 21.7027C60.7078 21.9533 61.8901 23.6861 63.1719 25.5531C65.3381 28.7086 65.536 28.9479 65.9843 28.9496C66.4345 28.9513 66.637 28.7046 69.0379 25.2294C70.4522 23.1823 71.6334 21.4487 71.6629 21.3773C71.6925 21.3056 71.3308 21.2499 70.8593 21.2535L70.0022 21.26L68.0051 24.1661C66.9066 25.7644 65.9968 27.0722 65.9835 27.0722C65.9702 27.0722 65.0645 25.7615 63.971 24.1596L61.9831 21.2471H61.1152H60.2475L60.5445 21.7027ZM75.67 25.0964L73.0018 28.9614H73.8709H74.74L75.3269 28.0955L75.9138 27.2296H78.7821H81.6508L82.2374 28.0955L82.8244 28.9614H83.6908H84.5574L81.9185 25.1436C79.568 21.743 79.2283 21.3206 78.8089 21.2786C78.3599 21.2337 78.2147 21.4102 75.67 25.0964ZM50.5485 22.8931C50.175 23.2588 50.154 23.3767 50.154 25.1042C50.154 26.8318 50.175 26.9497 50.5485 27.3154C50.9336 27.6928 51.0023 27.7019 53.4519 27.7019C54.8318 27.7019 56.0931 27.6325 56.2548 27.5478C56.6975 27.3157 56.904 26.5383 56.904 25.1042C56.904 23.6702 56.6975 22.8927 56.2548 22.6607C56.0931 22.576 54.8318 22.5066 53.4519 22.5066C51.0023 22.5066 50.9336 22.5157 50.5485 22.8931ZM78.0748 24.1116C77.6815 24.6576 77.2328 25.2991 77.0776 25.5372L76.7956 25.9701H78.7426C79.8134 25.9701 80.6897 25.9421 80.6897 25.9079C80.6897 25.8738 80.2623 25.2322 79.7398 24.4824L78.7901 23.1188L78.0748 24.1116Z" fill="black"/>
<path id="Vector_3" fill-rule="evenodd" clip-rule="evenodd" d="M1.55859 5.84025C1.55859 3.89624 3.14358 2.32031 5.09876 2.32031H24.7779C26.7331 2.32031 28.3181 3.89624 28.3181 5.84025V25.614C28.3181 27.558 26.7331 29.1339 24.7779 29.1339H5.09876C3.14358 29.1339 1.55859 27.558 1.55859 25.614V5.84025ZM17.943 8.32491L24.3811 12.8976C25.7164 13.8459 25.0406 15.9366 23.3987 15.9366H16.6243C19.0187 14.8335 17.5959 12.6639 16.6243 12.6639H10.8977L4.74246 8.32491H17.943ZM5.29895 18.593L11.6432 23.1293H25.255L19.5219 19.0291H13.2963C12.3115 19.0291 10.8694 16.979 13.2963 15.9366H6.16235C4.7282 15.9366 4.13524 17.7609 5.29895 18.593Z" fill="#633CFF"/>
</g>
</svg>
