<svg width="161" height="45" viewBox="0 0 161 45" fill="none" xmlns="http://www.w3.org/2000/svg">
<path fill-rule="evenodd" clip-rule="evenodd" d="M1.75285 0.887358C0.0430889 1.74332 0.117007 0.97723 0.021929 18.8617C-0.0398994 30.483 0.0266008 35.6207 0.252206 36.6512C1.17991 40.8926 3.45767 43.1893 7.72575 44.1863C10.7421 44.8914 13.8836 44.5382 16.5384 43.1958C17.8384 42.5386 19.9483 40.656 20.1736 39.9522C20.3181 39.5015 20.5193 39.5892 21.9015 40.7063C26.0344 44.0463 32.6184 45.4249 37.964 44.07C44.6332 42.3793 48.8185 37.5728 51.9006 28.0649C52.5219 26.1487 53.091 24.406 53.1655 24.1922C53.2625 23.915 53.6717 24.1587 54.5963 25.0444C55.3089 25.7266 57.5259 27.4105 59.5234 28.7866C63.4793 31.5119 64.3823 32.3861 64.8035 33.8979C65.3894 36.0006 64.0176 38.4704 61.8748 39.1714C60.5354 39.6094 57.1316 39.3359 55.0929 38.6265C54.2004 38.3158 53.0509 38.0617 52.5387 38.0617C50.5948 38.0617 49.5569 40.3722 50.7979 41.936C51.4766 42.7911 53.4972 43.6615 56.0294 44.1893C64.0685 45.8653 70.3763 42.1514 70.8067 35.4894C70.9548 33.1958 70.4478 31.2526 69.2513 29.5293C68.1626 27.9609 67.3572 27.2849 62.4178 23.7944C58.9043 21.3114 58.1557 20.6573 57.6556 19.6333C56.8609 18.0063 57.0648 16.6757 58.2629 15.6716C59.7509 14.4243 62.0273 14.3632 65.2462 15.4845C67.2212 16.1724 68.2024 16.14 69.1213 15.3567C70.0543 14.5615 70.1573 13.0721 69.3428 12.1636C67.8529 10.502 62.5464 9.36582 59.242 10.0006C56.8268 10.4647 54.2735 11.7807 52.9946 13.2205C50.8638 15.6195 49.9372 17.7313 47.1019 26.649C45.0704 33.0384 42.7679 36.304 38.9964 38.145C37.2781 38.9841 37.0929 39.0146 33.7753 39.0099C30.63 39.0056 30.2013 38.9429 28.7595 38.2776C23.6959 35.9407 21.2799 29.8493 22.841 23.3553C23.5656 20.3416 25.8343 17.4004 28.3904 16.161C31.4753 14.665 34.6521 14.6252 38.5636 16.0335C41.6635 17.1495 43.2383 17.0074 43.908 15.5509C45.2647 12.5996 41.4351 10.2553 34.5953 9.85031C29.8504 9.56926 25.6098 10.7648 22.52 13.2548C20.5308 14.8578 19.9334 15.5449 18.7592 17.5818C16.0479 22.285 15.4359 27.4633 16.9123 33.2099L17.38 35.0305L16.6395 36.1398C14.0776 39.9762 8.79662 40.1369 6.90989 36.4358C6.30205 35.2435 6.2916 35.0529 6.2916 25.204V15.1852H10.4272C15.1509 15.1852 15.9454 14.9572 16.4444 13.4588C16.8011 12.3877 16.5422 11.4999 15.6379 10.6916C15.0935 10.2049 14.5664 10.1371 10.6941 10.0554L6.35975 9.96415L6.16135 6.14895C5.97312 2.53011 5.92558 2.29399 5.2342 1.55459C4.33041 0.587784 2.89956 0.313539 1.75285 0.887358ZM80.2109 11.7809V13.0065H81.3101H82.4092V16.0022V18.9979H84.1954H85.9815V16.0022V13.0065H87.2181H88.4547V11.7809V10.5554H84.3328H80.2109V11.7809ZM89.2829 14.4362C88.475 16.5708 87.7594 18.4704 87.6927 18.6575C87.6045 18.9053 88.0189 18.9979 89.2164 18.9979C91.0622 18.9979 90.913 19.1654 91.9412 15.936C92.2152 15.076 92.5027 14.3711 92.5801 14.3701C92.6579 14.369 93.0781 15.4098 93.5144 16.683L94.3075 18.9979H96.0384H97.7696L97.4091 18.1128C97.2107 17.6261 96.4646 15.7263 95.7513 13.8916L94.454 10.5554H92.603H90.7519L89.2829 14.4362ZM96.8095 10.9337C96.7259 11.1496 96.6976 11.6739 96.7466 12.0985C96.8271 12.7951 96.9493 12.8785 98.0037 12.9539L99.1716 13.0378V16.0177V18.9979H100.958H102.744V16.0177V13.0378L103.912 12.9539C105.077 12.8706 105.08 12.8678 105.08 11.7809V10.6916L101.021 10.6161C97.688 10.5543 96.9345 10.611 96.8095 10.9337ZM106.434 13.2107C105.872 14.671 105.129 16.5708 104.784 17.432L104.156 18.9979H105.882H107.608L108.394 16.7026C108.827 15.4403 109.264 14.4588 109.367 14.5215C109.469 14.5841 109.632 14.948 109.729 15.3298C109.826 15.7119 110.157 16.6934 110.466 17.5112L111.027 18.9979H112.656C113.552 18.9979 114.285 18.9372 114.285 18.8631C114.285 18.789 113.585 16.8895 112.729 14.6418L111.173 10.5554H109.316H107.458L106.434 13.2107ZM82.4147 23.5601C80.9476 24.2906 80.2109 25.5877 80.2109 27.4404C80.2109 30.3201 82.0218 31.9408 84.9728 31.7025C85.8538 31.6315 86.6218 31.5266 86.6792 31.4694C86.7369 31.4122 86.7119 31.0925 86.624 30.7586C86.4863 30.2368 86.336 30.1755 85.5537 30.321C83.3831 30.7246 81.8596 29.4212 81.8596 27.1607C81.8596 26.2716 82.0344 25.8639 82.6958 25.2081C83.4647 24.4461 83.6518 24.3891 85.0121 24.5008C86.3162 24.6081 86.5091 24.5577 86.6358 24.0779C86.7147 23.7783 86.7163 23.4319 86.6391 23.308C86.3783 22.8902 83.4037 23.0675 82.4147 23.5601ZM89.1705 23.6064C87.8622 24.4613 87.264 25.6618 87.264 27.4323C87.264 29.3275 88.0145 30.7118 89.3936 31.3605C93.7329 33.4011 97.358 27.6893 93.9662 24.1557C93.0146 23.1644 92.8236 23.0833 91.4513 23.0849C90.4532 23.086 89.705 23.257 89.1705 23.6064ZM96.4237 27.2879V31.5255H97.248H98.0724L98.0785 28.4617L98.0842 25.3979L98.8342 26.7838C101.288 31.3207 101.442 31.5255 102.395 31.5255H103.293V27.3043V23.083H102.607H101.92L101.903 26.0106C101.893 27.9857 101.802 28.8054 101.624 28.5298C101.479 28.3051 100.694 27.0183 99.88 25.6702C98.4945 23.3763 98.3362 23.2137 97.4116 23.1347L96.4237 23.05V27.2879ZM106.128 23.3572C104.908 23.8445 104.462 25.9191 105.365 26.908C105.618 27.1842 106.372 27.6313 107.041 27.9018C107.878 28.2397 108.311 28.5987 108.427 29.0489C108.734 30.242 107.245 30.7371 105.459 30.0356C105.146 29.9125 104.966 30.0456 104.85 30.4841C104.605 31.4141 105.046 31.6511 107.035 31.6565C108.67 31.6611 108.897 31.5914 109.499 30.8975C109.949 30.3803 110.163 29.8002 110.163 29.1014C110.163 27.929 109.746 27.4516 107.93 26.5433C106.993 26.0749 106.728 25.7925 106.728 25.2617C106.728 24.6204 106.812 24.5814 108.171 24.5926C109.357 24.6021 109.643 24.5114 109.78 24.0819C109.877 23.7783 109.791 23.4616 109.574 23.3254C109.096 23.0253 106.909 23.0454 106.128 23.3572ZM111.582 26.4192C111.662 29.0486 111.788 29.9081 112.174 30.4767C113.264 32.0827 116.02 32.226 117.354 30.7458C118.197 29.8114 118.495 28.1401 118.357 25.1255C118.272 23.2728 118.249 23.2167 117.514 23.1331L116.758 23.0468L116.754 25.8565C116.749 29.5072 116.129 30.7488 114.512 30.3466C113.488 30.0919 113.186 29.0859 113.186 25.9298V23.083H112.333H111.481L111.582 26.4192ZM120.056 27.3043V31.5255H122.529C124.984 31.5255 125.002 31.5203 125.002 30.8447C125.002 30.194 124.929 30.1638 123.353 30.1638H121.705V26.6234V23.083H120.88H120.056V27.3043ZM124.178 23.7638C124.178 24.3891 124.279 24.4447 125.414 24.4447H126.651V27.9851V31.5255H127.475H128.3V27.9851V24.4447H129.536C130.672 24.4447 130.773 24.3891 130.773 23.7638V23.083H127.475H124.178V23.7638ZM131.617 26.8277C130.963 28.8874 130.367 30.7867 130.293 31.0489C130.187 31.4253 130.33 31.5255 130.972 31.5255C131.682 31.5255 131.827 31.388 132.114 30.4362C132.441 29.3572 132.456 29.3468 133.796 29.3468C135.135 29.3468 135.15 29.3572 135.477 30.4362C135.774 31.4185 135.894 31.5255 136.705 31.5255C137.745 31.5255 137.824 32.0912 136.007 26.5553L134.867 23.083H133.837H132.807L131.617 26.8277ZM138.742 27.3043V31.5255H139.604H140.465L140.283 28.3255L140.101 25.1255L141.009 26.7596C143.408 31.0811 143.754 31.5255 144.714 31.5255H145.612V27.2863V23.0468L144.856 23.1331L144.1 23.2192L144.112 26.128C144.119 27.728 144.026 28.977 143.906 28.9034C143.786 28.8302 143.688 28.6616 143.688 28.529C143.688 28.3966 142.996 27.1169 142.151 25.6855C140.685 23.205 140.569 23.083 139.677 23.083H138.742V27.3043ZM149.047 23.5898C147.52 24.5242 147.156 25.1582 147.031 27.0976C146.943 28.4729 147.031 29.1161 147.403 29.8008C148.221 31.3057 150.687 32.1576 152.688 31.6263C153.113 31.513 153.306 31.2562 153.306 30.8005C153.306 30.1946 153.227 30.1537 152.362 30.3147C151.178 30.5347 149.589 30.0317 149.047 29.2654C148.818 28.9402 148.634 28.0946 148.634 27.359C148.634 26.2489 148.768 25.9039 149.471 25.2081C150.239 24.4461 150.427 24.3891 151.787 24.5008C153.1 24.6086 153.283 24.5599 153.413 24.0667C153.613 23.3099 153.161 23.092 151.382 23.0882C150.386 23.086 149.59 23.257 149.047 23.5898ZM154.13 23.3082C154.13 23.4319 154.687 24.5561 155.367 25.8064C156.46 27.8168 156.603 28.2787 156.603 29.8024V31.5255H157.428H158.252V29.8376C158.252 28.3127 158.385 27.9178 159.626 25.7546C160.382 24.4373 161 23.2973 161 23.2213C161 23.1454 160.631 23.083 160.179 23.083C159.443 23.083 159.262 23.2709 158.415 24.9213L157.472 26.7596L156.623 24.9213C155.85 23.2494 155.699 23.083 154.952 23.083C154.5 23.083 154.13 23.1843 154.13 23.3082ZM89.6874 24.9935C88.979 25.7694 88.8125 28.1894 89.3912 29.2983C89.6421 29.7793 90.1383 30.2305 90.5206 30.3256C92.4035 30.794 93.5455 29.4435 93.3402 26.9916C93.1874 25.1659 92.5823 24.4447 91.2026 24.4447C90.5351 24.4447 90.0174 24.6323 89.6874 24.9935ZM133.212 26.4992L132.768 27.9851H133.694C134.72 27.9851 134.797 27.7749 134.308 26.3236C133.822 24.8843 133.687 24.906 133.212 26.4992ZM81.5849 36.0877C80.8611 36.4459 80.5612 36.8119 80.373 37.5665C80.0342 38.9252 80.575 39.6883 82.5252 40.6034C84.9343 41.7339 84.512 43.0972 81.8069 42.9216C80.5695 42.8412 80.3472 42.9011 80.2593 43.3396C80.1128 44.0714 80.6725 44.3165 82.4991 44.3214C83.9052 44.3249 84.1981 44.2285 84.9035 43.5294C86.3597 42.0863 85.8304 40.4152 83.5766 39.3403C81.9511 38.5652 81.5208 37.9075 82.2718 37.3479C82.6574 37.0603 83.1594 36.9873 83.9541 37.1028C84.9461 37.2471 85.1058 37.1964 85.2377 36.6964C85.521 35.6229 83.2787 35.2489 81.5849 36.0877ZM113.873 35.9951C110.969 37.2743 110.356 41.3109 112.736 43.4858C113.259 43.9635 113.869 44.1779 114.957 44.2675C117.055 44.4398 117.916 44.1896 117.807 43.4387C117.73 42.9137 117.574 42.8529 116.477 42.9205C114.7 43.0302 113.785 42.6032 113.292 41.4329C112.748 40.1434 113.01 38.5924 113.914 37.7509C114.471 37.2327 114.905 37.1082 116.162 37.1066C117.538 37.1047 117.73 37.0371 117.803 36.5292C117.862 36.1212 117.702 35.905 117.254 35.786C116.23 35.5142 114.758 35.6052 113.873 35.9951ZM127.2 35.7893C125.835 36.3353 125.158 37.6433 125.597 38.8896C125.824 39.5356 126.263 39.9122 127.441 40.4705C128.687 41.0615 129.003 41.3453 129.073 41.9379C129.143 42.5354 129.025 42.7056 128.441 42.8507C128.047 42.9491 127.244 42.9531 126.656 42.86C125.737 42.7143 125.564 42.7693 125.408 43.2563C125.182 43.9611 125.194 43.9722 126.521 44.2598C128.819 44.7582 130.773 43.6144 130.773 41.7706C130.773 40.7516 130.129 40.0519 128.402 39.1932C127.076 38.5336 126.773 37.9797 127.4 37.3585C127.737 37.0238 128.144 36.9516 129.021 37.0709C130.035 37.2087 130.215 37.1553 130.37 36.6719C130.468 36.3653 130.478 36.0444 130.392 35.9592C130.161 35.7302 127.679 35.5978 127.2 35.7893ZM87.0807 40.1042V44.3255H89.6912C92.2927 44.3255 92.3018 44.323 92.3018 43.6446C92.3018 42.9883 92.2378 42.9638 90.5156 42.9638H88.7295V41.7382V40.5127H90.2408C91.6698 40.5127 91.7522 40.4757 91.7522 39.8319C91.7522 39.1881 91.6698 39.151 90.2408 39.151H88.7295V38.1978V37.2446H90.3782C91.9536 37.2446 92.027 37.2144 92.027 36.5638C92.027 35.8881 92.0086 35.8829 89.5538 35.8829H87.0807V40.1042ZM93.5216 36.2364C93.4463 36.4309 93.4194 38.3 93.4614 40.3896L93.5383 44.1893L94.294 44.2753L95.0497 44.3617V42.5732C95.0497 40.8613 95.0783 40.785 95.7172 40.785C96.6534 40.785 97.1359 41.3654 97.5204 42.9537C97.8281 44.2247 97.9133 44.3255 98.68 44.3255C99.486 44.3255 99.5027 44.2988 99.3233 43.3042C99.2222 42.7426 98.9094 41.8131 98.6289 41.2388C98.1296 40.2175 98.1301 40.1832 98.6451 39.6728C98.9853 39.3357 99.1716 38.7722 99.1716 38.0815C99.1716 36.4445 98.2826 35.8829 95.6911 35.8829C94.2784 35.8829 93.6167 35.9908 93.5216 36.2364ZM100.064 36.2234C100.133 36.4107 100.775 38.31 101.49 40.4446L102.79 44.3255H103.692H104.595L105.91 40.4446C106.634 38.31 107.285 36.4015 107.358 36.2035C107.454 35.941 107.245 35.8669 106.59 35.9311C105.695 36.0186 105.685 36.0355 104.701 39.2232L103.712 42.4273L102.761 39.1551L101.81 35.8829H100.873C100.24 35.8829 99.9781 35.9932 100.064 36.2234ZM108.301 40.0361L108.377 44.1893L109.133 44.2753L109.889 44.3617V40.1222V35.8829H109.057H108.225L108.301 40.0361ZM119.231 40.1145V44.3459L121.773 44.2677C124.172 44.1936 124.32 44.155 124.403 43.5765C124.486 42.9945 124.4 42.9638 122.686 42.9638H120.88V41.7382V40.5127H122.392C123.821 40.5127 123.903 40.4757 123.903 39.8319C123.903 39.1881 123.821 39.151 122.392 39.151H120.88V38.2114V37.2719L122.46 37.1902C123.86 37.1177 124.05 37.0385 124.128 36.4957C124.214 35.899 124.151 35.8829 121.724 35.8829H119.231V40.1145ZM95.233 37.154C95.1321 37.2536 95.0497 37.8664 95.0497 38.5156C95.0497 39.6453 95.0849 39.6957 95.8741 39.6957C96.6702 39.6957 97.7976 38.8975 97.7976 38.334C97.7976 37.4857 95.8175 36.5744 95.233 37.154Z" fill="white"/>
</svg>
