<svg width="262" height="383" viewBox="0 0 262 383" fill="none" xmlns="http://www.w3.org/2000/svg">
<path d="M219.802 61.1054L199.63 117.632C198.836 119.868 198.936 122.3 199.911 124.471C200.885 126.642 202.667 128.403 204.921 129.422C207.29 130.493 210.005 130.664 212.504 129.9C215.003 129.136 217.095 127.495 218.347 125.317L248.77 72.4457C249.316 71.5026 249.642 70.4606 249.728 69.3891C249.813 68.3177 249.655 67.2415 249.264 66.2321C248.874 65.2228 248.26 64.3036 247.463 63.5357C246.666 62.7679 245.705 62.169 244.643 61.7791L230.318 56.4645C229.306 56.0939 228.226 55.9206 227.141 55.955C226.057 55.9893 224.991 56.2307 224.008 56.6644C223.025 57.0982 222.146 57.7154 221.423 58.4786C220.7 59.2419 220.149 60.1355 219.802 61.1054Z" fill="#E0E0E0"/>
<path d="M206.958 166.375C204.975 168.554 202.352 170.13 199.42 170.903C196.487 171.676 193.378 171.612 190.484 170.719C187.591 169.825 185.043 168.143 183.163 165.884C181.283 163.626 180.155 160.892 179.922 158.029C179.689 155.165 180.361 152.301 181.854 149.799C183.347 147.296 185.593 145.266 188.308 143.967C191.023 142.668 194.086 142.157 197.109 142.499C200.132 142.842 202.979 144.021 205.291 145.89C206.828 147.131 208.089 148.646 209.005 150.348C209.92 152.049 210.471 153.904 210.626 155.807C210.78 157.709 210.536 159.621 209.907 161.435C209.277 163.248 208.275 164.927 206.958 166.375Z" fill="#E0E0E0"/>
<ellipse cx="20.079" cy="19.2155" rx="20.079" ry="19.2155" transform="matrix(0.942303 -0.334762 0.370891 0.928677 210.221 189.155)" fill="#633CFF"/>
<path fill-rule="evenodd" clip-rule="evenodd" d="M226.777 198.035C226.391 197.068 226.942 195.978 228.009 195.599L238.739 191.787C239.805 191.408 240.982 191.885 241.368 192.852L245.295 202.683C245.681 203.65 245.129 204.74 244.063 205.119L233.332 208.931C232.266 209.31 231.089 208.833 230.703 207.866L226.777 198.035ZM236.204 196.097L240.623 197.123C241.539 197.336 241.586 198.506 240.691 198.824L236.997 200.137C238.083 199.124 236.877 198.321 236.347 198.509L233.224 199.619L229.006 198.653L236.204 196.097ZM231.349 203.651L235.709 204.678L243.131 202.041L239.191 201.113L235.796 202.319C235.259 202.51 234.066 201.77 235.182 200.781L231.292 202.163C230.51 202.441 230.549 203.463 231.349 203.651Z" fill="white"/>
<path d="M177.608 314.567L126.54 314.69C114.148 314.69 106.374 302.548 112.546 292.785L137.974 252.553L163.401 212.321C169.573 202.557 185.064 202.519 191.285 212.252L216.924 252.369L242.564 292.486C248.784 302.196 241.067 314.43 228.675 314.43L177.608 314.567Z" fill="white"/>
<path d="M177.605 314.567H178.638H181.679L193.348 314.506L211.823 314.437L223.362 314.399C225.403 314.399 227.51 314.399 229.648 314.345C231.847 314.225 233.998 313.692 235.975 312.778C238.036 311.798 239.847 310.41 241.285 308.71C242.782 306.932 243.82 304.851 244.318 302.632C244.827 300.317 244.69 297.917 243.919 295.667C243.163 293.373 241.577 291.362 240.26 289.191L222.712 261.727L203.334 231.427C199.973 226.167 196.558 220.815 193.088 215.371L191.811 213.353C191.38 212.672 190.949 211.992 190.47 211.35C189.49 210.06 188.295 208.926 186.932 207.993C185.54 207.061 184.001 206.341 182.37 205.86C180.737 205.388 179.038 205.145 177.329 205.141C175.622 205.142 173.925 205.384 172.295 205.86C169.044 206.823 166.217 208.759 164.245 211.373C163.773 212.022 163.342 212.703 162.911 213.391L161.618 215.432C158.176 220.876 154.788 226.228 151.454 231.489L132.222 261.88L114.82 289.405C113.511 291.576 111.934 293.595 111.194 295.896C110.436 298.15 110.313 300.55 110.836 302.861C111.341 305.08 112.388 307.159 113.893 308.932C115.342 310.623 117.162 311.999 119.228 312.969C121.211 313.866 123.364 314.386 125.562 314.498C127.701 314.552 129.815 314.498 131.856 314.498H143.387H161.862H176.573H173.531L161.862 314.552L143.387 314.628L131.856 314.666C129.807 314.666 127.717 314.666 125.554 314.666C123.322 314.569 121.135 314.049 119.122 313.137C117.019 312.161 115.168 310.765 113.698 309.047C112.171 307.272 111.102 305.189 110.576 302.961C110.034 300.607 110.154 298.162 110.925 295.866C111.328 294.694 111.873 293.57 112.552 292.517L114.568 289.313C120.016 280.689 125.831 271.483 131.946 261.789L151.153 231.374C154.487 226.098 157.875 220.746 161.317 215.318L162.61 213.276C163.041 212.588 163.472 211.9 163.96 211.235C165.977 208.563 168.866 206.585 172.19 205.6C175.537 204.606 179.129 204.606 182.476 205.6C184.129 206.097 185.69 206.832 187.103 207.779C188.494 208.737 189.715 209.896 190.722 211.212C191.218 211.87 191.649 212.558 192.08 213.238C192.511 213.919 192.95 214.599 193.381 215.28L203.627 231.336L222.988 261.651C229.16 271.315 235.023 280.49 240.504 289.084L242.545 292.28C243.224 293.333 243.77 294.456 244.171 295.629C244.961 297.918 245.098 300.362 244.57 302.716C244.067 304.976 243.008 307.094 241.48 308.902C240.017 310.625 238.175 312.031 236.08 313.023C234.073 313.949 231.889 314.487 229.656 314.605C227.493 314.674 225.395 314.605 223.354 314.644H211.815H193.348H178.638C177.987 314.582 177.605 314.567 177.605 314.567Z" fill="#263238"/>
<path d="M177.664 212.381H177.624C175.6 212.372 173.608 212.861 171.848 213.8C170.087 214.739 168.619 216.095 167.589 217.733L120.255 293.09C119.234 294.686 118.7 296.515 118.711 298.378C118.723 300.24 119.279 302.064 120.32 303.648C121.368 305.267 122.847 306.601 124.611 307.518C126.375 308.435 128.363 308.904 130.379 308.878L225.967 308.389C227.993 308.401 229.986 307.914 231.749 306.974C233.511 306.035 234.98 304.677 236.009 303.037C237.029 301.44 237.562 299.611 237.55 297.749C237.539 295.887 236.983 294.063 235.944 292.478L187.748 217.611C186.698 215.988 185.215 214.652 183.447 213.734C181.678 212.817 179.684 212.35 177.664 212.381Z" fill="#633CFF"/>
<path d="M182.775 273.815L184.67 240.954L170.146 241.068L172.724 273.891L182.775 273.815Z" fill="white"/>
<path d="M177.622 279.618H177.549C175.32 279.601 173.166 280.38 171.523 281.797C170.762 282.473 170.159 283.291 169.751 284.198C169.344 285.104 169.142 286.081 169.157 287.065C169.157 288.054 169.374 289.032 169.793 289.938C170.213 290.845 170.827 291.66 171.597 292.333C173.238 293.732 175.383 294.492 177.598 294.459H177.671C179.878 294.468 182.002 293.667 183.591 292.226C184.331 291.531 184.915 290.703 185.309 289.792C185.703 288.88 185.899 287.904 185.884 286.92C185.868 282.738 182.314 279.603 177.622 279.618Z" fill="white"/>
<g opacity="0.3">
<path d="M201.309 228.116L126.343 270.94L116.861 286.346L206.513 236.542L201.309 228.116Z" fill="white"/>
</g>
<g opacity="0.3">
<path d="M212.953 246.933L111.348 304.414C111.743 305.821 112.468 307.127 113.47 308.237L214.645 249.709L212.953 246.933Z" fill="white"/>
</g>
<path d="M79.6066 336.781L78.9886 352.073C78.9886 352.073 95.317 357.799 95.4959 360.636L63.888 360.582L63.8066 336.712L79.6066 336.781Z" fill="#263238"/>
<path d="M69.2235 350.773C68.9206 350.862 68.6625 351.051 68.4978 351.306C68.3331 351.561 68.2731 351.864 68.329 352.157C68.4116 352.446 68.608 352.694 68.8783 352.852C69.1487 353.01 69.4727 353.065 69.7846 353.006C70.106 352.913 70.3796 352.712 70.5524 352.441C70.7251 352.17 70.7847 351.848 70.7197 351.538C70.6664 351.387 70.5821 351.248 70.4714 351.128C70.3608 351.008 70.2262 350.909 70.0751 350.838C69.9241 350.767 69.7596 350.725 69.5911 350.714C69.4227 350.703 69.2535 350.723 69.0934 350.773" fill="#E0E0E0"/>
<path d="M63.8906 360.583L63.9801 358.174L94.23 359.138C94.23 359.138 95.6368 359.719 95.4742 360.667L63.8906 360.583Z" fill="#455A64"/>
<path d="M79.5033 351.928C79.5033 352.073 78.7308 352.142 77.9664 352.608C77.2021 353.075 76.8036 353.679 76.6572 353.617C76.5109 353.556 76.7467 352.723 77.6818 352.18C78.617 351.637 79.5359 351.798 79.5033 351.928Z" fill="white"/>
<path d="M82.8115 353.227C82.8115 353.365 82.1772 353.61 81.6568 354.221C81.1364 354.833 80.9737 355.483 80.8436 355.475C80.7135 355.468 80.5996 354.649 81.2664 353.9C81.9332 353.151 82.8115 353.09 82.8115 353.227Z" fill="white"/>
<path d="M84.6929 356.959C84.5465 356.959 84.3351 356.263 84.6929 355.468C85.0506 354.673 85.815 354.359 85.8801 354.482C85.9451 354.604 85.4979 355.025 85.1807 355.682C84.8636 356.34 84.8474 356.944 84.6929 356.959Z" fill="white"/>
<path d="M79.2329 348.426C79.1678 348.564 78.4197 348.357 77.6065 348.426C76.7934 348.495 76.0534 348.74 75.9802 348.617C75.907 348.495 76.5576 347.975 77.6065 347.929C78.6555 347.883 79.3386 348.319 79.2329 348.426Z" fill="white"/>
<path d="M38.8481 335.275L37.1405 353.732L40.263 368.687C40.3153 368.943 40.3113 369.205 40.2513 369.459C40.1913 369.713 40.0766 369.953 39.9143 370.164C39.752 370.374 39.5456 370.551 39.3076 370.684C39.0697 370.817 38.8054 370.902 38.531 370.935C38.2125 370.975 37.8885 370.942 37.5868 370.838C37.2851 370.734 37.0147 370.563 36.7989 370.339C33.9854 367.456 23.6825 356.79 23.8858 355.445C24.1297 353.916 24.3168 335.872 24.3168 335.872L38.8481 335.275Z" fill="#263238"/>
<path d="M38.5275 370.935L23.9717 354.198L23.9148 354.963C23.8672 355.639 24.0777 356.308 24.5084 356.851C25.6631 358.304 28.9402 362.257 36.706 370.315C36.9301 370.546 37.2114 370.722 37.5249 370.826C37.8385 370.93 38.1745 370.959 38.5031 370.912L38.5275 370.935Z" fill="#455A64"/>
<g opacity="0.6">
<path d="M28.413 348.479C28.6467 348.662 28.7995 348.92 28.8416 349.202C28.8837 349.485 28.8121 349.773 28.6407 350.009C28.4549 350.239 28.1802 350.391 27.8759 350.433C27.5716 350.474 27.2621 350.401 27.0144 350.23C26.7688 350.039 26.6084 349.768 26.5647 349.47C26.5211 349.173 26.5974 348.872 26.7786 348.625C26.9973 348.411 27.2957 348.285 27.6111 348.273C27.9266 348.262 28.2344 348.366 28.47 348.563" fill="white"/>
</g>
<path d="M34.6147 362.594C35.127 362.044 35.745 361.59 36.4362 361.256C37.1752 361.029 37.9538 360.938 38.7294 360.988C38.7294 360.942 38.5098 360.782 38.0544 360.698C37.4546 360.593 36.835 360.656 36.2736 360.881C35.7087 361.098 35.2228 361.465 34.8749 361.936C34.6147 362.303 34.5415 362.571 34.6147 362.594Z" fill="white"/>
<path d="M35.8186 365.147C36.4027 364.885 37.0028 364.655 37.6157 364.459C38.2577 364.384 38.9041 364.345 39.5511 364.345C39.2607 364.149 38.9247 364.021 38.5711 363.971C38.2175 363.922 37.8565 363.953 37.5181 364.062C36.339 364.314 35.721 365.094 35.8186 365.147Z" fill="white"/>
<path d="M32.1797 359.298C33.041 358.82 33.9409 358.406 34.8713 358.06C35.8439 357.834 36.8334 357.678 37.8312 357.593C36.8233 357.279 35.7301 357.306 34.7412 357.67C33.7089 357.91 32.8009 358.487 32.1797 359.298Z" fill="white"/>
<path d="M32.2207 353.61C32.2695 353.725 33.3835 353.365 34.7985 353.404C36.2134 353.442 37.3112 353.824 37.3599 353.717C36.6271 353.199 35.7216 352.944 34.8066 352.998C33.8949 352.91 32.9793 353.126 32.2207 353.61Z" fill="white"/>
<path d="M32.5759 348.181C33.4505 347.976 34.3501 347.881 35.2512 347.898C36.1385 348.041 37.0005 348.298 37.8127 348.663C37.8127 348.625 37.6501 348.38 37.2191 348.105C36.636 347.761 35.9765 347.549 35.2919 347.485C34.6099 347.418 33.9205 347.507 33.2833 347.745C32.7954 347.937 32.5515 348.143 32.5759 348.181Z" fill="white"/>
<path d="M35.2854 346.866C35.3706 346.641 35.3985 346.4 35.3667 346.163C35.3437 345.517 35.1833 344.883 34.8951 344.297C34.7281 343.85 34.4077 343.468 33.9844 343.211C33.837 343.14 33.67 343.113 33.5058 343.134C33.3416 343.154 33.188 343.221 33.0655 343.326C32.8379 343.546 32.7047 343.837 32.6914 344.144C32.695 344.767 32.9291 345.37 33.3534 345.848C33.7778 346.327 34.3659 346.651 35.0171 346.767C35.6645 346.867 36.3291 346.785 36.9269 346.531C37.5247 346.276 38.0288 345.861 38.3755 345.337C38.4608 345.205 38.5151 345.058 38.5347 344.905C38.5543 344.752 38.5389 344.597 38.4893 344.45C38.4206 344.305 38.3053 344.183 38.1595 344.102C38.0137 344.021 37.8448 343.985 37.6762 343.999C37.1881 344.074 36.7289 344.267 36.3426 344.557C35.7814 344.925 35.2941 345.383 34.9032 345.91C34.7402 346.09 34.6209 346.302 34.5536 346.53C35.1134 345.867 35.7705 345.283 36.5052 344.794C36.8537 344.556 37.2583 344.402 37.6843 344.343C37.7752 344.33 37.8681 344.346 37.9479 344.389C38.0276 344.432 38.0895 344.5 38.1234 344.58C38.1521 344.678 38.1575 344.781 38.1392 344.882C38.121 344.982 38.0795 345.077 38.0177 345.161C37.7046 345.606 37.2621 345.956 36.743 346.17C36.2238 346.384 35.6501 346.453 35.0903 346.369C34.5369 346.276 34.0347 346.006 33.6688 345.605C33.3028 345.203 33.0954 344.696 33.0817 344.167C33.0867 343.954 33.17 343.748 33.3176 343.586C33.3829 343.526 33.467 343.486 33.5577 343.474C33.6483 343.462 33.7408 343.477 33.8217 343.517C34.1872 343.733 34.4716 344.051 34.6349 344.427C35.0092 345.196 35.2297 346.022 35.2854 346.866Z" fill="white"/>
<path d="M92.4152 216.193C92.3095 213.953 92.0818 211.422 91.8135 209.579C89.683 210.199 89.5122 211.108 87.276 211.498C81.3597 212.374 75.3516 212.564 69.3862 212.064H68.9877C56.6763 211.085 47.2517 208.486 34.5337 204.931L29.3294 217.852L24.6699 283.062L21.2871 349.496H42.3239C42.3239 349.496 49.74 298.392 50.3173 291.32C50.9597 283.445 61.0024 234.588 61.0024 234.588L62.832 234.16L61.7017 348.678H83.4947C83.4947 348.678 92.2444 225.375 92.4396 220.994C92.4965 219.381 92.4803 217.737 92.4152 216.193Z" fill="#263238"/>
<path d="M90.1414 127.25C90.1414 127.25 97.46 124.192 97.46 123.932L106.112 112.731C106.112 112.731 116.212 119.299 121.091 123.641C121.973 124.457 122.641 125.454 123.042 126.554C123.443 127.654 123.565 128.827 123.4 129.98C123.481 134.047 117.057 138.39 114.455 139.812C110.267 142.106 95.4352 146.884 94.5732 148.719C94.4594 148.949 89.2307 144.812 88.637 137.557C88.0434 130.301 90.1414 127.25 90.1414 127.25Z" fill="#FFBF9D"/>
<path d="M14.1085 143.344C14.1085 143.344 0 155.776 0 158.636C0 165.754 17.0766 193.202 17.0766 193.202L24.7529 187.797L16.1414 163.139L24.7773 155.325L14.1085 143.344Z" fill="#FFBF9D"/>
<path d="M84.8515 122.525C84.8515 122.525 85.933 122.617 81.7777 122.303C79.6472 122.135 74.7356 122.303 74.7356 122.303L53.3736 123.297C53.3736 123.297 30.9626 124.291 29.3525 127.12C27.7424 129.949 33.272 186.527 33.272 186.527L33.8656 200.963C33.8656 200.963 29.7998 214.725 30.1576 214.939C30.5154 215.153 49.4379 218.487 62.7251 218.869C75.1178 219.221 93.6256 214.281 93.6256 214.281L91.2918 177.062L91.5601 147.129L84.8515 122.525Z" fill="#633CFF"/>
<path d="M32.8306 125.515C32.8306 125.515 25.7235 127.655 21.9829 131.539C20.4379 133.145 7.49219 148.36 7.49219 148.36C7.49219 148.36 21.8447 162.038 22.7554 162.337C23.2352 162.489 31.0985 152.787 31.0985 152.787C31.0985 152.787 30.3748 138.788 30.2203 138.337C30.0658 137.885 32.8306 125.515 32.8306 125.515Z" fill="#633CFF"/>
<path d="M24.7753 187.017C24.946 187.185 26.6374 190.389 26.6374 190.389L33.59 193.447L33.216 198.394C33.216 198.394 37.5502 204.579 37.1436 205.933C36.737 207.286 35.4116 206.261 35.4116 206.261L31.7198 201.972C31.7198 201.972 34.8586 208.089 35.2977 208.853C35.8263 209.817 35.4116 210.642 34.3707 210.314C33.3298 209.985 29.9308 205.053 29.4917 204.671C29.0526 204.289 30.9391 208.364 31.5734 209.121C32.2077 209.878 33.4193 212.11 32.4923 212.592C31.5653 213.074 30.6464 212.432 30.0121 211.675C29.3778 210.918 26.3772 205.321 25.4502 204.457C24.5232 203.593 21.238 202.553 20.0833 200.55C18.9262 198.145 17.9188 195.679 17.0664 193.164L24.7753 187.017Z" fill="#FFBF9D"/>
<path d="M113.191 140.462C113.191 140.462 107.832 138.39 104.572 134.238C101.311 130.087 96.0089 124.146 96.0089 124.146L84.5595 122.51L83.1934 129.643L86.568 152.443L90.9835 155.876L91.5365 149.981C91.5365 149.981 108.727 144.231 111.817 142.641C114.403 141.318 113.191 140.462 113.191 140.462Z" fill="#633CFF"/>
<path d="M91.7388 132.174C91.8607 132.174 91.9502 136.494 91.9502 141.831C91.9502 147.168 91.8607 151.487 91.7388 151.487C91.6168 151.487 91.5273 147.168 91.5273 141.831C91.5273 136.494 91.6249 132.174 91.7388 132.174Z" fill="#263238"/>
<path d="M29.4629 137.725C29.5916 138.607 29.6676 139.495 29.6906 140.385C29.8044 142.029 30.0159 144.292 30.2517 146.8C30.4875 149.308 30.6583 151.579 30.6989 153.238C30.6989 154.064 30.6989 154.729 30.6989 155.195C30.7049 155.434 30.6804 155.673 30.6257 155.906C30.497 155.024 30.421 154.136 30.3981 153.245C30.2761 151.609 30.0647 149.338 29.8288 146.831C29.593 144.323 29.4304 142.052 29.3897 140.393C29.3897 139.567 29.3897 138.902 29.3897 138.436C29.3732 138.196 29.3979 137.956 29.4629 137.725Z" fill="#263238"/>
<path d="M11.0325 160.815C12.1416 160.873 13.2218 161.169 14.1902 161.681C15.1586 162.192 15.9895 162.906 16.6189 163.766C16.5214 163.85 15.5293 162.833 13.9761 162.031C12.423 161.228 10.9837 160.937 11.0325 160.815Z" fill="#FF9A6C"/>
<path d="M41.8066 197.835C42.181 197.728 42.5647 197.651 42.9532 197.606L46.0921 197.086C48.743 196.635 52.386 195.924 56.3624 194.938C60.3388 193.951 63.868 192.858 66.4051 192.017L69.4138 191.008C69.7739 190.863 70.1466 190.748 70.5279 190.664C70.1956 190.861 69.841 191.022 69.4707 191.145C68.7795 191.436 67.7712 191.826 66.5108 192.277C63.2235 193.464 59.8712 194.484 56.4681 195.335C53.0688 196.185 49.6243 196.866 46.149 197.377C44.8154 197.575 43.7095 197.705 42.9776 197.774C42.5906 197.832 42.1982 197.853 41.8066 197.835Z" fill="#263238"/>
<path d="M73.1886 86.8195C74.1525 86.8687 75.1016 86.5802 75.8526 86.0099C76.6035 85.4396 77.1031 84.6278 77.2547 83.7315C77.4064 82.8351 77.1994 81.9177 76.6737 81.1564C76.148 80.3952 75.3409 79.8441 74.4084 79.6096C74.9749 79.005 75.3238 78.2476 75.4052 77.4456C75.4867 76.6435 75.2965 75.8377 74.8618 75.1433C74.4272 74.4489 73.7703 73.9014 72.985 73.5789C72.1997 73.2564 71.3261 73.1755 70.4889 73.3477C70.4011 72.5645 70.1003 71.8158 69.6156 71.1736C69.1308 70.5314 68.4784 70.0173 67.7211 69.6809C66.9638 69.3444 66.1271 69.197 65.2917 69.2527C64.4562 69.3084 63.65 69.5654 62.9508 69.9989C61.9641 69.328 60.7673 68.9862 59.5505 69.0278C58.3336 69.0694 57.1664 69.4919 56.234 70.2283C55.4096 70.1318 54.574 70.2863 53.8498 70.669C53.1256 71.0517 52.5508 71.6425 52.2098 72.3547C51.8688 73.067 51.7794 73.8632 51.9548 74.6267C52.1303 75.3902 52.5613 76.0808 53.1846 76.5972" fill="#263238"/>
<path d="M55.6147 73.9208L56.4685 73.8749C60.6209 73.6564 64.7085 74.9168 67.9169 77.4049C71.1253 79.893 73.219 83.4263 73.7809 87.3008C74.8706 94.7707 75.9684 103.043 76.1554 107.073C76.5376 115.414 67.7391 117.173 67.7391 117.173L68.6092 123.61C67.7583 124.897 66.6215 125.996 65.2767 126.831C63.9319 127.666 62.4109 128.217 60.8181 128.447C59.2253 128.677 57.5983 128.581 56.0489 128.164C54.4995 127.748 53.0642 127.021 51.8416 126.034L48.6458 123.45L43.474 91.4142C42.173 82.7975 46.4177 74.8765 55.6147 73.9208Z" fill="#FFBF9D"/>
<path d="M67.7399 117.173C63.6436 117.379 59.5707 116.474 56.0059 114.566C56.0059 114.566 59.2179 120.438 68.0164 119.23L67.7399 117.173Z" fill="#FF9A6C"/>
<path d="M72.7052 83.5243C72.7052 83.5243 70.0542 78.4246 67.3057 77.3389C63.9798 76.0392 62.7763 79.4568 59.6375 78.8069C56.4987 78.157 53.3273 76.9031 50.3023 79.3115C46.9927 81.9493 48.676 83.5855 48.7166 87.3013C48.7166 102.34 46.0738 106.737 44.8297 99.7103C44.6914 98.9458 42.3901 98.4488 41.8372 95.1994C41.146 90.9789 40.6744 85.841 41.5038 82.775C42.2031 80.1984 43.6343 78.3635 46.2771 76.2915C50.4487 73.0114 56.4255 72.6368 60.5157 72.805C64.606 72.9732 72.6889 76.9643 72.7052 83.5243Z" fill="#263238"/>
<path d="M45.3824 99.4581C45.3502 99.1533 45.2534 98.8577 45.0978 98.5887C44.9421 98.3196 44.7307 98.0826 44.476 97.8917C44.2214 97.7007 43.9286 97.5596 43.615 97.4767C43.3014 97.3938 42.9734 97.3708 42.6502 97.4091C41.0238 97.6461 39.2186 98.6247 39.5194 101.836C40.048 107.524 46.0248 105.85 46.0248 105.659C46.0248 105.468 45.6264 101.836 45.3824 99.4581Z" fill="#FFBF9D"/>
<path d="M44.4861 103.656C44.4861 103.656 44.3885 103.732 44.2178 103.824C43.968 103.95 43.6758 103.977 43.4046 103.901C42.9903 103.701 42.6405 103.401 42.3917 103.031C42.1428 102.661 42.004 102.236 41.9897 101.798C41.9293 101.314 41.9848 100.822 42.1523 100.361C42.1911 100.178 42.2775 100.006 42.4038 99.8623C42.5301 99.7183 42.6923 99.6058 42.876 99.535C42.9928 99.4937 43.1213 99.4925 43.2388 99.5317C43.3564 99.5708 43.4554 99.6478 43.5184 99.7491C43.616 99.902 43.5916 100.024 43.6242 100.032C43.6567 100.04 43.7461 99.9249 43.673 99.6879C43.6245 99.5514 43.5304 99.4334 43.4046 99.3515C43.2243 99.2487 43.0085 99.2158 42.8029 99.2597C42.5591 99.3261 42.3376 99.4502 42.1596 99.6203C41.9816 99.7903 41.8531 100.001 41.7864 100.231C41.5749 100.744 41.4996 101.297 41.5668 101.844C41.7132 102.991 42.4369 104.015 43.3314 104.138C43.4981 104.17 43.6704 104.166 43.8352 104.126C44.0001 104.086 44.1531 104.012 44.2828 103.908C44.4943 103.794 44.5105 103.664 44.4861 103.656Z" fill="#FF9A6C"/>
<path d="M44.843 88.4098C45.6213 88.9364 46.5267 89.2727 47.4776 89.3884C47.9534 89.4319 48.4298 89.3118 48.8185 89.0503C49.2072 88.7888 49.482 88.4037 49.5919 87.9663C49.6407 87.5688 49.5106 87.11 49.7708 86.7889C50.031 86.4678 50.6978 86.4907 51.2101 86.5136C52.9828 86.5977 54.9344 84.6557 55.276 83.0195C55.5305 83.3082 55.889 83.4989 56.2834 83.5552C56.6777 83.6116 57.0802 83.5298 57.4146 83.3254C57.9555 82.9721 58.4262 82.5321 58.8051 82.0256C59.0248 81.7047 59.3235 81.4385 59.676 81.2495C60.0286 81.0605 60.4244 80.9543 60.8299 80.9399C61.2645 81.0569 61.712 81.1262 62.1635 81.1463C62.9767 81.0393 63.2938 80.1371 63.367 79.3878C63.4402 78.6385 63.489 77.7669 64.1395 77.3311C64.8246 77.0326 65.6009 76.9756 66.327 77.1706C67.0669 77.2317 68.0021 77.0176 68.1485 76.3372C68.1703 76.1552 68.152 75.971 68.0946 75.796C68.0372 75.621 67.9421 75.4591 67.8151 75.3203C67.2831 74.6553 66.5279 74.1787 65.6719 73.9678C64.8158 73.7569 63.9091 73.8239 63.0987 74.1581C62.7445 73.2249 62.104 72.4114 61.258 71.8206C60.412 71.2298 59.3986 70.8883 58.3461 70.8392C57.2936 70.7901 56.2492 71.0356 55.3452 71.5447C54.4412 72.0539 53.7181 72.8037 53.2674 73.6994C52.5913 73.1855 51.7935 72.8322 50.9415 72.6694C50.0895 72.5066 49.2083 72.5391 48.3725 72.7641C47.5366 72.989 46.7707 73.3999 46.1393 73.9619C45.508 74.524 45.0299 75.2207 44.7454 75.9931C43.9934 75.8543 43.2146 75.9257 42.5054 76.1986C41.7962 76.4716 41.1876 76.934 40.755 77.5287C40.3223 78.1234 40.0846 78.8244 40.0712 79.5448C40.0578 80.2652 40.2693 80.9735 40.6795 81.5821C40.131 81.8748 39.6703 82.2933 39.3403 82.7987C39.0104 83.3041 38.8221 83.8799 38.793 84.4722C38.8418 85.6497 40.1347 86.7659 41.3301 86.3913C41.1252 86.866 41.1177 87.3959 41.309 87.8756C41.5003 88.3553 41.8764 88.7499 42.3628 88.9809C42.8491 89.2119 43.4101 89.2626 43.9343 89.1228C44.4586 88.983 44.9077 88.663 45.1926 88.2263" fill="#263238"/>
<path d="M63.642 75.8096C63.642 75.8096 63.642 75.8096 63.642 75.909C63.6486 76.0108 63.6486 76.1129 63.642 76.2148C63.5833 76.6061 63.4569 76.9858 63.2679 77.3387C62.9651 77.897 62.5313 78.3833 61.9994 78.7608C61.2956 79.2571 60.4396 79.5254 59.5599 79.5254L59.6493 79.3878C59.76 79.6386 59.817 79.9075 59.817 80.1791C59.817 80.4507 59.76 80.7196 59.6493 80.9704C59.4056 81.498 59.0825 81.9898 58.6898 82.4308C58.5042 82.6801 58.2916 82.9107 58.0555 83.1189C57.6219 83.4178 57.0904 83.564 56.5538 83.5318C56.0172 83.4997 55.5097 83.2913 55.12 82.943L55.3476 82.8742C55.2976 83.4709 55.1154 84.0512 54.813 84.5778C54.5105 85.1045 54.0944 85.5659 53.5912 85.9325C53.0389 86.3617 52.355 86.6135 51.6396 86.6512C50.9618 86.6567 50.288 86.5532 49.6473 86.3454L49.8099 86.2689C49.5376 86.9768 49.0788 87.6082 48.4763 88.1039C48.2038 88.3527 47.8751 88.5404 47.5146 88.6529C47.1541 88.7654 46.7713 88.7999 46.3946 88.7538C45.7537 88.6612 45.1554 88.3949 44.6731 87.9875C44.1907 87.5801 43.8451 87.0493 43.6786 86.4601L43.825 86.506C43.2079 86.8633 42.4764 87.0041 41.7595 86.9035C41.2234 86.8417 40.7105 86.6609 40.2633 86.376C39.9875 86.1927 39.7458 85.968 39.5477 85.7108C39.4811 85.622 39.4239 85.5272 39.377 85.4279C39.6368 85.7642 39.9558 86.0564 40.3202 86.2919C40.7596 86.5543 41.258 86.7166 41.7758 86.7659C42.454 86.8465 43.1409 86.7033 43.7193 86.3607L43.8331 86.2995V86.4142C43.9912 86.968 44.3178 87.4663 44.7728 87.8479C45.2278 88.2296 45.7915 88.478 46.3946 88.5627C46.7378 88.6015 47.0859 88.5666 47.4127 88.4607C47.7395 88.3547 48.0364 88.1805 48.2812 87.951C48.8462 87.4799 49.2767 86.8832 49.5335 86.2154V86.1084H49.6554C50.2662 86.3007 50.906 86.3988 51.5501 86.3989C52.2138 86.3656 52.8477 86.1293 53.3554 85.7261C53.8252 85.3788 54.2127 84.943 54.4927 84.4466C54.7728 83.9502 54.9394 83.4042 54.9817 82.8436V82.576L55.185 82.7748C55.4136 82.9842 55.693 83.1381 55.999 83.2234C56.305 83.3086 56.6284 83.3226 56.9415 83.2642C57.2369 83.2139 57.5156 83.0986 57.7546 82.9277C57.9801 82.7355 58.182 82.5201 58.3564 82.2855C58.7377 81.8621 59.0551 81.3912 59.2997 80.8863C59.5112 80.433 59.5258 79.9199 59.3403 79.4566L59.2834 79.3266H59.4379C60.286 79.3167 61.1077 79.0484 61.7798 78.562C62.3005 78.2065 62.7309 77.7469 63.0402 77.2164C63.3224 76.7821 63.5258 76.3066 63.642 75.8096Z" fill="#455A64"/>
<path d="M72.4291 95.6045C72.4472 95.9148 72.3357 96.2194 72.1186 96.4535C71.9014 96.6877 71.5956 96.833 71.2663 96.8584C71.1062 96.8775 70.9437 96.8662 70.7883 96.825C70.633 96.7839 70.4881 96.7138 70.3621 96.6189C70.2362 96.5241 70.1318 96.4064 70.0553 96.2728C69.9787 96.1393 69.9315 95.9926 69.9164 95.8415C69.8962 95.5308 70.0069 95.2251 70.2245 94.9905C70.4421 94.7559 70.7491 94.6112 71.0792 94.5876C71.2393 94.5685 71.4019 94.5799 71.5572 94.621C71.7125 94.6621 71.8574 94.7322 71.9834 94.8271C72.1093 94.922 72.2137 95.0397 72.2902 95.1732C72.3668 95.3068 72.414 95.4535 72.4291 95.6045Z" fill="#263238"/>
<path d="M72.9082 91.3381C72.7619 91.4986 71.7698 90.8717 70.4118 90.9328C69.0538 90.994 68.078 91.6974 67.9235 91.5292C67.769 91.361 67.9967 91.1775 68.4196 90.8564C68.9862 90.4396 69.6769 90.1991 70.3956 90.1683C71.1041 90.1381 71.8045 90.3202 72.396 90.6882C72.8351 90.994 72.9814 91.2692 72.9082 91.3381Z" fill="#263238"/>
<path d="M63.7107 105.628C63.5236 105.743 62.7593 104.863 61.4338 104.58C60.1083 104.298 58.9943 104.672 58.8804 104.489C58.7666 104.305 59.0512 104.168 59.5472 103.976C60.2176 103.737 60.9499 103.697 61.6452 103.862C62.3347 104.017 62.9532 104.376 63.4098 104.886C63.7432 105.276 63.8083 105.582 63.7107 105.628Z" fill="#263238"/>
<path d="M60.2724 96.1242C60.2926 96.4349 60.182 96.7406 59.9644 96.9752C59.7468 97.2098 59.4397 97.3545 59.1096 97.3781C58.9495 97.3972 58.787 97.3858 58.6317 97.3447C58.4763 97.3035 58.3314 97.2335 58.2055 97.1386C58.0795 97.0437 57.9752 96.926 57.8986 96.7925C57.822 96.6589 57.7748 96.5122 57.7597 96.3612C57.7416 96.0521 57.8519 95.7486 58.0673 95.5146C58.2828 95.2806 58.5866 95.1346 58.9144 95.1073C59.0748 95.0892 59.2374 95.1013 59.3927 95.1427C59.5481 95.1842 59.6931 95.2543 59.8195 95.3489C59.9458 95.4435 60.0509 95.5607 60.1286 95.6938C60.2064 95.8269 60.2553 95.9732 60.2724 96.1242Z" fill="#263238"/>
<path d="M59.5775 92.2024C59.4311 92.3629 58.4391 91.736 57.0811 91.7971C55.7231 91.8583 54.7554 92.5617 54.5928 92.3858C54.4301 92.21 54.6659 92.0341 55.0888 91.7207C55.6584 91.3121 56.3488 91.0798 57.0648 91.0555C57.7724 91.0231 58.4728 91.2024 59.0652 91.5678C59.4962 91.8506 59.6507 92.1259 59.5775 92.2024Z" fill="#263238"/>
<path d="M64.9301 101.828C65.638 101.584 66.3756 101.425 67.1256 101.354C67.4753 101.308 67.8006 101.232 67.8412 101.002C67.8563 100.664 67.7597 100.33 67.5648 100.046C67.1988 99.2818 66.8248 98.4561 66.4182 97.5998C64.7918 94.121 63.6534 91.2462 63.7998 91.1927C63.9461 91.1391 65.3692 93.9069 66.963 97.3857C67.3452 98.2497 67.7193 99.0678 68.0689 99.8476C68.3033 100.234 68.3867 100.686 68.3047 101.124C68.2597 101.241 68.1875 101.348 68.0932 101.435C67.9989 101.522 67.885 101.589 67.7599 101.629C67.5697 101.684 67.3731 101.717 67.1744 101.728C66.4336 101.849 65.6797 101.882 64.9301 101.828Z" fill="#263238"/>
<path d="M53.3912 89.274C53.44 88.9071 54.8061 88.7847 56.3186 88.2801C57.8311 87.7755 59.002 87.1103 59.2867 87.3703C59.4086 87.4926 59.2867 87.8596 58.8394 88.2954C58.2587 88.8435 57.5523 89.2595 56.7743 89.5113C55.9962 89.7631 55.1672 89.8441 54.3507 89.7481C53.7246 89.6563 53.3749 89.4499 53.3912 89.274Z" fill="#263238"/>
<path d="M67.6812 86.2768C68.0309 86.0856 68.8603 86.6973 69.9743 87.1101C71.0884 87.523 72.1292 87.6606 72.2349 88.0276C72.2756 88.1958 72.0154 88.4176 71.495 88.5246C70.805 88.6337 70.0964 88.5598 69.4486 88.3113C68.8008 88.0628 68.2395 87.6495 67.8276 87.1178C67.543 86.6973 67.5267 86.3456 67.6812 86.2768Z" fill="#263238"/>
<path d="M84.7165 99.5805C84.7165 99.5805 76.9019 85.2753 76.0888 84.5795C76.0888 84.5795 67.6806 81.4142 67.4447 81.6971C67.2688 82.0195 67.1881 82.3804 67.211 82.7422C67.2339 83.1039 67.3595 83.4532 67.5749 83.7538L63.2732 83.3103C63.0406 83.6474 62.9343 84.0477 62.9711 84.448C63.008 84.8482 63.1858 85.2255 63.4765 85.52C64.5173 86.5674 69.1199 87.2938 69.0223 87.2938C68.9247 87.2938 62.1022 86.5292 62.1022 86.5292C62.1022 86.5292 61.7282 88.6471 63.5415 88.9911C63.338 89.3708 63.2876 89.8069 63.3998 90.2187C63.5119 90.6306 63.7789 90.9903 64.1514 91.2313C65.4931 92.0876 72.7548 94.0755 72.7548 94.0755L74.1616 95.8494C74.1616 95.8494 75.6415 102.799 76.8206 103.809C77.9997 104.818 97.7923 124.643 97.7923 124.643L106.127 112.723L84.7165 99.5805Z" fill="#FFBF9D"/>
<path d="M105.165 132.067C105.165 132.067 105.1 132.021 104.978 131.906L104.458 131.417L102.474 129.483L95.1552 122.257C92.057 119.199 88.3489 115.506 84.2018 111.378L77.6313 104.894L76.7612 104.061C76.4487 103.758 76.2004 103.403 76.0294 103.013C75.7106 102.264 75.439 101.498 75.2162 100.719C74.7364 99.1903 74.338 97.5465 73.9721 95.9026V95.9791C73.5248 95.4286 73.0451 94.8169 72.5572 94.2129L72.6629 94.2817C70.8332 93.7771 68.8979 93.2113 66.9707 92.5767C66.0259 92.2879 65.1047 91.9353 64.214 91.5216C63.9736 91.4054 63.76 91.2456 63.5855 91.0513C63.4111 90.8571 63.2792 90.6324 63.1975 90.3901C63.0615 89.8972 63.1133 89.3751 63.3439 88.9144L63.4903 89.1973C63.183 89.1431 62.8944 89.0194 62.6493 88.8369C62.4042 88.6544 62.21 88.4186 62.0835 88.1499C61.863 87.6283 61.7929 87.0612 61.8802 86.506V86.3225H62.0916L66.0762 86.766L68.0359 86.9801L68.5157 87.0336H68.7596H68.8816H68.9873C68.9873 87.1636 68.9223 86.7277 68.8572 87.37H68.9304L67.9871 87.1865C66.7287 86.954 65.4976 86.6057 64.3116 86.1467C64.0213 86.023 63.7482 85.8664 63.4984 85.6803C63.2363 85.4756 63.0323 85.2129 62.9048 84.9157C62.7883 84.6198 62.7474 84.3023 62.7856 83.9889C62.8237 83.6754 62.9398 83.3748 63.1244 83.1113L63.1813 83.0196H63.3033L67.6049 83.463L67.4423 83.7459C67.2733 83.5278 67.1519 83.2804 67.0849 83.0179C67.0179 82.7555 67.0067 82.4833 67.052 82.2168C67.0675 82.0874 67.0947 81.9595 67.1333 81.8345C67.1504 81.7685 67.1749 81.7044 67.2065 81.6433L67.2553 81.5439C67.3041 81.5439 67.2553 81.4981 67.3935 81.414C67.4895 81.3907 67.5902 81.3907 67.6863 81.414H67.8895L68.2636 81.5134C69.2394 81.7886 70.1583 82.1174 71.0609 82.4308C72.858 83.0578 74.5576 83.6847 76.1514 84.2888H76.192C76.6112 84.8163 76.9864 85.3736 77.3142 85.9555C77.6313 86.506 77.9485 87.0412 78.2575 87.5611L79.9326 90.52L82.5592 95.291C83.2504 96.5907 83.8033 97.5847 84.1855 98.3493C84.3563 98.6857 84.4864 98.9456 84.5921 99.1138C84.6978 99.282 84.7222 99.3891 84.7222 99.3891C84.6569 99.3076 84.5997 99.2205 84.5514 99.1291L84.1042 98.3646C83.7084 97.6561 83.1419 96.657 82.4047 95.3674L79.7212 90.6271L78.0135 87.6835L77.0621 86.0855C76.7396 85.5375 76.3812 85.0089 75.9887 84.5028C74.3624 83.9141 72.736 83.2948 70.8983 82.6755C69.9957 82.3697 69.0686 82.0486 68.1172 81.781L67.7594 81.6892C67.7001 81.6819 67.6399 81.6819 67.5805 81.6892H67.5074H67.4667C67.4667 81.6892 67.4667 81.6433 67.4667 81.628C67.4656 81.6136 67.4605 81.5997 67.4519 81.5876C67.4434 81.5756 67.4317 81.5658 67.4179 81.5592L67.5317 81.6433V81.7045C67.5079 81.7511 67.4889 81.7998 67.4748 81.8498C67.4404 81.9568 67.4186 82.067 67.4098 82.1785C67.3378 82.6242 67.4514 83.0788 67.7269 83.4477L68.0034 83.7688L67.5643 83.723L63.2626 83.2948L63.4415 83.2107C63.2925 83.4271 63.1995 83.6732 63.1699 83.9295C63.1402 84.1857 63.1748 84.4449 63.2707 84.6863C63.3921 84.9279 63.5641 85.1438 63.7765 85.3212C63.989 85.4986 64.2373 85.6337 64.5068 85.7185C65.6705 86.1605 66.8769 86.4959 68.1091 86.7201L69.0605 86.9036C69.0605 86.9036 69.0605 86.9036 69.15 86.9418C69.0849 87.5841 68.9792 87.1559 69.0199 87.2859H68.7678H68.5238L68.0359 87.2324L66.068 87.0183L62.051 86.5825L62.2787 86.4219C62.2038 86.8993 62.2627 87.3869 62.4494 87.8364C62.5496 88.0475 62.7024 88.2328 62.8949 88.3765C63.0874 88.5203 63.314 88.6182 63.5553 88.6621L63.8156 88.708L63.7017 88.945C63.5223 89.3139 63.4822 89.7292 63.5879 90.1225C63.6529 90.3161 63.7583 90.4956 63.8979 90.6505C64.0376 90.8054 64.2086 90.9326 64.401 91.0247C65.2691 91.4244 66.1658 91.7668 67.0845 92.0492C69.0117 92.6838 70.9471 93.2419 72.7767 93.7542H72.8418L72.8824 93.8077C73.3703 94.4117 73.8501 95.0234 74.2973 95.5739V95.6197C74.6551 97.2483 75.0536 98.8539 75.5252 100.406C75.7461 101.17 76.0177 101.921 76.3384 102.654C76.4784 103.003 76.6944 103.321 76.9727 103.587L77.8509 104.435L84.4051 110.942L95.2934 121.883L102.506 129.185L104.433 131.165L104.929 131.685C105.035 131.795 105.116 131.926 105.165 132.067Z" fill="#FF9A6C"/>
<path d="M70.7035 90.8182C69.4879 90.71 68.2899 90.4688 67.1337 90.0995C65.9404 89.8591 64.7807 89.4896 63.6777 88.9985C64.8934 89.1067 66.0914 89.3479 67.2476 89.7172C68.4408 89.9577 69.6005 90.3272 70.7035 90.8182Z" fill="#FF9A6C"/>
<path d="M73.8943 89.0289C73.1208 88.5434 72.2698 88.1769 71.3735 87.9432C70.4228 87.8147 69.497 87.5572 68.625 87.1787C69.5891 87.1629 70.5505 87.2788 71.4792 87.5227C72.1641 87.6598 72.8066 87.9422 73.3577 88.3485C73.7724 88.7155 73.935 88.9984 73.8943 89.0289Z" fill="#FF9A6C"/>
<path d="M74.1362 85.8254C74.0874 85.9095 72.6888 85.359 70.8835 84.8621C69.7585 84.619 68.6671 84.2547 67.6309 83.7764C68.7778 83.8791 69.9062 84.118 70.9892 84.4874C72.8351 84.9767 74.2094 85.7184 74.1362 85.8254Z" fill="#FF9A6C"/>
</svg>
