<svg width="65" height="78" viewBox="0 0 65 78" fill="none" xmlns="http://www.w3.org/2000/svg">
<g id="Frame 122">
<g id="Group">
<path id="Vector" d="M56.1963 4.44824H8.90858C8.75422 4.877 5.60054 50.3195 32.5526 51.1768C59.5043 50.3195 56.3507 4.877 56.1963 4.44824Z" fill="#CD7F32"/>
<path id="Vector_2" d="M58.3846 5.73162H6.67432C5.05168 5.73162 3.73633 4.44859 3.73633 2.86581C3.73633 1.28303 5.05168 0 6.67432 0H58.3846C60.0071 0 61.3225 1.28303 61.3225 2.86581C61.3225 4.44846 60.0071 5.73162 58.3846 5.73162Z" fill="#CD7F32"/>
<path id="Vector_3" d="M17.7529 43.3782C9.21239 41.0683 3.4651 34.6392 1.1328 24.7868C-0.587578 17.5193 0.154025 11.0098 0.18648 10.7362L0.353766 9.32666H12.4814V12.5361H3.16304C3.04983 14.7547 3.01801 19.3047 4.16827 24.1083C6.25422 32.8197 11.0889 38.2584 18.5387 40.2733L17.7529 43.3782Z" fill="#CD7F32"/>
<path id="Vector_4" d="M47.2487 43.3782L46.4629 40.2733C53.9381 38.2516 58.7795 32.7843 60.8535 24.0236C61.987 19.2347 61.9539 14.7366 61.8398 12.5361H52.5202V9.32666H64.6478L64.8149 10.7362C64.8474 11.0098 65.589 17.5193 63.8685 24.7868C61.5362 34.6392 55.7892 41.0682 47.2487 43.3782Z" fill="#CD7F32"/>
<path id="Vector_5" d="M38.8443 53.4285C37.7672 47.7967 37.3505 43.9225 37.2905 41.2573H30.9989C30.9388 43.9225 30.5222 47.7967 29.4451 53.4285C25.9315 71.8017 13.334 72.798 13.334 72.798V78.0001H54.9554V72.798C54.9554 72.798 42.3579 71.8017 38.8443 53.4285Z" fill="#CD7F32"/>
<path id="Vector_6" d="M58.9436 5.86252C58.9436 6.04187 47.1565 6.1872 32.6196 6.1872C18.0776 6.1872 6.29297 6.04187 6.29297 5.86252C6.29297 5.68341 18.0776 5.53809 32.6196 5.53809C47.1565 5.53809 58.9436 5.68341 58.9436 5.86252Z" fill="#263238"/>
<path id="Vector_7" d="M54.9554 72.7982C54.9554 72.9774 45.6374 73.1228 34.1457 73.1228C22.6501 73.1228 13.334 72.9774 13.334 72.7982C13.334 72.619 22.6501 72.4736 34.1457 72.4736C45.6374 72.4736 54.9554 72.619 54.9554 72.7982Z" fill="#263238"/>
<path id="Vector_8" d="M52.2231 35.4861C52.245 35.4929 52.2048 35.6682 52.1074 35.9969C52.004 36.3232 51.8699 36.8129 51.6361 37.422C51.1603 38.6348 50.3858 40.3785 49.0465 42.3208C47.6984 44.2391 45.8029 46.4079 43.1376 48.1268C40.5156 49.8737 37.1167 51.1531 33.4248 51.3282C29.7217 51.5072 26.2285 50.5028 23.4513 49.0024C20.6578 47.4966 18.5215 45.5562 17.0595 43.7035C15.5876 41.8522 14.7065 40.1441 14.2415 38.9237C13.9757 38.3257 13.8713 37.8239 13.7622 37.4999C13.6674 37.1703 13.6285 36.995 13.6505 36.9885C13.8169 36.9062 14.4357 39.8397 17.4261 43.4158C18.9015 45.1913 21.0165 47.0437 23.7436 48.4766C26.4567 49.905 29.8309 50.8519 33.3914 50.68C36.9515 50.5104 40.2343 49.2971 42.7982 47.6287C45.4028 45.989 47.2889 43.9073 48.6598 42.0591C51.3604 38.2805 52.0679 35.4169 52.2231 35.4861Z" fill="#263238"/>
<g id="Group_2" opacity="0.3">
<path id="Vector_9" d="M29.882 51.0354L29.4453 53.4283C29.4453 53.4283 34.3192 55.2028 38.8168 53.2833L38.2679 50.3091L29.882 51.0354Z" fill="#263238"/>
</g>
</g>
<g id="Group_3">
<path id="Vector_10" d="M34.4091 15.249L36.2602 18.9077C36.4314 19.2461 36.7623 19.4807 37.1451 19.5349L41.2846 20.1216C42.2485 20.2583 42.6335 21.4138 41.9359 22.0772L38.9407 24.9251C38.6637 25.1885 38.5373 25.568 38.6026 25.9399L39.3097 29.9613C39.4744 30.8978 38.4666 31.6121 37.6044 31.1699L33.9021 29.2713C33.5596 29.0957 33.1506 29.0957 32.8081 29.2713L29.1058 31.1699C28.2435 31.6121 27.2357 30.8978 27.4004 29.9613L28.1075 25.9399C28.1729 25.568 28.0464 25.1885 27.7694 24.9251L24.7742 22.0772C24.0766 21.4138 24.4615 20.2583 25.4256 20.1216L29.5649 19.5349C29.9477 19.4807 30.2787 19.2461 30.4499 18.9077L32.3011 15.249C32.7323 14.3968 33.9779 14.3968 34.4091 15.249Z" fill="white"/>
</g>
</g>
</svg>
