<svg width="224" height="94" viewBox="0 0 224 94" fill="none" xmlns="http://www.w3.org/2000/svg">
<g clip-path="url(#clip0_43_2072)">
<path d="M206.09 19.1452C204.916 19.1452 202.499 16.7245 202.499 15.5481C202.499 14.4339 204.916 12.0132 206.09 12.0132C207.264 12.0132 209.681 14.4339 209.681 15.5481C209.681 16.7245 207.264 19.1452 206.09 19.1452Z" fill="#F1F2F2"/>
<path d="M14.8377 19.4844V35.2698C14.8377 39.1214 14.8377 40.8917 18.0672 40.8917C18.8633 40.8917 19.8683 40.8691 20.8169 40.8465C22.5389 40.8012 23.9843 42.136 24.0859 43.861L24.3738 48.9795C24.3738 48.9795 19.2247 50.1333 16.5315 50.1333C7.23255 50.1333 4.5394 46.5928 4.5394 35.5017V19.4844H0V10.7065H4.53375V0H11.6477C13.4093 0 14.8321 1.43093 14.8321 3.18989V10.7008H21.0992C22.8607 10.7008 24.2835 12.1318 24.2835 13.8907V19.4787H14.8264L14.8377 19.4844Z" fill="#F1F2F2"/>
<path d="M63.959 13.9304V49.2058H53.734V47.0509C53.734 47.0509 48.201 50.1334 44.1245 50.1334C32.9003 50.1334 30.5967 43.895 30.5967 30.8809V10.7065H37.6768C39.4553 10.7065 40.9007 12.1544 40.9007 13.936V31.0393C40.9007 37.8941 41.2055 40.8974 46.2813 40.8974C50.1262 40.8974 53.6606 39.5117 53.6606 39.5117V10.7065H60.7408C62.5192 10.7065 63.9646 12.1544 63.9646 13.936L63.959 13.9304Z" fill="#F1F2F2"/>
<path d="M100.163 11.4758L99.9706 16.5152C99.9085 18.2006 98.4518 19.4958 96.7749 19.3544C94.8327 19.1904 92.4049 19.0207 90.8579 19.0207C83.4786 19.0207 82.0953 21.8713 82.0953 29.5689C82.0953 38.194 83.5576 40.8862 90.937 40.8862C92.4727 40.8862 94.8553 40.7165 96.7693 40.5525C98.4518 40.4111 99.9085 41.7063 99.9706 43.3917L100.163 48.5046C100.163 48.5046 91.9363 50.1222 87.634 50.1222C76.1783 50.1222 71.6445 44.0365 71.6445 29.5632C71.6445 15.9326 76.4098 9.77344 87.8655 9.77344C92.3259 9.77344 100.163 11.4702 100.163 11.4702V11.4758Z" fill="#F1F2F2"/>
<path d="M140.752 12.8614V47.0509C140.752 48.2443 139.787 49.2058 138.601 49.2058H132.684C131.493 49.2058 130.533 48.2387 130.533 47.0509C130.533 47.0509 125 50.1334 120.923 50.1334C109.699 50.1334 107.396 43.895 107.396 30.8809V10.7065H115.543C116.734 10.7065 117.694 11.6737 117.694 12.8614V31.0336C117.694 37.8885 117.999 40.8917 123.074 40.8917C126.919 40.8917 130.454 39.5061 130.454 39.5061V10.7065H138.601C139.792 10.7065 140.752 11.6737 140.752 12.8614Z" fill="#F1F2F2"/>
<path d="M150.284 10.7066H158.431C159.577 10.7066 160.509 11.6398 160.509 12.7879C160.509 12.7879 165.506 9.78467 169.272 9.78467C179.417 9.78467 184.414 15.3274 184.414 29.6536C184.414 46.0555 178.723 50.1391 166.962 50.1391C164.117 50.1391 160.582 49.5226 160.582 49.5226V65.3872H150.278V10.7066H150.284ZM160.582 20.559V40.7334C160.582 40.7334 164.043 41.1972 166.194 41.1972C172.343 41.1972 173.958 37.8093 173.958 29.648C173.958 21.4866 171.344 19.0206 167.267 19.0206C164.117 19.0206 160.582 20.559 160.582 20.559Z" fill="#F1F2F2"/>
<path d="M198.52 12.4992L205.092 40.4278H206.859L213.431 12.4992C213.68 11.4473 214.617 10.7007 215.695 10.7007H224.001L210.472 65.3757H200.4L204.629 49.2056H197.402L187.944 10.7007H196.25C197.328 10.7007 198.266 11.4416 198.514 12.4992H198.52Z" fill="#F1F2F2"/>
<path d="M11.8417 75.4506V77.1551H5.05762V75.4506H11.8417ZM7.03489 72.3142H9.04625V84.7915C9.04625 85.3597 9.12864 85.7858 9.29341 86.0699C9.46387 86.3483 9.67978 86.5358 9.94114 86.6324C10.2082 86.7233 10.4894 86.7688 10.7849 86.7688C11.0065 86.7688 11.1883 86.7574 11.3303 86.7347C11.4724 86.7063 11.586 86.6835 11.6713 86.6665L12.0803 88.4733C11.944 88.5245 11.7536 88.5756 11.5093 88.6267C11.265 88.6835 10.9553 88.712 10.5803 88.712C10.0122 88.712 9.45534 88.5898 8.90989 88.3455C8.37012 88.1012 7.92125 87.729 7.5633 87.229C7.21103 86.729 7.03489 86.0983 7.03489 85.337V72.3142ZM20.2153 88.8142C18.9539 88.8142 17.8659 88.5358 16.9511 87.979C16.042 87.4165 15.3403 86.6324 14.846 85.6267C14.3573 84.6154 14.113 83.4392 14.113 82.0983C14.113 80.7574 14.3573 79.5756 14.846 78.5529C15.3403 77.5245 16.0278 76.7233 16.9085 76.1495C17.7948 75.5699 18.8289 75.2801 20.0107 75.2801C20.6926 75.2801 21.3659 75.3938 22.0306 75.621C22.6954 75.8483 23.3005 76.2176 23.846 76.729C24.3914 77.2347 24.8261 77.9051 25.1499 78.7404C25.4738 79.5756 25.6357 80.604 25.6357 81.8256V82.6779H15.5448V80.9392H23.5903C23.5903 80.2006 23.4426 79.5415 23.1471 78.962C22.8573 78.3824 22.4426 77.925 21.9028 77.5898C21.3687 77.2546 20.738 77.087 20.0107 77.087C19.2096 77.087 18.5164 77.2858 17.9312 77.6835C17.3517 78.0756 16.9056 78.587 16.5931 79.2176C16.2806 79.8483 16.1244 80.5245 16.1244 81.246V82.4051C16.1244 83.3938 16.2948 84.2318 16.6357 84.9193C16.9823 85.6012 17.4624 86.121 18.0761 86.479C18.6897 86.8313 19.4028 87.0074 20.2153 87.0074C20.7437 87.0074 21.221 86.9335 21.6471 86.7858C22.0789 86.6324 22.4511 86.4051 22.7636 86.104C23.0761 85.7972 23.3176 85.4165 23.488 84.962L25.4312 85.5074C25.2267 86.1665 24.8829 86.746 24.3999 87.246C23.917 87.7404 23.3204 88.1267 22.6102 88.4051C21.8999 88.6779 21.1017 88.8142 20.2153 88.8142ZM34.0136 88.8142C32.7863 88.8142 31.7295 88.5245 30.8431 87.9449C29.9568 87.3654 29.2749 86.5671 28.7977 85.55C28.3204 84.533 28.0818 83.371 28.0818 82.0642C28.0818 80.7347 28.3261 79.5614 28.8147 78.5443C29.309 77.5216 29.9965 76.7233 30.8772 76.1495C31.7636 75.5699 32.7977 75.2801 33.9795 75.2801C34.8999 75.2801 35.7295 75.4506 36.4681 75.7915C37.2068 76.1324 37.8119 76.6097 38.2835 77.2233C38.7551 77.837 39.0477 78.5529 39.1613 79.371H37.1499C36.9965 78.7745 36.6556 78.246 36.1272 77.7858C35.6045 77.3199 34.8999 77.087 34.0136 77.087C33.2295 77.087 32.542 77.2915 31.9511 77.7006C31.3659 78.104 30.9085 78.675 30.5789 79.4137C30.2551 80.1466 30.0931 81.0074 30.0931 81.996C30.0931 83.0074 30.2522 83.8881 30.5704 84.6381C30.8943 85.3881 31.3488 85.9705 31.934 86.3853C32.5249 86.8 33.2181 87.0074 34.0136 87.0074C34.5363 87.0074 35.0107 86.9165 35.4369 86.7347C35.863 86.5529 36.2238 86.2915 36.5193 85.9506C36.8147 85.6097 37.0249 85.2006 37.1499 84.7233H39.1613C39.0477 85.496 38.7664 86.1921 38.3176 86.8114C37.8744 87.425 37.2863 87.9137 36.5534 88.2773C35.8261 88.6353 34.9795 88.8142 34.0136 88.8142ZM44.113 80.6665V88.5415H42.1017V75.4506H44.0448V77.496H44.2153C44.5221 76.8313 44.988 76.2972 45.613 75.8938C46.238 75.4847 47.0448 75.2801 48.0335 75.2801C48.9198 75.2801 49.6954 75.462 50.3602 75.8256C51.0249 76.1835 51.542 76.729 51.9113 77.462C52.2806 78.1892 52.4653 79.1097 52.4653 80.2233V88.5415H50.4539V80.3597C50.4539 79.3313 50.1869 78.5301 49.6528 77.9563C49.1187 77.3767 48.3857 77.087 47.4539 77.087C46.8119 77.087 46.238 77.2262 45.7323 77.5046C45.2323 77.783 44.8374 78.1892 44.5477 78.7233C44.2579 79.2574 44.113 79.9051 44.113 80.6665ZM61.4589 88.8142C60.2771 88.8142 59.2401 88.533 58.3481 87.9705C57.4617 87.408 56.7686 86.621 56.2686 85.6097C55.7742 84.5983 55.5271 83.4165 55.5271 82.0642C55.5271 80.7006 55.7742 79.5103 56.2686 78.4932C56.7686 77.4762 57.4617 76.6864 58.3481 76.1239C59.2401 75.5614 60.2771 75.2801 61.4589 75.2801C62.6407 75.2801 63.6748 75.5614 64.5612 76.1239C65.4532 76.6864 66.1464 77.4762 66.6407 78.4932C67.1407 79.5103 67.3907 80.7006 67.3907 82.0642C67.3907 83.4165 67.1407 84.5983 66.6407 85.6097C66.1464 86.621 65.4532 87.408 64.5612 87.9705C63.6748 88.533 62.6407 88.8142 61.4589 88.8142ZM61.4589 87.0074C62.3566 87.0074 63.0953 86.7773 63.6748 86.3171C64.2544 85.8568 64.6833 85.2517 64.9617 84.5017C65.2401 83.7517 65.3794 82.9392 65.3794 82.0642C65.3794 81.1892 65.2401 80.3739 64.9617 79.6182C64.6833 78.8625 64.2544 78.2517 63.6748 77.7858C63.0953 77.3199 62.3566 77.087 61.4589 77.087C60.5612 77.087 59.8225 77.3199 59.243 77.7858C58.6634 78.2517 58.2345 78.8625 57.9561 79.6182C57.6776 80.3739 57.5384 81.1892 57.5384 82.0642C57.5384 82.9392 57.6776 83.7517 57.9561 84.5017C58.2345 85.2517 58.6634 85.8568 59.243 86.3171C59.8225 86.7773 60.5612 87.0074 61.4589 87.0074ZM72.4724 71.087V88.5415H70.461V71.087H72.4724ZM81.4745 88.8142C80.2927 88.8142 79.2558 88.533 78.3637 87.9705C77.4774 87.408 76.7842 86.621 76.2842 85.6097C75.7899 84.5983 75.5427 83.4165 75.5427 82.0642C75.5427 80.7006 75.7899 79.5103 76.2842 78.4932C76.7842 77.4762 77.4774 76.6864 78.3637 76.1239C79.2558 75.5614 80.2927 75.2801 81.4745 75.2801C82.6563 75.2801 83.6904 75.5614 84.5768 76.1239C85.4688 76.6864 86.162 77.4762 86.6563 78.4932C87.1563 79.5103 87.4063 80.7006 87.4063 82.0642C87.4063 83.4165 87.1563 84.5983 86.6563 85.6097C86.162 86.621 85.4688 87.408 84.5768 87.9705C83.6904 88.533 82.6563 88.8142 81.4745 88.8142ZM81.4745 87.0074C82.3722 87.0074 83.1109 86.7773 83.6904 86.3171C84.27 85.8568 84.699 85.2517 84.9774 84.5017C85.2558 83.7517 85.395 82.9392 85.395 82.0642C85.395 81.1892 85.2558 80.3739 84.9774 79.6182C84.699 78.8625 84.27 78.2517 83.6904 77.7858C83.1109 77.3199 82.3722 77.087 81.4745 77.087C80.5768 77.087 79.8382 77.3199 79.2586 77.7858C78.6791 78.2517 78.2501 78.8625 77.9717 79.6182C77.6933 80.3739 77.5541 81.1892 77.5541 82.0642C77.5541 82.9392 77.6933 83.7517 77.9717 84.5017C78.2501 85.2517 78.6791 85.8568 79.2586 86.3171C79.8382 86.7773 80.5768 87.0074 81.4745 87.0074ZM95.7607 93.7233C94.7892 93.7233 93.9539 93.5983 93.2551 93.3483C92.5562 93.104 91.9738 92.7801 91.5079 92.3767C91.0477 91.979 90.6812 91.5529 90.4085 91.0983L92.0107 89.9733C92.1926 90.212 92.4227 90.4847 92.7011 90.7915C92.9795 91.104 93.3602 91.3739 93.8431 91.6012C94.3318 91.8341 94.971 91.9506 95.7607 91.9506C96.8176 91.9506 97.6897 91.6949 98.3772 91.1835C99.0647 90.6722 99.4085 89.871 99.4085 88.7801V86.121H99.238C99.0903 86.3597 98.8801 86.6551 98.6073 87.0074C98.3403 87.354 97.9539 87.6637 97.4482 87.9364C96.9482 88.2034 96.2721 88.337 95.4198 88.337C94.363 88.337 93.4142 88.087 92.5732 87.587C91.738 87.087 91.0761 86.3597 90.5874 85.4051C90.1045 84.4506 89.863 83.2915 89.863 81.9279C89.863 80.587 90.0988 79.4193 90.5704 78.425C91.042 77.425 91.6982 76.6523 92.5392 76.1068C93.3801 75.5557 94.3517 75.2801 95.4539 75.2801C96.3062 75.2801 96.9823 75.4222 97.4823 75.7063C97.988 75.9847 98.3744 76.3029 98.6414 76.6608C98.9142 77.0131 99.1244 77.3029 99.2721 77.5301H99.4767V75.4506H101.42V88.9165C101.42 90.0415 101.164 90.9563 100.653 91.6608C100.147 92.371 99.4653 92.8909 98.6073 93.2205C97.7551 93.5557 96.8062 93.7233 95.7607 93.7233ZM95.6926 86.5301C96.4994 86.5301 97.1812 86.3455 97.738 85.9762C98.2948 85.6068 98.7181 85.0756 99.0079 84.3824C99.2977 83.6892 99.4426 82.8597 99.4426 81.8938C99.4426 80.9506 99.3005 80.1182 99.0164 79.3966C98.7323 78.675 98.3119 78.1097 97.7551 77.7006C97.1982 77.2915 96.5107 77.087 95.6926 77.087C94.8403 77.087 94.1301 77.3029 93.5619 77.7347C92.9994 78.1665 92.5761 78.746 92.292 79.4733C92.0136 80.2006 91.8744 81.0074 91.8744 81.8938C91.8744 82.8029 92.0164 83.6068 92.3005 84.3057C92.5903 84.9989 93.0164 85.5443 93.5789 85.9421C94.1471 86.3341 94.8517 86.5301 95.6926 86.5301ZM105.102 88.5415V75.4506H107.113V88.5415H105.102ZM106.124 73.2688C105.732 73.2688 105.394 73.1353 105.11 72.8682C104.832 72.6012 104.693 72.2801 104.693 71.9051C104.693 71.5301 104.832 71.2091 105.11 70.9421C105.394 70.675 105.732 70.5415 106.124 70.5415C106.516 70.5415 106.852 70.675 107.13 70.9421C107.414 71.2091 107.556 71.5301 107.556 71.9051C107.556 72.2801 107.414 72.6012 107.13 72.8682C106.852 73.1353 106.516 73.2688 106.124 73.2688ZM114.649 88.8483C113.82 88.8483 113.067 88.6921 112.391 88.3796C111.715 88.0614 111.178 87.604 110.78 87.0074C110.382 86.4051 110.183 85.6779 110.183 84.8256C110.183 84.0756 110.331 83.4676 110.627 83.0017C110.922 82.5301 111.317 82.1608 111.811 81.8938C112.305 81.6267 112.851 81.4279 113.448 81.2972C114.05 81.1608 114.655 81.0529 115.263 80.9733C116.058 80.871 116.703 80.7943 117.198 80.7432C117.698 80.6864 118.061 80.5926 118.288 80.462C118.521 80.3313 118.638 80.104 118.638 79.7801V79.712C118.638 78.871 118.408 78.2176 117.948 77.7517C117.493 77.2858 116.803 77.0529 115.877 77.0529C114.916 77.0529 114.163 77.2631 113.618 77.6835C113.073 78.104 112.689 78.5529 112.467 79.0301L110.558 78.3483C110.899 77.5529 111.354 76.9335 111.922 76.4904C112.496 76.0415 113.121 75.729 113.797 75.5529C114.479 75.371 115.149 75.2801 115.808 75.2801C116.229 75.2801 116.712 75.3313 117.257 75.4335C117.808 75.5301 118.34 75.7318 118.851 76.0387C119.368 76.3455 119.797 76.8085 120.138 77.4279C120.479 78.0472 120.649 78.8767 120.649 79.9165V88.5415H118.638V86.7688H118.536C118.399 87.0529 118.172 87.3568 117.854 87.6807C117.536 88.0046 117.112 88.2801 116.584 88.5074C116.055 88.7347 115.411 88.8483 114.649 88.8483ZM114.956 87.0415C115.752 87.0415 116.422 86.8853 116.967 86.5728C117.519 86.2603 117.933 85.8568 118.212 85.3625C118.496 84.8682 118.638 84.3483 118.638 83.8029V81.962C118.553 82.0642 118.365 82.158 118.075 82.2432C117.791 82.3228 117.462 82.3938 117.087 82.4563C116.717 82.5131 116.357 82.5642 116.004 82.6097C115.658 82.6495 115.377 82.6835 115.161 82.712C114.638 82.7801 114.149 82.8909 113.695 83.0443C113.246 83.1921 112.882 83.4165 112.604 83.7176C112.331 84.0131 112.195 84.4165 112.195 84.9279C112.195 85.6267 112.453 86.1551 112.97 86.5131C113.493 86.8654 114.155 87.0415 114.956 87.0415Z" fill="#F1F2F2"/>
</g>
<defs>
<clipPath id="clip0_43_2072">
<rect width="224" height="94" fill="white"/>
</clipPath>
</defs>
</svg>
