<svg width="281" height="59" viewBox="0 0 281 59" fill="none" xmlns="http://www.w3.org/2000/svg">
<g clip-path="url(#clip0_947_36682)">
<path fill-rule="evenodd" clip-rule="evenodd" d="M70.1334 2.29804V4.52184H83.2256H96.3173L96.317 5.78203V7.04221L90.373 9.08397C87.104 10.2069 84.2482 11.2194 84.0265 11.3342C83.7781 11.4629 84.8064 12.0265 86.711 12.8052L89.7985 14.0677L93.1332 12.9581C100.213 10.6027 100.982 9.90675 100.982 5.85614C100.982 3.1336 100.424 1.86069 98.7396 0.742254C98.0834 0.306596 97.3132 0.0742188 96.5255 0.0742188H83.9334H70.1334V2.29804ZM111.366 13.5654V22.5011C111.366 25.017 113.434 27.0566 115.985 27.0566H126.865H142.365V24.8328V22.6089H129.273H116.181V19.2026V15.7963L127.693 15.7186L139.205 15.641L139.293 13.4913L139.382 11.3416H127.781H116.181V7.93172V4.52184H129.273H142.365V2.29804V0.0742188H126.865H115.985C113.434 0.0742188 111.366 2.11377 111.366 4.62967V13.5654ZM152.899 13.5654V27.0566H155.306H157.714V17.2652V7.47393L162.43 11.201L167.147 14.9279L168.75 13.3673C169.633 12.5089 170.355 11.7211 170.355 11.6165C170.355 11.5118 167.181 8.87196 163.303 5.75031L157.527 1.10061C156.702 0.436789 155.671 0.0742188 154.606 0.0742188H154.575C153.649 0.0742188 152.899 0.814517 152.899 1.72772V13.5654ZM181.189 10.0073C181.189 15.4705 181.121 19.9403 181.038 19.9403C180.954 19.9403 179.241 18.6108 177.23 16.9859L173.574 14.0312L172.491 14.8807C171.895 15.348 171.099 16.057 170.721 16.4561L170.034 17.1819L176.261 22.1191L181.22 26.0513C182.041 26.7019 183.062 27.0566 184.115 27.0566H184.246C185.217 27.0566 186.005 26.2801 186.005 25.3223V13.5654V0.0742188H183.597H181.189V10.0073ZM197.441 13.5654V27.0566H199.849H202.256V13.5654V0.0742188H199.849H197.441V13.5654ZM210.144 2.22391L210.232 4.37362L216.477 4.45365L222.722 4.534V15.7951V27.0566H225.13H227.537V15.7892V4.52184H233.707H239.877V2.29804V0.0742188H224.966H210.055L210.144 2.22391ZM248.003 13.5654V27.0566H250.335H252.668L252.682 13.5654L252.697 0.0742188H250.35H248.003V13.5654ZM275.391 5.70791V11.3416H265.911H256.43V13.5654V15.7892H265.911H275.391V21.4229V27.0566H277.799H280.206V13.5654V0.0742188H277.799H275.391V5.70791ZM74.046 14.7194C68.5099 16.7185 68.2175 17.0325 68.0882 21.1264C67.9872 24.3228 68.4087 25.3858 70.2063 26.4651C71.1468 27.0305 71.7473 27.0545 84.956 27.0554L98.7251 27.0566V24.8328V22.6089H85.7836H72.8421V21.3046V20.0005L75.0242 19.2246C76.2245 18.7979 78.8753 17.8731 80.9152 17.1692L84.6248 15.8894L81.5868 14.6533C79.916 13.9734 78.3145 13.429 78.0281 13.4435C77.7418 13.4578 75.9498 14.0321 74.046 14.7194Z" fill="white"/>
<path fill-rule="evenodd" clip-rule="evenodd" d="M68.0742 50.7113V59.2966H69.697H71.3202V50.7113V42.126H69.697H68.0742V50.7113ZM78.5334 50.7113V59.2966H80.1561H81.7793V53.1593V47.022L89.6669 53.1593C96.6257 58.574 97.7087 59.2966 98.8636 59.2966H100.173V50.7113V42.126H98.3778H96.5827L96.4843 48.3046L96.3858 54.4836L88.6318 48.3119C82.1506 43.1538 80.6849 42.1393 79.7052 42.1333L78.5334 42.126V50.7113ZM109.898 42.4133C108.76 42.9039 107.822 43.7397 107.076 44.9293C106.396 46.0128 106.306 46.6807 106.305 50.6636C106.304 54.5775 106.402 55.3393 107.05 56.4456C108.551 59.0099 108.896 59.1087 116.77 59.2286C123.618 59.333 123.843 59.3137 125.032 58.5278C127.575 56.8464 127.763 56.3082 127.763 50.7113C127.763 45.1256 127.572 44.5744 125.062 42.9144C123.927 42.1638 123.546 42.127 117.161 42.1505C113.47 42.1642 110.202 42.2823 109.898 42.4133ZM132.867 43.1401C133.234 43.698 135.887 47.5547 138.763 51.7103C143.624 58.7338 144.069 59.2664 145.075 59.2703C146.085 59.2741 146.539 58.725 151.927 50.9899C155.101 46.4333 157.752 42.5749 157.818 42.4158C157.884 42.2563 157.073 42.1323 156.014 42.1403L154.091 42.1547L149.609 48.6231C147.144 52.1806 145.103 55.0915 145.073 55.0915C145.043 55.0915 143.01 52.1743 140.557 48.6088L136.095 42.126H134.148H132.201L132.867 43.1401ZM166.81 50.6938L160.822 59.2966H162.773H164.723L166.04 57.3693L167.357 55.4419H173.794H180.232L181.548 57.3693L182.865 59.2966H184.81H186.754L180.832 50.7989C175.558 43.2298 174.795 42.2896 173.854 42.1961C172.846 42.0962 172.521 42.489 166.81 50.6938ZM110.435 45.7896C109.597 46.6036 109.55 46.8661 109.55 50.7113C109.55 54.5564 109.597 54.8189 110.435 55.6329C111.299 56.4729 111.454 56.4932 116.951 56.4932C120.047 56.4932 122.878 56.3387 123.241 56.1501C124.234 55.6336 124.697 53.9033 124.697 50.7113C124.697 47.5193 124.234 45.7889 123.241 45.2724C122.878 45.0839 120.047 44.9293 116.951 44.9293C111.454 44.9293 111.299 44.9497 110.435 45.7896ZM172.207 48.5019C171.324 49.7171 170.317 51.1451 169.969 51.6749L169.336 52.6386H173.705C176.108 52.6386 178.075 52.5762 178.075 52.5002C178.075 52.4241 177.116 50.9962 175.943 49.3271L173.812 46.2921L172.207 48.5019Z" fill="white"/>
<path fill-rule="evenodd" clip-rule="evenodd" d="M0.5 7.8347C0.5 3.50771 4.05685 0 8.44447 0H52.6063C56.9939 0 60.5508 3.50771 60.5508 7.8347V51.8471C60.5508 56.1741 56.9939 59.6818 52.6063 59.6818H8.44447C4.05685 59.6818 0.5 56.1741 0.5 51.8471V7.8347ZM37.2681 13.3651L51.7158 23.543C54.7123 25.6538 53.1958 30.3073 49.5114 30.3073H34.3088C39.6822 27.8519 36.4892 23.0229 34.3088 23.0229H21.4578L7.6449 13.3651H37.2681ZM8.89371 36.2198L23.1308 46.3168H53.6769L40.8115 37.1905H26.8406C24.6305 37.1905 21.3944 32.6275 26.8406 30.3073H10.8313C7.61289 30.3073 6.28225 34.3679 8.89371 36.2198Z" fill="white"/>
</g>
<defs>
<clipPath id="clip0_947_36682">
<rect width="280" height="59" fill="white" transform="translate(0.5)"/>
</clipPath>
</defs>
</svg>
