<svg width="41" height="40" viewBox="0 0 41 40" fill="none" xmlns="http://www.w3.org/2000/svg">
<path d="M30.9578 7.19249C30.493 7.19249 30.0387 7.33032 29.6522 7.58854C29.2658 7.84676 28.9646 8.21378 28.7867 8.64318C28.6088 9.07259 28.5623 9.5451 28.653 10.001C28.7437 10.4568 28.9675 10.8755 29.2961 11.2042C29.6248 11.5328 30.0435 11.7567 30.4994 11.8473C30.9552 11.938 31.4277 11.8915 31.8571 11.7136C32.2865 11.5357 32.6536 11.2345 32.9118 10.8481C33.17 10.4616 33.3078 10.0073 33.3078 9.54249C33.3078 8.91923 33.0602 8.3215 32.6195 7.88079C32.1788 7.44008 31.5811 7.19249 30.9578 7.19249ZM39.9662 11.9317C39.9281 10.3068 39.6238 8.69924 39.0653 7.17291C38.5674 5.86696 37.7924 4.68441 36.7937 3.70666C35.8239 2.70287 34.6386 1.93275 33.3274 1.45457C31.8051 0.879138 30.1957 0.567859 28.5687 0.534156C26.4928 0.416656 25.827 0.416656 20.5003 0.416656C15.1737 0.416656 14.5078 0.416656 12.432 0.534156C10.8049 0.567859 9.19554 0.879138 7.67324 1.45457C6.36444 1.93759 5.18015 2.70705 4.20699 3.70666C3.2032 4.67638 2.43309 5.86168 1.95491 7.17291C1.37947 8.6952 1.0682 10.3046 1.03449 11.9317C0.916992 14.0075 0.916992 14.6733 0.916992 20C0.916992 25.3267 0.916992 25.9925 1.03449 28.0683C1.0682 29.6954 1.37947 31.3048 1.95491 32.8271C2.43309 34.1383 3.2032 35.3236 4.20699 36.2933C5.18015 37.2929 6.36444 38.0624 7.67324 38.5454C9.19554 39.1208 10.8049 39.4321 12.432 39.4658C14.5078 39.5833 15.1737 39.5833 20.5003 39.5833C25.827 39.5833 26.4928 39.5833 28.5687 39.4658C30.1957 39.4321 31.8051 39.1208 33.3274 38.5454C34.6386 38.0672 35.8239 37.2971 36.7937 36.2933C37.7968 35.3192 38.5725 34.1356 39.0653 32.8271C39.6238 31.3007 39.9281 29.6932 39.9662 28.0683C39.9662 25.9925 40.0837 25.3267 40.0837 20C40.0837 14.6733 40.0837 14.0075 39.9662 11.9317ZM36.4412 27.8333C36.4269 29.0764 36.2018 30.3081 35.7753 31.4758C35.4626 32.3281 34.9604 33.0982 34.3066 33.7279C33.6714 34.3751 32.9029 34.8763 32.0545 35.1967C30.8867 35.6231 29.6551 35.8482 28.412 35.8625C26.4537 35.9604 25.7291 35.98 20.5787 35.98C15.4282 35.98 14.7037 35.98 12.7453 35.8625C11.4546 35.8867 10.1693 35.6879 8.94616 35.275C8.13498 34.9383 7.40173 34.4384 6.79199 33.8062C6.142 33.1771 5.64606 32.4064 5.34283 31.5542C4.86471 30.3697 4.59953 29.11 4.55949 27.8333C4.55949 25.875 4.44199 25.1504 4.44199 20C4.44199 14.8496 4.44199 14.125 4.55949 12.1667C4.56827 10.8958 4.80027 9.63638 5.24491 8.44582C5.58967 7.61923 6.11884 6.8824 6.79199 6.29166C7.38696 5.61832 8.12226 5.08355 8.94616 4.72499C10.1399 4.29424 11.398 4.0691 12.667 4.05916C14.6253 4.05916 15.3499 3.94166 20.5003 3.94166C25.6507 3.94166 26.3753 3.94166 28.3337 4.05916C29.5768 4.07341 30.8084 4.29856 31.9762 4.72499C32.8661 5.05527 33.6648 5.59223 34.3066 6.29166C34.9483 6.89321 35.4498 7.62867 35.7753 8.44582C36.2106 9.63832 36.4358 10.8972 36.4412 12.1667C36.5391 14.125 36.5587 14.8496 36.5587 20C36.5587 25.1504 36.5391 25.875 36.4412 27.8333ZM20.5003 9.95374C18.5142 9.95761 16.5738 10.5501 14.9243 11.6564C13.2748 12.7626 11.9901 14.333 11.2328 16.169C10.4754 18.0051 10.2792 20.0244 10.6691 21.9719C11.0589 23.9194 12.0173 25.7076 13.4231 27.1107C14.8288 28.5137 16.6189 29.4686 18.5672 29.8546C20.5154 30.2407 22.5344 30.0406 24.3689 29.2796C26.2035 28.5187 27.7714 27.231 28.8744 25.5793C29.9774 23.9277 30.5662 21.9861 30.5662 20C30.5687 18.6783 30.31 17.3692 29.8048 16.1479C29.2997 14.9265 28.558 13.8172 27.6225 12.8835C26.6871 11.9499 25.5762 11.2104 24.3539 10.7076C23.1316 10.2048 21.822 9.94857 20.5003 9.95374ZM20.5003 26.5212C19.2105 26.5212 17.9497 26.1388 16.8773 25.4222C15.8049 24.7056 14.9691 23.6872 14.4755 22.4956C13.9819 21.304 13.8528 19.9928 14.1044 18.7278C14.356 17.4628 14.9771 16.3008 15.8891 15.3888C16.8011 14.4768 17.9631 13.8557 19.2281 13.604C20.4931 13.3524 21.8043 13.4816 22.9959 13.9751C24.1875 14.4687 25.206 15.3046 25.9225 16.377C26.6391 17.4494 27.0216 18.7102 27.0216 20C27.0216 20.8564 26.8529 21.7044 26.5252 22.4956C26.1975 23.2868 25.7171 24.0057 25.1115 24.6112C24.506 25.2168 23.7871 25.6971 22.9959 26.0248C22.2047 26.3526 21.3567 26.5212 20.5003 26.5212Z" fill="white"/>
</svg>
