<svg width="41" height="40" viewBox="0 0 41 40" fill="none" xmlns="http://www.w3.org/2000/svg">
<path d="M34.2854 33.7932H28.4854V24.7049C28.4854 22.5376 28.4414 19.7486 25.4631 19.7486C22.4391 19.7486 21.9772 22.1068 21.9772 24.5449V33.7932H16.1773V15.1041H21.7488V17.6516H21.8238C22.6023 16.1828 24.4953 14.6325 27.3235 14.6325C33.2001 14.6325 34.287 18.5002 34.287 23.5347L34.2854 33.7932ZM9.62668 12.5469C9.18422 12.5471 8.74607 12.46 8.33729 12.2907C7.92851 12.1214 7.55714 11.8731 7.24443 11.5601C6.93172 11.2471 6.6838 10.8755 6.51488 10.4665C6.34595 10.0576 6.25933 9.61936 6.25998 9.1769C6.2603 8.51071 6.45817 7.85957 6.82855 7.30583C7.19894 6.75209 7.72521 6.32062 8.34081 6.06598C8.95642 5.81133 9.63371 5.74496 10.287 5.87524C10.9404 6.00553 11.5404 6.32662 12.0112 6.79792C12.4821 7.26922 12.8026 7.86955 12.9322 8.52301C13.0619 9.17646 12.9949 9.85369 12.7396 10.469C12.4844 11.0844 12.0524 11.6103 11.4983 11.9801C10.9442 12.35 10.2929 12.5472 9.62668 12.5469ZM12.5348 33.7932H6.71855V15.1041H12.5348V33.7932ZM37.187 0.416626H3.80717C2.20949 0.416626 0.916992 1.67975 0.916992 3.23826V36.7617C0.916992 38.3218 2.20949 39.5833 3.80717 39.5833H37.1821C38.7781 39.5833 40.0837 38.3218 40.0837 36.7617V3.23826C40.0837 1.67975 38.7781 0.416626 37.1821 0.416626H37.187Z" fill="white"/>
</svg>
