<svg width="47" height="46" viewBox="0 0 47 46" fill="none" xmlns="http://www.w3.org/2000/svg">
<g id="TwitterLogo">
<path id="Vector" d="M44.4548 13.9544L39.0821 19.327C37.9968 31.9087 27.3863 41.6873 14.6877 41.6873C12.0787 41.6873 9.92782 41.2741 8.29446 40.4583C6.97735 39.7988 6.43829 39.0926 6.30352 38.8914C6.18336 38.7112 6.10547 38.5061 6.07568 38.2916C6.04589 38.0771 6.06497 37.8586 6.13149 37.6524C6.19802 37.4463 6.31026 37.2578 6.45984 37.1012C6.60943 36.9445 6.79248 36.8237 6.99532 36.7477C7.04204 36.7298 11.3509 35.0748 14.0876 31.9249C12.5699 30.6771 11.2451 29.2118 10.156 27.5765C7.9279 24.2684 5.43384 18.522 6.2029 9.93476C6.22727 9.6619 6.32911 9.40168 6.49642 9.18475C6.66373 8.96783 6.88954 8.80323 7.14726 8.71034C7.40498 8.61744 7.68388 8.60013 7.95111 8.66043C8.21834 8.72073 8.46278 8.85613 8.65563 9.0507C8.71852 9.11359 14.6356 14.9984 21.8699 16.9066V15.8123C21.8671 14.6648 22.094 13.5284 22.5371 12.4699C22.9803 11.4114 23.6307 10.4523 24.4502 9.64906C25.246 8.85434 26.1929 8.22708 27.2351 7.80428C28.2773 7.38148 29.3936 7.17171 30.5182 7.18734C32.0268 7.20222 33.5059 7.60718 34.8116 8.36286C36.1174 9.11854 37.2054 10.1992 37.9699 11.4998H43.4377C43.7222 11.4996 44.0004 11.5838 44.237 11.7417C44.4736 11.8997 44.658 12.1243 44.7669 12.3871C44.8758 12.6499 44.9043 12.9391 44.8487 13.2181C44.7931 13.4971 44.656 13.7533 44.4548 13.9544Z" fill="white"/>
</g>
</svg>
