<svg width="32" height="33" viewBox="0 0 32 33" fill="none" xmlns="http://www.w3.org/2000/svg">
<g id="XLogo">
<path id="Vector" d="M30.5079 30.5607L19.9931 14.0359L30.3685 2.62242C30.6031 2.35791 30.7241 2.01157 30.7051 1.65849C30.6861 1.3054 30.5287 0.974036 30.267 0.736227C30.0053 0.498418 29.6605 0.373334 29.3072 0.388095C28.9539 0.402855 28.6207 0.55627 28.3797 0.815078L18.4965 11.686L11.6954 0.998164C11.5741 0.807275 11.4066 0.650083 11.2084 0.541151C11.0103 0.432219 10.7878 0.37507 10.5616 0.375H2.49912C2.25818 0.374883 2.02165 0.439546 1.81429 0.562218C1.60692 0.684889 1.43635 0.861058 1.32044 1.07228C1.20453 1.28349 1.14754 1.52199 1.15544 1.76279C1.16333 2.0036 1.23583 2.23785 1.36533 2.44102L11.8802 18.9641L1.50474 30.386C1.38358 30.5161 1.28946 30.669 1.22782 30.8358C1.16619 31.0026 1.13828 31.18 1.1457 31.3577C1.15313 31.5353 1.19574 31.7098 1.27107 31.8708C1.3464 32.0319 1.45295 32.1764 1.58454 32.296C1.71614 32.4156 1.87016 32.5079 2.03769 32.5675C2.20521 32.6271 2.38291 32.6529 2.56047 32.6434C2.73803 32.6338 2.91193 32.5891 3.07209 32.5119C3.23225 32.4346 3.37549 32.3263 3.49349 32.1933L13.3768 21.3224L20.1778 32.0102C20.3001 32.1996 20.468 32.3551 20.6661 32.4625C20.8643 32.57 21.0862 32.6258 21.3116 32.625H29.3741C29.6148 32.6249 29.851 32.5602 30.0581 32.4376C30.2653 32.315 30.4356 32.1391 30.5515 31.9281C30.6674 31.7172 30.7244 31.479 30.7168 31.2384C30.7091 30.9979 30.637 30.7638 30.5079 30.5607ZM22.049 29.9375L4.94642 3.0625H9.81752L26.9268 29.9375H22.049Z" fill="white"/>
</g>
</svg>
