<svg width="40" height="40" viewBox="0 0 40 40" fill="none" xmlns="http://www.w3.org/2000/svg">
<path d="M29.5087 23.9166C29.117 23.7208 26.5712 22.5458 26.1795 22.35C25.7878 22.1541 25.3962 22.1541 25.0045 22.5458C24.6128 22.9375 23.8295 24.1125 23.4378 24.5041C23.242 24.8958 22.8503 24.8958 22.4587 24.7C21.0878 24.1125 19.717 23.3291 18.542 22.35C17.5628 21.3708 16.5837 20.1958 15.8003 19.0208C15.6045 18.6291 15.8003 18.2375 15.9962 18.0416C16.192 17.8458 16.3878 17.4541 16.7795 17.2583C16.9753 17.0625 17.1712 16.6708 17.1712 16.475C17.367 16.2791 17.367 15.8875 17.1712 15.6916C16.9753 15.4958 15.9962 13.1458 15.6045 12.1666C15.4087 10.7958 15.017 10.7958 14.6253 10.7958H13.6462C13.2545 10.7958 12.667 11.1875 12.4712 11.3833C11.2962 12.5583 10.7087 13.9291 10.7087 15.4958C10.9045 17.2583 11.492 19.0208 12.667 20.5875C14.8212 23.7208 17.5628 26.2666 20.892 27.8333C21.8712 28.225 22.6545 28.6166 23.6337 28.8125C24.6128 29.2041 25.592 29.2041 26.767 29.0083C28.1378 28.8125 29.3128 27.8333 30.0962 26.6583C30.4878 25.875 30.4878 25.0916 30.292 24.3083L29.5087 23.9166ZM34.4045 6.0958C26.767 -1.5417 14.4295 -1.5417 6.79199 6.0958C0.525325 12.3625 -0.649674 21.9583 3.65866 29.5958L0.916992 39.5833L11.2962 36.8416C14.2337 38.4083 17.367 39.1916 20.5003 39.1916C31.2712 39.1916 39.8878 30.575 39.8878 19.8041C40.0837 14.7125 37.9295 9.81663 34.4045 6.0958ZM29.117 33.5125C26.5712 35.0791 23.6337 36.0583 20.5003 36.0583C17.5628 36.0583 14.8212 35.275 12.2753 33.9041L11.6878 33.5125L5.61699 35.0791L7.18366 29.2041L6.79199 28.6166C2.09199 20.7833 4.44199 10.9916 12.0795 6.0958C19.717 1.19997 29.5087 3.7458 34.2087 11.1875C38.9087 18.825 36.7545 28.8125 29.117 33.5125Z" fill="white"/>
</svg>
