<svg width="30" height="20" viewBox="0 0 30 20" fill="none" xmlns="http://www.w3.org/2000/svg">
<path d="M15.0933 0H15.2547C16.7446 0.00533855 24.2942 0.0587244 26.3297 0.596139C26.9451 0.760154 27.5059 1.07985 27.9559 1.52328C28.406 1.96671 28.7297 2.51834 28.8946 3.12305C29.0777 3.79927 29.2064 4.69437 29.2934 5.61794L29.3115 5.80301L29.3514 6.26568L29.3659 6.45075C29.4837 8.07723 29.4982 9.6005 29.5 9.93327V10.0667C29.4982 10.412 29.4819 12.0384 29.3514 13.7325L29.3369 13.9194L29.3206 14.1045C29.2299 15.1223 29.0958 16.1331 28.8946 16.8769C28.7302 17.4819 28.4067 18.0338 27.9565 18.4773C27.5064 18.9208 26.9454 19.2403 26.3297 19.4039C24.2271 19.9591 16.2353 19.9982 15.1278 20H14.8704C14.3103 20 11.9938 19.9893 9.56488 19.9075L9.25673 19.8968L9.09904 19.8897L8.78908 19.8772L8.47912 19.8648C6.46712 19.7776 4.55119 19.637 3.66845 19.4021C3.05305 19.2387 2.49218 18.9194 2.04203 18.4763C1.59189 18.0331 1.26827 17.4816 1.1036 16.8769C0.9024 16.1349 0.768267 15.1223 0.677636 14.1045L0.663135 13.9176L0.648634 13.7325C0.559177 12.5267 0.509607 11.3184 0.5 10.1094L0.5 9.89056C0.503625 9.50796 0.518126 8.18578 0.616007 6.72658L0.628696 6.54329L0.634133 6.45075L0.648634 6.26568L0.688512 5.80301L0.706638 5.61794C0.793643 4.69437 0.922339 3.79749 1.10541 3.12305C1.26981 2.5181 1.5933 1.96621 2.04346 1.5227C2.49363 1.0792 3.05464 0.759663 3.67026 0.596139C4.553 0.364801 6.46894 0.22244 8.48094 0.133464L8.78908 0.121007L9.10085 0.11033L9.25673 0.104992L9.56669 0.0925352C11.2918 0.0380367 13.0176 0.00778159 14.7435 0.0017796H15.0933V0ZM12.1007 5.71225V14.286L19.6358 10.0009L12.1007 5.71225Z" fill="#0165B7"/>
</svg>
