<svg width="34" height="24" viewBox="0 0 34 24" fill="none" xmlns="http://www.w3.org/2000/svg">
<path d="M17.1084 0H17.2975C19.0443 0.0061875 27.8949 0.0680629 30.2812 0.690938C31.0027 0.881036 31.6601 1.25157 32.1877 1.76552C32.7154 2.27946 33.0948 2.91882 33.2881 3.61969C33.5028 4.40344 33.6536 5.44088 33.7556 6.51131L33.7769 6.72581L33.8236 7.26206L33.8406 7.47656C33.9788 9.36169 33.9958 11.1272 33.9979 11.5129V11.6676C33.9958 12.0677 33.9766 13.9528 33.8236 15.9163L33.8066 16.1329L33.7875 16.3474C33.6812 17.5271 33.524 18.6986 33.2881 19.5608C33.0954 20.2619 32.7162 20.9016 32.1884 21.4156C31.6607 21.9296 31.003 22.3 30.2812 22.4895C27.8162 23.133 18.4471 23.1784 17.1488 23.1804H16.847C16.1904 23.1804 13.4746 23.1681 10.6271 23.0732L10.2659 23.0608L10.081 23.0526L9.71762 23.0381L9.35425 23.0237C6.9955 22.9226 4.74937 22.7597 3.7145 22.4874C2.99304 22.2981 2.33551 21.9281 1.80779 21.4144C1.28007 20.9008 0.900674 20.2615 0.707625 19.5608C0.47175 18.7007 0.3145 17.5271 0.20825 16.3474L0.19125 16.1308L0.17425 15.9163C0.0693761 14.5188 0.0112622 13.1183 0 11.7171L0 11.4634C0.00425 11.0199 0.02125 9.4875 0.136 7.79625L0.150875 7.58381L0.15725 7.47656L0.17425 7.26206L0.221 6.72581L0.24225 6.51131C0.34425 5.44088 0.495125 4.40138 0.70975 3.61969C0.902474 2.91854 1.28172 2.27888 1.80947 1.76484C2.33721 1.25081 2.99491 0.880466 3.71662 0.690938C4.7515 0.422813 6.99762 0.257812 9.35637 0.154687L9.71762 0.14025L10.0831 0.127875L10.2659 0.121688L10.6292 0.10725C12.6516 0.0440854 14.6748 0.00901903 16.6982 0.0020626H17.1084V0ZM13.6 6.62063V16.5578L22.4336 11.5913L13.6 6.62063Z" fill="white"/>
</svg>
