<svg id="wave" style="transform:rotate(0deg); transition: 0.3s" viewBox="0 0 1440 490" version="1.1" xmlns="http://www.w3.org/2000/svg"><defs><linearGradient id="sw-gradient-0" x1="0" x2="0" y1="1" y2="0"><stop stop-color="rgba(255, 255, 255, 1)" offset="0%"></stop><stop stop-color="rgba(255, 255, 255, 1)" offset="100%"></stop></linearGradient></defs><path style="transform:translate(0, 0px); opacity:1" fill="url(#sw-gradient-0)" d="M0,245L60,277.7C120,310,240,376,360,400.2C480,425,600,408,720,383.8C840,359,960,327,1080,285.8C1200,245,1320,196,1440,163.3C1560,131,1680,114,1800,147C1920,180,2040,261,2160,318.5C2280,376,2400,408,2520,351.2C2640,294,2760,147,2880,73.5C3000,0,3120,0,3240,73.5C3360,147,3480,294,3600,294C3720,294,3840,147,3960,73.5C4080,0,4200,0,4320,65.3C4440,131,4560,261,4680,310.3C4800,359,4920,327,5040,302.2C5160,278,5280,261,5400,236.8C5520,212,5640,180,5760,138.8C5880,98,6000,49,6120,89.8C6240,131,6360,261,6480,318.5C6600,376,6720,359,6840,318.5C6960,278,7080,212,7200,171.5C7320,131,7440,114,7560,130.7C7680,147,7800,196,7920,212.3C8040,229,8160,212,8280,212.3C8400,212,8520,229,8580,236.8L8640,245L8640,490L8580,490C8520,490,8400,490,8280,490C8160,490,8040,490,7920,490C7800,490,7680,490,7560,490C7440,490,7320,490,7200,490C7080,490,6960,490,6840,490C6720,490,6600,490,6480,490C6360,490,6240,490,6120,490C6000,490,5880,490,5760,490C5640,490,5520,490,5400,490C5280,490,5160,490,5040,490C4920,490,4800,490,4680,490C4560,490,4440,490,4320,490C4200,490,4080,490,3960,490C3840,490,3720,490,3600,490C3480,490,3360,490,3240,490C3120,490,3000,490,2880,490C2760,490,2640,490,2520,490C2400,490,2280,490,2160,490C2040,490,1920,490,1800,490C1680,490,1560,490,1440,490C1320,490,1200,490,1080,490C960,490,840,490,720,490C600,490,480,490,360,490C240,490,120,490,60,490L0,490Z"></path></svg>