<svg id="wave" style="transform:rotate(0deg); transition: 0.3s" viewBox="0 0 1440 490" version="1.1" xmlns="http://www.w3.org/2000/svg"><defs><linearGradient id="sw-gradient-0" x1="0" x2="0" y1="1" y2="0"><stop stop-color="rgba(255, 255, 255, 1)" offset="0%"></stop><stop stop-color="rgba(255, 255, 255, 1)" offset="100%"></stop></linearGradient></defs><path style="transform:translate(0, 0px); opacity:1" fill="url(#sw-gradient-0)" d="M0,49L120,114.3C240,180,480,310,720,343C960,376,1200,310,1440,236.8C1680,163,1920,82,2160,73.5C2400,65,2640,131,2880,155.2C3120,180,3360,163,3600,138.8C3840,114,4080,82,4320,89.8C4560,98,4800,147,5040,147C5280,147,5520,98,5760,73.5C6000,49,6240,49,6480,57.2C6720,65,6960,82,7200,147C7440,212,7680,327,7920,351.2C8160,376,8400,310,8640,269.5C8880,229,9120,212,9360,212.3C9600,212,9840,229,10080,212.3C10320,196,10560,147,10800,147C11040,147,11280,196,11520,236.8C11760,278,12000,310,12240,302.2C12480,294,12720,245,12960,228.7C13200,212,13440,229,13680,212.3C13920,196,14160,147,14400,138.8C14640,131,14880,163,15120,179.7C15360,196,15600,196,15840,187.8C16080,180,16320,163,16560,130.7C16800,98,17040,49,17160,24.5L17280,0L17280,490L17160,490C17040,490,16800,490,16560,490C16320,490,16080,490,15840,490C15600,490,15360,490,15120,490C14880,490,14640,490,14400,490C14160,490,13920,490,13680,490C13440,490,13200,490,12960,490C12720,490,12480,490,12240,490C12000,490,11760,490,11520,490C11280,490,11040,490,10800,490C10560,490,10320,490,10080,490C9840,490,9600,490,9360,490C9120,490,8880,490,8640,490C8400,490,8160,490,7920,490C7680,490,7440,490,7200,490C6960,490,6720,490,6480,490C6240,490,6000,490,5760,490C5520,490,5280,490,5040,490C4800,490,4560,490,4320,490C4080,490,3840,490,3600,490C3360,490,3120,490,2880,490C2640,490,2400,490,2160,490C1920,490,1680,490,1440,490C1200,490,960,490,720,490C480,490,240,490,120,490L0,490Z"></path></svg>