<svg id="wave" style="transform:rotate(180deg); transition: 0.3s" viewBox="0 0 1440 490" version="1.1" xmlns="http://www.w3.org/2000/svg"><defs><linearGradient id="sw-gradient-0" x1="0" x2="0" y1="1" y2="0"><stop stop-color="rgba(255, 255, 255, 1)" offset="0%"></stop><stop stop-color="rgba(255, 255, 255, 1)" offset="100%"></stop></linearGradient></defs><path style="transform:translate(0, 0px); opacity:1" fill="url(#sw-gradient-0)" d="M0,147L80,155.2C160,163,320,180,480,155.2C640,131,800,65,960,40.8C1120,16,1280,33,1440,98C1600,163,1760,278,1920,343C2080,408,2240,425,2400,359.3C2560,294,2720,147,2880,147C3040,147,3200,294,3360,343C3520,392,3680,343,3840,277.7C4000,212,4160,131,4320,130.7C4480,131,4640,212,4800,204.2C4960,196,5120,98,5280,57.2C5440,16,5600,33,5760,32.7C5920,33,6080,16,6240,65.3C6400,114,6560,229,6720,245C6880,261,7040,180,7200,130.7C7360,82,7520,65,7680,114.3C7840,163,8000,278,8160,326.7C8320,376,8480,359,8640,351.2C8800,343,8960,343,9120,285.8C9280,229,9440,114,9600,114.3C9760,114,9920,229,10080,236.8C10240,245,10400,147,10560,147C10720,147,10880,245,11040,310.3C11200,376,11360,408,11440,424.7L11520,441L11520,490L11440,490C11360,490,11200,490,11040,490C10880,490,10720,490,10560,490C10400,490,10240,490,10080,490C9920,490,9760,490,9600,490C9440,490,9280,490,9120,490C8960,490,8800,490,8640,490C8480,490,8320,490,8160,490C8000,490,7840,490,7680,490C7520,490,7360,490,7200,490C7040,490,6880,490,6720,490C6560,490,6400,490,6240,490C6080,490,5920,490,5760,490C5600,490,5440,490,5280,490C5120,490,4960,490,4800,490C4640,490,4480,490,4320,490C4160,490,4000,490,3840,490C3680,490,3520,490,3360,490C3200,490,3040,490,2880,490C2720,490,2560,490,2400,490C2240,490,2080,490,1920,490C1760,490,1600,490,1440,490C1280,490,1120,490,960,490C800,490,640,490,480,490C320,490,160,490,80,490L0,490Z"></path></svg>