<svg width="221" height="271" viewBox="0 0 221 271" fill="none" xmlns="http://www.w3.org/2000/svg">
<path d="M27.4631 165.695L20.9401 169.44C20.9401 169.44 24.3312 158.887 22.641 148.21C22.0039 144.177 20.5837 142.167 20.0869 141.083C19.5901 139.999 15.7671 133.316 19.2338 130.291C22.7004 127.267 30.7137 133.457 30.163 149.863C29.925 155.233 29.018 160.551 27.4631 165.695Z" fill="#455A64"/>
<path d="M24.4284 167.695C24.3998 167.7 24.3705 167.7 24.342 167.695C24.2773 167.67 24.2248 167.622 24.1955 167.559C24.1663 167.496 24.1626 167.424 24.1854 167.359C24.1854 167.294 26.7071 160.503 26.7071 149.538C26.7071 138.573 21.1615 132.779 21.1075 132.736C21.0833 132.712 21.0641 132.683 21.0511 132.651C21.038 132.62 21.0312 132.586 21.0312 132.552C21.0312 132.517 21.038 132.483 21.0511 132.452C21.0641 132.42 21.0833 132.391 21.1075 132.367C21.1568 132.32 21.2226 132.293 21.2911 132.293C21.3596 132.293 21.4254 132.32 21.4747 132.367C21.5341 132.427 27.2255 138.427 27.2255 149.549C27.2255 160.671 24.693 167.489 24.666 167.554C24.6447 167.598 24.6107 167.635 24.5685 167.661C24.5262 167.686 24.4774 167.698 24.4284 167.695Z" fill="white"/>
<path d="M26.023 166.47L15.2234 172.73C15.2234 172.73 10.3312 171.939 10.7578 167.261C11.1844 162.584 13.1877 161.505 10.7578 159.419C8.32786 157.332 7.65829 157.185 7.80408 155.169C7.94988 153.153 9.29443 152.291 9.9316 151.5C10.5688 150.709 12.3453 149.055 11.1358 146.622C9.9262 144.188 8.28466 141.809 10.7848 140.725C12.2697 140.075 14.7536 140.936 16.3898 142.736C18.0259 144.535 19.3651 145.831 20.9256 146.264C22.4861 146.698 25.753 146.768 25.6126 149.516C25.4722 152.264 24.7595 153.191 25.3966 154.394C26.59 156.681 31.844 157.977 26.023 166.47Z" fill="#37474F"/>
<path d="M21.6321 169.278C21.5981 169.275 21.5649 169.265 21.5344 169.25C21.504 169.234 21.477 169.213 21.4549 169.186C21.4328 169.16 21.4161 169.13 21.4058 169.097C21.3954 169.064 21.3916 169.03 21.3946 168.996C21.3946 168.833 22.7391 152.909 11.9611 142.329C11.9327 142.307 11.9093 142.278 11.8925 142.246C11.8757 142.213 11.8659 142.178 11.8638 142.141C11.8616 142.105 11.867 142.069 11.8798 142.034C11.8926 142 11.9123 141.969 11.9378 141.943C11.9634 141.917 11.994 141.897 12.0279 141.884C12.0617 141.87 12.098 141.864 12.1343 141.866C12.1706 141.868 12.2061 141.877 12.2386 141.893C12.2711 141.91 12.2998 141.933 12.3229 141.961C23.2791 152.714 21.9291 168.882 21.9129 169.061C21.9035 169.127 21.8689 169.186 21.8165 169.227C21.764 169.267 21.6979 169.285 21.6321 169.278Z" fill="white"/>
<path d="M19.8729 155.375C19.8047 155.369 19.7417 155.335 19.6974 155.283C19.653 155.23 19.6308 155.162 19.6353 155.094C19.7291 153.77 20.094 152.481 20.7073 151.306C21.3205 150.131 22.1689 149.095 23.1992 148.264C23.2272 148.245 23.2588 148.231 23.2921 148.223C23.3255 148.216 23.36 148.215 23.3936 148.221C23.4272 148.227 23.4593 148.24 23.488 148.259C23.5168 148.277 23.5416 148.301 23.561 148.329C23.5816 148.357 23.5964 148.388 23.6046 148.422C23.6127 148.455 23.6141 148.49 23.6085 148.524C23.603 148.558 23.5907 148.59 23.5723 148.619C23.5539 148.648 23.5299 148.673 23.5016 148.693C22.5402 149.485 21.7482 150.465 21.1729 151.572C20.5976 152.679 20.251 153.892 20.1537 155.137C20.151 155.171 20.1416 155.204 20.126 155.235C20.1104 155.266 20.0889 155.293 20.0628 155.315C20.0367 155.337 20.0065 155.354 19.9739 155.364C19.9413 155.375 19.907 155.378 19.8729 155.375Z" fill="white"/>
<path d="M20.6337 158.15C20.5966 158.15 20.5601 158.141 20.5265 158.125C20.493 158.109 20.4632 158.087 20.4393 158.058C20.4393 158.031 17.7394 155.055 11.5836 155.841C11.512 155.85 11.4399 155.83 11.3832 155.785C11.3265 155.74 11.2898 155.675 11.2812 155.603C11.2726 155.531 11.2928 155.459 11.3374 155.402C11.382 155.345 11.4472 155.308 11.5188 155.299C17.9662 154.481 20.6985 157.565 20.8281 157.695C20.8522 157.719 20.8714 157.748 20.8845 157.78C20.8976 157.811 20.9043 157.845 20.9043 157.879C20.9043 157.914 20.8976 157.947 20.8845 157.979C20.8714 158.011 20.8522 158.039 20.8281 158.064C20.8039 158.091 20.7739 158.113 20.7404 158.128C20.7068 158.143 20.6704 158.151 20.6337 158.15Z" fill="white"/>
<path d="M45.045 190.139C63.2067 190.139 77.9298 181.655 77.9298 171.191C77.9298 160.726 63.2067 152.242 45.045 152.242C26.8832 152.242 12.1602 160.726 12.1602 171.191C12.1602 181.655 26.8832 190.139 45.045 190.139Z" fill="#37474F"/>
<path d="M77.9313 171.191C77.9313 181.657 63.2114 190.161 45.0465 190.161C26.8815 190.161 12.1562 181.657 12.1562 171.191V176.486C12.1562 186.946 26.8761 195.429 45.0356 195.429C63.1952 195.429 77.9204 186.946 77.9204 176.486V171.191H77.9313Z" fill="#253239"/>
<path d="M45.0454 187.879C28.1818 187.879 14.4609 180.394 14.4609 171.191C14.4609 161.987 28.1818 154.502 45.0454 154.502C61.909 154.502 75.6353 161.987 75.6353 171.191C75.6353 180.394 61.9144 187.879 45.0454 187.879ZM45.0454 155.077C28.495 155.077 15.0279 162.302 15.0279 171.191C15.0279 180.079 28.495 187.304 45.0454 187.304C61.5958 187.304 75.0629 180.074 75.0629 171.191C75.0629 162.307 61.6012 155.077 45.0454 155.077Z" fill="#0165B7"/>
<path d="M45.0454 87.4949C28.1818 87.4949 14.4609 80.0045 14.4609 70.8013C14.4609 61.5982 28.1818 54.1132 45.0454 54.1132C61.909 54.1132 75.6353 61.5982 75.6353 70.8013C75.6353 80.0045 61.9144 87.4949 45.0454 87.4949ZM45.0454 54.6877C28.495 54.6877 15.0279 61.918 15.0279 70.8013C15.0279 79.6847 28.495 86.9204 45.0454 86.9204C61.5958 86.9204 75.0629 79.6739 75.0629 70.8013C75.0629 61.9288 61.6012 54.6877 45.0454 54.6877Z" fill="#0165B7"/>
<path d="M75.0645 171.196V171.191H75.6368L75.0645 171.196Z" fill="#0165B7"/>
<path d="M14.4609 171.196V171.191H15.0333L14.4609 171.196Z" fill="#0165B7"/>
<path d="M75.6353 171.191H75.063C75.063 162.302 61.6013 155.077 45.0455 155.077C28.4897 155.077 15.028 162.302 15.028 171.191H14.488V153.614C14.4729 148.813 15.7543 144.098 18.196 139.971C20.6377 135.843 24.1484 132.457 28.3547 130.172L36.7082 125.657C37.4522 125.252 38.0734 124.653 38.5063 123.922C38.9392 123.192 39.1677 122.358 39.1677 121.508C39.1677 120.659 38.9392 119.825 38.5063 119.094C38.0734 118.364 37.4522 117.765 36.7082 117.359L28.3547 112.844C24.1474 110.566 20.6339 107.185 18.1875 103.062C15.7412 98.9397 14.4534 94.2287 14.461 89.4301V71.5441H15.0658V71.7988C16.0323 80.2811 29.1862 86.926 45.0185 86.926C60.8507 86.926 74.01 80.2811 74.9766 71.7988L75.0036 71.5441H75.6083V89.4301C75.622 94.2302 74.3392 98.9442 71.8966 103.071C69.4539 107.198 65.9427 110.583 61.7363 112.866L53.3773 117.381C52.6348 117.788 52.0151 118.387 51.5833 119.118C51.1516 119.848 50.9237 120.681 50.9237 121.53C50.9237 122.379 51.1516 123.212 51.5833 123.942C52.0151 124.673 52.6348 125.272 53.3773 125.679L61.7363 130.194C70.2085 135.197 75.5219 144.172 75.6083 153.635L75.6353 171.191ZM45.0455 154.503C59.8949 154.503 72.3037 160.302 75.063 167.966V153.614C74.982 144.356 69.7766 135.565 61.4825 130.676L53.1344 126.167C52.3004 125.711 51.6042 125.038 51.1191 124.219C50.634 123.4 50.378 122.464 50.378 121.511C50.378 120.558 50.634 119.622 51.1191 118.803C51.6042 117.984 52.3004 117.311 53.1344 116.855L61.4933 112.34C65.6059 110.108 69.0392 106.799 71.4285 102.765C73.8177 98.7312 75.0737 94.123 75.063 89.4301V74.0373C72.3091 81.7499 59.8193 87.5168 45.0455 87.5168C30.2716 87.5168 17.7873 81.7499 15.028 74.0373V89.4301C15.0144 94.1271 16.2696 98.74 18.66 102.778C21.0504 106.816 24.4866 110.128 28.6031 112.362L36.962 116.877C37.796 117.333 38.4921 118.006 38.9772 118.825C39.4623 119.644 39.7183 120.58 39.7183 121.533C39.7183 122.486 39.4623 123.421 38.9772 124.241C38.4921 125.06 37.796 125.733 36.962 126.189L28.6031 130.703C24.4862 132.937 21.0497 136.249 18.6592 140.287C16.2688 144.325 15.0138 148.938 15.028 153.635V167.966C17.7873 160.302 30.2014 154.503 45.0455 154.503Z" fill="#0165B7"/>
<path d="M47.6214 141.044C46.838 140.594 45.951 140.357 45.0484 140.357C44.1457 140.357 43.2587 140.594 42.4754 141.044C35.6716 144.952 17.7227 155.874 17.7227 162.491C17.7227 170.659 29.9532 177.283 45.0457 177.283C60.1381 177.283 72.3741 170.659 72.3741 162.491C72.3741 155.874 54.4251 144.952 47.6214 141.044Z" fill="#0165B7"/>
<path opacity="0.3" d="M47.6214 141.044C46.838 140.594 45.951 140.357 45.0484 140.357C44.1457 140.357 43.2587 140.594 42.4754 141.044C35.6716 144.952 17.7227 155.874 17.7227 162.491C17.7227 170.659 29.9532 177.283 45.0457 177.283C60.1381 177.283 72.3741 170.659 72.3741 162.491C72.3741 155.874 54.4251 144.952 47.6214 141.044Z" fill="white"/>
<path d="M45.0457 177.283C29.9532 177.283 17.7227 170.659 17.7227 162.491V169.987C17.7227 178.155 29.9586 184.779 45.0457 184.779C60.1327 184.779 72.3741 178.155 72.3741 169.987V162.491C72.3741 170.659 60.1381 177.283 45.0457 177.283Z" fill="#0165B7"/>
<path d="M17.7227 71.8257V88.0857C17.7135 92.3678 18.8591 96.5725 21.038 100.254C23.217 103.935 26.348 106.956 30.0991 108.996L37.6588 113.066C37.7722 113.132 37.8856 113.197 37.9882 113.267C38.2582 113.44 38.5282 113.608 38.8089 113.766C40.3546 114.736 41.6287 116.086 42.511 117.688C43.3934 119.289 43.855 121.09 43.8524 122.92V129.966C43.8509 130.293 43.9785 130.607 44.2072 130.84C44.4359 131.072 44.7471 131.204 45.0727 131.207C45.3988 131.204 45.7106 131.072 45.9401 130.84C46.1697 130.607 46.2985 130.293 46.2985 129.966V122.92C46.2958 121.09 46.7568 119.29 47.6381 117.689C48.5195 116.087 49.7922 114.737 51.3365 113.766C51.6173 113.608 51.8765 113.44 52.1627 113.267C52.2653 113.197 52.3787 113.132 52.492 113.066L60.0248 108.996C63.7758 106.956 66.9069 103.935 69.0858 100.254C71.2648 96.5725 72.4104 92.3678 72.4011 88.0857V71.8257H17.7227Z" fill="#0165B7"/>
<path d="M46.2718 135.017C46.2707 134.774 46.198 134.537 46.0626 134.335C45.9273 134.134 45.7355 133.977 45.5114 133.885C45.2873 133.792 45.041 133.769 44.8036 133.817C44.5662 133.865 44.3483 133.982 44.1774 134.155C44.0065 134.327 43.8903 134.546 43.8435 134.785C43.7966 135.023 43.8212 135.27 43.9141 135.495C44.0071 135.719 44.1642 135.911 44.3656 136.046C44.5671 136.181 44.8039 136.253 45.0461 136.253C45.3712 136.25 45.6821 136.119 45.9116 135.888C46.141 135.656 46.2704 135.344 46.2718 135.017Z" fill="#0165B7"/>
<path opacity="0.3" d="M17.7227 71.8257V88.0857C17.7135 92.3678 18.8591 96.5725 21.038 100.254C23.217 103.935 26.348 106.956 30.0991 108.996L37.6588 113.066C37.7722 113.132 37.8856 113.197 37.9882 113.267C38.2582 113.44 38.5282 113.608 38.8089 113.766C40.3546 114.736 41.6287 116.086 42.511 117.688C43.3934 119.289 43.855 121.09 43.8524 122.92V129.966C43.8509 130.293 43.9785 130.607 44.2072 130.84C44.4359 131.072 44.7471 131.204 45.0727 131.207C45.3988 131.204 45.7106 131.072 45.9401 130.84C46.1697 130.607 46.2985 130.293 46.2985 129.966V122.92C46.2958 121.09 46.7568 119.29 47.6381 117.689C48.5195 116.087 49.7922 114.737 51.3365 113.766C51.6173 113.608 51.8765 113.44 52.1627 113.267C52.2653 113.197 52.3787 113.132 52.492 113.066L60.0248 108.996C63.7758 106.956 66.9069 103.935 69.0858 100.254C71.2648 96.5725 72.4104 92.3678 72.4011 88.0857V71.8257H17.7227Z" fill="white"/>
<g opacity="0.3">
<path d="M46.2718 135.017C46.2707 134.774 46.198 134.537 46.0626 134.335C45.9273 134.134 45.7355 133.977 45.5114 133.885C45.2873 133.792 45.041 133.769 44.8036 133.817C44.5662 133.865 44.3483 133.982 44.1774 134.155C44.0065 134.327 43.8903 134.546 43.8435 134.785C43.7966 135.023 43.8212 135.27 43.9141 135.495C44.0071 135.719 44.1642 135.911 44.3656 136.046C44.5671 136.181 44.8039 136.253 45.0461 136.253C45.3712 136.25 45.6821 136.119 45.9116 135.888C46.141 135.656 46.2704 135.344 46.2718 135.017Z" fill="white"/>
</g>
<path d="M45.0472 86.617C60.1402 86.617 72.3756 79.9948 72.3756 71.8258C72.3756 63.6569 60.1402 57.0347 45.0472 57.0347C29.9541 57.0347 17.7188 63.6569 17.7188 71.8258C17.7188 79.9948 29.9541 86.617 45.0472 86.617Z" fill="#0165B7"/>
<g style="mix-blend-mode:overlay" opacity="0.5">
<path d="M42.8004 125.912L37.487 130.427C32.0872 134.99 28.7609 143.906 28.7609 153.614V184.54C27.1105 183.974 25.5042 183.285 23.9551 182.481V153.614C23.9551 143.906 27.7943 134.99 33.9501 130.427L40.0249 125.912C42.5574 124.031 42.5574 118.98 40.0249 117.11L33.9501 112.595C27.8159 108.031 23.9551 99.1101 23.9551 89.43V71.8258H28.7609V89.43C28.7609 99.1372 32.1142 108.058 37.487 112.622L42.8004 117.137C45.0089 118.98 45.0089 124.031 42.8004 125.912Z" fill="white"/>
</g>
<path d="M45.0469 89.7497C63.2087 89.7497 77.9317 81.2662 77.9317 70.8014C77.9317 60.3365 63.2087 51.853 45.0469 51.853C26.8851 51.853 12.1621 60.3365 12.1621 70.8014C12.1621 81.2662 26.8851 89.7497 45.0469 89.7497Z" fill="#37474F"/>
<path d="M77.9313 70.8014C77.9313 81.2674 63.2114 89.7714 45.0465 89.7714C26.8815 89.7714 12.1562 81.2674 12.1562 70.8014V76.0967C12.1562 86.5627 26.8761 95.0667 45.0356 95.0667C63.1952 95.0667 77.9204 86.5844 77.9204 76.0967V70.8014H77.9313Z" fill="#253239"/>
<path d="M152.654 123.554V102.644L123.527 85.5925V64.6821L94.4062 47.6254V152.172L123.527 169.229L152.654 186.28L181.775 203.337V140.611L152.654 123.554Z" fill="#0165B7"/>
<path opacity="0.3" d="M152.654 123.554V144.465L181.775 161.521V140.611L152.654 123.554Z" fill="white"/>
<path d="M181.775 140.611V161.522L152.654 178.578V199.483L123.527 216.54V237.45L152.654 220.394L181.775 203.337L210.902 186.28V123.554L181.775 140.611Z" fill="#0165B7"/>
<path opacity="0.1" d="M181.775 140.611V161.522L152.654 178.578V199.483L123.527 216.54V237.45L152.654 220.394L181.775 203.337L210.902 186.28V123.554L181.775 140.611Z" fill="white"/>
<path d="M123.527 64.6822L94.4062 47.6255L123.527 30.5687L152.654 47.6255L123.527 64.6822Z" fill="#0165B7"/>
<path opacity="0.7" d="M123.527 64.6822L94.4062 47.6255L123.527 30.5687L152.654 47.6255L123.527 64.6822Z" fill="white"/>
<path d="M123.527 85.5926V64.6822L152.654 47.6255V68.5358L123.527 85.5926Z" fill="#0165B7"/>
<path opacity="0.1" d="M123.527 85.5926V64.6822L152.654 47.6255V68.5358L123.527 85.5926Z" fill="black"/>
<path d="M152.654 102.644L123.527 85.5926L152.654 68.5359L181.775 85.5926L152.654 102.644Z" fill="#0165B7"/>
<path d="M152.654 123.554V102.644L181.775 85.5924V106.497L152.654 123.554Z" fill="#0165B7"/>
<path opacity="0.7" d="M152.654 102.644L123.527 85.5926L152.654 68.5359L181.775 85.5926L152.654 102.644Z" fill="white"/>
<path opacity="0.1" d="M152.654 123.554V102.644L181.775 85.5924V106.497L152.654 123.554Z" fill="black"/>
<path d="M181.775 140.611L152.654 123.554L181.775 106.498L210.902 123.554L181.775 140.611Z" fill="#0165B7"/>
<g opacity="0.7">
<path d="M181.775 140.611L152.654 123.554L181.775 106.498L210.902 123.554L181.775 140.611Z" fill="white"/>
</g>
<path d="M152.654 178.578L181.775 161.521L152.654 144.464L123.527 161.521L152.654 178.578Z" fill="#0165B7"/>
<path opacity="0.7" d="M152.654 178.578L181.775 161.521L152.654 144.464L123.527 161.521L152.654 178.578Z" fill="white"/>
<path d="M152.654 199.483V178.578L123.527 161.521V182.432L152.654 199.483Z" fill="#0165B7"/>
<path opacity="0.3" d="M152.654 199.483V178.578L123.527 161.521V182.432L152.654 199.483Z" fill="white"/>
<path d="M123.527 216.54L152.654 199.483L123.527 182.432L94.4062 199.483L123.527 216.54Z" fill="#0165B7"/>
<path d="M123.527 237.45V216.54L94.4062 199.483V220.393L123.527 237.45Z" fill="#0165B7"/>
<path opacity="0.7" d="M123.527 216.54L152.654 199.483L123.527 182.432L94.4062 199.483L123.527 216.54Z" fill="white"/>
<path opacity="0.3" d="M123.527 237.45V216.54L94.4062 199.483V220.393L123.527 237.45Z" fill="white"/>
<path d="M147.023 196.188L117.902 213.244L100.039 202.784L129.166 185.727L147.023 196.188Z" fill="#0165B7"/>
<path opacity="0.4" d="M147.023 196.188L117.902 213.244L100.039 202.784L129.166 185.727L147.023 196.188Z" fill="white"/>
<path d="M117.901 213.245V234.149L100.033 223.694V202.784H100.039L117.901 213.245Z" fill="#0165B7"/>
<path d="M176.148 158.221L147.021 175.277L129.164 164.822L158.285 147.765L176.148 158.221Z" fill="#0165B7"/>
<path opacity="0.4" d="M176.148 158.221L147.021 175.277L129.164 164.822L158.285 147.765L176.148 158.221Z" fill="white"/>
<path d="M147.021 175.277V196.188L129.158 185.727V164.822H129.164L147.021 175.277Z" fill="#0165B7"/>
<path d="M176.149 137.316V158.221L158.281 147.765V126.855H158.287L176.149 137.316Z" fill="#0165B7"/>
<path d="M176.149 137.316V158.221L158.281 147.765V126.855H158.287L176.149 137.316Z" fill="#0165B7"/>
<path d="M129.158 82.2919L158.279 99.3486L176.142 88.8935L147.015 71.8313L129.158 82.2919Z" fill="#0165B7"/>
<g style="mix-blend-mode:overlay" opacity="0.5">
<path d="M129.158 82.2919L158.279 99.3486L176.142 88.8935L147.015 71.8313L129.158 82.2919Z" fill="white"/>
</g>
<path d="M158.281 99.3485V120.259L176.149 109.798V88.8933H176.144L158.281 99.3485Z" fill="#0165B7"/>
<path opacity="0.3" d="M158.281 99.3485V120.259L176.149 109.798V88.8933H176.144L158.281 99.3485Z" fill="black"/>
<path d="M100.033 44.3246L129.16 61.3867L147.017 50.9261L117.896 33.8694L100.033 44.3246Z" fill="#0165B7"/>
<g style="mix-blend-mode:overlay" opacity="0.5">
<path d="M100.033 44.3246L129.16 61.3867L147.017 50.9261L117.896 33.8694L100.033 44.3246Z" fill="white"/>
</g>
<path d="M129.158 61.3866V82.2916L147.021 71.831V50.926H147.015L129.158 61.3866Z" fill="#0165B7"/>
<path opacity="0.3" d="M129.158 61.3866V82.2916L147.021 71.831V50.926H147.015L129.158 61.3866Z" fill="black"/>
<path d="M181.776 113.099L176.144 109.793L158.281 120.253L163.919 123.554L158.287 126.855L176.149 137.31L181.776 134.015L199.638 123.554L181.776 113.099Z" fill="#0165B7"/>
<path opacity="0.4" d="M181.776 113.099L176.144 109.793L158.281 120.253L163.919 123.554L158.287 126.855L176.149 137.31L181.776 134.015L199.638 123.554L181.776 113.099Z" fill="white"/>
<path d="M111.93 41.0943C111.885 41.0939 111.84 41.0827 111.8 41.0618L110.72 40.4222C110.691 40.4049 110.665 40.3818 110.644 40.3544C110.624 40.327 110.609 40.2958 110.6 40.2625C110.591 40.2293 110.59 40.1947 110.594 40.1607C110.599 40.1267 110.611 40.094 110.628 40.0645C110.662 40.0052 110.718 39.9617 110.784 39.9434C110.85 39.9251 110.92 39.9336 110.979 39.9669L112.059 40.6065C112.119 40.6416 112.162 40.6987 112.18 40.7655C112.199 40.8323 112.19 40.9036 112.156 40.9642C112.134 41.0045 112.101 41.0379 112.061 41.0608C112.021 41.0837 111.976 41.0953 111.93 41.0943Z" fill="#0165B7"/>
<path d="M133.317 53.6252C133.271 53.6254 133.226 53.6122 133.187 53.5873L131.027 52.3353C130.998 52.3182 130.971 52.2954 130.95 52.2682C130.929 52.2409 130.914 52.2098 130.905 52.1766C130.896 52.1434 130.894 52.1087 130.898 52.0746C130.902 52.0404 130.913 52.0074 130.93 51.9775C130.947 51.9476 130.97 51.9214 130.997 51.9003C131.024 51.8792 131.055 51.8637 131.088 51.8547C131.121 51.8456 131.156 51.8432 131.19 51.8475C131.224 51.8519 131.257 51.8629 131.287 51.88L133.447 53.132C133.476 53.1493 133.502 53.1724 133.522 53.1998C133.543 53.2272 133.558 53.2584 133.567 53.2917C133.575 53.3249 133.577 53.3595 133.572 53.3935C133.567 53.4275 133.556 53.4602 133.538 53.4897C133.517 53.5306 133.486 53.5649 133.447 53.5888C133.408 53.6127 133.363 53.6253 133.317 53.6252ZM129.04 51.1158C128.995 51.1153 128.951 51.1042 128.911 51.0832L126.751 49.8312C126.721 49.8141 126.695 49.7913 126.674 49.7641C126.653 49.7369 126.637 49.7058 126.628 49.6726C126.619 49.6393 126.617 49.6047 126.621 49.5705C126.626 49.5364 126.637 49.5034 126.654 49.4735C126.671 49.4436 126.693 49.4174 126.72 49.3963C126.748 49.3752 126.779 49.3597 126.812 49.3506C126.845 49.3416 126.879 49.3391 126.913 49.3435C126.947 49.3478 126.98 49.3589 127.01 49.3759L129.17 50.628C129.199 50.6453 129.225 50.6683 129.246 50.6957C129.266 50.7231 129.281 50.7544 129.29 50.7876C129.299 50.8209 129.3 50.8555 129.296 50.8895C129.291 50.9235 129.279 50.9562 129.262 50.9857C129.241 51.0259 129.209 51.0594 129.169 51.0824C129.13 51.1054 129.086 51.117 129.04 51.1158ZM124.764 48.6117C124.718 48.6119 124.674 48.6008 124.634 48.5792L122.474 47.3272C122.414 47.291 122.371 47.233 122.353 47.1653C122.334 47.0976 122.343 47.0254 122.377 46.964C122.394 46.9344 122.417 46.9085 122.444 46.8878C122.472 46.8671 122.503 46.852 122.536 46.8435C122.569 46.8349 122.604 46.833 122.637 46.8379C122.671 46.8428 122.704 46.8543 122.733 46.8719L124.893 48.1239C124.944 48.152 124.984 48.1963 125.006 48.2497C125.029 48.3031 125.033 48.3625 125.018 48.4186C125.003 48.4747 124.97 48.5242 124.924 48.5592C124.878 48.5942 124.821 48.6127 124.764 48.6117ZM120.487 46.1077C120.441 46.1093 120.395 46.096 120.357 46.0697L118.197 44.8177C118.138 44.7826 118.095 44.7255 118.076 44.6587C118.058 44.5919 118.067 44.5206 118.1 44.46C118.117 44.4305 118.139 44.4047 118.166 44.3841C118.193 44.3635 118.224 44.3484 118.256 44.3398C118.289 44.3313 118.323 44.3293 118.357 44.3341C118.39 44.3389 118.422 44.3504 118.451 44.3679L120.611 45.6199C120.67 45.6559 120.712 45.7133 120.729 45.7801C120.746 45.8469 120.737 45.9177 120.703 45.9776C120.681 46.0156 120.649 46.0474 120.611 46.0701C120.574 46.0928 120.531 46.1057 120.487 46.1077ZM116.205 43.6036C116.159 43.6038 116.114 43.5907 116.075 43.5657L113.915 42.3137C113.857 42.2777 113.815 42.2202 113.797 42.1535C113.78 42.0867 113.79 42.0159 113.824 41.956C113.858 41.8966 113.913 41.8531 113.979 41.8349C114.045 41.8166 114.115 41.8251 114.175 41.8584L116.335 43.1104C116.394 43.1455 116.437 43.2026 116.456 43.2694C116.474 43.3363 116.465 43.4076 116.432 43.4681C116.409 43.509 116.377 43.5432 116.337 43.567C116.297 43.5909 116.251 43.6035 116.205 43.6036Z" fill="#0165B7"/>
<path d="M136.545 55.5169C136.499 55.5171 136.454 55.5039 136.415 55.479L135.335 54.8394C135.306 54.8221 135.28 54.799 135.259 54.7716C135.239 54.7442 135.224 54.713 135.215 54.6797C135.207 54.6465 135.205 54.6119 135.21 54.5779C135.215 54.5439 135.226 54.5112 135.244 54.4817C135.26 54.4517 135.282 54.4253 135.309 54.4042C135.335 54.3832 135.366 54.3678 135.399 54.3592C135.432 54.3506 135.466 54.3488 135.5 54.354C135.534 54.3592 135.566 54.3713 135.595 54.3895L136.675 55.0237C136.734 55.0588 136.777 55.1159 136.796 55.1827C136.814 55.2495 136.805 55.3208 136.772 55.3814C136.749 55.4223 136.717 55.4565 136.677 55.4803C136.637 55.5041 136.591 55.5168 136.545 55.5169Z" fill="#0165B7"/>
<g opacity="0.3">
<path d="M111.93 41.0943C111.885 41.0939 111.84 41.0827 111.8 41.0618L110.72 40.4222C110.691 40.4049 110.665 40.3818 110.644 40.3544C110.624 40.327 110.609 40.2958 110.6 40.2625C110.591 40.2293 110.59 40.1947 110.594 40.1607C110.599 40.1267 110.611 40.094 110.628 40.0645C110.662 40.0052 110.718 39.9617 110.784 39.9434C110.85 39.9251 110.92 39.9336 110.979 39.9669L112.059 40.6065C112.119 40.6416 112.162 40.6987 112.18 40.7655C112.199 40.8323 112.19 40.9036 112.156 40.9642C112.134 41.0045 112.101 41.0379 112.061 41.0608C112.021 41.0837 111.976 41.0953 111.93 41.0943Z" fill="black"/>
<path d="M133.317 53.6253C133.271 53.6255 133.226 53.6124 133.187 53.5874L131.027 52.3354C130.998 52.3183 130.971 52.2955 130.95 52.2683C130.929 52.2411 130.914 52.2099 130.905 52.1767C130.896 52.1435 130.894 52.1088 130.898 52.0747C130.902 52.0405 130.913 52.0076 130.93 51.9777C130.947 51.9478 130.97 51.9215 130.997 51.9005C131.024 51.8794 131.055 51.8639 131.088 51.8548C131.121 51.8457 131.156 51.8433 131.19 51.8476C131.224 51.852 131.257 51.863 131.287 51.8801L133.447 53.1321C133.476 53.1495 133.502 53.1725 133.522 53.1999C133.543 53.2273 133.558 53.2585 133.567 53.2918C133.575 53.325 133.577 53.3597 133.572 53.3937C133.567 53.4277 133.556 53.4603 133.538 53.4898C133.517 53.5307 133.486 53.565 133.447 53.5889C133.408 53.6128 133.363 53.6254 133.317 53.6253ZM129.04 51.1159C128.995 51.1155 128.951 51.1043 128.911 51.0834L126.751 49.8313C126.721 49.8143 126.695 49.7915 126.674 49.7642C126.653 49.737 126.637 49.7059 126.628 49.6727C126.619 49.6395 126.617 49.6048 126.621 49.5706C126.626 49.5365 126.637 49.5035 126.654 49.4736C126.671 49.4437 126.693 49.4175 126.72 49.3964C126.748 49.3753 126.779 49.3598 126.812 49.3508C126.845 49.3417 126.879 49.3393 126.913 49.3436C126.947 49.3479 126.98 49.359 127.01 49.3761L129.17 50.6281C129.199 50.6454 129.225 50.6685 129.246 50.6959C129.266 50.7233 129.281 50.7545 129.29 50.7877C129.299 50.821 129.3 50.8556 129.296 50.8896C129.291 50.9236 129.279 50.9563 129.262 50.9858C129.241 51.0261 129.209 51.0596 129.169 51.0826C129.13 51.1055 129.086 51.1171 129.04 51.1159ZM124.764 48.6118C124.718 48.6121 124.674 48.6009 124.634 48.5793L122.474 47.3273C122.414 47.2912 122.371 47.2331 122.353 47.1654C122.334 47.0977 122.343 47.0256 122.377 46.9642C122.394 46.9345 122.417 46.9086 122.444 46.8879C122.472 46.8672 122.503 46.8522 122.536 46.8436C122.569 46.835 122.604 46.8331 122.637 46.838C122.671 46.8429 122.704 46.8544 122.733 46.872L124.893 48.124C124.944 48.1521 124.984 48.1964 125.006 48.2498C125.029 48.3032 125.033 48.3627 125.018 48.4187C125.003 48.4748 124.97 48.5243 124.924 48.5593C124.878 48.5943 124.821 48.6128 124.764 48.6118ZM120.487 46.1078C120.441 46.1094 120.395 46.0961 120.357 46.0699L118.197 44.8178C118.138 44.7827 118.095 44.7257 118.076 44.6588C118.058 44.592 118.067 44.5207 118.1 44.4601C118.117 44.4307 118.139 44.4049 118.166 44.3842C118.193 44.3636 118.224 44.3485 118.256 44.34C118.289 44.3314 118.323 44.3294 118.357 44.3343C118.39 44.3391 118.422 44.3505 118.451 44.368L120.611 45.62C120.67 45.656 120.712 45.7135 120.729 45.7802C120.746 45.847 120.737 45.9178 120.703 45.9777C120.681 46.0157 120.649 46.0475 120.611 46.0702C120.574 46.0929 120.531 46.1058 120.487 46.1078ZM116.205 43.6038C116.159 43.604 116.114 43.5908 116.075 43.5658L113.915 42.3138C113.857 42.2778 113.815 42.2203 113.797 42.1536C113.78 42.0868 113.79 42.016 113.824 41.9561C113.858 41.8968 113.913 41.8533 113.979 41.835C114.045 41.8167 114.115 41.8252 114.175 41.8585L116.335 43.1105C116.394 43.1457 116.437 43.2027 116.456 43.2696C116.474 43.3364 116.465 43.4077 116.432 43.4683C116.409 43.5092 116.377 43.5433 116.337 43.5672C116.297 43.591 116.251 43.6036 116.205 43.6038Z" fill="black"/>
<path d="M136.549 55.517C136.503 55.5172 136.458 55.504 136.419 55.4791L135.339 54.8395C135.31 54.8222 135.284 54.7992 135.263 54.7717C135.243 54.7443 135.228 54.7131 135.219 54.6799C135.211 54.6466 135.209 54.612 135.214 54.578C135.218 54.544 135.23 54.5113 135.247 54.4818C135.264 54.4518 135.286 54.4254 135.313 54.4044C135.339 54.3833 135.37 54.3679 135.403 54.3593C135.436 54.3507 135.47 54.3489 135.504 54.3541C135.537 54.3594 135.57 54.3714 135.598 54.3897L136.678 55.0238C136.738 55.0589 136.781 55.116 136.799 55.1828C136.818 55.2496 136.809 55.321 136.776 55.3815C136.753 55.4224 136.721 55.4566 136.681 55.4804C136.641 55.5043 136.595 55.5169 136.549 55.517Z" fill="black"/>
</g>
<path d="M140.898 78.9692C140.852 78.9694 140.807 78.9562 140.769 78.9313L139.689 78.2917C139.659 78.2744 139.634 78.2513 139.613 78.2239C139.592 78.1965 139.577 78.1653 139.569 78.132C139.56 78.0988 139.558 78.0642 139.563 78.0302C139.568 77.9962 139.58 77.9635 139.597 77.934C139.614 77.9045 139.636 77.8787 139.663 77.8581C139.69 77.8375 139.721 77.8224 139.753 77.8138C139.786 77.8052 139.82 77.8033 139.853 77.8081C139.887 77.8129 139.919 77.8244 139.948 77.8418L141.028 78.4814C141.079 78.5095 141.118 78.5538 141.141 78.6072C141.164 78.6606 141.168 78.72 141.153 78.7761C141.138 78.8322 141.105 78.8817 141.059 78.9167C141.013 78.9516 140.956 78.9701 140.898 78.9692Z" fill="#0165B7"/>
<path d="M162.307 91.5112C162.263 91.512 162.219 91.4987 162.183 91.4732L160.023 90.2212C159.993 90.2041 159.967 90.1813 159.946 90.1541C159.925 90.1269 159.91 90.0958 159.901 90.0626C159.892 90.0293 159.889 89.9947 159.893 89.9605C159.898 89.9264 159.909 89.8934 159.926 89.8635C159.943 89.8336 159.966 89.8074 159.993 89.7863C160.02 89.7652 160.051 89.7497 160.084 89.7406C160.117 89.7316 160.152 89.7291 160.186 89.7335C160.22 89.7378 160.252 89.7489 160.282 89.7659L162.442 91.0234C162.502 91.0585 162.545 91.1156 162.563 91.1824C162.581 91.2492 162.573 91.3205 162.539 91.3811C162.515 91.4214 162.481 91.4547 162.441 91.4775C162.4 91.5004 162.354 91.512 162.307 91.5112ZM158.025 89.0017C157.98 89.0013 157.936 88.9901 157.895 88.9692L155.736 87.7118C155.675 87.6773 155.631 87.6202 155.613 87.5531C155.595 87.486 155.604 87.4144 155.638 87.354C155.673 87.2937 155.73 87.2495 155.796 87.2312C155.863 87.2129 155.935 87.222 155.995 87.2565L158.155 88.5139C158.205 88.542 158.245 88.5863 158.268 88.6397C158.29 88.6931 158.295 88.7525 158.28 88.8086C158.265 88.8647 158.232 88.9142 158.186 88.9492C158.139 88.9842 158.083 89.0027 158.025 89.0017ZM153.743 86.4923C153.698 86.4918 153.653 86.4807 153.613 86.4597L151.454 85.2023C151.394 85.1672 151.351 85.1101 151.332 85.0433C151.314 84.9765 151.323 84.9051 151.356 84.8446C151.374 84.8149 151.397 84.789 151.424 84.7683C151.451 84.7476 151.482 84.7326 151.515 84.724C151.549 84.7154 151.583 84.7135 151.617 84.7184C151.651 84.7233 151.683 84.7349 151.713 84.7524L153.873 86.0045C153.932 86.0396 153.976 86.0966 153.994 86.1635C154.012 86.2303 154.003 86.3016 153.97 86.3622C153.947 86.4025 153.914 86.4358 153.874 86.4588C153.834 86.4817 153.789 86.4932 153.743 86.4923ZM149.461 84.0099C149.416 84.0095 149.371 83.9983 149.331 83.9774L147.171 82.7254C147.112 82.6902 147.069 82.6332 147.05 82.5663C147.032 82.4995 147.041 82.4282 147.074 82.3676C147.091 82.3375 147.114 82.3111 147.141 82.2899C147.168 82.2686 147.199 82.253 147.232 82.2439C147.265 82.2349 147.3 82.2325 147.334 82.237C147.368 82.2415 147.401 82.2527 147.431 82.2701L149.591 83.5221C149.65 83.5572 149.694 83.6143 149.712 83.6811C149.73 83.7479 149.721 83.8192 149.688 83.8798C149.665 83.9201 149.632 83.9535 149.592 83.9764C149.552 83.9993 149.507 84.0109 149.461 84.0099ZM145.179 81.5059C145.133 81.5061 145.088 81.4929 145.049 81.4679L142.889 80.2159C142.86 80.1988 142.834 80.176 142.812 80.1488C142.791 80.1216 142.776 80.0905 142.767 80.0572C142.758 80.024 142.756 79.9894 142.76 79.9552C142.764 79.921 142.775 79.8881 142.792 79.8582C142.809 79.8283 142.832 79.802 142.859 79.781C142.886 79.7599 142.917 79.7444 142.95 79.7353C142.983 79.7263 143.018 79.7238 143.052 79.7282C143.086 79.7325 143.119 79.7435 143.149 79.7606L145.309 81.0126C145.368 81.0488 145.412 81.1068 145.43 81.1745C145.448 81.2423 145.439 81.3144 145.406 81.3758C145.379 81.4103 145.345 81.4378 145.305 81.4557C145.266 81.4737 145.222 81.4816 145.179 81.4788V81.5059Z" fill="#0165B7"/>
<path d="M165.543 93.4028C165.498 93.4024 165.453 93.3912 165.413 93.3703L164.333 92.7307C164.304 92.7134 164.278 92.6903 164.257 92.6629C164.237 92.6355 164.222 92.6043 164.213 92.571C164.205 92.5378 164.203 92.5032 164.208 92.4692C164.213 92.4352 164.224 92.4025 164.242 92.373C164.258 92.3431 164.28 92.3168 164.307 92.2956C164.333 92.2744 164.364 92.2588 164.397 92.2497C164.429 92.2406 164.463 92.2382 164.497 92.2426C164.531 92.247 164.563 92.2582 164.593 92.2754L165.673 92.915C165.702 92.9323 165.728 92.9554 165.749 92.9828C165.769 93.0102 165.784 93.0414 165.793 93.0747C165.801 93.1079 165.803 93.1425 165.798 93.1765C165.793 93.2105 165.782 93.2432 165.764 93.2727C165.741 93.3115 165.709 93.3437 165.67 93.3665C165.632 93.3892 165.588 93.4017 165.543 93.4028Z" fill="#0165B7"/>
<g opacity="0.3">
<path d="M140.898 78.9692C140.852 78.9694 140.807 78.9562 140.769 78.9313L139.689 78.2917C139.659 78.2744 139.634 78.2513 139.613 78.2239C139.592 78.1965 139.577 78.1653 139.569 78.132C139.56 78.0988 139.558 78.0642 139.563 78.0302C139.568 77.9962 139.58 77.9635 139.597 77.934C139.614 77.9045 139.636 77.8787 139.663 77.8581C139.69 77.8375 139.721 77.8224 139.753 77.8138C139.786 77.8052 139.82 77.8033 139.853 77.8081C139.887 77.8129 139.919 77.8244 139.948 77.8418L141.028 78.4814C141.079 78.5095 141.118 78.5538 141.141 78.6072C141.164 78.6606 141.168 78.72 141.153 78.7761C141.138 78.8322 141.105 78.8817 141.059 78.9167C141.013 78.9516 140.956 78.9701 140.898 78.9692Z" fill="black"/>
<path d="M162.309 91.5111C162.265 91.5119 162.221 91.4986 162.185 91.4731L160.025 90.2211C159.995 90.204 159.969 90.1812 159.948 90.154C159.927 90.1268 159.912 90.0957 159.903 90.0624C159.894 90.0292 159.891 89.9945 159.895 89.9604C159.9 89.9262 159.911 89.8933 159.928 89.8634C159.945 89.8335 159.967 89.8072 159.995 89.7862C160.022 89.7651 160.053 89.7496 160.086 89.7405C160.119 89.7314 160.153 89.729 160.187 89.7334C160.222 89.7377 160.254 89.7487 160.284 89.7658L162.444 91.0233C162.504 91.0584 162.547 91.1154 162.565 91.1823C162.583 91.2491 162.575 91.3204 162.541 91.381C162.517 91.4213 162.483 91.4546 162.443 91.4774C162.402 91.5003 162.356 91.5119 162.309 91.5111ZM158.027 89.0016C157.982 89.0012 157.937 88.99 157.897 88.9691L155.738 87.7116C155.677 87.6771 155.633 87.6201 155.615 87.553C155.597 87.4859 155.606 87.4143 155.64 87.3539C155.675 87.2935 155.732 87.2493 155.798 87.2311C155.865 87.2128 155.937 87.2219 155.997 87.2564L158.157 88.5138C158.207 88.5419 158.247 88.5861 158.27 88.6395C158.292 88.6929 158.297 88.7524 158.282 88.8085C158.267 88.8646 158.234 88.9141 158.187 88.949C158.141 88.984 158.085 89.0025 158.027 89.0016ZM153.745 86.4921C153.7 86.4917 153.655 86.4806 153.615 86.4596L151.455 85.2022C151.396 85.167 151.353 85.11 151.334 85.0432C151.316 84.9763 151.325 84.905 151.358 84.8445C151.376 84.8148 151.398 84.7889 151.426 84.7682C151.453 84.7475 151.484 84.7324 151.517 84.7239C151.55 84.7153 151.585 84.7134 151.619 84.7183C151.653 84.7232 151.685 84.7347 151.715 84.7523L153.875 86.0043C153.934 86.0395 153.978 86.0965 153.996 86.1634C154.014 86.2302 154.005 86.3015 153.972 86.3621C153.949 86.4023 153.916 86.4357 153.876 86.4586C153.836 86.4815 153.791 86.4931 153.745 86.4921ZM149.463 84.0098C149.418 84.0093 149.373 83.9982 149.333 83.9773L147.173 82.7252C147.114 82.6901 147.071 82.633 147.052 82.5662C147.034 82.4994 147.043 82.4281 147.076 82.3675C147.093 82.3374 147.116 82.311 147.143 82.2898C147.17 82.2685 147.201 82.2529 147.234 82.2438C147.267 82.2347 147.302 82.2324 147.336 82.2369C147.37 82.2414 147.403 82.2526 147.433 82.27L149.593 83.522C149.652 83.5571 149.695 83.6142 149.714 83.681C149.732 83.7478 149.723 83.8191 149.69 83.8797C149.667 83.92 149.634 83.9534 149.594 83.9763C149.554 83.9992 149.509 84.0108 149.463 84.0098ZM145.181 81.5057C145.135 81.5059 145.09 81.4928 145.051 81.4678L142.891 80.2158C142.862 80.1987 142.835 80.1759 142.814 80.1487C142.793 80.1214 142.778 80.0903 142.769 80.0571C142.76 80.0239 142.758 79.9892 142.762 79.9551C142.766 79.9209 142.777 79.8879 142.794 79.8581C142.811 79.8282 142.834 79.8019 142.861 79.7808C142.888 79.7598 142.919 79.7443 142.952 79.7352C142.985 79.7261 143.02 79.7237 143.054 79.728C143.088 79.7324 143.121 79.7434 143.151 79.7605L145.31 81.0125C145.37 81.0487 145.414 81.1067 145.432 81.1744C145.45 81.2421 145.441 81.3143 145.408 81.3757C145.381 81.4102 145.347 81.4376 145.307 81.4556C145.268 81.4735 145.224 81.4815 145.181 81.4786V81.5057Z" fill="black"/>
<path d="M165.545 93.4027C165.5 93.4022 165.455 93.3911 165.415 93.3702L164.335 92.7306C164.306 92.7133 164.28 92.6902 164.259 92.6628C164.239 92.6354 164.224 92.6042 164.215 92.5709C164.207 92.5377 164.205 92.503 164.21 92.4691C164.215 92.4351 164.226 92.4024 164.244 92.3729C164.26 92.343 164.282 92.3166 164.309 92.2955C164.335 92.2743 164.366 92.2587 164.399 92.2496C164.431 92.2405 164.465 92.2381 164.499 92.2425C164.533 92.2469 164.565 92.2581 164.595 92.2753L165.675 92.9149C165.704 92.9322 165.73 92.9552 165.75 92.9827C165.771 93.0101 165.786 93.0413 165.795 93.0745C165.803 93.1078 165.805 93.1424 165.8 93.1764C165.795 93.2104 165.784 93.2431 165.766 93.2726C165.743 93.3113 165.711 93.3436 165.672 93.3664C165.634 93.3891 165.59 93.4016 165.545 93.4027Z" fill="black"/>
</g>
<path d="M167.219 132.34C167.174 132.339 167.13 132.326 167.091 132.304C167.053 132.281 167.02 132.249 166.997 132.21C166.964 132.15 166.954 132.079 166.971 132.012C166.988 131.946 167.031 131.888 167.089 131.852L168.169 131.213C168.229 131.179 168.299 131.171 168.365 131.189C168.43 131.207 168.486 131.251 168.52 131.31C168.554 131.371 168.562 131.442 168.544 131.509C168.526 131.576 168.483 131.633 168.423 131.668L167.343 132.307C167.305 132.329 167.262 132.34 167.219 132.34Z" fill="#0165B7"/>
<path d="M170.785 130.253C170.74 130.254 170.696 130.242 170.657 130.219C170.618 130.196 170.586 130.163 170.564 130.123C170.546 130.094 170.534 130.061 170.528 130.027C170.523 129.993 170.525 129.958 170.533 129.925C170.542 129.891 170.557 129.86 170.578 129.832C170.599 129.805 170.626 129.782 170.656 129.765L173.129 128.313C173.159 128.296 173.192 128.284 173.226 128.28C173.26 128.275 173.294 128.278 173.327 128.287C173.361 128.296 173.392 128.311 173.419 128.333C173.446 128.354 173.468 128.38 173.485 128.41C173.519 128.471 173.527 128.542 173.509 128.609C173.491 128.676 173.448 128.733 173.388 128.768L170.91 130.215C170.873 130.239 170.83 130.252 170.785 130.253ZM175.737 127.354C175.691 127.353 175.646 127.341 175.607 127.319C175.567 127.296 175.534 127.263 175.51 127.223C175.477 127.163 175.468 127.092 175.486 127.025C175.505 126.958 175.548 126.901 175.607 126.866L178.081 125.413C178.141 125.379 178.212 125.37 178.279 125.388C178.346 125.406 178.403 125.45 178.437 125.511C178.471 125.571 178.48 125.643 178.462 125.71C178.444 125.777 178.4 125.834 178.34 125.868L175.867 127.316C175.83 127.346 175.785 127.365 175.737 127.37V127.354Z" fill="#0165B7"/>
<path d="M180.689 124.454C180.643 124.454 180.598 124.442 180.558 124.419C180.519 124.396 180.486 124.364 180.462 124.324C180.429 124.263 180.42 124.192 180.438 124.125C180.456 124.058 180.5 124.001 180.559 123.966L181.256 123.554L180.559 123.142C180.53 123.125 180.503 123.103 180.482 123.075C180.461 123.048 180.446 123.017 180.437 122.984C180.428 122.951 180.425 122.916 180.43 122.882C180.434 122.848 180.445 122.815 180.462 122.785C180.479 122.755 180.502 122.729 180.529 122.707C180.556 122.686 180.587 122.671 180.62 122.662C180.653 122.653 180.688 122.65 180.722 122.655C180.756 122.659 180.789 122.67 180.819 122.687L181.899 123.327C181.947 123.357 181.985 123.403 182.007 123.456C182.028 123.51 182.032 123.569 182.017 123.625C182.006 123.665 181.986 123.703 181.958 123.734C181.93 123.765 181.894 123.789 181.855 123.804L180.775 124.416C180.75 124.435 180.72 124.448 180.689 124.454Z" fill="#0165B7"/>
<path d="M178.541 121.917C178.496 121.918 178.451 121.907 178.411 121.885L176.251 120.627C176.192 120.592 176.148 120.535 176.13 120.468C176.112 120.401 176.121 120.33 176.154 120.27C176.17 120.24 176.193 120.213 176.219 120.192C176.246 120.171 176.276 120.155 176.309 120.146C176.342 120.137 176.376 120.135 176.41 120.139C176.443 120.144 176.476 120.155 176.505 120.172L178.665 121.429C178.724 121.465 178.766 121.523 178.783 121.59C178.8 121.656 178.791 121.727 178.757 121.787C178.735 121.826 178.704 121.858 178.666 121.881C178.628 121.904 178.585 121.916 178.541 121.917ZM174.221 119.402C174.177 119.403 174.133 119.39 174.097 119.364L171.937 118.107C171.878 118.071 171.836 118.014 171.819 117.947C171.802 117.88 171.811 117.809 171.845 117.749C171.879 117.69 171.935 117.646 172.001 117.628C172.066 117.61 172.137 117.618 172.196 117.652L174.356 118.909C174.416 118.945 174.459 119.003 174.478 119.071C174.496 119.139 174.487 119.211 174.453 119.272C174.431 119.31 174.399 119.342 174.362 119.365C174.324 119.388 174.281 119.4 174.237 119.402H174.221Z" fill="#0165B7"/>
<path d="M169.939 116.882C169.894 116.882 169.85 116.871 169.81 116.85L168.73 116.21C168.671 116.174 168.629 116.117 168.612 116.05C168.595 115.983 168.604 115.912 168.638 115.852C168.672 115.793 168.728 115.749 168.794 115.731C168.859 115.713 168.93 115.721 168.989 115.755L170.069 116.394C170.12 116.422 170.159 116.467 170.182 116.52C170.205 116.573 170.209 116.633 170.194 116.689C170.179 116.745 170.146 116.795 170.1 116.83C170.054 116.865 169.997 116.883 169.939 116.882Z" fill="#0165B7"/>
<path d="M166.12 153.885C166.075 153.885 166.03 153.873 165.992 153.85C165.953 153.827 165.921 153.794 165.898 153.755C165.865 153.694 165.856 153.623 165.875 153.556C165.893 153.489 165.936 153.432 165.996 153.397L167.076 152.757C167.135 152.724 167.205 152.716 167.271 152.734C167.337 152.752 167.393 152.796 167.427 152.855C167.46 152.915 167.469 152.987 167.45 153.054C167.432 153.12 167.389 153.177 167.329 153.213L166.249 153.852C166.21 153.874 166.165 153.885 166.12 153.885Z" fill="#0165B7"/>
<path d="M141.26 168.448C141.215 168.448 141.171 168.436 141.132 168.413C141.093 168.39 141.061 168.357 141.038 168.318C141.021 168.289 141.009 168.256 141.005 168.222C141 168.188 141.002 168.153 141.01 168.12C141.019 168.087 141.034 168.055 141.054 168.028C141.075 168.001 141.101 167.978 141.13 167.96L143.204 166.746C143.263 166.713 143.334 166.704 143.399 166.723C143.465 166.741 143.521 166.784 143.555 166.844C143.572 166.873 143.584 166.906 143.589 166.94C143.594 166.974 143.592 167.009 143.583 167.042C143.575 167.075 143.56 167.106 143.539 167.134C143.518 167.161 143.493 167.184 143.463 167.202L141.389 168.416C141.35 168.437 141.305 168.448 141.26 168.448ZM145.407 166.02C145.361 166.021 145.316 166.009 145.276 165.986C145.236 165.964 145.203 165.93 145.18 165.89C145.147 165.829 145.138 165.758 145.156 165.691C145.174 165.624 145.218 165.567 145.277 165.532L147.345 164.318C147.375 164.301 147.408 164.29 147.442 164.286C147.476 164.281 147.511 164.284 147.544 164.293C147.577 164.302 147.608 164.317 147.635 164.338C147.662 164.36 147.685 164.386 147.702 164.416C147.719 164.446 147.73 164.478 147.734 164.513C147.738 164.547 147.736 164.581 147.727 164.615C147.718 164.648 147.703 164.679 147.682 164.706C147.661 164.733 147.634 164.756 147.605 164.773L145.531 165.987C145.493 166.009 145.45 166.02 145.407 166.02ZM149.549 163.597C149.503 163.598 149.459 163.586 149.42 163.563C149.381 163.54 149.349 163.507 149.327 163.467C149.292 163.407 149.281 163.335 149.298 163.267C149.316 163.198 149.359 163.14 149.419 163.104L151.471 161.895C151.5 161.878 151.532 161.866 151.565 161.862C151.599 161.857 151.633 161.859 151.666 161.867C151.698 161.876 151.729 161.891 151.756 161.912C151.783 161.932 151.805 161.958 151.822 161.987C151.856 162.047 151.865 162.118 151.848 162.185C151.831 162.252 151.789 162.309 151.73 162.345L149.657 163.559C149.624 163.581 149.587 163.594 149.549 163.597ZM153.69 161.169C153.645 161.168 153.601 161.155 153.563 161.133C153.524 161.11 153.492 161.078 153.469 161.039C153.435 160.979 153.425 160.908 153.443 160.841C153.46 160.775 153.502 160.717 153.561 160.681L155.634 159.467C155.663 159.449 155.695 159.437 155.729 159.432C155.762 159.426 155.797 159.428 155.83 159.437C155.862 159.445 155.893 159.461 155.92 159.482C155.947 159.503 155.969 159.529 155.985 159.559C156.003 159.589 156.016 159.621 156.021 159.655C156.026 159.69 156.024 159.724 156.016 159.758C156.007 159.791 155.992 159.823 155.971 159.85C155.95 159.877 155.923 159.9 155.893 159.917L153.82 161.131C153.781 161.157 153.736 161.17 153.69 161.169ZM157.837 158.741C157.779 158.742 157.723 158.723 157.677 158.688C157.631 158.653 157.598 158.604 157.583 158.548C157.568 158.492 157.572 158.432 157.595 158.379C157.617 158.325 157.657 158.281 157.708 158.253L159.781 157.039C159.81 157.022 159.843 157.011 159.877 157.006C159.91 157.002 159.944 157.004 159.977 157.013C160.01 157.022 160.041 157.038 160.067 157.059C160.094 157.08 160.116 157.107 160.132 157.137C160.166 157.197 160.174 157.268 160.156 157.335C160.138 157.402 160.094 157.459 160.035 157.494L157.951 158.708C157.916 158.727 157.877 158.738 157.837 158.741ZM161.979 156.313C161.934 156.314 161.889 156.302 161.85 156.279C161.811 156.256 161.779 156.223 161.758 156.183C161.74 156.153 161.728 156.12 161.724 156.086C161.719 156.052 161.721 156.018 161.729 155.985C161.738 155.951 161.753 155.92 161.773 155.893C161.794 155.865 161.82 155.842 161.849 155.825L163.923 154.611C163.982 154.578 164.053 154.569 164.118 154.587C164.184 154.606 164.24 154.649 164.274 154.708C164.291 154.738 164.303 154.771 164.308 154.805C164.313 154.839 164.311 154.873 164.302 154.906C164.294 154.94 164.279 154.971 164.258 154.998C164.237 155.026 164.212 155.049 164.182 155.066L162.109 156.28C162.068 156.301 162.024 156.312 161.979 156.313Z" fill="#0165B7"/>
<path d="M138.096 170.302C138.051 170.301 138.007 170.288 137.968 170.265C137.93 170.243 137.897 170.21 137.874 170.172C137.84 170.112 137.831 170.041 137.848 169.974C137.865 169.907 137.908 169.85 137.966 169.814L139.046 169.174C139.075 169.157 139.108 169.146 139.142 169.142C139.175 169.137 139.209 169.14 139.242 169.149C139.275 169.158 139.306 169.173 139.332 169.195C139.359 169.216 139.381 169.242 139.397 169.272C139.431 169.332 139.439 169.404 139.421 169.471C139.403 169.537 139.359 169.595 139.3 169.63L138.22 170.269C138.182 170.29 138.139 170.302 138.096 170.302Z" fill="#0165B7"/>
<path d="M137 191.868C136.955 191.868 136.911 191.856 136.872 191.833C136.833 191.81 136.801 191.777 136.779 191.738C136.746 191.678 136.738 191.607 136.755 191.541C136.772 191.474 136.813 191.417 136.871 191.38L137.951 190.74C138.01 190.707 138.08 190.699 138.146 190.717C138.212 190.735 138.268 190.779 138.302 190.838C138.335 190.899 138.344 190.97 138.325 191.037C138.307 191.104 138.264 191.161 138.204 191.196L137.124 191.835C137.086 191.856 137.044 191.868 137 191.868Z" fill="#0165B7"/>
<path d="M112.139 206.41C112.093 206.411 112.049 206.399 112.01 206.376C111.97 206.353 111.939 206.32 111.917 206.279C111.9 206.25 111.888 206.217 111.883 206.183C111.879 206.149 111.881 206.115 111.889 206.081C111.898 206.048 111.913 206.017 111.933 205.99C111.954 205.962 111.98 205.939 112.009 205.922L114.083 204.708C114.142 204.674 114.212 204.666 114.278 204.684C114.344 204.702 114.4 204.746 114.434 204.805C114.451 204.835 114.463 204.867 114.468 204.901C114.472 204.935 114.471 204.97 114.462 205.003C114.453 205.037 114.438 205.068 114.418 205.095C114.397 205.123 114.371 205.146 114.342 205.163L112.268 206.377C112.228 206.398 112.184 206.409 112.139 206.41ZM116.28 203.981C116.235 203.981 116.191 203.969 116.152 203.946C116.113 203.924 116.081 203.891 116.059 203.851C116.026 203.791 116.018 203.721 116.035 203.654C116.052 203.588 116.093 203.53 116.151 203.494L118.224 202.279C118.254 202.262 118.287 202.251 118.321 202.247C118.355 202.243 118.39 202.245 118.423 202.254C118.456 202.263 118.487 202.279 118.514 202.3C118.541 202.321 118.564 202.347 118.581 202.377C118.598 202.407 118.609 202.44 118.613 202.474C118.617 202.508 118.615 202.543 118.606 202.576C118.597 202.609 118.581 202.64 118.56 202.668C118.539 202.695 118.513 202.718 118.484 202.735L116.41 203.949C116.37 203.971 116.326 203.982 116.28 203.981ZM120.427 201.559C120.381 201.559 120.336 201.546 120.296 201.522C120.256 201.498 120.223 201.464 120.201 201.423C120.167 201.363 120.159 201.291 120.177 201.224C120.195 201.158 120.238 201.101 120.298 201.065L122.371 199.857C122.4 199.839 122.433 199.828 122.466 199.823C122.499 199.818 122.534 199.82 122.566 199.829C122.599 199.837 122.63 199.852 122.656 199.873C122.683 199.894 122.706 199.919 122.722 199.949C122.756 200.009 122.764 200.081 122.746 200.148C122.728 200.214 122.685 200.271 122.625 200.307L120.557 201.521C120.518 201.546 120.473 201.559 120.427 201.559ZM124.569 199.13C124.511 199.131 124.455 199.113 124.409 199.078C124.363 199.043 124.329 198.993 124.314 198.937C124.3 198.881 124.304 198.822 124.326 198.768C124.349 198.715 124.389 198.671 124.44 198.643L126.513 197.429C126.542 197.41 126.574 197.398 126.608 197.393C126.641 197.388 126.676 197.39 126.708 197.398C126.741 197.407 126.772 197.422 126.799 197.443C126.826 197.464 126.848 197.491 126.864 197.521C126.882 197.55 126.894 197.583 126.9 197.617C126.905 197.651 126.903 197.686 126.895 197.719C126.886 197.753 126.871 197.784 126.85 197.812C126.829 197.839 126.802 197.862 126.772 197.878L124.699 199.093C124.66 199.118 124.615 199.131 124.569 199.13ZM128.716 196.702C128.658 196.703 128.602 196.685 128.556 196.65C128.51 196.615 128.476 196.565 128.462 196.509C128.447 196.453 128.451 196.394 128.474 196.34C128.496 196.287 128.536 196.243 128.587 196.215L130.655 195C130.684 194.983 130.717 194.972 130.751 194.967C130.785 194.963 130.82 194.965 130.853 194.974C130.886 194.983 130.917 194.999 130.945 195.02C130.972 195.041 130.994 195.068 131.011 195.098C131.045 195.159 131.053 195.23 131.035 195.297C131.017 195.364 130.973 195.421 130.914 195.456L128.84 196.67C128.803 196.691 128.76 196.703 128.716 196.702ZM132.858 194.274C132.812 194.275 132.768 194.264 132.729 194.241C132.689 194.218 132.658 194.184 132.636 194.144C132.619 194.115 132.607 194.082 132.603 194.048C132.598 194.014 132.6 193.979 132.608 193.946C132.617 193.913 132.632 193.882 132.652 193.854C132.673 193.827 132.699 193.804 132.728 193.786L134.802 192.572C134.861 192.539 134.931 192.53 134.997 192.549C135.063 192.567 135.119 192.611 135.153 192.67C135.185 192.73 135.194 192.8 135.177 192.867C135.16 192.933 135.118 192.991 135.061 193.028L132.987 194.242C132.947 194.263 132.903 194.274 132.858 194.274Z" fill="#0165B7"/>
<path d="M108.975 208.263C108.93 208.262 108.886 208.25 108.847 208.227C108.809 208.204 108.776 208.172 108.753 208.133C108.719 208.073 108.71 208.002 108.727 207.936C108.744 207.869 108.787 207.811 108.845 207.775L109.925 207.136C109.955 207.119 109.988 207.107 110.022 207.103C110.056 207.098 110.09 207.101 110.124 207.11C110.157 207.119 110.188 207.134 110.215 207.156C110.242 207.177 110.265 207.203 110.281 207.233C110.315 207.294 110.324 207.365 110.305 207.432C110.287 207.499 110.244 207.556 110.184 207.591L109.104 208.231C109.065 208.252 109.02 208.263 108.975 208.263Z" fill="#0165B7"/>
<path d="M126.017 49.0833C125.246 49.4812 124.391 49.6888 123.525 49.6888C122.658 49.6888 121.803 49.4812 121.033 49.0833C119.661 48.2811 119.661 46.9749 121.033 46.1673C121.803 45.7694 122.658 45.5618 123.525 45.5618C124.391 45.5618 125.246 45.7694 126.017 46.1673C127.394 46.9749 127.394 48.2811 126.017 49.0833Z" fill="#455A64"/>
<path d="M123.527 33.5822V21.8425L138.641 27.7124L123.527 33.5822Z" fill="#0165B7"/>
<path d="M123.526 48.1511C123.383 48.1511 123.246 48.094 123.145 47.9924C123.043 47.8908 122.986 47.7529 122.986 47.6091V19.539C122.963 19.4582 122.959 19.373 122.974 19.2903C122.989 19.2075 123.023 19.1293 123.073 19.062C123.123 18.9947 123.188 18.9401 123.263 18.9024C123.338 18.8648 123.421 18.8452 123.505 18.8452C123.589 18.8452 123.671 18.8648 123.746 18.9024C123.821 18.9401 123.887 18.9947 123.937 19.062C123.987 19.1293 124.021 19.2075 124.036 19.2903C124.051 19.373 124.047 19.4582 124.023 19.539V47.6254C124.02 47.7591 123.967 47.8868 123.875 47.9839C123.783 48.0809 123.659 48.1405 123.526 48.1511Z" fill="#263238"/>
<path d="M130.597 74.8327V73.7905L132.7 70.3084C132.879 70.0036 133.029 69.7356 133.15 69.5046C133.273 69.2724 133.367 69.061 133.43 68.8703C133.494 68.6773 133.525 68.4907 133.525 68.3103C133.525 68.1099 133.486 67.9603 133.407 67.8616C133.328 67.7606 133.22 67.711 133.084 67.7127C132.947 67.7123 132.792 67.7625 132.619 67.8636C132.439 67.9691 132.281 68.1034 132.146 68.2666C132.012 68.4298 131.908 68.6118 131.835 68.8126C131.762 69.0133 131.725 69.2228 131.725 69.4411L130.539 70.133C130.539 69.6854 130.627 69.2458 130.802 68.814C130.977 68.3823 131.222 67.9842 131.537 67.6197C131.853 67.2553 132.216 66.9529 132.628 66.7127C133.051 66.4658 133.419 66.3377 133.733 66.3285C134.048 66.3159 134.294 66.411 134.469 66.614C134.644 66.8169 134.731 67.1155 134.731 67.5097C134.731 67.768 134.687 68.0488 134.599 68.3521C134.512 68.6542 134.357 69.0241 134.134 69.4616C133.911 69.8969 133.596 70.4467 133.191 71.1111L132.328 72.5933V72.64L134.809 71.1921V72.3746L130.597 74.8327ZM138.031 70.6447C137.535 70.9321 137.108 71.0398 136.75 70.968C136.394 70.8951 136.12 70.6486 135.928 70.2286C135.737 69.8075 135.643 69.2222 135.645 68.4729C135.645 67.7268 135.74 67.0355 135.931 66.3988C136.123 65.761 136.397 65.2013 136.753 64.7198C137.111 64.2348 137.537 63.8482 138.031 63.5597C138.525 63.2712 138.95 63.1612 139.306 63.2297C139.664 63.2971 139.939 63.5374 140.131 63.9508C140.324 64.3618 140.419 64.941 140.417 65.6881C140.417 66.4386 140.321 67.1361 140.129 67.7806C139.938 68.4239 139.665 68.9897 139.309 69.478C138.953 69.9662 138.527 70.3551 138.031 70.6447ZM138.031 69.4455C138.37 69.248 138.64 68.8932 138.842 68.3811C139.044 67.8691 139.144 67.2195 139.142 66.4323C139.142 65.9134 139.096 65.5083 139.003 65.217C138.913 64.9246 138.784 64.7404 138.617 64.6643C138.451 64.5871 138.256 64.6142 138.031 64.7455C137.694 64.942 137.425 65.294 137.223 65.8015C137.021 66.3091 136.919 66.9521 136.917 67.7304C136.917 68.2559 136.963 68.6683 137.053 68.9674C137.145 69.2631 137.275 69.4501 137.442 69.5284C137.61 69.6045 137.806 69.5768 138.031 69.4455ZM141.308 68.5822V67.54L143.411 64.0578C143.59 63.753 143.74 63.4851 143.861 63.254C143.984 63.0218 144.077 62.8104 144.141 62.6197C144.204 62.4268 144.236 62.2401 144.236 62.0597C144.236 61.8593 144.197 61.7097 144.118 61.611C144.039 61.51 143.931 61.4604 143.795 61.4622C143.658 61.4617 143.503 61.512 143.33 61.613C143.149 61.7185 142.992 61.8529 142.857 62.0161C142.722 62.1793 142.619 62.3612 142.545 62.562C142.472 62.7628 142.436 62.9723 142.436 63.1905L141.25 63.8825C141.25 63.4349 141.338 62.9952 141.513 62.5635C141.688 62.1317 141.933 61.7336 142.248 61.3692C142.564 61.0047 142.927 60.7024 143.339 60.4622C143.762 60.2153 144.13 60.0872 144.444 60.0779C144.759 60.0653 145.005 60.1605 145.18 60.3634C145.355 60.5664 145.442 60.8649 145.442 61.2591C145.442 61.5174 145.398 61.7982 145.309 62.1015C145.223 62.4037 145.068 62.7735 144.845 63.211C144.622 63.6463 144.307 64.1962 143.901 64.8606L143.039 66.3427V66.3895L145.52 64.9416V66.1241L141.308 68.5822ZM138.097 81.5494C137.793 81.7245 137.5 81.8367 137.217 81.8859C136.936 81.934 136.684 81.8928 136.461 81.7625C136.238 81.6321 136.061 81.3902 135.93 81.0367C135.801 80.6821 135.737 80.192 135.737 79.5662C135.739 78.9905 135.796 78.4441 135.907 77.9269C136.021 77.4064 136.182 76.9268 136.392 76.4883C136.604 76.0486 136.856 75.6605 137.151 75.3239C137.445 74.9852 137.775 74.7092 138.14 74.4959C138.535 74.2658 138.883 74.1517 139.185 74.1537C139.487 74.1534 139.729 74.2513 139.912 74.4476C140.096 74.6427 140.208 74.9172 140.246 75.2711L139.015 75.99C138.966 75.7798 138.865 75.6517 138.712 75.6056C138.558 75.5596 138.367 75.6028 138.14 75.7352C137.756 75.9597 137.463 76.3241 137.263 76.8283C137.065 77.3314 136.964 77.917 136.96 78.5851L137.001 78.5615C137.089 78.3072 137.208 78.065 137.358 77.835C137.51 77.6015 137.683 77.3909 137.875 77.2029C138.069 77.0116 138.274 76.8531 138.489 76.7274C138.839 76.5231 139.151 76.437 139.424 76.4691C139.697 76.499 139.913 76.6339 140.07 76.8737C140.228 77.1134 140.307 77.4471 140.307 77.8747C140.307 78.3379 140.214 78.8043 140.027 79.274C139.843 79.7425 139.584 80.1763 139.251 80.5753C138.92 80.971 138.536 81.2957 138.097 81.5494ZM138.091 80.417C138.284 80.3048 138.456 80.1509 138.608 79.9553C138.76 79.7598 138.879 79.5454 138.965 79.3123C139.052 79.0792 139.095 78.849 139.095 78.6219C139.095 78.3948 139.052 78.2162 138.965 78.0864C138.881 77.9554 138.764 77.8802 138.613 77.8609C138.463 77.8415 138.292 77.888 138.1 78.0002C137.956 78.0844 137.822 78.1936 137.699 78.3278C137.578 78.4608 137.471 78.61 137.379 78.7752C137.288 78.9393 137.217 79.11 137.165 79.2873C137.113 79.4623 137.087 79.6323 137.087 79.7971C137.087 80.0175 137.131 80.1938 137.217 80.3259C137.306 80.4569 137.425 80.5332 137.575 80.5547C137.727 80.5752 137.899 80.5293 138.091 80.417Z" fill="#F4F4F4"/>
<path d="M160.497 113.547V112.505L162.601 109.022C162.779 108.718 162.929 108.45 163.051 108.219C163.174 107.987 163.267 107.775 163.33 107.584C163.394 107.391 163.426 107.205 163.426 107.024C163.426 106.824 163.386 106.674 163.307 106.576C163.229 106.475 163.121 106.425 162.984 106.427C162.848 106.426 162.693 106.477 162.52 106.578C162.339 106.683 162.181 106.818 162.047 106.981C161.912 107.144 161.808 107.326 161.735 107.527C161.662 107.727 161.625 107.937 161.625 108.155L160.44 108.847C160.44 108.4 160.527 107.96 160.702 107.528C160.877 107.096 161.122 106.698 161.438 106.334C161.753 105.969 162.117 105.667 162.528 105.427C162.952 105.18 163.32 105.052 163.633 105.043C163.949 105.03 164.194 105.125 164.369 105.328C164.544 105.531 164.632 105.83 164.632 106.224C164.632 106.482 164.587 106.763 164.499 107.066C164.412 107.368 164.258 107.738 164.034 108.176C163.811 108.611 163.497 109.161 163.091 109.825L162.228 111.307V111.354L164.71 109.906V111.089L160.497 113.547ZM167.931 109.359C167.435 109.646 167.008 109.754 166.65 109.682C166.295 109.609 166.021 109.363 165.828 108.943C165.638 108.522 165.544 107.936 165.545 107.187C165.545 106.441 165.641 105.75 165.831 105.113C166.023 104.475 166.298 103.915 166.653 103.434C167.011 102.949 167.437 102.562 167.931 102.274C168.426 101.985 168.851 101.875 169.207 101.944C169.564 102.011 169.839 102.252 170.032 102.665C170.224 103.076 170.319 103.655 170.317 104.402C170.317 105.153 170.221 105.85 170.029 106.495C169.838 107.138 169.565 107.704 169.21 108.192C168.854 108.68 168.428 109.069 167.931 109.359ZM167.931 108.16C168.27 107.962 168.54 107.607 168.742 107.095C168.944 106.583 169.044 105.934 169.042 105.146C169.042 104.628 168.996 104.222 168.904 103.931C168.813 103.639 168.684 103.454 168.517 103.378C168.352 103.301 168.156 103.328 167.931 103.46C167.595 103.656 167.326 104.008 167.124 104.516C166.922 105.023 166.82 105.666 166.818 106.444C166.818 106.97 166.863 107.382 166.953 107.681C167.046 107.977 167.176 108.164 167.343 108.243C167.51 108.319 167.706 108.291 167.931 108.16ZM171.208 107.296V106.254L173.311 102.772C173.49 102.467 173.64 102.199 173.761 101.968C173.885 101.736 173.978 101.525 174.041 101.334C174.105 101.141 174.137 100.954 174.137 100.774C174.137 100.573 174.097 100.424 174.018 100.325C173.939 100.224 173.832 100.175 173.695 100.176C173.559 100.176 173.404 100.226 173.231 100.327C173.05 100.433 172.892 100.567 172.757 100.73C172.623 100.893 172.519 101.075 172.446 101.276C172.373 101.477 172.336 101.686 172.336 101.905L171.15 102.597C171.15 102.149 171.238 101.709 171.413 101.278C171.588 100.846 171.833 100.448 172.149 100.083C172.464 99.7188 172.828 99.4165 173.239 99.1763C173.662 98.9294 174.031 98.8013 174.344 98.792C174.66 98.7794 174.905 98.8746 175.08 99.0775C175.255 99.2805 175.343 99.579 175.343 99.9732C175.343 100.232 175.298 100.512 175.21 100.816C175.123 101.118 174.968 101.488 174.745 101.925C174.522 102.36 174.208 102.91 173.802 103.575L172.939 105.057V105.104L175.42 103.656V104.838L171.208 107.296ZM167.951 120.29C167.544 120.528 167.18 120.654 166.861 120.666C166.543 120.678 166.291 120.585 166.105 120.389C165.918 120.193 165.821 119.9 165.813 119.51L167.025 118.803C167.039 119.06 167.135 119.219 167.314 119.28C167.493 119.34 167.705 119.298 167.951 119.155C168.147 119.04 168.321 118.889 168.471 118.701C168.623 118.51 168.741 118.3 168.825 118.07C168.912 117.837 168.955 117.602 168.955 117.366C168.955 117.126 168.911 116.94 168.823 116.809C168.736 116.677 168.616 116.605 168.462 116.592C168.308 116.579 168.132 116.63 167.934 116.743C167.761 116.844 167.593 116.983 167.429 117.161C167.268 117.338 167.142 117.524 167.051 117.719L165.94 118.137L166.22 114.366L169.832 112.258V113.441L167.25 114.947L167.097 116.75L167.132 116.73C167.236 116.5 167.393 116.268 167.602 116.035C167.812 115.801 168.046 115.608 168.306 115.457C168.662 115.249 168.979 115.161 169.258 115.192C169.537 115.223 169.757 115.361 169.919 115.605C170.08 115.847 170.16 116.188 170.158 116.627C170.16 117.087 170.068 117.551 169.881 118.018C169.697 118.482 169.438 118.914 169.105 119.313C168.774 119.709 168.39 120.035 167.951 120.29Z" fill="#F4F4F4"/>
<path d="M159.847 144.084V143.041L161.95 142.014C162.129 141.918 162.279 141.825 162.4 141.736C162.524 141.647 162.617 141.544 162.68 141.428C162.744 141.309 162.775 141.159 162.775 140.979C162.775 140.779 162.736 140.583 162.657 140.392C162.578 140.199 162.471 140.024 162.334 139.866C162.197 139.706 162.043 139.576 161.87 139.475C161.689 139.369 161.531 139.32 161.396 139.326C161.262 139.332 161.158 139.393 161.085 139.508C161.012 139.623 160.975 139.79 160.975 140.009L159.789 139.317C159.789 138.869 159.877 138.531 160.052 138.304C160.227 138.077 160.472 137.965 160.788 137.968C161.103 137.972 161.467 138.094 161.878 138.334C162.301 138.581 162.67 138.883 162.983 139.24C163.299 139.595 163.544 139.977 163.719 140.384C163.894 140.791 163.981 141.192 163.981 141.586C163.981 141.844 163.937 142.073 163.849 142.273C163.762 142.475 163.607 142.664 163.384 142.841C163.161 143.016 162.847 143.198 162.441 143.389L161.578 143.865V143.911L164.059 145.359V146.542L159.847 144.084ZM167.281 148.572C166.785 148.28 166.358 147.89 166 147.4C165.644 146.912 165.37 146.346 165.178 145.701C164.988 145.058 164.893 144.363 164.895 143.616C164.895 142.87 164.99 142.289 165.181 141.875C165.373 141.462 165.647 141.222 166.003 141.156C166.361 141.088 166.787 141.199 167.281 141.487C167.776 141.776 168.201 142.162 168.556 142.646C168.914 143.131 169.189 143.692 169.382 144.33C169.574 144.965 169.669 145.656 169.667 146.4C169.667 147.151 169.571 147.736 169.379 148.156C169.188 148.577 168.915 148.824 168.559 148.897C168.203 148.97 167.777 148.862 167.281 148.572ZM167.281 147.373C167.62 147.571 167.89 147.531 168.092 147.255C168.294 146.979 168.394 146.446 168.392 145.656C168.392 145.137 168.346 144.678 168.253 144.279C168.163 143.881 168.034 143.547 167.867 143.275C167.701 143.005 167.506 142.804 167.281 142.673C166.945 142.477 166.675 142.514 166.473 142.786C166.271 143.058 166.17 143.582 166.168 144.358C166.168 144.884 166.213 145.349 166.303 145.753C166.396 146.157 166.525 146.495 166.693 146.769C166.86 147.04 167.056 147.242 167.281 147.373ZM170.558 150.334V149.292L172.661 148.265C172.84 148.168 172.99 148.076 173.111 147.986C173.234 147.898 173.328 147.795 173.391 147.678C173.455 147.559 173.486 147.41 173.486 147.23C173.486 147.029 173.447 146.833 173.368 146.643C173.289 146.45 173.181 146.274 173.045 146.117C172.908 145.957 172.753 145.826 172.58 145.725C172.4 145.62 172.242 145.57 172.107 145.576C171.973 145.582 171.869 145.643 171.796 145.759C171.723 145.874 171.686 146.041 171.686 146.259L170.5 145.567C170.5 145.119 170.588 144.782 170.763 144.555C170.938 144.327 171.183 144.215 171.498 144.219C171.814 144.223 172.177 144.345 172.589 144.585C173.012 144.832 173.381 145.133 173.694 145.49C174.009 145.846 174.255 146.227 174.43 146.634C174.605 147.042 174.692 147.442 174.692 147.836C174.692 148.095 174.648 148.324 174.56 148.524C174.473 148.725 174.318 148.914 174.095 149.091C173.872 149.266 173.557 149.449 173.152 149.64L172.289 150.115V150.162L174.77 151.61V152.792L170.558 150.334ZM164.855 156.804V155.665L167.322 152.605L168.17 153.1V154.676L167.668 154.383L166.113 156.325V156.379L169.618 158.424V159.583L164.855 156.804ZM167.691 159.661V158.111L167.714 157.62V152.834L168.886 153.517V160.358L167.691 159.661Z" fill="#F4F4F4"/>
<path d="M130.762 181.881V180.839L132.865 179.812C133.044 179.716 133.194 179.623 133.315 179.533C133.439 179.445 133.532 179.342 133.595 179.225C133.659 179.107 133.691 178.957 133.691 178.777C133.691 178.576 133.651 178.381 133.572 178.19C133.493 177.997 133.386 177.821 133.249 177.664C133.113 177.504 132.958 177.374 132.785 177.272C132.604 177.167 132.446 177.117 132.311 177.123C132.177 177.129 132.073 177.19 132 177.306C131.927 177.421 131.89 177.588 131.89 177.806L130.704 177.114C130.704 176.667 130.792 176.329 130.967 176.102C131.142 175.874 131.387 175.762 131.703 175.766C132.018 175.77 132.382 175.892 132.793 176.132C133.216 176.379 133.585 176.681 133.898 177.037C134.214 177.393 134.459 177.774 134.634 178.181C134.809 178.589 134.896 178.989 134.896 179.383C134.896 179.642 134.852 179.871 134.764 180.071C134.677 180.272 134.522 180.461 134.299 180.638C134.076 180.813 133.762 180.996 133.356 181.187L132.493 181.662V181.709L134.974 183.157V184.339L130.762 181.881ZM138.196 186.37C137.7 186.078 137.273 185.687 136.915 185.198C136.559 184.71 136.285 184.143 136.093 183.499C135.903 182.856 135.808 182.16 135.81 181.413C135.81 180.667 135.906 180.087 136.096 179.673C136.288 179.259 136.562 179.019 136.918 178.953C137.276 178.886 137.702 178.996 138.196 179.285C138.691 179.573 139.116 179.959 139.471 180.443C139.829 180.928 140.104 181.489 140.297 182.127C140.489 182.763 140.584 183.453 140.582 184.198C140.582 184.948 140.486 185.534 140.294 185.954C140.103 186.375 139.83 186.622 139.474 186.695C139.119 186.768 138.693 186.659 138.196 186.37ZM138.196 185.171C138.535 185.368 138.805 185.329 139.007 185.052C139.209 184.776 139.309 184.243 139.307 183.454C139.307 182.935 139.261 182.476 139.169 182.077C139.078 181.679 138.949 181.344 138.782 181.073C138.617 180.803 138.421 180.602 138.196 180.471C137.86 180.274 137.59 180.312 137.388 180.584C137.186 180.856 137.085 181.38 137.083 182.156C137.083 182.681 137.128 183.146 137.218 183.551C137.311 183.954 137.44 184.293 137.608 184.567C137.775 184.838 137.971 185.039 138.196 185.171ZM141.473 188.132V187.089L143.576 186.062C143.755 185.966 143.905 185.873 144.026 185.784C144.149 185.695 144.243 185.593 144.306 185.476C144.37 185.357 144.401 185.207 144.401 185.027C144.401 184.827 144.362 184.631 144.283 184.44C144.204 184.247 144.096 184.072 143.96 183.914C143.823 183.754 143.669 183.624 143.495 183.523C143.315 183.417 143.157 183.368 143.022 183.374C142.888 183.38 142.784 183.441 142.711 183.556C142.638 183.672 142.601 183.838 142.601 184.057L141.415 183.365C141.415 182.917 141.503 182.58 141.678 182.352C141.853 182.125 142.098 182.013 142.414 182.016C142.729 182.02 143.092 182.142 143.504 182.382C143.927 182.629 144.296 182.931 144.609 183.288C144.924 183.643 145.17 184.025 145.345 184.432C145.52 184.839 145.607 185.24 145.607 185.634C145.607 185.892 145.563 186.121 145.475 186.321C145.388 186.523 145.233 186.712 145.01 186.889C144.787 187.064 144.472 187.247 144.067 187.437L143.204 187.913V187.959L145.685 189.407V190.59L141.473 188.132ZM138.183 197.305C137.752 197.054 137.368 196.744 137.031 196.376C136.697 196.007 136.432 195.614 136.238 195.198C136.046 194.781 135.947 194.371 135.941 193.969L137.199 194.703C137.206 194.875 137.254 195.049 137.34 195.227C137.429 195.403 137.546 195.568 137.692 195.723C137.838 195.877 138.003 196.008 138.185 196.114C138.376 196.225 138.544 196.285 138.69 196.292C138.837 196.299 138.951 196.258 139.034 196.168C139.116 196.078 139.158 195.943 139.158 195.763C139.158 195.58 139.113 195.393 139.025 195.201C138.938 195.008 138.813 194.824 138.65 194.648C138.488 194.474 138.296 194.321 138.073 194.191L137.522 193.87V192.807L138.073 193.129C138.261 193.239 138.428 193.298 138.572 193.307C138.718 193.316 138.832 193.278 138.912 193.191C138.993 193.103 139.034 192.968 139.034 192.788C139.034 192.616 138.998 192.445 138.927 192.275C138.858 192.103 138.76 191.943 138.633 191.795C138.508 191.649 138.361 191.527 138.194 191.429C138.025 191.331 137.87 191.276 137.73 191.265C137.589 191.252 137.477 191.286 137.392 191.365C137.307 191.445 137.262 191.57 137.256 191.741L136.059 191.042C136.065 190.651 136.162 190.36 136.351 190.17C136.539 189.979 136.793 189.892 137.112 189.909C137.433 189.925 137.796 190.051 138.2 190.287C138.608 190.525 138.964 190.819 139.27 191.169C139.576 191.519 139.814 191.889 139.983 192.279C140.154 192.669 140.239 193.043 140.237 193.403C140.239 193.787 140.136 194.047 139.928 194.182C139.722 194.318 139.454 194.324 139.123 194.199V194.253C139.558 194.571 139.889 194.939 140.116 195.357C140.344 195.773 140.458 196.193 140.456 196.617C140.458 197.008 140.361 197.298 140.165 197.486C139.97 197.676 139.702 197.757 139.36 197.731C139.017 197.705 138.625 197.563 138.183 197.305Z" fill="#F4F4F4"/>
<path d="M101.739 218.836V217.793L103.842 216.766C104.021 216.67 104.171 216.577 104.292 216.487C104.415 216.399 104.508 216.296 104.572 216.18C104.635 216.061 104.667 215.911 104.667 215.731C104.667 215.53 104.628 215.335 104.549 215.144C104.47 214.951 104.362 214.776 104.226 214.618C104.089 214.458 103.934 214.328 103.761 214.227C103.58 214.121 103.423 214.072 103.288 214.078C103.153 214.084 103.05 214.144 102.976 214.26C102.903 214.375 102.867 214.542 102.867 214.76L101.681 214.068C101.681 213.621 101.769 213.283 101.944 213.056C102.119 212.828 102.364 212.717 102.679 212.72C102.995 212.724 103.358 212.846 103.77 213.086C104.193 213.333 104.561 213.635 104.875 213.992C105.19 214.347 105.435 214.728 105.61 215.136C105.786 215.543 105.873 215.944 105.873 216.338C105.873 216.596 105.829 216.825 105.74 217.025C105.654 217.226 105.499 217.416 105.276 217.593C105.053 217.768 104.738 217.95 104.332 218.141L103.47 218.616V218.663L105.951 220.111V221.294L101.739 218.836ZM109.173 223.324C108.677 223.032 108.25 222.642 107.892 222.152C107.536 221.664 107.262 221.098 107.07 220.453C106.879 219.81 106.785 219.115 106.787 218.368C106.787 217.622 106.882 217.041 107.073 216.627C107.265 216.214 107.539 215.974 107.895 215.908C108.252 215.84 108.679 215.951 109.173 216.239C109.667 216.528 110.092 216.914 110.448 217.398C110.806 217.882 111.081 218.444 111.273 219.082C111.466 219.717 111.561 220.407 111.559 221.152C111.559 221.903 111.463 222.488 111.27 222.908C111.08 223.329 110.807 223.576 110.451 223.649C110.095 223.722 109.669 223.614 109.173 223.324ZM109.173 222.125C109.511 222.322 109.782 222.283 109.984 222.007C110.185 221.73 110.286 221.198 110.284 220.408C110.284 219.889 110.237 219.43 110.145 219.031C110.055 218.633 109.926 218.299 109.759 218.027C109.593 217.757 109.398 217.556 109.173 217.425C108.836 217.229 108.567 217.266 108.365 217.538C108.163 217.81 108.061 218.334 108.059 219.11C108.059 219.636 108.104 220.101 108.195 220.505C108.287 220.909 108.417 221.247 108.584 221.521C108.752 221.792 108.948 221.994 109.173 222.125ZM112.45 225.086V224.044L114.553 223.016C114.732 222.92 114.882 222.828 115.003 222.738C115.126 222.649 115.219 222.547 115.283 222.43C115.346 222.311 115.378 222.162 115.378 221.981C115.378 221.781 115.338 221.585 115.26 221.395C115.181 221.202 115.073 221.026 114.936 220.869C114.8 220.709 114.645 220.578 114.472 220.477C114.291 220.372 114.133 220.322 113.999 220.328C113.864 220.334 113.76 220.395 113.687 220.51C113.614 220.626 113.578 220.793 113.578 221.011L112.392 220.319C112.392 219.871 112.479 219.534 112.654 219.306C112.829 219.079 113.075 218.967 113.39 218.971C113.706 218.974 114.069 219.096 114.481 219.337C114.904 219.584 115.272 219.885 115.586 220.242C115.901 220.598 116.146 220.979 116.321 221.386C116.496 221.793 116.584 222.194 116.584 222.588C116.584 222.847 116.54 223.076 116.451 223.276C116.365 223.477 116.21 223.666 115.987 223.843C115.764 224.018 115.449 224.201 115.043 224.392L114.181 224.867V224.914L116.662 226.362V227.544L112.45 225.086ZM107.094 232.961V231.919L109.197 230.891C109.376 230.795 109.526 230.702 109.647 230.613C109.771 230.524 109.864 230.422 109.927 230.305C109.991 230.186 110.022 230.037 110.022 229.856C110.022 229.656 109.983 229.46 109.904 229.269C109.825 229.076 109.718 228.901 109.581 228.743C109.445 228.584 109.29 228.453 109.117 228.352C108.936 228.247 108.778 228.197 108.643 228.203C108.509 228.209 108.405 228.27 108.332 228.385C108.259 228.501 108.222 228.667 108.222 228.886L107.036 228.194C107.036 227.746 107.124 227.409 107.299 227.181C107.474 226.954 107.719 226.842 108.035 226.846C108.35 226.849 108.714 226.971 109.125 227.211C109.548 227.458 109.917 227.76 110.23 228.117C110.546 228.472 110.791 228.854 110.966 229.261C111.141 229.668 111.228 230.069 111.228 230.463C111.228 230.721 111.184 230.951 111.096 231.151C111.009 231.352 110.854 231.541 110.631 231.718C110.408 231.893 110.094 232.076 109.688 232.266L108.825 232.742V232.788L111.306 234.236V235.419L107.094 232.961Z" fill="#F4F4F4"/>
<path d="M97.8021 138.167H91.4844V148.389H97.8021V138.167Z" fill="#FFA8A7"/>
<path d="M101.576 135.825L103.077 137.993C103.143 138.086 103.172 138.2 103.161 138.313C103.151 138.426 103.1 138.532 103.018 138.611C102.642 139.023 102.129 139.283 101.576 139.343V135.825Z" fill="#F28F8F"/>
<path d="M95.2467 127.809C95.2467 127.809 100.166 124.308 101.727 136.481C103.012 146.6 96.7533 144.28 94.426 142.882C92.0987 141.484 87.6492 137.267 90.5759 131.337C91.8989 128.644 95.2467 127.809 95.2467 127.809Z" fill="#FFA8A7"/>
<path d="M99.7846 131.706C99.7846 131.706 99.8224 133.923 97.8028 134.031C98.3025 134.613 98.5563 135.367 98.5102 136.134C98.5102 137.576 98.0188 137.299 97.8028 137.023C97.5868 136.747 95.3459 137.023 95.3459 137.023L96.4907 139.191C96.6308 140.012 96.559 140.856 96.282 141.642C96.0051 142.427 95.5322 143.129 94.9085 143.679C94.9085 143.679 91.9062 144.508 90.5401 143.679C90.5401 143.679 86.7602 139.467 86.0637 136.481C85.3671 133.495 85.3563 130.888 87.1004 129.668C87.1004 129.668 87.6404 125.901 91.6308 125.901C95.6213 125.901 96.7931 126.931 98.9476 126.443C99.8224 126.248 101.135 125.614 101.135 126.497C101.135 127.381 100.055 128.123 100.055 128.123C100.055 128.123 101.135 128.064 101.718 128.01C102.301 127.955 103.602 127.76 103.381 129.451C103.159 131.142 101.653 131.999 99.7846 131.706Z" fill="#263238"/>
<path d="M87.6294 129.804C87.6294 129.804 86.5818 127.679 85.2751 128.904C85.2648 128.913 85.2565 128.924 85.2508 128.937C85.2451 128.95 85.2422 128.963 85.2422 128.977C85.2422 128.991 85.2451 129.005 85.2508 129.017C85.2565 129.03 85.2648 129.041 85.2751 129.05L87.6132 130.465L87.6294 129.804Z" fill="#263238"/>
<path d="M97.8012 137.039V140.329C97.8012 140.329 94.4102 140.264 94.4102 137.744C94.4102 135.424 97.1371 135.944 97.8012 137.039Z" fill="#FFA8A7"/>
<path d="M73.0219 222.42C73.0219 222.42 72.8653 226.794 78.9131 228.588C78.9131 228.588 79.8148 222.42 73.0219 222.42Z" fill="#253239"/>
<path d="M77.7375 232.263V229.629C77.737 229.073 77.8632 228.524 78.1066 228.024C78.3499 227.524 78.7039 227.087 79.1414 226.746C79.1414 226.746 78.2451 222.903 74.6164 223.131C73.4436 223.585 72.4334 224.381 71.7167 225.418C71.4529 225.772 71.2681 226.179 71.1749 226.611C71.0817 227.043 71.0823 227.49 71.1767 227.922C71.1528 227.824 71.1564 227.722 71.1872 227.626C71.2179 227.531 71.2745 227.445 71.3507 227.38C71.4269 227.315 71.5196 227.272 71.6186 227.257C71.7176 227.241 71.8189 227.254 71.9111 227.293L72.7859 227.656C73.3315 227.881 73.8137 228.237 74.1904 228.692C74.567 229.148 74.8264 229.689 74.9458 230.269L76.0258 235.391C76.1158 235.867 76.3496 236.304 76.6954 236.642C77.0412 236.981 77.4823 237.204 77.9589 237.282H78.0345C78.1334 237.288 78.2326 237.288 78.3315 237.282H78.4125C78.5101 237.279 78.6074 237.269 78.7041 237.255H78.7851C78.8851 237.239 78.9842 237.217 79.0821 237.19H79.1468C79.2675 237.155 79.385 237.11 79.4978 237.055C79.6199 236.999 79.7372 236.934 79.8488 236.859L80.7668 236.258C80.9001 236.171 81.0086 236.051 81.0815 235.909C81.1545 235.768 81.1893 235.61 81.1826 235.45C81.1124 234.41 80.6534 232.263 77.7375 232.263Z" fill="#37474F"/>
<path d="M80.7337 236.247L79.8158 236.849C79.7042 236.923 79.5868 236.988 79.4648 237.044C79.3519 237.099 79.2345 237.144 79.1138 237.179H79.049C78.9512 237.206 78.8521 237.228 78.752 237.244H78.671H78.5576H78.3794H78.1904H78.0014H77.9421C77.474 237.167 77.04 236.95 76.697 236.621C76.354 236.292 76.1179 235.867 76.0197 235.401C76.0223 235.385 76.0223 235.369 76.0197 235.353L74.9398 230.231C74.8203 229.651 74.5609 229.11 74.1843 228.654C73.8077 228.199 73.3254 227.843 72.7798 227.618L71.9051 227.255C71.5217 227.082 71.2733 227.38 71.1167 227.532C70.9721 227.66 70.8676 227.827 70.8159 228.014C70.7641 228.201 70.7673 228.398 70.8251 228.583L71.9051 233.347C72.1463 234.435 72.7887 235.392 73.7032 236.025L76.0089 237.613C76.3845 237.852 76.8079 238.006 77.2493 238.063C77.6907 238.121 78.1392 238.08 78.563 237.943H78.5738H78.6278C78.7908 237.886 78.9496 237.817 79.103 237.737L80.0912 237.195C80.3041 237.079 80.4883 236.917 80.6304 236.72C80.7724 236.523 80.8686 236.296 80.9119 236.057C80.8644 236.131 80.8041 236.195 80.7337 236.247Z" fill="#263238"/>
<path d="M73.8652 223.477C73.8652 223.477 78.0123 223.879 77.9961 228.28L80.5718 224.242L76.3437 219.808L73.8652 223.477Z" fill="#FFA8A7"/>
<path d="M83.0887 172.529V179.543C83.0887 182.336 83.2147 185.122 83.4667 187.9L84.3144 197.288C84.423 198.433 84.2801 199.588 83.8957 200.671C83.5113 201.755 82.8948 202.74 82.0897 203.559C80.8031 204.882 79.7317 206.4 78.9146 208.057C76.3497 213.125 73.0234 222.415 73.0234 222.415C73.0234 222.415 78.9146 222.415 78.9146 228.583L92.3331 206.101C93.2833 204.507 93.8801 202.727 94.0827 200.881L96.9338 175.185L83.0887 172.529Z" fill="#455A64"/>
<path d="M112.625 212.968C112.874 213.417 113.263 213.771 113.732 213.976H113.786C114.762 214.41 115.867 214.447 116.869 214.079L125.412 210.963C126.017 210.697 126.027 209.792 125.99 209.418H112.625V212.968Z" fill="#263238"/>
<path d="M113.131 207.889C113.131 207.889 111.927 209.147 112.369 211.526C112.442 211.901 112.604 212.253 112.842 212.552C113.08 212.85 113.386 213.086 113.735 213.239L113.789 213.266C114.766 213.698 115.871 213.733 116.873 213.364L125.415 210.247C125.624 210.166 125.794 210.011 125.894 209.81C125.994 209.609 126.016 209.379 125.955 209.163C125.561 207.77 124.168 206.366 120.939 207.217C120.123 207.486 119.281 207.668 118.428 207.759L117.99 207.044L113.131 207.889Z" fill="#37474F"/>
<path d="M118.431 207.732C117.983 208.936 116.271 209.358 114.295 208.692C113.844 208.537 113.423 208.304 113.053 208.003V203.25H118.453L118.431 207.732Z" fill="#FFA8A7"/>
<path d="M89.2012 174.323V175.126C89.1944 177.547 89.9849 179.903 91.4496 181.827C92.9144 183.751 94.9714 185.136 97.3009 185.765L111.06 189.418C111.255 189.47 111.428 189.585 111.551 189.746C111.674 189.907 111.741 190.104 111.74 190.307V206.795C111.74 206.795 118.382 210.144 120.304 204.952V187.142C120.309 185.689 119.878 184.269 119.067 183.066C118.256 181.864 117.103 180.934 115.757 180.399L101.475 174.773L89.2012 174.323Z" fill="#455A64"/>
<path d="M95.2153 190.573L95.7553 185.12C95.7553 185.12 91.3275 183.63 90.6471 181.586C90.4203 183.705 93.3848 185.646 94.13 186.079C94.4054 187.722 95.2153 190.573 95.2153 190.573Z" fill="#37474F"/>
<path d="M90.3145 148.166C90.3145 148.166 90.4386 145.549 91.335 145.549C92.0532 145.549 95.6927 146.584 97.0966 146.996C97.4798 147.1 97.8095 147.346 98.02 147.684C98.5813 148.502 98.9116 149.457 98.9757 150.448L90.3145 148.166Z" fill="#37474F"/>
<path d="M106.393 157.147C106.393 157.147 110.459 152.996 111.031 153.353C111.733 153.798 110.885 155.397 110.243 156.063L113.434 153.971C113.533 153.906 113.645 153.862 113.762 153.842C113.879 153.822 113.999 153.827 114.114 153.856C114.23 153.885 114.337 153.938 114.431 154.011C114.525 154.084 114.603 154.175 114.66 154.28C115.551 155.906 116.512 159.7 107.986 162.215L106.393 157.147Z" fill="#FFA8A7"/>
<path d="M109.191 162.708C109.191 162.708 107.074 163.684 104.331 164.876C99.7302 166.893 93.3638 169.554 92.1975 169.364C89.1383 168.87 86.1177 168.16 83.1582 167.239L83.7468 159.023L92.5593 161.624L105.767 156.427L106.307 156.21C110.033 157.586 109.191 162.708 109.191 162.708Z" fill="#263238"/>
<path d="M89.2111 146.806L85.9226 145.901C85.3892 145.756 84.8297 145.737 84.2878 145.846C83.7459 145.954 83.2365 146.187 82.7992 146.526C82.362 146.865 82.0089 147.302 81.7676 147.8C81.5263 148.299 81.4034 148.848 81.4083 149.402V150.578C81.4054 152.104 81.7573 153.61 82.436 154.975C83.1147 156.34 84.1015 157.528 85.3178 158.443L89.1463 161.315L89.2111 146.806Z" fill="#37474F"/>
<path d="M103.293 169.457L105.869 181.088C105.869 181.088 98.7359 184.681 91.0088 182.416C83.2817 180.15 82.3691 178.204 82.3691 178.204L83.1575 167.251L83.7461 159.034L84.4373 149.457C84.4675 148.99 84.599 148.536 84.8226 148.126C85.0461 147.717 85.3563 147.361 85.7314 147.084C86.1065 146.807 86.5374 146.616 86.9938 146.524C87.4503 146.432 87.9213 146.442 88.3737 146.552L99.2057 149.262C101.122 149.755 102.819 150.876 104.029 152.446C105.239 154.017 105.892 155.948 105.885 157.934L104.33 164.898L103.293 169.457Z" fill="#263238"/>
<path d="M108.452 183.25C108.452 183.25 112.702 187.12 112.432 187.743C112.162 188.367 110.407 187.7 109.732 187.093L111.962 190.21C112.032 190.307 112.082 190.417 112.107 190.535C112.133 190.652 112.135 190.773 112.112 190.891C112.089 191.009 112.043 191.121 111.975 191.22C111.907 191.319 111.82 191.403 111.719 191.467C110.175 192.459 106.476 193.635 103.555 185.131L108.452 183.25Z" fill="#FFA8A7"/>
<path d="M100.853 149.858C100.853 149.858 96.9163 157.446 95.6581 169.505C95.4583 171.408 103.126 186.378 103.126 186.378C103.126 186.378 108.213 186.958 109.363 183.126L103.293 169.473L105.837 158.448C106.065 157.484 106.046 156.477 105.783 155.522C105.259 153.63 103.952 150.757 100.853 149.858Z" fill="#37474F"/>
<path d="M180.992 54.2922L186.44 57.4358V55.4792C186.44 55.3383 186.44 55.2027 186.44 55.0618C186.44 54.9209 186.44 54.7963 186.44 54.6716V54.6228C186.64 52.032 188.573 51.0348 190.938 52.4223C192.016 53.0874 192.937 53.9786 193.638 55.0347C194.178 51.5117 197.002 50.2435 200.426 52.2489C204.233 54.4765 207.316 59.8911 207.316 64.3463V68.5414C207.32 68.8694 207.407 69.191 207.57 69.4756C207.732 69.7601 207.965 69.9983 208.245 70.1674L211.452 72.0752C212.15 72.4921 212.727 73.0842 213.128 73.7931C213.528 74.5021 213.738 75.3035 213.736 76.1185C213.74 76.4557 213.654 76.7877 213.488 77.0809C213.323 77.3741 213.082 77.618 212.792 77.7876C212.502 77.9573 212.172 78.0466 211.836 78.0467C211.5 78.0467 211.17 77.9575 210.88 77.7879L181.089 60.3355C180.295 59.8673 179.637 59.1987 179.181 58.3962C178.724 57.5936 178.485 56.6852 178.486 55.761C178.488 55.467 178.565 55.1784 178.712 54.9237C178.858 54.669 179.068 54.457 179.321 54.3087C179.574 54.1604 179.861 54.0809 180.154 54.078C180.447 54.0751 180.736 54.1489 180.992 54.2922Z" fill="#E6E6E6"/>
<path d="M177.105 28.7964L180.631 30.8289V29.5661C180.631 29.4739 180.631 29.3872 180.631 29.3005C180.631 29.2138 180.631 29.127 180.631 29.0403C180.761 27.3655 182.008 26.726 183.536 27.6203C184.222 28.0407 184.811 28.6023 185.264 29.268C185.61 26.9916 187.424 26.1731 189.649 27.4685C192.106 28.9048 194.098 32.4061 194.098 35.2842V37.9942C194.095 38.2117 194.148 38.4264 194.253 38.6167C194.359 38.8069 194.512 38.9661 194.698 39.0782L196.771 40.3085C197.221 40.5783 197.594 40.9609 197.853 41.419C198.111 41.877 198.246 42.3946 198.245 42.9209C198.248 43.139 198.193 43.3539 198.086 43.5437C197.978 43.7335 197.823 43.8914 197.636 44.0015C197.448 44.1116 197.235 44.1699 197.018 44.1705C196.8 44.1711 196.587 44.114 196.399 44.0049L177.159 32.7313C176.648 32.4292 176.224 31.9983 175.929 31.4811C175.634 30.964 175.48 30.3786 175.48 29.7829C175.47 29.5878 175.514 29.3938 175.605 29.2214C175.697 29.0491 175.833 28.9048 176 28.8037C176.166 28.7026 176.357 28.6486 176.551 28.6473C176.746 28.6461 176.937 28.6976 177.105 28.7964Z" fill="#E6E6E6"/>
</svg>
