<svg width="319" height="212" viewBox="0 0 319 212" fill="none" xmlns="http://www.w3.org/2000/svg">
<g clip-path="url(#clip0_941_18092)">
<path d="M286.161 141.451H209.532C208.873 141.45 208.242 141.187 207.776 140.722C207.31 140.256 207.048 139.625 207.047 138.966V27.3353C207.048 26.6767 207.31 26.0453 207.776 25.5796C208.242 25.1139 208.873 24.8518 209.532 24.8506H286.161C286.82 24.8506 287.453 25.1123 287.919 25.5781C288.386 26.044 288.649 26.6759 288.65 27.3353V138.966C288.649 139.625 288.386 140.257 287.919 140.723C287.453 141.189 286.82 141.451 286.161 141.451ZM209.532 24.9566C208.901 24.9566 208.296 25.2073 207.85 25.6533C207.403 26.0994 207.153 26.7044 207.153 27.3353V138.966C207.153 139.597 207.403 140.202 207.85 140.648C208.296 141.094 208.901 141.345 209.532 141.345H286.161C286.792 141.345 287.398 141.094 287.844 140.648C288.291 140.202 288.543 139.597 288.544 138.966V27.3353C288.543 26.704 288.291 26.099 287.844 25.6531C287.398 25.2071 286.792 24.9566 286.161 24.9566H209.532Z" fill="#E0E0E0"/>
<path d="M197.791 141.451H121.153C120.494 141.45 119.863 141.187 119.397 140.722C118.931 140.256 118.669 139.625 118.668 138.966V27.3353C118.669 26.6767 118.931 26.0453 119.397 25.5796C119.863 25.1139 120.494 24.8518 121.153 24.8506H197.791C198.449 24.8518 199.081 25.1139 199.546 25.5796C200.012 26.0453 200.274 26.6767 200.275 27.3353V138.966C200.274 139.625 200.012 140.256 199.546 140.722C199.081 141.187 198.449 141.45 197.791 141.451ZM121.153 24.9566C120.526 24.9633 119.927 25.2168 119.486 25.662C119.044 26.1072 118.796 26.7084 118.795 27.3353V138.966C118.796 139.597 119.047 140.201 119.493 140.647C119.939 141.093 120.543 141.344 121.174 141.345H197.791C198.421 141.344 199.025 141.093 199.471 140.647C199.917 140.201 200.168 139.597 200.169 138.966V27.3353C200.168 26.7048 199.917 26.1004 199.471 25.6546C199.025 25.2087 198.421 24.9578 197.791 24.9566H121.153Z" fill="#E0E0E0"/>
<path d="M109.468 141.451H32.8385C32.1791 141.451 31.5467 141.189 31.0801 140.723C30.6134 140.257 30.3507 139.625 30.3496 138.966V27.3353C30.3507 26.6759 30.6134 26.044 31.0801 25.5781C31.5467 25.1123 32.1791 24.8506 32.8385 24.8506H109.468C110.127 24.8518 110.758 25.1139 111.224 25.5796C111.689 26.0453 111.952 26.6767 111.953 27.3353V138.966C111.952 139.625 111.689 140.256 111.224 140.722C110.758 141.187 110.127 141.45 109.468 141.451ZM32.8385 24.9566C32.2072 24.9566 31.6018 25.2071 31.155 25.6531C30.7083 26.099 30.4567 26.704 30.4556 27.3353V138.966C30.4567 139.597 30.7083 140.202 31.155 140.648C31.6018 141.094 32.2072 141.345 32.8385 141.345H109.468C110.099 141.345 110.704 141.094 111.15 140.648C111.596 140.202 111.847 139.597 111.847 138.966V27.3353C111.847 26.7044 111.596 26.0994 111.15 25.6533C110.704 25.2073 110.099 24.9566 109.468 24.9566H32.8385Z" fill="#E0E0E0"/>
<path d="M318.5 167.344H0.5V167.395H318.5V167.344Z" fill="#E0E0E0"/>
<path d="M301.268 179.801H277.639V179.98H301.268V179.801Z" fill="#EBEBEB"/>
<path d="M216.6 181.735H210.396V181.913H216.6V181.735Z" fill="#EBEBEB"/>
<path d="M48.5425 174.374H17.7305V174.552H48.5425V174.374Z" fill="#EBEBEB"/>
<path d="M59.4183 174.374H54.8984V174.552H59.4183V174.374Z" fill="#EBEBEB"/>
<path d="M140.928 177.385H74.1016V177.563H140.928V177.385Z" fill="#EBEBEB"/>
<path d="M119.644 110.172C114.98 105.627 110.269 101.039 104.694 97.6854C99.118 94.3316 92.5079 92.2752 86.0588 93.28C77.8417 94.552 71.1849 100.446 65.3888 106.403C51.6869 120.477 39.8754 136.275 30.252 153.399L138.995 129.066L119.644 110.172Z" fill="#E0E0E0"/>
<path d="M82.723 81.3698C82.5345 80.1421 81.9369 79.0141 81.027 78.1686C80.9245 78.3648 80.7822 78.5374 80.6092 78.6754C80.4362 78.8134 80.2362 78.9137 80.0222 78.97C80.2685 78.5846 80.429 78.1508 80.4928 77.698C79.8716 77.213 79.1697 76.8412 78.4194 76.5998C80.4776 76.6087 82.5255 76.31 84.4954 75.7137C82.0913 73.9159 79.2251 73.6997 77.4867 74.7215C78.0633 73.9668 78.606 73.1951 79.1106 72.3895C78.9038 72.3129 78.6911 72.2533 78.4746 72.2114C78.7383 72.1257 79.0164 72.0926 79.2929 72.1139L79.8865 71.1896C77.1008 71.7959 75.0317 73.9498 75.6847 75.7857C74.1583 73.7251 70.3846 74.6325 67.9297 77.3715L69.3119 77.2994C69.4588 76.98 69.6661 76.692 69.9225 76.4514C69.8372 76.7135 69.7706 76.9813 69.7232 77.2528C70.9952 77.1934 72.2672 77.0747 73.5392 76.8966C71.5549 78.0541 70.1726 81.0179 70.6051 84.4099C72.571 82.5299 74.1963 80.3236 75.409 77.8888C75.1708 78.9696 75.2294 80.0948 75.5787 81.1451C75.7191 81.1655 75.8608 81.1754 76.0027 81.1748C75.8868 81.2412 75.7663 81.2993 75.6422 81.3486C75.8093 81.8084 76.0329 82.2457 76.3079 82.6503C76.5323 82.731 76.7637 82.7906 76.999 82.8284C76.8524 82.8876 76.7005 82.933 76.5454 82.9641C76.8751 83.3756 77.2722 83.7283 77.7198 84.0071C78.3159 82.7329 78.4083 81.2804 77.9785 79.9409C81.3705 88.2174 80.1197 100.467 80.1197 100.467H82.757C82.757 100.467 83.605 88.0733 78.9791 80.0936C80.0394 80.9439 81.3642 81.3955 82.723 81.3698Z" fill="#E0E0E0"/>
<path d="M116.567 93.7973C111.127 98.6478 108.748 108.154 108.748 108.154L110.741 108.798C110.741 108.798 112.801 99.3093 117.364 93.9287C116.714 94.8279 116.429 95.94 116.567 97.0409C116.971 96.9421 117.355 96.7743 117.703 96.5448C117.593 96.4845 117.489 96.4135 117.393 96.3328C117.578 96.3652 117.766 96.3766 117.953 96.3667C118.261 96.1327 118.536 95.8589 118.771 95.5526C118.689 95.4883 118.614 95.4159 118.547 95.3364C118.653 95.3731 118.762 95.4014 118.873 95.4212C119.393 94.7181 119.712 93.8873 119.797 93.0171C120.111 95.1407 120.791 97.1937 121.807 99.0846C122.961 96.6466 122.655 94.0856 121.443 92.7246C122.344 93.1655 123.266 93.5641 124.207 93.9202C124.237 93.7053 124.253 93.4886 124.254 93.2715C124.389 93.5125 124.475 93.7775 124.508 94.0517L125.526 94.4418C124.351 91.7875 121.748 90.2018 120.094 91.355C121.036 90.1382 120.014 88.0182 118.072 86.8818C118.142 87.1645 118.215 87.4472 118.288 87.7298C118.5 87.7815 118.7 87.8737 118.877 88.0012C118.704 87.9814 118.53 87.9744 118.356 87.98C118.538 88.705 118.759 89.4216 119.005 90.1254C117.953 88.934 115.748 88.3998 113.493 89.1545C114.824 90.085 116.288 90.8111 117.834 91.3084C117.213 91.3052 116.595 91.4129 116.011 91.6264C115.949 91.9801 115.963 92.343 116.054 92.6906C115.907 92.5953 115.782 92.4708 115.685 92.3249C115.589 92.179 115.524 92.0149 115.494 91.8426C114.602 92.2517 113.876 92.9513 113.433 93.827C114.449 94.1866 115.558 94.1761 116.567 93.7973Z" fill="#E0E0E0"/>
<path d="M186.564 106.394C191.228 101.849 195.934 97.2656 201.514 93.9076C207.094 90.5495 213.696 88.4973 220.128 89.4852C228.341 90.7572 234.997 96.6551 240.798 102.608C254.498 116.689 266.308 132.493 275.93 149.621L167.191 125.292L186.564 106.394Z" fill="#E0E0E0"/>
<path d="M223.567 78.44C218.903 86.4239 219.79 98.792 219.79 98.792H222.427C222.427 98.792 221.18 86.5469 224.568 78.2662C224.14 79.6059 224.233 81.0576 224.827 82.3323C225.275 82.0535 225.674 81.7008 226.005 81.2893C225.85 81.2595 225.698 81.2141 225.552 81.1536C225.787 81.1198 226.017 81.0601 226.239 80.9755C226.514 80.5714 226.738 80.1341 226.904 79.6738C226.78 79.6254 226.659 79.5673 226.544 79.5C226.686 79.5023 226.828 79.4924 226.968 79.4703C227.314 78.4193 227.371 77.2947 227.133 76.214C228.345 78.6503 229.972 80.8569 231.941 82.7351C232.365 79.3431 230.987 76.3751 229.003 75.2218C230.275 75.3999 231.547 75.5229 232.819 75.578C232.774 75.3079 232.708 75.0415 232.624 74.7809C232.88 75.022 233.087 75.3099 233.235 75.6289L234.617 75.7052C232.158 72.9619 228.388 72.0588 226.858 74.1152C227.515 72.2793 225.446 70.1254 222.66 69.519C222.859 69.8413 223.059 70.1508 223.249 70.4434C223.526 70.4244 223.803 70.4575 224.068 70.5409C223.851 70.5828 223.638 70.6438 223.432 70.7232C223.936 71.5246 224.483 72.3005 225.06 73.051C223.321 72.0291 220.455 72.2496 218.047 74.0431C220.018 74.6415 222.067 74.9402 224.127 74.9293C223.376 75.1713 222.674 75.5446 222.054 76.0317C222.118 76.4845 222.278 76.9183 222.524 77.3037C222.309 77.2482 222.109 77.1482 221.935 77.0101C221.761 76.8721 221.618 76.6991 221.515 76.5023C220.604 77.3466 220.006 78.4752 219.819 79.7035C221.178 79.7349 222.505 79.2876 223.567 78.44Z" fill="#E0E0E0"/>
<path d="M200.467 87.802C200.025 86.9263 199.298 86.2267 198.407 85.8176C198.379 85.9901 198.315 86.1547 198.219 86.3009C198.124 86.447 197.998 86.5713 197.851 86.6656C197.939 86.3162 197.952 85.952 197.889 85.5972C197.305 85.3853 196.688 85.2777 196.066 85.2792C197.613 84.7841 199.076 84.0595 200.408 83.1295C198.165 82.3705 195.964 82.909 194.896 84.1004C195.146 83.3924 195.362 82.68 195.545 81.955C195.371 81.9423 195.197 81.9423 195.023 81.955C195.203 81.8291 195.404 81.7371 195.617 81.6836C195.684 81.4165 195.761 81.1367 195.833 80.8356C193.891 81.972 192.865 84.0962 193.806 85.3131C192.157 84.1428 189.566 85.7371 188.379 88.3998L189.397 88.0055C189.43 87.7333 189.515 87.47 189.647 87.2296C189.647 87.4468 189.664 87.6637 189.698 87.8783C190.635 87.5221 191.559 87.1193 192.462 86.6784C191.258 88.0309 190.944 90.5919 192.097 93.0384C193.113 91.149 193.794 89.0974 194.107 86.9752C194.193 87.8432 194.511 88.6722 195.027 89.375C195.139 89.3572 195.25 89.3302 195.358 89.2944C195.286 89.3708 195.209 89.443 195.129 89.5107C195.367 89.8149 195.642 90.0883 195.947 90.3248C196.135 90.3326 196.322 90.3213 196.507 90.2908C196.411 90.3701 196.309 90.441 196.202 90.5028C196.549 90.731 196.934 90.8973 197.338 90.9947C197.471 89.8935 197.185 88.7825 196.537 87.8825C201.116 93.28 203.172 102.773 203.172 102.773L205.148 102.129C205.148 102.129 202.774 92.6228 197.334 87.7723C198.342 88.15 199.452 88.1605 200.467 87.802Z" fill="#E0E0E0"/>
<path d="M212.207 71.5373C211.845 71.2732 211.414 71.1188 210.967 71.0925C210.52 71.0662 210.074 71.1691 209.684 71.3889C209.131 70.3742 208.208 69.6117 207.107 69.2595C206.007 68.9074 204.813 68.9927 203.773 69.4978C203.509 68.3702 202.868 67.3663 201.957 66.6522C201.045 65.938 199.917 65.5563 198.759 65.5702C197.6 65.584 196.482 65.9926 195.587 66.7283C194.693 67.464 194.076 68.4829 193.839 69.6166C193.808 69.9818 193.676 70.3311 193.457 70.6257C193.033 71.0497 192.351 70.9055 191.761 70.8589C190.824 70.8072 189.897 71.0716 189.128 71.6098C188.359 72.148 187.794 72.9287 187.521 73.8269L213.063 73.7336C213.165 73.3239 213.138 72.8926 212.984 72.4992C212.831 72.1057 212.559 71.7697 212.207 71.5373Z" fill="#E6E6E6"/>
<path d="M177.398 40.6234C176.891 40.2532 176.287 40.0367 175.66 39.9999C175.033 39.963 174.409 40.1074 173.862 40.4157C172.424 37.5155 168.426 36.235 165.573 37.7614C165.196 36.1843 164.295 34.7822 163.016 33.7853C161.737 32.7884 160.158 32.2561 158.536 32.2758C156.915 32.2955 155.349 32.8661 154.095 33.8938C152.841 34.9215 151.973 36.3452 151.636 37.931C151.593 38.4423 151.408 38.9314 151.101 39.3429C150.521 39.9365 149.554 39.7373 148.727 39.6737C147.418 39.6021 146.123 39.9701 145.048 40.7191C143.972 41.4682 143.178 42.5553 142.791 43.8077L178.619 43.6762C178.941 42.4636 178.399 41.3781 177.398 40.6234Z" fill="#E0E0E0"/>
<path d="M271.304 35.828C270.952 35.5696 270.532 35.4186 270.096 35.393C269.66 35.3674 269.225 35.4684 268.845 35.6838C268.307 34.6935 267.407 33.9489 266.334 33.6053C265.261 33.2617 264.096 33.3456 263.083 33.8394C262.823 32.7419 262.197 31.7656 261.308 31.0713C260.419 30.3769 259.321 30.0058 258.193 30.0191C257.065 30.0325 255.975 30.4294 255.103 31.1446C254.231 31.8598 253.628 32.8506 253.394 33.9539C253.364 34.3102 253.235 34.6508 253.021 34.9376C252.597 35.3616 251.944 35.209 251.368 35.1666C250.462 35.1225 249.568 35.3811 248.825 35.9016C248.083 36.4221 247.535 37.1749 247.268 38.0413L272.178 37.948C272.269 37.5477 272.234 37.129 272.077 36.7494C271.921 36.3699 271.651 36.048 271.304 35.828Z" fill="#EBEBEB"/>
<path d="M79.3942 35.192C79.1708 35.0276 78.9047 34.9313 78.6278 34.9147C78.351 34.8982 78.0752 34.9621 77.8339 35.0987C77.4922 34.4709 76.9223 33.9983 76.242 33.7789C75.5617 33.5595 74.8231 33.61 74.179 33.92C74.0122 33.2255 73.6143 32.6082 73.0506 32.1695C72.4869 31.7309 71.7909 31.4967 71.0766 31.5056C70.3624 31.5145 69.6724 31.7658 69.1198 32.2184C68.5672 32.6709 68.1847 33.2979 68.0352 33.9963C68.0157 34.2221 67.9334 34.438 67.7978 34.6196C67.5434 34.8783 67.1152 34.7934 66.7505 34.7638C66.1744 34.7341 65.6049 34.8973 65.1319 35.2275C64.6589 35.5576 64.3095 36.036 64.1387 36.587L79.9327 36.5276C79.9884 36.2766 79.9668 36.0147 79.8706 35.7763C79.7745 35.5378 79.6084 35.3341 79.3942 35.192Z" fill="#EBEBEB"/>
<path d="M65.465 48.5268C65.1123 48.2689 64.6927 48.1182 64.2566 48.0926C63.8204 48.0671 63.3862 48.1678 63.0058 48.3827C62.4669 47.3931 61.5675 46.6492 60.4943 46.3057C59.4212 45.9622 58.2569 46.0455 57.2436 46.5383C56.978 45.4478 56.3511 44.4793 55.4649 43.7906C54.5787 43.1019 53.4855 42.7334 52.3632 42.7452C51.2409 42.757 50.1557 43.1484 49.2842 43.8556C48.4127 44.5628 47.8063 45.5442 47.5637 46.64C47.5347 46.9959 47.407 47.3366 47.1948 47.6237C46.7708 48.0477 46.1178 47.8951 45.5412 47.8527C44.6322 47.8045 43.7332 48.0612 42.9866 48.5819C42.2401 49.1027 41.6887 49.8577 41.4199 50.7274L66.3299 50.6383C66.4205 50.2402 66.3861 49.8237 66.2313 49.4458C66.0765 49.0679 65.8089 48.747 65.465 48.5268Z" fill="#E0E0E0"/>
<path d="M270.843 194.264C270.843 195.697 220.993 196.863 159.501 196.863C98.0079 196.863 48.1582 195.697 48.1582 194.264C48.1582 192.831 98.0206 191.648 159.501 191.648C220.981 191.648 270.843 192.827 270.843 194.264Z" fill="#F5F5F5"/>
<path d="M18.4531 163.541C22.1843 167.883 28.7139 170.512 35.4131 171.644C42.1123 172.776 49.0617 172.589 55.9262 172.398L109.639 170.872C112.433 170.796 115.337 170.732 117.894 171.58C120.451 172.428 122.537 174.48 121.981 176.541C121.557 178.169 119.624 179.403 119.238 181.04C118.424 184.508 124.326 186.437 128.969 186.976C165.903 191.182 203.593 189.095 240.633 185.352C251.937 184.207 263.339 182.884 273.926 179.683C284.513 176.481 294.354 171.203 299.989 163.732L18.4531 163.541Z" fill="#059177"/>
<g opacity="0.8">
<path d="M18.4531 163.541C22.1843 167.883 28.7139 170.512 35.4131 171.644C42.1123 172.776 49.0617 172.589 55.9262 172.398L109.639 170.872C112.433 170.796 115.337 170.732 117.894 171.58C120.451 172.428 122.537 174.48 121.981 176.541C121.557 178.169 119.624 179.403 119.238 181.04C118.424 184.508 124.326 186.437 128.969 186.976C165.903 191.182 203.593 189.095 240.633 185.352C251.937 184.207 263.339 182.884 273.926 179.683C284.513 176.481 294.354 171.203 299.989 163.732L18.4531 163.541Z" fill="white"/>
</g>
<path d="M157.381 175.362H143.643C143.615 175.362 143.588 175.351 143.568 175.331C143.548 175.311 143.537 175.284 143.537 175.256C143.537 175.228 143.548 175.201 143.568 175.181C143.588 175.161 143.615 175.15 143.643 175.15H157.381C157.409 175.15 157.436 175.161 157.456 175.181C157.476 175.201 157.487 175.228 157.487 175.256C157.487 175.284 157.476 175.311 157.456 175.331C157.436 175.351 157.409 175.362 157.381 175.362Z" fill="#059177"/>
<path d="M166.709 173.314H152.971C152.943 173.314 152.916 173.303 152.896 173.283C152.876 173.263 152.865 173.236 152.865 173.208C152.865 173.18 152.876 173.153 152.896 173.133C152.916 173.113 152.943 173.102 152.971 173.102H166.709C166.737 173.102 166.764 173.113 166.784 173.133C166.804 173.153 166.815 173.18 166.815 173.208C166.815 173.236 166.804 173.263 166.784 173.283C166.764 173.303 166.737 173.314 166.709 173.314Z" fill="#059177"/>
<path d="M160.774 178.267H154.129C154.101 178.267 154.074 178.255 154.054 178.236C154.035 178.216 154.023 178.189 154.023 178.161C154.023 178.132 154.035 178.105 154.054 178.086C154.074 178.066 154.101 178.055 154.129 178.055H160.774C160.802 178.055 160.829 178.066 160.848 178.086C160.868 178.105 160.88 178.132 160.88 178.161C160.88 178.189 160.868 178.216 160.848 178.236C160.829 178.255 160.802 178.267 160.774 178.267Z" fill="#059177"/>
<path d="M214.082 173.624H200.344C200.316 173.624 200.289 173.613 200.269 173.593C200.249 173.573 200.238 173.546 200.238 173.518C200.238 173.49 200.249 173.463 200.269 173.443C200.289 173.423 200.316 173.412 200.344 173.412H214.082C214.11 173.412 214.137 173.423 214.157 173.443C214.177 173.463 214.188 173.49 214.188 173.518C214.187 173.546 214.175 173.572 214.156 173.592C214.136 173.611 214.11 173.623 214.082 173.624Z" fill="#059177"/>
<path d="M223.41 171.576H187.963C187.935 171.576 187.908 171.565 187.888 171.545C187.869 171.525 187.857 171.498 187.857 171.47C187.857 171.442 187.869 171.415 187.888 171.395C187.908 171.375 187.935 171.364 187.963 171.364H223.41C223.438 171.364 223.465 171.375 223.485 171.395C223.505 171.415 223.516 171.442 223.516 171.47C223.516 171.498 223.505 171.525 223.485 171.545C223.465 171.565 223.438 171.576 223.41 171.576Z" fill="#059177"/>
<path d="M217.441 176.528H210.805C210.777 176.527 210.751 176.516 210.731 176.496C210.712 176.476 210.7 176.45 210.699 176.422C210.699 176.394 210.71 176.367 210.73 176.347C210.75 176.327 210.777 176.316 210.805 176.316H217.432C217.46 176.316 217.487 176.327 217.507 176.347C217.527 176.367 217.538 176.394 217.538 176.422C217.538 176.449 217.528 176.475 217.51 176.494C217.492 176.514 217.467 176.526 217.441 176.528Z" fill="#059177"/>
<path d="M217.364 169.664H210.737C210.709 169.664 210.682 169.652 210.662 169.633C210.642 169.613 210.631 169.586 210.631 169.558C210.631 169.529 210.642 169.503 210.662 169.483C210.682 169.463 210.709 169.452 210.737 169.452H217.364C217.392 169.453 217.418 169.464 217.438 169.484C217.457 169.503 217.469 169.53 217.47 169.558C217.47 169.586 217.459 169.613 217.439 169.633C217.419 169.652 217.392 169.664 217.364 169.664Z" fill="#059177"/>
<path d="M87.0936 185.916C96.5072 185.916 104.138 183.981 104.138 181.595C104.138 179.209 96.5072 177.274 87.0936 177.274C77.68 177.274 70.0488 179.209 70.0488 181.595C70.0488 183.981 77.68 185.916 87.0936 185.916Z" fill="#059177"/>
<path opacity="0.8" d="M87.0936 185.916C96.5072 185.916 104.138 183.981 104.138 181.595C104.138 179.209 96.5072 177.274 87.0936 177.274C77.68 177.274 70.0488 179.209 70.0488 181.595C70.0488 183.981 77.68 185.916 87.0936 185.916Z" fill="white"/>
<path d="M224.907 46.0591C224.907 47.3311 223.071 48.3318 222.757 49.502C222.444 50.6722 223.508 52.4997 222.902 53.5554C222.295 54.6112 220.188 54.59 219.315 55.4592C218.441 56.3284 218.467 58.4272 217.411 59.042C216.355 59.6568 214.566 58.5798 213.357 58.9021C212.149 59.2243 211.178 61.056 209.915 61.056C208.651 61.056 207.638 59.2243 206.472 58.9106C205.306 58.5968 203.478 59.6653 202.418 59.0505C201.358 58.4357 201.384 56.3369 200.514 55.4677C199.645 54.5985 197.546 54.6197 196.932 53.5639C196.317 52.5082 197.39 50.7062 197.072 49.502C196.754 48.2978 194.922 47.3269 194.922 46.0591C194.922 44.7914 196.758 43.7865 197.072 42.6162C197.385 41.446 196.321 39.6186 196.932 38.5628C197.542 37.507 199.641 37.5282 200.514 36.659C201.388 35.7898 201.362 33.691 202.418 33.072C203.474 32.453 205.263 33.5384 206.472 33.2119C207.68 32.8854 208.651 31.0919 209.915 31.0919C211.178 31.0919 212.191 32.9236 213.357 33.2119C214.523 33.5002 216.355 32.4614 217.411 33.072C218.467 33.6826 218.445 35.7856 219.315 36.659C220.184 37.5325 222.283 37.507 222.902 38.5628C223.521 39.6186 222.439 41.4078 222.757 42.6162C223.075 43.8246 224.907 44.7914 224.907 46.0591Z" fill="#059177"/>
<path d="M213.127 56.2648C218.772 54.4913 221.911 48.4771 220.138 42.8317C218.364 37.1862 212.35 34.0474 206.704 35.8209C201.059 37.5944 197.92 43.6086 199.694 49.2541C201.467 54.8995 207.481 58.0383 213.127 56.2648Z" fill="#059177"/>
<path d="M224.907 46.0591C224.907 47.3311 223.071 48.3318 222.757 49.502C222.444 50.6722 223.508 52.4997 222.902 53.5554C222.295 54.6112 220.188 54.59 219.315 55.4592C218.441 56.3284 218.467 58.4272 217.411 59.042C216.355 59.6568 214.566 58.5798 213.357 58.9021C212.149 59.2243 211.178 61.056 209.915 61.056C208.651 61.056 207.638 59.2243 206.472 58.9106C205.306 58.5968 203.478 59.6653 202.418 59.0505C201.358 58.4357 201.384 56.3369 200.514 55.4677C199.645 54.5985 197.546 54.6197 196.932 53.5639C196.317 52.5082 197.39 50.7062 197.072 49.502C196.754 48.2978 194.922 47.3269 194.922 46.0591C194.922 44.7914 196.758 43.7865 197.072 42.6162C197.385 41.446 196.321 39.6186 196.932 38.5628C197.542 37.507 199.641 37.5282 200.514 36.659C201.388 35.7898 201.362 33.691 202.418 33.072C203.474 32.453 205.263 33.5384 206.472 33.2119C207.68 32.8854 208.651 31.0919 209.915 31.0919C211.178 31.0919 212.191 32.9236 213.357 33.2119C214.523 33.5002 216.355 32.4614 217.411 33.072C218.467 33.6826 218.445 35.7856 219.315 36.659C220.184 37.5325 222.283 37.507 222.902 38.5628C223.521 39.6186 222.439 41.4078 222.757 42.6162C223.075 43.8246 224.907 44.7914 224.907 46.0591Z" fill="white"/>
<path d="M42.8369 133.886C42.7309 133.205 42.3977 132.579 41.8914 132.11C41.8343 132.219 41.7551 132.315 41.6587 132.392C41.5623 132.468 41.4509 132.524 41.3317 132.555C41.4708 132.343 41.5607 132.103 41.5946 131.851C41.2499 131.583 40.8611 131.376 40.4455 131.241C41.586 131.247 42.721 131.081 43.8121 130.749C42.4765 129.744 40.8907 129.634 39.9325 130.198C40.2505 129.774 40.5515 129.35 40.8314 128.926C40.7168 128.883 40.5992 128.849 40.4794 128.824C40.6259 128.778 40.78 128.76 40.9331 128.773L41.2638 128.26C39.7162 128.595 38.5714 129.791 38.9361 130.804C38.0881 129.663 35.9978 130.164 34.6367 131.682L35.3999 131.639C35.484 131.466 35.599 131.309 35.7391 131.177C35.6924 131.316 35.6556 131.457 35.6289 131.601C36.337 131.567 37.0408 131.499 37.7489 131.402C36.6507 132.042 35.8833 133.687 36.125 135.566C37.2134 134.523 38.1142 133.301 38.7877 131.953C38.6568 132.551 38.689 133.174 38.881 133.755C38.96 133.762 39.0394 133.762 39.1184 133.755C39.0541 133.792 38.9876 133.824 38.9191 133.853C39.0121 134.107 39.136 134.349 39.288 134.573C39.411 134.621 39.539 134.653 39.6696 134.671C39.589 134.705 39.5052 134.73 39.4194 134.747C39.601 134.975 39.8205 135.17 40.0682 135.324C40.4015 134.619 40.4531 133.814 40.2123 133.072C42.0906 137.66 41.3995 144.448 41.3995 144.448H42.8623C42.8623 144.448 43.3457 137.58 40.7678 133.157C41.3515 133.634 42.0833 133.892 42.8369 133.886Z" fill="#059177"/>
<path opacity="0.3" d="M42.8369 133.886C42.7309 133.205 42.3977 132.579 41.8914 132.11C41.8343 132.219 41.7551 132.315 41.6587 132.392C41.5623 132.468 41.4509 132.524 41.3317 132.555C41.4708 132.343 41.5607 132.103 41.5946 131.851C41.2499 131.583 40.8611 131.376 40.4455 131.241C41.586 131.247 42.721 131.081 43.8121 130.749C42.4765 129.744 40.8907 129.634 39.9325 130.198C40.2505 129.774 40.5515 129.35 40.8314 128.926C40.7168 128.883 40.5992 128.849 40.4794 128.824C40.6259 128.778 40.78 128.76 40.9331 128.773L41.2638 128.26C39.7162 128.595 38.5714 129.791 38.9361 130.804C38.0881 129.663 35.9978 130.164 34.6367 131.682L35.3999 131.639C35.484 131.466 35.599 131.309 35.7391 131.177C35.6924 131.316 35.6556 131.457 35.6289 131.601C36.337 131.567 37.0408 131.499 37.7489 131.402C36.6507 132.042 35.8833 133.687 36.125 135.566C37.2134 134.523 38.1142 133.301 38.7877 131.953C38.6568 132.551 38.689 133.174 38.881 133.755C38.96 133.762 39.0394 133.762 39.1184 133.755C39.0541 133.792 38.9876 133.824 38.9191 133.853C39.0121 134.107 39.136 134.349 39.288 134.573C39.411 134.621 39.539 134.653 39.6696 134.671C39.589 134.705 39.5052 134.73 39.4194 134.747C39.601 134.975 39.8205 135.17 40.0682 135.324C40.4015 134.619 40.4531 133.814 40.2123 133.072C42.0906 137.66 41.3995 144.448 41.3995 144.448H42.8623C42.8623 144.448 43.3457 137.58 40.7678 133.157C41.3515 133.634 42.0833 133.892 42.8369 133.886Z" fill="black"/>
<path d="M47.8728 124.902C47.73 123.984 47.2818 123.142 46.6008 122.511C46.5237 122.657 46.4167 122.787 46.2867 122.889C46.1567 122.992 46.0066 123.067 45.846 123.108C46.0318 122.822 46.1519 122.497 46.198 122.159C45.7349 121.795 45.2109 121.516 44.6504 121.336C46.1901 121.342 47.7221 121.117 49.1956 120.67C47.3936 119.331 45.2524 119.165 43.9508 119.933C44.3832 119.367 44.7889 118.786 45.1676 118.19C45.0137 118.131 44.8548 118.085 44.6928 118.054C44.8895 117.99 45.097 117.966 45.3033 117.982C45.4475 117.762 45.5959 117.529 45.7273 117.287C43.6455 117.741 42.0979 119.352 42.5897 120.726C41.4449 119.186 38.6253 119.878 36.7852 121.917L37.8197 121.858C37.9316 121.623 38.087 121.411 38.2776 121.234C38.2133 121.43 38.1637 121.629 38.1292 121.832C39.079 121.787 40.0273 121.698 40.9743 121.565C39.4903 122.413 38.4557 124.648 38.778 127.183C40.2507 125.779 41.4674 124.129 42.3735 122.307C42.1954 123.115 42.2378 123.955 42.4964 124.741C42.6029 124.758 42.7108 124.766 42.8187 124.762C42.7316 124.813 42.6409 124.857 42.5473 124.893C42.6738 125.238 42.8418 125.565 43.0476 125.869C43.2152 125.93 43.3885 125.974 43.5649 126C43.4559 126.046 43.3421 126.08 43.2257 126.102C43.4712 126.411 43.7681 126.674 44.1034 126.882C44.548 125.929 44.6177 124.844 44.2984 123.842C46.8424 130.032 45.8969 139.195 45.8969 139.195H47.8728C47.8728 139.195 48.5215 129.926 45.0447 123.956C45.8464 124.595 46.8481 124.93 47.8728 124.902Z" fill="#059177"/>
<path opacity="0.3" d="M47.8728 124.902C47.73 123.984 47.2818 123.142 46.6008 122.511C46.5237 122.657 46.4167 122.787 46.2867 122.889C46.1567 122.992 46.0066 123.067 45.846 123.108C46.0318 122.822 46.1519 122.497 46.198 122.159C45.7349 121.795 45.2109 121.516 44.6504 121.336C46.1901 121.342 47.7221 121.117 49.1956 120.67C47.3936 119.331 45.2524 119.165 43.9508 119.933C44.3832 119.367 44.7889 118.786 45.1676 118.19C45.0137 118.131 44.8548 118.085 44.6928 118.054C44.8895 117.99 45.097 117.966 45.3033 117.982C45.4475 117.762 45.5959 117.529 45.7273 117.287C43.6455 117.741 42.0979 119.352 42.5897 120.726C41.4449 119.186 38.6253 119.878 36.7852 121.917L37.8197 121.858C37.9316 121.623 38.087 121.411 38.2776 121.234C38.2133 121.43 38.1637 121.629 38.1292 121.832C39.079 121.787 40.0273 121.698 40.9743 121.565C39.4903 122.413 38.4557 124.648 38.778 127.183C40.2507 125.779 41.4674 124.129 42.3735 122.307C42.1954 123.115 42.2378 123.955 42.4964 124.741C42.6029 124.758 42.7108 124.766 42.8187 124.762C42.7316 124.813 42.6409 124.857 42.5473 124.893C42.6738 125.238 42.8418 125.565 43.0476 125.869C43.2152 125.93 43.3885 125.974 43.5649 126C43.4559 126.046 43.3421 126.08 43.2257 126.102C43.4712 126.411 43.7681 126.674 44.1034 126.882C44.548 125.929 44.6177 124.844 44.2984 123.842C46.8424 130.032 45.8969 139.195 45.8969 139.195H47.8728C47.8728 139.195 48.5215 129.926 45.0447 123.956C45.8464 124.595 46.8481 124.93 47.8728 124.902Z" fill="black"/>
<path d="M34.204 139.602C34.0977 138.909 33.7582 138.274 33.2415 137.8C33.1841 137.911 33.1037 138.008 33.0057 138.086C32.9078 138.163 32.7945 138.219 32.6734 138.249C32.8148 138.034 32.906 137.789 32.9405 137.533C32.5902 137.259 32.1939 137.049 31.7703 136.914C32.9322 136.919 34.0885 136.751 35.2004 136.414C33.8436 135.404 32.2324 135.281 31.2445 135.854C31.571 135.43 31.8763 135.006 32.1646 134.544C32.0483 134.498 31.9275 134.463 31.8042 134.442C31.9528 134.392 32.1101 134.373 32.2663 134.387L32.5971 133.865C31.0283 134.204 29.8623 135.421 30.2312 136.456C29.3832 135.294 27.2419 135.807 25.8555 137.351L26.6356 137.308C26.7186 137.131 26.8352 136.971 26.9791 136.838C26.9319 136.985 26.895 137.135 26.8688 137.287C27.5854 137.253 28.3019 137.185 29.0143 137.088C27.8949 137.741 27.1147 139.411 27.3564 141.328C28.4667 140.268 29.3848 139.025 30.07 137.652C29.9387 138.265 29.9768 138.903 30.1803 139.496C30.2607 139.502 30.3415 139.502 30.4219 139.496C30.3567 139.534 30.2886 139.566 30.2184 139.594C30.3125 139.853 30.4393 140.1 30.5958 140.327C30.7207 140.374 30.8499 140.408 30.9816 140.429C30.8997 140.463 30.8145 140.489 30.7272 140.505C30.9144 140.735 31.1378 140.933 31.3887 141.09C31.7257 140.372 31.7787 139.552 31.5371 138.796C33.4451 143.46 32.7455 150.372 32.7455 150.372H34.2295C34.2295 150.372 34.7213 143.384 32.1095 138.885C32.7036 139.36 33.4439 139.613 34.204 139.602Z" fill="#059177"/>
<path opacity="0.3" d="M34.204 139.602C34.0977 138.909 33.7582 138.274 33.2415 137.8C33.1841 137.911 33.1037 138.008 33.0057 138.086C32.9078 138.163 32.7945 138.219 32.6734 138.249C32.8148 138.034 32.906 137.789 32.9405 137.533C32.5902 137.259 32.1939 137.049 31.7703 136.914C32.9322 136.919 34.0885 136.751 35.2004 136.414C33.8436 135.404 32.2324 135.281 31.2445 135.854C31.571 135.43 31.8763 135.006 32.1646 134.544C32.0483 134.498 31.9275 134.463 31.8042 134.442C31.9528 134.392 32.1101 134.373 32.2663 134.387L32.5971 133.865C31.0283 134.204 29.8623 135.421 30.2312 136.456C29.3832 135.294 27.2419 135.807 25.8555 137.351L26.6356 137.308C26.7186 137.131 26.8352 136.971 26.9791 136.838C26.9319 136.985 26.895 137.135 26.8688 137.287C27.5854 137.253 28.3019 137.185 29.0143 137.088C27.8949 137.741 27.1147 139.411 27.3564 141.328C28.4667 140.268 29.3848 139.025 30.07 137.652C29.9387 138.265 29.9768 138.903 30.1803 139.496C30.2607 139.502 30.3415 139.502 30.4219 139.496C30.3567 139.534 30.2886 139.566 30.2184 139.594C30.3125 139.853 30.4393 140.1 30.5958 140.327C30.7207 140.374 30.8499 140.408 30.9816 140.429C30.8997 140.463 30.8145 140.489 30.7272 140.505C30.9144 140.735 31.1378 140.933 31.3887 141.09C31.7257 140.372 31.7787 139.552 31.5371 138.796C33.4451 143.46 32.7455 150.372 32.7455 150.372H34.2295C34.2295 150.372 34.7213 143.384 32.1095 138.885C32.7036 139.36 33.4439 139.613 34.204 139.602Z" fill="black"/>
<path d="M73.8055 130.066C65.3255 121.366 59.0418 118.932 48.6792 131.762C38.8212 143.961 20.5723 163.562 20.5723 163.562H106.682C106.682 163.562 82.2685 138.771 73.8055 130.066Z" fill="#059177"/>
<path opacity="0.3" d="M73.8055 130.066C65.3255 121.366 59.0418 118.932 48.6792 131.762C38.8212 143.961 20.5723 163.562 20.5723 163.562H106.682C106.682 163.562 82.2685 138.771 73.8055 130.066Z" fill="black"/>
<path d="M236.244 125.385C236.154 124.808 235.872 124.277 235.442 123.88C235.393 123.972 235.326 124.053 235.244 124.118C235.162 124.183 235.068 124.231 234.967 124.257C235.084 124.077 235.159 123.873 235.188 123.66C234.896 123.43 234.566 123.253 234.213 123.138C235.183 123.142 236.147 122.999 237.075 122.714C235.943 121.866 234.594 121.769 233.776 122.248C234.047 121.892 234.302 121.527 234.539 121.15C234.441 121.114 234.34 121.086 234.238 121.065C234.363 121.026 234.494 121.011 234.624 121.022C234.717 120.882 234.811 120.734 234.904 120.598C233.594 120.882 232.618 121.896 232.928 122.761C232.207 121.794 230.435 122.218 229.277 123.507L229.926 123.473C229.998 123.326 230.096 123.192 230.214 123.079C230.175 123.202 230.144 123.328 230.121 123.456C230.719 123.431 231.317 123.371 231.91 123.286C230.978 123.833 230.325 125.228 230.528 126.823C231.455 125.94 232.221 124.903 232.792 123.757C232.679 124.265 232.705 124.794 232.869 125.288C232.936 125.294 233.004 125.294 233.072 125.288C233.018 125.32 232.961 125.349 232.903 125.373C232.983 125.588 233.088 125.792 233.216 125.983C233.322 126.022 233.431 126.051 233.543 126.068C233.473 126.095 233.4 126.116 233.327 126.132C233.482 126.326 233.67 126.492 233.882 126.623C234.162 126.023 234.206 125.339 234.005 124.707C235.599 128.603 235.01 134.37 235.01 134.37H236.244C236.244 134.37 236.668 128.536 234.467 124.779C234.968 125.186 235.598 125.401 236.244 125.385Z" fill="#059177"/>
<path opacity="0.3" d="M236.244 125.385C236.154 124.808 235.872 124.277 235.442 123.88C235.393 123.972 235.326 124.053 235.244 124.118C235.162 124.183 235.068 124.231 234.967 124.257C235.084 124.077 235.159 123.873 235.188 123.66C234.896 123.43 234.566 123.253 234.213 123.138C235.183 123.142 236.147 122.999 237.075 122.714C235.943 121.866 234.594 121.769 233.776 122.248C234.047 121.892 234.302 121.527 234.539 121.15C234.441 121.114 234.34 121.086 234.238 121.065C234.363 121.026 234.494 121.011 234.624 121.022C234.717 120.882 234.811 120.734 234.904 120.598C233.594 120.882 232.618 121.896 232.928 122.761C232.207 121.794 230.435 122.218 229.277 123.507L229.926 123.473C229.998 123.326 230.096 123.192 230.214 123.079C230.175 123.202 230.144 123.328 230.121 123.456C230.719 123.431 231.317 123.371 231.91 123.286C230.978 123.833 230.325 125.228 230.528 126.823C231.455 125.94 232.221 124.903 232.792 123.757C232.679 124.265 232.705 124.794 232.869 125.288C232.936 125.294 233.004 125.294 233.072 125.288C233.018 125.32 232.961 125.349 232.903 125.373C232.983 125.588 233.088 125.792 233.216 125.983C233.322 126.022 233.431 126.051 233.543 126.068C233.473 126.095 233.4 126.116 233.327 126.132C233.482 126.326 233.67 126.492 233.882 126.623C234.162 126.023 234.206 125.339 234.005 124.707C235.599 128.603 235.01 134.37 235.01 134.37H236.244C236.244 134.37 236.668 128.536 234.467 124.779C234.968 125.186 235.598 125.401 236.244 125.385Z" fill="black"/>
<path d="M284.839 143.545C282.643 147.298 283.042 153.132 283.042 153.132H284.284C284.284 153.132 283.707 147.365 285.31 143.469C285.105 144.1 285.148 144.785 285.429 145.385C285.639 145.254 285.826 145.088 285.98 144.894C285.907 144.881 285.836 144.859 285.768 144.83C285.878 144.815 285.987 144.786 286.09 144.745C286.222 144.556 286.329 144.351 286.408 144.135C286.35 144.112 286.293 144.085 286.239 144.054C286.305 144.058 286.371 144.058 286.438 144.054C286.604 143.559 286.633 143.029 286.523 142.519C287.09 143.667 287.854 144.707 288.778 145.593C288.986 143.999 288.354 142.6 287.405 142.053C287.998 142.138 288.592 142.197 289.194 142.227C289.171 142.099 289.14 141.973 289.101 141.849C289.22 141.962 289.318 142.095 289.389 142.244L290.038 142.282C288.884 140.989 287.108 140.56 286.387 141.527C286.696 140.679 285.726 139.649 284.415 139.36L284.691 139.784C284.821 139.776 284.952 139.792 285.077 139.831C284.975 139.853 284.874 139.881 284.776 139.916C285.013 140.293 285.272 140.662 285.539 141.014C284.725 140.531 283.377 140.632 282.24 141.476C283.168 141.759 284.132 141.902 285.102 141.9C284.748 142.012 284.416 142.186 284.123 142.413C284.153 142.626 284.228 142.83 284.343 143.011C284.243 142.985 284.149 142.938 284.068 142.873C283.987 142.808 283.92 142.726 283.873 142.634C283.441 143.03 283.157 143.56 283.067 144.139C283.71 144.158 284.338 143.947 284.839 143.545Z" fill="#059177"/>
<path opacity="0.3" d="M284.839 143.545C282.643 147.298 283.042 153.132 283.042 153.132H284.284C284.284 153.132 283.707 147.365 285.31 143.469C285.105 144.1 285.148 144.785 285.429 145.385C285.639 145.254 285.826 145.088 285.98 144.894C285.907 144.881 285.836 144.859 285.768 144.83C285.878 144.815 285.987 144.786 286.09 144.745C286.222 144.556 286.329 144.351 286.408 144.135C286.35 144.112 286.293 144.085 286.239 144.054C286.305 144.058 286.371 144.058 286.438 144.054C286.604 143.559 286.633 143.029 286.523 142.519C287.09 143.667 287.854 144.707 288.778 145.593C288.986 143.999 288.354 142.6 287.405 142.053C287.998 142.138 288.592 142.197 289.194 142.227C289.171 142.099 289.14 141.973 289.101 141.849C289.22 141.962 289.318 142.095 289.389 142.244L290.038 142.282C288.884 140.989 287.108 140.56 286.387 141.527C286.696 140.679 285.726 139.649 284.415 139.36L284.691 139.784C284.821 139.776 284.952 139.792 285.077 139.831C284.975 139.853 284.874 139.881 284.776 139.916C285.013 140.293 285.272 140.662 285.539 141.014C284.725 140.531 283.377 140.632 282.24 141.476C283.168 141.759 284.132 141.902 285.102 141.9C284.748 142.012 284.416 142.186 284.123 142.413C284.153 142.626 284.228 142.83 284.343 143.011C284.243 142.985 284.149 142.938 284.068 142.873C283.987 142.808 283.92 142.726 283.873 142.634C283.441 143.03 283.157 143.56 283.067 144.139C283.71 144.158 284.338 143.947 284.839 143.545Z" fill="black"/>
<path d="M281.188 135.705C278.22 140.768 278.763 148.642 278.763 148.642H280.459C280.459 148.642 279.679 140.861 281.841 135.604C281.565 136.454 281.623 137.377 282.002 138.186C282.288 138.011 282.541 137.787 282.748 137.524C282.65 137.507 282.553 137.478 282.46 137.44C282.605 137.418 282.748 137.379 282.884 137.325C283.058 137.069 283.201 136.793 283.308 136.503C283.229 136.471 283.152 136.433 283.079 136.388C283.169 136.397 283.26 136.397 283.351 136.388C283.571 135.722 283.609 135.009 283.461 134.323C284.229 135.871 285.259 137.273 286.505 138.47C286.785 136.316 285.907 134.429 284.648 133.691C285.449 133.806 286.255 133.886 287.065 133.925C287.035 133.753 286.994 133.583 286.942 133.416C287.104 133.566 287.235 133.746 287.328 133.946L288.205 133.997C286.649 132.254 284.254 131.673 283.278 132.979C283.702 131.813 282.388 130.435 280.616 130.054C280.747 130.257 280.87 130.456 280.993 130.643C281.168 130.63 281.344 130.652 281.51 130.706C281.373 130.732 281.238 130.771 281.108 130.821C281.426 131.33 281.773 131.822 282.138 132.301C281.035 131.652 279.212 131.783 277.682 132.924C278.934 133.305 280.236 133.496 281.544 133.492C281.068 133.645 280.621 133.881 280.226 134.188C280.264 134.476 280.366 134.752 280.522 134.997C280.386 134.961 280.259 134.898 280.149 134.81C280.039 134.723 279.948 134.613 279.882 134.489C279.302 135.024 278.919 135.739 278.797 136.52C279.665 136.537 280.511 136.249 281.188 135.705Z" fill="#059177"/>
<path opacity="0.3" d="M281.188 135.705C278.22 140.768 278.763 148.642 278.763 148.642H280.459C280.459 148.642 279.679 140.861 281.841 135.604C281.565 136.454 281.623 137.377 282.002 138.186C282.288 138.011 282.541 137.787 282.748 137.524C282.65 137.507 282.553 137.478 282.46 137.44C282.605 137.418 282.748 137.379 282.884 137.325C283.058 137.069 283.201 136.793 283.308 136.503C283.229 136.471 283.152 136.433 283.079 136.388C283.169 136.397 283.26 136.397 283.351 136.388C283.571 135.722 283.609 135.009 283.461 134.323C284.229 135.871 285.259 137.273 286.505 138.47C286.785 136.316 285.907 134.429 284.648 133.691C285.449 133.806 286.255 133.886 287.065 133.925C287.035 133.753 286.994 133.583 286.942 133.416C287.104 133.566 287.235 133.746 287.328 133.946L288.205 133.997C286.649 132.254 284.254 131.673 283.278 132.979C283.702 131.813 282.388 130.435 280.616 130.054C280.747 130.257 280.87 130.456 280.993 130.643C281.168 130.63 281.344 130.652 281.51 130.706C281.373 130.732 281.238 130.771 281.108 130.821C281.426 131.33 281.773 131.822 282.138 132.301C281.035 131.652 279.212 131.783 277.682 132.924C278.934 133.305 280.236 133.496 281.544 133.492C281.068 133.645 280.621 133.881 280.226 134.188C280.264 134.476 280.366 134.752 280.522 134.997C280.386 134.961 280.259 134.898 280.149 134.81C280.039 134.723 279.948 134.613 279.882 134.489C279.302 135.024 278.919 135.739 278.797 136.52C279.665 136.537 280.511 136.249 281.188 135.705Z" fill="black"/>
<path d="M238.86 129.049C248.438 119.233 256.901 113.178 268.582 127.671C279.699 141.455 296.566 163.673 296.566 163.673L199.254 163.499C199.254 163.499 229.282 138.864 238.86 129.049Z" fill="#059177"/>
<path opacity="0.3" d="M238.86 129.049C248.438 119.233 256.901 113.178 268.582 127.671C279.699 141.455 296.566 163.673 296.566 163.673L199.254 163.499C199.254 163.499 229.282 138.864 238.86 129.049Z" fill="black"/>
<path d="M82.9179 131.342C97.2831 121.133 103.931 111.126 121.392 125.852C129.253 121.302 136.155 116.748 141.18 112.453C168.384 89.2181 195.74 103.52 217.949 119.305C240.158 135.091 265.861 163.55 265.861 163.55H34.6328C34.6328 163.55 68.468 141.616 82.9179 131.342Z" fill="#059177"/>
<path d="M130.525 114.561C130.34 113.329 129.742 112.197 128.829 111.351C128.726 111.548 128.583 111.721 128.409 111.859C128.236 111.997 128.035 112.097 127.82 112.152C128.068 111.768 128.229 111.334 128.29 110.88C127.669 110.392 126.965 110.017 126.213 109.774C128.278 109.785 130.333 109.486 132.31 108.887C129.897 107.085 127.023 106.865 125.28 107.891C125.857 107.136 126.404 106.36 126.908 105.555C126.7 105.477 126.486 105.416 126.268 105.372C126.534 105.29 126.813 105.257 127.09 105.275C127.286 104.978 127.481 104.669 127.684 104.351C124.89 104.957 122.817 107.119 123.474 108.96C121.939 106.895 118.157 107.802 115.693 110.554L117.076 110.477C117.222 110.157 117.431 109.869 117.69 109.629C117.605 109.892 117.539 110.159 117.491 110.431C118.763 110.371 120.035 110.253 121.307 110.075C119.319 111.232 117.915 114.209 118.36 117.609C120.329 115.73 121.957 113.523 123.173 111.088C122.931 112.171 122.988 113.3 123.338 114.353C123.479 114.373 123.62 114.383 123.762 114.382C123.645 114.449 123.523 114.507 123.397 114.556C123.567 115.017 123.792 115.456 124.067 115.862C124.291 115.945 124.523 116.005 124.758 116.04C124.613 116.099 124.463 116.145 124.309 116.176C124.639 116.59 125.038 116.944 125.488 117.223C126.086 115.945 126.178 114.488 125.746 113.144C129.138 121.451 127.896 133.734 127.896 133.734H130.542C130.542 133.734 131.415 121.302 126.751 113.297C127.821 114.149 129.157 114.597 130.525 114.561Z" fill="#059177"/>
<path d="M224.373 116.062C221.104 121.671 221.714 130.384 221.714 130.384H223.567C223.567 130.384 222.694 121.773 225.072 115.968C224.772 116.911 224.837 117.933 225.255 118.83C225.578 118.638 225.866 118.39 226.103 118.097C225.994 118.075 225.887 118.042 225.785 117.999C225.949 117.973 226.111 117.932 226.268 117.876C226.462 117.592 226.62 117.284 226.739 116.96C226.651 116.926 226.566 116.885 226.484 116.837C226.584 116.846 226.685 116.846 226.785 116.837C227.032 116.099 227.073 115.308 226.904 114.548C227.759 116.261 228.907 117.812 230.296 119.131C230.601 116.748 229.626 114.667 228.231 113.853C229.117 113.975 230.012 114.06 230.907 114.103C230.872 113.912 230.826 113.723 230.767 113.539C230.945 113.706 231.089 113.906 231.191 114.128L232.166 114.179C230.436 112.254 227.786 111.635 226.709 113.064C227.171 111.792 225.717 110.257 223.741 109.833C223.881 110.058 224.021 110.257 224.165 110.482C224.36 110.468 224.555 110.491 224.742 110.55C224.588 110.579 224.438 110.622 224.292 110.677C224.648 111.242 225.03 111.789 225.437 112.318C224.216 111.597 222.198 111.749 220.506 113.013C221.899 113.422 223.345 113.619 224.797 113.598C224.27 113.769 223.776 114.03 223.338 114.37C223.386 114.688 223.498 114.992 223.669 115.264C223.519 115.225 223.378 115.155 223.257 115.057C223.136 114.96 223.036 114.839 222.965 114.701C222.321 115.293 221.897 116.087 221.765 116.952C222.711 116.966 223.633 116.652 224.373 116.062Z" fill="#059177"/>
<path d="M216.439 105.911C212.233 113.119 213.022 124.351 213.022 124.351H215.409C215.409 124.351 214.281 113.267 217.347 105.771C216.962 106.984 217.045 108.297 217.58 109.451C217.987 109.202 218.347 108.883 218.644 108.51C218.5 108.48 218.358 108.439 218.22 108.387C218.433 108.354 218.641 108.3 218.844 108.226C219.093 107.859 219.297 107.463 219.45 107.047C219.337 107.003 219.228 106.95 219.123 106.89C219.253 106.891 219.382 106.881 219.509 106.861C219.826 105.912 219.879 104.895 219.662 103.918C220.763 106.122 222.239 108.118 224.025 109.816C224.415 106.751 223.177 104.067 221.366 103.032C222.511 103.193 223.656 103.299 224.809 103.354C224.767 103.109 224.707 102.866 224.631 102.629C224.862 102.844 225.049 103.102 225.182 103.388L226.454 103.456C224.233 100.976 220.819 100.153 219.433 102.019C220.026 100.357 218.161 98.4062 215.617 97.8593C215.799 98.1476 215.981 98.4274 216.155 98.7073C216.405 98.6899 216.655 98.7201 216.893 98.7963C216.697 98.835 216.504 98.8889 216.316 98.9574C216.774 99.6867 217.266 100.386 217.788 101.077C216.215 100.153 213.624 100.348 211.428 101.972C213.215 102.514 215.073 102.784 216.94 102.773C216.262 102.994 215.628 103.331 215.066 103.77C215.122 104.179 215.267 104.571 215.49 104.919C215.296 104.868 215.115 104.778 214.959 104.653C214.803 104.528 214.674 104.371 214.582 104.194C213.752 104.956 213.208 105.98 213.039 107.094C214.277 107.114 215.481 106.695 216.439 105.911Z" fill="#059177"/>
<path d="M57.5075 142.01C57.3734 141.147 56.9504 140.355 56.3076 139.763C56.2401 139.903 56.1441 140.026 56.0258 140.127C55.9075 140.227 55.7695 140.301 55.6207 140.344C55.7955 140.075 55.9085 139.771 55.9514 139.454C55.5114 139.099 55.0117 138.827 54.4759 138.648C55.9224 138.657 57.362 138.447 58.7456 138.025C57.0496 136.753 55.0398 136.609 53.8187 137.329C54.2427 136.799 54.6073 136.257 54.9592 135.693C54.8217 135.639 54.6798 135.596 54.5352 135.566C54.7211 135.505 54.9171 135.482 55.1119 135.498L55.5359 134.845C53.577 135.269 52.1439 136.787 52.5679 138.076C51.4952 136.63 48.8452 137.266 47.1152 139.195L48.0862 139.14C48.1898 138.92 48.3337 138.722 48.5102 138.555C48.4501 138.737 48.4047 138.925 48.3745 139.114C49.2677 139.075 50.1581 138.991 51.0457 138.864C49.6508 139.678 48.6798 141.764 48.9808 144.147C50.367 142.826 51.5146 141.276 52.3728 139.564C52.2048 140.323 52.2443 141.114 52.4873 141.853C52.5875 141.862 52.6882 141.862 52.7884 141.853C52.708 141.9 52.6244 141.941 52.5382 141.976C52.655 142.3 52.8117 142.608 53.0046 142.892C53.1608 142.951 53.3228 142.994 53.488 143.019C53.3848 143.059 53.2784 143.091 53.17 143.113C53.4091 143.403 53.6958 143.651 54.018 143.846C54.4376 142.951 54.5027 141.93 54.2003 140.988C56.5832 146.81 55.7055 155.404 55.7055 155.404H57.5626C57.5626 155.404 58.1732 146.691 54.9041 141.078C55.6357 141.684 56.5572 142.014 57.5075 142.01Z" fill="#059177"/>
<path d="M105.436 108.425C102.167 114.035 102.781 122.748 102.781 122.748H104.634C104.634 122.748 103.761 114.137 106.139 108.332C105.837 109.275 105.902 110.297 106.322 111.194C106.636 110.997 106.916 110.749 107.149 110.46C107.04 110.439 106.933 110.406 106.831 110.363C106.995 110.337 107.157 110.296 107.314 110.24C107.505 109.949 107.659 109.636 107.772 109.307C107.684 109.273 107.599 109.232 107.517 109.184C107.618 109.186 107.719 109.179 107.819 109.163C108.063 108.424 108.104 107.633 107.937 106.873C108.793 108.587 109.941 110.138 111.329 111.457C111.63 109.074 110.659 106.992 109.264 106.178C110.15 106.301 111.045 106.386 111.94 106.428C111.906 106.237 111.859 106.049 111.8 105.864C111.977 106.032 112.121 106.232 112.224 106.454L113.195 106.505C111.469 104.58 108.819 103.961 107.742 105.389C108.204 104.117 106.75 102.583 104.774 102.159C104.914 102.383 105.054 102.583 105.198 102.807C105.393 102.794 105.589 102.817 105.775 102.875C105.622 102.905 105.471 102.947 105.325 103.002C105.682 103.568 106.062 104.115 106.466 104.643C105.245 103.922 103.231 104.075 101.539 105.339C102.924 105.759 104.365 105.969 105.813 105.962C105.286 106.133 104.792 106.394 104.354 106.734C104.4 107.052 104.513 107.357 104.685 107.628C104.534 107.588 104.394 107.518 104.272 107.421C104.15 107.324 104.05 107.202 103.977 107.064C103.335 107.658 102.914 108.452 102.781 109.316C103.744 109.343 104.684 109.027 105.436 108.425Z" fill="#059177"/>
<path d="M84.2871 121.688C84.1138 120.576 83.57 119.556 82.7438 118.792C82.6515 118.97 82.5225 119.127 82.3654 119.252C82.2083 119.377 82.0266 119.467 81.8322 119.517C82.054 119.169 82.1986 118.777 82.2562 118.368C81.6933 117.929 81.0575 117.591 80.3778 117.372C82.2449 117.382 84.103 117.112 85.8898 116.57C83.7105 114.942 81.1156 114.747 79.5298 115.671C80.0514 114.989 80.5432 114.289 81.0011 113.551C80.8143 113.479 80.6213 113.424 80.4245 113.386C80.6639 113.309 80.916 113.281 81.1665 113.301L81.7007 112.453C79.1822 113.005 77.3081 114.951 77.8847 116.613C76.5025 114.751 73.0893 115.57 70.8633 118.05L72.1353 117.982C72.2699 117.697 72.4585 117.441 72.6907 117.228C72.61 117.462 72.5504 117.703 72.5126 117.948C73.6617 117.897 74.8107 117.787 75.9513 117.626C74.1578 118.673 72.907 121.357 73.297 124.41C75.0832 122.716 76.5622 120.724 77.6685 118.525C77.4526 119.503 77.5039 120.521 77.8169 121.472C77.9458 121.493 78.0764 121.501 78.207 121.497C78.1024 121.558 77.9932 121.61 77.8805 121.654C78.0314 122.071 78.2337 122.466 78.4826 122.833C78.6838 122.909 78.8928 122.963 79.1058 122.994C78.9697 123.051 78.8274 123.092 78.6818 123.117C78.9828 123.489 79.3439 123.809 79.7503 124.062C80.2855 122.908 80.3687 121.595 79.9835 120.382C83.049 127.874 81.9212 138.958 81.9212 138.958H84.3083C84.3083 138.958 85.0927 127.743 80.8866 120.522C81.8476 121.299 83.0517 121.712 84.2871 121.688Z" fill="#059177"/>
<path d="M172.644 85.8643C172.405 84.3085 171.646 82.8796 170.491 81.8108C170.362 82.0597 170.182 82.2786 169.963 82.4532C169.743 82.6278 169.49 82.7542 169.219 82.8242C169.532 82.3387 169.735 81.79 169.812 81.2172C169.027 80.6038 168.14 80.1331 167.192 79.8265C169.797 79.8371 172.39 79.4583 174.883 78.7029C171.839 76.4303 168.209 76.1589 166.009 77.4309C166.738 76.4769 167.429 75.4975 168.069 74.4841C167.807 74.3833 167.536 74.3053 167.26 74.2509C167.596 74.148 167.948 74.1077 168.298 74.1322L169.049 72.9577C165.521 73.7294 162.901 76.4557 163.732 78.7792C161.794 76.1716 157.024 77.3164 153.912 80.789L155.663 80.6957C155.849 80.2955 156.111 79.9355 156.435 79.6357C156.326 79.9667 156.243 80.3055 156.185 80.6491C157.796 80.5727 159.4 80.4215 160.997 80.1954C158.487 81.6582 156.736 85.4148 157.283 89.7057C159.774 87.3285 161.832 84.5366 163.367 81.4547C163.065 82.821 163.138 84.2436 163.579 85.5717C163.759 85.6014 163.94 85.6142 164.122 85.6099C163.975 85.6952 163.822 85.7689 163.664 85.8303C163.876 86.4125 164.161 86.9654 164.512 87.4755C164.793 87.5814 165.084 87.6581 165.381 87.7044C165.197 87.7795 165.005 87.8363 164.809 87.874C165.226 88.397 165.729 88.8445 166.297 89.1969C167.05 87.5834 167.167 85.7452 166.624 84.0495C170.91 94.5308 169.333 110.032 169.333 110.032H172.674C172.674 110.032 173.777 94.3443 167.891 84.2446C169.236 85.3265 170.919 85.9 172.644 85.8643Z" fill="#059177"/>
<path d="M204.868 106C201.777 111.304 202.358 119.543 202.358 119.543H204.109C204.109 119.543 203.282 111.398 205.534 105.894C205.248 106.785 205.309 107.751 205.703 108.599C206.003 108.414 206.268 108.179 206.488 107.904C206.385 107.884 206.284 107.855 206.187 107.815C206.343 107.792 206.497 107.753 206.645 107.696C206.82 107.432 206.963 107.147 207.069 106.848C206.988 106.814 206.908 106.776 206.831 106.734C206.926 106.742 207.021 106.742 207.115 106.734C207.347 106.036 207.385 105.289 207.226 104.571C208.033 106.189 209.114 107.656 210.423 108.904C210.707 106.649 209.787 104.664 208.472 103.91C209.32 104.028 210.168 104.108 211.016 104.147C210.983 103.968 210.939 103.791 210.885 103.617C211.059 103.774 211.203 103.963 211.309 104.173L212.225 104.223C210.592 102.4 208.086 101.798 207.069 103.168C207.493 101.947 206.132 100.513 204.279 100.111C204.41 100.323 204.542 100.535 204.669 100.725C204.854 100.713 205.039 100.734 205.216 100.789C205.072 100.819 204.93 100.86 204.792 100.912C205.127 101.442 205.491 101.959 205.873 102.46C204.715 101.781 202.812 101.925 201.209 103.117C202.519 103.516 203.881 103.714 205.25 103.706C204.751 103.868 204.284 104.116 203.872 104.44C203.913 104.741 204.018 105.031 204.181 105.288C204.039 105.251 203.906 105.184 203.791 105.092C203.676 105 203.582 104.885 203.516 104.753C202.908 105.311 202.509 106.059 202.383 106.873C203.289 106.883 204.168 106.574 204.868 106Z" fill="#059177"/>
<path d="M178.717 93.704C175.613 99.0125 176.202 107.272 176.202 107.272H177.958C177.958 107.272 177.11 99.1312 179.378 93.6277C179.094 94.5178 179.156 95.4822 179.552 96.3286C179.85 96.1449 180.114 95.911 180.332 95.6375C180.229 95.6167 180.128 95.5855 180.031 95.5442C180.188 95.5237 180.342 95.4838 180.489 95.4255C180.671 95.1618 180.821 94.8771 180.934 94.5775C180.85 94.5479 180.769 94.5095 180.693 94.463C180.787 94.4716 180.882 94.4716 180.977 94.463C181.209 93.7643 181.249 93.0157 181.091 92.2964C181.896 93.9152 182.976 95.3815 184.284 96.6296C184.572 94.3782 183.652 92.3896 182.333 91.6349C183.181 91.7536 184.029 91.8342 184.877 91.8766C184.849 91.6951 184.805 91.5164 184.746 91.3424C184.922 91.4981 185.066 91.6868 185.17 91.8978L186.09 91.9487C184.453 90.1255 181.948 89.5234 180.93 90.8929C181.354 89.6718 179.993 88.2429 178.14 87.8359L178.534 88.4549C178.718 88.4399 178.902 88.4615 179.077 88.5185C178.933 88.5458 178.791 88.5855 178.653 88.6372C178.992 89.1715 179.353 89.6845 179.734 90.1848C178.581 89.5064 176.677 89.6506 175.07 90.8463C176.38 91.2425 177.742 91.4411 179.111 91.4356C178.612 91.595 178.145 91.842 177.733 92.1649C177.774 92.4672 177.881 92.7567 178.047 93.0129C177.904 92.9764 177.771 92.9103 177.656 92.819C177.54 92.7277 177.445 92.6132 177.377 92.4829C176.772 93.0422 176.373 93.789 176.245 94.6029C177.149 94.6039 178.024 94.2855 178.717 93.704Z" fill="#059177"/>
<path opacity="0.2" d="M167.9 126.916C167.532 128.061 167.611 129.303 168.121 130.393C168.505 130.157 168.845 129.855 169.126 129.502C168.994 129.477 168.864 129.439 168.74 129.388C168.941 129.355 169.138 129.302 169.329 129.231C169.565 128.886 169.756 128.513 169.898 128.12C169.793 128.078 169.691 128.028 169.592 127.972C169.714 127.972 169.836 127.963 169.957 127.946C170.254 127.047 170.304 126.085 170.101 125.161C171.139 127.244 172.531 129.132 174.214 130.74C174.578 127.84 173.396 125.301 171.7 124.313C172.782 124.465 173.866 124.567 174.952 124.618C174.914 124.386 174.859 124.158 174.786 123.935C175.004 124.139 175.181 124.382 175.308 124.652L176.486 124.715C174.388 122.371 171.161 121.595 169.855 123.354C170.415 121.786 168.647 119.941 166.264 119.424C166.438 119.699 166.603 119.962 166.768 120.217C167.005 120.199 167.242 120.226 167.468 120.297C167.283 120.334 167.101 120.387 166.925 120.454C167.349 121.137 167.824 121.803 168.316 122.447C166.828 121.569 164.377 121.756 162.316 123.295C164.003 123.805 165.757 124.06 167.519 124.05C166.877 124.257 166.277 124.575 165.747 124.991C165.798 125.378 165.934 125.748 166.145 126.076C165.964 126.028 165.795 125.942 165.649 125.824C165.503 125.707 165.383 125.56 165.297 125.394C164.516 126.116 164.004 127.082 163.843 128.133C165.008 128.159 166.146 127.775 167.057 127.047C163.716 132.788 163.707 141.192 163.792 143.723C164.031 143.892 164.248 144.088 164.441 144.308C164.56 143.881 164.748 143.476 164.996 143.109C165.094 143.533 165.187 143.957 165.284 144.381C165.488 144.069 165.73 143.784 166.005 143.533C165.814 140.798 165.526 132.712 167.9 126.916Z" fill="white"/>
<path opacity="0.2" d="M216.355 138.224C216.111 138.908 216.011 139.636 216.063 140.361C216.115 141.086 216.317 141.792 216.656 142.434C217.165 142.153 217.623 141.788 218.009 141.353C217.831 141.322 217.657 141.275 217.487 141.213C217.757 141.177 218.022 141.114 218.28 141.027C218.595 140.615 218.854 140.163 219.047 139.683C218.902 139.632 218.761 139.573 218.623 139.505C218.789 139.506 218.955 139.495 219.12 139.471C219.519 138.393 219.586 137.22 219.31 136.104C220.741 138.663 222.616 140.948 224.848 142.85C225.344 139.343 223.75 136.274 221.456 135.078C222.91 135.26 224.369 135.387 225.836 135.447C225.785 135.158 225.71 134.875 225.611 134.599C225.897 134.833 226.135 135.121 226.311 135.447L227.905 135.523C225.073 132.687 220.731 131.754 218.971 133.882C219.726 131.983 217.343 129.753 214.133 129.125L214.816 130.083C215.135 130.062 215.455 130.096 215.761 130.185C215.511 130.228 215.264 130.291 215.024 130.372C215.609 131.198 216.236 132.004 216.898 132.78C214.897 131.724 211.598 131.932 208.842 133.806C211.123 134.426 213.478 134.734 215.842 134.722C214.989 134.967 214.182 135.353 213.455 135.862C213.53 136.335 213.715 136.783 213.993 137.173C213.755 137.12 213.529 137.02 213.33 136.878C213.131 136.736 212.963 136.555 212.836 136.346C211.806 137.178 211.111 138.354 210.877 139.657C212.424 139.7 213.942 139.24 215.206 138.347C210.703 145.339 210.695 155.506 210.805 158.576C211.126 158.774 211.421 159.012 211.683 159.284C211.848 158.76 212.101 158.268 212.433 157.83L212.815 159.36C213.095 158.98 213.423 158.636 213.79 158.339C213.548 155.031 213.162 145.258 216.355 138.224Z" fill="white"/>
<path opacity="0.2" d="M189.876 129.926C189.644 130.647 189.694 131.429 190.016 132.114C190.258 131.965 190.471 131.774 190.647 131.55C190.564 131.537 190.483 131.513 190.406 131.478C190.531 131.46 190.655 131.428 190.775 131.385C190.922 131.165 191.043 130.929 191.135 130.681C191.067 130.656 191.002 130.625 190.94 130.588C191.016 130.594 191.093 130.594 191.169 130.588C191.357 130.022 191.389 129.415 191.262 128.832C191.914 130.144 192.789 131.332 193.849 132.343C194.082 130.52 193.336 128.921 192.267 128.298C192.945 128.396 193.628 128.459 194.315 128.493C194.29 128.349 194.255 128.208 194.209 128.069C194.346 128.196 194.457 128.349 194.535 128.519L195.282 128.561C193.959 127.086 191.928 126.598 191.105 127.713C191.457 126.725 190.346 125.568 188.845 125.241L189.163 125.737C189.307 125.731 189.45 125.748 189.587 125.788C189.471 125.814 189.356 125.846 189.244 125.886C189.515 126.31 189.808 126.734 190.117 127.158C189.185 126.606 187.641 126.734 186.344 127.692C187.405 128.014 188.508 128.174 189.617 128.167C189.214 128.298 188.836 128.499 188.502 128.76C188.535 129.004 188.622 129.237 188.756 129.443C188.641 129.414 188.533 129.362 188.44 129.289C188.346 129.216 188.269 129.124 188.214 129.019C187.723 129.473 187.4 130.08 187.298 130.74C188.031 130.757 188.747 130.515 189.32 130.058C187.2 133.67 187.2 138.962 187.264 140.552C187.42 140.657 187.562 140.781 187.688 140.921C187.761 140.651 187.878 140.396 188.036 140.166C188.095 140.429 188.154 140.696 188.218 140.963C188.345 140.766 188.498 140.587 188.672 140.429C188.561 138.648 188.383 133.56 189.876 129.926Z" fill="white"/>
<path opacity="0.2" d="M155.968 149.358C156.29 149.654 156.575 149.987 156.816 150.35L157.151 148.866C157.442 149.299 157.661 149.776 157.8 150.278C158.027 150.019 158.285 149.788 158.567 149.591C158.661 146.623 158.656 136.765 154.751 130.032C155.82 130.887 157.156 131.338 158.525 131.304C158.338 130.074 157.74 128.942 156.829 128.095C156.726 128.291 156.583 128.464 156.409 128.602C156.236 128.741 156.035 128.841 155.82 128.896C156.069 128.512 156.231 128.078 156.295 127.624C155.671 127.136 154.966 126.762 154.213 126.517C156.278 126.528 158.333 126.23 160.31 125.631C157.897 123.829 155.023 123.609 153.28 124.635C153.857 123.88 154.404 123.104 154.908 122.299C154.701 122.221 154.489 122.16 154.272 122.116C154.536 122.033 154.814 122 155.09 122.019C155.286 121.722 155.481 121.412 155.684 121.09C152.89 121.701 150.817 123.859 151.474 125.703C149.939 123.638 146.157 124.546 143.693 127.298L145.08 127.221C145.227 126.902 145.434 126.614 145.69 126.373C145.605 126.635 145.539 126.903 145.491 127.175C146.763 127.115 148.035 126.997 149.307 126.814C147.319 127.976 145.915 130.952 146.36 134.353C148.335 132.47 149.968 130.257 151.185 127.815C150.946 128.898 151.003 130.026 151.351 131.08C151.491 131.1 151.633 131.11 151.775 131.109C151.659 131.175 151.538 131.233 151.414 131.283C151.581 131.745 151.804 132.183 152.08 132.589C152.304 132.672 152.535 132.731 152.771 132.767C152.625 132.827 152.473 132.873 152.318 132.903C152.648 133.317 153.046 133.671 153.496 133.95C154.094 132.672 154.187 131.215 153.755 129.871C156.532 136.685 156.18 146.161 155.968 149.358Z" fill="white"/>
<path opacity="0.2" d="M186.093 119.144C185.639 120.569 185.737 122.113 186.368 123.469C186.847 123.174 187.27 122.798 187.619 122.358C187.455 122.327 187.294 122.279 187.14 122.214C187.389 122.176 187.633 122.112 187.869 122.023C188.163 121.594 188.401 121.13 188.577 120.641C188.446 120.589 188.319 120.528 188.196 120.458C188.349 120.46 188.502 120.448 188.654 120.425C189.022 119.308 189.084 118.113 188.832 116.965C190.12 119.554 191.849 121.9 193.941 123.897C194.399 120.293 192.927 117.139 190.82 115.909C192.16 116.098 193.507 116.226 194.861 116.291C194.813 116.003 194.744 115.72 194.653 115.443C194.925 115.695 195.145 115.997 195.302 116.333L196.769 116.413C194.157 113.496 190.15 112.534 188.522 114.717C189.222 112.767 187.021 110.477 184.057 109.833L184.689 110.817C184.976 110.798 185.263 110.832 185.537 110.918C185.307 110.965 185.08 111.029 184.859 111.109C185.397 111.957 185.978 112.805 186.589 113.585C184.74 112.5 181.696 112.737 179.135 114.641C181.229 115.277 183.408 115.594 185.597 115.582C184.8 115.841 184.056 116.237 183.396 116.753C183.462 117.234 183.631 117.695 183.892 118.105C183.665 118.046 183.453 117.939 183.269 117.793C183.085 117.647 182.933 117.465 182.824 117.257C181.853 118.15 181.215 119.346 181.013 120.649C182.463 120.687 183.879 120.211 185.011 119.305C180.856 126.441 180.848 136.888 180.949 140.035C181.25 140.242 181.522 140.487 181.759 140.764C181.907 140.231 182.141 139.725 182.45 139.267L182.807 140.84C183.059 140.452 183.361 140.098 183.705 139.789C183.502 136.397 183.142 126.352 186.093 119.144Z" fill="white"/>
<path d="M206.226 146.81C198.946 140.59 190.3 134.773 180.726 135.116C173.578 135.375 167.027 139.064 161.129 143.113C152.516 149.029 144.606 155.91 137.555 163.622L223.33 163.829C218.069 157.73 212.351 152.04 206.226 146.81Z" fill="#059177"/>
<g opacity="0.2">
<path d="M206.226 146.81C198.946 140.59 190.3 134.773 180.726 135.116C173.578 135.375 167.027 139.064 161.129 143.113C152.516 149.029 144.606 155.91 137.555 163.622L223.33 163.829C218.069 157.73 212.351 152.04 206.226 146.81Z" fill="white"/>
</g>
<path d="M266.348 91.3296C244.431 110.834 245.491 155.642 245.86 163.541L253.852 163.469C253.852 163.439 253.852 163.41 253.852 163.38C253.204 155.243 250.609 112.614 266.348 91.3296Z" fill="#CD877B"/>
<path opacity="0.2" d="M245.729 156.922V158.152C248.316 157.863 250.923 157.792 253.522 157.94C253.522 157.541 253.488 157.117 253.471 156.693C250.888 156.555 248.298 156.632 245.729 156.922Z" fill="black"/>
<path opacity="0.2" d="M245.881 150.202C245.881 150.626 245.847 151.05 245.834 151.449C248.324 151.225 250.829 151.21 253.322 151.406C253.322 150.982 253.322 150.558 253.322 150.16C250.845 149.967 248.356 149.981 245.881 150.202Z" fill="black"/>
<path opacity="0.2" d="M246.314 143.401C246.28 143.825 246.246 144.249 246.217 144.648C248.589 144.503 250.968 144.554 253.332 144.8C253.332 144.376 253.332 143.952 253.357 143.554C251.017 143.312 248.662 143.261 246.314 143.401Z" fill="black"/>
<path opacity="0.2" d="M247.048 136.549C246.997 136.973 246.942 137.397 246.891 137.796C249.12 137.74 251.35 137.864 253.56 138.165C253.56 137.741 253.607 137.317 253.632 136.918C251.45 136.626 249.249 136.502 247.048 136.549Z" fill="black"/>
<path opacity="0.2" d="M247.898 130.914C249.961 130.952 252.018 131.146 254.051 131.495L254.169 130.253C252.168 129.913 250.144 129.721 248.115 129.68C248.047 130.092 247.971 130.503 247.898 130.914Z" fill="black"/>
<path opacity="0.2" d="M249.289 124.062C251.142 124.203 252.984 124.468 254.801 124.855C254.856 124.431 254.916 124.007 254.975 123.609C253.2 123.235 251.403 122.977 249.594 122.837C249.484 123.253 249.387 123.655 249.289 124.062Z" fill="black"/>
<path opacity="0.2" d="M251.113 117.317C252.712 117.554 254.298 117.877 255.862 118.283C255.938 117.859 256.019 117.465 256.112 117.054C254.594 116.664 253.057 116.351 251.508 116.117C251.363 116.515 251.236 116.918 251.113 117.317Z" fill="black"/>
<path opacity="0.2" d="M253.428 110.778C254.7 111.071 256.04 111.436 257.299 111.838C257.405 111.436 257.511 111.029 257.621 110.626C256.413 110.244 255.153 109.897 253.907 109.612C253.746 109.998 253.585 110.384 253.428 110.778Z" fill="black"/>
<path opacity="0.2" d="M256.892 103.456C256.684 103.829 256.468 104.206 256.281 104.575C257.279 104.895 258.24 105.237 259.164 105.601C259.296 105.207 259.436 104.813 259.588 104.423C258.715 104.092 257.808 103.766 256.892 103.456Z" fill="black"/>
<path d="M266.576 105.767C266.926 105.971 267.292 106.149 267.67 106.297C267.164 107.706 266.482 109.045 265.639 110.282C264.955 110.542 264.244 110.724 263.519 110.825C263.966 111.012 264.43 111.154 264.905 111.249C263.9 112.511 262.683 113.588 261.31 114.433C256.892 105.758 262.709 95.0778 266.347 91.3423C269.022 94.7089 269.557 100.513 267.869 105.691C267.441 105.753 267.008 105.779 266.576 105.767Z" fill="#059177"/>
<path d="M266.348 91.3296C269.625 98.9616 274.828 107.972 283.083 115.663C284.927 101.226 276.002 89.3198 266.348 91.3296Z" fill="#059177"/>
<path d="M285.134 91.3381C285.402 92.146 285.605 92.974 285.74 93.8143C277.57 93.2843 271.201 92.4702 266.359 91.3211C269.929 82.4723 282.993 84.923 291.223 94.1068C289.768 94.039 288.361 93.9669 287.008 93.8821C286.551 92.9224 285.915 92.0589 285.134 91.3381Z" fill="#059177"/>
<path d="M266.347 91.3296C264.278 96.5236 256.357 106.873 245.936 106.335C246.432 102.519 248.424 99.1609 251.147 96.5533C251.791 97.5752 252.813 98.7496 254.216 98.9701C253.481 97.7965 253.004 96.4798 252.817 95.1075C257.019 91.8554 262.293 90.2823 266.347 91.3296Z" fill="#059177"/>
<path d="M266.348 91.3296C259.14 92.1183 250.002 92.0377 240.568 89.0443C250.808 81.4292 263.74 83.104 266.348 91.3296Z" fill="#059177"/>
<path d="M258.995 78.3467C258.329 78.4752 257.675 78.6596 257.04 78.8979C260.615 84.3421 263.672 88.4209 266.368 91.3296C271.087 85.3936 264.27 77.3122 254.691 75.2176C255.31 76.1984 255.914 77.1411 256.502 78.0457C257.345 77.9853 258.191 78.0875 258.995 78.3467Z" fill="#059177"/>
<g opacity="0.3">
<path d="M271.745 101.679C270.651 98.1815 270.121 96.5363 267.391 92.8094C267.838 93.772 268.19 94.776 268.442 95.8071C268.412 95.841 270.397 99.5298 270.825 100.191C271.253 100.853 271.745 101.679 271.745 101.679Z" fill="black"/>
</g>
<path opacity="0.3" d="M274.154 92.7161C274.154 92.7161 269.774 90.3926 266.861 91.2491C266.861 91.2491 267.985 90.4011 270.508 90.8251C272.149 91.0583 274.154 92.7161 274.154 92.7161Z" fill="black"/>
<g opacity="0.3">
<path d="M263.804 87.1659C263.24 86.4282 262.557 85.5802 261.629 85.5378L261.981 86.0169C263.259 86.9926 264.3 88.2451 265.025 89.6803C264.774 88.775 264.36 87.9231 263.804 87.1659Z" fill="black"/>
</g>
<g opacity="0.3">
<path d="M255.324 91.707L259.2 91.7536C260.074 91.559 260.935 91.3098 261.777 91.0074C259.988 90.206 255.324 91.707 255.324 91.707Z" fill="black"/>
</g>
<path opacity="0.3" d="M261.815 98.4189L264.863 94.2679C264.863 94.2679 262.841 98.4401 261.289 99.6994L261.815 98.4189Z" fill="black"/>
<path d="M51.4355 91.3296C73.3521 110.834 72.2921 155.642 71.9232 163.541L63.9393 163.575C63.9393 163.545 63.9393 163.41 63.9393 163.38C64.5923 155.243 67.1744 112.614 51.4355 91.3296Z" fill="#CD877B"/>
<path opacity="0.2" d="M64.311 156.71C64.311 157.134 64.2771 157.558 64.2559 157.957C66.8563 157.809 69.4646 157.88 72.0532 158.169V156.922C69.4828 156.638 66.8931 156.567 64.311 156.71Z" fill="black"/>
<path opacity="0.2" d="M64.4766 150.16C64.4766 150.584 64.4766 151.008 64.4766 151.406C66.9693 151.21 69.4741 151.225 71.9644 151.449C71.9644 151.039 71.9474 150.623 71.9135 150.202C69.44 149.981 66.9524 149.967 64.4766 150.16Z" fill="black"/>
<path opacity="0.2" d="M64.4258 143.554C64.4258 143.978 64.4512 144.402 64.4512 144.8C66.8146 144.554 69.1942 144.503 71.5659 144.648C71.5363 144.224 71.5023 143.821 71.4684 143.401C69.1206 143.261 66.7653 143.312 64.4258 143.554Z" fill="black"/>
<path opacity="0.2" d="M64.1504 136.918C64.1758 137.342 64.2013 137.766 64.2225 138.165C66.4295 137.865 68.657 137.744 70.8835 137.8C70.8369 137.376 70.7818 136.973 70.7309 136.553C68.5313 136.505 66.3312 136.627 64.1504 136.918Z" fill="black"/>
<path opacity="0.2" d="M69.6624 129.68C67.6399 129.722 65.6233 129.914 63.6289 130.253L63.7476 131.495C65.7737 131.147 67.8233 130.953 69.8787 130.914C69.8108 130.503 69.7345 130.092 69.6624 129.68Z" fill="black"/>
<path opacity="0.2" d="M68.2002 122.837C66.3947 122.977 64.6002 123.235 62.8281 123.609C62.8875 124.033 62.9468 124.457 63.002 124.855C64.8195 124.468 66.661 124.203 68.514 124.062C68.3995 123.655 68.2977 123.253 68.2002 122.837Z" fill="black"/>
<path opacity="0.2" d="M66.283 116.117C64.7304 116.351 63.1907 116.663 61.6699 117.054C61.7632 117.478 61.8438 117.876 61.9201 118.283C63.4846 117.877 65.0698 117.554 66.6689 117.317C66.5459 116.918 66.4145 116.515 66.283 116.117Z" fill="black"/>
<path opacity="0.2" d="M63.8744 109.612C62.6278 109.897 61.3686 110.244 60.1602 110.626C60.2704 111.029 60.3764 111.436 60.4824 111.838C61.7544 111.436 63.0646 111.071 64.3535 110.778C64.1966 110.384 64.0355 109.998 63.8744 109.612Z" fill="black"/>
<path opacity="0.2" d="M58.2012 104.431C58.3453 104.821 58.4853 105.216 58.6252 105.61C59.5495 105.245 60.5106 104.903 61.5084 104.584C61.3091 104.215 61.0844 103.838 60.8978 103.464C59.9693 103.766 59.0661 104.092 58.2012 104.431Z" fill="black"/>
<path d="M49.8992 105.686C48.2032 100.509 48.7459 94.7046 51.4213 91.3381C55.0592 95.0735 60.8765 105.754 56.4584 114.429C55.0848 113.584 53.8682 112.506 52.8629 111.245C53.3381 111.15 53.8026 111.008 54.2494 110.821C53.5246 110.72 52.8135 110.538 52.1294 110.278C51.2862 109.041 50.6038 107.702 50.0984 106.293C50.4762 106.144 50.8419 105.967 51.1924 105.763C50.7599 105.775 50.3272 105.749 49.8992 105.686Z" fill="#059177"/>
<path d="M34.6858 115.663C42.9454 107.972 48.1436 98.9574 51.4211 91.3296C41.7794 89.3198 32.8542 101.226 34.6858 115.663Z" fill="#059177"/>
<path d="M30.7732 93.8821C29.4164 93.9669 28.0129 94.039 26.5586 94.1068C34.7842 84.923 47.8519 82.4723 51.422 91.3211C46.5799 92.4702 40.2114 93.2843 32.0409 93.8143C32.1768 92.974 32.3795 92.146 32.6472 91.3381C31.8661 92.0589 31.23 92.9224 30.7732 93.8821Z" fill="#059177"/>
<path d="M64.9478 95.1075C64.7615 96.4805 64.2829 97.7977 63.5444 98.9701C64.9478 98.7496 65.9739 97.5752 66.6184 96.5533C69.3362 99.1609 71.3332 102.532 71.8293 106.335C61.4074 106.873 53.4871 96.5236 51.418 91.3296C55.4884 90.2823 60.7629 91.8554 64.9478 95.1075Z" fill="#059177"/>
<path d="M77.2011 89.04C67.7671 92.0335 58.6468 92.114 51.4219 91.3254C54.0422 83.104 66.97 81.4292 77.2011 89.04Z" fill="#059177"/>
<path d="M61.2884 78.0499C61.8764 77.1426 62.4798 76.1999 63.0989 75.2219C53.5207 77.3122 46.7028 85.3979 51.4219 91.3339C54.1058 88.4252 57.1671 84.3463 60.7499 78.9022C60.1167 78.6633 59.4642 78.4789 58.7995 78.351C59.6022 78.0923 60.4472 77.9901 61.2884 78.0499Z" fill="#059177"/>
<g opacity="0.3">
<path d="M46.0332 101.679C47.1314 98.1815 47.6614 96.5363 50.3919 92.8094C49.9427 93.7712 49.5905 94.7754 49.3404 95.8071C49.3658 95.841 47.3815 99.5298 46.9575 100.191C46.5335 100.853 46.0332 101.679 46.0332 101.679Z" fill="black"/>
</g>
<path opacity="0.3" d="M43.6289 92.7161C43.6289 92.7161 48.0088 90.3926 50.9217 91.2491C50.9217 91.2491 49.7981 90.4011 47.2753 90.8251C45.6344 91.0583 43.6289 92.7161 43.6289 92.7161Z" fill="black"/>
<g opacity="0.3">
<path d="M53.961 87.1659C54.5292 86.4282 55.2118 85.5802 56.1404 85.5378L55.7842 86.0169C54.5085 86.9941 53.4694 88.2462 52.7441 89.6803C52.9938 88.7752 53.4061 87.9232 53.961 87.1659Z" fill="black"/>
</g>
<g opacity="0.3">
<path d="M62.4806 91.707L58.6053 91.7536C57.7312 91.559 56.8702 91.3098 56.0273 91.0074C57.8166 90.206 62.4806 91.707 62.4806 91.707Z" fill="black"/>
</g>
<path opacity="0.3" d="M55.9665 98.4189L52.918 94.2679C52.918 94.2679 54.9404 98.4401 56.4923 99.6994L55.9665 98.4189Z" fill="black"/>
<path d="M103.571 41.9082C102.622 42.0938 101.69 42.3576 100.785 42.6968C105.873 50.4687 110.253 56.2945 114.086 60.4455C120.827 51.9655 111.092 40.4327 97.4141 37.4477C98.296 38.861 99.1567 40.2079 99.9962 41.4884C101.204 41.3959 102.417 41.5384 103.571 41.9082Z" fill="#059177"/>
<path opacity="0.3" d="M103.571 41.9082C102.622 42.0938 101.69 42.3576 100.785 42.6968C105.873 50.4687 110.253 56.2945 114.086 60.4455C120.827 51.9655 111.092 40.4327 97.4141 37.4477C98.296 38.861 99.1567 40.2079 99.9962 41.4884C101.204 41.3959 102.417 41.5384 103.571 41.9082Z" fill="white"/>
<path d="M140.89 60.454C141.268 61.6079 141.551 62.7905 141.738 63.9901C130.078 63.2312 120.988 62.0736 114.072 60.4328C119.16 47.8018 137.816 51.2956 149.57 64.4056C147.492 64.3124 145.486 64.2064 143.553 64.0876C142.904 62.7185 142 61.4854 140.89 60.454Z" fill="#059177"/>
<path opacity="0.3" d="M140.89 60.454C141.268 61.6079 141.551 62.7905 141.738 63.9901C130.078 63.2312 120.988 62.0736 114.072 60.4328C119.16 47.8018 137.816 51.2956 149.57 64.4056C147.492 64.3124 145.486 64.2064 143.553 64.0876C142.904 62.7185 142 61.4854 140.89 60.454Z" fill="white"/>
<path d="M114.064 60.4454C82.7767 88.2938 84.2903 152.267 84.8076 163.541L96.2175 163.439C96.2175 163.397 96.2175 163.354 96.2175 163.312C95.2847 151.694 91.5959 90.8335 114.064 60.4454Z" fill="#9F5B53"/>
<path opacity="0.2" d="M84.6289 154.094V155.875C88.3237 155.46 92.0469 155.358 95.7589 155.57C95.7292 154.997 95.7038 154.395 95.6783 153.793C91.9933 153.582 88.297 153.683 84.6289 154.094Z" fill="black"/>
<path opacity="0.2" d="M84.8494 144.495C84.8197 145.097 84.7985 145.691 84.7773 146.276C88.3338 145.958 91.9106 145.937 95.4706 146.212C95.4706 145.627 95.4706 145.033 95.4494 144.436C91.9205 144.163 88.3751 144.183 84.8494 144.495Z" fill="black"/>
<path opacity="0.2" d="M85.4645 134.79C85.4136 135.387 85.367 135.977 85.3203 136.566C88.7126 136.361 92.1161 136.435 95.4963 136.787C95.4963 136.193 95.5218 135.595 95.5345 135.006C92.1892 134.662 88.8215 134.589 85.4645 134.79Z" fill="black"/>
<path opacity="0.2" d="M86.5115 125.008C86.4352 125.602 86.3589 126.187 86.291 126.784C89.4729 126.705 92.656 126.881 95.8098 127.31C95.8395 126.717 95.8734 126.119 95.9116 125.529C92.7967 125.11 89.6537 124.936 86.5115 125.008Z" fill="black"/>
<path opacity="0.2" d="M87.7324 116.96C90.6681 117.022 93.595 117.306 96.488 117.808L96.6576 116.032C93.8095 115.55 90.9299 115.276 88.0419 115.214C87.9359 115.786 87.8427 116.371 87.7324 116.96Z" fill="black"/>
<path opacity="0.2" d="M89.7129 107.174C92.3527 107.379 94.9759 107.759 97.5654 108.311C97.6417 107.721 97.7307 107.132 97.8155 106.53C95.2806 106 92.7144 105.631 90.1326 105.428C89.9885 106 89.8486 106.598 89.7129 107.174Z" fill="black"/>
<path opacity="0.2" d="M92.3164 97.5455C94.6012 97.8827 96.8658 98.3441 99.1004 98.9277C99.2106 98.3426 99.3251 97.7575 99.4566 97.1724C97.2857 96.6065 95.0863 96.1564 92.8676 95.824C92.6768 96.4049 92.5072 96.9731 92.3164 97.5455Z" fill="black"/>
<path opacity="0.2" d="M95.6191 88.192C97.4635 88.616 99.3503 89.1333 101.131 89.7099C101.278 89.1276 101.431 88.551 101.589 87.98C99.8676 87.433 98.0656 86.9327 96.2891 86.5299C96.0771 87.0938 95.8481 87.6493 95.6191 88.192Z" fill="black"/>
<path opacity="0.2" d="M100.563 77.7701C100.27 78.3001 99.982 78.8386 99.7148 79.3686C101.128 79.8208 102.499 80.3098 103.828 80.8356C104.018 80.2674 104.218 79.7035 104.421 79.1396C103.17 78.6647 101.877 78.1983 100.563 77.7701Z" fill="black"/>
<path d="M114.39 81.0561C114.893 81.3497 115.417 81.6034 115.959 81.8151C115.234 83.8253 114.259 85.7369 113.059 87.5052C112.087 87.8725 111.077 88.1327 110.049 88.2811C110.687 88.544 111.351 88.7428 112.029 88.8747C110.593 90.6777 108.856 92.2184 106.894 93.4284C100.585 81.0392 108.891 65.7879 114.102 60.4582C117.918 65.2621 118.686 73.5471 116.277 80.9416C115.653 81.0359 115.021 81.0742 114.39 81.0561Z" fill="#059177"/>
<path opacity="0.3" d="M114.39 81.0561C114.893 81.3497 115.417 81.6034 115.959 81.8151C115.234 83.8253 114.259 85.7369 113.059 87.5052C112.087 87.8725 111.077 88.1327 110.049 88.2811C110.687 88.544 111.351 88.7428 112.029 88.8747C110.593 90.6777 108.856 92.2184 106.894 93.4284C100.585 81.0392 108.891 65.7879 114.102 60.4582C117.918 65.2621 118.686 73.5471 116.277 80.9416C115.653 81.0359 115.021 81.0742 114.39 81.0561Z" fill="white"/>
<path d="M114.084 60.4454C103.769 61.569 90.7644 61.4588 77.2812 57.1849C91.8838 46.3093 110.341 48.7006 114.084 60.4454Z" fill="#059177"/>
<path opacity="0.3" d="M114.084 60.4454C103.769 61.569 90.7644 61.4588 77.2812 57.1849C91.8838 46.3093 110.341 48.7006 114.084 60.4454Z" fill="white"/>
<g opacity="0.3">
<path d="M121.763 75.2218C120.199 70.2271 119.444 67.8824 115.539 62.5569C115.781 62.7986 116.862 65.8726 117.044 66.8393C117.006 66.886 119.838 72.1521 120.436 73.0976C121.034 74.0431 121.763 75.2218 121.763 75.2218Z" fill="black"/>
</g>
<path d="M114.084 60.4454C118.748 71.3338 126.181 84.1894 137.976 95.1838C140.592 74.5731 127.851 57.575 114.084 60.4454Z" fill="#059177"/>
<path opacity="0.3" d="M114.084 60.4454C118.748 71.3338 126.181 84.1894 137.976 95.1838C140.592 74.5731 127.851 57.575 114.084 60.4454Z" fill="white"/>
<path opacity="0.3" d="M125.215 62.4213C125.215 62.4213 118.956 59.1056 114.797 60.331C114.797 60.331 116.404 59.1438 120.004 59.6992C122.348 60.0596 125.215 62.4213 125.215 62.4213Z" fill="black"/>
<g opacity="0.3">
<path d="M110.456 54.4967C109.646 53.4494 108.671 52.2368 107.348 52.1774L107.852 52.8558C109.677 54.2483 111.162 56.0374 112.194 58.088C111.838 56.7951 111.249 55.5781 110.456 54.4967Z" fill="black"/>
</g>
<g opacity="0.3">
<path d="M98.2949 60.9882L103.807 61.0475C105.054 60.7687 106.283 60.4133 107.487 59.9833C104.956 58.8427 98.2949 60.9882 98.2949 60.9882Z" fill="black"/>
</g>
<path opacity="0.3" d="M107.593 70.5663L111.943 64.6303C111.943 64.6303 109.06 70.5663 106.855 72.3895L107.593 70.5663Z" fill="black"/>
<path d="M114.085 60.4455C111.117 67.857 99.8258 82.6376 84.9434 81.8702C85.6514 76.4387 88.5007 71.6221 92.3803 67.8782C93.3046 69.341 94.7674 71.0158 96.7687 71.3338C95.7177 69.6595 95.0354 67.7804 94.7674 65.8218C100.746 61.1959 108.28 58.936 114.085 60.4455Z" fill="#059177"/>
<path opacity="0.3" d="M114.085 60.4455C111.117 67.857 99.8258 82.6376 84.9434 81.8702C85.6514 76.4387 88.5007 71.6221 92.3803 67.8782C93.3046 69.341 94.7674 71.0158 96.7687 71.3338C95.7177 69.6595 95.0354 67.7804 94.7674 65.8218C100.746 61.1959 108.28 58.936 114.085 60.4455Z" fill="white"/>
<path d="M256.816 49.3748C256.816 49.3748 257.05 46.0464 257.664 45.5291C258.279 45.0118 262.108 43.7441 262.108 43.7441C262.108 43.7441 260.603 48.8745 259.691 49.4681C258.78 50.0617 256.816 49.3748 256.816 49.3748Z" fill="#059177"/>
<path opacity="0.6" d="M262.107 43.7441C262.06 43.901 260.585 48.8872 259.69 49.4681C259.101 49.7303 258.441 49.7856 257.816 49.625C257.481 49.5671 257.151 49.4835 256.828 49.3748C256.828 49.3748 257.066 46.0422 257.676 45.5291C258.287 45.0161 261.747 43.8586 262.077 43.7526L262.107 43.7441Z" fill="white"/>
<path d="M254.9 47.3778C255.748 47.3778 257.724 48.5607 258.373 48.6201C259.022 48.6794 262.236 45.8895 262.927 45.4274C263.618 44.9652 269.677 43.9434 269.677 43.9434C269.677 43.9434 265.657 49.1246 262.927 49.2773C262.927 49.2773 264.945 49.9896 265.534 49.7988C267.404 49.3112 267.765 49.1162 269.677 49.1374L267.48 50.6341L270.766 51.1386C269.256 51.4792 267.698 51.5524 266.162 51.3549C265.004 51.8961 263.795 52.3222 262.554 52.6269C261.696 52.8921 260.781 52.9136 259.912 52.689C259.043 52.4643 258.253 52.0024 257.631 51.3549C256.452 50.1507 252.543 48.8109 252.543 48.8109L253.87 48.2173C253.937 47.9897 254.071 47.7876 254.255 47.6378C254.439 47.4879 254.664 47.3973 254.9 47.3778Z" fill="#059177"/>
<path opacity="0.8" d="M254.9 47.3778C255.748 47.3778 257.724 48.5607 258.373 48.6201C259.022 48.6794 262.236 45.8895 262.927 45.4274C263.618 44.9652 269.677 43.9434 269.677 43.9434C269.677 43.9434 265.657 49.1246 262.927 49.2773C262.927 49.2773 264.945 49.9896 265.534 49.7988C267.404 49.3112 267.765 49.1162 269.677 49.1374L267.48 50.6341L270.766 51.1386C269.256 51.4792 267.698 51.5524 266.162 51.3549C265.004 51.8961 263.795 52.3222 262.554 52.6269C261.696 52.8921 260.781 52.9136 259.912 52.689C259.043 52.4643 258.253 52.0024 257.631 51.3549C256.452 50.1507 252.543 48.8109 252.543 48.8109L253.87 48.2173C253.937 47.9897 254.071 47.7876 254.255 47.6378C254.439 47.4879 254.664 47.3973 254.9 47.3778Z" fill="white"/>
<path d="M253.839 48.2046L254.216 48.548L253.991 49.3748L252.537 48.777L253.839 48.2046Z" fill="#263238"/>
<path d="M255.477 48.5692C255.463 48.6292 255.433 48.6841 255.39 48.7277C255.346 48.7712 255.291 48.8016 255.232 48.8154C255.172 48.8291 255.109 48.8256 255.051 48.8054C254.993 48.7851 254.942 48.7488 254.903 48.7008C254.865 48.6527 254.841 48.5948 254.834 48.5336C254.827 48.4725 254.838 48.4107 254.864 48.3553C254.891 48.2999 254.933 48.2532 254.985 48.2205C255.037 48.1879 255.097 48.1706 255.159 48.1707C255.254 48.1824 255.34 48.2306 255.399 48.3051C255.459 48.3796 255.487 48.4744 255.477 48.5692Z" fill="#263238"/>
<path d="M234.259 67.7382C234.882 67.2125 237.464 70.931 238.685 71.3931C238.267 71.5901 237.811 71.6962 237.349 71.7042C236.886 71.7123 236.427 71.6221 236.002 71.4398C234.657 70.808 233.597 68.2852 234.259 67.7382Z" fill="#059177"/>
<path opacity="0.6" d="M238.685 71.3931C238.267 71.5894 237.812 71.6957 237.349 71.7052C236.887 71.7147 236.428 71.6272 236.002 71.4482C234.657 70.8165 233.597 68.2852 234.259 67.7382C234.407 67.6068 234.662 67.7382 234.988 67.9757C236.031 68.7897 237.757 71.0369 238.685 71.3931Z" fill="white"/>
<path d="M232.225 67.0217C232.857 66.8309 234.434 67.416 234.921 67.3481C235.409 67.2803 238.339 67.0132 238.339 67.0132C239.149 66.8902 239.73 66.8563 240.383 66.7037C241.658 66.0621 243.017 65.5998 244.419 65.3299L241.837 67.2209L244.292 67.0301C243.24 67.5722 242.1 67.9226 240.925 68.0647C240.139 68.6888 239.298 69.2395 238.411 69.7098C237.85 70.0784 237.19 70.2684 236.519 70.2548C235.847 70.2412 235.196 70.0246 234.65 69.6335C233.649 68.9169 230.635 68.5777 230.635 68.5777L231.546 67.8654C231.57 67.6755 231.645 67.4959 231.765 67.3468C231.885 67.1977 232.044 67.0851 232.225 67.0217Z" fill="#059177"/>
<path opacity="0.8" d="M232.225 67.0217C232.857 66.8309 234.434 67.416 234.921 67.3481C235.409 67.2803 238.339 67.0132 238.339 67.0132C239.149 66.8902 239.73 66.8563 240.383 66.7037C241.658 66.0621 243.017 65.5998 244.419 65.3299L241.837 67.2209L244.292 67.0301C243.24 67.5722 242.1 67.9226 240.925 68.0647C240.139 68.6888 239.298 69.2395 238.411 69.7098C237.85 70.0784 237.19 70.2684 236.519 70.2548C235.847 70.2412 235.196 70.0246 234.65 69.6335C233.649 68.9169 230.635 68.5777 230.635 68.5777L231.546 67.8654C231.57 67.6755 231.645 67.4959 231.765 67.3468C231.885 67.1977 232.044 67.0851 232.225 67.0217Z" fill="white"/>
<path d="M231.529 67.8654L231.843 68.0562L231.766 68.7431L230.617 68.5777L231.529 67.8654Z" fill="#263238"/>
<path opacity="0.3" d="M240.827 68.1665C240.224 68.6319 239.591 69.0568 238.932 69.4385C238.775 69.536 238.609 69.6293 238.435 69.7268C237.825 70.0787 237.715 70.2187 237.053 70.2187C236.442 69.8148 235.952 69.2538 235.633 68.5947C235.724 68.3364 235.868 68.1001 236.057 67.9013C236.245 67.7026 236.474 67.5459 236.727 67.4415C237.316 67.1447 239.432 67.7213 240.827 68.1665Z" fill="black"/>
<path d="M235.633 67.3779C236.77 66.5723 243.346 70.083 246.047 70.2441C244.281 70.9938 242.358 71.2995 240.446 71.1345C237.41 70.808 234.417 68.2259 235.633 67.3779Z" fill="#059177"/>
<path d="M232.389 68.2725C232.527 68.2725 232.639 68.132 232.639 67.9587C232.639 67.7854 232.527 67.645 232.389 67.645C232.251 67.645 232.139 67.7854 232.139 67.9587C232.139 68.132 232.251 68.2725 232.389 68.2725Z" fill="#263238"/>
<path opacity="0.8" d="M235.633 67.3779C236.77 66.5723 243.346 70.083 246.047 70.2441C244.281 70.9938 242.358 71.2995 240.446 71.1345C237.41 70.808 234.417 68.2259 235.633 67.3779Z" fill="white"/>
<path d="M153.442 160.213C151.296 156.821 146.412 155.472 142.842 157.312C141.805 154.89 140.097 152.815 137.918 151.332C135.74 149.849 133.182 149.022 130.548 148.946C127.914 148.871 125.314 149.551 123.054 150.907C120.794 152.262 118.97 154.236 117.796 156.596C112.204 156.643 106.772 159.954 105.199 163.55L160.518 163.494C159.628 160.632 156.066 159.072 153.442 160.213Z" fill="#263238"/>
<path d="M116.015 152.029C115.261 151.495 114.403 151.126 113.496 150.944C113.442 150.928 113.385 150.927 113.33 150.939C113.275 150.951 113.224 150.977 113.182 151.014C113.14 151.052 113.108 151.099 113.088 151.152C113.069 151.205 113.064 151.262 113.072 151.317C113.145 152.086 113.391 152.828 113.793 153.488C114.184 153.95 114.673 154.319 115.225 154.568C115.776 154.817 116.376 154.941 116.982 154.93C117.406 153.912 116.867 152.712 116.015 152.029Z" fill="#263238"/>
<path d="M118.856 150.762C118.654 150.194 118.336 149.674 117.923 149.235C117.9 149.208 117.87 149.186 117.836 149.173C117.802 149.16 117.766 149.156 117.73 149.16C117.694 149.165 117.66 149.179 117.631 149.2C117.602 149.221 117.578 149.249 117.563 149.282C117.314 149.72 117.169 150.208 117.139 150.711C117.177 151.102 117.301 151.48 117.502 151.817C117.704 152.154 117.978 152.443 118.305 152.661C118.584 152.442 118.787 152.141 118.886 151.8C118.985 151.459 118.974 151.096 118.856 150.762Z" fill="#263238"/>
<path d="M254.498 159.721C255.167 157.463 255.202 155.065 254.6 152.788C253.65 155.157 252.304 157.346 250.618 159.263C250.281 156.179 249.714 153.125 248.922 150.126C247.696 153.229 247.19 156.571 247.443 159.899C245.578 158.063 243.564 156.385 241.422 154.883C241.579 156.677 242.173 158.406 243.152 159.917C244.132 161.429 245.466 162.677 247.04 163.554H253.018C254.668 163.069 256.117 162.064 257.149 160.688C258.181 159.313 258.741 157.641 258.747 155.922C257.79 157.624 256.296 158.96 254.498 159.721Z" fill="#263238"/>
<path d="M81.8163 159.725C82.4821 157.468 82.5158 155.072 81.9139 152.797C80.9642 155.163 79.6193 157.351 77.9367 159.267C77.5992 156.185 77.0323 153.132 76.2407 150.134C75.0165 153.231 74.5106 156.565 74.761 159.886C72.9047 158.056 70.8993 156.384 68.7656 154.887C68.9225 156.681 69.5166 158.41 70.496 159.921C71.4753 161.433 72.8101 162.682 74.3836 163.558H80.362C82.0124 163.074 83.462 162.069 84.4943 160.694C85.5267 159.318 86.0866 157.646 86.0903 155.926C85.1274 157.632 83.6236 158.969 81.8163 159.725Z" fill="#263238"/>
<path d="M66.0172 161.858C66.3144 160.851 66.3305 159.782 66.0638 158.767C65.6388 159.823 65.0381 160.799 64.2872 161.654C64.1393 160.279 63.8884 158.917 63.5368 157.58C62.9883 158.963 62.7622 160.454 62.8753 161.938C62.0439 161.119 61.1462 160.371 60.1914 159.7C60.2616 160.5 60.5267 161.272 60.9635 161.946C61.4002 162.621 61.9955 163.179 62.6972 163.571H65.3727C66.1046 163.353 66.7471 162.906 67.2053 162.295C67.6634 161.684 67.9128 160.942 67.9167 160.179C67.4866 160.933 66.8186 161.524 66.0172 161.858Z" fill="#263238"/>
</g>
<defs>
<clipPath id="clip0_941_18092">
<rect width="318" height="212" fill="white" transform="translate(0.5)"/>
</clipPath>
</defs>
</svg>
