<svg width="311" height="311" viewBox="0 0 311 311" fill="none" xmlns="http://www.w3.org/2000/svg">
<path d="M284.396 142.619C284.396 142.619 284.135 142.55 283.669 142.457C283.007 142.325 282.328 142.306 281.66 142.401C280.676 142.541 279.749 142.948 278.979 143.576C278.046 144.353 277.391 145.412 277.113 146.593L277.001 147.041L276.827 146.618C276.366 145.494 275.577 144.536 274.563 143.869C273.733 143.325 272.778 143.002 271.788 142.93C270.869 142.882 269.949 142.998 269.07 143.272C269.284 143.137 269.517 143.036 269.761 142.973C270.42 142.766 271.111 142.679 271.801 142.718C272.827 142.782 273.818 143.115 274.675 143.682C275.751 144.366 276.588 145.368 277.069 146.55H276.783V146.518C277.082 145.271 277.789 144.159 278.792 143.359C279.473 142.822 280.268 142.45 281.117 142.273C281.965 142.096 282.843 142.119 283.681 142.339C283.934 142.391 284.175 142.486 284.396 142.619Z" fill="#E0E0E0"/>
<path d="M52.6269 105.983C52.6269 105.983 52.3656 105.914 51.8991 105.821C51.2374 105.689 50.5581 105.67 49.8901 105.765C48.9052 105.902 47.9775 106.309 47.2092 106.94C46.2767 107.717 45.6218 108.776 45.3432 109.957V109.988L45.2313 110.436L45.0571 110.013C44.5969 108.889 43.8077 107.931 42.793 107.264C41.963 106.72 41.0083 106.397 40.0189 106.325C39.0998 106.278 38.1796 106.393 37.3008 106.667C37.4976 106.533 37.7136 106.43 37.9414 106.362C38.6005 106.155 39.2917 106.068 39.9816 106.107C41.0252 106.149 42.0387 106.469 42.9174 107.034C43.9923 107.72 44.8287 108.721 45.3121 109.901H45.026V109.87C45.3251 108.622 46.0322 107.51 47.0351 106.71C47.7169 106.177 48.5146 105.811 49.3639 105.642C50.2131 105.474 51.0901 105.507 51.924 105.74C52.1699 105.782 52.4073 105.864 52.6269 105.983Z" fill="#E0E0E0"/>
<path d="M213.533 93.1382C213.326 93.4064 213.104 93.6619 212.867 93.9032C212.263 94.5972 211.718 95.3399 211.237 96.1238C209.633 98.7047 208.792 101.687 208.812 104.726V104.832H208.513C208.048 101.852 206.663 99.0919 204.551 96.9386C203.661 96.0676 202.69 95.2824 201.652 94.5937C201.652 94.5937 201.739 94.5937 201.895 94.6994C202.05 94.8051 202.268 94.8922 202.517 95.0726C203.295 95.5666 204.019 96.1421 204.675 96.7893C206.874 98.9406 208.315 101.748 208.78 104.788H208.482V104.683C208.463 101.593 209.349 98.5655 211.032 95.9745C211.533 95.194 212.111 94.4648 212.755 93.7975C212.979 93.5549 213.178 93.387 213.302 93.2688C213.372 93.2142 213.45 93.1702 213.533 93.1382Z" fill="#E0E0E0"/>
<path d="M235.209 242.188C225.412 244.508 217.936 254.274 218.247 264.35C211.971 257.433 200.495 256.021 192.745 261.24C184.995 266.459 181.903 277.58 185.903 286.02C176.629 278.78 161.545 280.789 154.486 290.2C153.678 287.224 152.18 284.48 150.114 282.191C148.047 279.902 145.469 278.132 142.59 277.027C139.711 275.921 136.612 275.509 133.544 275.826C130.477 276.143 127.527 277.178 124.934 278.849C123.261 268.356 114.79 259.275 104.408 256.874C94.0273 254.473 82.4581 258.914 76.3438 267.603C73.7482 265.064 70.6025 263.157 67.1508 262.03C63.699 260.904 60.0341 260.587 56.4404 261.106C52.8466 261.624 49.4206 262.964 46.4282 265.02C43.4358 267.077 40.9575 269.795 39.1855 272.965L45.474 274.992C51.2171 276.109 56.5817 278.668 61.0626 282.43C65.5436 286.192 68.9937 291.032 71.0879 296.495C73.9894 293.322 77.6129 290.896 81.6515 289.421C85.69 287.947 90.0245 287.467 94.2876 288.024C98.5508 288.581 102.617 290.157 106.141 292.619C109.666 295.081 112.545 298.356 114.535 302.168H162.957C175.012 302.068 184.211 302.715 195.357 302.168C199.761 286.661 220.032 272.878 235.265 278.14C236.879 272.27 240.039 266.94 244.415 262.708C248.791 258.476 254.224 255.497 260.145 254.081C255.828 245.112 244.9 239.887 235.209 242.188Z" fill="#EBEBEB"/>
<path d="M260.562 253.969L260.17 254.056C260.22 254.155 260.276 254.255 260.319 254.354L260.562 253.969Z" fill="#EBEBEB"/>
<path d="M135.408 225.208C135.781 222.514 131.974 220.294 129.119 220.064C127.751 219.958 126.339 220.163 125.045 219.715C122.246 218.739 121.133 215.125 118.402 213.974C116.362 213.11 114.011 213.881 112.033 214.876C110.055 215.871 108.102 217.122 105.888 217.265C103.966 217.389 101.876 216.674 100.196 217.613C98.9522 218.316 98.2867 219.759 97.1298 220.611C95.9729 221.463 94.5236 221.619 93.1241 221.699C91.7246 221.78 90.2691 221.787 88.994 222.371C87.7189 222.956 86.6615 224.306 86.9228 225.686L135.408 225.208Z" fill="#EBEBEB"/>
<path d="M271.235 73.6137C271.677 70.4042 267.155 67.7731 263.771 67.4995C262.148 67.3688 260.462 67.6114 258.932 67.0765C255.604 65.9196 254.273 61.6216 251.026 60.2345C248.6 59.2082 245.808 60.1225 243.457 61.3043C241.105 62.4861 238.773 63.9789 236.148 64.1469C233.859 64.2962 231.377 63.444 229.374 64.5636C227.888 65.3971 227.104 67.1138 225.73 68.1277C224.355 69.1415 222.62 69.3281 220.965 69.4152C219.311 69.5023 217.569 69.5272 216.051 70.2238C214.534 70.9205 213.277 72.519 213.594 74.1611L271.235 73.6137Z" fill="#EBEBEB"/>
<path d="M94.1271 56.8756C94.5936 53.4982 89.8291 50.7178 86.2464 50.4255C84.5359 50.2886 82.757 50.5499 81.1398 49.9901C77.6317 48.7461 76.2322 44.2366 72.8112 42.7935C70.2548 41.7113 67.3065 42.6754 64.8309 43.9194C62.3554 45.1634 59.8985 46.737 57.1243 46.9174C54.7172 47.0729 52.0986 46.1772 49.99 47.3528C48.4163 48.2298 47.5953 50.046 46.146 51.0848C44.6968 52.1235 42.8805 52.3288 41.1265 52.447C39.3725 52.5652 37.5438 52.5589 35.9452 53.2929C34.3467 54.0269 33.0218 55.7187 33.3515 57.4479L94.1271 56.8756Z" fill="#EBEBEB"/>
<path d="M282.674 185.48C283.296 180.927 276.877 177.183 272.05 176.772C269.743 176.586 267.354 176.94 265.171 176.15C260.444 174.508 258.559 168.4 253.944 166.453C250.498 164.998 246.529 166.291 243.183 167.977C239.837 169.663 236.54 171.778 232.802 172.014C229.555 172.225 226.028 171.019 223.186 172.605C221.071 173.787 219.958 176.231 218.005 177.668C216.051 179.105 213.607 179.372 211.237 179.534C208.867 179.696 206.417 179.689 204.258 180.678C202.1 181.667 200.315 183.944 200.763 186.276L282.674 185.48Z" fill="#F5F5F5"/>
<path d="M101.69 153.124C102.262 149 96.4403 145.61 92.0738 145.262C89.9839 145.094 87.8193 145.411 85.8538 144.721C81.5745 143.228 79.864 137.705 75.6903 135.938C72.5803 134.626 68.9727 135.795 65.9498 137.319C62.9269 138.843 59.9289 140.759 56.5514 140.976C53.6093 141.163 50.4185 140.075 47.8434 141.511C45.9276 142.581 44.92 144.789 43.1535 146.096C41.387 147.402 39.1727 147.638 37.0268 147.756C34.8809 147.874 32.6728 147.893 30.7073 148.789C28.7418 149.684 27.137 151.749 27.5413 153.858L101.69 153.124Z" fill="#EBEBEB"/>
<path d="M294.205 265.762C294.205 265.762 293.894 265.426 293.316 264.761C293.023 264.431 292.694 264.002 292.202 263.554L291.456 262.814C291.176 262.523 290.879 262.249 290.567 261.993L289.54 261.11C289.186 260.792 288.763 260.488 288.352 260.189C287.525 259.536 286.542 258.945 285.503 258.267C283.053 256.816 280.436 255.665 277.71 254.84C274.325 253.8 270.794 253.311 267.254 253.391L265.792 253.434L264.306 253.583L263.553 253.658L262.8 253.789L261.277 254.062C259.168 254.535 257.11 255.21 255.131 256.078C253.028 257.021 251.023 258.171 249.148 259.511C247.169 260.95 245.34 262.584 243.686 264.387C240.126 268.308 237.547 273.017 236.16 278.127L236.123 278.271L235.986 278.221C232.227 277 228.218 276.765 224.342 277.537C220.255 278.331 216.342 279.852 212.792 282.027C209.05 284.276 205.691 287.107 202.84 290.412C199.838 293.819 197.596 297.826 196.265 302.168L196.234 302.274H196.122C189.989 302.585 183.682 302.516 177.195 302.392C173.966 302.336 170.701 302.28 167.404 302.267H157.452H115.299H115.206L115.163 302.18C113.015 298.138 109.87 294.712 106.025 292.228C102.361 289.817 98.1544 288.357 93.7844 287.98C89.739 287.684 85.6786 288.297 81.9016 289.776C78.1246 291.255 74.727 293.562 71.9584 296.526L71.8092 296.682L71.7345 296.483C69.9264 291.775 67.0943 287.528 63.4433 284.049C61.7533 282.446 59.9166 281.005 57.9572 279.745C56.1047 278.58 54.1472 277.591 52.1104 276.79C50.1943 276.044 48.2144 275.474 46.1952 275.086L44.7335 274.868L44.0182 274.769L43.2967 274.713L41.8847 274.601H40.4915C37.1203 274.576 33.7649 275.063 30.5395 276.044C27.9395 276.813 25.4354 277.875 23.0755 279.21C22.074 279.832 21.1286 280.373 20.3324 280.976C19.5877 281.489 18.8694 282.039 18.1803 282.625C17.5583 283.116 17.0483 283.638 16.5818 284.049C16.2204 284.384 15.8758 284.737 15.5493 285.106C14.9708 285.728 14.666 286.021 14.666 286.021C14.666 286.021 14.9521 285.697 15.5182 285.081C15.8586 284.691 16.2199 284.319 16.6004 283.968C17.0607 283.551 17.5459 283.023 18.1928 282.525C18.8794 281.933 19.5957 281.377 20.3387 280.858C21.1348 280.236 22.074 279.695 23.0755 279.073C25.4332 277.721 27.9373 276.642 30.5395 275.857C33.7636 274.867 37.1186 274.368 40.4915 274.377H41.8847L43.3091 274.489L44.0306 274.545L44.7522 274.644L46.2201 274.862C48.2534 275.245 50.2478 275.811 52.1788 276.554C54.237 277.363 56.2152 278.363 58.0878 279.539C60.0629 280.803 61.9143 282.251 63.6174 283.862C67.2945 287.377 70.1455 291.664 71.9646 296.414L71.7407 296.371C74.5374 293.374 77.9692 291.041 81.7846 289.543C85.5999 288.045 89.7022 287.419 93.7906 287.712C98.2108 288.089 102.467 289.562 106.175 291.998C110.065 294.51 113.249 297.974 115.424 302.062L115.281 301.975H157.427H167.379C170.682 301.975 173.948 302.043 177.176 302.106C183.639 302.23 189.958 302.298 196.079 301.987L195.935 302.106C197.283 297.722 199.549 293.676 202.585 290.238C205.462 286.896 208.855 284.036 212.636 281.766C216.217 279.573 220.163 278.044 224.286 277.25C228.209 276.471 232.266 276.715 236.067 277.96L235.893 278.053C237.298 272.903 239.905 268.16 243.5 264.213C245.168 262.403 247.012 260.763 249.005 259.318C250.896 257.969 252.917 256.813 255.038 255.866C257.043 254.999 259.125 254.324 261.258 253.851L262.794 253.583L263.553 253.453L264.312 253.378L265.805 253.235L267.273 253.191C270.832 253.121 274.379 253.625 277.778 254.684C280.512 255.525 283.134 256.69 285.591 258.155C286.629 258.839 287.612 259.443 288.433 260.102C288.85 260.432 289.267 260.724 289.621 261.035L290.647 261.931C290.959 262.187 291.254 262.464 291.531 262.758L292.271 263.504C292.662 263.897 293.03 264.312 293.372 264.748C293.913 265.408 294.205 265.762 294.205 265.762Z" fill="#263238"/>
<path d="M154.256 31.6163L157.503 38.2095C157.619 38.4394 157.789 38.6379 157.998 38.7884C158.207 38.9389 158.449 39.0369 158.704 39.0741L165.975 40.1315C166.268 40.1756 166.542 40.3005 166.768 40.4921C166.994 40.6837 167.161 40.9344 167.252 41.2161C167.344 41.4978 167.354 41.7993 167.284 42.0867C167.213 42.3742 167.063 42.6362 166.852 42.8434L161.596 47.9749C161.41 48.1536 161.271 48.3752 161.19 48.6203C161.11 48.8655 161.091 49.1265 161.136 49.3806L162.342 56.6021C162.392 56.8946 162.36 57.1953 162.248 57.4702C162.136 57.7451 161.95 57.9834 161.71 58.158C161.47 58.3326 161.186 58.4367 160.89 58.4586C160.594 58.4804 160.298 58.419 160.035 58.2815L153.529 54.8605C153.3 54.7411 153.046 54.6788 152.788 54.6788C152.531 54.6788 152.277 54.7411 152.048 54.8605L145.548 58.3001C145.285 58.4377 144.989 58.499 144.693 58.4772C144.397 58.4554 144.113 58.3513 143.873 58.1767C143.633 58.002 143.447 57.7638 143.335 57.4889C143.223 57.2139 143.191 56.9132 143.241 56.6207L144.485 49.3806C144.527 49.1266 144.508 48.8659 144.428 48.6211C144.348 48.3762 144.209 48.1545 144.024 47.9749L138.762 42.8434C138.551 42.6358 138.401 42.3733 138.331 42.0854C138.26 41.7974 138.272 41.4956 138.363 41.2137C138.455 40.9319 138.624 40.6813 138.85 40.4901C139.077 40.2989 139.352 40.1747 139.646 40.1315L146.917 39.0741C147.171 39.0374 147.412 38.9396 147.62 38.789C147.828 38.6384 147.997 38.4395 148.111 38.2095L151.364 31.6163C151.491 31.3399 151.695 31.1058 151.952 30.9417C152.208 30.7776 152.506 30.6904 152.81 30.6904C153.114 30.6904 153.412 30.7776 153.669 30.9417C153.925 31.1058 154.129 31.3399 154.256 31.6163Z" fill="#1B70BE"/>
<path d="M141.816 35.9704C141.76 36.0326 137.63 32.2011 132.604 27.4117C127.578 22.6223 123.548 18.7037 123.61 18.6228C123.672 18.542 127.821 22.3922 132.853 27.1816C137.885 31.971 141.903 35.9082 141.816 35.9704Z" fill="#1B70BE"/>
<path d="M133.219 40.0257C133.219 40.1127 129.668 39.9697 125.308 39.7084C120.947 39.4472 117.408 39.1549 117.408 39.0864C117.408 39.018 120.96 39.1362 125.326 39.4037C129.693 39.6711 133.219 39.9386 133.219 40.0257Z" fill="#1B70BE"/>
<path d="M146.668 28.2203C145.812 26.6881 145.049 25.1053 144.385 23.4806C143.623 21.8987 142.956 20.2723 142.389 18.6104C143.252 20.14 144.016 21.7231 144.678 23.35C145.441 24.9307 146.106 26.5572 146.668 28.2203Z" fill="#1B70BE"/>
<path d="M152.173 7.09082C152.261 7.09082 152.335 11.4448 152.335 16.7691C152.335 22.0935 152.261 26.4537 152.173 26.4537C152.086 26.4537 152.012 22.0997 152.012 16.7691C152.012 11.4386 152.086 7.09082 152.173 7.09082Z" fill="#1B70BE"/>
<path d="M163.169 18.7905C162.583 20.397 161.898 21.9654 161.117 23.4866C160.428 25.0515 159.643 26.5721 158.766 28.0397C159.352 26.4325 160.04 24.864 160.824 23.3436C161.51 21.7782 162.293 20.2575 163.169 18.7905Z" fill="#1B70BE"/>
<path d="M180.94 21.9568C180.989 22.0315 176.243 25.4276 170.366 29.5452C164.488 33.6629 159.636 36.947 159.586 36.8724C159.537 36.7977 164.276 33.4016 170.16 29.2778C176.044 25.1539 180.884 21.8822 180.94 21.9568Z" fill="#1B70BE"/>
<path d="M181.406 35.7153C179.701 36.5542 177.95 37.2976 176.162 37.9421C174.413 38.6686 172.623 39.2916 170.801 39.8081C172.501 38.9826 174.245 38.2516 176.026 37.6187C177.78 36.8788 179.577 36.2433 181.406 35.7153Z" fill="#1B70BE"/>
<path d="M140.043 48.97C140.043 49.0508 133.904 51.2527 126.266 53.8776C118.628 56.5024 112.408 58.5674 112.383 58.4679C112.358 58.3684 118.522 56.1852 126.16 53.5541C133.798 50.923 140.018 48.8829 140.043 48.97Z" fill="#1B70BE"/>
<path d="M188.665 55.7498C188.665 55.8369 183.216 54.3877 176.542 52.5154C169.868 50.6432 164.475 49.0571 164.5 48.97C164.525 48.883 169.955 50.3322 176.629 52.2044C183.303 54.0767 188.69 55.6628 188.665 55.7498Z" fill="#1B70BE"/>
<path d="M134.975 66.9894C136.128 65.7779 137.356 64.6395 138.651 63.5809C139.877 62.4381 141.177 61.3784 142.544 60.4087C141.391 61.6242 140.161 62.7648 138.862 63.8235C137.635 64.9605 136.337 66.018 134.975 66.9894Z" fill="#1B70BE"/>
<path d="M152.69 82.2223C152.603 82.2223 152.559 76.9042 152.59 70.3546C152.621 63.8049 152.727 58.4806 152.814 58.4868C152.901 58.493 152.951 63.7987 152.914 70.3546C152.876 76.9105 152.777 82.2223 152.69 82.2223Z" fill="#1B70BE"/>
<path d="M171.05 68.3206C169.707 67.2744 168.431 66.1443 167.231 64.9369C165.938 63.8109 164.721 62.6016 163.586 61.3169C164.929 62.3631 166.205 63.4932 167.405 64.7006C168.697 65.8266 169.915 67.0359 171.05 68.3206Z" fill="#1B70BE"/>
<path d="M184.354 45.9035L184.41 46.9733C184.412 47.0113 184.423 47.0481 184.443 47.0807C184.462 47.1133 184.49 47.1405 184.522 47.1599L185.43 47.7197C185.469 47.7416 185.5 47.774 185.52 47.813C185.54 47.8521 185.549 47.8962 185.545 47.9401C185.541 47.984 185.525 48.0258 185.498 48.0606C185.471 48.0954 185.434 48.1218 185.393 48.1365L184.392 48.5159C184.357 48.5295 184.327 48.5513 184.303 48.5796C184.279 48.6078 184.262 48.6415 184.255 48.6776L184 49.7226C183.989 49.7644 183.967 49.8025 183.937 49.8325C183.906 49.8625 183.867 49.8833 183.825 49.8923C183.783 49.9014 183.739 49.8985 183.698 49.8839C183.658 49.8692 183.622 49.8435 183.595 49.8097L182.924 48.9824C182.9 48.9526 182.87 48.9291 182.835 48.9139C182.8 48.8987 182.762 48.8923 182.725 48.8953L181.655 48.9762C181.612 48.9796 181.569 48.971 181.531 48.9513C181.493 48.9316 181.461 48.9016 181.439 48.8647C181.417 48.8278 181.405 48.7855 181.406 48.7425C181.407 48.6996 181.42 48.6577 181.443 48.6216L182.028 47.7197C182.046 47.6874 182.055 47.651 182.055 47.614C182.055 47.577 182.046 47.5406 182.028 47.5083L181.617 46.5131C181.603 46.4732 181.6 46.4303 181.607 46.3887C181.615 46.3471 181.634 46.3084 181.662 46.2766C181.69 46.2448 181.726 46.2212 181.766 46.208C181.807 46.1949 181.85 46.1929 181.891 46.2021L182.93 46.482C182.967 46.4907 183.005 46.4907 183.041 46.4821C183.078 46.4734 183.112 46.4564 183.141 46.4322L183.956 45.7418C183.988 45.7078 184.029 45.6843 184.075 45.6743C184.12 45.6643 184.168 45.6684 184.211 45.6859C184.254 45.7034 184.291 45.7336 184.316 45.7724C184.342 45.8113 184.355 45.857 184.354 45.9035Z" fill="#1B70BE"/>
<path d="M191.223 34.6269L191.714 35.1369C191.73 35.1546 191.751 35.1678 191.774 35.1754C191.797 35.183 191.821 35.1848 191.845 35.1804L192.541 35.0685C192.57 35.0643 192.598 35.0679 192.625 35.079C192.651 35.09 192.674 35.1081 192.69 35.1312C192.707 35.1544 192.717 35.1816 192.719 35.21C192.722 35.2385 192.716 35.267 192.703 35.2924L192.367 35.9144C192.355 35.9363 192.349 35.9609 192.349 35.9859C192.349 36.0109 192.355 36.0355 192.367 36.0575L192.691 36.6795C192.702 36.7052 192.707 36.7336 192.704 36.7617C192.7 36.7898 192.689 36.8165 192.672 36.8389C192.655 36.8613 192.632 36.8786 192.606 36.8888C192.579 36.8991 192.551 36.902 192.523 36.8972L191.832 36.7728C191.808 36.7677 191.783 36.7684 191.759 36.7749C191.736 36.7814 191.714 36.7935 191.695 36.8101L191.198 37.3139C191.177 37.3336 191.152 37.3472 191.124 37.3535C191.097 37.3597 191.068 37.3583 191.041 37.3493C191.014 37.3404 190.99 37.3242 190.972 37.3026C190.953 37.281 190.941 37.2548 190.937 37.2268L190.843 36.524C190.84 36.5 190.831 36.4772 190.817 36.4576C190.803 36.438 190.784 36.4223 190.762 36.412L190.14 36.0886C190.114 36.0769 190.091 36.0578 190.075 36.0335C190.059 36.0092 190.051 35.9808 190.051 35.9517C190.051 35.9227 190.059 35.8942 190.075 35.8699C190.091 35.8456 190.114 35.8265 190.14 35.8149L190.762 35.5101C190.786 35.5012 190.806 35.486 190.822 35.4663C190.837 35.4465 190.847 35.423 190.849 35.3981L190.955 34.7077C190.96 34.679 190.973 34.6521 190.992 34.6302C191.011 34.6083 191.036 34.5922 191.064 34.5838C191.092 34.5754 191.121 34.5749 191.149 34.5826C191.177 34.5902 191.203 34.6055 191.223 34.6269Z" fill="#1B70BE"/>
<path d="M112.34 26.1615L112.825 26.6716C112.84 26.6903 112.861 26.7043 112.884 26.7119C112.907 26.7196 112.932 26.7207 112.955 26.7151L113.652 26.6032C113.68 26.5989 113.709 26.6026 113.735 26.6136C113.762 26.6247 113.784 26.6428 113.801 26.6659C113.818 26.689 113.828 26.7163 113.83 26.7447C113.832 26.7731 113.827 26.8016 113.814 26.8271L113.478 27.4491C113.466 27.471 113.46 27.4956 113.46 27.5206C113.46 27.5456 113.466 27.5702 113.478 27.5921L113.801 28.2141C113.813 28.2399 113.818 28.2683 113.814 28.2964C113.811 28.3245 113.8 28.3512 113.783 28.3736C113.766 28.396 113.743 28.4132 113.716 28.4235C113.69 28.4338 113.661 28.4366 113.633 28.4318L112.943 28.3074C112.918 28.3037 112.893 28.3056 112.87 28.3132C112.846 28.3207 112.824 28.3337 112.806 28.351L112.309 28.8486C112.288 28.8682 112.263 28.8819 112.235 28.8882C112.207 28.8944 112.179 28.893 112.152 28.884C112.125 28.875 112.101 28.8589 112.082 28.8373C112.064 28.8157 112.052 28.7895 112.047 28.7615L111.96 28.0711C111.957 28.0465 111.948 28.023 111.934 28.0025C111.92 27.982 111.901 27.9651 111.879 27.9529L111.257 27.6357C111.233 27.6223 111.212 27.6026 111.198 27.5785C111.183 27.5544 111.176 27.5269 111.176 27.4988C111.176 27.4708 111.183 27.4432 111.198 27.4192C111.212 27.3951 111.233 27.3753 111.257 27.362L111.879 27.0572C111.903 27.0462 111.923 27.0297 111.938 27.009C111.953 26.9884 111.963 26.9644 111.967 26.939L112.072 26.2424C112.077 26.2136 112.09 26.1868 112.109 26.1649C112.128 26.143 112.153 26.1269 112.181 26.1185C112.209 26.11 112.238 26.1096 112.266 26.1172C112.294 26.1248 112.32 26.1402 112.34 26.1615Z" fill="#1B70BE"/>
<path d="M50.4498 176.542C50.4498 176.542 50.1886 176.474 49.7159 176.381C49.0566 176.246 48.3789 176.227 47.713 176.325C46.7263 176.462 45.7966 176.869 45.026 177.5C44.097 178.277 43.4427 179.333 43.16 180.511V180.548L43.0418 180.99L42.8739 180.567C42.4113 179.444 41.6199 178.488 40.6036 177.824C39.7729 177.281 38.8189 176.955 37.8295 176.878C36.9099 176.832 35.9894 176.95 35.1113 177.227C35.3247 177.092 35.5576 176.991 35.8017 176.928C36.4611 176.722 37.1518 176.633 37.8419 176.667C38.8754 176.718 39.8781 177.035 40.7529 177.587C41.8284 178.274 42.6666 179.275 43.1538 180.455H42.8677V180.417C43.1644 179.178 43.8619 178.072 44.8518 177.27C45.5354 176.733 46.3348 176.362 47.1866 176.187C48.0385 176.012 48.9194 176.038 49.7594 176.262C50.0034 176.317 50.2366 176.412 50.4498 176.542Z" fill="#263238"/>
<path d="M80.5548 174.16C80.2644 174.542 79.9508 174.905 79.6156 175.249C78.7593 176.23 77.9854 177.281 77.3018 178.39C75.0324 182.047 73.8422 186.271 73.8683 190.575V190.73L73.4392 190.768C72.7884 186.542 70.8308 182.627 67.8412 179.572C66.5819 178.338 65.2096 177.226 63.7422 176.25C63.8622 176.282 63.9758 176.335 64.0781 176.406C64.395 176.564 64.7023 176.74 64.9986 176.934C66.1019 177.629 67.126 178.443 68.0526 179.36C71.1726 182.408 73.2161 186.388 73.8746 190.699L73.4516 190.73V190.575C73.4195 186.193 74.6739 181.898 77.0592 178.222C77.7693 177.107 78.5881 176.065 79.5037 175.112C79.8209 174.77 80.1257 174.54 80.2749 174.372C80.4242 174.204 80.5486 174.16 80.5548 174.16Z" fill="#263238"/>
<path d="M234.419 137.188C234.419 137.22 233.896 137.008 232.932 136.797C231.574 136.5 230.174 136.445 228.796 136.635C226.743 136.904 224.806 137.737 223.198 139.042C221.24 140.64 219.859 142.836 219.267 145.293V145.362L219.149 145.809L218.981 145.386C218.024 143.054 216.38 141.069 214.266 139.695C212.545 138.572 210.563 137.91 208.513 137.773C207.131 137.676 205.742 137.804 204.401 138.153C203.449 138.401 202.952 138.619 202.939 138.594C203.05 138.523 203.169 138.464 203.294 138.42C203.644 138.271 204.004 138.144 204.37 138.041C206.049 137.547 207.814 137.418 209.546 137.662C211.279 137.907 212.939 138.52 214.415 139.459C216.586 140.855 218.277 142.882 219.261 145.268H218.975V145.2C219.581 142.678 221.005 140.427 223.024 138.799C224.405 137.7 226.023 136.934 227.749 136.563C229.475 136.192 231.264 136.225 232.976 136.66C233.346 136.748 233.71 136.862 234.064 137.002C234.186 137.057 234.305 137.119 234.419 137.188Z" fill="#263238"/>
<path d="M275.789 114.485C275.789 114.485 275.496 114.404 274.968 114.299C274.223 114.143 273.456 114.12 272.703 114.23C271.59 114.382 270.541 114.841 269.674 115.555C268.607 116.423 267.855 117.619 267.535 118.958V118.995L267.423 119.443L267.249 119.02C266.731 117.746 265.837 116.662 264.686 115.91C263.756 115.299 262.685 114.935 261.576 114.852C260.821 114.794 260.061 114.855 259.324 115.033C258.802 115.163 258.522 115.275 258.516 115.25C258.574 115.206 258.639 115.17 258.708 115.145C258.898 115.056 259.093 114.981 259.293 114.921C260.221 114.64 261.199 114.563 262.159 114.694C263.12 114.825 264.041 115.161 264.86 115.68C266.07 116.449 267.011 117.574 267.553 118.902H267.267V118.864C267.603 117.463 268.395 116.214 269.519 115.313C270.284 114.707 271.18 114.287 272.135 114.087C273.09 113.886 274.079 113.909 275.024 114.156C275.236 114.208 275.444 114.277 275.646 114.361C275.699 114.395 275.748 114.437 275.789 114.485Z" fill="#263238"/>
<path d="M248.737 105.193C248.737 105.193 248.457 105.516 247.941 106.095C247.225 106.916 246.576 107.794 246 108.72C244.097 111.78 243.099 115.317 243.12 118.92V119.051H242.815C242.522 117.113 241.891 115.241 240.949 113.521C240.187 112.119 239.232 110.829 238.113 109.69C237.353 108.914 236.52 108.214 235.625 107.6C235.288 107.391 234.962 107.165 234.648 106.922C234.744 106.957 234.835 107 234.922 107.053C235.096 107.158 235.37 107.289 235.687 107.5C236.609 108.084 237.464 108.766 238.237 109.534C240.832 112.088 242.533 115.41 243.089 119.007H242.79V118.877C242.769 115.217 243.813 111.629 245.795 108.552C246.39 107.628 247.073 106.763 247.835 105.97C248.096 105.678 248.326 105.485 248.457 105.348C248.544 105.286 248.638 105.234 248.737 105.193Z" fill="#263238"/>
<path d="M127.081 122.739H179.136C181.139 122.739 181.139 119.629 179.136 119.629H127.081C125.078 119.629 125.072 122.739 127.081 122.739Z" fill="#455A64"/>
<path d="M128.878 63.2886H125.146V302.124H128.878V63.2886Z" fill="#455A64"/>
<path d="M128.685 302.124C128.598 302.124 128.523 248.688 128.523 182.787C128.523 116.886 128.598 63.4438 128.685 63.4438C128.772 63.4438 128.847 116.867 128.847 182.787C128.847 248.707 128.754 302.124 128.685 302.124Z" fill="#263238"/>
<path d="M127.081 98.5748H179.136C181.139 98.5748 181.139 95.4648 179.136 95.4648H127.081C125.078 95.4648 125.072 98.5748 127.081 98.5748Z" fill="#455A64"/>
<path d="M180.964 63.7739H177.232V302.118H180.964V63.7739Z" fill="#455A64"/>
<path d="M177.326 272.094C177.232 272.094 177.164 225.55 177.164 168.145C177.164 110.741 177.232 64.1841 177.326 64.1841C177.419 64.1841 177.488 110.722 177.488 168.145C177.488 225.568 177.413 272.094 177.326 272.094Z" fill="#263238"/>
<path d="M127.013 281.928H179.1C181.096 281.928 181.103 278.818 179.1 278.818H127.013C125.017 278.818 125.011 281.928 127.013 281.928Z" fill="#455A64"/>
<path d="M128.133 233.716H177.066C179.069 233.716 179.069 230.606 177.066 230.606H128.133C126.131 230.606 126.124 233.716 128.133 233.716Z" fill="#455A64"/>
<path d="M127.013 200.023H179.1C181.096 200.023 181.103 196.913 179.1 196.913H127.013C125.017 196.913 125.011 200.023 127.013 200.023Z" fill="#455A64"/>
<path d="M127.013 173.445H179.1C181.096 173.445 181.103 170.335 179.1 170.335H127.013C125.017 170.335 125.011 173.445 127.013 173.445Z" fill="#455A64"/>
<path d="M127.013 147.495H179.1C181.096 147.495 181.103 144.385 179.1 144.385H127.013C125.017 144.385 125.011 147.495 127.013 147.495Z" fill="#455A64"/>
<path d="M127.51 258.559H177.015C179.018 258.559 179.018 255.449 177.015 255.449H127.51C125.507 255.449 125.507 258.559 127.51 258.559Z" fill="#455A64"/>
<path d="M169.887 101.822L166.727 94.7867C166.727 94.7867 166.895 91.0547 166.36 90.7064C165.626 90.271 165.446 90.6317 165.241 91.8882L164.948 93.7542C164.948 93.7542 163.742 91.1231 162.616 91.0174C161.851 90.9427 161.633 92.2614 161.633 92.2614C161.633 92.2614 160.358 91.0734 159.456 91.3595C158.554 91.6456 158.834 92.8772 158.834 92.8772C158.706 92.7902 158.56 92.7335 158.406 92.7115C158.253 92.6894 158.097 92.7026 157.949 92.7499C157.802 92.7973 157.667 92.8776 157.555 92.9848C157.443 93.092 157.358 93.2232 157.304 93.3685C156.775 94.6561 159.095 96.6092 159.45 97.4737C160.19 99.2775 158.616 99.3397 158.616 99.3397C158.616 99.3397 154.58 98.8235 154.785 99.8622C154.99 100.901 156.34 100.895 157.379 101C158.237 101.088 161.484 101.896 162.535 102.157C162.756 102.215 162.966 102.307 163.157 102.431L165.57 104.919L169.887 101.822Z" fill="#FFBE9D"/>
<path d="M168.251 263.392L168.114 281.455L158.367 281.573L158.467 263.479L168.251 263.392Z" fill="#1B70BE"/>
<path d="M163.307 280.833C163.219 280.833 163.238 276.877 163.307 272C163.375 267.124 163.555 263.174 163.636 263.174C163.717 263.174 163.705 267.13 163.605 272.007C163.506 276.883 163.387 280.833 163.307 280.833Z" fill="#263238"/>
<path d="M158.398 275.795C158.459 275.65 158.545 275.517 158.653 275.403C158.914 275.067 159.207 274.759 159.53 274.483C160.006 274.061 160.54 273.711 161.117 273.444C162.121 272.97 163.252 272.83 164.342 273.044C165.432 273.259 166.425 273.818 167.175 274.638C167.46 274.959 167.697 275.319 167.878 275.708C167.954 275.845 168.005 275.995 168.027 276.15C167.729 275.667 167.392 275.209 167.019 274.781C166.059 273.809 164.753 273.255 163.387 273.239C162.018 273.265 160.701 273.762 159.655 274.644C158.84 275.298 158.442 275.826 158.398 275.795Z" fill="#263238"/>
<path opacity="0.3" d="M158.374 270.017L158.361 272.007H168.251V270.017H158.374Z" fill="black"/>
<path d="M158.367 281.573L158.38 279.688L168.126 279.695L168.114 281.455L158.367 281.573Z" fill="#E0E0E0"/>
<path d="M147.805 216.524L147.675 233.853L138.326 233.972L138.419 216.605L147.805 216.524Z" fill="#1B70BE"/>
<path d="M143.06 233.25C142.986 233.25 142.998 229.456 143.091 224.778C143.185 220.101 143.328 216.307 143.402 216.307C143.477 216.307 143.471 220.101 143.371 224.785C143.272 229.468 143.141 233.25 143.06 233.25Z" fill="#263238"/>
<path d="M138.357 228.417C138.357 228.417 138.426 228.274 138.6 228.044C138.852 227.722 139.135 227.426 139.446 227.161C139.901 226.757 140.412 226.422 140.964 226.165C141.928 225.708 143.014 225.573 144.062 225.78C145.109 225.987 146.062 226.526 146.779 227.316C147.051 227.622 147.277 227.966 147.451 228.336C147.527 228.468 147.576 228.614 147.594 228.765C147.314 228.299 146.991 227.86 146.63 227.453C145.708 226.519 144.453 225.986 143.141 225.973C141.831 225.996 140.57 226.471 139.57 227.316C138.78 227.944 138.395 228.454 138.357 228.417Z" fill="#263238"/>
<path opacity="0.3" d="M138.327 222.875L138.32 224.785H147.806V222.875H138.327Z" fill="black"/>
<path d="M138.326 233.972L138.332 232.162H147.687L147.675 233.853L138.326 233.972Z" fill="#E0E0E0"/>
<path d="M149.591 100.341L149.84 100.279C150.235 99.6148 150.789 99.0594 151.453 98.663C152.116 98.2666 152.868 98.0418 153.64 98.0088C155.198 97.9688 156.712 98.5326 157.864 99.5825C158.666 100.298 159.3 101.181 160.103 101.884C160.482 102.265 160.942 102.555 161.45 102.732C161.958 102.909 162.499 102.968 163.032 102.904C163.157 103.296 162.41 103.526 162.473 103.93C162.497 104.026 162.55 104.113 162.624 104.178C162.699 104.244 162.791 104.285 162.889 104.297C163.175 104.319 163.462 104.319 163.748 104.297C163.891 104.286 164.034 104.32 164.157 104.395C164.28 104.47 164.376 104.581 164.432 104.714C164.457 104.854 164.444 104.998 164.395 105.131C164.123 106.369 163.539 107.517 162.697 108.465C162.272 108.933 161.74 109.29 161.146 109.507C160.552 109.724 159.914 109.793 159.288 109.709C158.315 109.438 157.423 108.934 156.688 108.241L152.21 104.652C151.499 104.129 150.859 103.517 150.306 102.829C149.749 102.127 149.492 101.233 149.591 100.341Z" fill="#263238"/>
<path d="M150.525 100.59C149.923 100.084 149.209 99.7299 148.441 99.5576C148.058 99.4755 147.663 99.4712 147.278 99.5449C146.894 99.6187 146.528 99.7689 146.202 99.9868C145.656 100.471 145.193 101.043 144.834 101.679C144.653 101.996 144.409 102.273 144.119 102.494C143.828 102.715 143.496 102.876 143.142 102.966C143.015 102.966 142.891 103.006 142.787 103.078C142.619 103.234 142.738 103.538 142.943 103.632C143.159 103.703 143.392 103.703 143.608 103.632C143.25 104.052 142.754 104.331 142.209 104.422C142.279 104.682 142.449 104.904 142.682 105.041C142.915 105.177 143.192 105.216 143.453 105.149C143.212 105.988 143.074 106.853 143.042 107.725C143.016 108.605 143.315 109.464 143.882 110.138C144.504 110.841 145.593 111.233 145.879 112.153" fill="#263238"/>
<path d="M156.8 131.329L145.156 131.18L146.456 121.228C146.456 121.228 145.66 121.053 145.61 116.737C145.561 112.42 145.355 105.074 145.355 105.074C147.809 104.022 150.499 103.645 153.147 103.98C155.796 104.316 158.307 105.353 160.42 106.984L161.042 107.475L156.8 131.329Z" fill="#FFBE9D"/>
<path d="M159.711 112.806C159.786 112.769 162.672 111.923 162.578 114.877C162.485 117.832 159.543 117.129 159.543 117.042C159.543 116.955 159.711 112.806 159.711 112.806Z" fill="#FFBE9D"/>
<path d="M145.859 112.184C145.784 112.153 143.153 111.444 143.253 114.399C143.352 117.353 146.288 116.65 146.288 116.563C146.288 116.476 145.859 112.184 145.859 112.184Z" fill="#FFBE9D"/>
<path d="M160.663 112.476C160.228 114.964 160.315 116.245 159.904 117.9C159.282 120.519 157.964 122.521 155.606 123.828C153.249 125.134 150.07 125.109 148.055 123.33C146.635 122.233 145.699 120.623 145.449 118.845C145.238 116.979 144.69 113.496 144.678 111.63C144.678 108.259 144.771 105.236 144.771 105.236L154.387 103.488L159.861 106.748L160.663 112.476Z" fill="#263238"/>
<path d="M150.742 125.32C151.288 125.482 151.861 125.533 152.428 125.47C152.994 125.407 153.541 125.231 154.039 124.953C154.039 124.879 153.305 125.103 152.397 125.202C151.489 125.302 150.755 125.24 150.742 125.32Z" fill="#263238"/>
<path d="M160.203 116.681C160.483 114.143 160.663 111.245 161.061 108.595C161.317 107.459 161.456 106.3 161.478 105.137C161.391 104.123 161.111 104.434 160.663 103.513C160.103 102.369 157.97 101.604 156.72 101.355C155.469 101.106 155.314 100.018 154.356 100.857C154.008 100.321 153.504 99.9047 152.912 99.6652C152.319 99.4257 151.667 99.3745 151.045 99.5186C150.422 99.6627 149.859 99.995 149.432 100.471C149.005 100.946 148.735 101.541 148.658 102.176C148.312 101.849 147.869 101.646 147.396 101.596C146.923 101.546 146.446 101.653 146.04 101.9C145.634 102.148 145.32 102.522 145.147 102.965C144.974 103.408 144.951 103.896 145.082 104.353C144.737 104.416 144.413 104.563 144.139 104.782C143.865 105 143.65 105.283 143.511 105.605C143.373 105.927 143.316 106.278 143.346 106.627C143.376 106.976 143.491 107.312 143.682 107.606C144.13 108.29 144.926 108.67 145.424 109.323C145.69 109.706 145.843 110.157 145.865 110.623C145.887 111.09 145.777 111.553 145.548 111.96" fill="#263238"/>
<path d="M147.806 116.152C147.669 117.031 147.785 117.931 148.142 118.746C148.414 119.593 148.921 120.346 149.604 120.917C149.132 120.195 148.716 119.438 148.36 118.653C148.112 117.835 147.926 116.999 147.806 116.152Z" fill="#455A64"/>
<path d="M146.513 114C146.208 114.741 146.143 115.559 146.327 116.339C146.428 117.134 146.778 117.876 147.328 118.46C147.019 117.76 146.773 117.033 146.594 116.289C146.504 115.53 146.477 114.764 146.513 114Z" fill="#455A64"/>
<path d="M158.611 103.787C157.914 102.602 156.867 101.663 155.613 101.1C154.983 100.831 154.293 100.734 153.613 100.82C152.933 100.905 152.288 101.169 151.744 101.585" fill="#263238"/>
<path d="M158.387 110.324C158.338 110.324 158.387 109.982 158.481 109.454C158.62 108.78 158.695 108.095 158.705 107.407C158.706 106.729 158.555 106.06 158.263 105.448C158.033 104.988 157.803 104.745 157.84 104.708C157.877 104.67 158.17 104.857 158.462 105.33C158.842 105.956 159.04 106.675 159.034 107.407C159.027 108.12 158.916 108.829 158.705 109.51C158.561 110.032 158.431 110.337 158.387 110.324Z" fill="#455A64"/>
<path d="M156.396 111.301C156.461 110.831 156.591 110.372 156.782 109.938C156.875 109.472 157.034 109.022 157.255 108.601C157.362 109.086 157.31 109.592 157.106 110.044C156.863 110.809 156.477 111.338 156.396 111.301Z" fill="#455A64"/>
<path d="M147.16 110.542C146.852 110.255 146.625 109.893 146.501 109.491C146.111 108.542 146.01 107.499 146.208 106.493C146.414 105.489 146.907 104.566 147.627 103.837C147.9 103.513 148.251 103.265 148.647 103.115C148.678 103.165 148.286 103.432 147.807 103.998C147.17 104.726 146.735 105.608 146.545 106.557C146.355 107.505 146.417 108.487 146.725 109.404C146.955 110.094 147.21 110.517 147.16 110.542Z" fill="#455A64"/>
<path d="M157.677 99.5575C157.345 99.4637 157.026 99.33 156.726 99.1595C156.003 98.8017 155.211 98.6064 154.406 98.5872C154.012 98.579 153.622 98.6541 153.259 98.8073C152.897 98.9606 152.571 99.1887 152.303 99.4767C152.101 99.742 151.92 100.023 151.762 100.316C151.752 100.135 151.777 99.9538 151.838 99.7828C151.899 99.6119 151.994 99.4549 152.117 99.3212C152.355 99.006 152.661 98.7487 153.012 98.5686C153.444 98.356 153.918 98.2453 154.399 98.2451C155.259 98.2597 156.1 98.5 156.838 98.9418C157.155 99.0904 157.44 99.2996 157.677 99.5575Z" fill="#455A64"/>
<path d="M144.523 102.294C144.486 102.294 144.554 101.952 144.865 101.511C145.279 100.942 145.87 100.526 146.545 100.329C147.221 100.132 147.942 100.165 148.597 100.422C149.088 100.627 149.325 100.87 149.3 100.901C149.034 100.835 148.772 100.752 148.516 100.652C147.899 100.472 147.244 100.472 146.627 100.652C146.01 100.831 145.457 101.183 145.033 101.666C144.716 102.008 144.573 102.319 144.523 102.294Z" fill="#455A64"/>
<path d="M147.695 113.148C147.695 113.104 148.168 112.98 148.939 112.632C149.985 112.159 150.942 111.511 151.769 110.716L152.323 110.175L152.018 110.89C151.829 111.342 151.69 111.814 151.601 112.296C151.558 112.538 151.521 112.843 151.601 112.887C151.682 112.93 151.931 112.825 152.155 112.669C152.899 112.19 153.566 111.6 154.133 110.921L154.643 110.299L154.413 111.058L153.76 113.173L153.536 113.042C154.249 112.327 154.876 111.529 155.402 110.666C155.336 110.938 155.224 111.197 155.072 111.431C154.703 112.094 154.242 112.701 153.704 113.235L153.343 113.596L153.486 113.098C153.667 112.476 153.866 111.736 154.108 110.971L154.388 111.12C153.808 111.845 153.117 112.475 152.342 112.986C152.219 113.065 152.092 113.138 151.962 113.204C151.877 113.254 151.781 113.28 151.682 113.28C151.584 113.28 151.487 113.254 151.402 113.204C151.332 113.141 151.278 113.061 151.246 112.972C151.213 112.883 151.203 112.788 151.216 112.694C151.216 112.538 151.253 112.42 151.272 112.283C151.368 111.778 151.522 111.285 151.732 110.815L151.987 110.99C151.121 111.801 150.105 112.435 148.995 112.856C148.582 113.026 148.142 113.125 147.695 113.148Z" fill="#455A64"/>
<path d="M153.323 101.759C153.223 101.584 153.088 101.431 152.928 101.308C152.768 101.185 152.585 101.096 152.39 101.044C151.997 100.954 151.589 100.954 151.196 101.044C150.224 101.228 149.345 101.742 148.708 102.499C148.565 102.667 148.434 102.935 148.59 103.121C148.683 103.197 148.8 103.236 148.92 103.233C150.372 103.353 151.833 103.301 153.274 103.078" fill="#263238"/>
<path d="M134.309 188.497C134.501 188.846 136.859 196.733 142.059 198.07C147.259 199.407 163.462 198.518 163.903 198.07C164.345 197.622 169.109 194.997 171.411 189.548C173.712 184.1 157.186 174.589 157.186 174.589L134.309 188.497Z" fill="#263238"/>
<path d="M174.161 190.631L174.304 195.028C174.304 195.706 174.224 199.115 174.149 199.787L172.127 227.099C171.928 227.018 170.753 243.893 170.653 249.814C170.554 255.512 170.075 271.012 170.075 271.012H156.777L155.881 245.348L155.321 217.57L154.5 198.132L174.161 190.631Z" fill="#263238"/>
<path d="M134.309 184.149C134.309 184.149 134.601 184.585 134.533 190.631C134.483 195.252 137.288 223.74 137.288 223.74L148.639 223.398L150.91 194.866L134.309 184.149Z" fill="#263238"/>
<path d="M155.543 198.474C155.23 198.545 154.912 198.588 154.592 198.605C153.97 198.673 153.086 198.754 151.979 198.823C149.09 199.054 146.182 198.885 143.34 198.319C140.447 197.76 137.847 196.191 136.006 193.89C135.473 193.187 135.053 192.404 134.762 191.57C134.684 191.344 134.619 191.114 134.569 190.88C134.532 190.718 134.52 190.631 134.532 190.631C134.911 191.751 135.47 192.801 136.187 193.741C138.036 195.944 140.585 197.446 143.408 197.995C146.224 198.555 149.099 198.764 151.967 198.617L154.585 198.499C154.903 198.461 155.224 198.453 155.543 198.474Z" fill="#455A64"/>
<path d="M169.004 197.927C168.536 198.112 168.048 198.242 167.549 198.312C165.168 198.768 162.745 198.977 160.321 198.934C159.819 198.95 159.316 198.908 158.822 198.81C159.317 198.726 159.819 198.69 160.321 198.704C161.242 198.667 162.517 198.605 163.923 198.48C165.328 198.356 166.597 198.201 167.512 198.07C168.003 197.973 168.503 197.925 169.004 197.927Z" fill="#455A64"/>
<path d="M168.619 202.928C167.974 202.926 167.33 202.862 166.697 202.735C165.522 202.561 163.905 202.256 162.138 201.821C160.372 201.385 158.798 200.9 157.672 200.508C157.054 200.325 156.454 200.083 155.881 199.787C156.514 199.909 157.138 200.078 157.747 200.29C158.885 200.626 160.465 201.074 162.219 201.534C163.973 201.995 165.584 202.299 166.747 202.536C167.38 202.619 168.006 202.75 168.619 202.928Z" fill="#455A64"/>
<path d="M165.453 107.246C164.964 106.245 164.416 105.275 163.811 104.341C163.811 104.341 167.48 100.453 169.688 100.571L171.785 103.47L165.453 107.246Z" fill="white"/>
<path d="M182.832 119.468C182.029 116.98 171.971 102.456 171.971 102.456C168.239 102.456 164.644 106.953 164.644 106.953L171.791 122.006L164.277 128.922L172.761 138.943C172.761 138.943 178.117 132.244 179.722 129.818C183.298 124.4 183.628 121.968 182.832 119.468Z" fill="#1B70BE"/>
<path opacity="0.3" d="M133.986 187.695C133.986 187.695 134.826 193.293 139.503 194.941C144.181 196.589 154.985 194.941 154.985 194.941L156.229 190.867L157.573 195.675L174.286 193.535L174.049 189.716L156.335 182.358L133.986 187.695Z" fill="black"/>
<path d="M170.429 169.066C170.074 167.088 169.62 166.087 169.533 164.892C169.265 161.328 169.284 152.782 169.533 151.687C169.85 150.25 172.755 138.943 172.755 138.943L171.766 130.185L159.425 128.132L158.561 126.142C158.561 126.142 150.325 124.008 145.119 126.807L144.217 128.935L141.002 129.743C140.517 129.936 137.997 130.639 136.088 131.155C135.035 131.435 134.056 131.942 133.22 132.64C132.384 133.339 131.711 134.212 131.249 135.198C130.92 135.913 130.632 136.646 130.384 137.394C129.532 139.919 124.631 153.877 124.413 158.131C124.158 163.107 128.562 163.275 131.255 162.641C133.948 162.006 136.896 155.985 136.896 155.985L138.588 167.766C138.341 169.374 137.947 170.956 137.413 172.493C135.771 176.972 133.407 185.636 133.407 185.636C134.328 188.522 137.674 193.1 139.428 193.722C141.182 194.344 152.907 193.84 152.907 193.84L156.365 184.666L159.556 194.313L176.194 191.719L170.429 169.066Z" fill="#1B70BE"/>
<path d="M156.347 165.67C156.391 165.745 153.996 167.331 150.998 169.203C149.213 170.383 147.369 171.473 145.475 172.468C147.197 171.199 148.982 170.018 150.824 168.929C152.608 167.75 154.452 166.662 156.347 165.67Z" fill="#263238"/>
<path d="M151.967 170.509C152.011 170.583 149.479 172.275 146.276 174.291C143.073 176.306 140.466 177.873 140.417 177.799C140.367 177.724 142.905 176.032 146.108 174.017C149.311 172.002 151.918 170.428 151.967 170.509Z" fill="#263238"/>
<path d="M165.123 157.323C164.664 158.478 163.986 159.534 163.127 160.433C162.349 161.397 161.389 162.2 160.303 162.796C160.241 162.722 161.547 161.733 162.884 160.221C164.222 158.71 165.036 157.273 165.123 157.323Z" fill="#263238"/>
<path d="M165.452 158.896C165.323 159.334 165.135 159.753 164.892 160.14C164.367 161.106 163.776 162.035 163.125 162.92C162.471 163.799 161.756 164.63 160.986 165.408C160.69 165.758 160.344 166.062 159.959 166.31C159.891 166.242 161.353 164.761 162.864 162.703C164.376 160.644 165.371 158.846 165.452 158.896Z" fill="#263238"/>
<path d="M165.844 174.16C165.94 173.595 166.083 173.04 166.273 172.499C166.565 171.485 166.951 170.08 167.318 168.506C167.685 166.932 167.94 165.508 168.139 164.463C168.21 163.895 168.325 163.334 168.481 162.784C168.506 163.359 168.467 163.934 168.363 164.5C168.19 165.866 167.945 167.222 167.629 168.562C167.318 169.91 166.938 171.241 166.491 172.549C166.332 173.107 166.115 173.647 165.844 174.16Z" fill="#263238"/>
<path d="M171.97 137.568C171.883 137.618 170.776 135.702 169.103 133.568C167.43 131.435 165.85 129.886 165.918 129.836C166.328 130.097 166.701 130.413 167.025 130.776C167.861 131.592 168.641 132.465 169.358 133.388C170.076 134.31 170.733 135.278 171.323 136.287C171.595 136.683 171.812 137.114 171.97 137.568Z" fill="#263238"/>
<path d="M174.64 133.139C173.93 132.133 173.094 131.222 172.152 130.427C171.153 129.714 170.066 129.133 168.918 128.698C169.292 128.692 169.662 128.764 170.006 128.91C171.715 129.485 173.176 130.626 174.149 132.144C174.378 132.439 174.545 132.778 174.64 133.139Z" fill="#263238"/>
<path d="M138.571 167.741C138.484 167.741 137.482 161.316 136.344 153.367C135.206 145.417 134.347 138.955 134.441 138.942C134.534 138.93 135.523 145.368 136.667 153.317C137.812 161.266 138.658 167.722 138.571 167.741Z" fill="#263238"/>
<path d="M159.599 128.132C158.842 128.15 158.084 128.129 157.329 128.07C155.923 128.014 153.989 127.989 151.849 128.07C149.709 128.151 147.787 128.393 146.4 128.586C145.654 128.724 144.9 128.821 144.143 128.878C144.332 128.797 144.53 128.736 144.733 128.698C145.113 128.605 145.673 128.487 146.363 128.362C148.172 128.038 150.001 127.83 151.837 127.74C153.671 127.648 155.51 127.671 157.341 127.809C158.044 127.865 158.585 127.927 159.002 127.983C159.207 128.007 159.407 128.057 159.599 128.132Z" fill="#263238"/>
<g opacity="0.3">
<path d="M136.939 156.408C136.28 151.432 135.372 146.456 134.713 141.48C132.915 146.375 133.904 152.153 136.939 156.408Z" fill="black"/>
</g>
<g opacity="0.3">
<path d="M171.672 121.813C172.839 120.703 174.329 119.993 175.926 119.785C176.3 119.703 176.687 119.701 177.062 119.778C177.437 119.855 177.792 120.01 178.103 120.233C178.172 120.283 178.227 120.348 178.265 120.424C178.303 120.5 178.322 120.583 178.321 120.668C178.303 120.75 178.259 120.825 178.197 120.882C178.135 120.938 178.056 120.975 177.973 120.985C177.807 121.02 177.635 121.02 177.469 120.985C175.559 120.643 173.488 121.203 171.678 121.9" fill="black"/>
</g>
<g opacity="0.3">
<path d="M144.845 128.984C146.448 129.379 148.112 129.463 149.746 129.233C152.649 128.98 155.539 128.603 158.417 128.101C153.788 127.475 149.082 127.739 144.553 128.879" fill="black"/>
</g>
<g opacity="0.3">
<path d="M144.305 175.578C150.887 173.719 156.798 170.011 161.335 164.892C156.123 168.182 149.374 171.958 144.305 175.578Z" fill="black"/>
</g>
<path d="M175.703 121.072C174.96 121.041 174.217 121.099 173.488 121.246C172.788 121.499 172.122 121.837 171.504 122.254C171.473 122.254 171.61 121.999 171.933 121.719C172.358 121.354 172.856 121.087 173.395 120.935C173.935 120.784 174.502 120.75 175.056 120.836C175.479 120.91 175.715 121.035 175.703 121.072Z" fill="#263238"/>
<path d="M114.753 113.876L109.024 114.137C107.174 116.343 104.743 117.987 102.008 118.883C100.081 119.51 98.0472 119.743 96.0282 119.569C94.0091 119.396 92.0455 118.818 90.2537 117.872C88.4619 116.925 86.8784 115.628 85.597 114.058C84.3157 112.488 83.3626 110.677 82.7942 108.732C81.5815 104.767 81.9581 100.486 83.8443 96.7939C85.7305 93.1016 88.9784 90.2874 92.9017 88.9462C94.8288 88.3188 96.8623 88.0851 98.8816 88.2588C100.901 88.4326 102.864 89.0104 104.656 89.9578C106.448 90.9052 108.031 92.203 109.311 93.7741C110.591 95.3452 111.543 97.1575 112.109 99.1035C113.127 102.432 113.033 106.002 111.842 109.273L114.753 113.876Z" fill="white"/>
<path d="M114.753 113.876L114.548 113.571L113.976 112.682L111.786 109.285H111.898C111.892 109.292 111.884 109.298 111.875 109.301C111.867 109.305 111.858 109.307 111.848 109.307C111.839 109.307 111.83 109.305 111.821 109.301C111.813 109.298 111.805 109.292 111.799 109.285C111.789 109.273 111.785 109.257 111.785 109.242C111.785 109.226 111.789 109.211 111.799 109.198C112.667 106.754 112.936 104.136 112.582 101.566C112.349 99.9147 111.849 98.3119 111.102 96.8205C109.364 93.2375 106.281 90.4858 102.525 89.1637C100.42 88.4302 98.1776 88.1773 95.9624 88.4235C93.6088 88.7042 91.3511 89.5213 89.363 90.812C87.291 92.1629 85.5823 94.0019 84.387 96.1674C83.1601 98.2935 82.4585 100.682 82.3406 103.134C82.2102 105.469 82.5924 107.804 83.4602 109.976C84.2513 111.954 85.4507 113.743 86.9801 115.227C88.5095 116.71 90.3346 117.854 92.3362 118.584C95.6828 119.793 99.3512 119.767 102.68 118.51C105.123 117.582 107.291 116.05 108.981 114.056C108.999 114.05 109.019 114.05 109.037 114.056L113.273 113.913L114.38 113.876H114.765H114.411L113.329 113.944L109.043 114.187H109.093C107.404 116.221 105.222 117.789 102.755 118.74C99.3802 120.045 95.6487 120.091 92.2429 118.87C90.2 118.135 88.3359 116.975 86.7729 115.468C85.2099 113.961 83.9835 112.14 83.1741 110.125C82.2797 107.908 81.8847 105.521 82.0172 103.134C82.0927 101.9 82.3013 100.678 82.6392 99.4889C83.3771 97.0593 84.6527 94.8271 86.3712 92.9579C87.2303 92.053 88.1903 91.2495 89.2324 90.5632C91.2517 89.2419 93.5482 88.4034 95.9438 88.1125C98.1198 87.8788 100.321 88.1167 102.397 88.8101C104.472 89.5035 106.374 90.636 107.973 92.1306C109.367 93.437 110.507 94.9889 111.338 96.7085C112.084 98.2282 112.579 99.858 112.806 101.535C113.155 104.148 112.861 106.806 111.948 109.279L111.823 109.217C111.83 109.21 111.838 109.205 111.846 109.201C111.855 109.197 111.864 109.196 111.873 109.196C111.883 109.196 111.892 109.197 111.9 109.201C111.909 109.205 111.917 109.21 111.923 109.217C112.856 110.735 113.571 111.904 114.069 112.706L114.604 113.59C114.703 113.782 114.753 113.876 114.753 113.876Z" fill="#263238"/>
<path d="M92.6035 101.398L97.169 95.6074L101.734 101.324L92.6035 101.398Z" fill="#1B70BE"/>
<path d="M99.4207 111.985L95.2595 112.016L95.1289 100.459L99.2839 100.428L99.4207 111.985Z" fill="#1B70BE"/>
</svg>
