<?xml version="1.0" standalone="no"?>
<!DOCTYPE svg PUBLIC "-//W3C//DTD SVG 20010904//EN"
 "http://www.w3.org/TR/2001/REC-SVG-20010904/DTD/svg10.dtd">
<svg version="1.0" xmlns="http://www.w3.org/2000/svg"
 width="700.000000pt" height="700.000000pt" viewBox="0 0 700.000000 700.000000"
 preserveAspectRatio="xMidYMid meet">
<metadata>
Created by potrace 1.14, written by Peter Selinger 2001-2017
</metadata>
<g transform="translate(0.000000,700.000000) scale(0.100000,-0.100000)"
fill="#000000" stroke="none">
<path d="M657 6984 c-261 -47 -490 -234 -595 -486 -66 -158 -62 30 -62 -2998
0 -3028 -4 -2840 62 -2998 83 -200 240 -357 442 -441 156 -65 -29 -61 2996
-61 3025 0 2840 -4 2996 61 237 99 407 292 480 549 18 63 19 167 22 2850 2
2464 0 2795 -13 2874 -53 304 -279 552 -584 639 l-76 22 -2795 2 c-2377 1
-2807 -1 -2873 -13z m6273 -1359 l0 -185 -3430 0 -3430 0 0 185 0 185 3430 0
3430 0 0 -185z m-2950 -885 l0 -390 773 2 772 3 3 388 2 387 230 0 230 0 -2
-617 -3 -618 -1232 -3 -1233 -2 0 620 0 620 230 0 230 0 0 -390z m-1215 -1172
c379 -854 704 -1586 722 -1626 l33 -72 -212 2 -213 3 -510 1103 c-280 606
-512 1102 -515 1102 -3 0 -230 -498 -505 -1105 l-500 -1105 -242 0 -242 0 47
103 c26 56 360 787 742 1625 382 837 697 1522 700 1522 3 0 316 -699 695
-1552z m3223 -855 l2 -803 -230 0 -230 0 0 575 0 575 -775 0 -775 0 0 -575 0
-575 -230 0 -230 0 0 805 0 805 1233 -2 1232 -3 3 -802z m-3576 -52 c197 -417
360 -766 364 -775 6 -14 -15 -16 -224 -16 l-230 0 -133 295 c-74 162 -136 295
-139 295 -3 0 -65 -133 -139 -295 l-133 -295 -230 0 c-215 0 -230 1 -223 18
18 47 721 1532 725 1532 3 0 166 -341 362 -759z m4518 -1286 l0 -185 -3430 0
-3430 0 0 185 0 185 3430 0 3430 0 0 -185z"/>
</g>
</svg>
