<svg width="252" height="252" viewBox="0 0 252 252" fill="none" xmlns="http://www.w3.org/2000/svg">
<g id="Launching-pana 1">
<g id="freepik--background-complete--inject-863">
<path id="Vector" d="M206.408 105.129C199.74 95.4273 184.187 93.5373 175.402 101.385C175.311 97.4173 174.059 93.5637 171.8 90.3011C169.541 87.0384 166.374 84.51 162.693 83.0289C159.011 81.5478 154.976 81.179 151.087 81.9682C147.198 82.7575 143.625 84.6701 140.812 87.4692C142.067 83.0592 137.441 78.7601 132.864 78.5232C128.288 78.2863 124.049 80.7458 120.123 83.1096C116.197 85.4733 111.933 87.9077 107.357 87.6002C102.403 87.2676 98.2849 83.8101 93.6581 82.0209C82.3282 77.6412 67.9894 85.4129 65.4795 97.2972C52.94 92.2572 36.8523 100.523 33.6973 113.672L217.294 115.814C216.64 113.203 215.277 110.824 213.356 108.939C211.435 107.054 209.03 105.735 206.408 105.129Z" fill="#F5F5F5"/>
<path id="Vector_2" d="M199.019 46.0454C199.336 43.7371 196.081 41.837 193.631 41.6405C192.467 41.5498 191.252 41.7262 190.149 41.3431C187.755 40.5065 186.797 37.4119 184.463 36.4291C182.715 35.6882 180.704 36.3485 179.01 37.2002C177.317 38.052 175.643 39.1255 173.748 39.2465C172.105 39.3523 170.316 38.7425 168.88 39.5438C167.806 40.1436 167.242 41.3784 166.254 42.1092C165.266 42.84 164.026 42.971 162.822 43.0366C161.617 43.1021 160.382 43.1172 159.294 43.6162C158.205 44.1151 157.278 45.2743 157.525 46.4537L199.019 46.0454Z" fill="#FAFAFA"/>
<path id="Vector_3" d="M39.1973 27.0648C39.3737 25.7746 37.5593 24.7162 36.1733 24.6103C35.5353 24.6312 34.8971 24.5737 34.2732 24.439C32.9376 23.9753 32.4033 22.2466 31.098 21.6972C30.1253 21.289 29.0013 21.6518 28.074 22.1306C27.1466 22.6094 26.1537 23.184 25.1004 23.2697C24.1781 23.3302 23.1852 22.9874 22.3788 23.436C21.779 23.7737 21.4665 24.444 20.9172 24.8674C20.341 25.2172 19.6757 25.3922 19.002 25.3714C18.3291 25.3553 17.6591 25.4647 17.0263 25.6939C16.7096 25.813 16.4401 26.0316 16.2583 26.317C16.0765 26.6024 15.9923 26.9391 16.0183 27.2765L39.1973 27.0648Z" fill="#FAFAFA"/>
<path id="Vector_4" d="M228.443 69.5772C228.806 66.9262 225.066 64.7439 222.254 64.5372C220.908 64.4263 219.517 64.633 218.222 64.1895C215.47 63.2319 214.371 59.6535 211.67 58.5396C209.654 57.6929 207.35 58.4489 205.4 59.4267C203.449 60.4044 201.529 61.6392 199.352 61.7803C197.457 61.9013 195.406 61.2007 193.747 62.1231C192.518 62.8135 191.873 64.2348 190.723 65.0715C189.574 65.9081 188.158 66.0795 186.782 66.1399C185.406 66.2004 183.97 66.2307 182.715 66.8052C181.46 67.3798 180.417 68.7104 180.699 70.0661L228.443 69.5772Z" fill="#EBEBEB"/>
<path id="Vector_5" d="M223.308 24.0761C223.565 22.2062 220.929 20.6741 218.948 20.5128C218.006 20.4372 217.023 20.5834 216.131 20.2709C214.191 19.5955 213.419 17.0906 211.529 16.2943C210.113 15.6996 208.505 16.2288 207.119 16.9193C205.733 17.6098 204.393 18.4766 202.861 18.5724C201.53 18.6581 200.084 18.1642 198.919 18.8143C198.053 19.3183 197.599 20.3263 196.798 20.8908C195.97 21.4018 195.013 21.6626 194.041 21.6418C193.066 21.6205 192.095 21.7794 191.178 22.1105C190.296 22.5137 189.565 23.4511 189.747 24.4087L223.308 24.0761Z" fill="#EBEBEB"/>
<path id="Vector_6" d="M46.7812 68.6449C46.9727 67.2538 45.0122 66.1249 43.5405 65.9938C42.8351 66.0229 42.1288 65.9619 41.4388 65.8124C39.9974 65.3084 39.4228 63.4486 38.0166 62.8539C36.9633 62.4104 35.7537 62.8085 34.7356 63.3176C33.7175 63.8266 32.7196 64.4768 31.5705 64.5524C30.5625 64.6129 29.5041 64.25 28.6372 64.7338C27.987 65.0917 27.6292 65.8376 27.0546 66.2761C26.4341 66.6578 25.7166 66.852 24.9882 66.8355C24.2638 66.8179 23.5425 66.9359 22.8614 67.1833C22.5228 67.3147 22.2358 67.5521 22.0432 67.86C21.8507 68.1679 21.7628 68.5299 21.7929 68.8918L46.7812 68.6449Z" fill="#EBEBEB"/>
<path id="Vector_7" d="M98.5923 47.3407C98.9955 44.4074 94.8526 41.9933 91.7429 41.7413C90.2561 41.6203 88.7189 41.8471 87.3077 41.3582C84.2837 40.2948 83.0439 36.3586 80.0753 35.1086C77.8527 34.1712 75.2924 35.0028 73.1403 36.0864C70.9882 37.17 68.8563 38.5358 66.4472 38.6921C64.3556 38.8231 62.0825 38.047 60.248 39.0701C58.8821 39.8311 58.1715 41.4036 56.9115 42.336C55.6515 43.2684 54.074 43.4347 52.5468 43.5154C51.0197 43.596 49.4422 43.6162 48.0512 44.2512C46.6601 44.8862 45.511 46.368 45.7983 47.88L98.5923 47.3407Z" fill="#F5F5F5"/>
<path id="Vector_8" d="M14.0367 152.667C14.0367 152.667 9.74265 153.277 12.187 162.676C14.6314 172.076 16.6878 176.904 16.6878 176.904C16.6878 176.904 17.0154 179.036 15.2967 178.976C13.5781 178.915 10.0803 177.549 8.89089 179.424C7.70145 181.299 8.74473 183.663 11.4512 186.082C14.1577 188.501 19.8781 194.01 20.3922 194.514C20.9062 195.018 21.2842 196.026 20.1099 196.192C18.9356 196.359 10.5843 195.366 10.3474 199.362C10.1106 203.359 18.7693 208.858 19.7017 209.478C20.6341 210.098 20.7802 210.581 20.5736 211.126C20.367 211.67 17.5849 211.08 15.1909 210.904C12.7969 210.728 9.99969 210.944 10.0702 213.263C10.1408 215.581 14.6818 221.422 27.8967 225.737L34.1514 227.334L38.7529 222.768C48.0164 212.401 49.0143 205.073 47.9106 203.031C46.8068 200.99 44.2717 202.215 42.291 203.566C40.3103 204.916 38.1985 206.822 37.755 206.459C37.3115 206.096 37.1905 205.597 37.6844 204.594C38.1783 203.591 42.8857 194.514 40.7084 191.152C38.5311 187.791 31.7523 192.836 30.6486 193.299C29.5448 193.763 29.3634 192.669 29.5549 191.989C29.7464 191.308 31.9338 183.653 33.0829 180.205C34.232 176.758 33.98 174.213 31.9539 173.149C29.9278 172.086 27.6598 175.095 26.2033 176.012C24.7467 176.929 23.9655 174.918 23.9655 174.918C23.9655 174.918 23.2902 169.707 20.6643 160.353C18.0385 150.999 13.9359 152.682 13.9359 152.682" fill="#EBEBEB"/>
<path id="Vector_9" d="M34.1463 228.886C32.2563 222.007 29.1063 209.734 26.3394 199.191C23.5724 188.647 21.0675 179.132 19.2078 172.242C18.2804 168.805 17.5295 166.018 17.0053 164.087L16.4055 161.865L16.2543 161.29L16.209 161.088C16.209 161.088 16.2342 161.154 16.2745 161.285L16.4459 161.854C16.592 162.358 16.8037 163.109 17.0809 164.062C17.6303 165.982 18.4014 168.764 19.3489 172.202C21.2389 179.081 23.769 188.607 26.5309 199.14C29.2928 209.674 32.4277 221.962 34.2723 228.851" fill="#E0E0E0"/>
<path id="Vector_10" d="M13.7188 181.541C13.8612 181.602 13.9978 181.677 14.127 181.763C14.3891 181.914 14.757 182.146 15.2106 182.433C16.1128 183.012 17.3375 183.839 18.6781 184.781L22.0952 187.201L23.1335 187.931C23.2681 188.011 23.3932 188.106 23.5064 188.214C23.3607 188.158 23.2221 188.085 23.0932 187.997C22.8311 187.846 22.4632 187.614 22.0146 187.322C21.1175 186.732 19.8978 185.885 18.5622 184.948L15.1199 182.549L14.1119 181.828C13.967 181.753 13.8344 181.656 13.7188 181.541Z" fill="#E0E0E0"/>
<path id="Vector_11" d="M24.0265 187.906C23.9761 187.876 25.5789 185.27 27.5999 182.085C29.6209 178.9 31.2993 176.345 31.3446 176.4C31.39 176.455 29.7923 179.031 27.7713 182.216C25.7502 185.401 24.0719 187.937 24.0265 187.906Z" fill="#E0E0E0"/>
<path id="Vector_12" d="M27.5391 204.266C27.6404 204.143 27.7554 204.031 27.8818 203.933L28.8545 203.082C29.671 202.356 30.7999 201.353 32.0045 200.199C33.2091 199.045 34.2675 197.966 35.0285 197.175L35.9307 196.242C36.0326 196.119 36.1494 196.009 36.2784 195.915C36.1939 196.05 36.096 196.177 35.9861 196.293C35.7895 196.53 35.4821 196.862 35.1343 197.271C34.4035 198.087 33.3603 199.186 32.1456 200.34C30.931 201.494 29.797 202.487 28.9503 203.182C28.5269 203.53 28.1791 203.807 27.9423 203.989C27.8204 204.098 27.6849 204.191 27.5391 204.266Z" fill="#E0E0E0"/>
<path id="Vector_13" d="M16.9492 200.592C17.0955 200.608 17.2394 200.642 17.3776 200.693L18.5217 201.046C19.4843 201.348 20.8149 201.781 22.2765 202.27C23.7381 202.759 25.0586 203.218 26.0162 203.556L27.1401 203.969C27.2814 204.011 27.4168 204.07 27.5433 204.145C27.3972 204.125 27.2536 204.09 27.1149 204.039L25.9708 203.692C25.0031 203.384 23.6776 202.951 22.211 202.462C20.7443 201.973 19.4289 201.519 18.4763 201.177L17.3524 200.768C17.2122 200.724 17.077 200.665 16.9492 200.592Z" fill="#E0E0E0"/>
<path id="Vector_14" d="M18.2148 215.405C18.4015 215.434 18.5853 215.48 18.7642 215.541L20.2308 215.984C21.4707 216.367 23.1742 216.911 25.0592 217.496C26.9441 218.081 28.6376 218.67 29.8623 219.089L31.3138 219.593C31.4879 219.648 31.6566 219.719 31.8178 219.804C31.6305 219.778 31.4464 219.733 31.2684 219.668L29.822 219.24C28.5821 218.857 26.8786 218.313 24.9936 217.728C23.1087 217.143 21.4152 216.554 20.1905 216.135L18.739 215.631C18.5564 215.575 18.3806 215.499 18.2148 215.405Z" fill="#E0E0E0"/>
<path id="Vector_15" d="M31.541 219.633C31.6681 219.476 31.8098 219.331 31.9644 219.2L33.1589 218.071C34.1669 217.113 35.5478 215.793 37.0397 214.286C38.5315 212.779 39.8419 211.388 40.7844 210.37L41.9033 209.16C42.0333 209.007 42.1766 208.865 42.3317 208.737C42.2215 208.904 42.0984 209.062 41.9637 209.211C41.7168 209.513 41.3489 209.941 40.8902 210.46C39.9729 211.504 38.6726 212.915 37.1808 214.422C35.6889 215.929 34.2727 217.224 33.2647 218.177C32.7607 218.635 32.3222 219.008 32.0249 219.26C31.8737 219.397 31.7119 219.522 31.541 219.633Z" fill="#E0E0E0"/>
<path id="Vector_16" d="M212.763 229.396C202.316 223.615 198.389 210.748 197.175 198.868C196.973 196.883 196.489 194.836 197.134 192.977C197.78 191.117 199.654 189.655 201.434 190.26C202.9 190.764 203.727 192.382 204.684 193.687C205.931 195.404 207.641 196.731 209.613 197.513C210.879 198.017 212.385 198.203 213.454 197.361C214.921 196.197 214.79 193.833 214.517 191.858L212.975 180.886C212.698 178.92 212.421 176.914 212.743 174.974C213.066 173.033 214.094 171.123 215.767 170.362C217.441 169.601 219.754 170.362 220.379 172.247C220.558 173.051 220.686 173.866 220.762 174.686C220.923 175.493 221.397 176.345 222.153 176.476C222.909 176.607 223.579 175.972 224.048 175.296C225.681 173.048 226.623 170.317 227.48 167.61C228.337 164.904 229.159 162.142 230.59 159.743C232.021 157.344 234.168 155.298 236.774 154.778C239.38 154.259 242.424 155.605 243.457 158.256C244.49 160.907 243.366 163.951 242.021 166.421C240.053 170.05 237.573 173.377 234.657 176.299C234.071 176.77 233.648 177.414 233.448 178.139C233.226 179.5 234.562 180.659 235.832 180.906C237.263 181.203 238.73 180.845 240.186 180.83C241.643 180.815 243.286 181.274 244.022 182.65C245.03 184.55 243.759 186.873 242.399 188.466C239.705 191.632 236.472 194.296 232.848 196.333C231.568 197.049 230.207 197.709 229.254 198.853C228.302 199.997 227.878 201.877 228.725 203.167C229.572 204.458 231.321 204.679 232.697 204.175C234.073 203.671 235.217 202.704 236.507 201.973C238.891 200.607 242.177 200.345 244.107 202.452C245.377 203.838 245.76 205.98 245.468 207.865C245.103 209.732 244.379 211.51 243.336 213.101C239.974 218.736 235.343 223.539 229.779 226.518C224.214 229.496 218.867 230.832 212.743 229.355" fill="#F5F5F5"/>
<path id="Vector_17" d="M214.623 221.589C215.588 214.904 216.917 208.276 218.605 201.736C219.043 200.002 219.477 198.284 219.9 196.595C220.323 194.907 220.752 193.234 221.266 191.626C222.248 188.551 223.394 185.532 224.698 182.579C225.923 179.762 227.183 177.136 228.377 174.691C229.572 172.247 230.731 169.989 231.87 167.983C233.645 164.821 235.667 161.805 237.918 158.962C238.704 157.954 239.339 157.208 239.778 156.704L240.282 156.134C240.336 156.067 240.397 156.004 240.463 155.948C240.418 156.022 240.368 156.093 240.312 156.159L239.833 156.754C239.415 157.258 238.795 158.044 238.024 159.057C235.826 161.931 233.845 164.963 232.097 168.129C230.973 170.145 229.834 172.398 228.644 174.843C227.455 177.287 226.195 179.928 224.985 182.73C223.693 185.674 222.557 188.683 221.583 191.747C221.079 193.35 220.656 195.008 220.228 196.696C219.799 198.385 219.371 200.103 218.932 201.837C217.25 208.362 215.914 214.972 214.93 221.639" fill="#E0E0E0"/>
<path id="Vector_18" d="M221.362 191.601C221.235 191.342 221.137 191.07 221.07 190.789C220.898 190.26 220.677 189.484 220.414 188.521C219.91 186.601 219.255 183.925 218.565 180.961C217.874 177.998 217.199 175.347 216.65 173.442C216.377 172.489 216.146 171.718 215.989 171.189C215.89 170.917 215.816 170.637 215.768 170.352C215.913 170.601 216.028 170.867 216.11 171.143C216.312 171.647 216.579 172.418 216.876 173.366C217.486 175.261 218.202 177.902 218.892 180.881C219.583 183.859 220.183 186.425 220.646 188.441C220.863 189.353 221.05 190.119 221.196 190.734C221.278 191.017 221.334 191.307 221.362 191.601Z" fill="#E0E0E0"/>
<path id="Vector_19" d="M244.345 183.622C244.046 183.737 243.735 183.822 243.418 183.874C242.818 184.015 241.951 184.217 240.898 184.499C238.771 185.049 235.858 185.916 232.678 187.019C229.498 188.123 226.675 189.272 224.649 190.164C223.641 190.598 222.825 190.976 222.26 191.233C221.976 191.381 221.679 191.505 221.373 191.601C221.631 191.403 221.91 191.234 222.205 191.097C222.749 190.799 223.55 190.386 224.553 189.917C227.169 188.697 229.845 187.612 232.572 186.666C235.282 185.705 238.043 184.894 240.843 184.237C241.916 183.99 242.793 183.829 243.403 183.733C243.713 183.665 244.028 183.627 244.345 183.622Z" fill="#E0E0E0"/>
<path id="Vector_20" d="M214.85 221.08C214.85 221.08 214.77 220.989 214.644 220.797L214.14 219.935C213.686 219.19 213.051 218.091 212.29 216.725C210.778 213.988 208.762 210.138 206.605 205.864C204.448 201.59 202.482 197.719 201.011 194.952L199.257 191.686L198.783 190.789C198.719 190.689 198.67 190.581 198.637 190.467C198.718 190.553 198.787 190.649 198.843 190.754L199.347 191.611C199.801 192.357 200.436 193.455 201.197 194.826C202.709 197.563 204.725 201.408 206.882 205.687C209.039 209.966 211.005 213.827 212.477 216.594L214.23 219.865L214.704 220.752C214.767 220.855 214.816 220.965 214.85 221.08Z" fill="#E0E0E0"/>
<path id="Vector_21" d="M244.779 205.939C244.69 206.013 244.592 206.075 244.486 206.121L243.619 206.569L240.409 208.197C237.702 209.573 233.988 211.519 229.885 213.676C225.783 215.833 222.048 217.743 219.301 219.059C217.936 219.719 216.827 220.238 216.051 220.571L215.158 220.959C214.952 221.044 214.841 221.085 214.836 221.07C214.925 220.999 215.024 220.939 215.128 220.893L215.995 220.44L219.201 218.812C221.902 217.436 225.622 215.49 229.724 213.333C233.827 211.176 237.561 209.266 240.308 207.95C241.674 207.295 242.788 206.771 243.564 206.438L244.456 206.05C244.558 205.998 244.666 205.961 244.779 205.939Z" fill="#E0E0E0"/>
</g>
<g id="freepik--Floor--inject-863">
<path id="Vector_22" d="M244.303 241.089C244.303 241.164 191.106 241.225 125.5 241.225C59.8948 241.225 6.6875 241.164 6.6875 241.089C6.6875 241.013 59.8746 240.958 125.5 240.958C191.126 240.958 244.303 241.018 244.303 241.089Z" fill="#263238"/>
</g>
<g id="freepik--Device--inject-863">
<path id="Vector_23" d="M213.369 111.077H35.6734C31.6178 111.077 28.3301 114.364 28.3301 118.42V230.953C28.3301 235.009 31.6178 238.296 35.6734 238.296H213.369C217.424 238.296 220.712 235.009 220.712 230.953V118.42C220.712 114.364 217.424 111.077 213.369 111.077Z" fill="#455A64"/>
<path id="Vector_24" d="M20.8105 230.081H229.245V232.43C229.245 234.758 228.32 236.991 226.673 238.638C225.027 240.284 222.794 241.209 220.465 241.209H29.5902C27.2617 241.209 25.0286 240.284 23.3821 238.638C21.7355 236.991 20.8105 234.758 20.8105 232.43V230.081Z" fill="#455A64"/>
<path id="Vector_25" d="M215.006 116.132H33.4902V223.57H215.006V116.132Z" fill="#263238"/>
<path id="Vector_26" d="M105.553 228.892L108.143 233.004H144.537L146.936 228.892H105.553Z" fill="#263238"/>
<path id="Vector_27" d="M209.997 119.771H38.8785C37.9683 119.771 37.2305 120.508 37.2305 121.419V221.579C37.2305 222.489 37.9683 223.227 38.8785 223.227H209.997C210.907 223.227 211.645 222.489 211.645 221.579V121.419C211.645 120.508 210.907 119.771 209.997 119.771Z" fill="#EBEBEB"/>
<path id="Vector_28" d="M211.459 223.378H37.0449L37.2314 127.502H211.459V223.378Z" fill="#FAFAFA"/>
<path id="Vector_29" d="M51.534 123.767C51.533 124.042 51.4506 124.311 51.2971 124.539C51.1437 124.767 50.9261 124.944 50.6718 125.049C50.4176 125.153 50.138 125.18 49.8685 125.126C49.599 125.072 49.3516 124.939 49.1576 124.744C48.9636 124.549 48.8316 124.302 48.7783 124.032C48.725 123.762 48.7529 123.483 48.8583 123.229C48.9638 122.975 49.142 122.758 49.3707 122.605C49.5993 122.453 49.8681 122.371 50.143 122.371C50.3261 122.371 50.5074 122.407 50.6765 122.478C50.8456 122.548 50.9991 122.651 51.1284 122.781C51.2576 122.91 51.36 123.064 51.4296 123.234C51.4992 123.403 51.5347 123.584 51.534 123.767Z" fill="#263238"/>
<path id="Vector_30" d="M43.0929 123.767C43.0929 124.044 43.0109 124.314 42.8573 124.544C42.7037 124.773 42.4853 124.952 42.2299 125.058C41.9746 125.163 41.6936 125.191 41.4226 125.136C41.1517 125.082 40.9029 124.949 40.7079 124.753C40.5129 124.557 40.3803 124.308 40.327 124.037C40.2737 123.766 40.3021 123.485 40.4085 123.23C40.5149 122.975 40.6947 122.757 40.9249 122.604C41.1552 122.451 41.4256 122.37 41.7019 122.371C41.885 122.371 42.0663 122.407 42.2354 122.478C42.4045 122.548 42.5581 122.651 42.6873 122.781C42.8165 122.91 42.9189 123.064 42.9885 123.234C43.0581 123.403 43.0936 123.584 43.0929 123.767Z" fill="#263238"/>
<path id="Vector_31" d="M47.1454 123.767C47.1444 124.042 47.0619 124.311 46.9085 124.539C46.755 124.767 46.5374 124.944 46.2832 125.049C46.0289 125.153 45.7494 125.18 45.4799 125.126C45.2104 125.072 44.963 124.939 44.7689 124.744C44.5749 124.549 44.4429 124.302 44.3896 124.032C44.3364 123.762 44.3642 123.483 44.4696 123.229C44.5751 122.975 44.7534 122.758 44.982 122.605C45.2107 122.453 45.4794 122.371 45.7543 122.371C45.9374 122.371 46.1187 122.407 46.2878 122.478C46.4569 122.548 46.6105 122.651 46.7397 122.781C46.8689 122.91 46.9713 123.064 47.0409 123.234C47.1105 123.403 47.146 123.584 47.1454 123.767Z" fill="#263238"/>
<path id="Vector_32" d="M219.059 228.892C219.059 228.957 176.36 229.013 123.697 229.013C71.034 229.013 28.3301 228.957 28.3301 228.892C28.3301 228.826 71.0189 228.766 123.697 228.766C176.375 228.766 219.059 228.816 219.059 228.892Z" fill="#263238"/>
<path id="Vector_33" d="M193.088 168.78C190.658 170.875 188.854 173.601 187.876 176.657C186.897 179.713 186.783 182.98 187.544 186.097C185.272 185.649 182.923 185.765 180.706 186.437C178.489 187.108 176.471 188.313 174.828 189.947C173.186 191.581 171.97 193.593 171.287 195.807C170.604 198.021 170.476 200.368 170.912 202.643C165.918 199.206 158.282 200.491 154.689 205.38C154.613 202.154 154.487 198.752 152.794 196.006C151.1 193.259 147.25 191.565 144.533 193.309C145.563 192.136 146.188 190.663 146.317 189.108C146.446 187.552 146.072 185.996 145.25 184.67C144.428 183.343 143.202 182.315 141.751 181.738C140.301 181.161 138.704 181.066 137.195 181.465C137.119 177.595 134.675 150.187 132.659 127.063H115.442C113.426 149.784 111.123 175.881 111.047 179.656C109.535 179.248 107.93 179.339 106.473 179.915C105.016 180.492 103.784 181.523 102.961 182.856C102.137 184.189 101.765 185.752 101.901 187.313C102.037 188.874 102.673 190.349 103.714 191.52C100.998 189.776 97.1621 191.475 95.4535 194.216C93.745 196.958 93.6291 200.365 93.5535 203.591C89.9599 198.707 82.3294 197.417 77.3297 200.854C77.7664 198.579 77.6376 196.232 76.9548 194.018C76.2721 191.804 75.0561 189.792 73.4138 188.158C71.7715 186.524 69.7531 185.319 67.5359 184.647C65.3186 183.976 62.9705 183.859 60.6977 184.308C61.5053 181.191 61.4115 177.908 60.4272 174.842C59.4429 171.776 57.6087 169.053 55.1376 166.988C52.6665 164.924 49.6602 163.603 46.4681 163.18C43.276 162.756 40.0293 163.247 37.1055 164.596V223.327H211.137V166.375C208.2 165.071 204.959 164.605 201.773 165.029C198.587 165.453 195.581 166.751 193.088 168.78Z" fill="#7400D3"/>
<g id="Group" opacity="0.8">
<path id="Vector_34" d="M193.088 168.78C190.658 170.875 188.854 173.601 187.876 176.657C186.897 179.713 186.783 182.98 187.544 186.097C185.272 185.649 182.923 185.765 180.706 186.437C178.489 187.108 176.471 188.313 174.828 189.947C173.186 191.581 171.97 193.593 171.287 195.807C170.604 198.021 170.476 200.368 170.912 202.643C165.918 199.206 158.282 200.491 154.689 205.38C154.613 202.154 154.487 198.752 152.794 196.006C151.1 193.259 147.25 191.565 144.533 193.309C145.563 192.136 146.188 190.663 146.317 189.108C146.446 187.552 146.072 185.996 145.25 184.67C144.428 183.343 143.202 182.315 141.751 181.738C140.301 181.161 138.704 181.066 137.195 181.465C137.119 177.595 134.675 150.187 132.659 127.063H115.442C113.426 149.784 111.123 175.881 111.047 179.656C109.535 179.248 107.93 179.339 106.473 179.915C105.016 180.492 103.784 181.523 102.961 182.856C102.137 184.189 101.765 185.752 101.901 187.313C102.037 188.874 102.673 190.349 103.714 191.52C100.998 189.776 97.1621 191.475 95.4535 194.216C93.745 196.958 93.6291 200.365 93.5535 203.591C89.9599 198.707 82.3294 197.417 77.3297 200.854C77.7664 198.579 77.6376 196.232 76.9548 194.018C76.2721 191.804 75.0561 189.792 73.4138 188.158C71.7715 186.524 69.7531 185.319 67.5359 184.647C65.3186 183.976 62.9705 183.859 60.6977 184.308C61.5053 181.191 61.4115 177.908 60.4272 174.842C59.4429 171.776 57.6087 169.053 55.1376 166.988C52.6665 164.924 49.6602 163.603 46.4681 163.18C43.276 162.756 40.0293 163.247 37.1055 164.596V223.327H211.137V166.375C208.2 165.071 204.959 164.605 201.773 165.029C198.587 165.453 195.581 166.751 193.088 168.78Z" fill="white"/>
</g>
<path id="Vector_35" d="M192.025 211.599C188.902 209.501 185.381 208.067 181.682 207.384C177.982 206.701 174.181 206.784 170.515 207.629C166.848 208.473 163.394 210.061 160.366 212.294C157.338 214.527 154.8 217.358 152.91 220.611C151.379 218.542 149.378 216.867 147.073 215.722C147.237 215.287 147.373 214.843 147.482 214.392C147.928 212.461 147.873 210.448 147.324 208.544C146.774 206.64 145.748 204.907 144.342 203.511C142.936 202.114 141.197 201.1 139.289 200.564C137.381 200.027 135.368 199.987 133.44 200.446L128.289 127.063H121.536V194.544C117.352 195.184 114.434 200.138 115.911 204.12C114.454 204.347 113.073 204.924 111.888 205.802C110.703 206.68 109.749 207.832 109.107 209.16C108.704 210.027 108.643 211.861 108.991 213.938C106.441 213.984 103.936 214.612 101.665 215.773C99.3943 216.933 97.4182 218.597 95.8871 220.636C93.9967 217.383 91.4589 214.553 88.4308 212.32C85.4026 210.087 81.9486 208.499 78.2822 207.654C74.6158 206.809 70.8151 206.726 67.1152 207.409C63.4153 208.092 59.8949 209.527 56.7717 211.625C55.0026 203.057 45.4216 196.968 36.9141 199.025V223.484L115.432 223.383C115.972 223.537 116.53 223.615 117.09 223.615L136.283 223.388L211.918 223.484V198.979C203.39 196.943 193.809 203.031 192.025 211.599Z" fill="#7400D3"/>
<g id="Group_2" opacity="0.6">
<path id="Vector_36" d="M192.025 211.599C188.902 209.501 185.381 208.067 181.682 207.384C177.982 206.701 174.181 206.784 170.515 207.629C166.848 208.473 163.394 210.061 160.366 212.294C157.338 214.527 154.8 217.358 152.91 220.611C151.379 218.542 149.378 216.867 147.073 215.722C147.237 215.287 147.373 214.843 147.482 214.392C147.928 212.461 147.873 210.448 147.324 208.544C146.774 206.64 145.748 204.907 144.342 203.511C142.936 202.114 141.197 201.1 139.289 200.564C137.381 200.027 135.368 199.987 133.44 200.446L128.289 127.063H121.536V194.544C117.352 195.184 114.434 200.138 115.911 204.12C114.454 204.347 113.073 204.924 111.888 205.802C110.703 206.68 109.749 207.832 109.107 209.16C108.704 210.027 108.643 211.861 108.991 213.938C106.441 213.984 103.936 214.612 101.665 215.773C99.3943 216.933 97.4182 218.597 95.8871 220.636C93.9967 217.383 91.4589 214.553 88.4308 212.32C85.4026 210.087 81.9486 208.499 78.2822 207.654C74.6158 206.809 70.8151 206.726 67.1152 207.409C63.4153 208.092 59.8949 209.527 56.7717 211.625C55.0026 203.057 45.4216 196.968 36.9141 199.025V223.484L115.432 223.383C115.972 223.537 116.53 223.615 117.09 223.615L136.283 223.388L211.918 223.484V198.979C203.39 196.943 193.809 203.031 192.025 211.599Z" fill="white"/>
</g>
</g>
<g id="freepik--Rocket--inject-863">
<path id="Vector_37" d="M117.558 104.091C113.687 105.931 111.933 111.233 113.949 115.018C114.745 116.53 116.046 117.825 116.217 119.508C116.479 122.089 114.04 124.105 113.284 126.564C112.9 128.039 113.102 129.604 113.846 130.933C114.59 132.262 115.819 133.252 117.276 133.696C118.601 134.044 120.189 133.983 121.076 135.027C122.21 136.357 121.388 138.555 122.361 140.021C123.233 141.337 125.274 141.402 126.589 140.525C127.905 139.648 128.631 138.131 129.15 136.639C129.669 135.148 130.057 133.58 130.954 132.28C131.962 130.853 133.449 129.876 134.648 128.621C137.531 125.597 138.413 121.061 137.763 116.923C137.113 112.785 135.112 109 132.849 105.487" fill="#7400D3"/>
<g id="Group_3" opacity="0.3">
<path id="Vector_38" d="M117.558 104.091C113.687 105.931 111.933 111.233 113.949 115.018C114.745 116.53 116.046 117.825 116.217 119.508C116.479 122.089 114.04 124.105 113.284 126.564C112.9 128.039 113.102 129.604 113.846 130.933C114.59 132.262 115.819 133.252 117.276 133.696C118.601 134.044 120.189 133.983 121.076 135.027C122.21 136.357 121.388 138.555 122.361 140.021C123.233 141.337 125.274 141.402 126.589 140.525C127.905 139.648 128.631 138.131 129.15 136.639C129.669 135.148 130.057 133.58 130.954 132.28C131.962 130.853 133.449 129.876 134.648 128.621C137.531 125.597 138.413 121.061 137.763 116.923C137.113 112.785 135.112 109 132.849 105.487" fill="white"/>
</g>
<path id="Vector_39" d="M120.96 106.268C117.679 107.715 116.242 112.266 118.097 115.34C119.231 117.215 121.429 118.909 120.894 121.03C120.531 122.472 118.989 123.354 118.546 124.77C117.956 126.655 119.74 128.656 121.706 128.893C123.671 129.13 125.566 128.081 127.053 126.776C132.199 122.24 133.454 113.37 130.243 107.317" fill="#7400D3"/>
<path id="Vector_40" d="M137.873 77.4194C137.873 77.4194 154.727 88.5679 152.888 107.856L137.395 100.901L137.873 77.4194Z" fill="#7400D3"/>
<path id="Vector_41" d="M109.871 100.513L113.701 106.858H133.564L137.395 100.876L109.871 100.513Z" fill="#263238"/>
<path id="Vector_42" d="M122.604 36.4896C118.824 36.7428 115.287 38.4428 112.729 41.2361C110.17 44.0295 108.786 47.7013 108.864 51.4886L109.872 100.881H137.396L138.313 51.4634C138.352 49.4232 137.966 47.3972 137.181 45.5139C136.395 43.6306 135.227 41.9312 133.75 40.5233C132.273 39.1154 130.519 38.0298 128.6 37.3354C126.682 36.6411 124.64 36.353 122.604 36.4896Z" fill="#7400D3"/>
<g id="Group_4" opacity="0.8">
<path id="Vector_43" d="M122.604 36.4896C118.824 36.7428 115.287 38.4428 112.729 41.2361C110.17 44.0295 108.786 47.7013 108.864 51.4886L109.872 100.881H137.396L138.313 51.4634C138.352 49.4232 137.966 47.3972 137.181 45.5139C136.395 43.6306 135.227 41.9312 133.75 40.5233C132.273 39.1154 130.519 38.0298 128.6 37.3354C126.682 36.6411 124.64 36.353 122.604 36.4896Z" fill="white"/>
</g>
<path id="Vector_44" d="M109.368 77.4194C109.368 77.4194 92.5349 88.5679 94.3795 107.856L109.872 100.891L109.368 77.4194Z" fill="#7400D3"/>
<path id="Vector_45" d="M109.015 49.8506C114.836 44.7552 133.106 44.866 138.01 49.014C136.75 30.6784 122.749 23.814 122.749 23.814C108.425 33.7327 109.015 49.8506 109.015 49.8506Z" fill="#7400D3"/>
<path id="Vector_46" d="M122.75 23.819L122.916 23.9702C123.022 24.071 123.183 24.2171 123.385 24.4137L124.151 25.1395L124.655 25.6031L125.159 26.1676C125.522 26.5658 125.935 27.0043 126.374 27.4982L127.714 29.1715C127.941 29.4789 128.168 29.8115 128.405 30.1442C128.642 30.4768 128.909 30.8195 129.121 31.1975C129.569 31.9435 130.068 32.7095 130.496 33.5915C131.48 35.4661 132.242 37.4483 132.77 39.4984C133.067 40.6382 133.287 41.7967 133.43 42.9659C133.515 43.5707 133.561 44.1856 133.646 44.7955C133.701 45.4289 133.723 46.0648 133.712 46.7006C133.712 51.8162 133.646 57.4408 133.581 63.3326C133.44 75.1463 133.274 85.8362 133.148 93.5726C133.082 97.4383 133.027 100.568 132.986 102.735C132.986 103.814 132.946 104.656 132.936 105.255C132.936 105.538 132.936 105.759 132.936 105.9C132.936 106.042 132.936 106.122 132.936 106.122C132.936 106.122 132.936 106.047 132.936 105.9C132.936 105.754 132.936 105.538 132.936 105.255C132.936 104.681 132.936 103.839 132.961 102.735C132.986 100.568 133.027 97.4383 133.072 93.5726C133.173 85.8261 133.309 75.1363 133.465 63.3326C133.531 57.4257 133.606 51.8011 133.606 46.7006C133.62 46.0715 133.598 45.4422 133.541 44.8156C133.46 44.1957 133.415 43.5859 133.334 42.9861C133.193 41.8202 132.974 40.6652 132.679 39.5287C132.158 37.4872 131.406 35.5121 130.436 33.6419C129.982 32.7599 129.483 31.9939 129.025 31.2479C128.803 30.8699 128.521 30.5373 128.314 30.1946C128.108 29.8519 127.861 29.5293 127.634 29.2219L126.303 27.5435C125.87 27.0395 125.462 26.6111 125.099 26.2079L124.595 25.6384L124.116 25.1697L123.36 24.4339L122.901 23.9803L122.75 23.819Z" fill="#263238"/>
<path id="Vector_47" d="M129.186 62.3405C130.051 58.421 127.8 54.5918 124.158 53.7877C120.516 52.9836 116.862 55.5091 115.997 59.4285C115.131 63.3479 117.382 67.1771 121.024 67.9813C124.667 68.7854 128.321 66.2599 129.186 62.3405Z" fill="#FAFAFA"/>
<path id="Vector_48" d="M124.155 53.7868C124.116 53.7924 124.077 53.7924 124.039 53.7868L123.711 53.7415L123.469 53.7012H123.172H122.829C122.703 53.7012 122.572 53.7012 122.436 53.7012C122.129 53.7202 121.825 53.7607 121.524 53.8221C121.166 53.898 120.815 54.0042 120.475 54.1396C119.646 54.4708 118.886 54.9565 118.238 55.571C117.451 56.3128 116.837 57.2176 116.438 58.222C116.327 58.4961 116.234 58.7773 116.161 59.0637C116.126 59.2099 116.08 59.356 116.045 59.5022L115.97 59.9558L115.929 60.1876V60.4195C115.929 60.5757 115.904 60.737 115.894 60.8932C115.884 61.0495 115.894 61.2108 115.894 61.372V61.614L115.919 61.8609C116.052 63.2303 116.577 64.5322 117.431 65.6107C118.331 66.7828 119.615 67.6002 121.057 67.9192C122.5 68.2381 124.009 68.0382 125.319 67.3545C126.542 66.7278 127.559 65.7642 128.252 64.5775L128.378 64.3708L128.484 64.1491L128.696 63.7207L128.862 63.2772L128.943 63.0554L129.008 62.8286L129.129 62.3851C129.164 62.2389 129.179 62.0877 129.21 61.9416C129.26 61.6498 129.294 61.3553 129.31 61.0596C129.378 59.9803 129.205 58.8995 128.806 57.8944C128.345 56.7181 127.569 55.6912 126.564 54.9259C126.316 54.7415 126.057 54.5731 125.787 54.4219C125.661 54.3614 125.551 54.2908 125.44 54.2404L125.122 54.1094L124.845 53.9985L124.613 53.928L124.291 53.8322C124.254 53.8228 124.218 53.8093 124.185 53.7919H124.296L124.618 53.8725L124.86 53.938L125.137 54.0439L125.46 54.1699L125.813 54.3463C126.089 54.4969 126.355 54.6652 126.609 54.8503C126.904 55.0732 127.182 55.3175 127.441 55.5811C128.068 56.2315 128.564 56.9964 128.902 57.834C129.319 58.8506 129.503 59.9475 129.441 61.0444C129.429 61.3453 129.397 61.6449 129.346 61.9416C129.315 62.0928 129.3 62.244 129.265 62.3952C129.23 62.5464 129.184 62.6976 129.139 62.8488L129.079 63.0756L128.998 63.2973L128.827 63.7509L128.615 64.1894L128.509 64.4162L128.378 64.6279C127.678 65.8408 126.642 66.8247 125.394 67.4604C124.056 68.1626 122.513 68.3692 121.037 68.0436C119.562 67.7181 118.249 66.8813 117.33 65.6812C116.468 64.5768 115.943 63.2466 115.818 61.8508V61.6039V61.3569C115.818 61.1956 115.818 61.0293 115.818 60.8529C115.818 60.6765 115.818 60.5304 115.859 60.3489V60.112L115.894 59.8752C115.924 59.724 115.949 59.5677 115.975 59.4165C116 59.2653 116.055 59.1192 116.096 58.968C116.17 58.6773 116.266 58.3926 116.383 58.1162C116.789 57.0952 117.417 56.1775 118.222 55.4299C118.883 54.8129 119.657 54.3286 120.501 54.0036C120.846 53.8696 121.201 53.765 121.564 53.6911C121.868 53.6329 122.177 53.5958 122.486 53.5802C122.627 53.5802 122.758 53.5802 122.884 53.5802H123.232H123.53L123.771 53.6256L124.099 53.686L124.155 53.7868Z" fill="#263238"/>
<path id="Vector_49" d="M115.627 59.7945C115.627 59.8802 114.075 59.8399 112.205 60.1775C110.335 60.5152 108.894 61.0797 108.863 60.9991C109.141 60.7973 109.451 60.6455 109.781 60.5505C111.324 59.9714 112.961 59.6809 114.609 59.6937C114.951 59.6718 115.295 59.7058 115.627 59.7945Z" fill="#263238"/>
<path id="Vector_50" d="M137.879 59.7844C137.463 59.7871 137.047 59.7483 136.639 59.6685C135.883 59.5778 134.835 59.4568 133.676 59.3711C132.516 59.2854 131.463 59.2653 130.697 59.2502C130.283 59.2723 129.868 59.2537 129.457 59.1947C129.86 59.0901 130.276 59.0426 130.692 59.0536C131.7 59.0079 132.709 59.0213 133.716 59.0939C134.713 59.1633 135.706 59.2895 136.689 59.4719C137.097 59.5264 137.497 59.6314 137.879 59.7844Z" fill="#263238"/>
<path id="Vector_51" d="M138.031 88.0487C137.934 88.062 137.836 88.062 137.739 88.0487L136.907 87.9832L133.848 87.7514C131.267 87.5699 127.694 87.3935 123.768 87.3986C119.842 87.4036 116.248 87.5851 113.663 87.7715L110.608 88.0135L109.777 88.0739C109.68 88.0881 109.581 88.0881 109.484 88.0739C109.577 88.0412 109.674 88.0209 109.772 88.0135L110.598 87.8975C111.314 87.8018 112.357 87.6859 113.622 87.5699C116.203 87.328 119.786 87.1163 123.743 87.1113C127.699 87.1063 131.303 87.3129 133.858 87.5498C135.153 87.6657 136.191 87.7766 136.912 87.8723L137.739 87.9832C137.839 87.9918 137.937 88.0138 138.031 88.0487Z" fill="#263238"/>
<path id="Vector_52" d="M116.359 66.8757C116.359 66.916 116.188 66.9311 116.072 67.1277C116.038 67.1783 116.016 67.2355 116.006 67.2955C115.997 67.3555 116 67.4169 116.017 67.4754C116.042 67.5374 116.085 67.5905 116.141 67.6282C116.197 67.6658 116.262 67.6863 116.329 67.6871C116.396 67.6973 116.465 67.6874 116.527 67.6587C116.589 67.6301 116.641 67.5838 116.677 67.5258C116.702 67.4704 116.715 67.4103 116.715 67.3494C116.715 67.2886 116.702 67.2285 116.677 67.173C116.591 66.9614 116.425 66.921 116.435 66.8807C116.445 66.8404 116.667 66.8051 116.853 67.0773C116.906 67.1585 116.939 67.251 116.949 67.3473C116.96 67.4436 116.948 67.541 116.914 67.6317C116.863 67.7447 116.777 67.8384 116.669 67.8992C116.561 67.96 116.437 67.9846 116.314 67.9694C116.208 67.9637 116.106 67.9284 116.019 67.8673C115.932 67.8062 115.864 67.7219 115.823 67.624C115.782 67.5261 115.77 67.4186 115.787 67.3139C115.804 67.2092 115.85 67.1115 115.921 67.0319C116.143 66.7648 116.379 66.8404 116.359 66.8757Z" fill="#263238"/>
<path id="Vector_53" d="M122.356 70.1064C122.356 70.1518 122.185 70.1669 122.069 70.3634C122.036 70.4135 122.014 70.4699 122.005 70.5289C121.995 70.588 121.998 70.6483 122.013 70.7062C122.038 70.7695 122.08 70.824 122.136 70.8627C122.192 70.9013 122.258 70.9223 122.326 70.9229C122.394 70.9319 122.463 70.9209 122.524 70.8914C122.586 70.8619 122.638 70.815 122.673 70.7566C122.697 70.7017 122.709 70.6425 122.709 70.5827C122.709 70.5229 122.697 70.4637 122.673 70.4088C122.583 70.1971 122.416 70.1568 122.427 70.1165C122.437 70.0762 122.658 70.0409 122.845 70.313C122.897 70.3934 122.93 70.485 122.941 70.5805C122.951 70.6759 122.939 70.7725 122.905 70.8624C122.855 70.9758 122.769 71.0702 122.661 71.1318C122.554 71.1934 122.429 71.2191 122.306 71.2051C122.195 71.2037 122.087 71.1697 121.995 71.1073C121.903 71.0449 121.832 70.9568 121.79 70.8541C121.748 70.7514 121.737 70.6386 121.759 70.5298C121.781 70.4211 121.834 70.3211 121.912 70.2425C122.139 70.0006 122.376 70.056 122.356 70.1064Z" fill="#263238"/>
<path id="Vector_54" d="M128.974 67.3494C128.974 67.3948 128.808 67.4099 128.687 67.6065C128.654 67.6566 128.632 67.7129 128.623 67.772C128.613 67.831 128.616 67.8914 128.631 67.9492C128.657 68.0122 128.701 68.0661 128.758 68.1046C128.814 68.1431 128.88 68.1644 128.949 68.1659C129.016 68.1759 129.085 68.1654 129.146 68.1357C129.207 68.106 129.258 68.0586 129.291 67.9996C129.315 67.9447 129.327 67.8855 129.327 67.8257C129.327 67.7659 129.315 67.7067 129.291 67.6518C129.206 67.4402 129.034 67.3998 129.044 67.3545C129.055 67.3091 129.276 67.2839 129.463 67.5561C129.517 67.6355 129.552 67.727 129.563 67.8227C129.575 67.9184 129.563 68.0154 129.528 68.1054C129.476 68.2183 129.389 68.3119 129.281 68.3734C129.172 68.4348 129.047 68.4609 128.923 68.4482C128.8 68.443 128.681 68.3988 128.584 68.3218C128.487 68.2448 128.417 68.1391 128.384 68.0198C128.364 67.9255 128.367 67.8278 128.393 67.7349C128.418 67.642 128.465 67.5565 128.53 67.4855C128.757 67.2436 128.994 67.3192 128.974 67.3494Z" fill="#263238"/>
<path id="Vector_55" d="M131.125 62.4053C131.125 62.4456 130.954 62.4607 130.833 62.6573C130.801 62.7086 130.78 62.7661 130.771 62.8259C130.762 62.8857 130.766 62.9467 130.782 63.0051C130.807 63.0684 130.849 63.1229 130.905 63.1616C130.961 63.2002 131.027 63.2212 131.095 63.2218C131.162 63.2304 131.23 63.2193 131.291 63.1897C131.352 63.1602 131.403 63.1135 131.437 63.0555C131.461 63.0005 131.473 62.9414 131.473 62.8816C131.473 62.8218 131.461 62.7626 131.437 62.7077C131.352 62.496 131.185 62.4507 131.191 62.4103C131.196 62.37 131.422 62.3398 131.614 62.6119C131.667 62.6921 131.7 62.7838 131.711 62.8793C131.721 62.9748 131.709 63.0715 131.674 63.1613C131.623 63.2738 131.537 63.3671 131.429 63.4277C131.322 63.4884 131.197 63.5134 131.075 63.499C130.95 63.4941 130.831 63.4501 130.733 63.3731C130.635 63.2962 130.564 63.1903 130.53 63.0706C130.511 62.9763 130.514 62.8788 130.539 62.7859C130.565 62.693 130.612 62.6075 130.676 62.5363C130.903 62.2995 131.14 62.3751 131.125 62.4053Z" fill="#263238"/>
<path id="Vector_56" d="M114.171 61.9264C114.171 61.9667 113.999 61.9819 113.883 62.1784C113.851 62.2295 113.829 62.2867 113.82 62.3466C113.81 62.4064 113.813 62.4675 113.828 62.5262C113.853 62.5891 113.896 62.6433 113.951 62.6818C114.007 62.7204 114.073 62.7417 114.14 62.7429C114.208 62.7506 114.277 62.7391 114.338 62.7097C114.4 62.6803 114.452 62.6342 114.488 62.5766C114.513 62.522 114.526 62.4627 114.526 62.4027C114.526 62.3427 114.513 62.2834 114.488 62.2288C114.402 62.0171 114.236 61.9718 114.246 61.9314C114.256 61.8911 114.478 61.8609 114.665 62.133C114.718 62.2132 114.751 62.3049 114.761 62.4004C114.772 62.496 114.759 62.5926 114.725 62.6824C114.674 62.7954 114.589 62.8891 114.481 62.9499C114.373 63.0107 114.248 63.0353 114.125 63.0201C114.001 63.0152 113.881 62.9712 113.784 62.8942C113.686 62.8173 113.615 62.7114 113.581 62.5917C113.561 62.497 113.565 62.399 113.591 62.306C113.617 62.213 113.666 62.1277 113.732 62.0574C113.954 61.8206 114.191 61.8962 114.171 61.9264Z" fill="#263238"/>
<path id="Vector_57" d="M128.964 55.1426C128.964 55.1023 129.136 55.0872 129.251 54.8906C129.285 54.84 129.307 54.7828 129.317 54.7228C129.327 54.6628 129.323 54.6014 129.307 54.5429C129.281 54.4807 129.238 54.4272 129.182 54.3888C129.127 54.3504 129.062 54.3286 128.994 54.3261C128.927 54.3175 128.859 54.3286 128.798 54.3582C128.737 54.3877 128.686 54.4344 128.652 54.4925C128.625 54.5466 128.612 54.6061 128.612 54.6663C128.612 54.7266 128.625 54.786 128.652 54.8402C128.737 55.0519 128.904 55.0973 128.894 55.1376C128.884 55.1779 128.662 55.2081 128.475 54.936C128.422 54.8558 128.389 54.7641 128.379 54.6686C128.368 54.5731 128.381 54.4764 128.415 54.3866C128.466 54.2736 128.551 54.1799 128.659 54.1191C128.767 54.0583 128.892 54.0337 129.015 54.0489C129.125 54.0503 129.234 54.0843 129.325 54.1468C129.417 54.2092 129.488 54.2973 129.53 54.4C129.572 54.5027 129.583 54.6154 129.561 54.7242C129.539 54.833 129.486 54.9329 129.408 55.0116C129.181 55.2535 128.944 55.1729 128.964 55.1426Z" fill="#263238"/>
<path id="Vector_58" d="M122.346 52.2093C122.346 52.169 122.518 52.1539 122.634 51.9573C122.666 51.9062 122.688 51.849 122.697 51.7892C122.707 51.7294 122.704 51.6683 122.689 51.6096C122.662 51.547 122.618 51.4933 122.562 51.455C122.506 51.4166 122.44 51.395 122.372 51.3929C122.305 51.3842 122.236 51.3954 122.175 51.4249C122.115 51.4545 122.064 51.5011 122.029 51.5592C122.005 51.6141 121.993 51.6733 121.993 51.7331C121.993 51.7929 122.005 51.852 122.029 51.9069C122.115 52.1237 122.286 52.164 122.276 52.2043C122.266 52.2446 122.044 52.2799 121.858 52.0027C121.791 51.9133 121.752 51.8059 121.747 51.6944C121.741 51.5829 121.77 51.4724 121.828 51.377C121.885 51.2816 121.971 51.2057 122.072 51.1592C122.174 51.1126 122.287 51.0974 122.397 51.1157C122.521 51.1208 122.639 51.165 122.736 51.242C122.833 51.319 122.903 51.4248 122.936 51.5441C122.956 51.6383 122.953 51.7359 122.927 51.8287C122.902 51.9216 122.855 52.0071 122.79 52.0783C122.563 52.3202 122.326 52.2446 122.346 52.2093Z" fill="#263238"/>
<path id="Vector_59" d="M115.803 55.1426C115.803 55.1022 115.975 55.0871 116.091 54.8906C116.123 54.8395 116.145 54.7822 116.154 54.7224C116.164 54.6626 116.161 54.6015 116.146 54.5428C116.119 54.4802 116.075 54.4266 116.019 54.3882C115.963 54.3498 115.897 54.3283 115.829 54.3261C115.762 54.3175 115.693 54.3286 115.633 54.3581C115.572 54.3877 115.521 54.4343 115.486 54.4924C115.462 54.5473 115.45 54.6065 115.45 54.6663C115.45 54.7261 115.462 54.7853 115.486 54.8402C115.572 55.0518 115.743 55.0972 115.733 55.1375C115.723 55.1778 115.501 55.2081 115.315 54.9359C115.248 54.8465 115.209 54.7392 115.204 54.6277C115.198 54.5162 115.227 54.4056 115.285 54.3102C115.343 54.2148 115.428 54.1389 115.529 54.0924C115.631 54.0458 115.744 54.0307 115.854 54.0489C115.978 54.054 116.096 54.0983 116.193 54.1752C116.29 54.2522 116.36 54.358 116.393 54.4773C116.413 54.5715 116.41 54.6691 116.384 54.762C116.359 54.8548 116.312 54.9403 116.247 55.0115C116.02 55.2534 115.783 55.1728 115.803 55.1426Z" fill="#263238"/>
<path id="Vector_60" d="M121.51 79.4455L122.1 108.935C122.109 109.344 122.28 109.733 122.576 110.017C122.872 110.3 123.268 110.455 123.677 110.447C124.075 110.438 124.455 110.275 124.736 109.994C125.018 109.712 125.18 109.333 125.189 108.935C125.25 103.622 125.446 85.7506 125.477 79.4153C125.478 79.1294 125.417 78.8467 125.298 78.5866C125.18 78.3265 125.006 78.0951 124.79 77.9083C124.573 77.7216 124.319 77.5839 124.044 77.5047C123.77 77.4255 123.481 77.4068 123.198 77.4497C122.723 77.5216 122.29 77.7636 121.979 78.1306C121.669 78.4976 121.502 78.9648 121.51 79.4455Z" fill="#7400D3"/>
<g id="Group_5" opacity="0.3">
<path id="Vector_61" d="M121.51 79.4455L122.1 108.935C122.109 109.344 122.28 109.733 122.576 110.017C122.872 110.3 123.268 110.455 123.677 110.447C124.075 110.438 124.455 110.275 124.736 109.994C125.018 109.712 125.18 109.333 125.189 108.935C125.25 103.622 125.446 85.7506 125.477 79.4153C125.478 79.1294 125.417 78.8467 125.298 78.5866C125.18 78.3265 125.006 78.0951 124.79 77.9083C124.573 77.7216 124.319 77.5839 124.044 77.5047C123.77 77.4255 123.481 77.4068 123.198 77.4497C122.723 77.5216 122.29 77.7636 121.979 78.1306C121.669 78.4976 121.502 78.9648 121.51 79.4455Z" fill="black"/>
</g>
<path id="Vector_62" d="M122.422 25.5023C122.508 25.6031 121.53 26.5506 120.104 28.2138C119.388 29.0404 118.592 30.0686 117.75 31.2378C116.855 32.5209 116.031 33.8517 115.28 35.2245C114.549 36.6054 113.895 38.0254 113.32 39.4782C112.816 40.8239 112.388 42.0587 112.09 43.1121C111.49 45.2188 111.238 46.5594 111.082 46.5393C110.926 46.5191 111.027 45.1482 111.49 42.9659C111.768 41.6906 112.128 40.4347 112.569 39.2061C113.115 37.701 113.765 36.2359 114.514 34.8213C115.284 33.4217 116.147 32.0748 117.095 30.7893C117.878 29.744 118.728 28.7507 119.64 27.8157C121.228 26.2079 122.357 25.4267 122.422 25.5023Z" fill="white"/>
<path id="Vector_63" d="M108.749 80.3527C108.829 80.4787 107.433 81.3607 105.488 83.1852L104.737 83.9009C104.475 84.1529 104.233 84.4402 103.961 84.7174C103.411 85.2718 102.897 85.927 102.338 86.5973C101.17 88.0877 100.133 89.6761 99.2381 91.345C98.366 93.0277 97.6376 94.7811 97.0608 96.5866C96.8239 97.4232 96.5568 98.2195 96.4258 98.9806C96.3451 99.3636 96.2494 99.7265 96.1889 100.084C96.1284 100.442 96.073 100.78 96.0226 101.092C95.6295 103.718 95.6647 105.376 95.5186 105.381C95.4581 105.381 95.4027 104.973 95.3523 104.217C95.3523 104.026 95.3271 103.814 95.317 103.587C95.3069 103.36 95.317 103.108 95.317 102.841C95.3209 102.233 95.3562 101.626 95.4228 101.022C95.4581 100.684 95.4984 100.331 95.5387 99.9634C95.5791 99.5954 95.6647 99.2174 95.7303 98.8294C95.8563 98.0381 96.0831 97.2166 96.3099 96.3497C97.3797 92.59 99.2253 89.0961 101.728 86.0933C102.271 85.4399 102.846 84.8142 103.452 84.2184C103.734 83.9412 104.001 83.659 104.278 83.417L105.085 82.7266C105.547 82.3298 106.029 81.958 106.531 81.6127C106.748 81.4565 106.949 81.3053 107.141 81.1793L107.68 80.8567C108.36 80.4888 108.713 80.3023 108.749 80.3527Z" fill="white"/>
<path id="Vector_64" d="M87.0558 176.506C86.3778 176.121 85.8341 175.538 85.4978 174.835C85.1616 174.132 85.0491 173.343 85.1754 172.574C85.3018 171.805 85.6609 171.093 86.2044 170.534C86.7479 169.976 87.4497 169.597 88.215 169.45C89.596 169.178 91.3247 169.571 92.1916 168.442C92.9828 167.434 92.3881 166.103 92.7359 164.491C93.0836 162.878 94.4696 162.117 95.9968 162.137C96.7623 162.181 97.5041 162.419 98.1528 162.828C98.8015 163.237 99.336 163.804 99.7062 164.475C100.524 165.969 100.893 167.666 100.77 169.364C100.361 172.847 98.5016 174.631 96.1883 176.108C93.8749 177.584 89.4952 177.922 87.0558 176.476" fill="#7400D3"/>
<g id="Group_6" opacity="0.8">
<path id="Vector_65" d="M87.0558 176.506C86.3778 176.121 85.8341 175.538 85.4978 174.835C85.1616 174.132 85.0491 173.343 85.1754 172.574C85.3018 171.805 85.6609 171.093 86.2044 170.534C86.7479 169.976 87.4497 169.597 88.215 169.45C89.596 169.178 91.3247 169.571 92.1916 168.442C92.9828 167.434 92.3881 166.103 92.7359 164.491C93.0836 162.878 94.4696 162.117 95.9968 162.137C96.7623 162.181 97.5041 162.419 98.1528 162.828C98.8015 163.237 99.336 163.804 99.7062 164.475C100.524 165.969 100.893 167.666 100.77 169.364C100.361 172.847 98.5016 174.631 96.1883 176.108C93.8749 177.584 89.4952 177.922 87.0558 176.476" fill="white"/>
</g>
<path id="Vector_66" d="M143.599 148.589C144.161 147.515 145.038 146.638 146.112 146.076C147.186 145.513 148.406 145.293 149.609 145.444C150.812 145.594 151.941 146.109 152.843 146.919C153.745 147.729 154.378 148.795 154.657 149.975C155.161 152.117 154.657 154.829 156.436 156.124C158.054 157.298 160.1 156.285 162.641 156.729C165.181 157.172 166.451 159.289 166.506 161.678C166.562 164.067 165.1 166.335 163.079 167.605C160.799 168.969 158.174 169.648 155.519 169.561C150.061 169.132 147.163 166.335 144.718 162.817C142.274 159.299 141.488 152.48 143.599 148.589Z" fill="#7400D3"/>
<g id="Group_7" opacity="0.8">
<path id="Vector_67" d="M143.599 148.589C144.161 147.515 145.038 146.638 146.112 146.076C147.186 145.513 148.406 145.293 149.609 145.444C150.812 145.594 151.941 146.109 152.843 146.919C153.745 147.729 154.378 148.795 154.657 149.975C155.161 152.117 154.657 154.829 156.436 156.124C158.054 157.298 160.1 156.285 162.641 156.729C165.181 157.172 166.451 159.289 166.506 161.678C166.562 164.067 165.1 166.335 163.079 167.605C160.799 168.969 158.174 169.648 155.519 169.561C150.061 169.132 147.163 166.335 144.718 162.817C142.274 159.299 141.488 152.48 143.599 148.589Z" fill="white"/>
</g>
<path id="Vector_68" d="M102.871 141.443C102.264 141.755 101.754 142.229 101.399 142.812C101.043 143.395 100.855 144.066 100.855 144.749C100.881 145.508 101.15 146.238 101.624 146.832C102.098 147.425 102.75 147.85 103.484 148.043C104.219 148.236 104.996 148.187 105.7 147.903C106.404 147.62 106.998 147.116 107.394 146.468C107.789 145.819 107.965 145.061 107.894 144.305C107.824 143.549 107.512 142.835 107.004 142.271C106.496 141.707 105.82 141.321 105.075 141.172C104.331 141.023 103.558 141.118 102.871 141.443Z" fill="#7400D3"/>
<g id="Group_8" opacity="0.8">
<path id="Vector_69" d="M102.871 141.443C102.264 141.755 101.754 142.229 101.399 142.812C101.043 143.395 100.855 144.066 100.855 144.749C100.881 145.508 101.15 146.238 101.624 146.832C102.098 147.425 102.75 147.85 103.484 148.043C104.219 148.236 104.996 148.187 105.7 147.903C106.404 147.62 106.998 147.116 107.394 146.468C107.789 145.819 107.965 145.061 107.894 144.305C107.824 143.549 107.512 142.835 107.004 142.271C106.496 141.707 105.82 141.321 105.075 141.172C104.331 141.023 103.558 141.118 102.871 141.443Z" fill="white"/>
</g>
<path id="Vector_70" d="M156.457 183.708C156.154 183.865 155.9 184.103 155.723 184.394C155.545 184.685 155.45 185.02 155.449 185.361C155.461 185.742 155.596 186.109 155.833 186.407C156.07 186.705 156.398 186.919 156.766 187.016C157.134 187.113 157.524 187.089 157.878 186.947C158.231 186.804 158.529 186.552 158.728 186.226C158.926 185.901 159.014 185.52 158.979 185.141C158.943 184.762 158.786 184.404 158.531 184.121C158.276 183.838 157.936 183.645 157.563 183.57C157.189 183.496 156.801 183.544 156.457 183.708Z" fill="#7400D3"/>
<g id="Group_9" opacity="0.8">
<path id="Vector_71" d="M156.457 183.708C156.154 183.865 155.9 184.103 155.723 184.394C155.545 184.685 155.45 185.02 155.449 185.361C155.461 185.742 155.596 186.109 155.833 186.407C156.07 186.705 156.398 186.919 156.766 187.016C157.134 187.113 157.524 187.089 157.878 186.947C158.231 186.804 158.529 186.552 158.728 186.226C158.926 185.901 159.014 185.52 158.979 185.141C158.943 184.762 158.786 184.404 158.531 184.121C158.276 183.838 157.936 183.645 157.563 183.57C157.189 183.496 156.801 183.544 156.457 183.708Z" fill="white"/>
</g>
</g>
<g id="freepik--Button--inject-863">
<path id="Vector_72" d="M142.42 169.914H111.092C105.597 169.914 101.143 174.368 101.143 179.863V181.259C101.143 186.753 105.597 191.208 111.092 191.208H142.42C147.915 191.208 152.369 186.753 152.369 181.259V179.863C152.369 174.368 147.915 169.914 142.42 169.914Z" fill="#7400D3"/>
<path id="Vector_73" d="M116.459 181.969L116.807 181.198C117.235 181.495 117.742 181.657 118.263 181.662C118.868 181.662 119.115 181.46 119.115 181.188C119.115 180.361 116.545 180.926 116.545 179.288C116.545 178.537 117.155 177.912 118.409 177.912C118.939 177.904 119.461 178.038 119.921 178.3L119.609 179.076C119.237 178.859 118.815 178.741 118.384 178.733C117.774 178.733 117.543 178.96 117.543 179.237C117.543 180.049 120.113 179.489 120.113 181.112C120.113 181.848 119.498 182.483 118.238 182.483C117.607 182.494 116.987 182.315 116.459 181.969Z" fill="white"/>
<path id="Vector_74" d="M121.686 178.819H120.27V177.988H124.12V178.819H122.709V182.408H121.701L121.686 178.819Z" fill="white"/>
<path id="Vector_75" d="M127.355 181.44H125.304L124.916 182.388H123.867L125.833 177.968H126.841L128.816 182.388H127.743L127.355 181.44ZM127.032 180.664L126.332 178.97L125.631 180.664H127.032Z" fill="white"/>
<path id="Vector_76" d="M132.099 182.408L131.242 181.173H130.305V182.408H129.297V177.988H131.212C132.391 177.988 133.127 178.598 133.127 179.591C133.139 179.888 133.058 180.183 132.896 180.433C132.733 180.683 132.497 180.876 132.22 180.987L133.228 182.408H132.099ZM131.136 178.819H130.305V180.362H131.136C131.761 180.362 132.079 180.069 132.079 179.591C132.079 179.112 131.761 178.819 131.136 178.819Z" fill="white"/>
<path id="Vector_77" d="M134.769 178.819H133.357V177.988H137.208V178.819H135.792V182.408H134.784L134.769 178.819Z" fill="white"/>
</g>
<g id="freepik--Character--inject-863">
<path id="Vector_78" d="M204.211 231.21L210.168 233.302L210.103 239.027C207.25 239.834 206.852 241.275 206.852 241.275L212.814 241.139L218 230.59L213.898 227.909L206.227 224.552" fill="#7400D3"/>
<g id="Group_10" opacity="0.6">
<path id="Vector_79" d="M218 230.59L212.814 241.139L206.852 241.275L207.502 240.363L212.345 239.985L217.128 230.021L218 230.59Z" fill="white"/>
</g>
<path id="Vector_80" d="M210.082 236.406C210.127 236.467 210.465 236.26 210.929 236.265C211.392 236.27 211.73 236.452 211.775 236.391C211.821 236.331 211.488 235.993 210.929 236.003C210.369 236.013 210.027 236.376 210.082 236.406Z" fill="#263238"/>
<path id="Vector_81" d="M210.168 234.985C210.228 235.025 210.485 234.667 210.959 234.562C211.433 234.456 211.816 234.667 211.851 234.607C211.886 234.546 211.801 234.481 211.634 234.39C211.406 234.282 211.148 234.253 210.901 234.309C210.654 234.364 210.433 234.501 210.274 234.698C210.138 234.864 210.117 234.965 210.168 234.985Z" fill="#263238"/>
<path id="Vector_82" d="M210.068 233.16C210.133 233.191 210.33 232.843 210.743 232.692C211.156 232.541 211.529 232.667 211.559 232.596C211.59 232.525 211.494 232.485 211.328 232.43C211.106 232.354 210.865 232.358 210.646 232.441C210.428 232.524 210.244 232.68 210.128 232.883C210.042 233.034 210.037 233.15 210.068 233.16Z" fill="#263238"/>
<path id="Vector_83" d="M209.629 233.156C209.705 233.156 209.659 232.762 209.836 232.359C210.012 231.956 210.304 231.724 210.269 231.659C210.234 231.593 209.805 231.759 209.594 232.258C209.382 232.757 209.564 233.191 209.629 233.156Z" fill="#263238"/>
<path id="Vector_84" d="M208.923 232.485C209.011 232.227 209.059 231.957 209.064 231.684C209.089 231.397 209.115 231.109 209.145 230.812C209.17 230.628 209.17 230.442 209.145 230.258C209.114 230.136 209.038 230.029 208.933 229.96C208.873 229.921 208.802 229.899 208.729 229.899C208.657 229.899 208.586 229.921 208.525 229.96C208.364 230.1 208.247 230.284 208.187 230.489C208.126 230.663 208.091 230.845 208.081 231.029C208.064 231.337 208.117 231.646 208.238 231.931C208.449 232.435 208.742 232.591 208.742 232.571C208.61 232.343 208.493 232.107 208.389 231.865C208.305 231.602 208.274 231.324 208.298 231.049C208.316 230.889 208.353 230.731 208.409 230.58C208.454 230.427 208.537 230.288 208.651 230.177C208.669 230.163 208.691 230.156 208.714 230.156C208.737 230.156 208.759 230.163 208.777 230.177C208.826 230.208 208.862 230.257 208.878 230.313C208.896 230.47 208.896 230.629 208.878 230.787C208.878 231.084 208.878 231.376 208.853 231.664C208.832 231.94 208.856 232.217 208.923 232.485Z" fill="#263238"/>
<path id="Vector_85" d="M208.826 232.747C208.851 232.747 208.675 232.47 208.216 232.319C207.907 232.225 207.575 232.233 207.27 232.342C206.965 232.451 206.703 232.655 206.523 232.923C206.51 232.962 206.505 233.002 206.509 233.042C206.514 233.082 206.527 233.121 206.548 233.155C206.585 233.213 206.64 233.257 206.704 233.281C206.795 233.314 206.89 233.333 206.987 233.337C207.154 233.353 207.323 233.353 207.491 233.337C207.762 233.312 208.027 233.244 208.277 233.135C208.705 232.949 208.902 232.732 208.882 232.712C208.861 232.692 208.63 232.833 208.216 232.964C207.975 233.041 207.724 233.085 207.47 233.095C207.325 233.107 207.178 233.107 207.032 233.095C206.963 233.09 206.896 233.076 206.83 233.055C206.78 233.024 206.795 233.029 206.795 233.014C206.823 232.959 206.862 232.911 206.911 232.873C206.965 232.82 207.024 232.773 207.087 232.732C207.204 232.65 207.334 232.587 207.47 232.545C207.704 232.475 207.952 232.462 208.191 232.51C208.408 232.574 208.62 232.653 208.826 232.747Z" fill="#263238"/>
<g id="Group_11" opacity="0.6">
<path id="Vector_86" d="M213.242 230.52C213.244 230.612 213.265 230.704 213.302 230.789C213.339 230.873 213.393 230.95 213.46 231.014C213.527 231.078 213.606 231.129 213.692 231.162C213.778 231.196 213.87 231.212 213.963 231.21C214.056 231.208 214.147 231.188 214.232 231.151C214.317 231.113 214.393 231.06 214.458 230.993C214.522 230.926 214.572 230.847 214.606 230.761C214.639 230.674 214.656 230.582 214.654 230.489C214.652 230.397 214.631 230.305 214.594 230.221C214.557 230.136 214.503 230.059 214.436 229.995C214.369 229.931 214.29 229.881 214.204 229.847C214.118 229.813 214.025 229.797 213.933 229.799C213.84 229.801 213.749 229.821 213.664 229.858C213.579 229.896 213.502 229.949 213.438 230.016C213.374 230.083 213.324 230.162 213.29 230.249C213.257 230.335 213.24 230.427 213.242 230.52Z" fill="white"/>
</g>
<path id="Vector_87" d="M173.648 228.816L173.729 236.618C173.729 236.618 165.821 239.324 165.695 240.766L180.815 241.154L181.188 228.987L173.648 228.816Z" fill="#7400D3"/>
<g id="Group_12" opacity="0.6">
<path id="Vector_88" d="M178.415 236.084C178.559 236.132 178.68 236.232 178.755 236.364C178.83 236.496 178.855 236.651 178.823 236.799C178.78 236.945 178.683 237.068 178.552 237.145C178.421 237.222 178.266 237.246 178.118 237.213C177.965 237.161 177.836 237.055 177.756 236.914C177.677 236.774 177.651 236.61 177.684 236.452C177.745 236.303 177.861 236.184 178.007 236.119C178.154 236.055 178.32 236.049 178.47 236.104" fill="white"/>
</g>
<g id="Group_13" opacity="0.6">
<path id="Vector_89" d="M180.836 241.154V239.924L166.326 240.015C166.326 240.015 165.64 240.287 165.706 240.766L180.836 241.154Z" fill="white"/>
</g>
<path id="Vector_90" d="M173.481 236.537C173.481 236.608 173.854 236.653 174.211 236.9C174.569 237.147 174.751 237.465 174.821 237.434C174.892 237.404 174.791 236.976 174.353 236.688C173.914 236.401 173.471 236.467 173.481 236.537Z" fill="#263238"/>
<path id="Vector_91" d="M171.863 237.152C171.863 237.223 172.161 237.359 172.403 237.656C172.644 237.953 172.71 238.306 172.786 238.306C172.861 238.306 172.917 237.888 172.609 237.495C172.302 237.102 171.863 237.082 171.863 237.152Z" fill="#263238"/>
<path id="Vector_92" d="M170.927 239.027C170.997 239.027 171.108 238.679 170.927 238.271C170.745 237.863 170.423 237.691 170.372 237.767C170.322 237.843 170.549 238.049 170.695 238.387C170.841 238.724 170.856 239.022 170.927 239.027Z" fill="#263238"/>
<path id="Vector_93" d="M173.663 234.753C173.693 234.824 174.031 234.753 174.449 234.753C174.867 234.753 175.19 234.935 175.23 234.869C175.27 234.804 174.963 234.537 174.469 234.496C173.975 234.456 173.627 234.698 173.663 234.753Z" fill="#263238"/>
<g id="Group_14" opacity="0.3">
<path id="Vector_94" d="M173.662 230.358L173.677 231.749L181.116 231.875L181.157 230.62L173.662 230.358Z" fill="black"/>
</g>
<path id="Vector_95" d="M173.674 233.181C173.923 233.25 174.186 233.25 174.435 233.181C174.708 233.14 174.976 233.065 175.231 232.959C175.384 232.895 175.532 232.821 175.675 232.737C175.761 232.694 175.84 232.636 175.907 232.566C175.957 232.515 175.988 232.448 175.997 232.377C176.005 232.306 175.989 232.234 175.952 232.173C175.916 232.121 175.869 232.078 175.814 232.048C175.759 232.017 175.697 232 175.634 231.996C175.538 231.994 175.441 232.005 175.347 232.027C175.185 232.062 175.026 232.112 174.873 232.178C174.615 232.286 174.375 232.434 174.163 232.616C173.8 232.934 173.659 233.206 173.699 233.221C173.739 233.236 173.911 233.019 174.274 232.762C174.485 232.611 174.715 232.489 174.959 232.399C175.102 232.346 175.248 232.303 175.398 232.273C175.559 232.238 175.695 232.238 175.735 232.314C175.776 232.389 175.735 232.349 175.735 232.394C175.686 232.446 175.628 232.489 175.564 232.52C175.428 232.606 175.292 232.677 175.161 232.742C174.921 232.85 174.674 232.938 174.42 233.004C174.167 233.043 173.917 233.102 173.674 233.181Z" fill="#263238"/>
<path id="Vector_96" d="M173.77 233.291C173.916 233.076 173.992 232.821 173.986 232.561C174.009 232.281 173.982 231.999 173.906 231.729C173.863 231.568 173.802 231.413 173.724 231.265C173.686 231.164 173.623 231.074 173.54 231.004C173.457 230.934 173.357 230.887 173.25 230.867C173.183 230.867 173.116 230.886 173.059 230.923C173.002 230.96 172.956 231.012 172.928 231.074C172.888 231.161 172.859 231.252 172.842 231.346C172.818 231.513 172.818 231.683 172.842 231.85C172.874 232.135 172.978 232.408 173.145 232.641C173.432 233.039 173.734 233.145 173.744 233.11C173.755 233.075 173.513 232.924 173.296 232.54C173.172 232.32 173.097 232.076 173.074 231.825C173.063 231.678 173.071 231.531 173.099 231.386C173.13 231.225 173.19 231.099 173.25 231.114C173.311 231.129 173.452 231.24 173.513 231.371C173.582 231.504 173.641 231.642 173.689 231.784C173.766 232.031 173.808 232.287 173.815 232.546C173.815 233.004 173.729 233.276 173.77 233.291Z" fill="#263238"/>
<path id="Vector_97" d="M208.838 224.839L191.404 218.358L209.73 215.783L210.652 206.857L176.385 209.845L171.547 216.816L172.817 225.555L206.207 234.042L208.838 224.839Z" fill="#263238"/>
<path id="Vector_98" d="M171.864 231.084L170.195 199.181C170.241 197.653 170.676 196.162 171.459 194.85C172.242 193.537 173.348 192.447 174.671 191.681C175.77 191.044 176.993 190.647 178.257 190.518C179.521 190.388 180.798 190.529 182.004 190.93L204.235 198.344L216.437 201.484C216.437 201.484 218.519 206.61 217.294 210.591C216.1 214.492 211.826 217.088 208.066 215.974C203.394 214.588 181.954 205.39 181.954 205.39V231.336L171.864 231.084Z" fill="#263238"/>
<path id="Vector_99" d="M207.754 216.055L207.623 216.015L207.24 215.868L205.783 215.284L200.436 213.101L182.821 205.834L181.924 205.461L182.07 205.365C182.07 212.587 182.045 219.074 182.035 223.776C182.035 226.11 182.035 228 182.004 229.32C182.004 229.96 182.004 230.464 182.004 230.832C182.004 230.993 182.004 231.124 182.004 231.22C182.012 231.265 182.012 231.311 182.004 231.356C182 231.311 182 231.266 182.004 231.22V230.832C182.004 230.474 182.004 229.97 182.004 229.32C182.004 228 182.004 226.11 181.974 223.776C181.974 219.074 181.974 212.587 181.944 205.365V205.214L182.085 205.269L182.982 205.642L200.572 212.965L205.813 215.208L207.255 215.828L207.628 215.994L207.754 216.055Z" fill="#455A64"/>
<path id="Vector_100" d="M187.221 216.095C188.833 216.377 190.304 217.192 191.399 218.409C191.354 218.454 190.563 217.718 189.383 217.078C188.204 216.438 187.201 216.156 187.221 216.095Z" fill="#455A64"/>
<path id="Vector_101" d="M180.029 201.051C180.508 201.72 180.904 202.444 181.208 203.208C181.572 203.944 181.85 204.721 182.035 205.521C181.979 205.521 181.571 204.513 181.027 203.294C180.482 202.074 179.978 201.096 180.029 201.051Z" fill="#455A64"/>
<path id="Vector_102" d="M180.078 186.994L176.147 186.258L172.02 190.472L172.781 193.158L177.594 191.384L180.078 186.994Z" fill="#FFBE9D"/>
<path id="Vector_103" d="M143.755 177.378L148.226 176.37L155.423 177.494L155.146 182.085C155.146 182.085 152.913 182.408 152.122 182.146C151.645 181.989 151.133 181.979 150.65 182.115C150.65 182.115 151.089 183.018 150.333 183.164C149.577 183.31 148.342 183.627 148.11 182.559C147.92 182.571 147.732 182.516 147.578 182.403C147.425 182.291 147.315 182.129 147.268 181.944C147.268 181.944 146.684 182.156 146.422 181.133C146.16 180.11 146.311 178.572 148.332 178.083C148.438 178.058 148.488 177.816 148.286 177.826L145.091 178.426C145.091 178.426 142.944 178.522 143.755 177.378Z" fill="#FFBE9D"/>
<path id="Vector_104" d="M147.56 180.578C147.808 180.502 148.063 180.456 148.322 180.442C148.602 180.4 148.885 180.375 149.168 180.366C149.264 180.368 149.359 180.39 149.446 180.431C149.532 180.472 149.61 180.531 149.672 180.603C149.735 180.693 149.77 180.798 149.776 180.906C149.781 181.015 149.756 181.123 149.702 181.218C149.597 181.369 149.462 181.497 149.305 181.593C149.148 181.69 148.973 181.752 148.79 181.778C148.519 181.855 148.243 181.915 147.964 181.959C147.707 182.009 147.444 182.009 147.188 181.959C147.434 181.892 147.685 181.84 147.938 181.803C148.17 181.752 148.442 181.682 148.74 181.586C148.891 181.548 149.039 181.5 149.183 181.44C149.328 181.371 149.449 181.26 149.531 181.122C149.568 181.061 149.588 180.99 149.588 180.918C149.588 180.846 149.568 180.776 149.531 180.714C149.437 180.609 149.304 180.546 149.163 180.538C148.876 180.538 148.579 180.568 148.342 180.573C148.082 180.608 147.82 180.609 147.56 180.578Z" fill="#EB996E"/>
<path id="Vector_105" d="M148.327 179.59C148.327 179.646 148.105 179.762 147.934 180.029C147.762 180.296 147.737 180.558 147.682 180.563C147.626 180.568 147.556 180.24 147.773 179.918C147.989 179.595 148.327 179.54 148.327 179.59Z" fill="#EB996E"/>
<path id="Vector_106" d="M149.557 181.228C149.557 181.228 149.603 181.228 149.673 181.228C149.744 181.228 149.824 181.374 149.885 181.47C149.933 181.544 149.964 181.627 149.977 181.714C149.99 181.801 149.984 181.89 149.961 181.974C149.925 182.075 149.863 182.164 149.782 182.233C149.7 182.302 149.602 182.349 149.497 182.367C149.176 182.467 148.847 182.541 148.514 182.589C148.257 182.614 148.096 182.589 148.096 182.564C148.096 182.539 148.252 182.513 148.494 182.453C148.736 182.393 149.068 182.287 149.441 182.186C149.518 182.174 149.59 182.143 149.651 182.097C149.713 182.05 149.762 181.989 149.794 181.919C149.843 181.798 149.843 181.662 149.794 181.541C149.734 181.415 149.714 181.334 149.663 181.294C149.613 181.253 149.547 181.238 149.557 181.228Z" fill="#EB996E"/>
<path id="Vector_107" d="M149.854 182.01C149.854 182.01 149.904 181.919 150.045 181.899C150.223 181.887 150.4 181.933 150.549 182.03C150.626 182.084 150.689 182.154 150.733 182.236C150.778 182.319 150.803 182.41 150.806 182.504C150.806 182.635 150.806 182.715 150.761 182.715C150.715 182.715 150.71 182.64 150.67 182.529C150.635 182.396 150.557 182.279 150.448 182.196C150.327 182.117 150.192 182.062 150.05 182.035C149.939 182.015 149.869 182.035 149.854 182.01Z" fill="#EB996E"/>
<path id="Vector_108" d="M152.082 178.441L150.066 179.243L148.176 180.583C148.176 180.583 148.176 181.047 149.249 180.875C149.925 180.762 150.57 180.512 151.144 180.14C151.144 180.14 152.55 181.027 153.795 180.82" fill="#FFBE9D"/>
<path id="Vector_109" d="M153.776 180.82C153.776 180.82 153.71 180.845 153.579 180.87C153.388 180.892 153.196 180.892 153.005 180.87C152.323 180.786 151.667 180.56 151.08 180.205H151.17C150.466 180.681 149.645 180.956 148.796 181.001C148.653 181.006 148.51 180.986 148.373 180.941C148.292 180.917 148.219 180.87 148.164 180.805C148.108 180.741 148.072 180.662 148.061 180.578V180.533L148.101 180.503L150.016 179.172C150.636 178.935 151.145 178.744 151.503 178.618C151.685 178.54 151.874 178.481 152.067 178.441C151.898 178.545 151.719 178.633 151.533 178.703C151.185 178.854 150.686 179.066 150.072 179.318L148.176 180.674L148.217 180.593C148.217 180.654 148.302 180.739 148.403 180.775C148.519 180.813 148.64 180.83 148.761 180.825C149.573 180.779 150.358 180.522 151.039 180.079L151.09 180.049H151.135C151.699 180.401 152.325 180.642 152.98 180.76C153.243 180.799 153.509 180.819 153.776 180.82Z" fill="#EB996E"/>
<path id="Vector_110" d="M149.147 178.34C149.147 178.396 148.91 178.391 148.679 178.25C148.447 178.109 148.331 177.902 148.371 177.872C148.411 177.841 148.573 177.962 148.774 178.083C148.976 178.204 149.183 178.29 149.147 178.34Z" fill="#EB996E"/>
<path id="Vector_111" d="M155.035 183.3L172.101 185.779C173.796 186.315 175.634 186.161 177.216 185.351L192.417 177.554L187.881 167.52C187.294 167.72 186.721 167.961 186.167 168.24L173.663 177.252L155.519 176.617L155.035 183.3Z" fill="#7400D3"/>
<path id="Vector_112" d="M216.11 201.408L215.021 199.498L203.389 196.585L204.76 198.954L216.11 201.408Z" fill="#FFBE9D"/>
<path id="Vector_113" d="M187.865 167.52C187.865 167.923 186.156 180.553 186.156 183.144C186.156 185.734 191.095 188.521 191.095 188.521L196.503 200.007H215.771L209.184 187.639L206.205 177.731C205.076 173.981 205.197 172.04 202.4 169.294L197.012 165.665L187.865 167.52Z" fill="#7400D3"/>
<path id="Vector_114" d="M193.46 177.488L196.695 191.066L180.376 186.48L177.594 191.399L198.827 201.066C200.097 201.643 201.528 201.757 202.874 201.389C204.219 201.021 205.392 200.193 206.191 199.05C206.684 198.344 207.019 197.54 207.173 196.693C207.327 195.845 207.296 194.975 207.083 194.141L202.33 175.568C202.176 174.963 201.899 174.395 201.515 173.902C201.132 173.409 200.65 173 200.101 172.701C199.553 172.403 198.948 172.221 198.325 172.167C197.703 172.113 197.076 172.188 196.484 172.388C195.451 172.734 194.578 173.439 194.023 174.376C193.468 175.312 193.268 176.417 193.46 177.488Z" fill="#7400D3"/>
<path id="Vector_115" d="M191.399 189.151C191.259 188.893 191.09 188.651 190.895 188.43C190.775 188.37 190.603 188.279 190.391 188.153C189.768 187.802 189.17 187.406 188.602 186.969C187.733 186.335 187.013 185.518 186.496 184.575C185.992 183.446 185.992 182.055 186.198 180.694C186.405 179.333 186.702 178.043 186.843 176.859C186.984 175.674 187.151 174.611 187.216 173.714C187.282 172.816 187.297 172.086 187.297 171.582C187.297 171.078 187.297 170.795 187.297 170.795C187.317 170.861 187.329 170.929 187.332 170.997C187.332 171.128 187.362 171.325 187.378 171.577C187.415 172.292 187.415 173.008 187.378 173.724C187.332 174.626 187.221 175.704 187.05 176.889C186.879 178.073 186.617 179.363 186.42 180.724C186.223 182.085 186.198 183.421 186.682 184.494C187.179 185.415 187.866 186.219 188.698 186.853C189.254 187.296 189.835 187.709 190.437 188.088C190.817 188.384 191.143 188.743 191.399 189.151Z" fill="#263238"/>
<path id="Vector_116" d="M197.889 166.562C197.805 166.685 197.705 166.797 197.592 166.895C197.395 167.096 197.088 167.399 196.73 167.726C195.989 168.417 194.936 169.344 193.706 170.312C192.476 171.279 191.367 172.106 190.531 172.681C190.113 172.968 189.77 173.185 189.523 173.341C189.403 173.428 189.272 173.501 189.135 173.558C189.239 173.452 189.354 173.358 189.477 173.275L190.44 172.56C191.252 171.96 192.37 171.118 193.575 170.15C194.78 169.183 195.843 168.281 196.599 167.63L197.506 166.844C197.622 166.735 197.751 166.641 197.889 166.562Z" fill="#263238"/>
<path id="Vector_117" d="M193.459 177.489C193.494 177.573 193.521 177.661 193.54 177.751C193.59 177.939 193.656 178.191 193.736 178.507C193.908 179.187 194.144 180.145 194.442 181.339C195.032 183.769 195.853 187.155 196.79 191.041L196.831 191.208L196.67 191.162L192.527 190.008L180.375 186.556L180.461 186.52L178.4 190.099L177.825 191.067L177.674 191.313C177.638 191.374 177.618 191.399 177.613 191.399C177.623 191.366 177.637 191.334 177.654 191.303L177.79 191.046L178.324 190.038L180.34 186.425L180.37 186.374H180.426L192.592 189.771L196.755 190.951L196.629 191.067C195.717 187.176 194.921 183.784 194.346 181.349C194.074 180.15 193.842 179.182 193.701 178.502C193.63 178.179 193.575 177.927 193.535 177.736C193.503 177.655 193.478 177.573 193.459 177.489Z" fill="#263238"/>
<path id="Vector_118" d="M202.4 176.642C202.438 176.717 202.465 176.797 202.481 176.879C202.531 177.055 202.592 177.277 202.673 177.554L203.328 180.074C203.867 182.211 204.608 185.114 205.419 188.345C205.818 189.963 206.211 191.5 206.543 192.911C206.874 194.159 206.978 195.457 206.851 196.742C206.748 197.611 206.437 198.443 205.944 199.166C205.766 199.432 205.545 199.665 205.288 199.856C205.499 199.624 205.694 199.378 205.873 199.12C206.335 198.397 206.622 197.575 206.71 196.721C206.811 195.454 206.692 194.178 206.357 192.952C206.004 191.55 205.621 190.013 205.218 188.416L203.202 180.13L202.607 177.61L202.456 176.924C202.429 176.832 202.411 176.738 202.4 176.642Z" fill="#263238"/>
<g id="Group_15" opacity="0.3">
<path id="Vector_119" d="M205.364 199.997C207.753 200.214 209.139 198.853 209.396 196.973C209.452 195.938 209.269 194.903 208.862 193.949C207.395 189.655 205.913 185.326 203.59 181.425C204.467 185.326 205.606 189.07 206.468 192.971C206.746 194.056 206.87 195.174 206.836 196.293C206.781 197.658 206.262 198.963 205.364 199.992" fill="black"/>
</g>
<path id="Vector_120" d="M185.774 180.432C185.407 180.121 185.082 179.763 184.807 179.368C184.103 178.449 183.503 177.456 183.017 176.405C182.531 175.352 182.164 174.248 181.924 173.114C181.803 172.648 181.742 172.169 181.742 171.688C181.888 172.141 182.009 172.602 182.105 173.068C182.394 174.175 182.778 175.254 183.254 176.294C183.733 177.33 184.303 178.322 184.958 179.258C185.472 179.998 185.804 180.432 185.774 180.432Z" fill="#FAFAFA"/>
<path id="Vector_121" d="M181.096 183.219C180.804 182.882 180.547 182.516 180.33 182.125C179.887 181.43 179.322 180.452 178.707 179.348C178.093 178.245 177.599 177.227 177.256 176.481C177.045 176.088 176.876 175.674 176.752 175.246C177.006 175.609 177.226 175.995 177.407 176.4L178.919 179.222C179.499 180.281 180.028 181.238 180.466 182.03C180.711 182.407 180.922 182.805 181.096 183.219Z" fill="#FAFAFA"/>
<path id="Vector_122" d="M174.661 185.729C174.315 184.403 174.052 183.056 173.875 181.697C173.613 180.35 173.436 178.989 173.346 177.62C173.692 178.946 173.955 180.292 174.132 181.652C174.397 182.998 174.574 184.36 174.661 185.729Z" fill="#FAFAFA"/>
<path id="Vector_123" d="M168.934 185.341C168.843 184.965 168.799 184.579 168.803 184.192C168.758 183.476 168.733 182.488 168.758 181.395C168.783 180.301 168.859 179.318 168.934 178.607C168.949 178.22 169.012 177.836 169.121 177.463C169.163 177.847 169.163 178.234 169.121 178.618C169.091 179.333 169.05 180.316 169.02 181.4C168.99 182.483 168.99 183.471 168.99 184.187C169.015 184.572 168.997 184.96 168.934 185.341Z" fill="#FAFAFA"/>
<path id="Vector_124" d="M163.205 177.005C163.295 177.354 163.343 177.713 163.347 178.073C163.397 178.739 163.427 179.661 163.412 180.679C163.397 181.697 163.326 182.619 163.251 183.28C163.238 183.642 163.177 184.002 163.069 184.348C162.994 184.348 163.115 182.7 163.145 180.674C163.175 178.648 163.125 177.01 163.205 177.005Z" fill="#FAFAFA"/>
<path id="Vector_125" d="M158.498 177.61C158.534 178.637 158.485 179.665 158.352 180.684C158.305 181.71 158.169 182.731 157.943 183.733C157.953 181.68 158.138 179.631 158.498 177.61Z" fill="#FAFAFA"/>
<path id="Vector_126" d="M186.868 172.948C186.792 172.948 186.49 172.131 185.976 171.174C185.462 170.216 184.968 169.49 185.008 169.445C185.973 170.394 186.623 171.617 186.868 172.948Z" fill="#FAFAFA"/>
<path id="Vector_127" d="M195.739 186.662C195.612 186.701 195.478 186.717 195.345 186.707C194.984 186.722 194.622 186.713 194.262 186.682C193.07 186.59 191.897 186.329 190.779 185.906C189.658 185.489 188.601 184.918 187.639 184.207C187.348 183.992 187.071 183.76 186.808 183.512C186.621 183.335 186.525 183.234 186.541 183.219C186.556 183.204 186.999 183.552 187.745 184.056C189.706 185.375 191.951 186.213 194.297 186.5C195.174 186.611 195.739 186.616 195.739 186.662Z" fill="#FAFAFA"/>
<path id="Vector_128" d="M193.899 180.225C193.546 180.241 193.192 180.202 192.851 180.109C192.015 179.952 191.191 179.733 190.386 179.454C189.58 179.18 188.797 178.843 188.043 178.446C187.717 178.305 187.413 178.119 187.141 177.892C187.181 177.821 188.602 178.562 190.472 179.202C192.342 179.842 193.914 180.15 193.899 180.225Z" fill="#FAFAFA"/>
<path id="Vector_129" d="M192.831 175.599C191.92 175.656 191.007 175.51 190.16 175.171C189.313 174.832 188.552 174.308 187.932 173.638C189.374 174.693 191.059 175.367 192.831 175.599Z" fill="#FAFAFA"/>
<path id="Vector_130" d="M200.375 172.303C200.349 172.343 199.956 172.076 199.241 171.874C198.308 171.615 197.319 171.652 196.408 171.98C195.503 172.326 194.731 172.949 194.201 173.759C193.787 174.379 193.666 174.838 193.621 174.823C193.665 174.406 193.808 174.007 194.039 173.658C194.552 172.772 195.357 172.092 196.316 171.734C197.275 171.377 198.329 171.364 199.296 171.698C199.699 171.811 200.068 172.018 200.375 172.303Z" fill="#FAFAFA"/>
<path id="Vector_131" d="M201.266 178.492C201.01 178.705 200.721 178.875 200.41 178.996C198.954 179.628 197.38 179.94 195.793 179.913C195.465 179.933 195.136 179.895 194.82 179.802C194.82 179.721 196.332 179.802 198.096 179.444C199.86 179.086 201.231 178.416 201.266 178.492Z" fill="#FAFAFA"/>
<path id="Vector_132" d="M203.848 186.258C202.685 186.504 201.506 186.664 200.32 186.737C199.138 186.895 197.945 186.968 196.752 186.954C197.914 186.706 199.094 186.546 200.28 186.475C201.463 186.317 202.655 186.244 203.848 186.258Z" fill="#FAFAFA"/>
<path id="Vector_133" d="M206.135 197.019C205.997 197.014 205.861 196.987 205.732 196.938C205.374 196.839 205.022 196.72 204.678 196.58C203.538 196.122 202.449 195.546 201.427 194.862C200.412 194.179 199.433 193.444 198.494 192.659C198.087 192.359 197.709 192.021 197.365 191.651C197.792 191.909 198.197 192.202 198.575 192.528C199.326 193.088 200.359 193.869 201.543 194.655C202.554 195.327 203.616 195.918 204.719 196.424C205.58 196.792 206.135 196.978 206.135 197.019Z" fill="#FAFAFA"/>
<path id="Vector_134" d="M193.904 198.657C193.819 198.281 193.792 197.896 193.823 197.512C193.862 195.657 194.306 193.832 195.123 192.165C195.27 191.811 195.471 191.481 195.718 191.187C195.212 192.372 194.784 193.59 194.438 194.831C194.178 196.094 194 197.371 193.904 198.657Z" fill="#FAFAFA"/>
<path id="Vector_135" d="M187.759 195.365C187.563 193.251 188.21 191.145 189.558 189.504C189.085 190.421 188.674 191.369 188.328 192.341C188.068 193.335 187.878 194.345 187.759 195.365Z" fill="#FAFAFA"/>
<path id="Vector_136" d="M184.333 187.322C183.624 188.165 182.996 189.072 182.458 190.033C181.998 191.034 181.635 192.078 181.374 193.148C181.34 192.81 181.365 192.469 181.45 192.14C181.601 191.357 181.861 190.599 182.221 189.887C182.582 189.176 183.042 188.519 183.587 187.937C183.799 187.691 184.052 187.483 184.333 187.322Z" fill="#FAFAFA"/>
<path id="Vector_137" d="M206.972 180.281C206.595 180.752 206.101 181.117 205.54 181.34C204.979 181.562 204.369 181.635 203.771 181.551C203.771 181.47 204.558 181.45 205.44 181.092C206.322 180.734 206.916 180.225 206.972 180.281Z" fill="#FAFAFA"/>
<path id="Vector_138" d="M204.663 173.21C204.49 173.716 204.16 174.154 203.721 174.46C203.335 174.832 202.838 175.069 202.305 175.135C202.305 175.064 202.909 174.787 203.555 174.253C204.2 173.719 204.623 173.164 204.663 173.21Z" fill="#FAFAFA"/>
<path id="Vector_139" d="M196.434 168.502C196.881 168.767 197.233 169.166 197.442 169.641C197.727 170.078 197.873 170.592 197.86 171.113C197.784 171.113 197.603 170.483 197.21 169.767C196.817 169.052 196.383 168.553 196.434 168.502Z" fill="#FAFAFA"/>
<path id="Vector_140" d="M208.655 186.939C208.216 187.332 207.677 187.597 207.098 187.705C206.541 187.893 205.942 187.922 205.369 187.79C205.369 187.715 206.135 187.685 207.032 187.448C207.929 187.211 208.625 186.873 208.655 186.939Z" fill="#FAFAFA"/>
<path id="Vector_141" d="M212.184 193.143C210.367 193.472 208.523 193.627 206.676 193.607C207.576 193.399 208.494 193.278 209.418 193.244C210.334 193.119 211.261 193.085 212.184 193.143Z" fill="#FAFAFA"/>
<path id="Vector_142" d="M214.633 198.133C211.928 198.24 209.219 198.173 206.523 197.931C209.228 197.823 211.937 197.891 214.633 198.133Z" fill="#FAFAFA"/>
<path id="Vector_143" d="M196.796 148.115C197.134 149.824 199.588 150.504 199.82 152.228C199.921 152.964 199.568 153.7 199.598 154.446C199.629 155.454 200.329 156.295 200.682 157.233C201.418 159.168 200.591 161.461 199.034 162.827C197.476 164.193 195.35 164.747 193.283 164.788" fill="#263238"/>
<path id="Vector_144" d="M182.896 149.88C183.113 150.792 182.634 151.709 182.13 152.5C181.626 153.292 181.056 154.118 181.067 155.051C181.067 156.714 182.911 157.969 182.841 159.627C182.8 160.514 182.206 161.315 182.216 162.207C182.259 162.637 182.393 163.051 182.609 163.424C182.826 163.797 183.119 164.12 183.471 164.37C184.126 164.924 184.761 164.727 185.366 165.342C186.063 166.029 186.895 166.562 187.81 166.91C189.74 167.6 191.656 165.851 192.477 165.463" fill="#263238"/>
<path id="Vector_145" d="M197.3 149.048C197.189 148.206 196.292 147.682 195.485 147.501C194.679 147.319 193.777 147.339 193.006 146.997C192.365 146.609 191.764 146.16 191.211 145.656C190.467 145.106 189.589 144.763 188.668 144.665C187.747 144.566 186.817 144.714 185.972 145.093C185.127 145.473 184.399 146.071 183.862 146.825C183.325 147.58 182.998 148.463 182.915 149.386C182.805 150.625 183.233 152.001 184.296 152.646C185.531 153.392 187.119 152.934 188.47 152.425C189.82 151.916 191.357 151.386 192.653 152.022C193.394 152.484 194.028 153.099 194.512 153.826C195.057 154.501 195.717 155.177 196.574 155.338C197.431 155.499 198.459 154.834 198.358 153.967" fill="#263238"/>
<path id="Vector_146" d="M197.593 166.895L195.577 150.57C195.528 150.218 195.35 149.898 195.076 149.671C194.803 149.444 194.455 149.328 194.1 149.345L186.379 148.625C183.96 148.745 182.851 151.921 183.053 154.335C183.3 157.011 183.703 160.277 184.328 162.207C185.578 166.088 188.707 166.118 188.707 166.118C188.707 166.118 189.272 171.864 189.504 173.275" fill="#FFBE9D"/>
<path id="Vector_147" d="M184.09 157.313C184.098 157.38 184.119 157.445 184.153 157.504C184.186 157.562 184.231 157.613 184.284 157.654C184.338 157.695 184.399 157.725 184.464 157.742C184.53 157.758 184.598 157.762 184.664 157.752C184.796 157.739 184.918 157.675 185.003 157.573C185.088 157.471 185.129 157.34 185.118 157.208C185.11 157.141 185.088 157.076 185.055 157.018C185.022 156.959 184.977 156.908 184.923 156.867C184.87 156.826 184.808 156.796 184.743 156.78C184.678 156.763 184.61 156.759 184.543 156.769C184.411 156.782 184.29 156.846 184.205 156.948C184.12 157.05 184.078 157.181 184.09 157.313Z" fill="#263238"/>
<path id="Vector_148" d="M183.96 156.306C184.036 156.366 184.379 156.018 184.928 155.933C185.477 155.847 185.936 156.064 185.971 155.983C186.007 155.902 185.911 155.842 185.719 155.741C185.455 155.612 185.158 155.568 184.868 155.615C184.581 155.659 184.316 155.793 184.112 155.998C183.96 156.154 183.91 156.28 183.96 156.306Z" fill="#263238"/>
<path id="Vector_149" d="M189.63 156.502C189.638 156.568 189.66 156.633 189.693 156.691C189.726 156.749 189.77 156.8 189.823 156.841C189.876 156.881 189.937 156.911 190.001 156.928C190.066 156.946 190.134 156.95 190.2 156.941C190.331 156.928 190.452 156.864 190.537 156.763C190.621 156.663 190.663 156.533 190.653 156.401C190.645 156.335 190.624 156.271 190.591 156.213C190.558 156.154 190.514 156.103 190.461 156.063C190.408 156.022 190.347 155.992 190.282 155.975C190.218 155.958 190.15 155.954 190.084 155.963C189.953 155.976 189.832 156.039 189.747 156.14C189.662 156.241 189.62 156.371 189.63 156.502Z" fill="#263238"/>
<path id="Vector_150" d="M189.362 155.57C189.437 155.625 189.78 155.277 190.329 155.197C190.879 155.116 191.337 155.323 191.373 155.247C191.408 155.171 191.312 155.101 191.116 155C190.853 154.873 190.557 154.83 190.269 154.879C189.984 154.923 189.719 155.056 189.513 155.257C189.367 155.413 189.326 155.544 189.362 155.57Z" fill="#263238"/>
<path id="Vector_151" d="M187.991 159.954C187.686 159.918 187.378 159.918 187.073 159.954C186.932 159.954 186.796 159.954 186.756 159.859C186.72 159.716 186.73 159.566 186.786 159.43C186.862 159.072 186.947 158.694 187.033 158.296C187.279 157.332 187.447 156.349 187.537 155.358C187.215 156.301 186.969 157.268 186.801 158.251C186.721 158.651 186.645 159.029 186.574 159.385C186.509 159.567 186.509 159.767 186.574 159.949C186.602 159.996 186.64 160.036 186.686 160.065C186.731 160.095 186.783 160.114 186.837 160.121C186.919 160.129 187.001 160.129 187.083 160.121C187.392 160.105 187.697 160.049 187.991 159.954Z" fill="#263238"/>
<path id="Vector_152" d="M188.688 166.119C190.554 165.896 192.315 165.136 193.758 163.931C193.335 164.895 192.641 165.716 191.761 166.294C190.88 166.872 189.851 167.182 188.798 167.187L188.688 166.119Z" fill="#EB996E"/>
<path id="Vector_153" d="M188.439 161.245C188.524 161.097 188.645 160.974 188.79 160.886C188.936 160.798 189.101 160.748 189.271 160.741C189.393 160.733 189.516 160.75 189.632 160.791C189.748 160.832 189.855 160.895 189.946 160.978C190.034 161.058 190.095 161.164 190.121 161.28C190.147 161.396 190.137 161.517 190.092 161.628C190.02 161.74 189.915 161.828 189.792 161.88C189.669 161.933 189.533 161.946 189.402 161.92C189.127 161.87 188.864 161.766 188.631 161.613C188.564 161.576 188.503 161.53 188.449 161.477C188.425 161.448 188.41 161.414 188.404 161.378C188.399 161.341 188.404 161.304 188.419 161.27" fill="#EB996E"/>
<path id="Vector_154" d="M189.679 160.085C189.589 160.085 189.679 160.69 189.236 161.189C188.792 161.688 188.147 161.729 188.152 161.809C188.157 161.89 188.314 161.905 188.586 161.87C188.938 161.814 189.26 161.635 189.493 161.366C189.717 161.111 189.836 160.782 189.826 160.443C189.811 160.211 189.72 160.075 189.679 160.085Z" fill="#263238"/>
<path id="Vector_155" d="M188.869 154.073C188.949 154.214 189.488 154.073 190.144 154.032C190.799 153.992 191.348 154.103 191.414 153.957C191.479 153.811 191.328 153.76 191.096 153.649C190.788 153.515 190.454 153.453 190.119 153.468C189.783 153.483 189.456 153.574 189.161 153.735C188.939 153.866 188.838 154.002 188.869 154.073Z" fill="#263238"/>
<path id="Vector_156" d="M183.9 154.688C184.016 154.793 184.373 154.607 184.827 154.531C185.281 154.456 185.684 154.481 185.749 154.34C185.815 154.199 185.699 154.153 185.513 154.063C185.266 153.952 184.991 153.922 184.726 153.977C184.459 154.021 184.212 154.148 184.021 154.34C183.88 154.496 183.849 154.632 183.9 154.688Z" fill="#263238"/>
<path id="Vector_157" d="M197.814 162.792C196.756 163.185 196.57 162.646 195.632 162.011C195.165 161.69 194.779 161.265 194.505 160.769C194.231 160.273 194.077 159.719 194.055 159.153C194.024 158.145 194.392 157.077 193.908 156.205C193.263 155.056 191.489 154.95 190.844 153.801C190.466 153.13 190.572 152.263 190.164 151.618C189.941 151.335 189.663 151.1 189.347 150.927C189.031 150.754 188.683 150.646 188.324 150.61C187.605 150.54 186.901 150.358 186.238 150.071C185.608 149.723 185.129 148.952 185.396 148.282C188.425 148.17 191.457 148.419 194.428 149.023C195.13 149.099 195.791 149.394 196.318 149.864C196.76 150.467 197.001 151.193 197.008 151.941C197.408 155.539 197.804 159.14 198.197 162.742" fill="#263238"/>
<path id="Vector_158" d="M199.034 154.274C198.995 153.603 199.175 152.938 199.547 152.378C199.92 151.818 200.464 151.395 201.099 151.172C201.733 150.95 202.422 150.94 203.063 151.144C203.704 151.348 204.26 151.755 204.649 152.304C204.98 152.847 205.189 153.455 205.261 154.087C205.333 154.719 205.267 155.359 205.067 155.963C204.669 157.419 203.611 158.856 202.109 159.022C200.702 159.178 199.382 158.13 198.767 156.85C198.152 155.57 198.087 154.108 198.031 152.692" fill="#263238"/>
<path id="Vector_159" d="M200.677 159.607C200.752 159.53 200.81 159.439 200.849 159.34C200.966 159.075 201.024 158.788 201.02 158.498C201.012 158.069 200.932 157.645 200.783 157.243C200.632 156.789 200.395 156.326 200.199 155.822C199.995 155.361 199.886 154.864 199.876 154.36C199.876 153.907 200.037 153.498 200.078 153.13C200.122 152.842 200.083 152.547 199.967 152.279C199.871 152.092 199.77 152.022 199.765 152.032C199.76 152.042 199.831 152.122 199.901 152.304C199.987 152.566 200.004 152.845 199.952 153.115C199.847 153.523 199.768 153.937 199.715 154.355C199.715 154.876 199.824 155.39 200.032 155.867C200.234 156.371 200.476 156.84 200.632 157.278C200.78 157.663 200.868 158.067 200.894 158.478C200.908 158.866 200.834 159.252 200.677 159.607Z" fill="#455A64"/>
<path id="Vector_160" d="M199.982 154.814C200.173 155.035 200.413 155.208 200.683 155.318C201.32 155.634 202.038 155.75 202.742 155.651C203.446 155.552 204.104 155.243 204.629 154.763C204.858 154.582 205.042 154.351 205.169 154.088C205.143 154.088 204.957 154.34 204.549 154.667C204.022 155.095 203.39 155.373 202.719 155.474C202.046 155.564 201.362 155.47 200.738 155.202C200.255 155 199.998 154.788 199.982 154.814Z" fill="#455A64"/>
<path id="Vector_161" d="M200.273 155.408C200.382 155.624 200.531 155.818 200.712 155.978C201.124 156.394 201.619 156.72 202.163 156.936C202.704 157.157 203.283 157.267 203.867 157.258C204.109 157.272 204.35 157.236 204.578 157.152C204.343 157.138 204.107 157.138 203.872 157.152C202.735 157.102 201.65 156.662 200.798 155.907C200.633 155.73 200.458 155.564 200.273 155.408Z" fill="#455A64"/>
<path id="Vector_162" d="M200.139 161.053C200.139 161.053 200.139 161.053 200.179 160.998C200.21 160.941 200.237 160.882 200.26 160.821C200.357 160.588 200.409 160.338 200.416 160.086C200.428 159.683 200.341 159.283 200.164 158.921C199.933 158.431 199.534 158.04 199.04 157.818C198.447 157.626 197.89 157.336 197.392 156.961C197.272 156.844 197.178 156.703 197.116 156.548C197.054 156.392 197.024 156.226 197.029 156.059C197.05 155.69 197.111 155.325 197.211 154.97C197.307 154.567 197.319 154.148 197.245 153.741C197.171 153.333 197.014 152.945 196.782 152.601C196.538 152.234 196.207 151.933 195.82 151.724C195.411 151.53 194.966 151.424 194.514 151.412C194.071 151.381 193.632 151.412 193.214 151.336C192.803 151.296 192.409 151.156 192.065 150.928C191.754 150.683 191.535 150.34 191.445 149.955C191.346 149.571 191.222 149.194 191.072 148.826C190.782 148.139 190.308 147.546 189.701 147.113C189.166 146.74 188.529 146.542 187.877 146.543C187.335 146.534 186.805 146.7 186.365 147.017C186.037 147.252 185.773 147.566 185.599 147.929C185.487 148.157 185.417 148.403 185.392 148.655C185.38 148.742 185.38 148.83 185.392 148.917C185.414 148.583 185.503 148.258 185.654 147.959C185.866 147.56 186.184 147.228 186.574 146.999C186.964 146.77 187.41 146.654 187.861 146.664C188.486 146.672 189.092 146.871 189.6 147.234C190.181 147.656 190.634 148.229 190.911 148.892C191.051 149.256 191.17 149.628 191.269 150.006C191.369 150.425 191.609 150.798 191.949 151.064C192.313 151.313 192.734 151.467 193.174 151.512C193.612 151.573 194.051 151.558 194.489 151.588C194.915 151.599 195.334 151.701 195.719 151.885C196.084 152.076 196.396 152.355 196.626 152.697C196.845 153.023 196.994 153.39 197.064 153.776C197.134 154.162 197.124 154.558 197.034 154.94C196.935 155.305 196.876 155.68 196.858 156.059C196.852 156.246 196.886 156.433 196.958 156.606C197.029 156.78 197.136 156.937 197.271 157.067C197.784 157.454 198.361 157.749 198.975 157.938C199.443 158.137 199.827 158.493 200.058 158.946C200.236 159.295 200.329 159.68 200.33 160.07C200.332 160.407 200.267 160.741 200.139 161.053Z" fill="#455A64"/>
<path id="Vector_163" d="M198.118 149.985C198.133 149.922 198.133 149.857 198.118 149.794C198.103 149.607 198.029 149.431 197.906 149.29C197.709 149.063 197.444 148.907 197.15 148.846C196.761 148.784 196.363 148.833 196.001 148.987C195.598 149.134 195.19 149.365 194.731 149.532C194.5 149.638 194.249 149.692 193.995 149.692C193.741 149.692 193.49 149.638 193.259 149.532C192.789 149.202 192.415 148.753 192.176 148.231C191.869 147.667 191.473 147.156 191.001 146.719C190.088 145.873 188.92 145.353 187.68 145.243C187.136 145.206 186.591 145.308 186.097 145.54C185.667 145.745 185.303 146.069 185.049 146.472C184.842 146.811 184.747 147.206 184.777 147.601C184.796 147.896 184.888 148.182 185.044 148.433C185.139 148.591 185.264 148.73 185.412 148.841C185.465 148.878 185.52 148.91 185.578 148.937C185.39 148.785 185.228 148.603 185.099 148.398C184.964 148.15 184.886 147.874 184.873 147.591C184.857 147.22 184.955 146.852 185.155 146.538C185.403 146.16 185.752 145.859 186.163 145.671C186.636 145.455 187.157 145.365 187.675 145.409C188.875 145.523 190.003 146.029 190.885 146.85C191.343 147.27 191.731 147.76 192.034 148.302C192.287 148.848 192.685 149.315 193.184 149.653C193.439 149.788 193.727 149.847 194.015 149.824C194.28 149.803 194.539 149.744 194.786 149.648C195.265 149.466 195.663 149.229 196.051 149.078C196.391 148.925 196.766 148.87 197.135 148.917C197.411 148.967 197.664 149.105 197.856 149.31C197.981 149.438 198.062 149.602 198.088 149.779C198.123 149.915 198.108 149.985 198.118 149.985Z" fill="#455A64"/>
</g>
</g>
</svg>
