<svg width="300" height="64" viewBox="0 0 300 64" fill="none" xmlns="http://www.w3.org/2000/svg">
<g clip-path="url(#clip0_941_14849)">
<path fill-rule="evenodd" clip-rule="evenodd" d="M74.6067 2.49285V4.90511H88.634H102.661L102.66 6.27209V7.63906L96.292 9.85385C92.7894 11.0719 89.7297 12.1703 89.4921 12.2947C89.226 12.4344 90.3278 13.0458 92.3684 13.8904L95.6764 15.2599L99.2493 14.0563C106.835 11.5013 107.659 10.7464 107.659 6.35248C107.659 3.39922 107.061 2.01843 105.256 0.805214C104.553 0.332845 103.726 0.0805664 102.879 0.0805664H89.3923H74.6067V2.49285ZM118.784 14.7151V24.408C118.784 27.1372 121 29.3496 123.733 29.3496H135.391H151.998V26.9373V24.525H137.97H123.943V20.83V17.1351L136.278 17.0508L148.612 16.9665L148.706 14.6347L148.801 12.3028H136.372H123.943V8.60395V4.90511H137.97H151.998V2.49285V0.0805664H135.391H123.733C121 0.0805664 118.784 2.29296 118.784 5.02207V14.7151ZM163.284 14.7151V29.3496H165.863H168.443V18.7284V8.10737L173.496 12.1503L178.549 16.193L180.268 14.5002C181.213 13.5691 181.987 12.7145 181.987 12.601C181.987 12.4874 178.587 9.62388 174.431 6.23769L168.242 1.19394C167.359 0.473863 166.254 0.0805664 165.113 0.0805664H165.08C164.088 0.0805664 163.284 0.883602 163.284 1.8742V14.7151ZM193.595 10.8554C193.595 16.7816 193.522 21.6303 193.433 21.6303C193.343 21.6303 191.508 20.1881 189.353 18.4255L185.436 15.2204L184.276 16.1419C183.637 16.6487 182.784 17.4178 182.379 17.8507L181.643 18.6381L188.315 23.9937L193.628 28.2591C194.507 28.9648 195.601 29.3496 196.73 29.3496H196.87C197.911 29.3496 198.755 28.5073 198.755 27.4684V14.7151V0.0805664H196.175H193.595V10.8554ZM211.008 14.7151V29.3496H213.587H216.167V14.7151V0.0805664H213.587H211.008V14.7151ZM224.618 2.41244L224.713 4.74432L231.404 4.83114L238.095 4.9183V17.1338V29.3496H240.674H243.254V17.1274V4.90511H249.865H256.475V2.49285V0.0805664H240.499H224.523L224.618 2.41244ZM265.181 14.7151V29.3496H267.68H270.18L270.195 14.7151L270.21 0.0805664H267.696H265.181V14.7151ZM294.525 6.19169V12.3028H284.368H274.21V14.7151V17.1274H284.368H294.525V23.2385V29.3496H297.105H299.685V14.7151V0.0805664H297.105H294.525V6.19169ZM78.7987 15.9669C72.8672 18.1353 72.5539 18.476 72.4153 22.9168C72.3072 26.3841 72.7587 27.5372 74.6847 28.7079C75.6925 29.3213 76.3359 29.3473 90.488 29.3483L105.241 29.3496V26.9373V24.525H91.3747H77.5088V23.1101V21.6956L79.8468 20.8538C81.1328 20.391 83.9729 19.3878 86.1586 18.6243L90.1332 17.2361L86.8781 15.8952C85.088 15.1577 83.3722 14.5671 83.0653 14.5829C82.7585 14.5983 80.8385 15.2213 78.7987 15.9669Z" fill="white"/>
<path fill-rule="evenodd" clip-rule="evenodd" d="M72.4004 55.0077V64.3206H74.1391H75.8782V55.0077V45.6948H74.1391H72.4004V55.0077ZM83.6066 55.0077V64.3206H85.3453H87.0844V57.6632V51.0058L95.5354 57.6632C102.991 63.5368 104.152 64.3206 105.389 64.3206H106.792V55.0077V45.6948H104.869H102.945L102.84 52.397L102.734 59.0997L94.4264 52.405C87.4822 46.8097 85.9118 45.7093 84.8622 45.7028L83.6066 45.6948V55.0077ZM117.212 46.0065C115.992 46.5387 114.987 47.4453 114.188 48.7358C113.46 49.9111 113.363 50.6356 113.362 54.956C113.361 59.2015 113.466 60.0279 114.16 61.2279C115.768 64.0096 116.138 64.1168 124.574 64.2468C131.911 64.3601 132.152 64.3392 133.426 63.4866C136.151 61.6628 136.353 61.0789 136.353 55.0077C136.353 48.9486 136.148 48.3507 133.458 46.5501C132.243 45.7359 131.834 45.696 124.993 45.7214C121.039 45.7363 117.538 45.8644 117.212 46.0065ZM141.821 46.7949C142.214 47.4 145.057 51.5836 148.139 56.0914C153.347 63.7101 153.823 64.2879 154.901 64.292C155.983 64.2962 156.47 63.7006 162.243 55.3099C165.643 50.3672 168.483 46.1818 168.554 46.0092C168.625 45.8362 167.756 45.7017 166.622 45.7104L164.561 45.726L159.759 52.7426C157.118 56.6015 154.931 59.7592 154.899 59.7592C154.867 59.7592 152.689 56.5947 150.06 52.727L145.28 45.6948H143.194H141.107L141.821 46.7949ZM178.189 54.9887L171.773 64.3206H173.863H175.953L177.364 62.2299L178.775 60.1393H185.672H192.569L193.98 62.2299L195.391 64.3206H197.474H199.558L193.213 55.1027C187.561 46.8922 186.745 45.8723 185.736 45.7708C184.656 45.6625 184.307 46.0886 178.189 54.9887ZM117.787 49.6689C116.889 50.552 116.838 50.8367 116.838 55.0077C116.838 59.1787 116.889 59.4634 117.787 60.3464C118.713 61.2576 118.878 61.2796 124.768 61.2796C128.086 61.2796 131.119 61.112 131.507 60.9075C132.572 60.3472 133.068 58.4702 133.068 55.0077C133.068 51.5452 132.572 49.6682 131.507 49.1079C131.119 48.9034 128.086 48.7358 124.768 48.7358C118.878 48.7358 118.713 48.7578 117.787 49.6689ZM183.971 52.6111C183.025 53.9293 181.946 55.4783 181.573 56.053L180.895 57.0983H185.577C188.151 57.0983 190.258 57.0307 190.258 56.9482C190.258 56.8657 189.231 55.3167 187.974 53.5062L185.691 50.214L183.971 52.6111Z" fill="white"/>
<path fill-rule="evenodd" clip-rule="evenodd" d="M0 8.49866C0 3.80497 3.81091 0 8.51193 0H55.8282C60.5292 0 64.3401 3.80497 64.3401 8.49866V56.241C64.3401 60.9347 60.5292 64.7396 55.8282 64.7396H8.51193C3.81091 64.7396 0 60.9347 0 56.241V8.49866ZM39.3944 14.4977L54.8741 25.5382C58.0846 27.8279 56.4598 32.8757 52.5122 32.8757H36.2237C41.981 30.2122 38.5599 24.974 36.2237 24.974H22.4548L7.65525 14.4977H39.3944ZM8.99326 39.2893L24.2473 50.242H56.9753L43.1909 40.3422H28.222C25.8541 40.3422 22.3868 35.3925 28.222 32.8757H11.0692C7.62095 32.8757 6.19527 37.2804 8.99326 39.2893Z" fill="white"/>
</g>
<defs>
<clipPath id="clip0_941_14849">
<rect width="300" height="64" fill="white"/>
</clipPath>
</defs>
</svg>
