<svg width="157" height="230" viewBox="0 0 157 230" fill="none" xmlns="http://www.w3.org/2000/svg">
<g id="drone-pana (1) 1">
<g id="freepik--background-complete--inject-32">
<path id="Vector" d="M51.3105 205.075H45.7559V224.552H51.3105V205.075Z" fill="#F5F5F5"/>
<path id="Vector_2" d="M66.497 206.73C66.497 206.73 66.2615 206.573 66.7796 205.891C67.2977 205.21 66.497 204.842 66.497 204.842C64.2268 206.155 61.0554 204.842 61.0554 204.842C61.0554 204.842 64.7951 203.69 65.2661 202.588C65.621 201.765 64.9961 201.674 64.6601 201.684C65.0401 201.643 65.8659 201.508 66.1171 201.056C66.4499 200.478 65.15 199.8 65.15 199.8C65.217 199.661 65.2518 199.509 65.2518 199.355C65.2518 199.201 65.217 199.05 65.15 198.911C64.9364 198.333 60.0632 197.495 60.0632 197.495C61.4824 197.652 62.0037 196.239 62.0037 196.239C62.0037 196.239 64.4152 196.292 64.9835 195.347C65.5519 194.402 64.6036 194.141 62.9959 193.356C61.3882 192.571 57.84 189.632 57.84 189.632C57.84 189.632 60.0632 189.425 60.666 188.901C61.2689 188.376 60.7131 188.273 60.7131 188.273C63.3633 188.536 62.4621 187.12 62.4621 187.12C60.3586 186.476 58.4756 185.26 57.0236 183.607C57.0236 183.607 58.6784 183.239 59.5356 182.454C60.3929 181.669 58.826 181.459 58.826 181.459C58.826 181.459 61.9503 181.038 60.1511 179.889C58.7852 179.013 56.5997 177.832 55.9215 177.477C56.6657 177.751 58.355 177.424 58.355 177.424C60.3426 176.532 58.355 175.226 58.355 175.226C56.0377 173.917 52.6308 170.613 52.6308 170.613C52.6308 170.613 54.3327 171.502 55.1867 171.241C56.0408 170.981 54.2447 169.932 54.2447 169.932C54.2447 169.932 55.1428 170.193 55.5227 169.932C55.9027 169.671 54.5305 168.462 54.5305 168.462C52.4895 167.137 49.9775 163.661 48.9256 162.167C47.8737 163.661 45.3585 167.137 43.3207 168.462C43.3207 168.462 41.9485 169.668 42.3284 169.932C42.7084 170.196 43.6033 169.932 43.6033 169.932C43.6033 169.932 41.8072 170.978 42.6613 171.241C43.5154 171.505 45.2172 170.613 45.2172 170.613C45.2172 170.613 41.8103 173.917 39.493 175.226C39.493 175.226 37.5054 176.535 39.493 177.424C39.493 177.424 41.1823 177.738 41.9265 177.477C41.2483 177.832 39.0628 179.013 37.6969 179.889C35.8977 181.041 39.0189 181.459 39.0189 181.459C39.0189 181.459 37.4489 181.669 38.3092 182.454C39.1696 183.239 40.8212 183.607 40.8212 183.607C39.3684 185.26 37.4843 186.477 35.3796 187.12C35.3796 187.12 34.4816 188.536 37.1317 188.273C37.1317 188.273 36.5634 188.379 37.1788 188.901C37.7943 189.422 40.0048 189.632 40.0048 189.632C40.0048 189.632 36.4566 192.568 34.849 193.356C33.2413 194.145 32.293 194.405 32.8613 195.347C33.4297 196.289 35.8412 196.239 35.8412 196.239C35.8412 196.239 36.3624 197.655 37.7817 197.495C37.7817 197.495 32.9084 198.333 32.6949 198.911C32.6268 199.049 32.5914 199.201 32.5914 199.355C32.5914 199.509 32.6268 199.661 32.6949 199.8C32.6949 199.8 31.395 200.481 31.7247 201.056C31.979 201.495 32.8048 201.63 33.1848 201.684C32.8456 201.684 32.2239 201.765 32.5787 202.588C33.0497 203.69 36.7863 204.842 36.7863 204.842C36.7863 204.842 33.6181 206.155 31.3479 204.842C31.3479 204.842 30.544 205.21 31.0653 205.891C31.5865 206.573 31.3479 206.73 31.3479 206.73C31.3479 206.73 30.1641 205.841 30.6853 207.204C31.2066 208.567 33.9478 209.402 33.9478 209.402C33.9478 209.402 32.3778 209.662 32.8613 210.504C33.3449 211.345 35.32 212.338 37.496 212.548C39.672 212.758 42.6048 211.97 42.6048 211.97C42.6048 211.97 40.6171 213.019 41.9768 213.597C43.3364 214.175 44.9095 212.862 44.9095 212.862C44.9095 212.862 44.6269 214.203 45.7605 213.741C46.5224 213.406 47.2253 212.95 47.8423 212.391C47.8423 212.391 48.1971 214.366 48.9067 213.895C49.6164 214.366 49.9712 212.391 49.9712 212.391C50.5874 212.949 51.2892 213.405 52.0499 213.741C53.1866 214.203 52.9008 212.862 52.9008 212.862C52.9008 212.862 54.4708 214.171 55.8336 213.597C57.1963 213.022 55.2056 211.97 55.2056 211.97C55.2056 211.97 58.1383 212.755 60.3144 212.548C62.4904 212.341 64.4749 211.342 64.949 210.504C65.4231 209.666 63.8594 209.402 63.8594 209.402C63.8594 209.402 66.6038 208.563 67.125 207.204C67.6463 205.844 66.497 206.73 66.497 206.73Z" fill="#F5F5F5"/>
<path id="Vector_3" d="M90.7063 222.166L88.1284 220.338L87.7516 217.854L86.4202 216.916L85.6823 214.947L84.329 213.612L79.4369 213.763L77.6314 216.683L76.2906 219.88L74.4035 221.173L72.9434 224.976H91.8305L90.7063 222.166Z" fill="#EBEBEB"/>
<path id="Vector_4" d="M87.7767 224.558C87.7767 224.492 86.6337 222.006 86.6337 222.006L83.3681 220.169L79.5781 221.111L83.1452 220.58L86.1753 222.342L87.7767 224.558Z" fill="#FAFAFA"/>
<path id="Vector_5" d="M79.9141 221.026H79.9298H79.98L80.1715 220.979L80.8875 220.806L83.3743 220.197L84.8878 221.051L86.6399 222.034L87.6636 224.172C87.7923 224.43 87.8928 224.637 87.9619 224.782L88.0404 224.945L88.0624 224.986C88.0637 224.98 88.0637 224.975 88.0624 224.97L88.0435 224.929C88.0278 224.891 88.0027 224.835 87.9682 224.766L87.6824 224.138L86.6651 221.996L84.9161 221.01L83.4026 220.159L80.922 220.787L80.2061 220.966L80.0177 221.017H79.9674L79.9141 221.026Z" fill="#E0E0E0"/>
<path id="Vector_6" d="M138.311 100.158C138.013 99.2392 137.59 98.3655 137.055 97.5612C136.787 97.1607 136.441 96.8185 136.037 96.5552C135.634 96.2919 135.181 96.1129 134.707 96.0289C133.749 95.9127 132.691 96.4277 132.377 97.3414C132.242 95.2847 131.95 93.1746 130.92 91.3911C129.89 89.6076 127.968 88.204 125.915 88.3296C123.977 88.4458 122.316 89.8996 121.393 91.5983C120.47 93.2971 120.153 95.269 119.851 97.1875C119.116 96.2864 117.565 96.5595 116.796 97.445C116.027 98.3305 115.835 99.5425 115.672 100.692L138.594 100.93L138.311 100.158Z" fill="#EBEBEB"/>
<path id="Vector_7" d="M41.298 97.2848C40.9988 96.3664 40.5762 95.4928 40.042 94.688C39.7722 94.2862 39.4239 93.9431 39.0182 93.6792C38.6124 93.4154 38.1575 93.2362 37.6807 93.1526C36.7387 93.0364 35.6649 93.5545 35.354 94.4651C35.2158 92.4115 34.9238 90.3015 33.8939 88.4991C32.864 86.6967 30.9517 85.3277 28.8887 85.4533C26.9514 85.5726 25.2903 87.0233 24.3671 88.722C23.444 90.4208 23.13 92.3927 22.8254 94.3144C22.0906 93.4101 20.5395 93.6864 19.7702 94.5687C19.0009 95.4511 18.8156 96.6662 18.6523 97.8061L41.5743 98.0447L41.298 97.2848Z" fill="#F5F5F5"/>
<path id="Vector_8" d="M92.759 167.247C92.5184 166.504 92.1782 165.798 91.7479 165.146C91.5303 164.822 91.2493 164.545 90.9217 164.333C90.5941 164.12 90.2267 163.976 89.8419 163.909C89.4551 163.853 89.0606 163.926 88.7198 164.118C88.3791 164.309 88.1112 164.608 87.9579 164.967C87.8449 163.306 87.6094 161.601 86.7804 160.16C85.9515 158.719 84.394 157.582 82.733 157.686C81.163 157.78 79.8222 158.942 79.078 160.326C78.3338 161.711 78.0763 163.294 77.822 164.845C77.2285 164.116 75.9725 164.346 75.354 165.052C74.7354 165.759 74.5752 166.748 74.4434 167.68L92.9694 167.872L92.759 167.247Z" fill="#EBEBEB"/>
<path id="Vector_9" d="M147.625 147.566C147.385 146.823 147.043 146.118 146.611 145.468C146.394 145.143 146.114 144.866 145.786 144.653C145.459 144.44 145.092 144.295 144.708 144.228C144.321 144.172 143.926 144.246 143.585 144.438C143.244 144.63 142.977 144.929 142.824 145.289C142.714 143.625 142.479 141.92 141.646 140.479C140.814 139.037 139.263 137.901 137.599 138.004C136.029 138.099 134.691 139.26 133.944 140.645C133.197 142.03 132.942 143.612 132.688 145.164C132.095 144.435 130.839 144.664 130.22 145.371C129.601 146.077 129.444 147.066 129.312 147.999L147.838 148.191L147.625 147.566Z" fill="#EBEBEB"/>
<path id="Vector_10" d="M29.0957 142.997C28.8553 142.254 28.514 141.547 28.0815 140.896C27.8641 140.572 27.5835 140.296 27.2565 140.083C26.9295 139.871 26.5628 139.726 26.1786 139.659C25.7917 139.602 25.3967 139.675 25.0557 139.866C24.7147 140.058 24.447 140.357 24.2946 140.717C24.1847 139.056 23.9492 137.351 23.1171 135.91C22.285 134.469 20.7339 133.332 19.0697 133.432C17.4997 133.53 16.162 134.688 15.4147 136.076C14.6674 137.464 14.413 139.044 14.1587 140.595C13.5652 139.866 12.3092 140.096 11.6907 140.802C11.0721 141.509 10.9151 142.498 10.7832 143.427L29.3092 143.622L29.0957 142.997Z" fill="#EBEBEB"/>
<path id="Vector_11" d="M79.5459 118.304C79.1063 117.136 78.6604 115.949 77.9257 114.941C77.1909 113.933 76.1108 113.107 74.8736 112.957C73.6364 112.806 72.2611 113.475 71.8561 114.655C71.6802 111.993 71.3003 109.261 69.9721 106.95C68.6439 104.639 66.1507 102.83 63.488 102.987C60.976 103.141 58.8282 105.006 57.6319 107.22C56.4355 109.433 56.0273 111.974 55.6348 114.442C54.6928 113.274 52.6738 113.641 51.6816 114.775C50.6893 115.908 50.4256 117.491 50.2246 118.982L79.8913 119.296L79.5459 118.304Z" fill="#F5F5F5"/>
<path id="Vector_12" d="M138.311 50.158C138.013 49.2392 137.59 48.3655 137.055 47.5612C136.787 47.1607 136.441 46.8185 136.037 46.5552C135.634 46.2919 135.181 46.1129 134.707 46.0289C133.749 45.9127 132.691 46.4277 132.377 47.3414C132.242 45.2847 131.95 43.1746 130.92 41.3911C129.89 39.6076 127.968 38.204 125.915 38.3296C123.977 38.4458 122.316 39.8996 121.393 41.5983C120.47 43.2971 120.153 45.269 119.851 47.1875C119.116 46.2864 117.565 46.5595 116.796 47.445C116.027 48.3305 115.835 49.5425 115.672 50.6918L138.594 50.9304L138.311 50.158Z" fill="#EBEBEB"/>
<path id="Vector_13" d="M41.298 47.2848C40.9988 46.3664 40.5762 45.4928 40.042 44.688C39.7722 44.2862 39.4239 43.9431 39.0182 43.6792C38.6124 43.4154 38.1575 43.2362 37.6807 43.1526C36.7387 43.0364 35.6649 43.5545 35.354 44.4651C35.2158 42.4115 34.9238 40.3015 33.8939 38.4991C32.864 36.6967 30.9517 35.3277 28.8887 35.4533C26.9514 35.5726 25.2903 37.0233 24.3671 38.722C23.444 40.4208 23.13 42.3927 22.8254 44.3144C22.0906 43.4101 20.5395 43.6864 19.7702 44.5687C19.0009 45.4511 18.8156 46.6662 18.6523 47.8061L41.5743 48.0447L41.298 47.2848Z" fill="#F5F5F5"/>
<path id="Vector_14" d="M79.5459 68.304C79.1063 67.1359 78.6604 65.949 77.9257 64.941C77.1909 63.9331 76.1108 63.1073 74.8736 62.9565C73.6364 62.8058 72.2611 63.4746 71.8561 64.6553C71.6802 61.9926 71.3003 59.2608 69.9721 56.9497C68.6439 54.6387 66.1507 52.83 63.488 52.987C60.976 53.1409 58.8282 55.0061 57.6319 57.2198C56.4355 59.4335 56.0273 61.9737 55.6348 64.4418C54.6928 63.2737 52.6738 63.6411 51.6816 64.7746C50.6893 65.9081 50.4256 67.4907 50.2246 68.9822L79.8913 69.2962L79.5459 68.304Z" fill="#F5F5F5"/>
<path id="Vector_15" d="M100.183 211.025H96.2891V224.678H100.183V211.025Z" fill="#EBEBEB"/>
<path id="Vector_16" d="M110.823 212.187C110.823 212.187 110.657 212.077 111.021 211.597C111.07 211.54 111.104 211.472 111.12 211.399C111.137 211.326 111.135 211.25 111.116 211.177C111.096 211.105 111.059 211.038 111.008 210.983C110.957 210.928 110.894 210.887 110.823 210.862C109.231 211.782 107.011 210.862 107.011 210.862C107.011 210.862 109.63 210.055 109.963 209.292C110.208 208.717 109.771 208.664 109.536 208.664C109.803 208.636 110.381 208.541 110.56 208.234C110.792 207.829 109.878 207.351 109.878 207.351C109.927 207.254 109.952 207.146 109.952 207.037C109.952 206.928 109.927 206.821 109.878 206.723C109.731 206.318 106.314 205.731 106.314 205.731C107.31 205.841 107.674 204.849 107.674 204.849C107.674 204.849 109.366 204.886 109.762 204.221C110.158 203.555 109.498 203.376 108.371 202.827C107.244 202.277 104.757 200.217 104.757 200.217C104.757 200.217 106.327 200.07 106.748 199.702C107.168 199.335 106.779 199.263 106.779 199.263C108.635 199.445 108.007 198.453 108.007 198.453C106.531 198.003 105.211 197.151 104.195 195.991C104.195 195.991 105.353 195.733 105.95 195.184C106.547 194.634 105.454 194.487 105.454 194.487C105.454 194.487 107.652 194.192 106.396 193.385C105.454 192.757 103.909 191.943 103.432 191.695C103.953 191.887 105.137 191.658 105.137 191.658C106.531 191.03 105.137 190.113 105.137 190.113C103.498 189.18 101.108 186.869 101.108 186.869C101.108 186.869 102.301 187.497 102.898 187.312C103.495 187.127 102.235 186.392 102.235 186.392C102.235 186.392 102.863 186.577 103.13 186.392C103.397 186.207 102.433 185.365 102.433 185.365C101.004 184.423 99.2429 181.999 98.505 180.953C97.7703 181.999 95.993 184.436 94.5769 185.365C94.5769 185.365 93.6161 186.21 93.883 186.392C94.1499 186.574 94.7779 186.392 94.7779 186.392C94.7779 186.392 93.5219 187.127 94.1153 187.312C94.7088 187.497 95.9051 186.869 95.9051 186.869C95.9051 186.869 93.5187 189.186 91.8922 190.103C91.8922 190.103 90.5012 191.023 91.8922 191.648C91.8922 191.648 93.076 191.877 93.6004 191.686C93.1231 191.934 91.5908 192.76 90.6331 193.375C89.3771 194.182 91.5751 194.477 91.5751 194.477C91.5751 194.477 90.4792 194.622 91.0758 195.174C91.6724 195.727 92.8342 195.981 92.8342 195.981C91.8178 197.141 90.4975 197.994 89.0222 198.443C89.0222 198.443 88.3942 199.435 90.25 199.253C90.25 199.253 89.8512 199.326 90.2814 199.693C90.7116 200.06 92.2721 200.208 92.2721 200.208C92.2721 200.208 89.7853 202.265 88.658 202.817C87.5307 203.37 86.8682 203.552 87.2638 204.211C87.6595 204.871 89.3519 204.839 89.3519 204.839C89.3519 204.839 89.7193 205.832 90.7116 205.722C90.7116 205.722 87.2984 206.309 87.1477 206.714C87.0999 206.812 87.0751 206.919 87.0751 207.028C87.0751 207.137 87.0999 207.244 87.1477 207.342C87.1477 207.342 86.2371 207.819 86.4694 208.224C86.6453 208.538 87.2262 208.626 87.4931 208.654C87.2544 208.654 86.818 208.714 87.066 209.282C87.3989 210.055 90.0176 210.852 90.0176 210.852C90.0176 210.852 87.7945 211.772 86.2057 210.852C86.1353 210.878 86.072 210.919 86.0211 210.974C85.9703 211.029 85.9335 211.095 85.9138 211.167C85.894 211.24 85.892 211.315 85.9078 211.388C85.9237 211.462 85.9569 211.53 86.0047 211.587C86.3689 212.068 86.2057 212.178 86.2057 212.178C86.2057 212.178 85.3767 211.55 85.7409 212.507C86.1052 213.465 88.0269 214.049 88.0269 214.049C88.0269 214.049 86.9341 214.234 87.2638 214.821C87.5935 215.409 88.9877 216.109 90.5137 216.253C92.0398 216.398 94.0933 215.851 94.0933 215.851C94.0933 215.851 92.7023 216.586 93.6632 216.991C94.624 217.396 95.7073 216.498 95.7073 216.498C95.7073 216.498 95.5095 217.44 96.3039 217.126C96.8382 216.893 97.3312 216.575 97.764 216.184C97.764 216.184 98.0121 217.572 98.5082 217.239C99.0074 217.572 99.2555 216.184 99.2555 216.184C99.6875 216.574 100.179 216.892 100.712 217.126C101.51 217.44 101.309 216.498 101.309 216.498C101.309 216.498 102.405 217.415 103.366 217.013C104.327 216.611 102.936 215.873 102.936 215.873C102.936 215.873 104.989 216.423 106.515 216.275C108.041 216.128 109.432 215.431 109.762 214.843C110.092 214.256 108.999 214.071 108.999 214.071C108.999 214.071 110.924 213.484 111.288 212.529C111.652 211.575 110.823 212.187 110.823 212.187Z" fill="#E0E0E0"/>
<path id="Vector_17" d="M143.599 210.281H139.492V224.678H143.599V210.281Z" fill="#EBEBEB"/>
<path id="Vector_18" d="M154.82 211.505C154.82 211.505 154.645 211.389 155.028 210.877C155.079 210.817 155.115 210.746 155.133 210.669C155.15 210.592 155.149 210.511 155.128 210.435C155.108 210.359 155.069 210.288 155.016 210.23C154.962 210.172 154.895 210.128 154.82 210.102C153.141 211.072 150.798 210.102 150.798 210.102C150.798 210.102 153.561 209.251 153.91 208.438C154.17 207.828 153.712 207.763 153.461 207.766C153.743 207.737 154.353 207.637 154.538 207.313C154.783 206.886 153.822 206.372 153.822 206.372C153.872 206.269 153.898 206.156 153.898 206.042C153.898 205.928 153.872 205.815 153.822 205.712C153.665 205.285 150.054 204.666 150.054 204.666C151.103 204.783 151.489 203.724 151.489 203.724C151.489 203.724 153.272 203.762 153.687 203.065C154.101 202.368 153.407 202.173 152.22 201.592C151.034 201.012 148.409 198.842 148.409 198.842C148.409 198.842 150.051 198.685 150.506 198.299C150.961 197.912 150.541 197.834 150.541 197.834C152.5 198.029 151.834 196.98 151.834 196.98C150.28 196.505 148.888 195.607 147.815 194.386C147.815 194.386 149.04 194.113 149.668 193.532C150.296 192.951 149.143 192.797 149.143 192.797C149.143 192.797 151.451 192.483 150.123 191.635C149.112 190.986 147.498 190.116 146.983 189.852C147.532 190.056 148.782 189.814 148.782 189.814C150.249 189.155 148.782 188.185 148.782 188.185C147.068 187.217 144.549 184.775 144.549 184.775C144.549 184.775 145.805 185.434 146.433 185.242C147.061 185.051 145.733 184.272 145.733 184.272C145.733 184.272 146.399 184.467 146.675 184.272C146.952 184.077 145.94 183.189 145.94 183.189C144.433 182.209 142.574 179.638 141.799 178.535C141.02 179.638 139.164 182.209 137.657 183.189C137.657 183.189 136.643 184.077 136.922 184.272C137.202 184.467 137.864 184.272 137.864 184.272C137.864 184.272 136.536 185.048 137.167 185.242C137.798 185.437 139.051 184.775 139.051 184.775C139.051 184.775 136.539 187.217 134.822 188.185C134.822 188.185 133.352 189.155 134.822 189.814C134.822 189.814 136.078 190.056 136.621 189.852C136.119 190.116 134.501 190.986 133.481 191.635C132.153 192.486 134.458 192.797 134.458 192.797C134.458 192.797 133.305 192.951 133.936 193.532C134.567 194.113 135.789 194.386 135.789 194.386C134.714 195.607 133.322 196.505 131.767 196.98C131.767 196.98 131.104 198.029 133.06 197.834C133.06 197.834 132.643 197.912 133.095 198.299C133.547 198.685 135.192 198.842 135.192 198.842C135.192 198.842 132.57 201.012 131.383 201.592C130.197 202.173 129.499 202.368 129.914 203.065C130.328 203.762 132.112 203.724 132.112 203.724C132.112 203.724 132.495 204.77 133.544 204.666C133.544 204.666 129.942 205.294 129.776 205.712C129.726 205.815 129.7 205.928 129.7 206.042C129.7 206.156 129.726 206.269 129.776 206.372C129.776 206.372 128.815 206.874 129.06 207.313C129.245 207.627 129.857 207.737 130.137 207.766C129.889 207.766 129.427 207.828 129.688 208.438C130.04 209.251 132.8 210.102 132.8 210.102C132.8 210.102 130.457 211.072 128.78 210.102C128.706 210.128 128.639 210.173 128.586 210.231C128.532 210.289 128.494 210.359 128.473 210.435C128.452 210.511 128.45 210.591 128.467 210.668C128.484 210.745 128.519 210.817 128.57 210.877C128.956 211.383 128.78 211.505 128.78 211.505C128.78 211.505 127.907 210.846 128.291 211.854C128.674 212.862 130.702 213.48 130.702 213.48C130.702 213.48 129.55 213.675 129.898 214.294C130.247 214.912 131.716 215.65 133.324 215.804C134.932 215.958 137.092 215.38 137.092 215.38C137.092 215.38 135.622 216.153 136.637 216.58C137.651 217.007 138.803 216.036 138.803 216.036C138.803 216.036 138.593 217.029 139.431 216.69C139.994 216.441 140.512 216.102 140.967 215.688C140.967 215.688 141.23 217.151 141.755 216.799C142.279 217.151 142.54 215.688 142.54 215.688C142.996 216.102 143.515 216.44 144.078 216.69C144.917 217.029 144.706 216.036 144.706 216.036C144.706 216.036 145.862 217.007 146.876 216.58C147.89 216.153 146.421 215.38 146.421 215.38C146.421 215.38 148.588 215.961 150.189 215.804C151.79 215.647 153.266 214.912 153.615 214.294C153.963 213.675 152.811 213.48 152.811 213.48C152.811 213.48 154.839 212.852 155.222 211.854C155.605 210.855 154.82 211.505 154.82 211.505Z" fill="#E0E0E0"/>
</g>
<g id="freepik--Floor--inject-32">
<path id="Vector_19" d="M153.709 224.976C153.709 225.023 120.026 225.058 78.484 225.058C36.9418 225.058 3.25586 225.02 3.25586 224.976C3.25586 224.932 36.9292 224.894 78.484 224.894C120.039 224.894 153.709 224.929 153.709 224.976Z" fill="#263238"/>
</g>
<g id="freepik--Trees--inject-32">
<path id="Vector_20" d="M31.0107 202.704H25.5879V224.398H31.0107V202.704Z" fill="#6F4439"/>
<path id="Vector_21" d="M7.74035 202.641C7.74035 202.641 8.00725 202.465 7.42635 201.699C6.84545 200.933 7.74035 200.518 7.74035 200.518C10.3026 201.991 13.8791 200.518 13.8791 200.518C13.8791 200.518 9.66203 199.228 9.12823 197.972C8.72945 197.049 9.44223 196.945 9.81275 196.955C9.38257 196.907 8.44999 196.757 8.16739 196.264C7.79373 195.614 9.26011 194.848 9.26011 194.848C9.18406 194.692 9.14454 194.52 9.14454 194.347C9.14454 194.173 9.18406 194.002 9.26011 193.846C9.50189 193.196 15 192.254 15 192.254C13.3986 192.43 12.802 190.838 12.802 190.838C12.802 190.838 10.0796 190.898 9.43909 189.836C8.79853 188.775 9.86613 188.48 11.6811 187.594C13.496 186.709 17.4995 183.409 17.4995 183.409C17.4995 183.409 14.9875 183.173 14.2967 182.583C13.6059 181.992 14.2433 181.876 14.2433 181.876C11.254 182.171 12.2682 180.576 12.2682 180.576C14.6415 179.855 16.7671 178.487 18.4069 176.626C18.4069 176.626 16.5386 176.215 15.5809 175.329C14.6232 174.444 16.3816 174.208 16.3816 174.208C16.3816 174.208 12.8586 173.737 14.887 172.441C16.4287 171.455 18.8936 170.126 19.6629 169.728C18.8214 170.042 16.9154 169.668 16.9154 169.668C14.6735 168.666 16.9154 167.191 16.9154 167.191C19.531 165.718 23.3744 162.003 23.3744 162.003C23.3744 162.003 21.4527 163.005 20.4919 162.71C19.531 162.415 21.5595 161.237 21.5595 161.237C21.5595 161.237 20.5453 161.532 20.1182 161.237C19.6912 160.942 21.2392 159.585 21.2392 159.585C23.5502 158.094 26.3762 154.194 27.5695 152.514C28.7564 154.194 31.5918 158.103 33.8934 159.595C33.8934 159.595 35.4414 160.951 35.0144 161.247C34.5873 161.542 33.5731 161.247 33.5731 161.247C33.5731 161.247 35.6016 162.424 34.6407 162.719C33.6799 163.014 31.7582 162.013 31.7582 162.013C31.7582 162.013 35.6016 165.727 38.2172 167.2C38.2172 167.2 40.4591 168.676 38.2172 169.677C38.2172 169.677 36.3112 170.045 35.4697 169.737C36.239 170.136 38.7039 171.464 40.2456 172.45C42.2741 173.747 38.751 174.218 38.751 174.218C38.751 174.218 40.5125 174.453 39.5517 175.339C38.5908 176.224 36.7257 176.636 36.7257 176.636C38.3655 178.497 40.4911 179.865 42.8644 180.586C42.8644 180.586 43.8786 182.181 40.8893 181.886C40.8893 181.886 41.5173 182.002 40.8359 182.592C40.1546 183.183 37.6331 183.418 37.6331 183.418C37.6331 183.418 41.6367 186.721 43.4516 187.604C45.2665 188.486 46.3341 188.784 45.6935 189.846C45.053 190.907 42.3306 190.847 42.3306 190.847C42.3306 190.847 41.7434 192.439 40.1326 192.263C40.1326 192.263 45.6307 193.205 45.8725 193.855C45.9486 194.011 45.9881 194.183 45.9881 194.356C45.9881 194.53 45.9486 194.701 45.8725 194.857C45.8725 194.857 47.3389 195.623 46.9652 196.273C46.6826 196.766 45.75 196.917 45.3199 196.964C45.6998 196.964 46.4032 197.058 46.0044 197.981C45.4706 199.237 41.2536 200.518 41.2536 200.518C41.2536 200.518 44.83 201.991 47.3923 200.518C47.3923 200.518 48.2997 200.93 47.7063 201.699C47.1128 202.468 47.3923 202.641 47.3923 202.641C47.3923 202.641 48.7268 201.639 48.1396 203.172C47.5524 204.704 44.4564 205.649 44.4564 205.649C44.4564 205.649 46.2179 205.944 45.6841 206.886C45.1503 207.828 42.9083 208.953 40.4529 209.188C37.9974 209.424 34.6878 208.538 34.6878 208.538C34.6878 208.538 36.9298 209.719 35.3818 210.366C33.8337 211.012 32.0722 209.54 32.0722 209.54C32.0722 209.54 32.3862 211.05 31.1114 210.532C30.2515 210.154 29.4583 209.64 28.7626 209.009C28.7626 209.009 28.3639 211.235 27.5632 210.701C26.7625 211.235 26.3637 209.009 26.3637 209.009C25.6699 209.639 24.8789 210.154 24.0212 210.532C22.7401 211.05 23.0604 209.54 23.0604 209.54C23.0604 209.54 21.2989 211.015 19.7508 210.366C18.2028 209.716 20.4448 208.538 20.4448 208.538C20.4448 208.538 17.1352 209.424 14.6797 209.188C12.2243 208.953 9.96975 207.832 9.44851 206.886C8.92727 205.941 10.6762 205.649 10.6762 205.649C10.6762 205.649 7.58021 204.707 6.99303 203.172C6.40585 201.636 7.74035 202.641 7.74035 202.641Z" fill="#455A64"/>
<path id="Vector_22" d="M19.7832 167.379L19.8685 167.341C19.8385 167.35 19.8098 167.363 19.7832 167.379Z" fill="black"/>
<g id="Group" opacity="0.1">
<path id="Vector_23" d="M23.7913 161.334L25.0473 160.835C25.0473 160.835 25.7475 161.878 27.0789 161.19C27.9317 160.71 28.6365 160.005 29.1168 159.152C29.1168 159.152 31.0008 160.386 31.1766 159.604C31.2276 159.382 31.1963 159.149 31.0883 158.948C30.9803 158.747 30.803 158.592 30.5894 158.512C30.6307 158.576 30.6568 158.648 30.6655 158.724C30.6742 158.8 30.6654 158.876 30.6397 158.948C30.558 159.089 30.3728 159.083 30.2252 159.048C29.7277 158.916 29.2869 158.625 28.9692 158.219C28.5955 159.108 27.8325 159.717 27.0506 160.173C26.8937 160.29 26.7142 160.373 26.5234 160.418C26.3326 160.462 26.1347 160.466 25.9422 160.43C25.5686 160.311 25.3142 159.736 25.6 159.438C25.3206 159.812 24.9659 160.125 24.5587 160.354C24.1515 160.583 23.7007 160.725 23.2355 160.769C23.0409 160.785 22.7897 160.735 22.752 160.521C22.745 160.396 22.7866 160.274 22.8682 160.179C23.138 159.782 23.4748 159.436 23.8635 159.155C23.0185 159.779 22.0179 160.158 20.9716 160.251L20.0673 160.37C20.039 160.48 20.0484 160.568 20.1269 160.622C20.554 160.917 21.5682 160.622 21.5682 160.622C21.5682 160.622 19.5398 161.802 20.5006 162.094C21.4614 162.386 23.3831 161.388 23.3831 161.388L23.1445 161.614L23.7913 161.334Z" fill="black"/>
</g>
<g id="Group_2" opacity="0.1">
<path id="Vector_24" d="M35.1436 169.26L32.6755 168.371C32.6755 168.371 32.3992 169.872 30.8889 169.79C30.8889 169.79 29.5826 169.9 29.4822 168.371C29.4822 168.371 28.2262 169.596 25.6827 169.235C25.6827 169.235 25.2526 169.178 25.353 168.484C25.353 168.484 24.6748 169.345 23.5161 168.732C22.3575 168.12 23.3654 167.093 23.3654 167.093L23.5193 167.012C23.4528 167.107 23.4077 167.217 23.3872 167.331C23.3666 167.446 23.3709 167.564 23.4 167.677C23.5287 167.991 23.9244 167.96 24.2164 167.866C25.0403 167.604 25.8021 167.176 26.4552 166.61C26.2621 166.816 26.1059 167.054 25.9936 167.313C25.9372 167.446 25.9139 167.592 25.926 167.736C25.938 167.88 25.9849 168.02 26.0627 168.142C26.1547 168.236 26.2654 168.31 26.3876 168.358C26.5098 168.407 26.6409 168.43 26.7723 168.425C27.427 168.447 28.0781 168.317 28.6738 168.045C29.2695 167.772 29.7935 167.365 30.2044 166.855C30.2044 167.25 30.1227 167.64 30.1353 168.035C30.1478 168.431 30.3205 168.867 30.6596 168.977C31.0679 169.118 31.4792 168.735 31.6582 168.312C31.8372 167.888 31.878 167.398 32.0695 166.98C32.6612 167.569 33.3829 168.011 34.1764 168.271C34.3913 168.353 34.623 168.382 34.8515 168.355C34.9696 168.338 35.0807 168.289 35.1735 168.214C35.2663 168.139 35.3372 168.04 35.3791 167.928C35.4132 167.827 35.4149 167.718 35.384 167.615C35.353 167.513 35.291 167.422 35.2064 167.357C36.1955 167.806 38.4845 168.613 38.9335 167.489C39.1753 167.972 39.122 168.553 38.0544 169.031C38.0544 169.031 36.1484 169.401 35.31 169.093L35.9066 169.407L35.1436 169.26Z" fill="black"/>
</g>
<g id="Group_3" opacity="0.1">
<path id="Vector_25" d="M17.967 176.51C18.6108 176.41 19.2261 176.174 19.7725 175.819C19.8617 176.047 20.0294 176.235 20.2453 176.351C20.4612 176.466 20.7111 176.5 20.95 176.447C21.4205 176.319 21.8519 176.076 22.206 175.741C22.3668 175.981 22.5807 176.181 22.8311 176.325C23.0816 176.469 23.3619 176.554 23.6504 176.573C23.9372 176.58 24.2218 176.521 24.4817 176.399C24.7416 176.278 24.9698 176.097 25.1481 175.873C26.7181 177.022 28.5582 177.87 30.4171 177.618C30.5955 177.612 30.7709 177.57 30.9327 177.494C31.0946 177.419 31.2396 177.312 31.3591 177.179C31.5789 176.884 31.5475 176.347 31.224 176.205C32.3607 176.45 33.5414 176.692 34.678 176.381C35.8147 176.07 36.7065 175.125 36.4616 173.678C36.4061 173.963 36.3076 174.238 36.1695 174.494C36.0147 174.702 35.7928 174.849 35.5415 174.912C34.6008 175.225 33.606 175.344 32.6179 175.259C31.6299 175.175 30.6694 174.89 29.7953 174.422C30.169 174.833 29.9115 175.606 29.4437 175.873C28.9758 176.139 28.4106 176.055 27.8737 175.954C27.2973 175.866 26.7354 175.7 26.2032 175.461C25.6493 175.204 25.1989 174.767 24.9252 174.221C24.7375 174.612 24.4775 174.963 24.159 175.257C24.0074 175.397 23.8159 175.487 23.6111 175.513C23.4063 175.54 23.1984 175.502 23.0161 175.405C22.9285 175.343 22.8545 175.263 22.7989 175.172C22.7432 175.08 22.7071 174.978 22.6926 174.871C22.6782 174.765 22.6858 174.657 22.715 174.554C22.7442 174.45 22.7943 174.354 22.8622 174.271C22.1171 174.736 21.2969 175.067 20.4381 175.251C20.3332 175.29 20.2196 175.301 20.1092 175.282C19.9987 175.262 19.8955 175.214 19.8101 175.141C19.7456 175.041 19.7144 174.924 19.7212 174.805C19.7279 174.687 19.7723 174.573 19.8478 174.482C19.9019 174.415 19.9654 174.357 20.0362 174.309C18.8512 174.887 17.5226 175.105 16.2148 174.937V175.172C16.9065 175.549 17.6459 175.83 18.4128 176.008C18.4128 176.008 18.2621 176.205 17.967 176.51Z" fill="black"/>
</g>
<g id="Group_4" opacity="0.1">
<path id="Vector_26" d="M38.6598 184.608C37.4775 184.488 36.322 184.18 35.2372 183.694C34.2977 184.365 33.1707 184.723 32.0162 184.717C30.8618 184.711 29.7387 184.341 28.8065 183.66C28.0913 184.323 27.1677 184.717 26.1938 184.775C25.22 184.832 24.2565 184.549 23.4685 183.974C22.6269 184.363 21.7069 184.668 20.812 184.473C20.3398 184.373 19.9151 184.116 19.6069 183.745C19.2986 183.373 19.1247 182.908 19.1133 182.426C19.3674 182.75 19.6918 183.011 20.062 183.192C20.4322 183.372 20.8384 183.465 21.2501 183.465C21.6617 183.465 22.068 183.372 22.4381 183.192C22.8083 183.011 23.1327 182.75 23.3868 182.426C23.6842 182.826 24.0755 183.147 24.5261 183.361C24.9767 183.574 25.4729 183.674 25.971 183.65C26.4712 183.602 26.9525 183.434 27.3743 183.161C27.7961 182.887 28.1462 182.517 28.3951 182.08C28.9909 182.582 29.6852 182.953 30.4332 183.169C31.1812 183.385 31.9663 183.442 32.7377 183.336C33.1856 183.298 33.6098 183.119 33.9498 182.825C34.1235 182.662 34.2457 182.451 34.3015 182.22C34.3573 181.988 34.3442 181.746 34.2638 181.521C35.2469 182.267 36.4457 182.673 37.6796 182.679C38.9135 182.685 40.1159 182.289 41.1058 181.553L41.1247 181.591C41.0497 181.735 40.9422 181.859 40.8107 181.955C40.1167 182.545 37.6079 182.781 37.6079 182.781C37.6079 182.781 38.6064 183.603 39.8341 184.539C39.4463 184.604 39.0526 184.627 38.6598 184.608Z" fill="black"/>
</g>
<g id="Group_5" opacity="0.1">
<path id="Vector_27" d="M11.0125 190.056C11.6053 190.171 12.208 190.226 12.8117 190.223C12.8117 190.223 13.3989 191.815 15.0097 191.639C15.0097 191.639 14.2122 191.777 13.2136 191.981C13.8204 192.213 14.4751 192.293 15.1198 192.212C15.7644 192.13 16.3791 191.892 16.9094 191.516C17.8656 192.467 19.1463 193.021 20.4943 193.067C21.8422 193.112 23.1573 192.646 24.1754 191.761C25.15 192.621 26.4013 193.101 27.7007 193.114C29.0001 193.127 30.261 192.673 31.2529 191.833C32.3457 192.822 33.7649 193.403 35.1811 193.199C35.9115 193.086 36.5955 192.77 37.1555 192.288C37.7155 191.806 38.1291 191.176 38.3493 190.471C37.2593 191.225 35.9432 191.583 34.6212 191.483C33.2992 191.384 32.0514 190.833 31.0865 189.924C31.0621 190.147 30.9772 190.359 30.8411 190.537C30.7049 190.716 30.5227 190.853 30.3141 190.935C29.9102 191.071 29.4811 191.115 29.0581 191.064C27.3342 190.976 25.5099 190.706 24.1754 189.494C23.7698 190.036 23.2332 190.466 22.6158 190.744C21.9985 191.022 21.3207 191.139 20.646 191.083C19.9664 190.991 19.3196 190.734 18.7627 190.334C18.2059 189.934 17.756 189.403 17.4526 188.788C16.2499 189.409 14.9107 189.72 13.5571 189.692C12.2035 189.663 10.8786 189.296 9.70312 188.624L11.0125 190.056Z" fill="black"/>
</g>
<g id="Group_6" opacity="0.1">
<path id="Vector_28" d="M21.7924 197.859C21.7854 198.129 21.8475 198.397 21.9727 198.636C22.098 198.876 22.2824 199.08 22.5083 199.228C22.9417 199.49 23.44 199.625 23.9464 199.617C25.4992 199.653 27.0092 199.107 28.1791 198.085C28.6025 198.641 29.1486 199.092 29.775 199.403C30.4014 199.713 31.091 199.875 31.7901 199.875C32.4893 199.875 33.1789 199.713 33.8053 199.403C34.4317 199.092 34.9778 198.641 35.4011 198.085C37.1002 198.544 38.8751 198.651 40.617 198.399C42.3589 198.148 44.031 197.543 45.5308 196.622L45.9892 196.876C45.9821 197.043 45.9427 197.208 45.873 197.36C45.3392 198.597 41.1222 199.894 41.1222 199.894C41.4787 200.032 41.8437 200.147 42.215 200.239C41.4865 200.459 40.8553 200.641 40.4565 200.77C38.9682 201.244 37.2286 200.971 36.1108 199.784C35.6263 200.384 35.0124 200.866 34.315 201.195C33.6175 201.524 32.8547 201.691 32.0836 201.684C31.3125 201.676 30.5531 201.494 29.8622 201.152C29.1714 200.809 28.567 200.315 28.0944 199.705C27.121 200.804 25.8398 201.662 24.452 201.712C23.7281 201.737 23.0168 201.519 22.4312 201.093C21.8457 200.666 21.4196 200.056 21.2209 199.36C19.5002 199.988 17.4529 199.209 16.4355 197.551C17.2284 198.054 18.1365 198.347 19.074 198.401C20.0115 198.455 20.9472 198.268 21.7924 197.859Z" fill="black"/>
</g>
<path id="Vector_29" d="M65.1116 208.591H61.0391V224.888H65.1116V208.591Z" fill="#6F4439"/>
<path id="Vector_30" d="M47.6345 208.544C47.6345 208.544 47.8324 208.412 47.3928 207.835C46.9532 207.257 47.6345 206.949 47.6345 206.949C49.5594 208.058 52.2441 206.949 52.2441 206.949C52.2441 206.949 49.0758 205.976 48.677 205.043C48.363 204.349 48.9031 204.274 49.192 204.277C48.878 204.246 48.1683 204.129 47.9548 203.759C47.6722 203.272 48.7744 202.698 48.7744 202.698C48.7174 202.58 48.6878 202.451 48.6878 202.321C48.6878 202.19 48.7174 202.061 48.7744 201.944C48.9565 201.457 53.0856 200.748 53.0856 200.748C51.883 200.88 51.4434 199.686 51.4434 199.686C51.4434 199.686 49.3961 199.73 48.9157 198.933C48.4352 198.135 49.2297 197.912 50.6018 197.25C51.974 196.587 54.9696 194.11 54.9696 194.11C54.9696 194.11 53.0856 193.934 52.5643 193.482C52.0431 193.03 52.5235 192.948 52.5235 192.948C50.2784 193.171 51.0414 191.974 51.0414 191.974C52.8244 191.432 54.4215 190.405 55.6541 189.007C55.6541 189.007 54.2505 188.693 53.5283 188.031C52.8061 187.368 54.1281 187.189 54.1281 187.189C54.1281 187.189 51.481 186.834 53.0071 185.861C54.1657 185.12 56.0183 184.124 56.593 183.826C55.965 184.055 54.53 183.779 54.53 183.779C52.8469 183.025 54.53 181.92 54.53 181.92C56.4956 180.812 59.3813 178.02 59.3813 178.02C59.3813 178.02 57.9369 178.774 57.2178 178.551C56.4988 178.328 58.0185 177.446 58.0185 177.446C58.0185 177.446 57.2555 177.665 56.9352 177.446C56.6149 177.226 57.7767 176.205 57.7767 176.205C59.5069 175.084 61.6358 172.149 62.5276 170.886C63.4193 172.142 65.5514 175.084 67.2784 176.205C67.2784 176.205 68.4433 177.223 68.1199 177.446C67.7965 177.669 67.0397 177.446 67.0397 177.446C67.0397 177.446 68.5626 178.331 67.8404 178.551C67.1182 178.771 65.6738 178.02 65.6738 178.02C65.6738 178.02 68.5626 180.812 70.5283 181.92C70.5283 181.92 72.2113 183.025 70.5283 183.779C70.5283 183.779 69.0964 184.055 68.4653 183.826C69.0399 184.14 70.8925 185.12 72.0512 185.861C73.5741 186.834 70.9271 187.189 70.9271 187.189C70.9271 187.189 72.2521 187.368 71.5299 188.031C70.8077 188.693 69.4042 189.007 69.4042 189.007C70.6368 190.405 72.2338 191.432 74.0168 191.974C74.0168 191.974 74.7767 193.171 72.5316 192.948C72.5316 192.948 73.012 193.036 72.4908 193.482C71.9695 193.928 70.0855 194.11 70.0855 194.11C70.0855 194.11 73.0937 196.59 74.4564 197.25C75.8192 197.909 76.623 198.135 76.1395 198.933C75.6559 199.73 73.6275 199.686 73.6275 199.686C73.6275 199.686 73.1847 200.88 71.9821 200.748C71.9821 200.748 76.1143 201.457 76.2933 201.944C76.3512 202.061 76.3813 202.19 76.3813 202.321C76.3813 202.451 76.3512 202.58 76.2933 202.698C76.2933 202.698 77.3955 203.272 77.116 203.759C76.9025 204.129 76.2023 204.246 75.8788 204.277C76.1646 204.277 76.6921 204.349 76.3938 205.043C75.9919 205.985 72.8268 206.949 72.8268 206.949C72.8268 206.949 75.5115 208.058 77.4363 206.949C77.4363 206.949 78.1177 207.263 77.6781 207.835C77.2385 208.406 77.4363 208.544 77.4363 208.544C77.4363 208.544 78.4379 207.791 77.9983 208.943C77.5587 210.095 75.232 210.802 75.232 210.802C75.232 210.802 76.5539 211.025 76.152 211.744C75.7501 212.463 74.0671 213.292 72.2239 213.471C70.3807 213.65 67.8938 212.984 67.8938 212.984C67.8938 212.984 69.5769 213.87 68.4151 214.356C67.2533 214.843 65.9282 213.728 65.9282 213.728C65.9282 213.728 66.17 214.862 65.206 214.473C64.5558 214.189 63.9556 213.802 63.4287 213.326C63.4287 213.326 63.1304 215 62.5276 214.598C61.9278 215 61.6264 213.326 61.6264 213.326C61.1038 213.8 60.5078 214.186 59.8617 214.469C58.9009 214.859 59.1426 213.725 59.1426 213.725C59.1426 213.725 57.8176 214.834 56.6558 214.353C55.494 213.873 57.177 212.981 57.177 212.981C57.177 212.981 54.6901 213.644 52.8469 213.468C51.0038 213.292 49.3176 212.447 48.9157 211.741C48.5137 211.034 49.8388 210.799 49.8388 210.799C49.8388 210.799 47.5121 210.092 47.0725 208.94C46.6329 207.788 47.6345 208.544 47.6345 208.544Z" fill="#455A64"/>
<path id="Vector_31" d="M56.668 182.056L56.7311 182.027C56.709 182.034 56.6878 182.043 56.668 182.056Z" fill="black"/>
<g id="Group_7" opacity="0.1">
<path id="Vector_32" d="M59.6876 177.515L60.6296 177.141C60.8027 177.371 61.0566 177.526 61.3399 177.576C61.6233 177.626 61.9149 177.566 62.1557 177.408C62.7955 177.046 63.3242 176.516 63.6849 175.876C63.6849 175.876 65.0884 176.802 65.2329 176.215C65.2692 176.048 65.2449 175.874 65.1643 175.724C65.0837 175.574 64.9521 175.457 64.7933 175.395C64.8218 175.442 64.8397 175.494 64.8457 175.549C64.8517 175.603 64.8456 175.658 64.8278 175.709C64.7682 175.816 64.63 175.813 64.5138 175.785C64.1406 175.682 63.8104 175.462 63.5718 175.157C63.2641 175.79 62.758 176.304 62.1306 176.623C62.013 176.712 61.8783 176.775 61.735 176.808C61.5918 176.842 61.4431 176.845 61.2985 176.818C61.2273 176.792 61.1628 176.75 61.1097 176.696C61.0566 176.642 61.0162 176.577 60.9916 176.506C60.9669 176.434 60.9585 176.358 60.9671 176.282C60.9756 176.207 61.0009 176.135 61.041 176.07C60.8309 176.353 60.5639 176.588 60.2572 176.76C59.9505 176.933 59.611 177.039 59.2606 177.072C59.1162 177.072 58.9278 177.044 58.8995 176.887C58.8926 176.793 58.9231 176.701 58.9843 176.629C59.1884 176.332 59.4422 176.071 59.7347 175.86C59.0992 176.328 58.3477 176.612 57.5619 176.683L56.8836 176.774C56.8616 176.855 56.8836 176.921 56.9276 176.959C57.2416 177.182 58.0109 176.959 58.0109 176.959C58.0109 176.959 56.488 177.848 57.2102 178.068C57.9324 178.287 59.3736 177.537 59.3736 177.537L59.1978 177.706L59.6876 177.515Z" fill="black"/>
</g>
<g id="Group_8" opacity="0.1">
<path id="Vector_33" d="M68.216 183.468L66.3634 182.803C66.3073 183.113 66.1403 183.392 65.8936 183.588C65.6468 183.783 65.3372 183.883 65.0226 183.867C65.0226 183.867 64.0398 183.949 63.9613 182.803C63.9613 182.803 63.0193 183.72 61.107 183.449C61.107 183.449 60.793 183.406 60.8621 182.884C60.6928 183.075 60.4606 183.199 60.2078 183.234C59.9549 183.268 59.698 183.211 59.4836 183.073C58.6138 182.614 59.3674 181.842 59.3674 181.842L59.4868 181.779C59.4362 181.851 59.4019 181.932 59.3861 182.019C59.3704 182.105 59.3737 182.193 59.3957 182.278C59.4899 182.507 59.7882 182.492 60.0237 182.423C60.6423 182.225 61.2147 181.905 61.7067 181.481C61.5612 181.635 61.4434 181.814 61.3582 182.008C61.3163 182.11 61.2998 182.22 61.3102 182.33C61.3206 182.439 61.3575 182.544 61.4179 182.636C61.4863 182.708 61.5694 182.764 61.6615 182.801C61.7536 182.838 61.8526 182.855 61.9517 182.85C62.4431 182.868 62.9319 182.771 63.3794 182.567C63.8268 182.363 64.2207 182.058 64.5296 181.675C64.5296 181.974 64.4668 182.269 64.4762 182.564C64.4673 182.708 64.4998 182.852 64.5699 182.978C64.64 183.105 64.7448 183.208 64.8719 183.277C65.1859 183.384 65.4999 183.098 65.6223 182.778C65.7448 182.457 65.7856 182.093 65.9363 181.779C66.377 182.22 66.9147 182.551 67.5063 182.746C67.6683 182.808 67.8426 182.831 68.015 182.812C68.1027 182.799 68.1854 182.763 68.2549 182.708C68.3243 182.653 68.378 182.581 68.4106 182.498C68.4353 182.422 68.4362 182.34 68.4132 182.263C68.3902 182.186 68.3444 182.118 68.2819 182.068C69.0229 182.407 70.7437 183.01 71.0796 182.168C71.2618 182.529 71.2209 182.969 70.4202 183.327C70.4202 183.327 68.9884 183.603 68.3573 183.371L68.8063 183.61L68.216 183.468Z" fill="black"/>
</g>
<g id="Group_9" opacity="0.1">
<path id="Vector_34" d="M55.314 188.916C55.7977 188.84 56.2599 188.662 56.6705 188.395C56.7384 188.565 56.8647 188.706 57.0268 188.793C57.189 188.879 57.3765 188.905 57.5559 188.866C57.9088 188.769 58.2324 188.587 58.4979 188.335C58.6183 188.516 58.7786 188.667 58.9664 188.775C59.1542 188.884 59.3646 188.949 59.5812 188.963C59.7969 188.969 60.0108 188.924 60.2064 188.833C60.402 188.742 60.5738 188.607 60.7085 188.439C61.8797 189.302 63.2676 189.937 64.6649 189.751C64.7979 189.745 64.9285 189.713 65.0487 189.656C65.169 189.599 65.2766 189.518 65.3651 189.418C65.5315 189.199 65.5064 188.79 65.2646 188.687C66.1187 188.872 67.0042 189.054 67.8489 188.819C68.2936 188.724 68.6833 188.458 68.9337 188.079C69.184 187.699 69.2748 187.236 69.1865 186.79C69.1443 187.004 69.0702 187.211 68.9667 187.403C68.8496 187.56 68.6806 187.672 68.4894 187.717C67.7878 187.949 67.0464 188.038 66.3097 187.976C65.5731 187.915 64.8565 187.705 64.2033 187.359C64.4828 187.673 64.2912 188.247 63.9364 188.448C63.568 188.607 63.1549 188.63 62.7715 188.511C62.3381 188.443 61.9157 188.317 61.5155 188.137C61.0979 187.941 60.7592 187.609 60.5546 187.195C60.4143 187.488 60.2193 187.751 59.98 187.971C59.8665 188.076 59.723 188.144 59.5694 188.164C59.4158 188.184 59.2598 188.156 59.1228 188.084C59.0566 188.038 59.0007 187.978 58.9586 187.91C58.9165 187.841 58.8892 187.764 58.8783 187.684C58.8673 187.604 58.8731 187.523 58.8952 187.445C58.9173 187.367 58.9552 187.295 59.0066 187.233C58.4468 187.582 57.8305 187.83 57.1854 187.968C57.108 187.996 57.0247 188.003 56.9437 187.988C56.8628 187.974 56.7869 187.939 56.7238 187.886C56.6753 187.811 56.6518 187.723 56.6569 187.633C56.662 187.544 56.6953 187.459 56.7521 187.39C56.7924 187.34 56.84 187.297 56.8934 187.261C56.0031 187.695 55.0056 187.858 54.0234 187.732V187.908C54.5412 188.19 55.0946 188.402 55.6688 188.536C55.6688 188.536 55.5369 188.687 55.314 188.916Z" fill="black"/>
</g>
<g id="Group_10" opacity="0.1">
<path id="Vector_35" d="M70.8569 194.998C69.97 194.907 69.1032 194.676 68.2884 194.314C67.5816 194.816 66.7348 195.084 65.8676 195.079C65.0004 195.074 64.1567 194.796 63.4559 194.285C62.9179 194.785 62.2229 195.081 61.4902 195.124C60.7574 195.167 60.0325 194.954 59.4398 194.521C58.832 194.858 58.1317 194.99 57.4428 194.898C57.0884 194.822 56.7699 194.629 56.5387 194.349C56.3074 194.07 56.1768 193.722 56.168 193.359C56.3593 193.602 56.6032 193.799 56.8814 193.934C57.1596 194.069 57.4648 194.139 57.7741 194.139C58.0833 194.139 58.3885 194.069 58.6667 193.934C58.945 193.799 59.1889 193.602 59.3802 193.359C59.6027 193.66 59.8958 193.901 60.2337 194.062C60.5717 194.222 60.9439 194.297 61.3176 194.279C61.6934 194.244 62.0552 194.118 62.3726 193.914C62.69 193.71 62.9538 193.432 63.1419 193.105C63.5886 193.482 64.1097 193.761 64.6713 193.923C65.2328 194.085 65.8223 194.127 66.4012 194.047C66.7378 194.019 67.0567 193.885 67.3118 193.664C67.4431 193.542 67.5355 193.384 67.5774 193.209C67.6193 193.035 67.6088 192.852 67.5473 192.684C68.2856 193.245 69.1861 193.551 70.1132 193.555C71.0403 193.56 71.9438 193.263 72.6875 192.709V192.737C72.6334 192.845 72.5549 192.939 72.4583 193.011C71.937 193.453 70.053 193.639 70.053 193.639C70.053 193.639 70.8035 194.267 71.7235 194.957C71.4369 195.001 71.1464 195.015 70.8569 194.998Z" fill="black"/>
</g>
<g id="Group_11" opacity="0.1">
<path id="Vector_36" d="M50.0891 199.09C50.5348 199.177 50.9882 199.219 51.4424 199.215C51.4424 199.215 51.882 200.412 53.0846 200.28C53.0846 200.28 52.488 200.38 51.7344 200.534C52.1905 200.709 52.6824 200.769 53.167 200.708C53.6515 200.648 54.1139 200.47 54.5133 200.189C55.2329 200.901 56.1946 201.315 57.2063 201.349C58.218 201.383 59.2052 201.033 59.9706 200.371C60.7043 201.013 61.6437 201.372 62.6188 201.382C63.5939 201.391 64.5403 201.052 65.2867 200.424C65.6741 200.8 66.1391 201.087 66.6489 201.264C67.1587 201.441 67.7012 201.505 68.2383 201.451C68.7867 201.365 69.3002 201.128 69.7208 200.765C70.1414 200.403 70.4523 199.93 70.6184 199.401C69.8005 199.965 68.8141 200.232 67.8233 200.157C66.8326 200.082 65.8974 199.67 65.1736 198.989C65.1561 199.157 65.0926 199.317 64.9901 199.451C64.8876 199.585 64.7501 199.688 64.5927 199.749C64.2899 199.851 63.9681 199.884 63.6507 199.847C62.3539 199.781 60.9849 199.58 59.9801 198.675C59.6753 199.082 59.2723 199.405 58.8088 199.614C58.3453 199.822 57.8365 199.91 57.3299 199.869C56.8193 199.8 56.3334 199.607 55.915 199.306C55.4967 199.006 55.1587 198.607 54.9309 198.145C54.0273 198.611 53.0213 198.844 52.0046 198.823C50.9879 198.801 49.9926 198.526 49.1094 198.022L50.0891 199.09Z" fill="black"/>
</g>
<g id="Group_12" opacity="0.1">
<path id="Vector_37" d="M58.1879 204.952C58.1839 205.154 58.231 205.354 58.3249 205.533C58.4188 205.712 58.5563 205.864 58.7248 205.976C59.0517 206.172 59.4269 206.273 59.8081 206.268C60.9743 206.295 62.1084 205.884 62.9858 205.115C63.3031 205.535 63.7134 205.875 64.1844 206.109C64.6554 206.344 65.1743 206.466 65.7003 206.466C66.2263 206.466 66.7452 206.344 67.2162 206.109C67.6872 205.875 68.0975 205.535 68.4148 205.115C69.6906 205.464 71.0243 205.548 72.3338 205.362C73.6432 205.177 74.9009 204.725 76.0293 204.035L76.3747 204.227C76.3719 204.343 76.3474 204.458 76.3025 204.566C75.9006 205.508 72.7323 206.472 72.7323 206.472C73.0006 206.576 73.2754 206.662 73.555 206.729C73.0055 206.896 72.5345 207.043 72.2331 207.128C71.6747 207.323 71.0729 207.357 70.4962 207.226C69.9194 207.096 69.3908 206.806 68.9706 206.39C68.6054 206.84 68.1434 207.201 67.6192 207.447C67.0949 207.693 66.5218 207.818 65.9426 207.812C65.3635 207.806 64.7931 207.669 64.2741 207.412C63.7551 207.155 63.3007 206.784 62.945 206.327C62.2165 207.153 61.2556 207.8 60.21 207.838C59.6665 207.855 59.1328 207.69 58.6932 207.37C58.2537 207.05 57.9333 206.592 57.7828 206.07C57.118 206.283 56.4008 206.264 55.748 206.017C55.0951 205.77 54.5451 205.31 54.1875 204.71C54.7794 205.086 55.4568 205.305 56.1565 205.347C56.8561 205.39 57.5551 205.254 58.1879 204.952Z" fill="black"/>
</g>
<path id="Vector_38" d="M123.169 224.555H128.24V204.384H123.169V224.555Z" fill="#6F4439"/>
<path id="Vector_39" d="M144.937 204.324C144.937 204.324 144.686 204.158 145.235 203.442C145.785 202.726 144.937 202.34 144.937 202.34C142.538 203.718 139.194 202.34 139.194 202.34C139.194 202.34 143.138 201.125 143.637 199.966C144.011 199.102 143.355 199.005 143.009 199.024C143.411 198.983 144.284 198.842 144.548 198.38C144.887 197.762 143.499 197.03 143.499 197.03C143.572 196.884 143.61 196.722 143.61 196.559C143.61 196.396 143.572 196.234 143.499 196.088C143.276 195.479 138.133 194.597 138.133 194.597C139.63 194.763 140.18 193.275 140.18 193.275C140.18 193.275 142.727 193.328 143.32 192.333C143.913 191.337 142.921 191.077 141.222 190.238C139.524 189.4 135.8 186.354 135.8 186.354C135.8 186.354 138.145 186.131 138.795 185.582C139.445 185.032 138.845 184.919 138.845 184.919C141.64 185.195 140.692 183.704 140.692 183.704C138.472 183.029 136.484 181.751 134.949 180.011C134.949 180.011 136.698 179.625 137.596 178.796C138.494 177.967 136.848 177.747 136.848 177.747C136.848 177.747 140.142 177.308 138.246 176.092C136.804 175.172 134.497 173.932 133.781 173.559C134.566 173.847 136.349 173.502 136.349 173.502C138.444 172.56 136.349 171.185 136.349 171.185C133.903 169.797 130.311 166.321 130.311 166.321C130.311 166.321 132.107 167.263 133.005 166.983C133.903 166.704 132.007 165.605 132.007 165.605C132.007 165.605 132.949 165.881 133.357 165.605C133.765 165.329 132.308 164.06 132.308 164.06C130.154 162.666 127.501 159.008 126.392 157.438C125.281 159.008 122.624 162.666 120.476 164.06C120.476 164.06 119.029 165.316 119.428 165.605C119.826 165.894 120.775 165.605 120.775 165.605C120.775 165.605 118.891 166.707 119.776 166.983C120.662 167.26 122.461 166.321 122.461 166.321C122.461 166.321 118.866 169.797 116.42 171.175C116.42 171.175 114.322 172.554 116.42 173.493C116.42 173.493 118.203 173.838 118.988 173.549C118.272 173.923 115.964 175.163 114.523 176.083C112.639 177.298 115.92 177.738 115.92 177.738C115.92 177.738 114.272 177.961 115.173 178.787C116.074 179.612 117.817 180.002 117.817 180.002C116.29 181.738 114.31 183.017 112.099 183.694C112.099 183.694 111.157 185.186 113.945 184.91C113.945 184.91 113.346 185.02 113.996 185.572C114.645 186.125 116.991 186.345 116.991 186.345C116.991 186.345 113.245 189.431 111.549 190.26C109.854 191.089 108.852 191.362 109.452 192.355C110.052 193.347 112.592 193.297 112.592 193.297C112.592 193.297 113.141 194.785 114.639 194.618C114.639 194.618 109.496 195.501 109.27 196.11C109.198 196.257 109.16 196.418 109.16 196.581C109.16 196.744 109.198 196.905 109.27 197.052C109.27 197.052 107.898 197.771 108.246 198.377C108.513 198.839 109.386 198.98 109.788 199.021C109.43 199.021 108.774 199.112 109.16 199.963C109.659 201.121 113.603 202.337 113.603 202.337C113.603 202.337 110.256 203.715 107.86 202.337C107.86 202.337 107.012 202.723 107.562 203.439C108.111 204.155 107.86 204.321 107.86 204.321C107.86 204.321 106.604 203.379 107.163 204.817C107.722 206.255 110.617 207.135 110.617 207.135C110.617 207.135 108.968 207.411 109.468 208.293C109.967 209.176 112.064 210.221 114.36 210.444C116.655 210.667 119.751 209.835 119.751 209.835C119.751 209.835 117.657 210.94 119.104 211.546C120.552 212.152 122.2 210.774 122.2 210.774C122.2 210.774 121.886 212.187 123.098 211.716C123.903 211.363 124.645 210.883 125.296 210.293C125.296 210.293 125.673 212.375 126.42 211.863C127.168 212.363 127.541 210.293 127.541 210.293C128.192 210.883 128.935 211.364 129.739 211.716C130.939 212.202 130.638 210.774 130.638 210.774C130.638 210.774 132.286 212.152 133.734 211.546C135.181 210.94 133.084 209.835 133.084 209.835C133.084 209.835 136.18 210.664 138.475 210.444C140.77 210.224 142.871 209.188 143.37 208.293C143.869 207.398 142.221 207.135 142.221 207.135C142.221 207.135 145.116 206.252 145.675 204.817C146.234 203.382 144.937 204.324 144.937 204.324Z" fill="#455A64"/>
<path id="Vector_40" d="M133.682 171.342L133.604 171.307C133.632 171.313 133.659 171.325 133.682 171.342Z" fill="black"/>
<g id="Group_13" opacity="0.1">
<path id="Vector_41" d="M129.92 165.686L128.739 165.222C128.739 165.222 128.08 166.198 126.837 165.555C126.04 165.105 125.38 164.446 124.931 163.649C124.931 163.649 123.185 164.801 123.003 164.069C122.958 163.862 122.988 163.645 123.089 163.458C123.19 163.271 123.354 163.126 123.552 163.049C123.513 163.109 123.489 163.177 123.482 163.248C123.474 163.319 123.483 163.39 123.508 163.457C123.584 163.586 123.756 163.583 123.894 163.548C124.366 163.429 124.784 163.158 125.084 162.776C125.468 163.564 126.099 164.204 126.881 164.6C127.027 164.71 127.195 164.788 127.373 164.829C127.552 164.871 127.737 164.875 127.917 164.842C128.262 164.732 128.495 164.195 128.231 163.9C128.492 164.252 128.824 164.546 129.206 164.763C129.588 164.979 130.011 165.113 130.448 165.156C130.63 165.171 130.865 165.124 130.9 164.927C130.905 164.812 130.867 164.7 130.793 164.613C130.536 164.246 130.217 163.927 129.851 163.671C130.641 164.253 131.577 164.607 132.555 164.694L133.399 164.807C133.418 164.846 133.423 164.891 133.413 164.933C133.403 164.975 133.38 165.013 133.346 165.04C132.944 165.316 131.996 165.04 131.996 165.04C131.996 165.04 133.895 166.142 132.994 166.418C132.093 166.694 130.3 165.755 130.3 165.755L130.52 165.969L129.92 165.686Z" fill="black"/>
</g>
<g id="Group_14" opacity="0.1">
<path id="Vector_42" d="M119.32 173.103L121.628 172.271C121.628 172.271 121.885 173.674 123.298 173.596C123.298 173.596 124.523 173.7 124.617 172.271C124.617 172.271 125.792 173.414 128.169 173.075C128.169 173.075 128.571 173.025 128.483 172.375C128.694 172.613 128.983 172.767 129.298 172.809C129.613 172.852 129.933 172.78 130.2 172.607C131.283 172.035 130.341 171.075 130.341 171.075L130.197 170.996C130.26 171.086 130.303 171.189 130.323 171.298C130.342 171.406 130.338 171.517 130.31 171.624C130.191 171.91 129.82 171.891 129.547 171.803C128.777 171.559 128.064 171.16 127.453 170.632C127.634 170.824 127.78 171.048 127.883 171.291C127.936 171.416 127.957 171.552 127.944 171.687C127.931 171.821 127.886 171.951 127.811 172.064C127.725 172.152 127.622 172.222 127.508 172.267C127.394 172.313 127.271 172.333 127.148 172.327C126.536 172.35 125.927 172.23 125.369 171.977C124.812 171.724 124.321 171.344 123.936 170.867C123.936 171.238 124.014 171.605 124.002 171.976C123.989 172.346 123.829 172.751 123.509 172.861C123.132 172.993 122.743 172.638 122.567 172.233C122.391 171.828 122.363 171.379 122.184 170.977C121.631 171.53 120.955 171.944 120.212 172.186C120.012 172.262 119.797 172.29 119.584 172.268C119.473 172.251 119.369 172.205 119.283 172.134C119.196 172.063 119.13 171.971 119.091 171.866C119.06 171.771 119.058 171.669 119.087 171.574C119.116 171.478 119.173 171.394 119.251 171.332C118.309 171.753 116.186 172.5 115.766 171.458C115.543 171.907 115.59 172.453 116.588 172.899C116.588 172.899 118.369 173.244 119.157 172.955L118.598 173.251L119.32 173.103Z" fill="black"/>
</g>
<g id="Group_15" opacity="0.1">
<path id="Vector_43" d="M135.371 179.883C134.768 179.79 134.192 179.569 133.682 179.236C133.595 179.447 133.437 179.621 133.235 179.727C133.033 179.833 132.8 179.865 132.577 179.817C132.14 179.693 131.739 179.466 131.408 179.154C131.258 179.378 131.058 179.565 130.824 179.7C130.59 179.835 130.328 179.915 130.058 179.933C129.79 179.939 129.524 179.884 129.282 179.77C129.039 179.657 128.825 179.489 128.658 179.28C127.201 180.354 125.468 181.145 123.728 180.912C123.563 180.904 123.401 180.863 123.252 180.792C123.103 180.721 122.969 180.621 122.858 180.498C122.651 180.225 122.682 179.719 122.984 179.587C121.919 179.817 120.817 180.046 119.768 179.754C118.72 179.462 117.884 178.589 118.098 177.226C118.151 177.491 118.243 177.748 118.371 177.986C118.517 178.184 118.729 178.323 118.968 178.378C119.841 178.669 120.765 178.779 121.682 178.702C122.6 178.626 123.492 178.364 124.306 177.933C123.954 178.319 124.196 179.038 124.635 179.289C125.075 179.54 125.599 179.462 126.086 179.368C126.628 179.284 127.156 179.129 127.656 178.906C128.174 178.664 128.595 178.254 128.852 177.744C129.027 178.109 129.27 178.437 129.568 178.711C129.711 178.841 129.889 178.924 130.08 178.95C130.271 178.975 130.465 178.941 130.636 178.853C130.719 178.795 130.788 178.721 130.841 178.635C130.893 178.549 130.927 178.453 130.941 178.354C130.954 178.254 130.947 178.152 130.919 178.056C130.892 177.959 130.845 177.869 130.78 177.791C131.478 178.226 132.246 178.536 133.051 178.705C133.146 178.742 133.25 178.752 133.35 178.734C133.451 178.717 133.545 178.672 133.622 178.605C133.687 178.511 133.718 178.398 133.712 178.285C133.706 178.171 133.662 178.063 133.588 177.977C133.538 177.913 133.478 177.858 133.412 177.813C134.52 178.353 135.762 178.557 136.985 178.4L137.004 178.62C136.359 178.973 135.669 179.237 134.954 179.405C134.954 179.405 135.092 179.597 135.371 179.883Z" fill="black"/>
</g>
<g id="Group_16" opacity="0.1">
<path id="Vector_44" d="M116.015 187.456C117.12 187.344 118.2 187.056 119.214 186.602C120.094 187.23 121.149 187.565 122.229 187.559C123.31 187.553 124.361 187.207 125.234 186.571C125.903 187.194 126.768 187.564 127.681 187.617C128.593 187.671 129.496 187.404 130.233 186.863C131.021 187.227 131.881 187.513 132.72 187.331C133.161 187.236 133.558 186.996 133.846 186.648C134.134 186.301 134.297 185.866 134.308 185.415C134.07 185.717 133.766 185.961 133.42 186.128C133.073 186.295 132.694 186.382 132.309 186.382C131.924 186.382 131.545 186.294 131.199 186.126C130.853 185.958 130.549 185.714 130.311 185.412C130.035 185.787 129.669 186.089 129.248 186.289C128.827 186.489 128.362 186.581 127.897 186.558C127.429 186.514 126.978 186.358 126.583 186.103C126.188 185.848 125.86 185.503 125.626 185.095C125.071 185.567 124.423 185.917 123.723 186.122C123.023 186.326 122.288 186.381 121.566 186.282C121.148 186.245 120.752 186.078 120.433 185.804C120.27 185.652 120.156 185.455 120.104 185.237C120.052 185.02 120.065 184.793 120.141 184.583C119.22 185.28 118.099 185.659 116.945 185.665C115.79 185.671 114.665 185.302 113.738 184.614V184.649C113.805 184.783 113.902 184.9 114.021 184.991C114.671 185.541 117.02 185.764 117.02 185.764C117.02 185.764 116.078 186.533 114.938 187.409C115.294 187.463 115.655 187.478 116.015 187.456Z" fill="black"/>
</g>
<g id="Group_17" opacity="0.1">
<path id="Vector_45" d="M141.874 192.552C141.32 192.661 140.756 192.714 140.191 192.709C140.191 192.709 139.642 194.198 138.144 194.031C138.144 194.031 138.888 194.16 139.824 194.345C139.257 194.562 138.645 194.635 138.043 194.56C137.44 194.484 136.866 194.262 136.37 193.912C135.474 194.799 134.277 195.316 133.017 195.358C131.757 195.401 130.528 194.966 129.575 194.141C128.663 194.945 127.493 195.394 126.278 195.407C125.063 195.419 123.884 194.995 122.956 194.21C121.935 195.133 120.588 195.673 119.279 195.488C118.595 195.381 117.956 195.084 117.432 194.633C116.908 194.181 116.521 193.592 116.314 192.932C117.333 193.635 118.561 193.968 119.795 193.875C121.029 193.783 122.195 193.27 123.097 192.424C123.119 192.632 123.198 192.83 123.325 192.996C123.453 193.163 123.624 193.29 123.819 193.366C124.195 193.494 124.596 193.536 124.99 193.488C126.601 193.406 128.306 193.155 129.559 192.028C129.937 192.535 130.438 192.938 131.015 193.198C131.592 193.458 132.225 193.568 132.856 193.516C133.492 193.431 134.098 193.191 134.619 192.816C135.141 192.442 135.562 191.944 135.845 191.368C136.97 191.95 138.222 192.24 139.488 192.214C140.754 192.188 141.993 191.845 143.092 191.218L141.874 192.552Z" fill="black"/>
</g>
<g id="Group_18" opacity="0.1">
<path id="Vector_46" d="M131.793 199.856C131.798 200.108 131.739 200.357 131.622 200.58C131.506 200.803 131.334 200.992 131.124 201.131C130.718 201.377 130.251 201.503 129.777 201.495C128.323 201.531 126.91 201.019 125.817 200.06C125.422 200.582 124.911 201.005 124.325 201.296C123.739 201.587 123.093 201.739 122.438 201.739C121.784 201.739 121.138 201.587 120.552 201.296C119.966 201.005 119.455 200.582 119.06 200.06C117.471 200.49 115.811 200.59 114.182 200.355C112.553 200.12 110.989 199.555 109.586 198.694L109.156 198.93C109.162 199.087 109.2 199.241 109.269 199.382C109.769 200.54 113.712 201.756 113.712 201.756C113.378 201.881 113.036 201.986 112.689 202.07C113.37 202.274 113.945 202.443 114.334 202.563C115.026 202.803 115.771 202.845 116.486 202.684C117.201 202.523 117.856 202.165 118.378 201.652C118.832 202.212 119.407 202.663 120.059 202.97C120.711 203.277 121.425 203.433 122.146 203.426C122.867 203.419 123.577 203.249 124.223 202.928C124.869 202.608 125.434 202.146 125.877 201.577C126.787 202.607 127.984 203.407 129.284 203.461C129.961 203.484 130.626 203.28 131.174 202.882C131.722 202.484 132.121 201.914 132.307 201.263C133.915 201.847 135.837 201.121 136.782 199.57C136.043 200.037 135.197 200.309 134.324 200.359C133.451 200.409 132.58 200.236 131.793 199.856Z" fill="black"/>
</g>
</g>
<g id="freepik--Plants--inject-32">
<path id="Vector_47" d="M148.185 223.798L147.199 224.477L147.761 223.5C147.506 223.321 147.246 223.145 146.979 222.966L146.012 224.078L146.596 222.709C146.332 222.539 146.065 222.37 145.792 222.206L144.919 223.924L145.409 221.974L145.007 221.742L143.986 223.968L144.614 221.516C144.213 221.296 143.799 221.08 143.374 220.869C142.803 221.701 141.71 223.268 141.71 223.268L142.551 220.483C141.751 220.125 140.906 219.792 140.011 219.494L138.755 222.869L139.298 219.267C138.576 219.051 137.823 218.856 137.031 218.69L135.775 222.684L136.146 218.517L135.612 218.429L135.012 222.687L134.642 218.291C133.681 218.172 132.67 218.093 131.609 218.062L130.94 222.357L130.657 218.052C130.419 218.052 130.177 218.052 129.932 218.052L129.897 222.341L129.184 218.068H128.845C128.249 218.096 127.674 218.134 127.106 218.175L126.324 223.459V218.241L125.649 218.3L125.288 223.447L124.738 218.423C123.71 218.542 122.739 218.682 121.824 218.844L121.206 223.594L120.766 219.035L120.248 219.145L120.443 223.56L119.322 219.349C118.524 219.537 117.774 219.737 117.07 219.949L117.46 223.613L116.351 220.159C115.409 220.473 114.558 220.787 113.792 221.101L114.489 223.855C114.489 223.855 113.528 222.332 112.985 221.462C112.521 221.672 112.09 221.888 111.695 222.112L112.178 224.452L111.315 222.323C111.164 222.408 111.02 222.493 110.881 222.577L111.246 224.367L110.53 222.797C110.235 222.985 109.965 223.164 109.723 223.34L110.15 224.477L109.415 223.566C109.101 223.802 108.837 224.015 108.618 224.194L108.932 224.822L108.388 224.414C108.165 224.621 108.002 224.788 107.898 224.904L107.936 224.96H129.081L149.934 224.976C149.378 224.571 148.797 224.235 148.185 223.798Z" fill="#455A64"/>
<path id="Vector_48" d="M55.9526 223.62L54.8473 224.496L55.4753 223.24C55.1896 223.01 54.8976 222.781 54.6024 222.552L53.5034 223.99L54.1597 222.219C53.8645 221.999 53.5662 221.78 53.2616 221.563L52.2819 223.789L52.8314 221.277L52.3793 220.963L51.2332 223.849L51.9303 220.671C51.4781 220.386 51.0134 220.108 50.5361 219.836C49.9081 220.913 48.6709 222.945 48.6709 222.945L49.6129 219.324C48.6887 218.842 47.7378 218.414 46.765 218.04L45.3582 222.411L45.9674 217.754C45.1573 217.471 44.3095 217.22 43.424 217.007L42.0204 222.181L42.4318 216.784L41.8352 216.668L41.1632 222.181L40.7487 216.498C39.6204 216.337 38.4841 216.239 37.345 216.203L36.6039 221.761L36.2899 216.184C36.0199 216.184 35.7498 216.184 35.4735 216.184L35.4358 221.739L34.6508 216.212L34.2678 216.228C33.5989 216.266 32.9521 216.313 32.3178 216.366L31.4418 223.211V216.451L30.685 216.529L30.28 223.164L29.652 216.655C28.4996 216.809 27.41 216.994 26.3832 217.201L25.6956 223.359L25.2057 217.44C25.0048 217.484 24.8164 217.534 24.6217 217.581L24.8415 223.302L23.5855 217.848C22.6906 218.09 21.8491 218.351 21.0735 218.624L21.5068 223.368L20.2508 218.916C19.2731 219.28 18.3142 219.693 17.3777 220.153L18.1658 223.72C18.1658 223.72 17.0857 221.748 16.4765 220.621C15.9553 220.9 15.4717 221.183 15.029 221.459L15.5722 224.493L14.6019 221.736C14.4355 221.846 14.2879 221.955 14.1152 222.065L14.5266 224.379L13.7259 222.342C13.393 222.583 13.0979 222.819 12.8184 223.042L13.2988 224.518L12.473 223.334C12.1213 223.648 11.8262 223.921 11.5781 224.169V224.976H57.7769C57.1489 224.42 56.6371 224.185 55.9526 223.62Z" fill="#455A64"/>
<path id="Vector_49" d="M97.0279 215.914C96.8137 216.002 96.6197 216.132 96.4577 216.297C96.2957 216.462 96.1692 216.659 96.0859 216.875C95.9232 217.304 95.8619 217.765 95.9069 218.222C96.0271 219.134 96.3808 219.999 96.9337 220.734C97.703 220.122 97.9228 219.004 97.9982 218.429C98.1175 217.522 97.7846 215.807 97.0122 215.917" fill="#633CFF"/>
<path id="Vector_50" d="M96.0167 222.15C96.0787 221.901 96.0736 221.641 96.0019 221.395C95.9302 221.149 95.7944 220.926 95.6085 220.75C95.4201 220.576 95.1988 220.442 94.9578 220.355C94.7167 220.268 94.4608 220.231 94.2049 220.244C94.0883 220.237 93.9715 220.256 93.863 220.3C93.7545 220.343 93.6568 220.41 93.5769 220.495C93.516 220.587 93.4804 220.694 93.4738 220.804C93.4672 220.915 93.4898 221.025 93.5393 221.123C93.6427 221.32 93.7966 221.486 93.9851 221.604C94.6131 222.034 95.2882 222.335 96.023 222.15" fill="#633CFF"/>
<path id="Vector_51" d="M96.8453 224.885C96.8455 224.824 96.8392 224.763 96.8265 224.703C96.8108 224.577 96.7857 224.411 96.7605 224.213C96.6991 223.67 96.5518 223.14 96.3241 222.643C96.0883 222.137 95.7207 221.703 95.2596 221.387C95.1198 221.297 94.9702 221.223 94.8137 221.167C94.7705 221.151 94.7265 221.138 94.6819 221.126C94.6536 221.126 94.6379 221.126 94.6348 221.126C94.8457 221.209 95.0468 221.314 95.2345 221.44C95.6778 221.755 96.0334 222.178 96.2676 222.668C96.4948 223.166 96.6452 223.695 96.7134 224.238C96.7511 224.445 96.7794 224.612 96.8014 224.728C96.8129 224.781 96.8276 224.834 96.8453 224.885Z" fill="#263238"/>
<path id="Vector_52" d="M97.1558 217.242C97.1527 217.268 97.1527 217.295 97.1558 217.321C97.1558 217.38 97.1401 217.456 97.1307 217.547C97.1118 217.741 97.0898 218.027 97.0616 218.379C97.0082 219.082 96.9454 220.052 96.9046 221.126C96.8638 222.2 96.8449 223.177 96.8418 223.88C96.8418 224.232 96.8418 224.508 96.8418 224.715C96.8418 224.806 96.8418 224.882 96.8418 224.941C96.8392 224.968 96.8392 224.994 96.8418 225.02C96.8444 224.994 96.8444 224.968 96.8418 224.941C96.8418 224.882 96.8418 224.806 96.8418 224.715C96.8418 224.508 96.8418 224.226 96.8606 223.88C96.8606 223.177 96.8983 222.203 96.9391 221.13C96.9799 220.056 97.0365 219.085 97.0773 218.382C97.0993 218.037 97.115 217.754 97.1275 217.55C97.1275 217.456 97.1275 217.38 97.1275 217.321C97.1412 217.296 97.1507 217.27 97.1558 217.242Z" fill="#263238"/>
<path id="Vector_53" d="M97.2715 222.743C97.3841 222.215 97.6211 221.72 97.963 221.301C98.3048 220.883 98.7416 220.551 99.2371 220.335C99.345 220.241 99.4848 220.191 99.6282 220.195C99.7715 220.2 99.9077 220.259 100.009 220.361C100.111 220.462 100.17 220.598 100.174 220.742C100.179 220.885 100.129 221.025 100.035 221.133C99.7934 221.653 99.4035 222.091 98.9141 222.39C98.4246 222.69 97.8574 222.838 97.284 222.816" fill="#633CFF"/>
<path id="Vector_54" d="M99.0806 221.164C99.0254 221.18 98.9718 221.201 98.9204 221.227C98.8578 221.251 98.797 221.279 98.7383 221.312C98.6584 221.351 98.5808 221.395 98.5059 221.444C98.4243 221.497 98.3301 221.553 98.239 221.626C98.1399 221.7 98.0445 221.78 97.9533 221.864C97.7455 222.059 97.5601 222.276 97.4007 222.511C97.2458 222.75 97.1193 223.006 97.0239 223.274C96.9823 223.391 96.9477 223.511 96.9202 223.632C96.8943 223.736 96.8744 223.84 96.8606 223.946C96.8449 224.043 96.8449 224.135 96.8386 224.213C96.8324 224.28 96.8324 224.347 96.8386 224.414C96.8344 224.47 96.8344 224.527 96.8386 224.584C96.8543 224.584 96.8386 224.342 96.9014 223.956C96.916 223.85 96.9369 223.745 96.9642 223.642C96.9935 223.524 97.0291 223.407 97.071 223.293C97.1686 223.031 97.295 222.78 97.4478 222.546C97.6054 222.318 97.7864 222.108 97.9878 221.918C98.0759 221.834 98.1681 221.754 98.2642 221.679C98.3476 221.612 98.4346 221.549 98.5248 221.491C98.8576 221.268 99.0868 221.177 99.0806 221.164Z" fill="#263238"/>
</g>
<g id="freepik--Sun--inject-32">
<path id="Vector_55" d="M84.3053 35.8758C90.5189 35.8758 95.5559 30.8387 95.5559 24.6251C95.5559 18.4116 90.5189 13.3745 84.3053 13.3745C78.0918 13.3745 73.0547 18.4116 73.0547 24.6251C73.0547 30.8387 78.0918 35.8758 84.3053 35.8758Z" fill="#633CFF"/>
<path id="Vector_56" opacity="0.9" d="M84.3053 35.8758C90.5189 35.8758 95.5559 30.8387 95.5559 24.6251C95.5559 18.4116 90.5189 13.3745 84.3053 13.3745C78.0918 13.3745 73.0547 18.4116 73.0547 24.6251C73.0547 30.8387 78.0918 35.8758 84.3053 35.8758Z" fill="white"/>
<path id="Vector_57" d="M84.305 34.6605C89.8474 34.6605 94.3404 30.1675 94.3404 24.625C94.3404 19.0826 89.8474 14.5896 84.305 14.5896C78.7625 14.5896 74.2695 19.0826 74.2695 24.625C74.2695 30.1675 78.7625 34.6605 84.305 34.6605Z" fill="#633CFF"/>
<path id="Vector_58" opacity="0.6" d="M84.305 34.6605C89.8474 34.6605 94.3404 30.1675 94.3404 24.625C94.3404 19.0826 89.8474 14.5896 84.305 14.5896C78.7625 14.5896 74.2695 19.0826 74.2695 24.625C74.2695 30.1675 78.7625 34.6605 84.305 34.6605Z" fill="white"/>
<path id="Vector_59" d="M85.6994 32.8641C90.2459 32.0943 93.3075 27.7846 92.5377 23.2381C91.7679 18.6917 87.4582 15.6301 82.9118 16.3999C78.3653 17.1697 75.3037 21.4793 76.0735 26.0258C76.8433 30.5723 81.153 33.6338 85.6994 32.8641Z" fill="#633CFF"/>
<path id="Vector_60" opacity="0.3" d="M85.6994 32.8641C90.2459 32.0943 93.3075 27.7846 92.5377 23.2381C91.7679 18.6917 87.4582 15.6301 82.9118 16.3999C78.3653 17.1697 75.3037 21.4793 76.0735 26.0258C76.8433 30.5723 81.153 33.6338 85.6994 32.8641Z" fill="white"/>
<path id="Vector_61" fill-rule="evenodd" clip-rule="evenodd" d="M90.9912 24.6252C90.9912 25.9474 90.5991 27.2399 89.8646 28.3393C89.13 29.4386 88.086 30.2955 86.8644 30.8014C85.6429 31.3074 84.2987 31.4398 83.002 31.1819C81.7052 30.9239 80.514 30.2872 79.5791 29.3523C78.6442 28.4174 78.0075 27.2262 77.7495 25.9294C77.4916 24.6327 77.624 23.2885 78.13 22.067C78.6359 20.8454 79.4928 19.8014 80.5921 19.0668C81.6915 18.3323 82.984 17.9402 84.3062 17.9402C86.0789 17.941 87.7788 18.6456 89.0323 19.8991C90.2858 21.1526 90.9904 22.8525 90.9912 24.6252Z" fill="#633CFF"/>
</g>
<g id="freepik--Device--inject-32">
<path id="Vector_62" d="M45.9775 78.2132C45.9775 78.2132 45.1046 78.5962 39.8954 78.5962C36.9563 78.5962 31.543 77.5349 31.543 77.5349L45.9775 78.2132Z" fill="#263238"/>
<path id="Vector_63" d="M48.4505 77.5223C48.4505 77.5223 47.6153 78.4078 45.5837 78.4015C43.5521 78.3953 31.2527 77.5035 31.3344 77.5223C31.416 77.5412 48.4537 77.3748 48.4537 77.3748L48.4505 77.5223Z" fill="#455A64"/>
<path id="Vector_64" d="M48.2992 78.5962H49.3574V76.7907H48.2992V78.5962Z" fill="#E0E0E0"/>
<path id="Vector_65" d="M46.8398 78.9792V78.3638H50.5482V79.1551L46.8398 78.9792Z" fill="#263238"/>
<path id="Vector_66" d="M47.7449 90.1482L46.6239 82.3956L46.1152 81.9152V79.4628L46.4889 78.9792H50.7467L50.6588 82.0031L50.1187 90.0948C50.1077 90.2704 50.0306 90.4352 49.9031 90.5564C49.7756 90.6775 49.6069 90.7459 49.4311 90.748H48.4263C48.2594 90.7471 48.0985 90.686 47.9733 90.5757C47.848 90.4655 47.7669 90.3136 47.7449 90.1482Z" fill="#633CFF"/>
<path id="Vector_67" d="M51.9958 78.9792L72.2614 77.0293L71.7213 79.9621L51.5656 82.0031H50.0898V78.9792H51.9958Z" fill="#633CFF"/>
<path id="Vector_68" d="M63.9303 77.2837C63.9303 77.2837 53.2543 78.7375 51.6561 78.4769C50.66 78.3038 49.7029 77.9539 48.8301 77.4438L63.9303 77.2837Z" fill="#455A64"/>
<path id="Vector_69" opacity="0.3" d="M48.4505 77.5223C48.4505 77.5223 47.6153 78.4078 45.5837 78.4015C43.5521 78.3953 31.2527 77.5035 31.3344 77.5223C31.416 77.5412 48.4537 77.3748 48.4537 77.3748L48.4505 77.5223Z" fill="black"/>
<path id="Vector_70" opacity="0.3" d="M63.9303 77.2837C63.9303 77.2837 53.2543 78.7375 51.6561 78.4769C50.66 78.3038 49.7029 77.9539 48.8301 77.4438L63.9303 77.2837Z" fill="black"/>
<path id="Vector_71" d="M48.2992 76.9541H49.3574V76.7908H48.2992V76.9541Z" fill="#633CFF"/>
<path id="Vector_72" opacity="0.3" d="M46.1152 79.4628L46.7307 79.3246L46.4889 78.9792L46.1152 79.4628Z" fill="black"/>
<path id="Vector_73" d="M50.8158 80.3296C50.8788 80.9994 50.8321 81.675 50.6776 82.3298C50.6146 81.66 50.6612 80.9844 50.8158 80.3296Z" fill="#263238"/>
<path id="Vector_74" opacity="0.3" d="M71.4956 79.984L71.1439 78.7594L65.7463 77.6572L65.0586 77.6949C65.1378 78.0677 65.31 78.4143 65.5593 78.7026C65.8085 78.9908 66.1267 79.2113 66.4842 79.3434C67.7119 79.7861 69.7749 79.5161 69.7749 79.5161L69.9633 80.1441L71.4956 79.984Z" fill="black"/>
<path id="Vector_75" d="M117.971 78.48C117.971 78.48 118.847 78.8631 124.056 78.8631C126.992 78.8631 132.408 77.8049 132.408 77.8049L117.971 78.48Z" fill="#263238"/>
<path id="Vector_76" d="M115.499 77.7924C115.499 77.7924 116.334 78.6778 118.366 78.6716C120.398 78.6653 132.697 77.7704 132.615 77.7924C132.534 77.8143 115.496 77.6448 115.496 77.6448L115.499 77.7924Z" fill="#455A64"/>
<path id="Vector_77" d="M115.65 77.0608H114.592V78.8663H115.65V77.0608Z" fill="#E0E0E0"/>
<path id="Vector_78" d="M117.111 79.2494V78.6309H113.402V79.4253L117.111 79.2494Z" fill="#263238"/>
<path id="Vector_79" d="M116.206 90.4183L117.327 82.6656L117.836 82.182V79.7328L117.462 79.2493H113.201L113.292 82.2731L113.832 90.3617C113.843 90.5378 113.919 90.7035 114.047 90.8252C114.175 90.947 114.344 91.0159 114.52 91.018H115.525C115.692 91.0172 115.853 90.956 115.978 90.8457C116.103 90.7355 116.184 90.5837 116.206 90.4183Z" fill="#633CFF"/>
<path id="Vector_80" d="M111.955 79.2492L91.6895 77.2961L92.2295 80.2289L112.385 82.273H113.861V79.2492H111.955Z" fill="#633CFF"/>
<path id="Vector_81" d="M100.02 77.5537C100.02 77.5537 110.696 79.0044 112.294 78.7469C113.295 78.5756 114.258 78.2257 115.135 77.7138L100.02 77.5537Z" fill="#455A64"/>
<path id="Vector_82" opacity="0.3" d="M115.499 77.7924C115.499 77.7924 116.334 78.6778 118.366 78.6716C120.398 78.6653 132.697 77.7704 132.615 77.7924C132.534 77.8143 115.496 77.6448 115.496 77.6448L115.499 77.7924Z" fill="black"/>
<path id="Vector_83" opacity="0.3" d="M100.02 77.5537C100.02 77.5537 110.696 79.0044 112.294 78.7469C113.295 78.5756 114.258 78.2257 115.135 77.7138L100.02 77.5537Z" fill="black"/>
<path id="Vector_84" d="M115.65 77.0608H114.592V77.2241H115.65V77.0608Z" fill="#633CFF"/>
<path id="Vector_85" opacity="0.3" d="M117.833 79.7328L117.221 79.5915L117.462 79.2493L117.833 79.7328Z" fill="black"/>
<path id="Vector_86" d="M113.135 80.5996C113.236 80.9206 113.287 81.2553 113.286 81.5919C113.342 81.9244 113.342 82.2641 113.286 82.5966C113.184 82.2757 113.135 81.9409 113.138 81.6044C113.08 81.2721 113.079 80.9323 113.135 80.5996Z" fill="#263238"/>
<path id="Vector_87" d="M41.2422 67.2891C41.2422 67.2891 42.6552 67.9171 51.0578 67.9171C55.7961 67.9171 64.5316 66.2058 64.5316 66.2058L41.2422 67.2891Z" fill="#263238"/>
<path id="Vector_88" d="M37.2532 66.1805C37.2532 66.1805 38.6003 67.6061 41.8753 67.5967C45.1503 67.5873 64.9983 66.1397 64.8664 66.1805C64.7345 66.2214 37.2344 65.9419 37.2344 65.9419L37.2532 66.1805Z" fill="#455A64"/>
<path id="Vector_89" d="M37.496 65H35.791V67.9108H37.496V65Z" fill="#E0E0E0"/>
<path id="Vector_90" d="M34.2109 68.4068V67.5967H39.0748V68.636L34.2109 68.4068Z" fill="#263238"/>
<path id="Vector_91" d="M35.3989 83.0486L33.9294 72.8844L33.2637 72.2564V69.0411L33.7504 68.4131H39.3333L39.2171 72.3789L38.5075 82.9827C38.4947 83.2129 38.3948 83.4297 38.228 83.5889C38.0612 83.7481 37.84 83.8379 37.6094 83.8399H36.2906C36.0717 83.8373 35.861 83.7558 35.6973 83.6105C35.5335 83.4652 35.4275 83.2657 35.3989 83.0486Z" fill="#633CFF"/>
<path id="Vector_92" d="M40.9721 68.407L67.1848 72.2755L66.4752 76.1188L40.4069 72.3697H38.4727V68.407H40.9721Z" fill="#633CFF"/>
<path id="Vector_93" d="M12.2812 65.7944C12.2812 65.7944 29.4916 68.1369 32.0821 67.7193C33.6975 67.4416 35.2501 66.8769 36.6665 66.0519L12.2812 65.7944Z" fill="#455A64"/>
<path id="Vector_94" opacity="0.3" d="M63.4043 71.7166V75.6792L65.6588 76.0027V72.0494L63.4043 71.7166Z" fill="black"/>
<path id="Vector_95" d="M37.496 65H35.791V65.2606H37.496V65Z" fill="#633CFF"/>
<path id="Vector_96" opacity="0.3" d="M33.2637 69.0413L34.0675 68.8591L33.7504 68.407L33.2637 69.0413Z" fill="black"/>
<path id="Vector_97" d="M39.4233 70.1748C39.4768 70.6117 39.4768 71.0535 39.4233 71.4905C39.421 71.9312 39.364 72.37 39.2538 72.7967C39.1993 72.3598 39.1993 71.9179 39.2538 71.481C39.2569 71.0403 39.3138 70.6017 39.4233 70.1748Z" fill="#263238"/>
<path id="Vector_98" d="M122.182 67.2891C122.182 67.2891 120.769 67.9171 112.366 67.9171C107.628 67.9171 98.8926 66.2058 98.8926 66.2058L122.182 67.2891Z" fill="#263238"/>
<path id="Vector_99" d="M126.168 66.1805C126.168 66.1805 124.821 67.6061 121.546 67.5967C118.271 67.5873 98.4266 66.146 98.5553 66.1805C98.6841 66.2151 126.187 65.9419 126.187 65.9419L126.168 66.1805Z" fill="#455A64"/>
<path id="Vector_100" d="M125.928 67.9109H127.633V65.0001H125.928V67.9109Z" fill="#E0E0E0"/>
<path id="Vector_101" d="M129.212 68.4068V67.5967H124.348V68.636L129.212 68.4068Z" fill="#263238"/>
<path id="Vector_102" d="M128.025 83.0486L129.495 72.8844L130.161 72.2564V69.0411L129.674 68.4131H124.088L124.207 72.3789L124.917 82.9827C124.93 83.2129 125.03 83.4297 125.196 83.5889C125.363 83.7481 125.584 83.8379 125.815 83.8399H127.134C127.353 83.8373 127.563 83.7558 127.727 83.6105C127.891 83.4652 127.997 83.2657 128.025 83.0486Z" fill="#633CFF"/>
<path id="Vector_103" d="M122.451 68.407L96.2383 72.2755L96.9479 76.1188L123.016 72.3697H124.95V68.407H122.451Z" fill="#633CFF"/>
<path id="Vector_104" d="M151.141 65.7944C151.141 65.7944 133.928 68.1369 131.34 67.7193C129.725 67.4416 128.172 66.8769 126.756 66.0519L151.141 65.7944Z" fill="#455A64"/>
<path id="Vector_105" opacity="0.3" d="M100.018 71.7166V75.6792L97.7637 76.0027V72.0494L100.018 71.7166Z" fill="black"/>
<path id="Vector_106" d="M125.928 65.2607H127.633V65.0001H125.928V65.2607Z" fill="#633CFF"/>
<path id="Vector_107" opacity="0.3" d="M130.159 69.0413L129.355 68.8591L129.673 68.407L130.159 69.0413Z" fill="black"/>
<path id="Vector_108" d="M123.999 70.1748C124.109 70.6015 124.166 71.0403 124.168 71.481C124.223 71.9178 124.223 72.3599 124.168 72.7967C124.058 72.37 124.001 71.9312 123.999 71.4905C123.943 71.0537 123.943 70.6116 123.999 70.1748Z" fill="#263238"/>
<path id="Vector_109" opacity="0.3" d="M92.4551 80.2698L92.8068 79.0452L98.2044 77.9399L98.8921 77.9776C98.8123 78.3505 98.6399 78.6973 98.3907 78.9859C98.1416 79.2746 97.8237 79.4958 97.4665 79.6293C96.2388 80.072 94.1758 79.802 94.1758 79.802L93.9874 80.43L92.4551 80.2698Z" fill="black"/>
<path id="Vector_110" d="M71.041 78.9511L72.8057 84.6879C73.2704 86.2014 74.4291 87.1999 75.7228 87.1999H88.2357C89.4917 87.1999 90.6283 86.2579 91.115 84.801L93.2879 78.3137L71.041 78.9511Z" fill="#633CFF"/>
<path id="Vector_111" d="M65.7053 76.6964V71.5406C65.6994 70.9432 65.9309 70.3679 66.3489 69.941C66.767 69.5142 67.3373 69.2707 67.9347 69.2641H70.6508L71.0276 68.589C71.2807 68.1268 71.653 67.7408 72.1058 67.4714C72.5587 67.2019 73.0754 67.0587 73.6024 67.0566H89.6415C90.1579 67.0586 90.6648 67.196 91.1116 67.4549C91.5584 67.7138 91.9296 68.0854 92.1881 68.5324L92.6182 69.2232H96.4333C96.9936 69.2421 97.5243 69.4792 97.9121 69.884C98.3 70.2889 98.5141 70.8293 98.5089 71.3898V76.8158C98.5118 77.0974 98.4592 77.3769 98.3541 77.6382C98.249 77.8995 98.0934 78.1375 97.8963 78.3387C97.6992 78.5399 97.4644 78.7003 97.2053 78.8107C96.9462 78.9212 96.6679 78.9795 96.3862 78.9824H67.9347C67.6381 78.9791 67.345 78.9173 67.0724 78.8006C66.7997 78.6838 66.5527 78.5144 66.3456 78.3021C66.1385 78.0897 65.9753 77.8386 65.8654 77.5631C65.7556 77.2875 65.7011 76.993 65.7053 76.6964Z" fill="#633CFF"/>
<path id="Vector_112" opacity="0.3" d="M67.5824 72.426H67.5196C67.334 72.426 67.1836 72.5764 67.1836 72.762V76.0716C67.1836 76.2571 67.334 76.4075 67.5196 76.4075H67.5824C67.7679 76.4075 67.9184 76.2571 67.9184 76.0716V72.762C67.9184 72.5764 67.7679 72.426 67.5824 72.426Z" fill="black"/>
<path id="Vector_113" opacity="0.3" d="M68.9105 72.426H68.8477C68.6621 72.426 68.5117 72.5764 68.5117 72.762V76.0716C68.5117 76.2571 68.6621 76.4075 68.8477 76.4075H68.9105C69.0961 76.4075 69.2465 76.2571 69.2465 76.0716V72.762C69.2465 72.5764 69.0961 72.426 68.9105 72.426Z" fill="black"/>
<path id="Vector_114" opacity="0.3" d="M70.2367 72.426H70.1739C69.9883 72.426 69.8379 72.5764 69.8379 72.762V76.0716C69.8379 76.2571 69.9883 76.4075 70.1739 76.4075H70.2367C70.4222 76.4075 70.5726 76.2571 70.5726 76.0716V72.762C70.5726 72.5764 70.4222 72.426 70.2367 72.426Z" fill="black"/>
<path id="Vector_115" opacity="0.3" d="M94.5746 72.426H94.5118C94.3262 72.426 94.1758 72.5764 94.1758 72.762V76.0716C94.1758 76.2571 94.3262 76.4075 94.5118 76.4075H94.5746C94.7601 76.4075 94.9105 76.2571 94.9105 76.0716V72.762C94.9105 72.5764 94.7601 72.426 94.5746 72.426Z" fill="black"/>
<path id="Vector_116" opacity="0.3" d="M95.9027 72.426H95.8399C95.6543 72.426 95.5039 72.5764 95.5039 72.762V76.0716C95.5039 76.2571 95.6543 76.4075 95.8399 76.4075H95.9027C96.0882 76.4075 96.2387 76.2571 96.2387 76.0716V72.762C96.2387 72.5764 96.0882 72.426 95.9027 72.426Z" fill="black"/>
<path id="Vector_117" opacity="0.3" d="M97.2308 72.426H97.168C96.9825 72.426 96.832 72.5764 96.832 72.762V76.0716C96.832 76.2571 96.9825 76.4075 97.168 76.4075H97.2308C97.4164 76.4075 97.5668 76.2571 97.5668 76.0716V72.762C97.5668 72.5764 97.4164 72.426 97.2308 72.426Z" fill="black"/>
<path id="Vector_118" d="M86.8903 78.9729H76.7418C75.7464 78.9729 74.9395 79.7798 74.9395 80.7753V83.9278C74.9395 84.9232 75.7464 85.7302 76.7418 85.7302H86.8903C87.8857 85.7302 88.6926 84.9232 88.6926 83.9278V80.7753C88.6926 79.7798 87.8857 78.9729 86.8903 78.9729Z" fill="#455A64"/>
<path id="Vector_119" d="M93.1546 69.2232C93.1546 69.2703 88.0521 69.3049 81.7595 69.3049C75.467 69.3049 70.3613 69.2703 70.3613 69.2232C70.3613 69.1761 75.4638 69.1416 81.7595 69.1416C88.0552 69.1416 93.1546 69.1793 93.1546 69.2232Z" fill="#263238"/>
<path id="Vector_120" d="M93.6881 78.973C93.6881 79.017 88.5165 79.0546 82.136 79.0546C75.7556 79.0546 70.584 79.017 70.584 78.973C70.584 78.929 75.7556 78.8914 82.136 78.8914C88.5165 78.8914 93.6881 78.9259 93.6881 78.973Z" fill="#263238"/>
<path id="Vector_121" d="M65.6589 71.8796C65.7397 72.6482 65.7669 73.4215 65.7405 74.1938C65.7669 74.9662 65.7397 75.7394 65.6589 76.508C65.5762 75.7396 65.5489 74.9662 65.5772 74.1938C65.5489 73.4215 65.5762 72.6481 65.6589 71.8796Z" fill="#263238"/>
<path id="Vector_122" d="M98.5582 71.8796C98.639 72.6482 98.6663 73.4215 98.6398 74.1938C98.6663 74.9662 98.639 75.7394 98.5582 76.508C98.4774 75.7394 98.4501 74.9662 98.4766 74.1938C98.4501 73.4215 98.4774 72.6482 98.5582 71.8796Z" fill="#263238"/>
<path id="Vector_123" opacity="0.3" d="M81.908 85.2343C83.4688 85.2343 84.734 83.9437 84.734 82.3518C84.734 80.7598 83.4688 79.4692 81.908 79.4692C80.3473 79.4692 79.082 80.7598 79.082 82.3518C79.082 83.9437 80.3473 85.2343 81.908 85.2343Z" fill="black"/>
<path id="Vector_124" opacity="0.3" d="M83.64 82.3515C83.6326 82.6926 83.5246 83.024 83.3297 83.304C83.1348 83.584 82.8616 83.8003 82.5443 83.9258C82.227 84.0512 81.8797 84.0802 81.546 84.0091C81.2123 83.938 80.907 83.77 80.6684 83.5262C80.4297 83.2824 80.2684 82.9735 80.2045 82.6384C80.1406 82.3032 80.1771 81.9567 80.3093 81.6421C80.4415 81.3276 80.6636 81.0591 80.9478 80.8703C81.2319 80.6814 81.5655 80.5806 81.9067 80.5806C82.1369 80.5826 82.3645 80.6301 82.5763 80.7203C82.7881 80.8105 82.98 80.9416 83.1411 81.1061C83.3021 81.2707 83.4291 81.4654 83.5147 81.6791C83.6003 81.8928 83.6429 82.1213 83.64 82.3515Z" fill="black"/>
<path id="Vector_125" d="M81.3796 82.6626C81.5946 82.6626 81.769 82.4855 81.769 82.267C81.769 82.0485 81.5946 81.8713 81.3796 81.8713C81.1646 81.8713 80.9902 82.0485 80.9902 82.267C80.9902 82.4855 81.1646 82.6626 81.3796 82.6626Z" fill="#633CFF"/>
<path id="Vector_126" d="M83.8035 80.6968C83.4895 80.0029 82.582 79.67 81.8504 79.6952C81.7058 79.6945 81.5627 79.7233 81.4296 79.78C81.3635 79.8114 81.3078 79.8614 81.2693 79.9238C81.2309 79.9862 81.2113 80.0584 81.213 80.1316C81.2321 80.2107 81.2753 80.2818 81.3366 80.3353C81.3979 80.3887 81.4743 80.4218 81.5552 80.4299C81.7157 80.4398 81.8768 80.4324 82.0357 80.408C82.308 80.3935 82.5791 80.4523 82.821 80.5782C83.0629 80.7041 83.2666 80.8925 83.411 81.1239C83.439 81.1771 83.4774 81.2241 83.524 81.262C83.5554 81.2771 83.5897 81.2851 83.6245 81.2854C83.6594 81.2858 83.6938 81.2786 83.7255 81.2642C83.7573 81.2498 83.7854 81.2287 83.8081 81.2023C83.8308 81.1759 83.8475 81.1448 83.8569 81.1113C83.8927 80.9714 83.8736 80.8231 83.8035 80.6968Z" fill="white"/>
<path id="Vector_127" d="M84.0685 82.1129C84.2627 82.1129 84.4202 81.9526 84.4202 81.7549C84.4202 81.5572 84.2627 81.397 84.0685 81.397C83.8743 81.397 83.7168 81.5572 83.7168 81.7549C83.7168 81.9526 83.8743 82.1129 84.0685 82.1129Z" fill="white"/>
<path id="Vector_128" d="M82.8505 67.3298H79.5535C79.4182 67.3298 79.3086 67.4395 79.3086 67.5748V67.6281C79.3086 67.7634 79.4182 67.8731 79.5535 67.8731H82.8505C82.9858 67.8731 83.0954 67.7634 83.0954 67.6281V67.5748C83.0954 67.4395 82.9858 67.3298 82.8505 67.3298Z" fill="white"/>
<path id="Vector_129" d="M84.2879 67.3298H83.7918C83.6565 67.3298 83.5469 67.4395 83.5469 67.5748V67.6281C83.5469 67.7634 83.6565 67.8731 83.7918 67.8731H84.2879C84.4232 67.8731 84.5328 67.7634 84.5328 67.6281V67.5748C84.5328 67.4395 84.4232 67.3298 84.2879 67.3298Z" fill="white"/>
</g>
</g>
</svg>
