<svg width="462" height="462" viewBox="0 0 462 462" fill="none" xmlns="http://www.w3.org/2000/svg">
<path d="M150.99 388.652H134.645V445.968H150.99V388.652Z" fill="#F5F5F5"/>
<path d="M195.675 393.522C195.675 393.522 194.982 393.06 196.506 391.055C198.031 389.05 195.675 387.969 195.675 387.969C188.994 391.831 179.662 387.969 179.662 387.969C179.662 387.969 190.667 384.577 192.053 381.334C193.097 378.913 191.258 378.645 190.269 378.673C191.387 378.553 193.817 378.156 194.557 376.825C195.536 375.125 191.711 373.129 191.711 373.129C191.908 372.721 192.01 372.274 192.01 371.822C192.01 371.369 191.908 370.922 191.711 370.514C191.082 368.814 176.742 366.347 176.742 366.347C180.918 366.809 182.452 362.651 182.452 362.651C182.452 362.651 189.549 362.808 191.221 360.027C192.893 357.246 190.103 356.479 185.372 354.169C180.641 351.859 170.2 343.21 170.2 343.21C170.2 343.21 176.742 342.6 178.516 341.057C180.29 339.514 178.655 339.209 178.655 339.209C186.453 339.985 183.801 335.818 183.801 335.818C177.611 333.922 172.07 330.342 167.798 325.478C167.798 325.478 172.667 324.397 175.19 322.087C177.712 319.777 173.101 319.158 173.101 319.158C173.101 319.158 182.295 317.92 177.001 314.538C172.981 311.96 166.55 308.486 164.554 307.442C166.744 308.246 171.715 307.285 171.715 307.285C177.564 304.661 171.715 300.817 171.715 300.817C164.896 296.964 154.871 287.243 154.871 287.243C154.871 287.243 159.879 289.858 162.392 289.091C164.906 288.324 159.62 285.238 159.62 285.238C159.62 285.238 162.263 286.005 163.381 285.238C164.499 284.471 160.461 280.914 160.461 280.914C154.455 277.015 147.063 266.786 143.968 262.388C140.872 266.786 133.471 277.015 127.474 280.914C127.474 280.914 123.436 284.462 124.554 285.238C125.672 286.014 128.306 285.238 128.306 285.238C128.306 285.238 123.021 288.315 125.534 289.091C128.047 289.867 133.055 287.243 133.055 287.243C133.055 287.243 123.03 296.964 116.211 300.817C116.211 300.817 110.362 304.67 116.211 307.285C116.211 307.285 121.182 308.209 123.372 307.442C121.376 308.486 114.945 311.96 110.925 314.538C105.631 317.929 114.815 319.158 114.815 319.158C114.815 319.158 110.195 319.777 112.727 322.087C115.259 324.397 120.119 325.478 120.119 325.478C115.844 330.344 110.3 333.924 104.106 335.818C104.106 335.818 101.464 339.985 109.262 339.209C109.262 339.209 107.59 339.523 109.401 341.057C111.212 342.591 117.717 343.21 117.717 343.21C117.717 343.21 107.276 351.849 102.545 354.169C97.8139 356.488 95.0234 357.255 96.6958 360.027C98.3683 362.799 105.465 362.651 105.465 362.651C105.465 362.651 106.998 366.818 111.175 366.347C111.175 366.347 96.8344 368.814 96.2061 370.514C96.0056 370.921 95.9013 371.368 95.9013 371.822C95.9013 372.275 96.0056 372.722 96.2061 373.129C96.2061 373.129 92.3808 375.134 93.351 376.825C94.0994 378.119 96.5295 378.516 97.6476 378.673C96.6496 378.673 94.8201 378.913 95.8642 381.334C97.2502 384.577 108.246 387.969 108.246 387.969C108.246 387.969 98.9227 391.831 92.2422 387.969C92.2422 387.969 89.8767 389.05 91.4106 391.055C92.9444 393.06 92.2422 393.522 92.2422 393.522C92.2422 393.522 88.7587 390.907 90.2925 394.917C91.8264 398.927 99.8929 401.385 99.8929 401.385C99.8929 401.385 95.2729 402.152 96.6958 404.628C98.1188 407.105 103.931 410.024 110.334 410.643C116.737 411.263 125.368 408.943 125.368 408.943C125.368 408.943 119.519 412.029 123.52 413.73C127.52 415.43 132.15 411.568 132.15 411.568C132.15 411.568 131.318 415.513 134.654 414.155C136.896 413.168 138.964 411.826 140.78 410.182C140.78 410.182 141.824 415.993 143.912 414.607C146 415.993 147.045 410.182 147.045 410.182C148.858 411.825 150.923 413.166 153.161 414.155C156.506 415.513 155.666 411.568 155.666 411.568C155.666 411.568 160.286 415.421 164.296 413.73C168.306 412.039 162.448 408.943 162.448 408.943C162.448 408.943 171.078 411.253 177.481 410.643C183.884 410.034 189.724 407.095 191.119 404.628C192.515 402.161 187.913 401.385 187.913 401.385C187.913 401.385 195.989 398.918 197.523 394.917C199.057 390.916 195.675 393.522 195.675 393.522Z" fill="#F5F5F5"/>
<path d="M266.915 438.946L259.329 433.568L258.22 426.26L254.303 423.497L252.131 417.703L248.149 413.776L233.753 414.22L228.44 422.813L224.494 432.219L218.941 436.026L214.645 447.216H270.223L266.915 438.946Z" fill="#EBEBEB"/>
<path d="M258.296 445.987C258.296 445.793 254.932 438.475 254.932 438.475L245.323 433.069L234.17 435.841L244.667 434.28L253.583 439.463L258.296 445.987Z" fill="#FAFAFA"/>
<path d="M235.158 435.592H235.204H235.352L235.916 435.454L238.023 434.945L245.341 433.153L249.794 435.666L254.95 438.558L257.963 444.851C258.341 445.608 258.637 446.218 258.84 446.643L259.071 447.124L259.136 447.244C259.14 447.229 259.14 447.213 259.136 447.198L259.081 447.078C259.034 446.967 258.96 446.8 258.859 446.597L258.018 444.749L255.024 438.447L249.878 435.546L245.424 433.042L238.124 434.89L236.018 435.417L235.463 435.565H235.315L235.158 435.592Z" fill="#E0E0E0"/>
<path d="M407.003 79.916C406.125 77.2123 404.882 74.6413 403.307 72.2745C402.518 71.0961 401.5 70.0892 400.312 69.3143C399.124 68.5394 397.792 68.0126 396.396 67.7654C393.577 67.4235 390.464 68.9389 389.54 71.6277C389.142 65.5755 388.283 59.3663 385.252 54.1179C382.222 48.8696 376.567 44.7393 370.524 45.1089C364.823 45.4508 359.935 49.7289 357.218 54.7278C354.502 59.7266 353.568 65.5293 352.681 71.175C350.519 68.5231 345.955 69.327 343.691 71.9327C341.427 74.5383 340.863 78.105 340.383 81.4868L407.835 82.1891L407.003 79.916Z" fill="#EBEBEB"/>
<path d="M121.526 71.4619C120.645 68.7593 119.402 66.1887 117.83 63.8204C117.036 62.638 116.011 61.6283 114.817 60.8518C113.623 60.0754 112.284 59.5482 110.881 59.3021C108.109 58.9602 104.949 60.4848 104.034 63.1644C103.628 57.1214 102.768 50.9122 99.7377 45.6084C96.707 40.3046 91.0798 36.276 85.0091 36.6456C79.308 36.9967 74.4201 41.2656 71.7035 46.2644C68.987 51.2633 68.063 57.066 67.1667 62.7209C65.0045 60.0598 60.44 60.8729 58.1762 63.4693C55.9124 66.0658 55.3672 69.6416 54.8867 72.9958L122.339 73.698L121.526 71.4619Z" fill="#F5F5F5"/>
<path d="M272.959 277.339C272.251 275.153 271.25 273.074 269.984 271.157C269.344 270.203 268.517 269.388 267.553 268.762C266.589 268.137 265.508 267.713 264.375 267.517C263.237 267.351 262.076 267.567 261.074 268.13C260.071 268.693 259.282 269.572 258.831 270.63C258.499 265.743 257.806 260.725 255.366 256.484C252.927 252.243 248.344 248.898 243.456 249.203C238.836 249.48 234.891 252.899 232.701 256.974C230.511 261.049 229.753 265.706 229.005 270.27C227.258 268.126 223.562 268.801 221.742 270.88C219.922 272.959 219.451 275.87 219.062 278.614L273.578 279.177L272.959 277.339Z" fill="#EBEBEB"/>
<path d="M434.411 219.422C433.704 217.237 432.699 215.16 431.427 213.249C430.789 212.294 429.964 211.478 429.001 210.85C428.039 210.223 426.959 209.798 425.827 209.6C424.688 209.435 423.526 209.652 422.523 210.217C421.52 210.782 420.733 211.663 420.283 212.723C419.96 207.826 419.267 202.808 416.818 198.567C414.37 194.326 409.805 190.981 404.908 191.286C400.288 191.563 396.352 194.982 394.152 199.057C391.953 203.132 391.205 207.789 390.456 212.353C388.71 210.209 385.014 210.884 383.194 212.963C381.374 215.042 380.912 217.953 380.523 220.697L435.039 221.26L434.411 219.422Z" fill="#EBEBEB"/>
<path d="M85.6181 205.978C84.9107 203.791 83.9065 201.711 82.6336 199.796C81.994 198.843 81.1683 198.029 80.206 197.404C79.2437 196.778 78.1648 196.354 77.0342 196.156C75.8957 195.987 74.7334 196.201 73.7299 196.765C72.7264 197.329 71.9385 198.21 71.4902 199.27C71.1668 194.382 70.4738 189.364 68.0252 185.123C65.5766 180.882 61.012 177.537 56.1148 177.833C51.4948 178.119 47.5586 181.529 45.3595 185.613C43.1603 189.697 42.4119 194.345 41.6635 198.909C39.9171 196.766 36.2211 197.44 34.4008 199.519C32.5805 201.598 32.1185 204.509 31.7305 207.244L86.2465 207.817L85.6181 205.978Z" fill="#EBEBEB"/>
<path d="M234.078 133.315C232.784 129.877 231.472 126.385 229.31 123.419C227.148 120.452 223.969 118.022 220.329 117.579C216.688 117.135 212.641 119.103 211.449 122.578C210.932 114.742 209.814 106.703 205.905 99.9027C201.997 93.1021 194.66 87.7798 186.825 88.2418C179.433 88.6946 173.113 94.1831 169.592 100.697C166.072 107.212 164.87 114.687 163.715 121.949C160.943 118.512 155.002 119.593 152.082 122.929C149.162 126.264 148.386 130.921 147.795 135.31L235.094 136.234L234.078 133.315Z" fill="#F5F5F5"/>
<path d="M294.801 406.162H283.344V446.338H294.801V406.162Z" fill="#EBEBEB"/>
<path d="M326.116 409.581C326.116 409.581 325.627 409.258 326.699 407.844C326.842 407.676 326.942 407.476 326.99 407.261C327.038 407.046 327.034 406.823 326.977 406.61C326.919 406.397 326.811 406.201 326.661 406.04C326.511 405.878 326.324 405.755 326.116 405.682C321.432 408.389 314.899 405.682 314.899 405.682C314.899 405.682 322.605 403.307 323.585 401.062C324.305 399.371 323.021 399.214 322.328 399.214C323.113 399.131 324.814 398.854 325.34 397.948C326.024 396.756 323.335 395.352 323.335 395.352C323.478 395.065 323.553 394.748 323.553 394.428C323.553 394.107 323.478 393.791 323.335 393.504C322.901 392.312 312.848 390.584 312.848 390.584C315.777 390.907 316.849 387.987 316.849 387.987C316.849 387.987 321.829 388.098 322.993 386.139C324.158 384.18 322.217 383.654 318.9 382.037C315.583 380.42 308.265 374.358 308.265 374.358C308.265 374.358 312.885 373.924 314.123 372.843C315.361 371.762 314.215 371.549 314.215 371.549C319.676 372.085 317.828 369.165 317.828 369.165C313.487 367.843 309.602 365.334 306.611 361.921C306.611 361.921 310.02 361.164 311.776 359.547C313.532 357.93 310.316 357.495 310.316 357.495C310.316 357.495 316.784 356.627 313.088 354.252C310.316 352.404 305.77 350.011 304.366 349.281C305.899 349.845 309.383 349.17 309.383 349.17C313.485 347.322 309.383 344.624 309.383 344.624C304.56 341.88 297.528 335.079 297.528 335.079C297.528 335.079 301.039 336.927 302.795 336.382C304.55 335.837 300.845 333.675 300.845 333.675C300.845 333.675 302.693 334.22 303.478 333.675C304.264 333.129 301.427 330.653 301.427 330.653C297.223 327.881 292.039 320.748 289.868 317.671C287.706 320.748 282.476 327.918 278.309 330.653C278.309 330.653 275.481 333.139 276.267 333.675C277.052 334.211 278.9 333.675 278.9 333.675C278.9 333.675 275.204 335.837 276.95 336.382C278.697 336.927 282.217 335.079 282.217 335.079C282.217 335.079 275.195 341.898 270.409 344.596C270.409 344.596 266.315 347.304 270.409 349.142C270.409 349.142 273.892 349.817 275.435 349.253C274.031 349.983 269.521 352.413 266.703 354.224C263.007 356.599 269.475 357.468 269.475 357.468C269.475 357.468 266.251 357.893 268.006 359.519C269.762 361.145 273.181 361.894 273.181 361.894C270.19 365.306 266.304 367.816 261.963 369.138C261.963 369.138 260.115 372.058 265.576 371.522C265.576 371.522 264.403 371.734 265.668 372.815C266.934 373.896 271.527 374.331 271.527 374.331C271.527 374.331 264.208 380.383 260.891 382.009C257.574 383.635 255.625 384.171 256.789 386.112C257.953 388.052 262.933 387.96 262.933 387.96C262.933 387.96 264.014 390.879 266.934 390.556C266.934 390.556 256.89 392.284 256.447 393.476C256.306 393.764 256.233 394.08 256.233 394.4C256.233 394.72 256.306 395.036 256.447 395.324C256.447 395.324 253.767 396.728 254.451 397.92C254.968 398.844 256.678 399.103 257.463 399.186C256.761 399.186 255.477 399.362 256.207 401.034C257.186 403.307 264.892 405.654 264.892 405.654C264.892 405.654 258.35 408.362 253.675 405.654C253.468 405.728 253.281 405.851 253.132 406.013C252.982 406.174 252.874 406.369 252.816 406.581C252.758 406.793 252.752 407.017 252.798 407.232C252.845 407.447 252.943 407.647 253.084 407.816C254.155 409.23 253.675 409.553 253.675 409.553C253.675 409.553 251.236 407.705 252.307 410.524C253.379 413.342 259.034 415.061 259.034 415.061C259.034 415.061 255.819 415.606 256.789 417.334C257.759 419.061 261.862 421.122 266.352 421.547C270.843 421.972 276.886 420.364 276.886 420.364C276.886 420.364 272.792 422.526 275.62 423.718C278.447 424.91 281.635 422.268 281.635 422.268C281.635 422.268 281.053 425.04 283.391 424.116C284.963 423.429 286.414 422.493 287.687 421.344C287.687 421.344 288.417 425.428 289.877 424.448C291.346 425.428 292.076 421.344 292.076 421.344C293.348 422.492 294.795 423.428 296.364 424.116C298.711 425.04 298.119 422.268 298.119 422.268C298.119 422.268 301.344 424.966 304.171 423.783C306.999 422.6 302.906 420.429 302.906 420.429C302.906 420.429 308.949 422.046 313.439 421.612C317.93 421.177 322.023 419.126 322.993 417.398C323.964 415.67 320.748 415.125 320.748 415.125C320.748 415.125 326.412 413.397 327.484 410.588C328.556 407.779 326.116 409.581 326.116 409.581Z" fill="#E0E0E0"/>
<path d="M422.564 403.973H410.479V446.338H422.564V403.973Z" fill="#EBEBEB"/>
<path d="M455.589 407.577C455.589 407.577 455.072 407.235 456.199 405.729C456.35 405.552 456.456 405.341 456.508 405.114C456.56 404.888 456.555 404.652 456.495 404.427C456.435 404.202 456.321 403.995 456.163 403.825C456.006 403.654 455.808 403.524 455.589 403.446C450.646 406.302 443.753 403.446 443.753 403.446C443.753 403.446 451.884 400.942 452.91 398.549C453.676 396.757 452.327 396.563 451.588 396.572C452.42 396.489 454.212 396.193 454.758 395.241C455.478 393.985 452.651 392.469 452.651 392.469C452.798 392.167 452.874 391.835 452.874 391.499C452.874 391.163 452.798 390.831 452.651 390.529C452.189 389.272 441.563 387.452 441.563 387.452C444.649 387.794 445.786 384.68 445.786 384.68C445.786 384.68 451.034 384.791 452.254 382.74C453.473 380.688 451.431 380.115 447.938 378.406C444.446 376.697 436.721 370.312 436.721 370.312C436.721 370.312 441.554 369.85 442.893 368.713C444.233 367.577 442.995 367.346 442.995 367.346C448.761 367.919 446.802 364.832 446.802 364.832C442.227 363.436 438.132 360.793 434.975 357.2C434.975 357.2 438.578 356.396 440.426 354.687C442.274 352.977 438.883 352.525 438.883 352.525C438.883 352.525 445.675 351.601 441.766 349.106C438.791 347.193 434.041 344.634 432.526 343.858C434.143 344.458 437.821 343.747 437.821 343.747C442.136 341.806 437.821 338.951 437.821 338.951C432.776 336.105 425.365 328.917 425.365 328.917C425.365 328.917 429.061 330.857 430.909 330.293C432.757 329.73 428.849 327.438 428.849 327.438C428.849 327.438 430.807 328.011 431.621 327.438C432.434 326.865 429.458 324.25 429.458 324.25C425.023 321.367 419.553 313.8 417.271 310.557C414.979 313.8 409.518 321.367 405.083 324.25C405.083 324.25 402.099 326.865 402.921 327.438C403.744 328.011 405.693 327.438 405.693 327.438C405.693 327.438 401.785 329.72 403.642 330.293C405.499 330.866 409.186 328.917 409.186 328.917C409.186 328.917 401.794 336.105 396.74 338.951C396.74 338.951 392.415 341.806 396.74 343.747C396.74 343.747 400.436 344.458 402.034 343.858C400.556 344.634 395.797 347.193 392.794 349.106C388.886 351.61 395.668 352.525 395.668 352.525C395.668 352.525 392.277 352.977 394.134 354.687C395.991 356.396 399.586 357.2 399.586 357.2C396.424 360.792 392.326 363.435 387.749 364.832C387.749 364.832 385.799 367.919 391.556 367.346C391.556 367.346 390.327 367.577 391.658 368.713C392.988 369.85 397.83 370.312 397.83 370.312C397.83 370.312 390.115 376.697 386.622 378.406C383.129 380.115 381.078 380.688 382.297 382.74C383.517 384.791 388.765 384.68 388.765 384.68C388.765 384.68 389.893 387.757 392.979 387.452C392.979 387.452 382.381 389.3 381.891 390.529C381.744 390.831 381.667 391.163 381.667 391.499C381.667 391.835 381.744 392.167 381.891 392.469C381.891 392.469 379.063 393.948 379.784 395.241C380.329 396.165 382.131 396.489 382.954 396.572C382.224 396.572 380.865 396.757 381.632 398.549C382.667 400.942 390.789 403.446 390.789 403.446C390.789 403.446 383.896 406.302 378.962 403.446C378.743 403.525 378.547 403.655 378.389 403.825C378.232 403.996 378.118 404.202 378.057 404.426C377.996 404.65 377.99 404.886 378.04 405.112C378.09 405.339 378.194 405.551 378.343 405.729C379.479 407.216 378.962 407.577 378.962 407.577C378.962 407.577 376.393 405.636 377.52 408.602C378.648 411.568 384.617 413.389 384.617 413.389C384.617 413.389 381.226 413.961 382.251 415.782C383.277 417.602 387.601 419.773 392.332 420.226C397.063 420.679 403.42 418.979 403.42 418.979C403.42 418.979 399.096 421.252 402.08 422.508C405.065 423.765 408.456 420.91 408.456 420.91C408.456 420.91 407.837 423.83 410.304 422.832C411.959 422.099 413.485 421.104 414.822 419.884C414.822 419.884 415.598 424.19 417.142 423.155C418.685 424.19 419.452 419.884 419.452 419.884C420.793 421.103 422.322 422.098 423.979 422.832C426.446 423.83 425.827 420.91 425.827 420.91C425.827 420.91 429.227 423.765 432.212 422.508C435.196 421.252 430.872 418.979 430.872 418.979C430.872 418.979 437.248 420.688 441.96 420.226C446.673 419.764 451.015 417.602 452.041 415.782C453.067 413.961 449.676 413.389 449.676 413.389C449.676 413.389 455.645 411.541 456.772 408.602C457.899 405.664 455.589 407.577 455.589 407.577Z" fill="#E0E0E0"/>
<path d="M452.317 447.216C452.317 447.355 353.199 447.456 230.954 447.456C108.709 447.456 9.58203 447.345 9.58203 447.216C9.58203 447.087 108.672 446.976 230.954 446.976C353.236 446.976 452.317 447.077 452.317 447.216Z" fill="#263238"/>
<path d="M88.1157 375.692H72.1582V439.532H88.1157V375.692Z" fill="#6F4439"/>
<path d="M19.6384 375.507C19.6384 375.507 20.4238 374.99 18.7144 372.735C17.005 370.481 19.6384 369.261 19.6384 369.261C27.1782 373.595 37.7026 369.261 37.7026 369.261C37.7026 369.261 25.2933 365.463 23.7225 361.767C22.549 359.051 24.6465 358.746 25.7368 358.774C24.4709 358.635 21.7266 358.192 20.895 356.741C19.7955 354.828 24.1106 352.574 24.1106 352.574C23.8868 352.115 23.7705 351.611 23.7705 351.1C23.7705 350.589 23.8868 350.085 24.1106 349.626C24.822 347.713 41.0013 344.941 41.0013 344.941C36.2889 345.459 34.5333 340.774 34.5333 340.774C34.5333 340.774 26.5222 340.95 24.6372 337.827C22.7523 334.704 25.8939 333.835 31.2346 331.229C36.5753 328.624 48.3563 318.912 48.3563 318.912C48.3563 318.912 40.9643 318.219 38.9315 316.482C36.8987 314.745 38.7744 314.403 38.7744 314.403C29.978 315.272 32.9625 310.578 32.9625 310.578C39.9464 308.456 46.2013 304.431 51.0267 298.954C51.0267 298.954 45.5289 297.744 42.7107 295.138C39.8925 292.532 45.0669 291.839 45.0669 291.839C45.0669 291.839 34.6996 290.453 40.6686 286.637C45.2055 283.736 52.4589 279.827 54.7227 278.654C52.2464 279.578 46.6377 278.478 46.6377 278.478C40.0403 275.531 46.6377 271.188 46.6377 271.188C54.3346 266.854 65.6444 255.923 65.6444 255.923C65.6444 255.923 59.9895 258.871 57.162 258.002C54.3346 257.134 60.3036 253.669 60.3036 253.669C60.3036 253.669 57.3191 254.537 56.0625 253.669C54.8058 252.8 59.3612 248.808 59.3612 248.808C66.1618 244.419 74.4778 232.943 77.989 228C81.4817 232.943 89.8254 244.447 96.5984 248.836C96.5984 248.836 101.154 252.828 99.897 253.696C98.6404 254.565 95.6559 253.696 95.6559 253.696C95.6559 253.696 101.625 257.161 98.7975 258.03C95.97 258.899 90.3152 255.951 90.3152 255.951C90.3152 255.951 101.625 266.882 109.322 271.215C109.322 271.215 115.919 275.558 109.322 278.506C109.322 278.506 103.713 279.587 101.237 278.681C103.501 279.855 110.754 283.763 115.291 286.665C121.26 290.481 110.893 291.867 110.893 291.867C110.893 291.867 116.076 292.56 113.249 295.166C110.421 297.771 104.933 298.982 104.933 298.982C109.758 304.458 116.013 308.483 122.997 310.606C122.997 310.606 125.982 315.3 117.185 314.431C117.185 314.431 119.033 314.773 117.028 316.51C115.023 318.247 107.603 318.94 107.603 318.94C107.603 318.94 119.384 328.661 124.725 331.257C130.066 333.853 133.207 334.731 131.322 337.854C129.437 340.977 121.426 340.802 121.426 340.802C121.426 340.802 119.698 345.487 114.958 344.969C114.958 344.969 131.137 347.741 131.849 349.654C132.073 350.113 132.189 350.617 132.189 351.128C132.189 351.638 132.073 352.142 131.849 352.601C131.849 352.601 136.164 354.856 135.064 356.769C134.233 358.219 131.489 358.663 130.223 358.801C131.341 358.801 133.411 359.079 132.237 361.795C130.666 365.491 118.257 369.261 118.257 369.261C118.257 369.261 128.781 373.595 136.321 369.261C136.321 369.261 138.991 370.472 137.245 372.735C135.499 374.999 136.321 375.507 136.321 375.507C136.321 375.507 140.248 372.56 138.52 377.069C136.792 381.578 127.682 384.359 127.682 384.359C127.682 384.359 132.865 385.228 131.295 388C129.724 390.772 123.126 394.08 115.901 394.773C108.675 395.466 98.9361 392.86 98.9361 392.86C98.9361 392.86 105.533 396.334 100.978 398.238C96.4228 400.141 91.2392 395.808 91.2392 395.808C91.2392 395.808 92.1632 400.252 88.4117 398.727C85.8813 397.616 83.5473 396.103 81.5002 394.246C81.5002 394.246 80.3267 400.797 77.9705 399.226C75.6143 400.797 74.4408 394.246 74.4408 394.246C72.3994 396.101 70.0717 397.614 67.5478 398.727C63.7779 400.252 64.7204 395.808 64.7204 395.808C64.7204 395.808 59.5367 400.15 54.9814 398.238C50.4261 396.325 57.0234 392.86 57.0234 392.86C57.0234 392.86 47.2845 395.466 40.0588 394.773C32.8331 394.08 26.1988 390.781 24.665 388C23.1311 385.219 28.2778 384.359 28.2778 384.359C28.2778 384.359 19.1672 381.587 17.4393 377.069C15.7114 372.551 19.6384 375.507 19.6384 375.507Z" fill="#455A64"/>
<path d="M55.0742 271.742L55.3237 271.631C55.236 271.657 55.1521 271.694 55.0742 271.742Z" fill="black"/>
<g opacity="0.1">
<path d="M66.8725 253.955L70.5685 252.486C70.5685 252.486 72.629 255.554 76.5468 253.53C79.0563 252.117 81.1304 250.043 82.5436 247.533C82.5436 247.533 88.0876 251.165 88.605 248.864C88.7552 248.21 88.6628 247.523 88.3451 246.932C88.0273 246.34 87.5057 245.884 86.8771 245.648C86.9987 245.837 87.0753 246.051 87.101 246.273C87.1266 246.496 87.1006 246.722 87.025 246.933C86.7847 247.349 86.2396 247.33 85.8053 247.228C84.3413 246.838 83.0441 245.982 82.1093 244.789C81.0097 247.404 78.7644 249.197 76.4636 250.536C76.0019 250.881 75.4736 251.127 74.9122 251.257C74.3508 251.388 73.7684 251.4 73.2019 251.294C72.1024 250.943 71.3539 249.252 72.1948 248.374C71.3728 249.477 70.329 250.395 69.1307 251.07C67.9324 251.744 66.606 252.161 65.237 252.292C64.6642 252.338 63.925 252.19 63.8141 251.562C63.7936 251.195 63.9161 250.834 64.156 250.555C64.95 249.388 65.9412 248.369 67.085 247.543C64.5984 249.379 61.654 250.495 58.575 250.767L55.9139 251.118C55.8307 251.442 55.8584 251.701 56.0894 251.858C57.3461 252.726 60.3306 251.858 60.3306 251.858C60.3306 251.858 54.3616 255.332 57.189 256.191C60.0164 257.051 65.6713 254.112 65.6713 254.112L64.9691 254.778L66.8725 253.955Z" fill="black"/>
</g>
<g opacity="0.1">
<path d="M100.277 277.277L93.0145 274.662C93.0145 274.662 92.2014 279.079 87.757 278.839C87.757 278.839 83.9131 279.162 83.6174 274.662C83.6174 274.662 79.9214 278.266 72.437 277.203C72.437 277.203 71.1712 277.037 71.4668 274.995C71.4668 274.995 69.471 277.527 66.0614 275.725C62.6519 273.923 65.6179 270.901 65.6179 270.901L66.0707 270.661C65.875 270.943 65.7424 271.264 65.6818 271.602C65.6212 271.94 65.6341 272.288 65.7195 272.62C66.0984 273.544 67.2626 273.452 68.122 273.175C70.5465 272.403 72.7883 271.146 74.7101 269.479C74.1418 270.085 73.6823 270.785 73.3518 271.548C73.1857 271.941 73.1174 272.368 73.1528 272.793C73.1882 273.218 73.3262 273.628 73.5551 273.988C73.8258 274.264 74.1515 274.481 74.5111 274.625C74.8708 274.768 75.2565 274.834 75.6433 274.819C77.5699 274.887 79.4856 274.504 81.2387 273.702C82.9917 272.9 84.5338 271.701 85.7426 270.199C85.7426 271.363 85.5024 272.509 85.5394 273.673C85.5763 274.838 86.0845 276.122 87.0824 276.445C88.2836 276.861 89.4941 275.734 90.0208 274.487C90.5474 273.239 90.6676 271.798 91.2312 270.569C92.9724 272.302 95.096 273.603 97.4312 274.366C98.0636 274.609 98.7452 274.694 99.4178 274.616C99.7652 274.564 100.092 274.42 100.365 274.199C100.638 273.978 100.847 273.688 100.97 273.359C101.071 273.061 101.076 272.739 100.985 272.437C100.894 272.136 100.711 271.87 100.462 271.678C103.373 272.999 110.109 275.374 111.43 272.066C112.141 273.489 111.984 275.198 108.843 276.603C108.843 276.603 103.234 277.693 100.767 276.787L102.522 277.711L100.277 277.277Z" fill="black"/>
</g>
<g opacity="0.1">
<path d="M49.734 298.612C51.6285 298.316 53.4391 297.624 55.047 296.579C55.3097 297.249 55.8031 297.804 56.4384 298.143C57.0737 298.481 57.809 298.582 58.512 298.427C59.8966 298.049 61.1663 297.335 62.208 296.348C62.6812 297.055 63.3107 297.643 64.0477 298.068C64.7848 298.493 65.6096 298.742 66.4584 298.797C67.3025 298.818 68.1399 298.643 68.9048 298.285C69.6697 297.928 70.341 297.397 70.8659 296.736C75.4859 300.118 80.9006 302.613 86.3706 301.874C86.8958 301.855 87.4119 301.731 87.8881 301.508C88.3643 301.286 88.791 300.97 89.1427 300.58C89.7894 299.711 89.697 298.131 88.7453 297.716C92.0902 298.436 95.5644 299.148 98.9093 298.233C102.254 297.318 104.878 294.537 104.158 290.277C103.994 291.117 103.705 291.927 103.298 292.68C102.843 293.291 102.19 293.725 101.45 293.909C98.682 294.831 95.7546 295.179 92.8471 294.932C89.9396 294.684 87.1133 293.845 84.5411 292.467C85.6407 293.678 84.883 295.951 83.5062 296.736C82.1295 297.521 80.4663 297.272 78.8862 296.976C77.1901 296.715 75.5367 296.227 73.9706 295.526C72.3408 294.769 71.0153 293.482 70.2099 291.876C69.6574 293.025 68.8925 294.06 67.9553 294.925C67.509 295.337 66.9455 295.601 66.3429 295.678C65.7403 295.756 65.1284 295.645 64.592 295.359C64.3341 295.177 64.1165 294.944 63.9528 294.674C63.789 294.404 63.6826 294.103 63.6401 293.79C63.5976 293.477 63.62 293.159 63.7059 292.855C63.7918 292.551 63.9393 292.268 64.1392 292.024C61.9465 293.391 59.5328 294.366 57.0059 294.907C56.6971 295.023 56.3628 295.054 56.0378 294.997C55.7129 294.94 55.409 294.797 55.1579 294.583C54.9679 294.29 54.8762 293.944 54.8961 293.595C54.916 293.246 55.0466 292.912 55.2688 292.643C55.4281 292.447 55.6148 292.276 55.8232 292.135C52.3359 293.836 48.4265 294.479 44.5781 293.983V294.676C46.6134 295.783 48.7891 296.61 51.0461 297.133C51.0461 297.133 50.6026 297.716 49.734 298.612Z" fill="black"/>
</g>
<g opacity="0.1">
<path d="M110.624 322.442C107.145 322.089 103.745 321.181 100.553 319.753C97.7882 321.728 94.4718 322.78 91.0747 322.762C87.6776 322.744 84.3726 321.656 81.6293 319.652C79.5248 321.604 76.8069 322.764 73.9412 322.933C71.0754 323.101 68.2402 322.268 65.9213 320.576C63.445 321.722 60.7377 322.618 58.1043 322.045C56.7146 321.75 55.4651 320.995 54.5579 319.901C53.6507 318.808 53.139 317.441 53.1055 316.02C53.8533 316.973 54.8079 317.744 55.8972 318.274C56.9865 318.804 58.182 319.079 59.3933 319.079C60.6046 319.079 61.8001 318.804 62.8894 318.274C63.9787 317.744 64.9333 316.973 65.6811 316.02C66.5563 317.198 67.7076 318.143 69.0336 318.771C70.3597 319.4 71.8198 319.693 73.2856 319.624C74.7576 319.481 76.1737 318.987 77.415 318.183C78.6562 317.379 79.6864 316.289 80.4189 315.004C82.172 316.48 84.2152 317.571 86.4163 318.208C88.6175 318.844 90.9278 319.012 93.1978 318.7C94.5158 318.587 95.7641 318.059 96.7645 317.194C97.2755 316.714 97.6353 316.096 97.7994 315.415C97.9636 314.733 97.925 314.019 97.6885 313.359C100.582 315.554 104.109 316.749 107.74 316.766C111.371 316.782 114.909 315.619 117.822 313.452L117.878 313.563C117.657 313.987 117.341 314.354 116.954 314.634C114.912 316.372 107.529 317.065 107.529 317.065C107.529 317.065 110.467 319.486 114.08 322.239C112.939 322.431 111.78 322.499 110.624 322.442Z" fill="black"/>
</g>
<g opacity="0.1">
<path d="M29.2671 338.473C31.0115 338.811 32.785 338.975 34.5617 338.963C34.5617 338.963 36.2895 343.648 41.0297 343.13C41.0297 343.13 38.6827 343.537 35.7444 344.137C37.5298 344.821 39.4564 345.054 41.3534 344.816C43.2505 344.577 45.0594 343.875 46.6199 342.77C49.4335 345.569 53.2024 347.199 57.1689 347.333C61.1354 347.466 65.0055 346.094 68.0012 343.491C70.8692 346.02 74.5514 347.433 78.3752 347.472C82.1989 347.511 85.9092 346.173 88.8282 343.703C92.0437 346.614 96.2202 348.323 100.387 347.722C102.537 347.389 104.55 346.46 106.197 345.041C107.845 343.622 109.063 341.769 109.711 339.693C106.503 341.914 102.63 342.965 98.7399 342.673C94.8496 342.38 91.1777 340.761 88.3385 338.085C88.2665 338.741 88.0168 339.365 87.6162 339.889C87.2156 340.414 86.6794 340.819 86.0654 341.06C84.877 341.46 83.6143 341.59 82.3694 341.439C77.2967 341.181 71.9282 340.386 68.0012 336.819C66.8077 338.414 65.2286 339.68 63.412 340.498C61.5954 341.316 59.6009 341.659 57.6155 341.495C55.6154 341.226 53.7122 340.469 52.0735 339.291C50.4348 338.113 49.1109 336.55 48.2184 334.74C44.6792 336.57 40.7383 337.484 36.7551 337.401C32.7719 337.317 28.873 336.237 25.4141 334.26L29.2671 338.473Z" fill="black"/>
</g>
<g opacity="0.1">
<path d="M60.9861 361.435C60.9655 362.23 61.1482 363.017 61.5168 363.722C61.8855 364.427 62.4279 365.026 63.0928 365.463C64.3681 366.234 65.8346 366.631 67.3247 366.609C71.8941 366.714 76.3374 365.106 79.7803 362.1C81.0259 363.737 82.6331 365.064 84.4763 365.978C86.3195 366.892 88.349 367.367 90.4063 367.367C92.4635 367.367 94.493 366.892 96.3362 365.978C98.1794 365.064 99.7866 363.737 101.032 362.1C106.032 363.45 111.255 363.764 116.381 363.024C121.507 362.284 126.427 360.504 130.84 357.794L132.19 358.542C132.169 359.034 132.053 359.518 131.848 359.965C130.277 363.606 117.868 367.422 117.868 367.422C118.917 367.829 119.991 368.168 121.083 368.438C118.939 369.085 117.082 369.621 115.909 370C111.529 371.395 106.41 370.591 103.12 367.099C101.695 368.864 99.8882 370.284 97.8359 371.253C95.7837 372.221 93.5389 372.712 91.2698 372.69C89.0006 372.668 86.7659 372.133 84.733 371.124C82.7 370.116 80.9216 368.661 79.5308 366.868C76.6664 370.102 72.8965 372.624 68.8124 372.772C66.6824 372.845 64.5891 372.204 62.866 370.95C61.1429 369.696 59.8891 367.901 59.3044 365.851C54.2409 367.699 48.2164 365.408 45.2227 360.529C47.5556 362.01 50.2281 362.87 52.9868 363.029C55.7455 363.187 58.4989 362.638 60.9861 361.435Z" fill="black"/>
</g>
<path d="M188.463 393.018H176.479V440.973H188.463V393.018Z" fill="#6F4439"/>
<path d="M137.033 392.879C137.033 392.879 137.615 392.491 136.321 390.791C135.028 389.09 137.033 388.185 137.033 388.185C142.697 391.447 150.597 388.185 150.597 388.185C150.597 388.185 141.274 385.32 140.101 382.576C139.177 380.534 140.766 380.312 141.616 380.322C140.692 380.229 138.604 379.887 137.975 378.797C137.144 377.365 140.387 375.674 140.387 375.674C140.219 375.328 140.132 374.949 140.132 374.565C140.132 374.181 140.219 373.802 140.387 373.456C140.923 372.024 153.074 369.936 153.074 369.936C149.535 370.324 148.241 366.813 148.241 366.813C148.241 366.813 142.217 366.942 140.803 364.595C139.389 362.248 141.727 361.592 145.765 359.643C149.803 357.693 158.618 350.403 158.618 350.403C158.618 350.403 153.074 349.885 151.54 348.555C150.006 347.224 151.42 346.984 151.42 346.984C144.813 347.64 147.058 344.119 147.058 344.119C152.305 342.524 157.005 339.501 160.632 335.388C160.632 335.388 156.502 334.464 154.376 332.514C152.251 330.564 156.141 330.038 156.141 330.038C156.141 330.038 148.352 328.993 152.843 326.129C156.252 323.948 161.704 321.019 163.395 320.142C161.547 320.816 157.324 320.003 157.324 320.003C152.371 317.785 157.324 314.533 157.324 314.533C163.108 311.271 171.6 303.057 171.6 303.057C171.6 303.057 167.349 305.274 165.233 304.618C163.117 303.962 167.59 301.366 167.59 301.366C167.59 301.366 165.344 302.013 164.402 301.366C163.459 300.719 166.878 297.716 166.878 297.716C171.969 294.417 178.234 285.778 180.858 282.063C183.482 285.759 189.756 294.417 194.838 297.716C194.838 297.716 198.266 300.71 197.315 301.366C196.363 302.022 194.136 301.366 194.136 301.366C194.136 301.366 198.618 303.972 196.492 304.618C194.367 305.265 190.117 303.057 190.117 303.057C190.117 303.057 198.618 311.271 204.402 314.533C204.402 314.533 209.354 317.785 204.402 320.003C204.402 320.003 200.188 320.816 198.331 320.142C200.022 321.066 205.474 323.948 208.883 326.129C213.365 328.993 205.575 330.038 205.575 330.038C205.575 330.038 209.475 330.564 207.349 332.514C205.224 334.464 201.094 335.388 201.094 335.388C204.721 339.501 209.421 342.524 214.667 344.119C214.667 344.119 216.904 347.64 210.297 346.984C210.297 346.984 211.711 347.242 210.177 348.555C208.643 349.867 203.099 350.403 203.099 350.403C203.099 350.403 211.951 357.702 215.961 359.643C219.971 361.583 222.337 362.248 220.914 364.595C219.491 366.942 213.522 366.813 213.522 366.813C213.522 366.813 212.219 370.324 208.68 369.936C208.68 369.936 220.84 372.024 221.366 373.456C221.537 373.801 221.625 374.181 221.625 374.565C221.625 374.95 221.537 375.329 221.366 375.674C221.366 375.674 224.61 377.365 223.787 378.797C223.159 379.887 221.098 380.229 220.147 380.322C220.988 380.322 222.54 380.534 221.662 382.576C220.479 385.348 211.165 388.185 211.165 388.185C211.165 388.185 219.066 391.447 224.73 388.185C224.73 388.185 226.735 389.109 225.441 390.791C224.148 392.472 224.73 392.879 224.73 392.879C224.73 392.879 227.677 390.661 226.384 394.052C225.09 397.443 218.243 399.522 218.243 399.522C218.243 399.522 222.133 400.178 220.951 402.294C219.768 404.41 214.815 406.85 209.391 407.376C203.968 407.903 196.649 405.944 196.649 405.944C196.649 405.944 201.602 408.55 198.183 409.982C194.764 411.414 190.865 408.134 190.865 408.134C190.865 408.134 191.577 411.47 188.74 410.324C186.827 409.488 185.061 408.35 183.51 406.951C183.51 406.951 182.632 411.876 180.858 410.694C179.093 411.876 178.206 406.951 178.206 406.951C176.669 408.346 174.915 409.482 173.014 410.315C170.186 411.46 170.898 408.125 170.898 408.125C170.898 408.125 166.998 411.387 163.579 409.973C160.161 408.559 165.113 405.935 165.113 405.935C165.113 405.935 157.795 407.885 152.371 407.367C146.947 406.85 141.986 404.364 140.803 402.285C139.62 400.206 143.519 399.513 143.519 399.513C143.519 399.513 136.673 397.434 135.379 394.043C134.085 390.652 137.033 392.879 137.033 392.879Z" fill="#455A64"/>
<path d="M163.615 314.93L163.8 314.847C163.735 314.867 163.673 314.895 163.615 314.93Z" fill="black"/>
<g opacity="0.1">
<path d="M172.505 301.569L175.277 300.47C175.786 301.146 176.534 301.603 177.367 301.749C178.201 301.895 179.059 301.718 179.768 301.255C181.651 300.19 183.207 298.631 184.268 296.746C184.268 296.746 188.398 299.472 188.823 297.744C188.93 297.254 188.858 296.741 188.621 296.299C188.384 295.857 187.997 295.514 187.529 295.332C187.613 295.469 187.666 295.623 187.684 295.783C187.701 295.942 187.683 296.104 187.631 296.256C187.456 296.57 187.049 296.561 186.707 296.478C185.609 296.175 184.637 295.527 183.935 294.63C183.03 296.492 181.54 298.007 179.694 298.945C179.348 299.205 178.952 299.391 178.53 299.49C178.108 299.588 177.671 299.598 177.245 299.518C177.036 299.442 176.846 299.32 176.69 299.161C176.534 299.002 176.415 298.81 176.342 298.599C176.27 298.388 176.245 298.164 176.27 297.942C176.295 297.721 176.37 297.508 176.488 297.319C175.87 298.15 175.084 298.841 174.181 299.349C173.279 299.857 172.28 300.169 171.249 300.266C170.824 300.266 170.269 300.183 170.186 299.721C170.166 299.446 170.255 299.173 170.435 298.963C171.036 298.088 171.783 297.322 172.644 296.7C170.773 298.075 168.562 298.913 166.25 299.121L164.254 299.388C164.189 299.629 164.254 299.823 164.383 299.934C165.307 300.59 167.571 299.934 167.571 299.934C167.571 299.934 163.09 302.549 165.215 303.195C167.34 303.842 171.581 301.634 171.581 301.634L171.064 302.133L172.505 301.569Z" fill="black"/>
</g>
<g opacity="0.1">
<path d="M197.6 319.088L192.148 317.129C191.983 318.041 191.492 318.862 190.766 319.439C190.04 320.015 189.129 320.308 188.203 320.261C188.203 320.261 185.311 320.502 185.08 317.129C185.08 317.129 182.308 319.827 176.68 319.032C176.68 319.032 175.756 318.903 175.96 317.369C175.462 317.931 174.778 318.296 174.034 318.398C173.29 318.5 172.534 318.331 171.903 317.924C169.344 316.575 171.562 314.302 171.562 314.302L171.913 314.117C171.764 314.327 171.663 314.568 171.617 314.822C171.57 315.076 171.58 315.336 171.645 315.586C171.922 316.26 172.8 316.214 173.493 316.011C175.313 315.429 176.997 314.486 178.445 313.239C178.017 313.694 177.67 314.219 177.42 314.791C177.296 315.09 177.248 315.415 177.278 315.737C177.309 316.059 177.418 316.369 177.595 316.639C177.797 316.851 178.041 317.016 178.312 317.125C178.583 317.233 178.874 317.282 179.166 317.268C180.612 317.32 182.05 317.036 183.367 316.436C184.684 315.836 185.843 314.938 186.752 313.812C186.752 314.69 186.567 315.558 186.595 316.427C186.569 316.851 186.664 317.274 186.871 317.646C187.077 318.017 187.385 318.322 187.759 318.524C188.683 318.838 189.607 317.998 189.968 317.055C190.328 316.113 190.448 315.041 190.892 314.117C192.188 315.413 193.771 316.388 195.512 316.963C195.988 317.145 196.501 317.212 197.008 317.157C197.267 317.118 197.51 317.013 197.714 316.851C197.919 316.688 198.077 316.475 198.173 316.233C198.245 316.008 198.248 315.767 198.18 315.541C198.113 315.315 197.978 315.115 197.794 314.967C199.975 315.965 205.038 317.739 206.027 315.263C206.563 316.325 206.443 317.619 204.086 318.672C204.086 318.672 199.873 319.485 198.016 318.801L199.337 319.504L197.6 319.088Z" fill="black"/>
</g>
<g opacity="0.1">
<path d="M159.634 335.12C161.057 334.895 162.417 334.372 163.625 333.586C163.825 334.088 164.197 334.503 164.674 334.757C165.151 335.011 165.703 335.087 166.231 334.972C167.269 334.687 168.222 334.151 169.003 333.41C169.357 333.942 169.829 334.385 170.381 334.706C170.934 335.026 171.553 335.215 172.191 335.258C172.825 335.275 173.455 335.144 174.03 334.876C174.606 334.608 175.112 334.211 175.508 333.715C178.954 336.256 183.038 338.123 187.15 337.578C187.542 337.56 187.926 337.465 188.28 337.297C188.634 337.128 188.95 336.891 189.211 336.598C189.701 335.951 189.627 334.75 188.915 334.445C191.428 334.99 194.034 335.526 196.52 334.833C197.829 334.555 198.975 333.773 199.712 332.656C200.449 331.539 200.716 330.177 200.456 328.864C200.332 329.494 200.114 330.101 199.809 330.666C199.465 331.13 198.967 331.457 198.405 331.59C196.34 332.275 194.158 332.535 191.991 332.354C189.823 332.173 187.714 331.555 185.792 330.537C186.614 331.461 186.051 333.152 185.007 333.743C183.923 334.211 182.707 334.277 181.579 333.928C180.303 333.727 179.06 333.357 177.883 332.828C176.654 332.25 175.657 331.273 175.055 330.056C174.642 330.918 174.068 331.692 173.364 332.338C173.03 332.649 172.608 332.847 172.156 332.907C171.704 332.966 171.245 332.884 170.842 332.671C170.647 332.535 170.482 332.361 170.359 332.158C170.235 331.955 170.154 331.729 170.122 331.494C170.09 331.259 170.107 331.019 170.172 330.791C170.237 330.563 170.349 330.35 170.5 330.167C168.852 331.193 167.039 331.925 165.141 332.329C164.913 332.411 164.668 332.432 164.429 332.39C164.191 332.348 163.968 332.244 163.782 332.089C163.639 331.868 163.57 331.608 163.585 331.345C163.6 331.083 163.698 330.832 163.865 330.629C163.984 330.482 164.124 330.355 164.281 330.25C161.662 331.526 158.726 332.008 155.836 331.636V332.154C157.36 332.984 158.988 333.606 160.678 334.002C160.678 334.002 160.29 334.445 159.634 335.12Z" fill="black"/>
</g>
<g opacity="0.1">
<path d="M205.371 353.017C202.762 352.747 200.211 352.067 197.813 351.003C195.733 352.482 193.241 353.269 190.689 353.254C188.137 353.239 185.655 352.423 183.593 350.919C182.009 352.389 179.964 353.261 177.808 353.388C175.652 353.514 173.519 352.887 171.775 351.612C169.986 352.605 167.925 352.993 165.898 352.721C164.855 352.497 163.918 351.929 163.237 351.108C162.557 350.286 162.173 349.26 162.146 348.194C162.709 348.909 163.427 349.487 164.246 349.884C165.065 350.281 165.963 350.488 166.873 350.488C167.783 350.488 168.681 350.281 169.5 349.884C170.318 349.487 171.036 348.909 171.599 348.194C172.254 349.079 173.116 349.789 174.111 350.261C175.105 350.733 176.201 350.953 177.3 350.901C178.406 350.796 179.471 350.427 180.405 349.826C181.339 349.225 182.115 348.408 182.669 347.445C183.983 348.555 185.516 349.375 187.169 349.852C188.821 350.33 190.556 350.454 192.26 350.217C193.25 350.136 194.189 349.741 194.939 349.09C195.326 348.731 195.598 348.266 195.721 347.753C195.844 347.24 195.813 346.702 195.632 346.207C197.805 347.857 200.455 348.757 203.183 348.77C205.911 348.783 208.57 347.91 210.758 346.281V346.364C210.599 346.681 210.368 346.956 210.084 347.168C208.55 348.471 203.006 349.016 203.006 349.016C203.006 349.016 205.214 350.864 207.921 352.897C207.078 353.026 206.223 353.066 205.371 353.017Z" fill="black"/>
</g>
<g opacity="0.1">
<path d="M144.258 365.057C145.569 365.314 146.904 365.438 148.24 365.426C148.24 365.426 149.534 368.947 153.073 368.559C153.073 368.559 151.317 368.854 149.1 369.307C150.442 369.821 151.889 369.996 153.315 369.819C154.741 369.642 156.102 369.117 157.277 368.291C159.394 370.386 162.224 371.605 165.202 371.704C168.179 371.804 171.084 370.776 173.336 368.827C175.495 370.717 178.259 371.772 181.129 371.801C183.998 371.83 186.783 370.83 188.979 368.984C190.12 370.09 191.488 370.933 192.988 371.455C194.488 371.977 196.085 372.165 197.665 372.005C199.279 371.753 200.79 371.054 202.028 369.987C203.265 368.921 204.18 367.53 204.669 365.971C202.262 367.632 199.359 368.417 196.444 368.197C193.529 367.976 190.777 366.764 188.647 364.761C188.595 365.255 188.408 365.725 188.107 366.12C187.805 366.514 187.401 366.818 186.937 366.997C186.046 367.297 185.099 367.395 184.165 367.283C180.349 367.089 176.321 366.498 173.364 363.837C172.467 365.034 171.281 365.984 169.917 366.598C168.553 367.212 167.056 367.47 165.565 367.348C164.063 367.147 162.633 366.578 161.402 365.694C160.171 364.809 159.176 363.635 158.506 362.275C155.847 363.648 152.887 364.334 149.895 364.271C146.903 364.208 143.974 363.398 141.375 361.915L144.258 365.057Z" fill="black"/>
</g>
<g opacity="0.1">
<path d="M168.088 382.308C168.076 382.903 168.215 383.491 168.491 384.017C168.768 384.544 169.172 384.992 169.668 385.321C170.63 385.898 171.734 386.196 172.856 386.18C176.288 386.262 179.625 385.051 182.207 382.789C183.141 384.023 184.348 385.025 185.734 385.714C187.12 386.403 188.647 386.762 190.195 386.762C191.743 386.762 193.27 386.403 194.656 385.714C196.042 385.025 197.249 384.023 198.183 382.789C201.937 383.815 205.862 384.063 209.715 383.516C213.568 382.97 217.269 381.64 220.59 379.61L221.606 380.174C221.598 380.517 221.526 380.855 221.394 381.172C220.211 383.944 210.888 386.781 210.888 386.781C211.677 387.086 212.486 387.339 213.309 387.538C211.692 388.028 210.306 388.462 209.419 388.712C207.776 389.285 206.005 389.385 204.308 389.001C202.61 388.617 201.055 387.765 199.818 386.54C198.744 387.863 197.384 388.927 195.841 389.651C194.299 390.376 192.612 390.743 190.908 390.725C189.204 390.707 187.525 390.305 185.998 389.548C184.471 388.792 183.134 387.701 182.087 386.356C179.943 388.786 177.116 390.689 174.039 390.8C172.439 390.85 170.869 390.366 169.575 389.424C168.282 388.482 167.339 387.136 166.896 385.598C164.94 386.224 162.83 386.169 160.908 385.443C158.987 384.716 157.369 383.361 156.316 381.597C158.058 382.702 160.052 383.347 162.11 383.471C164.169 383.596 166.226 383.196 168.088 382.308Z" fill="black"/>
</g>
<path d="M359.31 439.993H374.232V380.636H359.31V439.993Z" fill="#6F4439"/>
<path d="M423.362 380.46C423.362 380.46 422.623 379.97 424.24 377.864C425.857 375.757 423.362 374.62 423.362 374.62C416.303 378.677 406.462 374.62 406.462 374.62C406.462 374.62 418.068 371.044 419.537 367.635C420.636 365.094 418.705 364.807 417.689 364.863C418.872 364.743 421.44 364.327 422.216 362.969C423.214 361.148 419.13 358.995 419.13 358.995C419.345 358.565 419.457 358.09 419.457 357.609C419.457 357.128 419.345 356.654 419.13 356.223C418.474 354.431 403.339 351.834 403.339 351.834C407.747 352.324 409.364 347.944 409.364 347.944C409.364 347.944 416.857 348.101 418.604 345.172C420.35 342.243 417.43 341.476 412.431 339.009C407.432 336.542 396.474 327.579 396.474 327.579C396.474 327.579 403.376 326.923 405.289 325.306C407.201 323.689 405.437 323.357 405.437 323.357C413.66 324.17 410.87 319.781 410.87 319.781C404.338 317.796 398.486 314.034 393.97 308.915C393.97 308.915 399.116 307.778 401.759 305.339C404.402 302.899 399.56 302.253 399.56 302.253C399.56 302.253 409.253 300.959 403.672 297.383C399.431 294.676 392.639 291.026 390.532 289.926C392.842 290.777 398.091 289.76 398.091 289.76C404.254 286.988 398.091 282.941 398.091 282.941C390.893 278.857 380.322 268.628 380.322 268.628C380.322 268.628 385.608 271.4 388.25 270.578C390.893 269.756 385.312 266.522 385.312 266.522C385.312 266.522 388.084 267.335 389.285 266.522C390.486 265.708 386.199 261.975 386.199 261.975C379.86 257.873 372.052 247.108 368.791 242.488C365.52 247.108 357.703 257.873 351.383 261.975C351.383 261.975 347.123 265.671 348.296 266.522C349.47 267.372 352.26 266.522 352.26 266.522C352.26 266.522 346.716 269.765 349.322 270.578C351.928 271.391 357.222 268.628 357.222 268.628C357.222 268.628 346.642 278.857 339.445 282.913C339.445 282.913 333.272 286.97 339.445 289.732C339.445 289.732 344.693 290.749 347.003 289.899C344.896 290.998 338.105 294.648 333.864 297.355C328.32 300.931 337.975 302.225 337.975 302.225C337.975 302.225 333.124 302.881 335.776 305.311C338.428 307.741 343.556 308.887 343.556 308.887C339.062 313.997 333.237 317.759 326.73 319.753C326.73 319.753 323.958 324.142 332.163 323.329C332.163 323.329 330.399 323.652 332.311 325.279C334.224 326.905 341.126 327.552 341.126 327.552C341.126 327.552 330.103 336.635 325.113 339.074C320.124 341.513 317.176 342.317 318.941 345.237C320.706 348.157 328.181 348.009 328.181 348.009C328.181 348.009 329.798 352.389 334.205 351.899C334.205 351.899 319.07 354.496 318.405 356.288C318.193 356.719 318.083 357.194 318.083 357.674C318.083 358.155 318.193 358.629 318.405 359.06C318.405 359.06 314.367 361.176 315.393 362.959C316.178 364.318 318.747 364.733 319.93 364.854C318.876 364.854 316.945 365.122 318.082 367.626C319.551 371.035 331.156 374.611 331.156 374.611C331.156 374.611 321.306 378.667 314.256 374.611C314.256 374.611 311.761 375.748 313.378 377.854C314.995 379.961 314.256 380.451 314.256 380.451C314.256 380.451 310.56 377.679 312.205 381.911C313.85 386.143 322.369 388.73 322.369 388.73C322.369 388.73 317.518 389.543 318.987 392.139C320.456 394.736 326.629 397.813 333.383 398.469C340.138 399.125 349.248 396.676 349.248 396.676C349.248 396.676 343.085 399.929 347.345 401.712C351.604 403.495 356.455 399.439 356.455 399.439C356.455 399.439 355.531 403.597 359.098 402.211C361.466 401.174 363.65 399.76 365.566 398.025C365.566 398.025 366.675 404.151 368.874 402.645C371.073 404.114 372.173 398.025 372.173 398.025C374.088 399.761 376.273 401.174 378.641 402.211C382.17 403.643 381.283 399.439 381.283 399.439C381.283 399.439 386.134 403.495 390.394 401.712C394.653 399.929 388.481 396.676 388.481 396.676C388.481 396.676 397.592 399.116 404.346 398.469C411.101 397.822 417.282 394.773 418.751 392.139C420.221 389.506 415.37 388.73 415.37 388.73C415.37 388.73 423.889 386.133 425.534 381.911C427.178 377.688 423.362 380.46 423.362 380.46Z" fill="#455A64"/>
<path d="M390.247 283.403L390.016 283.302C390.098 283.32 390.177 283.355 390.247 283.403Z" fill="black"/>
<g opacity="0.1">
<path d="M379.177 266.762L375.703 265.394C375.703 265.394 373.762 268.268 370.103 266.374C367.758 265.05 365.818 263.111 364.495 260.765C364.495 260.765 359.357 264.156 358.821 262.003C358.689 261.392 358.779 260.754 359.075 260.203C359.372 259.653 359.855 259.226 360.438 259C360.324 259.176 360.253 259.377 360.231 259.585C360.208 259.794 360.235 260.005 360.309 260.201C360.531 260.58 361.039 260.571 361.445 260.469C362.832 260.12 364.063 259.32 364.947 258.196C366.075 260.515 367.932 262.401 370.233 263.565C370.664 263.888 371.158 264.118 371.683 264.24C372.208 264.362 372.752 264.375 373.282 264.276C374.298 263.953 374.982 262.373 374.206 261.504C374.975 262.542 375.952 263.407 377.076 264.044C378.199 264.68 379.444 265.074 380.729 265.2C381.265 265.246 381.958 265.108 382.06 264.526C382.074 264.189 381.962 263.86 381.746 263.602C380.99 262.524 380.052 261.586 378.974 260.83C381.3 262.543 384.052 263.585 386.929 263.842L389.415 264.175C389.47 264.29 389.484 264.42 389.456 264.544C389.427 264.668 389.357 264.779 389.258 264.858C388.075 265.671 385.285 264.858 385.285 264.858C385.285 264.858 390.875 268.102 388.223 268.915C385.571 269.728 380.295 266.965 380.295 266.965L380.942 267.593L379.177 266.762Z" fill="black"/>
</g>
<g opacity="0.1">
<path d="M347.981 288.586L354.772 286.138C354.772 286.138 355.53 290.268 359.688 290.037C359.688 290.037 363.291 290.342 363.569 286.138C363.569 286.138 367.024 289.501 374.019 288.503C374.019 288.503 375.202 288.355 374.943 286.443C375.564 287.143 376.416 287.597 377.343 287.723C378.271 287.848 379.212 287.637 379.997 287.126C383.185 285.445 380.413 282.617 380.413 282.617L379.988 282.386C380.174 282.652 380.3 282.955 380.358 283.274C380.415 283.593 380.403 283.921 380.321 284.234C379.97 285.075 378.879 285.02 378.075 284.761C375.809 284.041 373.712 282.869 371.912 281.314C372.447 281.881 372.875 282.538 373.178 283.255C373.333 283.622 373.395 284.021 373.358 284.418C373.321 284.815 373.186 285.196 372.966 285.528C372.715 285.789 372.411 285.993 372.075 286.127C371.738 286.261 371.377 286.321 371.016 286.304C369.215 286.372 367.423 286.019 365.782 285.273C364.141 284.527 362.697 283.409 361.563 282.007C361.563 283.098 361.794 284.179 361.757 285.269C361.721 286.359 361.249 287.551 360.307 287.875C359.198 288.263 358.052 287.219 357.535 286.027C357.017 284.835 356.934 283.514 356.408 282.331C354.78 283.956 352.792 285.175 350.605 285.888C350.016 286.112 349.383 286.195 348.757 286.129C348.432 286.078 348.126 285.942 347.871 285.734C347.616 285.526 347.421 285.254 347.306 284.946C347.214 284.667 347.21 284.367 347.295 284.086C347.379 283.805 347.547 283.557 347.777 283.375C345.005 284.613 338.759 286.812 337.521 283.745C336.865 285.066 337.004 286.674 339.942 287.986C339.942 287.986 345.181 289.002 347.5 288.152L345.855 289.021L347.981 288.586Z" fill="black"/>
</g>
<g opacity="0.1">
<path d="M395.217 308.536C393.443 308.263 391.748 307.614 390.246 306.632C389.99 307.253 389.524 307.765 388.93 308.077C388.335 308.39 387.65 308.483 386.993 308.342C385.708 307.977 384.529 307.309 383.556 306.392C383.113 307.052 382.524 307.601 381.835 307.998C381.147 308.396 380.376 308.63 379.583 308.684C378.794 308.702 378.012 308.539 377.297 308.205C376.582 307.872 375.954 307.378 375.462 306.762C371.175 309.922 366.074 312.25 360.955 311.567C360.469 311.542 359.993 311.421 359.554 311.212C359.115 311.003 358.721 310.709 358.396 310.347C357.786 309.543 357.878 308.055 358.765 307.667C355.633 308.342 352.39 309.016 349.303 308.157C346.217 307.298 343.759 304.729 344.388 300.719C344.544 301.5 344.815 302.253 345.192 302.955C345.621 303.536 346.243 303.946 346.947 304.11C349.518 304.964 352.236 305.288 354.936 305.063C357.636 304.837 360.262 304.067 362.655 302.798C361.62 303.934 362.332 306.05 363.625 306.789C364.919 307.529 366.462 307.298 367.894 307.02C369.488 306.775 371.041 306.318 372.514 305.662C374.037 304.949 375.277 303.745 376.035 302.243C376.55 303.317 377.265 304.283 378.142 305.089C378.56 305.471 379.085 305.716 379.647 305.79C380.209 305.865 380.78 305.765 381.283 305.505C381.526 305.336 381.731 305.118 381.885 304.865C382.04 304.612 382.14 304.33 382.18 304.037C382.22 303.743 382.198 303.445 382.117 303.16C382.036 302.875 381.897 302.61 381.708 302.382C383.761 303.662 386.022 304.572 388.389 305.071C388.669 305.179 388.974 305.209 389.271 305.157C389.567 305.105 389.843 304.973 390.07 304.775C390.26 304.499 390.353 304.168 390.334 303.834C390.316 303.499 390.187 303.181 389.969 302.927C389.822 302.741 389.647 302.579 389.451 302.447C392.713 304.035 396.368 304.635 399.966 304.175L400.022 304.821C398.123 305.858 396.094 306.635 393.988 307.131C393.988 307.131 394.395 307.695 395.217 308.536Z" fill="black"/>
</g>
<g opacity="0.1">
<path d="M338.252 330.823C341.504 330.493 344.683 329.645 347.667 328.31C350.255 330.157 353.359 331.142 356.539 331.125C359.718 331.109 362.812 330.091 365.38 328.217C367.348 330.051 369.895 331.14 372.581 331.297C375.266 331.454 377.922 330.669 380.09 329.076C382.41 330.148 384.941 330.989 387.409 330.453C388.708 330.175 389.876 329.468 390.724 328.446C391.572 327.423 392.051 326.145 392.084 324.817C391.382 325.705 390.488 326.422 389.469 326.915C388.45 327.407 387.332 327.663 386.2 327.662C385.069 327.661 383.952 327.404 382.933 326.909C381.915 326.415 381.022 325.696 380.321 324.808C379.507 325.912 378.432 326.799 377.193 327.387C375.953 327.975 374.587 328.248 373.216 328.18C371.839 328.05 370.514 327.59 369.351 326.841C368.189 326.092 367.223 325.074 366.535 323.874C364.902 325.264 362.993 326.294 360.934 326.895C358.876 327.497 356.713 327.658 354.588 327.367C353.357 327.258 352.191 326.767 351.252 325.963C350.774 325.513 350.438 324.933 350.285 324.294C350.132 323.655 350.17 322.986 350.393 322.368C347.685 324.419 344.385 325.536 340.988 325.553C337.592 325.569 334.281 324.484 331.553 322.461V322.562C331.749 322.957 332.033 323.302 332.384 323.569C334.297 325.186 341.209 325.842 341.209 325.842C341.209 325.842 338.437 328.106 335.082 330.684C336.131 330.842 337.193 330.888 338.252 330.823Z" fill="black"/>
</g>
<g opacity="0.1">
<path d="M414.352 345.82C412.721 346.14 411.062 346.295 409.4 346.282C409.4 346.282 407.783 350.661 403.375 350.172C403.375 350.172 405.565 350.55 408.319 351.096C406.65 351.733 404.85 351.95 403.077 351.727C401.305 351.505 399.614 350.85 398.155 349.821C395.52 352.432 391.996 353.952 388.289 354.077C384.582 354.202 380.964 352.923 378.159 350.495C375.477 352.86 372.034 354.182 368.458 354.219C364.882 354.256 361.412 353.007 358.681 350.698C355.678 353.415 351.714 355.004 347.861 354.459C345.851 354.142 343.969 353.271 342.428 351.942C340.887 350.613 339.747 348.879 339.139 346.938C342.136 349.005 345.751 349.985 349.382 349.712C353.013 349.44 356.442 347.933 359.097 345.441C359.162 346.054 359.394 346.637 359.769 347.126C360.144 347.615 360.647 347.991 361.222 348.213C362.329 348.592 363.507 348.715 364.669 348.573C369.409 348.333 374.426 347.594 378.113 344.277C379.226 345.769 380.701 346.954 382.398 347.72C384.095 348.486 385.959 348.808 387.815 348.656C389.687 348.406 391.469 347.699 393.004 346.596C394.538 345.494 395.777 344.031 396.611 342.336C399.921 344.046 403.606 344.901 407.331 344.824C411.055 344.746 414.702 343.739 417.937 341.893L414.352 345.82Z" fill="black"/>
</g>
<g opacity="0.1">
<path d="M384.683 367.311C384.699 368.052 384.527 368.785 384.183 369.441C383.839 370.097 383.334 370.655 382.715 371.063C381.522 371.787 380.147 372.159 378.751 372.135C374.475 372.241 370.315 370.734 367.1 367.912C365.936 369.447 364.433 370.692 362.709 371.549C360.984 372.406 359.084 372.853 357.157 372.853C355.231 372.853 353.331 372.406 351.606 371.549C349.881 370.692 348.378 369.447 347.215 367.912C342.54 369.176 337.655 369.471 332.862 368.78C328.068 368.089 323.466 366.426 319.338 363.893L318.072 364.586C318.088 365.048 318.201 365.501 318.405 365.916C319.874 369.326 331.48 372.902 331.48 372.902C330.495 373.27 329.489 373.578 328.467 373.826C330.472 374.426 332.163 374.925 333.309 375.276C335.345 375.983 337.539 376.106 339.641 375.633C341.744 375.159 343.673 374.108 345.21 372.597C346.545 374.246 348.236 375.572 350.156 376.476C352.075 377.38 354.174 377.838 356.296 377.817C358.418 377.796 360.508 377.295 362.409 376.353C364.31 375.41 365.974 374.051 367.275 372.375C369.955 375.406 373.475 377.762 377.301 377.919C379.293 377.988 381.251 377.389 382.863 376.217C384.475 375.045 385.65 373.367 386.199 371.451C390.93 373.17 396.585 371.035 399.366 366.471C397.191 367.846 394.702 368.644 392.133 368.791C389.565 368.939 387.001 368.429 384.683 367.311Z" fill="black"/>
</g>
<path d="M436.055 443.751L433.154 445.747L434.808 442.873C434.059 442.346 433.292 441.829 432.507 441.302L429.661 444.573L431.38 440.545C430.603 440.046 429.818 439.547 429.014 439.066L426.445 444.121L427.887 438.383L426.704 437.699L423.701 444.25L425.549 437.034C424.366 436.387 423.15 435.752 421.899 435.13C420.218 437.579 417.002 442.189 417.002 442.189L419.479 433.994C417.122 432.94 414.637 431.961 412.003 431.083L408.307 441.016L409.906 430.418C407.781 429.78 405.563 429.207 403.235 428.718L399.539 440.471L400.629 428.209L399.058 427.951L397.293 440.48L396.203 427.544C393.376 427.193 390.4 426.962 387.277 426.87L385.309 439.51L384.477 426.842C383.775 426.842 383.064 426.842 382.343 426.842L382.241 439.464L380.144 426.888H379.146C377.39 426.971 375.699 427.082 374.027 427.202L371.726 442.753V427.396L369.74 427.572L368.677 442.716L367.06 427.932C364.035 428.283 361.177 428.696 358.485 429.17L356.665 443.15L355.371 429.734L353.847 430.057L354.42 443.049L351.121 430.658C348.774 431.212 346.566 431.801 344.496 432.423L345.642 443.206L342.38 433.042C339.608 433.966 337.104 434.89 334.849 435.814L336.901 443.917C336.901 443.917 334.073 439.436 332.475 436.876C331.107 437.492 329.841 438.13 328.677 438.789L330.1 445.673L327.559 439.408C327.115 439.661 326.69 439.91 326.284 440.157L327.356 445.423L325.249 440.803C324.38 441.358 323.586 441.885 322.874 442.402L324.131 445.747L321.969 443.067C321.045 443.76 320.269 444.389 319.622 444.915L320.546 446.763L318.947 445.562C318.291 446.172 317.811 446.662 317.506 447.003L317.617 447.17H379.839L441.202 447.216C439.566 446.024 437.857 445.035 436.055 443.751Z" fill="#455A64"/>
<path d="M164.648 443.224L161.396 445.802L163.244 442.106C162.403 441.432 161.543 440.757 160.675 440.082L157.441 444.314L159.372 439.103C158.503 438.456 157.626 437.809 156.729 437.172L153.846 443.723L155.463 436.331L154.133 435.407L150.76 443.899L152.812 434.548C151.481 433.71 150.114 432.891 148.709 432.09C146.861 435.259 143.22 441.237 143.22 441.237L145.992 430.584C143.273 429.166 140.475 427.905 137.612 426.805L133.472 439.667L135.265 425.964C132.881 425.132 130.386 424.393 127.78 423.765L123.65 438.992L124.861 423.109L123.105 422.767L121.128 438.992L119.908 422.268C116.588 421.794 113.244 421.504 109.892 421.399L107.711 437.754L106.787 421.344C105.993 421.344 105.198 421.344 104.385 421.344L104.274 437.689L101.964 421.427L100.837 421.473C98.8685 421.584 96.965 421.723 95.0986 421.88L92.5206 442.023V422.129L90.2938 422.36L89.1018 441.884L87.2538 422.73C83.8627 423.183 80.6564 423.728 77.635 424.338L75.6114 442.457L74.17 425.04C73.5786 425.169 73.0242 425.317 72.4513 425.456L73.0981 442.291L69.4021 426.241C66.7687 426.952 64.2924 427.719 62.0101 428.523L63.2852 442.485L59.5892 429.383C56.7121 430.454 53.8903 431.669 51.1346 433.023L53.4539 443.52C53.4539 443.52 50.2753 437.717 48.4828 434.4C46.9489 435.222 45.526 436.054 44.2231 436.867L45.8216 445.793L42.9665 437.68C42.4768 438.003 42.0425 438.327 41.5343 438.65L42.7447 445.46L40.3885 439.463C39.4091 440.175 38.5405 440.868 37.7182 441.524L39.1319 445.867L36.7018 442.383C35.6669 443.307 34.7983 444.111 34.0684 444.841V447.216H170.016C168.168 445.58 166.662 444.887 164.648 443.224Z" fill="#455A64"/>
<path d="M285.517 420.55C284.886 420.807 284.315 421.191 283.839 421.677C283.362 422.163 282.99 422.742 282.745 423.377C282.266 424.64 282.086 425.997 282.218 427.341C282.572 430.024 283.612 432.57 285.239 434.733C287.503 432.931 288.15 429.642 288.372 427.951C288.723 425.28 287.744 420.235 285.47 420.559" fill="#633CFF"/>
<path d="M282.541 438.9C282.724 438.168 282.709 437.401 282.497 436.677C282.286 435.953 281.887 435.298 281.34 434.779C280.785 434.268 280.134 433.873 279.425 433.618C278.716 433.362 277.962 433.251 277.21 433.291C276.866 433.271 276.523 433.327 276.203 433.455C275.884 433.583 275.597 433.779 275.362 434.03C275.182 434.301 275.077 434.615 275.058 434.939C275.039 435.264 275.105 435.588 275.251 435.878C275.555 436.457 276.008 436.945 276.563 437.292C278.411 438.558 280.397 439.445 282.559 438.9" fill="#633CFF"/>
<path d="M284.982 446.948C284.982 446.768 284.963 446.588 284.926 446.412C284.88 446.042 284.806 445.553 284.732 444.971C284.551 443.372 284.118 441.813 283.448 440.351C282.754 438.86 281.672 437.583 280.315 436.655C279.904 436.39 279.464 436.173 279.003 436.008C278.876 435.961 278.746 435.921 278.615 435.888C278.532 435.888 278.486 435.888 278.477 435.888C279.097 436.13 279.689 436.439 280.241 436.812C281.546 437.737 282.592 438.981 283.281 440.425C283.95 441.889 284.392 443.447 284.593 445.045C284.704 445.654 284.787 446.144 284.852 446.486C284.886 446.642 284.929 446.797 284.982 446.948Z" fill="#263238"/>
<path d="M285.895 424.458C285.886 424.535 285.886 424.612 285.895 424.689C285.895 424.865 285.848 425.086 285.821 425.354C285.765 425.927 285.7 426.768 285.617 427.803C285.46 429.873 285.275 432.728 285.155 435.888C285.035 439.048 284.98 441.922 284.971 443.991C284.971 445.026 284.971 445.839 284.971 446.449C284.971 446.717 284.971 446.939 284.971 447.115C284.963 447.191 284.963 447.269 284.971 447.346C284.978 447.269 284.978 447.191 284.971 447.115C284.971 446.939 284.971 446.717 284.971 446.449C284.971 445.839 284.971 445.008 285.026 443.991C285.026 441.922 285.137 439.057 285.257 435.897C285.377 432.737 285.543 429.882 285.664 427.812C285.728 426.796 285.774 425.964 285.811 425.364C285.811 425.086 285.811 424.865 285.811 424.689C285.852 424.617 285.88 424.539 285.895 424.458Z" fill="#263238"/>
<path d="M286.236 440.646C286.568 439.09 287.265 437.636 288.271 436.403C289.277 435.171 290.562 434.196 292.021 433.559C292.338 433.281 292.749 433.134 293.171 433.148C293.593 433.162 293.994 433.336 294.292 433.635C294.591 433.933 294.765 434.334 294.778 434.756C294.792 435.177 294.646 435.589 294.368 435.906C293.658 437.438 292.51 438.726 291.07 439.608C289.63 440.489 287.961 440.924 286.273 440.859" fill="#633CFF"/>
<path d="M291.56 435.999C291.398 436.046 291.24 436.108 291.089 436.184C290.905 436.255 290.726 436.338 290.553 436.433C290.318 436.549 290.09 436.679 289.869 436.821C289.629 436.978 289.352 437.145 289.084 437.357C288.792 437.577 288.511 437.812 288.243 438.06C287.631 438.631 287.086 439.27 286.617 439.963C286.161 440.666 285.789 441.419 285.508 442.208C285.386 442.553 285.284 442.905 285.203 443.262C285.127 443.566 285.068 443.875 285.027 444.186C284.981 444.472 284.981 444.74 284.963 444.971C284.945 445.168 284.945 445.366 284.963 445.562C284.951 445.729 284.951 445.895 284.963 446.061C285.009 446.061 284.963 445.35 285.148 444.213C285.19 443.902 285.252 443.593 285.332 443.289C285.418 442.942 285.523 442.6 285.647 442.264C285.934 441.492 286.306 440.755 286.755 440.065C287.219 439.395 287.752 438.776 288.345 438.217C288.604 437.969 288.875 437.735 289.158 437.514C289.403 437.316 289.659 437.131 289.925 436.96C290.904 436.304 291.579 436.036 291.56 435.999Z" fill="#263238"/>
<path d="M248.083 96.7431C266.368 96.7431 281.19 81.9207 281.19 63.6362C281.19 45.3518 266.368 30.5293 248.083 30.5293C229.799 30.5293 214.977 45.3518 214.977 63.6362C214.977 81.9207 229.799 96.7431 248.083 96.7431Z" fill="#633CFF"/>
<path opacity="0.9" d="M248.083 96.7431C266.368 96.7431 281.19 81.9207 281.19 63.6362C281.19 45.3518 266.368 30.5293 248.083 30.5293C229.799 30.5293 214.977 45.3518 214.977 63.6362C214.977 81.9207 229.799 96.7431 248.083 96.7431Z" fill="white"/>
<path d="M248.084 93.1675C264.393 93.1675 277.615 79.9461 277.615 63.6365C277.615 47.327 264.393 34.1055 248.084 34.1055C231.774 34.1055 218.553 47.327 218.553 63.6365C218.553 79.9461 231.774 93.1675 248.084 93.1675Z" fill="#633CFF"/>
<path opacity="0.6" d="M248.084 93.1675C264.393 93.1675 277.615 79.9461 277.615 63.6365C277.615 47.327 264.393 34.1055 248.084 34.1055C231.774 34.1055 218.553 47.327 218.553 63.6365C218.553 79.9461 231.774 93.1675 248.084 93.1675Z" fill="white"/>
<path d="M252.185 87.8806C265.564 85.6154 274.573 72.9334 272.308 59.5546C270.043 46.1759 257.361 37.1666 243.982 39.4319C230.603 41.6971 221.594 54.3791 223.859 67.7578C226.125 81.1366 238.807 90.1459 252.185 87.8806Z" fill="#633CFF"/>
<path opacity="0.3" d="M252.185 87.8806C265.564 85.6154 274.573 72.9334 272.308 59.5546C270.043 46.1759 257.361 37.1666 243.982 39.4319C230.603 41.6971 221.594 54.3791 223.859 67.7578C226.125 81.1366 238.807 90.1459 252.185 87.8806Z" fill="white"/>
<path fill-rule="evenodd" clip-rule="evenodd" d="M267.754 63.6368C267.754 67.5276 266.6 71.3309 264.439 74.566C262.277 77.801 259.205 80.3224 255.61 81.8113C252.016 83.3003 248.06 83.6898 244.244 82.9308C240.428 82.1717 236.923 80.2981 234.172 77.547C231.421 74.7958 229.547 71.2906 228.788 67.4746C228.029 63.6586 228.419 59.7033 229.908 56.1087C231.397 52.5141 233.918 49.4417 237.153 47.2802C240.388 45.1186 244.191 43.9648 248.082 43.9648C253.299 43.9673 258.301 46.0407 261.99 49.7293C265.678 53.418 267.752 58.4202 267.754 63.6368Z" fill="#633CFF"/>
<path d="M135.291 196.303C135.291 196.303 132.722 197.431 117.393 197.431C108.744 197.431 92.8145 194.308 92.8145 194.308L135.291 196.303Z" fill="#263238"/>
<path d="M142.572 194.271C142.572 194.271 140.114 196.877 134.135 196.858C128.157 196.84 91.9641 194.216 92.2043 194.271C92.4446 194.327 142.581 193.837 142.581 193.837L142.572 194.271Z" fill="#455A64"/>
<path d="M142.128 197.432H145.242V192.119H142.128V197.432Z" fill="#E0E0E0"/>
<path d="M137.832 198.558V196.747H148.744V199.076L137.832 198.558Z" fill="#263238"/>
<path d="M140.493 231.425L137.194 208.612L135.697 207.198V199.982L136.797 198.559H149.326L149.068 207.457L147.478 231.268C147.446 231.785 147.219 232.27 146.844 232.626C146.468 232.983 145.972 233.184 145.455 233.19H142.498C142.007 233.188 141.533 233.008 141.165 232.683C140.796 232.359 140.558 231.912 140.493 231.425Z" fill="#633CFF"/>
<path d="M153.003 198.558L212.638 192.82L211.049 201.45L151.737 207.456H147.395V198.558H153.003Z" fill="#633CFF"/>
<path d="M188.127 193.568C188.127 193.568 156.711 197.846 152.007 197.08C149.076 196.57 146.26 195.541 143.691 194.04L188.127 193.568Z" fill="#455A64"/>
<path opacity="0.3" d="M142.572 194.271C142.572 194.271 140.114 196.877 134.135 196.858C128.157 196.84 91.9641 194.216 92.2043 194.271C92.4446 194.327 142.581 193.837 142.581 193.837L142.572 194.271Z" fill="black"/>
<path opacity="0.3" d="M188.127 193.568C188.127 193.568 156.711 197.846 152.007 197.08C149.076 196.57 146.26 195.541 143.691 194.04L188.127 193.568Z" fill="black"/>
<path d="M142.128 192.599H145.242V192.118H142.128V192.599Z" fill="#633CFF"/>
<path opacity="0.3" d="M135.697 199.982L137.508 199.575L136.797 198.559L135.697 199.982Z" fill="black"/>
<path d="M149.53 202.531C149.715 204.502 149.578 206.49 149.123 208.417C148.938 206.446 149.075 204.458 149.53 202.531Z" fill="#263238"/>
<path opacity="0.3" d="M210.383 201.515L209.349 197.911L193.465 194.668L191.441 194.779C191.674 195.876 192.181 196.896 192.915 197.744C193.648 198.592 194.585 199.241 195.636 199.63C199.249 200.933 205.32 200.138 205.32 200.138L205.874 201.986L210.383 201.515Z" fill="black"/>
<path d="M347.145 197.089C347.145 197.089 349.722 198.216 365.052 198.216C373.691 198.216 389.63 195.103 389.63 195.103L347.145 197.089Z" fill="#263238"/>
<path d="M339.874 195.065C339.874 195.065 342.332 197.671 348.311 197.652C354.289 197.634 390.482 195 390.242 195.065C390.001 195.13 339.865 194.631 339.865 194.631L339.874 195.065Z" fill="#455A64"/>
<path d="M340.317 192.912H337.203V198.225H340.317V192.912Z" fill="#E0E0E0"/>
<path d="M344.616 199.353V197.533H333.703V199.871L344.616 199.353Z" fill="#263238"/>
<path d="M341.952 232.219L345.251 209.406L346.748 207.983V200.775L345.648 199.353H333.109L333.377 208.251L334.967 232.053C334.997 232.571 335.223 233.059 335.598 233.417C335.974 233.775 336.471 233.978 336.99 233.984H339.947C340.438 233.982 340.912 233.802 341.28 233.477C341.649 233.153 341.887 232.706 341.952 232.219Z" fill="#633CFF"/>
<path d="M329.442 199.353L269.807 193.605L271.396 202.236L330.707 208.251H335.05V199.353H329.442Z" fill="#633CFF"/>
<path d="M294.32 194.363C294.32 194.363 325.736 198.632 330.439 197.874C333.387 197.37 336.219 196.341 338.802 194.835L294.32 194.363Z" fill="#455A64"/>
<path opacity="0.3" d="M339.874 195.065C339.874 195.065 342.332 197.671 348.311 197.652C354.289 197.634 390.482 195 390.242 195.065C390.001 195.13 339.865 194.631 339.865 194.631L339.874 195.065Z" fill="black"/>
<path opacity="0.3" d="M294.32 194.363C294.32 194.363 325.736 198.632 330.439 197.874C333.387 197.37 336.219 196.341 338.802 194.835L294.32 194.363Z" fill="black"/>
<path d="M340.317 192.912H337.203V193.393H340.317V192.912Z" fill="#633CFF"/>
<path opacity="0.3" d="M346.739 200.775L344.938 200.36L345.649 199.353L346.739 200.775Z" fill="black"/>
<path d="M332.916 203.326C333.214 204.271 333.364 205.256 333.359 206.246C333.524 207.225 333.524 208.224 333.359 209.203C333.062 208.258 332.915 207.273 332.925 206.283C332.755 205.305 332.752 204.305 332.916 203.326Z" fill="#263238"/>
<path d="M121.357 164.158C121.357 164.158 125.515 166.006 150.242 166.006C164.185 166.006 189.891 160.97 189.891 160.97L121.357 164.158Z" fill="#263238"/>
<path d="M109.622 160.896C109.622 160.896 113.586 165.091 123.223 165.063C132.86 165.035 191.266 160.775 190.878 160.896C190.49 161.016 109.566 160.193 109.566 160.193L109.622 160.896Z" fill="#455A64"/>
<path d="M110.334 157.422H105.316V165.987H110.334V157.422Z" fill="#E0E0E0"/>
<path d="M100.668 167.447V165.063H114.981V168.122L100.668 167.447Z" fill="#263238"/>
<path d="M104.162 210.533L99.8378 180.624L97.8789 178.776V169.314L99.3111 167.466H115.74L115.398 179.136L113.31 210.339C113.272 211.017 112.978 211.655 112.487 212.123C111.996 212.592 111.346 212.856 110.667 212.862H106.786C106.142 212.854 105.522 212.614 105.04 212.187C104.558 211.759 104.246 211.172 104.162 210.533Z" fill="#633CFF"/>
<path d="M120.562 167.447L197.698 178.831L195.609 190.141L118.899 179.108H113.207V167.447H120.562Z" fill="#633CFF"/>
<path d="M36.1367 159.76C36.1367 159.76 86.7812 166.653 94.4042 165.424C99.1578 164.607 103.727 162.945 107.895 160.517L36.1367 159.76Z" fill="#455A64"/>
<path opacity="0.3" d="M186.574 177.187V188.847L193.209 189.799V178.166L186.574 177.187Z" fill="black"/>
<path d="M110.334 157.422H105.316V158.189H110.334V157.422Z" fill="#633CFF"/>
<path opacity="0.3" d="M97.8789 169.314L100.244 168.778L99.3111 167.447L97.8789 169.314Z" fill="black"/>
<path d="M116.006 172.649C116.163 173.935 116.163 175.235 116.006 176.521C115.999 177.818 115.831 179.109 115.507 180.365C115.347 179.079 115.347 177.779 115.507 176.493C115.516 175.196 115.684 173.906 116.006 172.649Z" fill="#263238"/>
<path d="M359.537 164.158C359.537 164.158 355.379 166.006 330.653 166.006C316.71 166.006 291.004 160.97 291.004 160.97L359.537 164.158Z" fill="#263238"/>
<path d="M371.27 160.896C371.27 160.896 367.306 165.091 357.669 165.063C348.032 165.035 289.635 160.794 290.014 160.896C290.392 160.997 371.326 160.193 371.326 160.193L371.27 160.896Z" fill="#455A64"/>
<path d="M370.561 165.987H375.578V157.422H370.561V165.987Z" fill="#E0E0E0"/>
<path d="M380.225 167.447V165.063H365.912V168.122L380.225 167.447Z" fill="#263238"/>
<path d="M376.731 210.533L381.056 180.624L383.015 178.776V169.314L381.583 167.466H365.145L365.496 179.136L367.584 210.339C367.621 211.017 367.916 211.655 368.406 212.123C368.897 212.592 369.548 212.856 370.227 212.862H374.107C374.752 212.854 375.372 212.614 375.853 212.187C376.335 211.759 376.647 211.172 376.731 210.533Z" fill="#633CFF"/>
<path d="M360.331 167.447L283.195 178.831L285.284 190.141L361.994 179.108H367.686V167.447H360.331Z" fill="#633CFF"/>
<path d="M444.758 159.76C444.758 159.76 394.104 166.653 386.49 165.424C381.737 164.607 377.168 162.945 373 160.517L444.758 159.76Z" fill="#455A64"/>
<path opacity="0.3" d="M294.322 177.187V188.847L287.688 189.799V178.166L294.322 177.187Z" fill="black"/>
<path d="M370.561 158.188H375.578V157.422H370.561V158.188Z" fill="#633CFF"/>
<path opacity="0.3" d="M383.016 169.314L380.65 168.778L381.584 167.447L383.016 169.314Z" fill="black"/>
<path d="M364.888 172.649C365.212 173.905 365.38 175.196 365.387 176.493C365.55 177.779 365.55 179.079 365.387 180.365C365.062 179.109 364.895 177.818 364.888 176.521C364.725 175.236 364.725 173.935 364.888 172.649Z" fill="#263238"/>
<path opacity="0.3" d="M272.062 202.356L273.097 198.752L288.981 195.5L291.004 195.611C290.77 196.708 290.262 197.729 289.529 198.578C288.796 199.427 287.861 200.078 286.81 200.471C283.197 201.774 277.126 200.979 277.126 200.979L276.572 202.827L272.062 202.356Z" fill="black"/>
<path d="M209.045 198.475L214.238 215.357C215.605 219.81 219.015 222.749 222.822 222.749H259.643C263.339 222.749 266.684 219.977 268.116 215.689L274.51 196.6L209.045 198.475Z" fill="#633CFF"/>
<path d="M193.346 191.841V176.669C193.329 174.911 194.01 173.218 195.24 171.962C196.47 170.706 198.149 169.99 199.907 169.97H207.899L209.008 167.984C209.753 166.624 210.849 165.488 212.181 164.695C213.514 163.902 215.034 163.481 216.585 163.475H263.783C265.303 163.48 266.794 163.885 268.109 164.647C269.424 165.409 270.516 166.502 271.277 167.817L272.542 169.85H283.769C285.418 169.906 286.979 170.603 288.121 171.795C289.262 172.986 289.892 174.576 289.877 176.226V192.193C289.885 193.021 289.73 193.844 289.421 194.613C289.112 195.382 288.654 196.082 288.074 196.674C287.494 197.266 286.803 197.738 286.041 198.063C285.278 198.388 284.459 198.56 283.63 198.568H199.907C199.034 198.558 198.172 198.377 197.369 198.033C196.567 197.69 195.84 197.191 195.231 196.566C194.621 195.941 194.141 195.202 193.818 194.392C193.494 193.581 193.334 192.714 193.346 191.841Z" fill="#633CFF"/>
<path opacity="0.3" d="M198.873 179.274H198.688C198.142 179.274 197.699 179.717 197.699 180.263V190.002C197.699 190.548 198.142 190.991 198.688 190.991H198.873C199.419 190.991 199.861 190.548 199.861 190.002V180.263C199.861 179.717 199.419 179.274 198.873 179.274Z" fill="black"/>
<path opacity="0.3" d="M202.779 179.274H202.594C202.048 179.274 201.605 179.717 201.605 180.263V190.002C201.605 190.548 202.048 190.991 202.594 190.991H202.779C203.325 190.991 203.768 190.548 203.768 190.002V180.263C203.768 179.717 203.325 179.274 202.779 179.274Z" fill="black"/>
<path opacity="0.3" d="M206.679 179.274H206.495C205.948 179.274 205.506 179.717 205.506 180.263V190.002C205.506 190.548 205.948 190.991 206.495 190.991H206.679C207.225 190.991 207.668 190.548 207.668 190.002V180.263C207.668 179.717 207.225 179.274 206.679 179.274Z" fill="black"/>
<path opacity="0.3" d="M278.298 179.274H278.114C277.568 179.274 277.125 179.717 277.125 180.263V190.002C277.125 190.548 277.568 190.991 278.114 190.991H278.298C278.845 190.991 279.287 190.548 279.287 190.002V180.263C279.287 179.717 278.845 179.274 278.298 179.274Z" fill="black"/>
<path opacity="0.3" d="M282.207 179.274H282.022C281.476 179.274 281.033 179.717 281.033 180.263V190.002C281.033 190.548 281.476 190.991 282.022 190.991H282.207C282.753 190.991 283.195 190.548 283.195 190.002V180.263C283.195 179.717 282.753 179.274 282.207 179.274Z" fill="black"/>
<path opacity="0.3" d="M286.115 179.274H285.93C285.384 179.274 284.941 179.717 284.941 180.263V190.002C284.941 190.548 285.384 190.991 285.93 190.991H286.115C286.661 190.991 287.104 190.548 287.104 190.002V180.263C287.104 179.717 286.661 179.274 286.115 179.274Z" fill="black"/>
<path d="M255.687 198.54H225.823C222.894 198.54 220.52 200.915 220.52 203.844V213.121C220.52 216.05 222.894 218.425 225.823 218.425H255.687C258.616 218.425 260.991 216.05 260.991 213.121V203.844C260.991 200.915 258.616 198.54 255.687 198.54Z" fill="#455A64"/>
<path d="M274.122 169.85C274.122 169.988 259.107 170.09 240.59 170.09C222.073 170.09 207.049 169.988 207.049 169.85C207.049 169.711 222.064 169.609 240.59 169.609C259.116 169.609 274.122 169.72 274.122 169.85Z" fill="#263238"/>
<path d="M275.693 198.54C275.693 198.669 260.475 198.78 241.699 198.78C222.923 198.78 207.705 198.669 207.705 198.54C207.705 198.411 222.923 198.3 241.699 198.3C260.475 198.3 275.693 198.401 275.693 198.54Z" fill="#263238"/>
<path d="M193.208 177.667C193.445 179.929 193.526 182.204 193.448 184.477C193.526 186.75 193.445 189.025 193.208 191.287C192.964 189.025 192.884 186.75 192.967 184.477C192.884 182.204 192.964 179.928 193.208 177.667Z" fill="#263238"/>
<path d="M290.023 177.667C290.261 179.929 290.341 182.204 290.263 184.477C290.341 186.75 290.261 189.025 290.023 191.287C289.785 189.025 289.705 186.75 289.783 184.477C289.705 182.204 289.785 179.929 290.023 177.667Z" fill="#263238"/>
<path opacity="0.3" d="M241.023 216.965C245.616 216.965 249.339 213.167 249.339 208.482C249.339 203.798 245.616 200 241.023 200C236.43 200 232.707 203.798 232.707 208.482C232.707 213.167 236.43 216.965 241.023 216.965Z" fill="black"/>
<path opacity="0.3" d="M246.126 208.482C246.104 209.486 245.786 210.461 245.213 211.285C244.639 212.109 243.835 212.745 242.901 213.114C241.968 213.483 240.946 213.569 239.964 213.36C238.982 213.15 238.083 212.656 237.381 211.939C236.679 211.221 236.204 210.312 236.016 209.326C235.828 208.34 235.935 207.32 236.324 206.394C236.713 205.469 237.367 204.679 238.203 204.123C239.039 203.567 240.021 203.271 241.025 203.271C241.703 203.277 242.372 203.416 242.995 203.682C243.619 203.947 244.184 204.333 244.657 204.817C245.131 205.301 245.505 205.874 245.757 206.503C246.009 207.132 246.134 207.804 246.126 208.482Z" fill="black"/>
<path d="M239.472 209.397C240.105 209.397 240.618 208.876 240.618 208.233C240.618 207.59 240.105 207.068 239.472 207.068C238.839 207.068 238.326 207.59 238.326 208.233C238.326 208.876 238.839 209.397 239.472 209.397Z" fill="#633CFF"/>
<path d="M246.606 203.613C245.682 201.571 243.011 200.591 240.858 200.665C240.433 200.663 240.012 200.748 239.62 200.915C239.425 201.007 239.262 201.154 239.149 201.338C239.035 201.521 238.978 201.734 238.983 201.949C239.039 202.182 239.166 202.391 239.346 202.549C239.527 202.706 239.752 202.803 239.99 202.827C240.462 202.856 240.936 202.834 241.404 202.763C242.205 202.72 243.003 202.893 243.715 203.264C244.426 203.634 245.026 204.189 245.451 204.869C245.533 205.026 245.646 205.164 245.783 205.276C245.876 205.32 245.977 205.344 246.079 205.345C246.182 205.346 246.283 205.324 246.376 205.282C246.47 205.24 246.553 205.178 246.619 205.1C246.686 205.022 246.735 204.931 246.763 204.832C246.868 204.421 246.812 203.984 246.606 203.613Z" fill="white"/>
<path d="M247.383 207.78C247.954 207.78 248.417 207.308 248.417 206.726C248.417 206.144 247.954 205.673 247.383 205.673C246.811 205.673 246.348 206.144 246.348 206.726C246.348 207.308 246.811 207.78 247.383 207.78Z" fill="white"/>
<path d="M243.798 164.277H234.096C233.698 164.277 233.375 164.6 233.375 164.998V165.155C233.375 165.553 233.698 165.876 234.096 165.876H243.798C244.196 165.876 244.518 165.553 244.518 165.155V164.998C244.518 164.6 244.196 164.277 243.798 164.277Z" fill="white"/>
<path d="M248.028 164.278H246.568C246.17 164.278 245.848 164.601 245.848 164.999V165.156C245.848 165.554 246.17 165.877 246.568 165.877H248.028C248.426 165.877 248.749 165.554 248.749 165.156V164.999C248.749 164.601 248.426 164.278 248.028 164.278Z" fill="white"/>
</svg>
