<svg width="204" height="44" viewBox="0 0 204 44" fill="none" xmlns="http://www.w3.org/2000/svg">
<g id="Logo SVG Branca Zenith 1" clip-path="url(#clip0_941_18575)">
<path id="Vector" fill-rule="evenodd" clip-rule="evenodd" d="M50.9832 1.68762V3.32053H60.475H69.9665L69.9662 4.24587V5.17121L65.6569 6.67045C63.2868 7.49497 61.2164 8.2385 61.0556 8.32274C60.8755 8.41725 61.6211 8.83113 63.0019 9.40288L65.2403 10.3299L67.658 9.51522C72.791 7.78563 73.3487 7.27461 73.3487 4.30029C73.3487 2.30116 72.944 1.36647 71.7227 0.545219L70.9931 0.0546875H60.9881H50.9832V1.68762ZM80.8765 9.96111V16.5225C80.8765 18.3699 82.3758 19.8675 84.2254 19.8675H92.1138H103.351V18.2346V16.6017H93.8592H84.3676V14.1005V11.5993L92.7138 11.5422L101.06 11.4852L101.124 9.90669L101.188 8.3282H92.778H84.3676V5.82436V3.32053H93.8592H103.351V1.68762V0.0546875H92.1138H84.2254C82.3758 0.0546875 80.8765 1.55231 80.8765 3.39971V9.96111ZM110.988 9.96111V19.8675H112.734H114.479V12.6779V5.48821L117.898 8.22499L121.318 10.9616L122.48 9.81568C123.12 9.18537 123.644 8.60689 123.644 8.53003C123.644 8.45317 121.343 6.51478 118.531 4.22258L114.343 0.808357C113.746 0.320919 112.998 0.0546875 112.226 0.0546875H112.203C111.532 0.0546875 110.988 0.598281 110.988 1.26884V9.96111ZM131.499 7.34844C131.499 11.36 131.449 14.6422 131.389 14.6422C131.328 14.6422 130.086 13.6659 128.628 12.4728L125.978 10.3032L125.193 10.9269C124.761 11.2701 124.183 11.7907 123.909 12.0837L123.411 12.6167L127.926 16.242L131.521 19.1294C132.116 19.6071 132.856 19.8675 133.62 19.8675H133.715C134.419 19.8675 134.99 19.2974 134.99 18.5941V9.96111V0.0546875H133.244H131.499V7.34844ZM143.281 9.96111V19.8675H145.027H146.772V9.96111V0.0546875H145.027H143.281V9.96111ZM152.491 1.63318L152.555 3.21169L157.082 3.27046L161.61 3.32946V11.5984V19.8675H163.356H165.101V11.5941V3.32053H169.574H174.047V1.68762V0.0546875H163.237H152.426L152.491 1.63318ZM179.939 9.96111V19.8675H181.63H183.321L183.331 9.96111L183.342 0.0546875H181.64H179.939V9.96111ZM199.795 4.19145V8.3282H192.922H186.048V9.96111V11.5941H192.922H199.795V15.7308V19.8675H201.54H203.286V9.96111V0.0546875H201.54H199.795V4.19145ZM53.8198 10.8085C49.8061 12.2764 49.5941 12.507 49.5003 15.5131C49.4272 17.8601 49.7327 18.6407 51.036 19.4332C51.7179 19.8484 52.1532 19.866 61.7295 19.8667L71.7121 19.8675V18.2346V16.6017H62.3295H52.947V15.6439V14.6864L54.529 14.1166C55.3992 13.8033 57.321 13.1242 58.8 12.6073L61.4894 11.6676L59.2868 10.76C58.0755 10.2607 56.9145 9.86097 56.7068 9.87164C56.4992 9.88209 55.2 10.3038 53.8198 10.8085Z" fill="white"/>
<path id="Vector_2" fill-rule="evenodd" clip-rule="evenodd" d="M0.5 5.75294C0.5 2.57567 3.07872 0 6.25974 0H38.2771C41.4581 0 44.0368 2.57567 44.0368 5.75294V38.0708C44.0368 41.2481 41.4581 43.8237 38.2771 43.8237H6.25974C3.07872 43.8237 0.5 41.2481 0.5 38.0708V5.75294ZM27.1569 9.81383L37.6315 17.2874C39.8039 18.8373 38.7044 22.2543 36.0332 22.2543H25.0114C28.9071 20.4513 26.5922 16.9055 25.0114 16.9055H15.6944L5.68006 9.81383H27.1569ZM6.58544 26.5958L16.9073 34.0099H39.0533L29.7258 27.3086H19.5969C17.9946 27.3086 15.6484 23.958 19.5969 22.2543H7.99016C5.65684 22.2543 4.69213 25.236 6.58544 26.5958Z" fill="white"/>
<path id="Vector_3" fill-rule="evenodd" clip-rule="evenodd" d="M50.9832 1.68762V3.32053H60.475H69.9665L69.9662 4.24587V5.17121L65.6569 6.67045C63.2868 7.49497 61.2164 8.2385 61.0556 8.32274C60.8755 8.41725 61.6211 8.83113 63.0019 9.40288L65.2403 10.3299L67.658 9.51522C72.791 7.78563 73.3487 7.27461 73.3487 4.30029C73.3487 2.30116 72.944 1.36647 71.7227 0.545219L70.9931 0.0546875H60.9881H50.9832V1.68762ZM80.8765 9.96111V16.5225C80.8765 18.3699 82.3758 19.8675 84.2254 19.8675H92.1138H103.351V18.2346V16.6017H93.8592H84.3676V14.1005V11.5993L92.7138 11.5422L101.06 11.4852L101.124 9.90669L101.188 8.3282H92.778H84.3676V5.82436V3.32053H93.8592H103.351V1.68762V0.0546875H92.1138H84.2254C82.3758 0.0546875 80.8765 1.55231 80.8765 3.39971V9.96111ZM110.988 9.96111V19.8675H112.734H114.479V12.6779V5.48821L117.898 8.22499L121.318 10.9616L122.48 9.81568C123.12 9.18537 123.644 8.60689 123.644 8.53003C123.644 8.45317 121.343 6.51478 118.531 4.22258L114.343 0.808357C113.746 0.320919 112.998 0.0546875 112.226 0.0546875H112.203C111.532 0.0546875 110.988 0.598281 110.988 1.26884V9.96111ZM131.499 7.34844C131.499 11.36 131.449 14.6422 131.389 14.6422C131.328 14.6422 130.086 13.6659 128.628 12.4728L125.978 10.3032L125.193 10.9269C124.761 11.2701 124.183 11.7907 123.909 12.0837L123.411 12.6167L127.926 16.242L131.521 19.1294C132.116 19.6071 132.856 19.8675 133.62 19.8675H133.715C134.419 19.8675 134.99 19.2974 134.99 18.5941V9.96111V0.0546875H133.244H131.499V7.34844ZM143.281 9.96111V19.8675H145.027H146.772V9.96111V0.0546875H145.027H143.281V9.96111ZM152.491 1.63318L152.555 3.21169L157.082 3.27046L161.61 3.32946V11.5984V19.8675H163.356H165.101V11.5941V3.32053H169.574H174.047V1.68762V0.0546875H163.237H152.426L152.491 1.63318ZM179.939 9.96111V19.8675H181.63H183.321L183.331 9.96111L183.342 0.0546875H181.64H179.939V9.96111ZM199.795 4.19145V8.3282H192.922H186.048V9.96111V11.5941H192.922H199.795V15.7308V19.8675H201.54H203.286V9.96111V0.0546875H201.54H199.795V4.19145ZM53.8198 10.8085C49.8061 12.2764 49.5941 12.507 49.5003 15.5131C49.4272 17.8601 49.7327 18.6407 51.036 19.4332C51.7179 19.8484 52.1532 19.866 61.7295 19.8667L71.7121 19.8675V18.2346V16.6017H62.3295H52.947V15.6439V14.6864L54.529 14.1166C55.3992 13.8033 57.321 13.1242 58.8 12.6073L61.4894 11.6676L59.2868 10.76C58.0755 10.2607 56.9145 9.86097 56.7068 9.87164C56.4992 9.88209 55.2 10.3038 53.8198 10.8085Z" fill="white"/>
<path id="Vector_4" fill-rule="evenodd" clip-rule="evenodd" d="M49.4902 37.2352V43.5393H50.6668H51.8435V37.2352V30.9312H50.6668H49.4902V37.2352ZM57.0731 37.2352V43.5393H58.2496H59.4264V39.0328V34.5263L65.1449 39.0328C70.1901 43.0088 70.9753 43.5393 71.8125 43.5393H72.7616V37.2352V30.9312H71.4603H70.1589L70.0875 35.468L70.0162 40.0052L64.3945 35.4734C59.6956 31.6858 58.633 30.9409 57.9227 30.9366L57.0731 30.9312V37.2352ZM79.8127 31.1421C78.9871 31.5024 78.3072 32.1161 77.7662 32.9896C77.2737 33.7852 77.2085 34.2757 77.2077 37.2003C77.2067 40.0741 77.2778 40.6335 77.7474 41.4459C78.8356 43.3289 79.0857 43.4014 84.7945 43.4894C89.7592 43.5661 89.9223 43.5519 90.7845 42.9748C92.6283 41.7402 92.7645 41.345 92.7645 37.2352C92.7645 33.1337 92.6259 32.729 90.8061 31.5101C89.9836 30.9589 89.7072 30.9319 85.0778 30.9492C82.4025 30.9592 80.0332 31.0459 79.8127 31.1421ZM96.4652 31.6758C96.7308 32.0854 98.6544 34.9174 100.74 37.9688C104.264 43.1261 104.586 43.5172 105.315 43.52C106.048 43.5229 106.377 43.1197 110.284 37.4398C112.585 34.094 114.506 31.2608 114.554 31.1439C114.602 31.0269 114.014 30.9358 113.247 30.9417L111.852 30.9523L108.603 35.7019C106.816 38.3141 105.336 40.4516 105.314 40.4516C105.293 40.4516 103.819 38.3095 102.04 35.6914L98.8056 30.9312H97.3936H95.9819L96.4652 31.6758ZM121.074 37.2224L116.733 43.5393H118.147H119.561L120.516 42.1241L121.47 40.7089H126.137H130.804L131.759 42.1241L132.714 43.5393H134.123H135.533L131.24 37.2996C127.416 31.7417 126.863 31.0513 126.181 30.9826C125.45 30.9093 125.214 31.1977 121.074 37.2224ZM80.202 33.6213C79.5943 34.2191 79.56 34.4118 79.56 37.2352C79.56 40.0587 79.5943 40.2514 80.202 40.8492C80.8285 41.4659 80.9403 41.4809 84.9256 41.4809C87.1707 41.4809 89.2228 41.3674 89.4859 41.229C90.2062 40.8497 90.5421 39.5791 90.5421 37.2352C90.5421 34.8914 90.2062 33.6208 89.4859 33.2415C89.2228 33.1031 87.1707 32.9896 84.9256 32.9896C80.9403 32.9896 80.8285 33.0046 80.202 33.6213ZM124.986 35.6129C124.346 36.5053 123.616 37.5538 123.364 37.9428L122.905 38.6505H126.073C127.815 38.6505 129.241 38.6046 129.241 38.5488C129.241 38.493 128.545 37.4444 127.695 36.2189L126.15 33.9903L124.986 35.6129Z" fill="white"/>
</g>
<defs>
<clipPath id="clip0_941_18575">
<rect width="203" height="44" fill="white" transform="translate(0.5)"/>
</clipPath>
</defs>
</svg>
