<svg id="wave" style="transform:rotate(180deg); transition: 0.3s" viewBox="0 0 1440 490" version="1.1" xmlns="http://www.w3.org/2000/svg"><defs><linearGradient id="sw-gradient-0" x1="0" x2="0" y1="1" y2="0"><stop stop-color="rgba(255, 255, 255, 1)" offset="0%"></stop><stop stop-color="rgba(255, 255, 255, 1)" offset="100%"></stop></linearGradient></defs><path style="transform:translate(0, 0px); opacity:1" fill="url(#sw-gradient-0)" d="M0,0L120,73.5C240,147,480,294,720,326.7C960,359,1200,278,1440,212.3C1680,147,1920,98,2160,106.2C2400,114,2640,180,2880,204.2C3120,229,3360,212,3600,245C3840,278,4080,359,4320,383.8C4560,408,4800,376,5040,367.5C5280,359,5520,376,5760,359.3C6000,343,6240,294,6480,236.8C6720,180,6960,114,7200,138.8C7440,163,7680,278,7920,277.7C8160,278,8400,163,8640,106.2C8880,49,9120,49,9360,40.8C9600,33,9840,16,10080,16.3C10320,16,10560,33,10800,81.7C11040,131,11280,212,11520,228.7C11760,245,12000,196,12240,163.3C12480,131,12720,114,12960,98C13200,82,13440,65,13680,89.8C13920,114,14160,180,14400,245C14640,310,14880,376,15120,367.5C15360,359,15600,278,15840,269.5C16080,261,16320,327,16560,310.3C16800,294,17040,196,17160,147L17280,98L17280,490L17160,490C17040,490,16800,490,16560,490C16320,490,16080,490,15840,490C15600,490,15360,490,15120,490C14880,490,14640,490,14400,490C14160,490,13920,490,13680,490C13440,490,13200,490,12960,490C12720,490,12480,490,12240,490C12000,490,11760,490,11520,490C11280,490,11040,490,10800,490C10560,490,10320,490,10080,490C9840,490,9600,490,9360,490C9120,490,8880,490,8640,490C8400,490,8160,490,7920,490C7680,490,7440,490,7200,490C6960,490,6720,490,6480,490C6240,490,6000,490,5760,490C5520,490,5280,490,5040,490C4800,490,4560,490,4320,490C4080,490,3840,490,3600,490C3360,490,3120,490,2880,490C2640,490,2400,490,2160,490C1920,490,1680,490,1440,490C1200,490,960,490,720,490C480,490,240,490,120,490L0,490Z"></path></svg>